<svg width="6" height="7" viewBox="0 0 6 7" fill="none" xmlns="http://www.w3.org/2000/svg">
<path d="M0.578125 3.84906C0.578125 5.30868 1.74939 6.47995 3.20605 6.47995C4.6627 6.47995 5.831 5.30868 5.831 3.84906C5.831 3.70636 5.72993 3.60232 5.58426 3.60232C5.44454 3.60232 5.35239 3.70636 5.35239 3.84906C5.35239 5.04411 4.39813 6.00134 3.20605 6.00134C2.01397 6.00134 1.05674 5.04411 1.05674 3.84906C1.05674 2.65698 2.01397 1.70272 3.20605 1.70272C3.43198 1.70272 3.64305 1.72056 3.81844 1.76217L2.92958 2.64211C2.88499 2.68968 2.86121 2.74913 2.86121 2.81156C2.86121 2.94831 2.96228 3.04938 3.09606 3.04938C3.17038 3.04938 3.22686 3.0256 3.26848 2.98101L4.49326 1.75028C4.54677 1.69975 4.56758 1.64029 4.56758 1.57192C4.56758 1.50652 4.54082 1.44112 4.49326 1.39355L3.26848 0.150936C3.22686 0.103372 3.1674 0.0795898 3.09606 0.0795898C2.96228 0.0795898 2.86121 0.186609 2.86121 0.323357C2.86121 0.385785 2.88499 0.44524 2.92661 0.492804L3.71737 1.27464C3.56278 1.24491 3.38739 1.2241 3.20605 1.2241C1.74939 1.2241 0.578125 2.3924 0.578125 3.84906Z" fill="black" fill-opacity="0.4"/>
</svg>
