<svg width="12" height="12" viewBox="0 0 12 12" fill="none" xmlns="http://www.w3.org/2000/svg">
<mask id="mask0_4220_5844" style="mask-type:alpha" maskUnits="userSpaceOnUse" x="0" y="0" width="12" height="12">
<rect x="0.347656" width="11.1684" height="11.1684" fill="#D9D9D9"/>
</mask>
<g mask="url(#mask0_4220_5844)">
<path d="M2.67484 9.7728C2.4189 9.7728 2.19979 9.68167 2.01753 9.4994C1.83527 9.31714 1.74414 9.09804 1.74414 8.8421V2.32722C1.74414 2.07127 1.83527 1.85217 2.01753 1.66991C2.19979 1.48765 2.4189 1.39652 2.67484 1.39652H4.6293C4.73013 1.11731 4.89882 0.89239 5.13537 0.721762C5.37192 0.551134 5.63756 0.46582 5.93228 0.46582C6.227 0.46582 6.49264 0.551134 6.72919 0.721762C6.96574 0.89239 7.13443 1.11731 7.23526 1.39652H9.18972C9.44566 1.39652 9.66477 1.48765 9.84703 1.66991C10.0293 1.85217 10.1204 2.07127 10.1204 2.32722V5.44505C9.97306 5.37525 9.82182 5.31514 9.66671 5.26473C9.51159 5.21432 9.35259 5.17748 9.18972 5.15421V2.32722H2.67484V8.8421H5.4902C5.51347 9.01273 5.55031 9.1756 5.60072 9.33072C5.65113 9.48583 5.71124 9.63319 5.78104 9.7728H2.67484ZM2.67484 8.8421V2.32722V5.15421V5.11931V8.8421ZM3.60554 7.9114H5.50183C5.5251 7.74853 5.56194 7.58954 5.61235 7.43442C5.66277 7.2793 5.719 7.12806 5.78104 6.9807H3.60554V7.9114ZM3.60554 6.05001H6.44416C6.69235 5.81733 6.96962 5.62344 7.27598 5.46832C7.58233 5.3132 7.91001 5.2085 8.25902 5.15421V5.11931H3.60554V6.05001ZM3.60554 4.18861H8.25902V3.25791H3.60554V4.18861ZM5.93228 1.9782C6.03311 1.9782 6.11648 1.94524 6.18241 1.87932C6.24833 1.81339 6.28129 1.73002 6.28129 1.62919C6.28129 1.52837 6.24833 1.44499 6.18241 1.37907C6.11648 1.31314 6.03311 1.28018 5.93228 1.28018C5.83145 1.28018 5.74808 1.31314 5.68216 1.37907C5.61623 1.44499 5.58327 1.52837 5.58327 1.62919C5.58327 1.73002 5.61623 1.81339 5.68216 1.87932C5.74808 1.94524 5.83145 1.9782 5.93228 1.9782ZM8.72437 10.7035C8.08064 10.7035 7.53192 10.4766 7.0782 10.0229C6.62449 9.56921 6.39763 9.02048 6.39763 8.37675C6.39763 7.73302 6.62449 7.18429 7.0782 6.73058C7.53192 6.27686 8.08064 6.05001 8.72437 6.05001C9.36811 6.05001 9.91683 6.27686 10.3705 6.73058C10.8243 7.18429 11.0511 7.73302 11.0511 8.37675C11.0511 9.02048 10.8243 9.56921 10.3705 10.0229C9.91683 10.4766 9.36811 10.7035 8.72437 10.7035ZM8.4917 9.7728H8.95705V8.60942H10.1204V8.14408H8.95705V6.9807H8.4917V8.14408H7.32833V8.60942H8.4917V9.7728Z" fill="#F3F3F3"/>
</g>
</svg>
