<svg width="7" height="7" viewBox="0 0 7 7" fill="none" xmlns="http://www.w3.org/2000/svg">
<path fill-rule="evenodd" clip-rule="evenodd" d="M6.05038 3.23472C6.72245 2.54762 6.71951 1.44239 6.03832 0.760594C5.35685 0.07912 4.25154 0.0766345 3.56448 0.748818L3.56432 0.748696L3.56294 0.75004C3.5589 0.754034 3.55401 0.7566 3.54998 0.760594L3.5512 0.761816L0.802246 3.51094L1.09032 3.79901L3.85036 1.03877C4.36302 0.539507 5.24309 0.541544 5.75021 1.04867C6.27693 1.57596 6.27714 2.43301 5.75107 2.96034L3.00146 5.71056C2.68295 6.0285 2.16544 6.02886 1.84733 5.71056C1.52952 5.39254 1.52931 4.87576 1.84648 4.55729L4.5784 1.82504C4.70541 1.69901 4.91142 1.69909 5.03818 1.82544C5.16498 1.95225 5.16502 2.15862 5.03854 2.28567L2.2926 5.03255L2.58068 5.32062L5.32613 2.57415L5.32621 2.57423C5.3265 2.57394 5.32674 2.57354 5.32702 2.57325L5.36977 2.53047L5.36545 2.52615C5.60789 2.23824 5.59697 1.80841 5.32621 1.53729C5.05545 1.26653 4.62518 1.25566 4.3376 1.49826L4.33328 1.49398L4.29082 1.53639C4.29049 1.53676 4.29004 1.53696 4.28972 1.53733L4.2898 1.53741L1.55934 4.26824L1.55926 4.26816C1.55894 4.26848 1.55873 4.26889 1.55841 4.26921L1.54394 4.28368L1.54541 4.28515C1.08425 4.76346 1.08763 5.52683 1.55926 5.99867C1.79779 6.23703 2.11116 6.35638 2.4243 6.35638C2.73763 6.35638 3.05101 6.23699 3.28953 5.99867L6.03816 3.24943L6.03832 3.24951C6.03865 3.24918 6.03885 3.24878 6.03918 3.24845L6.05165 3.23598L6.05038 3.23472Z" fill="#606060"/>
</svg>
