<svg width="36" height="36" viewBox="0 0 36 36" fill="none" xmlns="http://www.w3.org/2000/svg">
<path d="M25.5731 8.26318H29.9005V12.5906H25.5731V8.26318ZM25.5731 14.7543H29.9005V19.0817H25.5731V14.7543ZM19.082 8.26318H23.4094V12.5906H19.082V8.26318ZM19.082 14.7543H23.4094V19.0817H19.082V14.7543Z" fill="black"/>
<path d="M16.3772 28.8183C17.2734 28.8183 17.9999 28.0918 17.9999 27.1955C17.9999 26.2993 17.2734 25.5728 16.3772 25.5728C15.4809 25.5728 14.7544 26.2993 14.7544 27.1955C14.7544 28.0918 15.4809 28.8183 16.3772 28.8183Z" fill="black"/>
<path d="M23.4094 33.1458H9.34534C8.77149 33.1458 8.22114 32.9178 7.81537 32.512C7.4096 32.1062 7.18164 31.5559 7.18164 30.9821V5.0177C7.18164 4.44385 7.4096 3.89351 7.81537 3.48774C8.22114 3.08196 8.77149 2.854 9.34534 2.854H23.4094V5.0177H9.34534V30.9821H23.4094V22.3273H25.5731V30.9821C25.5731 31.5559 25.3451 32.1062 24.9393 32.512C24.5336 32.9178 23.9832 33.1458 23.4094 33.1458Z" fill="black"/>
</svg>
