<svg width="7" height="5" viewBox="0 0 7 5" fill="none" xmlns="http://www.w3.org/2000/svg">
<path fill-rule="evenodd" clip-rule="evenodd" d="M5.87429 0.983398H5.53562C5.34857 0.983398 5.19695 1.13503 5.19695 1.32207V4.25721C5.19695 4.44425 5.34857 4.59588 5.53562 4.59588H5.87429C6.06133 4.59588 6.21296 4.44425 6.21296 4.25721V1.32207C6.21296 1.13503 6.06133 0.983398 5.87429 0.983398ZM3.95521 1.77352H4.29388C4.48092 1.77352 4.63255 1.92515 4.63255 2.11219V4.2571C4.63255 4.44414 4.48092 4.59577 4.29388 4.59577H3.95521C3.76817 4.59577 3.61654 4.44414 3.61654 4.2571V2.11219C3.61654 1.92515 3.76817 1.77352 3.95521 1.77352ZM2.71331 2.56397H2.37464C2.1876 2.56397 2.03597 2.7156 2.03597 2.90264V4.25732C2.03597 4.44436 2.1876 4.59599 2.37464 4.59599H2.71331C2.90035 4.59599 3.05198 4.44436 3.05198 4.25732V2.90264C3.05198 2.7156 2.90035 2.56397 2.71331 2.56397ZM1.13291 3.24131H0.794236C0.607194 3.24131 0.455566 3.39294 0.455566 3.57998V4.25732C0.455566 4.44436 0.607194 4.59599 0.794236 4.59599H1.13291C1.31995 4.59599 1.47158 4.44436 1.47158 4.25732V3.57998C1.47158 3.39294 1.31995 3.24131 1.13291 3.24131Z" fill="black"/>
</svg>
