<svg width="8" height="8" viewBox="0 0 8 8" fill="none" xmlns="http://www.w3.org/2000/svg">
<mask id="mask0_4294_6284" style="mask-type:alpha" maskUnits="userSpaceOnUse" x="0" y="0" width="8" height="8">
<rect x="0.908691" y="0.559082" width="6.52775" height="6.52775" transform="rotate(7.95999 0.908691 0.559082)" fill="#D9D9D9"/>
</mask>
<g mask="url(#mask0_4294_6284)">
<path d="M1.74797 5.74373L1.00785 4.76299L1.32847 4.52103L1.82084 5.17348L3.12574 4.18874L3.36675 4.51609L1.74797 5.74373ZM2.03481 3.69235L1.29469 2.71161L1.61531 2.46965L2.10768 3.1221L3.41258 2.13736L3.65359 2.46471L2.03481 3.69235ZM3.78982 5.50901L3.84631 5.10496L6.13595 5.42511L6.07945 5.82917L3.78982 5.50901ZM4.07666 3.45763L4.13316 3.05358L6.42279 3.37374L6.36629 3.77779L4.07666 3.45763Z" fill="white"/>
</g>
</svg>
