<svg width="5" height="7" viewBox="0 0 5 7" fill="none" xmlns="http://www.w3.org/2000/svg">
<path d="M4.06055 3.31645C4.06055 3.40792 4.02762 3.48842 3.9581 3.55793L1.05668 6.39349C0.994483 6.45935 0.91399 6.49228 0.818861 6.49228C0.628604 6.49228 0.482253 6.34959 0.482253 6.15933C0.482253 6.0642 0.522499 5.98371 0.58104 5.92151L3.24464 3.31645L0.58104 0.711396C0.522499 0.649196 0.482253 0.565044 0.482253 0.473575C0.482253 0.283318 0.628604 0.140625 0.818861 0.140625C0.91399 0.140625 0.994483 0.173554 1.05668 0.235753L3.9581 3.07497C4.02762 3.14083 4.06055 3.22498 4.06055 3.31645Z" fill="white" fill-opacity="0.2"/>
</svg>
