<svg width="20" height="20" viewBox="0 0 20 20" fill="none" xmlns="http://www.w3.org/2000/svg">
<g clip-path="url(#clip0_4364_7183)">
<path d="M10.192 0.308228C7.35889 0.308228 4.02575 0.982305 1.17985 2.4483L0.737793 2.6736V3.17611C0.737793 6.19724 0.794577 14.2593 9.77494 19.5951L10.192 19.8467L10.609 19.5951C19.5894 14.2593 19.6461 6.19724 19.6461 3.17611V2.68032L19.2071 2.45135C16.396 0.978641 13.025 0.307617 10.192 0.307617V0.308228ZM10.192 1.94641C12.6153 1.94641 15.5534 2.56614 17.986 3.73662C17.9793 6.90124 17.6459 13.134 10.192 17.8434C2.73804 13.134 2.401 6.90124 2.39795 3.73662C4.86896 2.5637 7.76859 1.94641 10.192 1.94641ZM14.2908 6.4775C14.0777 6.48421 13.8969 6.61732 13.795 6.71929L9.41592 11.2638L7.77469 9.29836C6.99865 8.39898 5.9338 9.09504 5.68896 9.25684L9.49591 13.6774L14.695 6.63625C14.5867 6.53202 14.4416 6.47493 14.2914 6.4775H14.2908Z" fill="white"/>
</g>
<defs>
<clipPath id="clip0_4364_7183">
<rect width="19.5385" height="19.5385" fill="white" transform="translate(0.422852 0.308594)"/>
</clipPath>
</defs>
</svg>
