<svg width="32" height="32" viewBox="0 0 32 32" fill="none" xmlns="http://www.w3.org/2000/svg">
<g clip-path="url(#clip0_4220_5521)">
<path d="M26.6668 1.77783H5.33344C4.86195 1.77783 4.40976 1.96513 4.07636 2.29853C3.74297 2.63193 3.55566 3.08411 3.55566 3.55561V28.4445C3.55566 28.916 3.74297 29.3682 4.07636 29.7016C4.40976 30.035 4.86195 30.2223 5.33344 30.2223H26.6668C27.1383 30.2223 27.5905 30.035 27.9239 29.7016C28.2573 29.3682 28.4446 28.916 28.4446 28.4445V3.55561C28.4446 3.08411 28.2573 2.63193 27.9239 2.29853C27.5905 1.96513 27.1383 1.77783 26.6668 1.77783ZM16.889 28.4445H15.1112V26.6667H16.889V28.4445ZM5.33344 24.8889V3.55561H26.6668V24.8889H5.33344Z" fill="#2A52C6"/>
</g>
<defs>
<clipPath id="clip0_4220_5521">
<rect width="32" height="32" fill="white"/>
</clipPath>
</defs>
</svg>
