<svg width="22" height="22" viewBox="0 0 22 22" fill="none" xmlns="http://www.w3.org/2000/svg">
<mask id="mask0_4236_8405" style="mask-type:alpha" maskUnits="userSpaceOnUse" x="0" y="0" width="22" height="22">
<rect x="0.96875" y="0.18457" width="20.8414" height="20.8414" fill="#D9D9D9"/>
</mask>
<g mask="url(#mask0_4236_8405)">
<path d="M9.24828 16.1817C8.78651 16.1817 8.39566 16.0217 8.07572 15.7018C7.75579 15.3818 7.59582 14.991 7.59582 14.5292V4.12267C7.59582 3.6609 7.75579 3.27005 8.07572 2.95012C8.39566 2.63018 8.78651 2.47021 9.24828 2.47021H16.9125C17.3743 2.47021 17.7652 2.63018 18.0851 2.95012C18.405 3.27005 18.565 3.6609 18.565 4.12267V14.5292C18.565 14.991 18.405 15.3818 18.0851 15.7018C17.7652 16.0217 17.3743 16.1817 16.9125 16.1817H9.24828ZM9.24828 14.8105H16.9125C16.9829 14.8105 17.0474 14.7812 17.1059 14.7225C17.1645 14.664 17.1938 14.5996 17.1938 14.5292V4.12267C17.1938 4.05229 17.1645 3.98784 17.1059 3.92934C17.0474 3.87069 16.9829 3.84136 16.9125 3.84136H9.24828C9.1779 3.84136 9.11345 3.87069 9.05495 3.92934C8.9963 3.98784 8.96697 4.05229 8.96697 4.12267V14.5292C8.96697 14.5996 8.9963 14.664 9.05495 14.7225C9.11345 14.7812 9.1779 14.8105 9.24828 14.8105ZM6.04894 19.381C5.58717 19.381 5.19632 19.221 4.87639 18.9011C4.55645 18.5812 4.39648 18.1903 4.39648 17.7286V5.95087H5.76763V17.7286C5.76763 17.7989 5.79696 17.8634 5.85561 17.9219C5.91411 17.9805 5.97856 18.0099 6.04894 18.0099H15.0843V19.381H6.04894Z" fill="#B0B0B0"/>
</g>
</svg>
