<svg width="22" height="22" viewBox="0 0 22 22" fill="none" xmlns="http://www.w3.org/2000/svg">
<mask id="mask0_4236_8371" style="mask-type:alpha" maskUnits="userSpaceOnUse" x="0" y="0" width="22" height="22">
<rect x="0.96875" y="0.911621" width="20.8414" height="20.8414" fill="#D9D9D9"/>
</mask>
<g mask="url(#mask0_4236_8371)">
<path d="M7.64859 19.6504C7.19276 19.6504 6.80335 19.489 6.48037 19.1661C6.15754 18.8432 5.99613 18.4538 5.99613 17.9979V6.39597H5.08203V5.02483H9.19547V4.21631H14.68V5.02483H18.7935V6.39597H17.8794V17.9979C17.8794 18.4597 17.7194 18.8505 17.3995 19.1705C17.0796 19.4904 16.6887 19.6504 16.2269 19.6504H7.64859ZM16.5082 6.39597H7.36727V17.9979C7.36727 18.08 7.39363 18.1475 7.44634 18.2002C7.49906 18.2529 7.56647 18.2792 7.64859 18.2792H16.2269C16.2973 18.2792 16.3618 18.2499 16.4203 18.1913C16.4789 18.1327 16.5082 18.0683 16.5082 17.9979V6.39597ZM9.56476 16.451H10.9357V8.22417H9.56476V16.451ZM12.9398 16.451H14.3108V8.22417H12.9398V16.451Z" fill="#FF4400"/>
</g>
</svg>
