<svg width="22" height="22" viewBox="0 0 22 22" fill="none" xmlns="http://www.w3.org/2000/svg">
<g clip-path="url(#clip0_4238_8870)">
<path d="M7.6651 0.722873C5.46696 1.48543 3.57129 2.93278 2.25652 4.85234C0.941762 6.77191 0.277212 9.06249 0.360487 11.3877C0.443763 13.7128 1.27047 15.95 2.71919 17.7706C4.1679 19.5912 6.16226 20.8992 8.40932 21.5026C10.2311 21.9726 12.1397 21.9933 13.9712 21.5627C15.6303 21.19 17.1643 20.3929 18.4228 19.2493C19.7326 18.0227 20.6833 16.4623 21.1728 14.7358C21.7047 12.8584 21.7994 10.884 21.4495 8.96428H11.2195V13.2079H17.144C17.0256 13.8847 16.7719 14.5307 16.398 15.1071C16.0241 15.6836 15.5378 16.1787 14.9681 16.5629C14.2446 17.0414 13.4291 17.3634 12.5739 17.5082C11.7161 17.6677 10.8363 17.6677 9.97854 17.5082C9.10918 17.3284 8.28677 16.9696 7.5637 16.4546C6.40208 15.6323 5.52986 14.4641 5.07151 13.1168C4.60541 11.7442 4.60541 10.2561 5.07151 8.8835C5.39777 7.92137 5.93713 7.04536 6.64932 6.32084C7.46434 5.4765 8.49617 4.87296 9.63162 4.57644C10.7671 4.27992 11.9622 4.30188 13.086 4.6399C13.9639 4.90939 14.7667 5.38023 15.4304 6.0149C16.0984 5.35032 16.7653 4.68402 17.431 4.016C17.7748 3.65678 18.1495 3.31475 18.4881 2.94694C17.475 2.00416 16.2858 1.27056 14.9887 0.788186C12.6266 -0.0694879 10.0421 -0.092537 7.6651 0.722873Z" fill="white"/>
<path d="M7.66512 0.724075C10.0419 -0.0918898 12.6264 -0.0694473 14.9887 0.787669C16.286 1.27332 17.4747 2.01045 18.4864 2.95673C18.1426 3.32454 17.78 3.66829 17.4293 4.02579C16.7625 4.69152 16.0962 5.35496 15.4304 6.01611C14.7667 5.38144 13.9639 4.91059 13.0861 4.64111C11.9626 4.3019 10.7675 4.27867 9.63175 4.57398C8.496 4.86928 7.46353 5.47171 6.64762 6.31517C5.93542 7.03968 5.39607 7.9157 5.0698 8.87782L1.50684 6.11923C2.78216 3.5902 4.99031 1.65568 7.66512 0.724075Z" fill="#E33629"/>
<path d="M0.561753 8.85195C0.753258 7.90285 1.0712 6.98372 1.50707 6.11914L5.07003 8.88461C4.60393 10.2572 4.60393 11.7453 5.07003 13.1179C3.88295 14.0346 2.69529 14.9558 1.50707 15.8816C0.415918 13.7097 0.0831372 11.235 0.561753 8.85195Z" fill="#F8BD00"/>
<path d="M11.2185 8.96289H21.4485C21.7985 10.8826 21.7038 12.857 21.1718 14.7345C20.6824 16.4609 19.7316 18.0213 18.4218 19.2479C17.272 18.3507 16.117 17.4604 14.9671 16.5632C15.5372 16.1787 16.0238 15.683 16.3977 15.1059C16.7716 14.5288 17.0251 13.8822 17.1431 13.2048H11.2185C11.2168 11.792 11.2185 10.3774 11.2185 8.96289Z" fill="#587DBD"/>
<path d="M1.50391 15.8812C2.69214 14.9645 3.87979 14.0433 5.06687 13.1174C5.52614 14.4653 6.3996 15.6335 7.5625 16.4552C8.28783 16.9679 9.11201 17.3238 9.9825 17.5002C10.8403 17.6597 11.7201 17.6597 12.5778 17.5002C13.4331 17.3555 14.2486 17.0335 14.972 16.5549C16.1219 17.4521 17.2769 18.3424 18.4267 19.2396C17.1684 20.3838 15.6345 21.1816 13.9752 21.5548C12.1437 21.9853 10.235 21.9647 8.41328 21.4946C6.97246 21.1099 5.62663 20.4317 4.46016 19.5026C3.22551 18.5224 2.21711 17.2871 1.50391 15.8812Z" fill="#319F43"/>
</g>
<defs>
<clipPath id="clip0_4238_8870">
<rect width="22" height="22" fill="white"/>
</clipPath>
</defs>
</svg>
