<svg width="22" height="22" viewBox="0 0 22 22" fill="none" xmlns="http://www.w3.org/2000/svg">
<g clip-path="url(#clip0_4238_8895)">
<path d="M19.9375 0.515582H2.0625C1.65693 0.511455 1.26628 0.668387 0.976282 0.951944C0.686281 1.2355 0.520611 1.62252 0.515625 2.02808V19.9753C0.521513 20.3802 0.687579 20.7664 0.977482 21.0492C1.26739 21.332 1.65752 21.4885 2.0625 21.4843H19.9375C20.3431 21.4875 20.7335 21.3301 21.0233 21.0464C21.3132 20.7626 21.4789 20.3757 21.4844 19.9701V2.02293C21.4771 1.61855 21.3106 1.23338 21.0209 0.951123C20.7313 0.668868 20.3419 0.512347 19.9375 0.515582Z" fill="#0076B2"/>
<path d="M3.61957 8.37549H6.73223V18.3906H3.61957V8.37549ZM5.17676 3.39111C5.53377 3.39111 5.88275 3.497 6.17957 3.69538C6.47638 3.89376 6.70769 4.17571 6.84424 4.50557C6.98078 4.83544 7.01642 5.19839 6.94664 5.54851C6.87687 5.89863 6.70482 6.22019 6.45226 6.47252C6.19969 6.72484 5.87797 6.89658 5.52778 6.96602C5.17759 7.03546 4.81468 6.99948 4.48494 6.86262C4.15521 6.72576 3.87347 6.49419 3.67538 6.19718C3.47729 5.90018 3.37173 5.55109 3.37207 5.19408C3.37253 4.71575 3.56286 4.25716 3.90126 3.91909C4.23965 3.58101 4.69842 3.39111 5.17676 3.39111ZM8.68473 8.37549H11.6685V9.75049H11.7097C12.1257 8.9633 13.1397 8.13314 14.6539 8.13314C17.8061 8.12627 18.3905 10.2008 18.3905 12.8906V18.3906H15.2779V13.518C15.2779 12.3578 15.2572 10.8642 13.6605 10.8642C12.0638 10.8642 11.7922 12.1292 11.7922 13.4424V18.3906H8.68473V8.37549Z" fill="white"/>
</g>
<defs>
<clipPath id="clip0_4238_8895">
<rect width="22" height="22" fill="white"/>
</clipPath>
</defs>
</svg>
