<svg width="22" height="22" viewBox="0 0 22 22" fill="none" xmlns="http://www.w3.org/2000/svg">
<mask id="mask0_4236_8359" style="mask-type:alpha" maskUnits="userSpaceOnUse" x="0" y="0" width="22" height="22">
<rect x="0.96875" y="0.47998" width="20.8414" height="20.8414" fill="#D9D9D9"/>
</mask>
<g mask="url(#mask0_4236_8359)">
<path d="M11.9378 14.912L8.03525 11.0095L8.99871 10.0182L11.2522 12.2717V4.59326H12.6233V12.2717L14.8768 10.0182L15.8403 11.0095L11.9378 14.912ZM6.73449 18.3047C6.27272 18.3047 5.88187 18.1447 5.56193 17.8248C5.242 17.5049 5.08203 17.114 5.08203 16.6523V14.1737H6.45318V16.6523C6.45318 16.7226 6.4825 16.7871 6.54116 16.8456C6.59966 16.9042 6.6641 16.9336 6.73449 16.9336H17.141C17.2114 16.9336 17.2759 16.9042 17.3344 16.8456C17.393 16.7871 17.4223 16.7226 17.4223 16.6523V14.1737H18.7935V16.6523C18.7935 17.114 18.6335 17.5049 18.3136 17.8248C17.9937 18.1447 17.6028 18.3047 17.141 18.3047H6.73449Z" fill="#B0B0B0"/>
</g>
</svg>
