<svg width="22" height="22" viewBox="0 0 22 22" fill="none" xmlns="http://www.w3.org/2000/svg">
<mask id="mask0_4236_8347" style="mask-type:alpha" maskUnits="userSpaceOnUse" x="0" y="0" width="22" height="22">
<rect x="0.96875" y="0.889648" width="20.8414" height="20.8414" fill="#D9D9D9"/>
</mask>
<g mask="url(#mask0_4236_8347)">
<path d="M12.6652 13.4583L11.0479 15.0756L12.0112 16.0388L15.2772 12.7728L12.0112 9.50669L11.0479 10.4699L12.6652 12.0872H8.59746V13.4583H12.6652ZM4.90588 18.7144C4.44411 18.7144 4.05325 18.5544 3.73332 18.2345C3.41338 17.9145 3.25342 17.5237 3.25342 17.0619V6.65539C3.25342 6.19362 3.41338 5.80276 3.73332 5.48283C4.05325 5.1629 4.44411 5.00293 4.90588 5.00293H9.9245L11.7527 6.83112H18.9688C19.4306 6.83112 19.8214 6.99109 20.1414 7.31102C20.4613 7.63096 20.6213 8.02181 20.6213 8.48358V17.0619C20.6213 17.5237 20.4613 17.9145 20.1414 18.2345C19.8214 18.5544 19.4306 18.7144 18.9688 18.7144H4.90588ZM4.90588 17.3432H18.9688C19.0509 17.3432 19.1183 17.3169 19.171 17.2642C19.2238 17.2115 19.2501 17.144 19.2501 17.0619V8.48358C19.2501 8.40147 19.2238 8.33405 19.171 8.28134C19.1183 8.22863 19.0509 8.20227 18.9688 8.20227H11.1919L9.3637 6.37408H4.90588C4.82376 6.37408 4.75635 6.40043 4.70363 6.45314C4.65092 6.50586 4.62456 6.57327 4.62456 6.65539V17.0619C4.62456 17.144 4.65092 17.2115 4.70363 17.2642C4.75635 17.3169 4.82376 17.3432 4.90588 17.3432Z" fill="#B0B0B0"/>
</g>
</svg>
