<svg width="16" height="15" viewBox="0 0 16 15" fill="none" xmlns="http://www.w3.org/2000/svg">
<g filter="url(#filter0_d_4240_5550)">
<rect x="0.884766" y="0.64502" width="14.8501" height="14.2227" rx="2.50988" fill="#2358DE"/>
<path d="M10.1912 10.8938H7.68136C7.55586 10.8938 7.4722 10.8102 7.4722 10.6847C7.4722 10.371 7.32579 10.1827 7.09572 9.8899C6.97022 9.74349 6.82381 9.55525 6.67741 9.32517C6.28001 8.6977 5.92444 7.94474 5.84078 7.67283C5.75711 7.40093 5.81986 7.21269 5.90352 7.10811C5.98719 6.98261 6.15451 6.91987 6.34275 6.91987C6.59374 6.91987 6.84473 7.12902 7.0748 7.40093V5.24661C7.0748 4.89104 7.34671 4.61914 7.70227 4.61914C8.05784 4.61914 8.32975 4.89104 8.32975 5.24661V6.12507C8.39249 6.10416 8.45524 6.08324 8.5389 6.08324C8.76897 6.08324 8.95722 6.20873 9.06179 6.37606C9.14546 6.31331 9.25004 6.2924 9.35461 6.2924C9.64743 6.2924 9.87751 6.48064 9.96117 6.75254C10.0239 6.73163 10.1076 6.71071 10.1912 6.71071C10.5468 6.71071 10.8187 6.98261 10.8187 7.33818V7.96565C10.8187 8.50946 10.7141 8.94869 10.6096 9.367C10.505 9.78532 10.4004 10.1827 10.4004 10.6847C10.4004 10.8102 10.3167 10.8938 10.1912 10.8938ZM7.8696 10.4755H9.98209C10.003 10.0154 10.1076 9.63891 10.1912 9.26243C10.2958 8.84411 10.4004 8.44671 10.4004 7.96565V7.33818C10.4004 7.21269 10.3167 7.12902 10.1912 7.12902C10.0657 7.12902 9.98209 7.21269 9.98209 7.33818V7.54734C9.98209 7.67283 9.89842 7.7565 9.77293 7.7565C9.64743 7.7565 9.56377 7.67283 9.56377 7.54734V6.91987C9.56377 6.79437 9.48011 6.71071 9.35461 6.71071C9.22912 6.71071 9.14546 6.79437 9.14546 6.91987V7.33818C9.14546 7.46368 9.06179 7.54734 8.9363 7.54734C8.81081 7.54734 8.72714 7.46368 8.72714 7.33818V6.71071C8.72714 6.58522 8.64348 6.50155 8.51799 6.50155C8.39249 6.50155 8.30883 6.58522 8.30883 6.71071V7.12902C8.30883 7.25452 8.22517 7.33818 8.09967 7.33818C7.97418 7.33818 7.89052 7.25452 7.89052 7.12902V5.24661C7.89052 5.12112 7.80685 5.03745 7.68136 5.03745C7.55586 5.03745 7.4722 5.12112 7.4722 5.24661V8.38397C7.4722 8.50946 7.38854 8.59312 7.26304 8.59312C7.13755 8.59312 7.05389 8.50946 7.05389 8.38397V8.21664C6.86565 7.73558 6.46825 7.33818 6.32184 7.33818C6.28001 7.33818 6.23818 7.33818 6.21726 7.3591C6.19634 7.38001 6.19634 7.44276 6.21726 7.54734C6.28001 7.77741 6.59374 8.44671 7.01206 9.11602C7.13755 9.32517 7.26304 9.47158 7.38854 9.63891C7.61861 9.8899 7.82777 10.12 7.8696 10.4755Z" fill="white"/>
</g>
<defs>
<filter id="filter0_d_4240_5550" x="-6.77983" y="-6.54053" width="33.0535" height="32.4261" filterUnits="userSpaceOnUse" color-interpolation-filters="sRGB">
<feFlood flood-opacity="0" result="BackgroundImageFix"/>
<feColorMatrix in="SourceAlpha" type="matrix" values="0 0 0 0 0 0 0 0 0 0 0 0 0 0 0 0 0 0 127 0" result="hardAlpha"/>
<feOffset dx="1.43711" dy="1.91615"/>
<feGaussianBlur stdDeviation="4.55085"/>
<feComposite in2="hardAlpha" operator="out"/>
<feColorMatrix type="matrix" values="0 0 0 0 0 0 0 0 0 0 0 0 0 0 0 0 0 0 0.25 0"/>
<feBlend mode="normal" in2="BackgroundImageFix" result="effect1_dropShadow_4240_5550"/>
<feBlend mode="normal" in="SourceGraphic" in2="effect1_dropShadow_4240_5550" result="shape"/>
</filter>
</defs>
</svg>
