<svg width="46" height="44" viewBox="0 0 46 44" fill="none" xmlns="http://www.w3.org/2000/svg">
<g filter="url(#filter0_d_4367_13833)">
<rect width="46" height="44" rx="8" fill="#FF4907"/>
<path d="M22.999 24.407L20.1809 28.4351C20.214 29.4594 19.8731 30.4609 19.2219 31.2522C18.5706 32.0436 17.6535 32.5709 16.6419 32.7355C15.6303 32.9001 14.5933 32.6908 13.7248 32.1467C12.8562 31.6026 12.2154 30.7609 11.9221 29.7789C11.6287 28.7968 11.703 27.7416 12.1308 26.8102C12.5587 25.8789 13.311 25.1352 14.2471 24.718C15.1833 24.3008 16.2393 24.2387 17.2179 24.5433C18.1966 24.8478 19.0309 25.4982 19.565 26.3729L21.968 22.9355L14.6881 12.5388C14.5596 12.3553 14.5093 12.1283 14.5483 11.9077C14.5872 11.6872 14.7122 11.4911 14.8957 11.3626C15.0791 11.2342 15.3062 11.1839 15.5267 11.2228C15.7473 11.2617 15.9434 11.3867 16.0718 11.5702L26.4348 26.3713C26.9689 25.4965 27.8032 24.8461 28.7818 24.5416C29.7604 24.237 30.8164 24.2991 31.7526 24.7163C32.6888 25.1335 33.441 25.8772 33.8689 26.8086C34.2968 27.7399 34.371 28.7951 34.0777 29.7772C33.7843 30.7592 33.1435 31.6009 32.275 32.145C31.4064 32.6891 30.3695 32.8984 29.3579 32.7338C28.3463 32.5692 27.4292 32.0419 26.7779 31.2506C26.1266 30.4592 25.7857 29.4578 25.8188 28.4334L23.0007 24.407H22.999ZM24.4334 19.4171L29.9279 11.5702C30.0564 11.3867 30.2524 11.2617 30.473 11.2228C30.6936 11.1839 30.9206 11.2342 31.1041 11.3626C31.2876 11.4911 31.4125 11.6872 31.4515 11.9077C31.4904 12.1283 31.4401 12.3553 31.3117 12.5388L25.4645 20.8886L24.4351 19.4171H24.4334ZM14.5109 30.6457C14.7829 30.8412 15.0911 30.9807 15.4174 31.0562C15.7438 31.1317 16.0819 31.1417 16.4121 31.0856C16.7424 31.0295 17.0582 30.9084 17.3413 30.7293C17.6243 30.5502 17.8691 30.3167 18.0613 30.0423C18.2534 29.768 18.3892 29.4582 18.4608 29.1309C18.5324 28.8037 18.5383 28.4655 18.4782 28.1359C18.4181 27.8064 18.2932 27.4921 18.1107 27.2112C17.9282 26.9303 17.6918 26.6884 17.4151 26.4995C16.8648 26.1328 16.1929 25.9961 15.543 26.1184C14.8932 26.2408 14.3171 26.6126 13.9378 27.1543C13.5586 27.696 13.4064 28.3646 13.5139 29.0171C13.6213 29.6696 13.9797 30.2541 14.5126 30.6457H14.5109ZM31.4872 30.6457C31.7679 30.4587 32.0083 30.2174 32.1945 29.9361C32.3806 29.6548 32.5087 29.3392 32.5711 29.0077C32.6335 28.6762 32.629 28.3356 32.558 28.0059C32.4869 27.6761 32.3506 27.3639 32.1572 27.0876C31.9638 26.8113 31.717 26.5764 31.4315 26.3968C31.146 26.2172 30.8275 26.0964 30.4947 26.0416C30.1619 25.9868 29.8215 25.9991 29.4935 26.0777C29.1654 26.1564 28.8565 26.2998 28.5847 26.4995C28.0518 26.8911 27.6933 27.4756 27.5859 28.1281C27.4785 28.7806 27.6307 29.4492 28.0099 29.9909C28.3891 30.5326 28.9653 30.9044 29.6151 31.0268C30.2649 31.1492 30.9369 31.0124 31.4872 30.6457Z" fill="white"/>
</g>
<defs>
<filter id="filter0_d_4367_13833" x="-21" y="-7" width="88" height="86" filterUnits="userSpaceOnUse" color-interpolation-filters="sRGB">
<feFlood flood-opacity="0" result="BackgroundImageFix"/>
<feColorMatrix in="SourceAlpha" type="matrix" values="0 0 0 0 0 0 0 0 0 0 0 0 0 0 0 0 0 0 127 0" result="hardAlpha"/>
<feOffset dy="14"/>
<feGaussianBlur stdDeviation="10.5"/>
<feComposite in2="hardAlpha" operator="out"/>
<feColorMatrix type="matrix" values="0 0 0 0 0 0 0 0 0 0 0 0 0 0 0 0 0 0 0.25 0"/>
<feBlend mode="normal" in2="BackgroundImageFix" result="effect1_dropShadow_4367_13833"/>
<feBlend mode="normal" in="SourceGraphic" in2="effect1_dropShadow_4367_13833" result="shape"/>
</filter>
</defs>
</svg>
