<svg width="32" height="32" viewBox="0 0 32 32" fill="none" xmlns="http://www.w3.org/2000/svg">
<mask id="mask0_4220_5384" style="mask-type:alpha" maskUnits="userSpaceOnUse" x="0" y="0" width="32" height="32">
<rect width="32" height="32" fill="#D9D9D9"/>
</mask>
<g mask="url(#mask0_4220_5384)">
<path d="M23.9998 27.5257L28.8588 22.6667L27.4665 21.2743L24.9998 23.741V17.7H22.9998V23.741L20.5332 21.2743L19.1408 22.6667L23.9998 27.5257ZM18.9998 31.6667V29.6667H28.9998V31.6667H18.9998ZM8.07684 26.3333C7.42039 26.3333 6.85462 26.0957 6.3795 25.6203C5.90417 25.1452 5.6665 24.5794 5.6665 23.923V5.41033C5.6665 4.75389 5.90417 4.18811 6.3795 3.713C6.85462 3.23767 7.42039 3 8.07684 3H17.3332L24.9998 10.6667V14.777H22.9998V11.6667H16.3332V5H8.07684C7.97417 5 7.88017 5.04278 7.79484 5.12833C7.70928 5.21367 7.6665 5.30767 7.6665 5.41033V23.923C7.6665 24.0257 7.70928 24.1197 7.79484 24.205C7.88017 24.2906 7.97417 24.3333 8.07684 24.3333H16.0768V26.3333H8.07684Z" fill="#FF6487"/>
</g>
</svg>
