<svg width="26" height="26" viewBox="0 0 26 26" fill="none" xmlns="http://www.w3.org/2000/svg">
<path d="M13.0004 18.8498C12.3467 18.8499 11.717 18.6039 11.2366 18.1606C10.7563 17.7173 10.4605 17.1094 10.4082 16.4578C8.67423 15.844 7.21285 14.6374 6.28202 13.051C5.35119 11.4645 5.01075 9.60021 5.3208 7.78715C5.63086 5.97409 6.57147 4.32886 7.97659 3.14188C9.38172 1.9549 11.161 1.30248 13.0004 1.2998C14.9568 1.29952 16.8418 2.03442 18.2817 3.35878C19.7217 4.68314 20.6114 6.50025 20.7744 8.4498C20.7798 8.53437 20.7676 8.61914 20.7385 8.69872C20.7094 8.77831 20.6641 8.85098 20.6054 8.91211C20.5467 8.97324 20.476 9.02149 20.3976 9.0538C20.3193 9.08612 20.2351 9.10178 20.1504 9.0998C19.9763 9.09544 19.81 9.0265 19.6838 8.90637C19.5577 8.78624 19.4807 8.62351 19.4679 8.4498C19.3521 7.30039 18.9321 6.2026 18.2511 5.26945C17.57 4.3363 16.6526 3.60151 15.5933 3.14072C14.5339 2.67993 13.3709 2.5098 12.2239 2.64783C11.077 2.78587 9.98755 3.22709 9.06777 3.92606C8.14799 4.62504 7.43112 5.55652 6.99095 6.6246C6.55078 7.69269 6.40321 8.85879 6.56345 10.0029C6.72369 11.1469 7.18594 12.2276 7.90261 13.1337C8.61928 14.0397 9.56448 14.7384 10.6409 15.1578C10.8368 14.7346 11.1428 14.3718 11.5271 14.1076C11.9113 13.8433 12.3595 13.6872 12.8248 13.6557C13.2901 13.6242 13.7553 13.7185 14.1716 13.9285C14.588 14.1386 14.9401 14.4567 15.1913 14.8497C15.4424 15.2426 15.5832 15.6959 15.599 16.162C15.6147 16.628 15.5048 17.0898 15.2808 17.4988C15.0568 17.9078 14.7269 18.249 14.3257 18.4867C13.9245 18.7244 13.4667 18.8498 13.0004 18.8498ZM6.51209 15.5998H6.63039C7.13739 16.0951 7.70029 16.5319 8.30999 16.8998H6.51209C5.78279 16.8998 5.20039 17.4809 5.20039 18.1998C5.20039 19.9015 6.00899 21.169 7.37529 22.0387C8.76629 22.9266 10.7449 23.3998 13.0004 23.3998C15.2559 23.3998 17.2345 22.9266 18.6255 22.0387C19.9905 21.1677 20.8004 19.9028 20.8004 18.1998C20.8004 17.855 20.6634 17.5244 20.4196 17.2806C20.1758 17.0368 19.8452 16.8998 19.5004 16.8998H16.8471C16.9198 16.4695 16.9198 16.0301 16.8471 15.5998H19.5004C20.19 15.5998 20.8513 15.8737 21.3389 16.3613C21.8265 16.8489 22.1004 17.5102 22.1004 18.1998C22.1004 20.3981 21.0175 22.0556 19.3249 23.1359C17.6583 24.198 15.4119 24.6998 13.0004 24.6998C10.5889 24.6998 8.34249 24.198 6.67589 23.1359C4.98329 22.0569 3.90039 20.3968 3.90039 18.1998C3.90039 16.7529 5.07429 15.5998 6.51209 15.5998ZM18.2004 9.0998C18.2007 9.97943 17.9778 10.8448 17.5526 11.6148C17.1275 12.3849 16.5139 13.0345 15.7694 13.5029C15.4223 13.153 15.0121 12.872 14.5604 12.6748C15.3816 12.3164 16.0543 11.6862 16.4655 10.8901C16.8767 10.094 17.0012 9.18068 16.8181 8.30359C16.6351 7.4265 16.1556 6.63919 15.4603 6.07405C14.765 5.5089 13.8964 5.2004 13.0004 5.2004C12.1044 5.2004 11.2357 5.5089 10.5405 6.07405C9.84519 6.63919 9.36571 7.4265 9.18266 8.30359C8.9996 9.18068 9.12412 10.094 9.53529 10.8901C9.94647 11.6862 10.6192 12.3164 11.4404 12.6748C10.9854 12.8737 10.5759 13.1558 10.2314 13.5029C9.24394 12.8819 8.49395 11.947 8.10199 10.8483C7.90203 10.2871 7.80001 9.69561 7.80039 9.0998C7.80039 7.72068 8.34825 6.39804 9.32343 5.42285C10.2986 4.44766 11.6213 3.8998 13.0004 3.8998C14.3795 3.8998 15.7022 4.44766 16.6773 5.42285C17.6525 6.39804 18.2004 7.72068 18.2004 9.0998Z" fill="black"/>
</svg>
