<svg width="25" height="26" viewBox="0 0 25 26" fill="none" xmlns="http://www.w3.org/2000/svg">
<g clip-path="url(#clip0_4386_19793)">
<path d="M0.253906 0.867188H24.5206V25.1339H0.253906V0.867188ZM23.0039 23.6172V6.93385H1.77057V23.6172H23.0039ZM23.0039 5.41719V2.38385H1.77057V5.41719H23.0039ZM9.35391 16.0339V22.1005H3.28724V16.0339H9.35391ZM7.83724 20.5839V17.5505H4.80391V20.5839H7.83724ZM21.4872 8.45052V14.5172H15.4206V8.45052H21.4872ZM19.9706 13.0005V9.96719H16.9372V13.0005H19.9706ZM10.8706 22.1005V16.0339H21.4872V22.1005H10.8706ZM12.3872 17.5505V20.5839H19.9706V17.5505H12.3872ZM13.9039 8.45052V14.5172H3.28724V8.45052H13.9039ZM12.3872 13.0005V9.96719H4.80391V13.0005H12.3872Z" fill="black"/>
</g>
<defs>
<clipPath id="clip0_4386_19793">
<rect width="24.2667" height="24.2667" fill="white" transform="translate(0.253418 0.867188)"/>
</clipPath>
</defs>
</svg>
