<svg width="26" height="26" viewBox="0 0 26 26" fill="none" xmlns="http://www.w3.org/2000/svg">
<path d="M12.9996 3.9001C11.8046 3.9001 10.6213 4.13548 9.51719 4.59279C8.41313 5.05011 7.40995 5.72041 6.56494 6.56543C5.71992 7.41044 5.04962 8.41362 4.59231 9.51768C4.13499 10.6217 3.89961 11.8051 3.89961 13.0001C3.89961 14.1951 4.13499 15.3785 4.5923 16.4825C5.04962 17.5866 5.71992 18.5898 6.56494 19.4348C7.40995 20.2798 8.41313 20.9501 9.51719 21.4074C10.6213 21.8647 11.8046 22.1001 12.9996 22.1001C15.4131 22.1001 17.7277 21.1414 19.4343 19.4348C21.1409 17.7282 22.0996 15.4136 22.0996 13.0001C22.0996 10.5866 21.1409 8.27201 19.4343 6.56543C17.7277 4.85885 15.4131 3.9001 12.9996 3.9001ZM2.59961 13.0001C2.59961 10.2418 3.69532 7.59657 5.6457 5.64619C7.59608 3.69581 10.2414 2.6001 12.9996 2.6001C15.7579 2.6001 18.4031 3.69581 20.3535 5.64619C22.3039 7.59657 23.3996 10.2418 23.3996 13.0001C23.3996 15.7583 22.3039 18.4036 20.3535 20.354C18.4031 22.3044 15.7579 23.4001 12.9996 23.4001C10.2414 23.4001 7.59608 22.3044 5.6457 20.354C3.69532 18.4036 2.59961 15.7583 2.59961 13.0001ZM9.09961 10.4001C9.09961 10.0553 9.23657 9.72466 9.48037 9.48086C9.72417 9.23706 10.0548 9.1001 10.3996 9.1001L15.5996 9.1001C15.9444 9.1001 16.2751 9.23706 16.5188 9.48086C16.7626 9.72466 16.8996 10.0553 16.8996 10.4001L16.8996 15.6001C16.8996 15.9449 16.7626 16.2755 16.5188 16.5193C16.275 16.7631 15.9444 16.9001 15.5996 16.9001L10.3996 16.9001C10.0548 16.9001 9.72417 16.7631 9.48037 16.5193C9.23657 16.2755 9.09961 15.9449 9.09961 15.6001L9.09961 10.4001Z" fill="white"/>
</svg>
