<svg width="33" height="33" viewBox="0 0 33 33" fill="none" xmlns="http://www.w3.org/2000/svg">
<path d="M30.9375 14.4375C30.9375 16.0273 30.6904 17.5581 30.1963 19.0298C29.7021 20.5015 28.9985 21.8442 28.0854 23.0581C27.1724 24.272 26.082 25.3354 24.8145 26.2485C23.5469 27.1616 22.1504 27.8384 20.625 28.2788V30.9375H26.8125V33H6.1875V30.9375H12.375V28.2788C10.8389 27.8276 9.44238 27.1509 8.18555 26.2485C6.92871 25.3462 5.84375 24.2881 4.93066 23.0742C4.01758 21.8604 3.31396 20.5122 2.81982 19.0298C2.32568 17.5474 2.07324 16.0166 2.0625 14.4375C2.0625 13.1055 2.23437 11.8271 2.57812 10.6025C2.92188 9.37793 3.40527 8.22852 4.02832 7.1543C4.65137 6.08008 5.40332 5.10791 6.28418 4.23779C7.16504 3.36768 8.13721 2.61572 9.20068 1.98193C10.2642 1.34814 11.4136 0.859375 12.6489 0.515625C13.8843 0.171875 15.168 0 16.5 0C17.832 0 19.1104 0.171875 20.335 0.515625C21.5596 0.859375 22.709 1.34277 23.7832 1.96582C24.8574 2.58887 25.8296 3.34082 26.6997 4.22168C27.5698 5.10254 28.3218 6.07471 28.9556 7.13818C29.5894 8.20166 30.0781 9.35107 30.4219 10.5864C30.7656 11.8218 30.9375 13.1055 30.9375 14.4375ZM16.5 2.0625C15.3613 2.0625 14.2656 2.20752 13.2129 2.49756C12.1602 2.7876 11.1772 3.20654 10.2642 3.75439C9.35107 4.30225 8.51318 4.94678 7.75049 5.68799C6.98779 6.4292 6.34326 7.26172 5.81689 8.18555C5.29053 9.10938 4.87695 10.0977 4.57617 11.1504C4.27539 12.2031 4.125 13.2988 4.125 14.4375H9.28125C9.28125 13.4385 9.46924 12.5039 9.84521 11.6338C10.2212 10.7637 10.7368 9.99561 11.3921 9.32959C12.0474 8.66357 12.8101 8.14795 13.6802 7.78271C14.5503 7.41748 15.4902 7.22949 16.5 7.21875C17.499 7.21875 18.4336 7.40674 19.3037 7.78271C20.1738 8.15869 20.9419 8.67432 21.6079 9.32959C22.2739 9.98486 22.7896 10.7476 23.1548 11.6177C23.52 12.4878 23.708 13.4277 23.7188 14.4375H28.875C28.875 13.2988 28.73 12.2031 28.4399 11.1504C28.1499 10.0977 27.731 9.11475 27.1831 8.20166C26.6353 7.28857 25.9907 6.45068 25.2495 5.68799C24.5083 4.92529 23.6758 4.28076 22.752 3.75439C21.8281 3.22803 20.8398 2.81445 19.7871 2.51367C18.7344 2.21289 17.6387 2.0625 16.5 2.0625ZM21.6562 14.4375C21.6562 13.7285 21.522 13.0625 21.2534 12.4395C20.9849 11.8164 20.6196 11.2686 20.1577 10.7959C19.6958 10.3232 19.1479 9.95264 18.5142 9.68408C17.8804 9.41553 17.209 9.28125 16.5 9.28125C15.791 9.28125 15.125 9.41553 14.502 9.68408C13.8789 9.95264 13.3311 10.3179 12.8584 10.7798C12.3857 11.2417 12.0151 11.7896 11.7466 12.4233C11.478 13.0571 11.3438 13.7285 11.3438 14.4375C11.3438 15.1465 11.478 15.8125 11.7466 16.4355C12.0151 17.0586 12.3804 17.6064 12.8423 18.0791C13.3042 18.5518 13.8521 18.9224 14.4858 19.1909C15.1196 19.4595 15.791 19.5938 16.5 19.5938C17.209 19.5938 17.875 19.4595 18.498 19.1909C19.1211 18.9224 19.6689 18.5571 20.1416 18.0952C20.6143 17.6333 20.9849 17.0854 21.2534 16.4517C21.522 15.8179 21.6562 15.1465 21.6562 14.4375ZM4.30225 16.5C4.46338 17.4883 4.7373 18.4282 5.12402 19.3198C5.51074 20.2114 5.99414 21.0439 6.57422 21.8174C7.1543 22.5908 7.79883 23.2783 8.50781 23.8799C9.2168 24.4814 10.0063 25.0078 10.8765 25.459C11.7466 25.9102 12.6436 26.2432 13.5674 26.458C14.4912 26.6729 15.4688 26.791 16.5 26.8125C17.499 26.8125 18.4712 26.6943 19.4165 26.458C20.3618 26.2217 21.2642 25.8887 22.1235 25.459C22.9829 25.0293 23.7671 24.5083 24.4761 23.896C25.1851 23.2837 25.835 22.5908 26.4258 21.8174C27.0166 21.0439 27.4946 20.2168 27.8599 19.3359C28.2251 18.4551 28.5044 17.5098 28.6978 16.5H23.4126C23.1978 17.2627 22.8647 17.9609 22.4136 18.5947C21.9624 19.2285 21.4307 19.771 20.8184 20.2222C20.2061 20.6733 19.5293 21.0225 18.7881 21.2695C18.0469 21.5166 17.2842 21.6455 16.5 21.6562C15.7051 21.6562 14.9424 21.5327 14.2119 21.2856C13.4814 21.0386 12.8047 20.6841 12.1816 20.2222C11.5586 19.7603 11.0269 19.2178 10.5864 18.5947C10.146 17.9717 9.81299 17.2734 9.5874 16.5H4.30225ZM18.5625 30.9375V28.73C17.8857 28.8267 17.1982 28.875 16.5 28.875C15.8018 28.875 15.1143 28.8267 14.4375 28.73V30.9375H18.5625Z" fill="#999999"/>
</svg>
