<svg width="22" height="22" viewBox="0 0 22 22" fill="none" xmlns="http://www.w3.org/2000/svg">
<mask id="mask0_4236_8341" style="mask-type:alpha" maskUnits="userSpaceOnUse" x="0" y="0" width="22" height="22">
<rect x="0.96875" y="0.594727" width="20.8414" height="20.8414" fill="#D9D9D9"/>
</mask>
<g mask="url(#mask0_4236_8341)">
<path d="M4.90588 18.4195C4.44411 18.4195 4.05325 18.2595 3.73332 17.9396C3.41338 17.6196 3.25342 17.2288 3.25342 16.767V6.36047C3.25342 5.8987 3.41338 5.50784 3.73332 5.18791C4.05325 4.86797 4.44411 4.70801 4.90588 4.70801H9.9245L11.7527 6.5362H18.9688C19.4306 6.5362 19.8214 6.69617 20.1414 7.0161C20.4613 7.33604 20.6213 7.72689 20.6213 8.18866V16.767C20.6213 17.2288 20.4613 17.6196 20.1414 17.9396C19.8214 18.2595 19.4306 18.4195 18.9688 18.4195H4.90588ZM4.90588 17.0483H18.9688C19.0509 17.0483 19.1183 17.022 19.171 16.9692C19.2238 16.9165 19.2501 16.8491 19.2501 16.767V8.18866C19.2501 8.10654 19.2238 8.03913 19.171 7.98642C19.1183 7.9337 19.0509 7.90735 18.9688 7.90735H11.1919L9.3637 6.07915H4.90588C4.82376 6.07915 4.75635 6.10551 4.70363 6.15822C4.65092 6.21094 4.62456 6.27835 4.62456 6.36047V16.767C4.62456 16.8491 4.65092 16.9165 4.70363 16.9692C4.75635 17.022 4.82376 17.0483 4.90588 17.0483Z" fill="#B0B0B0"/>
</g>
</svg>
