<svg width="21" height="21" viewBox="0 0 21 21" fill="none" xmlns="http://www.w3.org/2000/svg">
<mask id="mask0_4240_5733" style="mask-type:alpha" maskUnits="userSpaceOnUse" x="0" y="0" width="21" height="21">
<rect y="0.0791016" width="20.8414" height="20.8414" fill="#D9D9D9"/>
</mask>
<g mask="url(#mask0_4240_5733)">
<path d="M10.4209 14.7084C9.43121 14.7084 8.56006 14.4042 7.80746 13.7957C7.05485 13.1873 6.56609 12.4227 6.34118 11.5019H7.41994C7.63038 12.1444 8.00531 12.6668 8.54472 13.0693C9.08414 13.4717 9.70953 13.6729 10.4209 13.6729C11.2993 13.6729 12.0477 13.3637 12.6661 12.7452C13.2846 12.1268 13.5938 11.3784 13.5938 10.5C13.5938 9.62161 13.2846 8.8732 12.6661 8.25476C12.0477 7.63632 11.2993 7.3271 10.4209 7.3271C9.94544 7.3271 9.49619 7.4295 9.07314 7.63429C8.65009 7.83909 8.2816 8.11516 7.96768 8.46252H9.41898V9.49808H6.21244V6.29154H7.248V7.71288C7.64977 7.28636 8.12514 6.94283 8.67411 6.68232C9.22294 6.4218 9.80519 6.29154 10.4209 6.29154C11.5832 6.29154 12.5752 6.70236 13.3969 7.524C14.2185 8.34565 14.6293 9.33764 14.6293 10.5C14.6293 11.6623 14.2185 12.6543 13.3969 13.476C12.5752 14.2976 11.5832 14.7084 10.4209 14.7084ZM4.60939 17.8813C4.1707 17.8813 3.79939 17.7293 3.49546 17.4254C3.19152 17.1215 3.03955 16.7502 3.03955 16.3115V13.1052H4.34214V16.3115C4.34214 16.3783 4.37 16.4396 4.42572 16.4951C4.4813 16.5509 4.54252 16.5787 4.60939 16.5787H7.81571V17.8813H4.60939ZM13.0261 17.8813V16.5787H16.2324C16.2992 16.5787 16.3605 16.5509 16.416 16.4951C16.4718 16.4396 16.4996 16.3783 16.4996 16.3115V13.1052H17.8022V16.3115C17.8022 16.7502 17.6502 17.1215 17.3463 17.4254C17.0424 17.7293 16.6711 17.8813 16.2324 17.8813H13.0261ZM3.03955 7.89481V4.68849C3.03955 4.24981 3.19152 3.8785 3.49546 3.57456C3.79939 3.27062 4.1707 3.11865 4.60939 3.11865H7.81571V4.42124H4.60939C4.54252 4.42124 4.4813 4.4491 4.42572 4.50482C4.37 4.5604 4.34214 4.62162 4.34214 4.68849V7.89481H3.03955ZM16.4996 7.89481V4.68849C16.4996 4.62162 16.4718 4.5604 16.416 4.50482C16.3605 4.4491 16.2992 4.42124 16.2324 4.42124H13.0261V3.11865H16.2324C16.6711 3.11865 17.0424 3.27062 17.3463 3.57456C17.6502 3.8785 17.8022 4.24981 17.8022 4.68849V7.89481H16.4996Z" fill="#1C1B1F"/>
</g>
</svg>
