<svg width="60" height="59" viewBox="0 0 60 59" fill="none" xmlns="http://www.w3.org/2000/svg">
<g clip-path="url(#clip0_4240_5529)">
<path d="M26.911 9.78163C28.5766 11.0383 29.4761 12.4789 30.0621 14.474C30.2626 14.7198 30.2981 14.23 30.3222 14.0995C30.495 12.9325 29.7574 11.614 29.1088 10.6112C32.0045 12.2851 35.0856 14.7629 36.4355 17.8494C38.0704 21.3943 37.6692 26.2566 34.3216 28.6269C32.3787 26.9626 29.8723 25.5837 27.245 25.6558C23.8742 26.0673 24.1193 29.663 27.0767 31.0015C29.4756 32.0866 32.3275 31.7417 34.6249 30.5274C41.4302 38.2767 37.1124 48.3272 27.8126 51.2039C27.801 51.207 27.7902 51.2124 27.7808 51.2198C27.7714 51.2273 27.7636 51.2365 27.758 51.2471C27.7523 51.2576 27.7488 51.2692 27.7478 51.2811C27.7468 51.2931 27.7481 51.305 27.7519 51.3164C27.7549 51.3278 27.76 51.3384 27.7672 51.3478C27.7742 51.3571 27.783 51.3649 27.7932 51.3708C27.8034 51.3768 27.8146 51.3805 27.8263 51.382C27.8379 51.3835 27.8497 51.3827 27.861 51.3796C37.7412 48.7852 42.3378 38.1814 35.573 29.9117C38.028 28.1141 39.1983 24.9628 39.0009 21.9863C38.7132 16.6488 34.1603 12.0302 29.3559 10.14C29.8791 9.9591 30.4549 9.983 30.9775 9.80497C31.5889 9.59638 32.4764 8.812 32.0206 8.73973C31.4315 8.92852 30.8285 9.07196 30.2171 9.16852C29.6007 9.27714 28.9011 9.38049 28.2806 9.46003L28.1622 9.47238L26.9649 9.61142C26.9458 9.61317 26.9277 9.62039 26.9128 9.63233C26.898 9.64414 26.8869 9.66027 26.8812 9.67843C26.8754 9.6966 26.8751 9.71613 26.8805 9.73441C26.8858 9.75283 26.8964 9.76924 26.911 9.78163ZM29.6681 29.9619C26.1519 30.0986 24.7506 26.6198 28.3643 27.0185C30.1508 27.3496 31.8291 28.1156 33.2504 29.2488C32.128 29.7581 30.9022 30.002 29.6681 29.9619Z" fill="#4BA9FE"/>
<path d="M39.507 42.8476C39.4949 42.8455 39.4836 42.8405 39.474 42.833C39.4643 42.8254 39.4568 42.8156 39.4519 42.8043C39.4471 42.7931 39.4452 42.7808 39.4463 42.7687C39.4474 42.7565 39.4516 42.7448 39.4584 42.7347C40.6921 40.8841 40.8249 38.2437 39.9688 36.4594C39.9608 36.4435 39.9593 36.4252 39.9645 36.4082C39.9696 36.3914 39.9811 36.377 39.9965 36.3683C40.0119 36.3596 40.03 36.3562 40.0476 36.3589C40.0654 36.3615 40.0816 36.3699 40.0939 36.3828C41.7101 38.0744 40.9894 41.1435 39.6353 42.7957C39.6199 42.8146 39.5998 42.8292 39.5767 42.8376C39.5537 42.8461 39.5289 42.8482 39.5048 42.8437L39.507 42.8476Z" fill="#65696A"/>
<path d="M23.1788 27.6688C22.4061 26.6138 23.4273 25.1029 24.667 25.1027C24.6754 25.1025 24.6835 25.1051 24.6903 25.11C24.697 25.1151 24.7019 25.1222 24.704 25.1303C24.7062 25.1383 24.7056 25.1468 24.7023 25.1545C24.6989 25.1622 24.6932 25.1684 24.6858 25.1724C23.767 25.6972 23.0927 26.5468 23.2455 27.6407C23.247 27.6491 23.2458 27.6576 23.2418 27.6651C23.2378 27.6726 23.2314 27.6783 23.2236 27.6817C23.2158 27.685 23.2071 27.6855 23.1989 27.6831C23.1908 27.6807 23.1836 27.6757 23.1788 27.6688Z" fill="#65696A"/>
<path d="M39.0537 43.3915C39.113 43.4766 39.1384 43.5807 39.125 43.6833C39.1173 43.7597 39.0867 43.8319 39.0372 43.8904C38.9892 43.947 38.925 43.9875 38.8532 44.0068C38.7559 44.0332 38.6527 44.029 38.5577 43.9948C38.5335 43.9024 38.5286 43.8062 38.543 43.712C38.5524 43.6486 38.5794 43.5891 38.6209 43.5403C38.6625 43.4915 38.7169 43.4553 38.7782 43.4359C38.8674 43.4087 38.9601 43.3938 39.0537 43.3915Z" fill="#65696A"/>
<path d="M25.3379 24.8863C25.3319 24.8885 25.3256 24.8887 25.3195 24.887C25.3136 24.8852 25.3083 24.8816 25.3044 24.8766C25.3006 24.8717 25.2985 24.8657 25.2983 24.8594C25.2981 24.8533 25.2999 24.8471 25.3035 24.842C25.34 24.7867 25.3876 24.7393 25.4432 24.7032C25.5187 24.6546 25.6029 24.621 25.6912 24.6042C25.779 24.5875 25.8696 24.5884 25.9573 24.6066C26.0227 24.6194 26.0846 24.6455 26.1394 24.6833C26.1443 24.687 26.1479 24.692 26.15 24.6975C26.1519 24.7032 26.1521 24.7093 26.1506 24.7151C26.1492 24.721 26.1461 24.7262 26.1415 24.7302C26.1371 24.7342 26.1315 24.7368 26.1256 24.7376C26.0628 24.7421 26.0068 24.7491 25.9505 24.7562C25.8744 24.7657 25.8006 24.779 25.7266 24.7923C25.6528 24.8056 25.58 24.8209 25.5036 24.8408C25.4505 24.8534 25.3972 24.8675 25.3379 24.8863Z" fill="#65696A"/>
<path d="M35.8529 19.495C35.377 17.8198 34.0855 15.757 32.6093 14.8077C32.6056 14.8059 32.6028 14.8028 32.6015 14.7991C32.6001 14.7951 32.6004 14.791 32.6021 14.7875C32.6037 14.7837 32.6068 14.7808 32.6106 14.7796C32.6145 14.7782 32.6187 14.7784 32.6224 14.7801C34.3091 15.3583 35.8221 17.7364 35.8824 19.4894C35.8823 19.493 35.8811 19.4963 35.8788 19.4991C35.8766 19.502 35.8735 19.5038 35.87 19.5043C35.8665 19.505 35.8628 19.5044 35.8598 19.5028C35.8566 19.501 35.8541 19.4983 35.8529 19.495Z" fill="#65696A"/>
</g>
<defs>
<clipPath id="clip0_4240_5529">
<rect width="45.1511" height="40.0831" fill="white" transform="matrix(0.84356 0.537035 0.537035 -0.84356 0.119141 34.165)"/>
</clipPath>
</defs>
</svg>
