<svg width="57" height="60" viewBox="0 0 57 60" fill="none" xmlns="http://www.w3.org/2000/svg">
<path d="M2.02096 17.9714C1.70136 17.9714 1.39485 18.0984 1.16887 18.3244C0.942876 18.5504 0.815918 18.8569 0.815918 19.1765V40.8672C0.815918 41.1868 0.942876 41.4933 1.16887 41.7193C1.39485 41.9453 1.70136 42.0722 2.02096 42.0722C2.34055 42.0722 2.64706 41.9453 2.87305 41.7193C3.09904 41.4933 3.226 41.1868 3.226 40.8672V19.1765C3.226 18.8569 3.09904 18.5504 2.87305 18.3244C2.64706 18.0984 2.34055 17.9714 2.02096 17.9714Z" fill="white"/>
<path d="M7.97506 9.53589C7.65546 9.53589 7.34896 9.66285 7.12297 9.88884C6.89698 10.1148 6.77002 10.4213 6.77002 10.7409V49.3022C6.77002 49.6218 6.89698 49.9283 7.12297 50.1543C7.34896 50.3803 7.65546 50.5072 7.97506 50.5072C8.29466 50.5072 8.60116 50.3803 8.82715 50.1543C9.05314 49.9283 9.1801 49.6218 9.1801 49.3022V10.7409C9.1801 10.4213 9.05314 10.1148 8.82715 9.88884C8.60116 9.66285 8.29466 9.53589 7.97506 9.53589Z" fill="white"/>
<path d="M13.9296 13.1511C13.6101 13.1511 13.3035 13.2781 13.0776 13.5041C12.8516 13.7301 12.7246 14.0366 12.7246 14.3562V45.6872C12.7246 46.0068 12.8516 46.3133 13.0776 46.5393C13.3035 46.7653 13.6101 46.8922 13.9296 46.8922C14.2492 46.8922 14.5558 46.7653 14.7817 46.5393C15.0077 46.3133 15.1347 46.0068 15.1347 45.6872V14.3562C15.1347 14.0366 15.0077 13.7301 14.7817 13.5041C14.5558 13.2781 14.2492 13.1511 13.9296 13.1511Z" fill="white"/>
<path d="M19.8838 19.1763C19.5642 19.1763 19.2576 19.3032 19.0317 19.5292C18.8057 19.7552 18.6787 20.0617 18.6787 20.3813V39.6619C18.6787 39.9815 18.8057 40.288 19.0317 40.514C19.2576 40.74 19.5642 40.867 19.8838 40.867C20.2033 40.867 20.5099 40.74 20.7358 40.514C20.9618 40.288 21.0888 39.9815 21.0888 39.6619V20.3813C21.0888 20.0617 20.9618 19.7552 20.7358 19.5292C20.5099 19.3032 20.2033 19.1763 19.8838 19.1763Z" fill="white"/>
<path d="M25.8383 22.7915C25.5187 22.7915 25.2122 22.9185 24.9862 23.1445C24.7603 23.3704 24.6333 23.6769 24.6333 23.9965V36.0469C24.6333 36.3665 24.7603 36.673 24.9862 36.899C25.2122 37.125 25.5187 37.252 25.8383 37.252C26.1579 37.252 26.4644 37.125 26.6904 36.899C26.9164 36.673 27.0434 36.3665 27.0434 36.0469V23.9965C27.0434 23.6769 26.9164 23.3704 26.6904 23.1445C26.4644 22.9185 26.1579 22.7915 25.8383 22.7915Z" fill="white"/>
<path d="M31.7924 19.1763C31.4728 19.1763 31.1663 19.3032 30.9403 19.5292C30.7144 19.7552 30.5874 20.0617 30.5874 20.3813V39.6619C30.5874 39.9815 30.7144 40.288 30.9403 40.514C31.1663 40.74 31.4728 40.867 31.7924 40.867C32.112 40.867 32.4185 40.74 32.6445 40.514C32.8705 40.288 32.9975 39.9815 32.9975 39.6619V20.3813C32.9975 20.0617 32.8705 19.7552 32.6445 19.5292C32.4185 19.3032 32.112 19.1763 31.7924 19.1763Z" fill="white"/>
<path d="M37.747 16.7664C37.4274 16.7664 37.1209 16.8933 36.8949 17.1193C36.669 17.3453 36.542 17.6518 36.542 17.9714V42.0722C36.542 42.3918 36.669 42.6983 36.8949 42.9243C37.1209 43.1503 37.4274 43.2772 37.747 43.2772C38.0666 43.2772 38.3731 43.1503 38.5991 42.9243C38.8251 42.6983 38.9521 42.3918 38.9521 42.0722V17.9714C38.9521 17.6518 38.8251 17.3453 38.5991 17.1193C38.3731 16.8933 38.0666 16.7664 37.747 16.7664Z" fill="white"/>
<path d="M43.7011 20.3813C43.3815 20.3813 43.075 20.5083 42.849 20.7343C42.6231 20.9603 42.4961 21.2668 42.4961 21.5864V38.4569C42.4961 38.7765 42.6231 39.083 42.849 39.309C43.075 39.535 43.3815 39.662 43.7011 39.662C44.0207 39.662 44.3272 39.535 44.5532 39.309C44.7792 39.083 44.9062 38.7765 44.9062 38.4569V21.5864C44.9062 21.2668 44.7792 20.9603 44.5532 20.7343C44.3272 20.5083 44.0207 20.3813 43.7011 20.3813Z" fill="white"/>
<path d="M49.6552 23.9963C49.3356 23.9963 49.0291 24.1233 48.8031 24.3493C48.5772 24.5753 48.4502 24.8818 48.4502 25.2014V34.8417C48.4502 35.1613 48.5772 35.4678 48.8031 35.6938C49.0291 35.9198 49.3356 36.0467 49.6552 36.0467C49.9748 36.0467 50.2813 35.9198 50.5073 35.6938C50.7333 35.4678 50.8603 35.1613 50.8603 34.8417V25.2014C50.8603 24.8818 50.7333 24.5753 50.5073 24.3493C50.2813 24.1233 49.9748 23.9963 49.6552 23.9963Z" fill="white"/>
<path d="M55.6098 26.4065C55.2902 26.4065 54.9837 26.5335 54.7577 26.7594C54.5317 26.9854 54.4048 27.2919 54.4048 27.6115V32.4317C54.4048 32.7513 54.5317 33.0578 54.7577 33.2838C54.9837 33.5098 55.2902 33.6367 55.6098 33.6367C55.9294 33.6367 56.2359 33.5098 56.4619 33.2838C56.6879 33.0578 56.8149 32.7513 56.8149 32.4317V27.6115C56.8149 27.2919 56.6879 26.9854 56.4619 26.7594C56.2359 26.5335 55.9294 26.4065 55.6098 26.4065Z" fill="white"/>
</svg>
