<svg width="75" height="60" viewBox="0 0 75 60" fill="none" xmlns="http://www.w3.org/2000/svg">
<path d="M1.6152 26.4065C1.2956 26.4065 0.989093 26.5335 0.763104 26.7594C0.537116 26.9854 0.410156 27.2919 0.410156 27.6115V32.4317C0.410156 32.7513 0.537116 33.0578 0.763104 33.2838C0.989093 33.5098 1.2956 33.6367 1.6152 33.6367C1.93479 33.6367 2.2413 33.5098 2.46729 33.2838C2.69328 33.0578 2.82024 32.7513 2.82024 32.4317V27.6115C2.82024 27.2919 2.69328 26.9854 2.46729 26.7594C2.2413 26.5335 1.93479 26.4065 1.6152 26.4065Z" fill="white"/>
<path d="M7.5693 23.9966C7.2497 23.9966 6.94319 24.1235 6.71721 24.3495C6.49122 24.5755 6.36426 24.882 6.36426 25.2016V34.8419C6.36426 35.1615 6.49122 35.468 6.71721 35.694C6.94319 35.92 7.2497 36.047 7.5693 36.047C7.88889 36.047 8.1954 35.92 8.42139 35.694C8.64738 35.468 8.77434 35.1615 8.77434 34.8419V25.2016C8.77434 24.882 8.64738 24.5755 8.42139 24.3495C8.1954 24.1235 7.88889 23.9966 7.5693 23.9966Z" fill="white"/>
<path d="M13.5239 22.7915C13.2043 22.7915 12.8978 22.9185 12.6718 23.1445C12.4458 23.3704 12.3188 23.6769 12.3188 23.9965V36.0469C12.3188 36.3665 12.4458 36.673 12.6718 36.899C12.8978 37.125 13.2043 37.252 13.5239 37.252C13.8435 37.252 14.15 37.125 14.376 36.899C14.602 36.673 14.7289 36.3665 14.7289 36.0469V23.9965C14.7289 23.6769 14.602 23.3704 14.376 23.1445C14.15 22.9185 13.8435 22.7915 13.5239 22.7915Z" fill="white"/>
<path d="M19.478 17.9714C19.1584 17.9714 18.8519 18.0984 18.6259 18.3244C18.3999 18.5504 18.2729 18.8569 18.2729 19.1765V40.8672C18.2729 41.1868 18.3999 41.4933 18.6259 41.7193C18.8519 41.9453 19.1584 42.0722 19.478 42.0722C19.7976 42.0722 20.1041 41.9453 20.3301 41.7193C20.5561 41.4933 20.683 41.1868 20.683 40.8672V19.1765C20.683 18.8569 20.5561 18.5504 20.3301 18.3244C20.1041 18.0984 19.7976 17.9714 19.478 17.9714Z" fill="white"/>
<path d="M25.4326 9.53589C25.113 9.53589 24.8065 9.66285 24.5805 9.88884C24.3545 10.1148 24.2275 10.4213 24.2275 10.7409V49.3022C24.2275 49.6218 24.3545 49.9283 24.5805 50.1543C24.8065 50.3803 25.113 50.5072 25.4326 50.5072C25.7522 50.5072 26.0587 50.3803 26.2847 50.1543C26.5107 49.9283 26.6376 49.6218 26.6376 49.3022V10.7409C26.6376 10.4213 26.5107 10.1148 26.2847 9.88884C26.0587 9.66285 25.7522 9.53589 25.4326 9.53589Z" fill="white"/>
<path d="M31.3867 13.1511C31.0671 13.1511 30.7606 13.2781 30.5346 13.5041C30.3086 13.7301 30.1816 14.0366 30.1816 14.3562V45.6872C30.1816 46.0068 30.3086 46.3133 30.5346 46.5393C30.7606 46.7653 31.0671 46.8922 31.3867 46.8922C31.7063 46.8922 32.0128 46.7653 32.2388 46.5393C32.4648 46.3133 32.5917 46.0068 32.5917 45.6872V14.3562C32.5917 14.0366 32.4648 13.7301 32.2388 13.5041C32.0128 13.2781 31.7063 13.1511 31.3867 13.1511Z" fill="white"/>
<path d="M37.3413 19.1763C37.0217 19.1763 36.7152 19.3032 36.4892 19.5292C36.2632 19.7552 36.1362 20.0617 36.1362 20.3813V39.6619C36.1362 39.9815 36.2632 40.288 36.4892 40.514C36.7152 40.74 37.0217 40.867 37.3413 40.867C37.6609 40.867 37.9674 40.74 38.1934 40.514C38.4194 40.288 38.5463 39.9815 38.5463 39.6619V20.3813C38.5463 20.0617 38.4194 19.7552 38.1934 19.5292C37.9674 19.3032 37.6609 19.1763 37.3413 19.1763Z" fill="white"/>
<path d="M43.2954 22.7915C42.9758 22.7915 42.6693 22.9185 42.4433 23.1445C42.2173 23.3704 42.0903 23.6769 42.0903 23.9965V36.0469C42.0903 36.3665 42.2173 36.673 42.4433 36.899C42.6693 37.125 42.9758 37.252 43.2954 37.252C43.615 37.252 43.9215 37.125 44.1475 36.899C44.3735 36.673 44.5004 36.3665 44.5004 36.0469V23.9965C44.5004 23.6769 44.3735 23.3704 44.1475 23.1445C43.9215 22.9185 43.615 22.7915 43.2954 22.7915Z" fill="white"/>
<path d="M49.2495 19.1763C48.9299 19.1763 48.6234 19.3032 48.3974 19.5292C48.1714 19.7552 48.0444 20.0617 48.0444 20.3813V39.6619C48.0444 39.9815 48.1714 40.288 48.3974 40.514C48.6234 40.74 48.9299 40.867 49.2495 40.867C49.5691 40.867 49.8756 40.74 50.1016 40.514C50.3276 40.288 50.4545 39.9815 50.4545 39.6619V20.3813C50.4545 20.0617 50.3276 19.7552 50.1016 19.5292C49.8756 19.3032 49.5691 19.1763 49.2495 19.1763Z" fill="white"/>
<path d="M55.2041 16.7661C54.8845 16.7661 54.578 16.8931 54.352 17.1191C54.126 17.345 53.999 17.6516 53.999 17.9712V42.072C53.999 42.3915 54.126 42.6981 54.352 42.924C54.578 43.15 54.8845 43.277 55.2041 43.277C55.5237 43.277 55.8302 43.15 56.0562 42.924C56.2821 42.6981 56.4091 42.3915 56.4091 42.072V17.9712C56.4091 17.6516 56.2821 17.345 56.0562 17.1191C55.8302 16.8931 55.5237 16.7661 55.2041 16.7661Z" fill="white"/>
<path d="M61.1582 20.3813C60.8386 20.3813 60.5321 20.5083 60.3061 20.7343C60.0801 20.9603 59.9531 21.2668 59.9531 21.5864V38.4569C59.9531 38.7765 60.0801 39.083 60.3061 39.309C60.5321 39.535 60.8386 39.662 61.1582 39.662C61.4778 39.662 61.7843 39.535 62.0103 39.309C62.2362 39.083 62.3632 38.7765 62.3632 38.4569V21.5864C62.3632 21.2668 62.2362 20.9603 62.0103 20.7343C61.7843 20.5083 61.4778 20.3813 61.1582 20.3813Z" fill="white"/>
<path d="M67.1128 23.9966C66.7932 23.9966 66.4867 24.1235 66.2607 24.3495C66.0347 24.5755 65.9077 24.882 65.9077 25.2016V34.8419C65.9077 35.1615 66.0347 35.468 66.2607 35.694C66.4867 35.92 66.7932 36.047 67.1128 36.047C67.4324 36.047 67.7389 35.92 67.9648 35.694C68.1908 35.468 68.3178 35.1615 68.3178 34.8419V25.2016C68.3178 24.882 68.1908 24.5755 67.9648 24.3495C67.7389 24.1235 67.4324 23.9966 67.1128 23.9966Z" fill="white"/>
<path d="M73.0669 26.4065C72.7473 26.4065 72.4408 26.5335 72.2148 26.7594C71.9888 26.9854 71.8618 27.2919 71.8618 27.6115V32.4317C71.8618 32.7513 71.9888 33.0578 72.2148 33.2838C72.4408 33.5098 72.7473 33.6367 73.0669 33.6367C73.3865 33.6367 73.693 33.5098 73.9189 33.2838C74.1449 33.0578 74.2719 32.7513 74.2719 32.4317V27.6115C74.2719 27.2919 74.1449 26.9854 73.9189 26.7594C73.693 26.5335 73.3865 26.4065 73.0669 26.4065Z" fill="white"/>
</svg>
