<svg width="74" height="60" viewBox="0 0 74 60" fill="none" xmlns="http://www.w3.org/2000/svg">
<path d="M1.20895 26.4065C0.88935 26.4065 0.582843 26.5335 0.356854 26.7594C0.130866 26.9854 0.00390625 27.2919 0.00390625 27.6115V32.4317C0.00390625 32.7513 0.130866 33.0578 0.356854 33.2838C0.582843 33.5098 0.88935 33.6367 1.20895 33.6367C1.52854 33.6367 1.83505 33.5098 2.06104 33.2838C2.28703 33.0578 2.41399 32.7513 2.41399 32.4317V27.6115C2.41399 27.2919 2.28703 26.9854 2.06104 26.7594C1.83505 26.5335 1.52854 26.4065 1.20895 26.4065Z" fill="white"/>
<path d="M7.16305 23.9963C6.84345 23.9963 6.53694 24.1233 6.31096 24.3493C6.08497 24.5753 5.95801 24.8818 5.95801 25.2014V34.8417C5.95801 35.1613 6.08497 35.4678 6.31096 35.6938C6.53694 35.9198 6.84345 36.0467 7.16305 36.0467C7.48264 36.0467 7.78915 35.9198 8.01514 35.6938C8.24113 35.4678 8.36809 35.1613 8.36809 34.8417V25.2014C8.36809 24.8818 8.24113 24.5753 8.01514 24.3493C7.78915 24.1233 7.48264 23.9963 7.16305 23.9963Z" fill="white"/>
<path d="M13.1176 22.7915C12.798 22.7915 12.4915 22.9185 12.2655 23.1445C12.0396 23.3704 11.9126 23.6769 11.9126 23.9965V36.0469C11.9126 36.3665 12.0396 36.673 12.2655 36.899C12.4915 37.125 12.798 37.252 13.1176 37.252C13.4372 37.252 13.7437 37.125 13.9697 36.899C14.1957 36.673 14.3227 36.3665 14.3227 36.0469V23.9965C14.3227 23.6769 14.1957 23.3704 13.9697 23.1445C13.7437 22.9185 13.4372 22.7915 13.1176 22.7915Z" fill="white"/>
<path d="M19.0717 17.9712C18.7521 17.9712 18.4456 18.0981 18.2196 18.3241C17.9937 18.5501 17.8667 18.8566 17.8667 19.1762V40.8669C17.8667 41.1865 17.9937 41.493 18.2196 41.719C18.4456 41.945 18.7521 42.072 19.0717 42.072C19.3913 42.072 19.6978 41.945 19.9238 41.719C20.1498 41.493 20.2768 41.1865 20.2768 40.8669V19.1762C20.2768 18.8566 20.1498 18.5501 19.9238 18.3241C19.6978 18.0981 19.3913 17.9712 19.0717 17.9712Z" fill="white"/>
<path d="M25.0263 9.53589C24.7067 9.53589 24.4002 9.66285 24.1742 9.88884C23.9482 10.1148 23.8213 10.4213 23.8213 10.7409V49.3022C23.8213 49.6218 23.9482 49.9283 24.1742 50.1543C24.4002 50.3803 24.7067 50.5072 25.0263 50.5072C25.3459 50.5072 25.6524 50.3803 25.8784 50.1543C26.1044 49.9283 26.2314 49.6218 26.2314 49.3022V10.7409C26.2314 10.4213 26.1044 10.1148 25.8784 9.88884C25.6524 9.66285 25.3459 9.53589 25.0263 9.53589Z" fill="white"/>
<path d="M30.9804 13.1509C30.6608 13.1509 30.3543 13.2778 30.1283 13.5038C29.9023 13.7298 29.7754 14.0363 29.7754 14.3559V45.687C29.7754 46.0065 29.9023 46.3131 30.1283 46.539C30.3543 46.765 30.6608 46.892 30.9804 46.892C31.3 46.892 31.6065 46.765 31.8325 46.539C32.0585 46.3131 32.1855 46.0065 32.1855 45.687V14.3559C32.1855 14.0363 32.0585 13.7298 31.8325 13.5038C31.6065 13.2778 31.3 13.1509 30.9804 13.1509Z" fill="white"/>
<path d="M36.935 19.1763C36.6154 19.1763 36.3089 19.3032 36.0829 19.5292C35.8569 19.7552 35.73 20.0617 35.73 20.3813V39.6619C35.73 39.9815 35.8569 40.288 36.0829 40.514C36.3089 40.74 36.6154 40.867 36.935 40.867C37.2546 40.867 37.5611 40.74 37.7871 40.514C38.0131 40.288 38.1401 39.9815 38.1401 39.6619V20.3813C38.1401 20.0617 38.0131 19.7552 37.7871 19.5292C37.5611 19.3032 37.2546 19.1763 36.935 19.1763Z" fill="white"/>
<path d="M42.8891 22.7915C42.5695 22.7915 42.263 22.9185 42.037 23.1445C41.811 23.3704 41.6841 23.6769 41.6841 23.9965V36.0469C41.6841 36.3665 41.811 36.673 42.037 36.899C42.263 37.125 42.5695 37.252 42.8891 37.252C43.2087 37.252 43.5152 37.125 43.7412 36.899C43.9672 36.673 44.0942 36.3665 44.0942 36.0469V23.9965C44.0942 23.6769 43.9672 23.3704 43.7412 23.1445C43.5152 22.9185 43.2087 22.7915 42.8891 22.7915Z" fill="white"/>
<path d="M48.8432 19.1763C48.5236 19.1763 48.2171 19.3032 47.9911 19.5292C47.7651 19.7552 47.6382 20.0617 47.6382 20.3813V39.6619C47.6382 39.9815 47.7651 40.288 47.9911 40.514C48.2171 40.74 48.5236 40.867 48.8432 40.867C49.1628 40.867 49.4693 40.74 49.6953 40.514C49.9213 40.288 50.0483 39.9815 50.0483 39.6619V20.3813C50.0483 20.0617 49.9213 19.7552 49.6953 19.5292C49.4693 19.3032 49.1628 19.1763 48.8432 19.1763Z" fill="white"/>
<path d="M54.7978 16.7664C54.4782 16.7664 54.1717 16.8933 53.9457 17.1193C53.7197 17.3453 53.5928 17.6518 53.5928 17.9714V42.0722C53.5928 42.3918 53.7197 42.6983 53.9457 42.9243C54.1717 43.1503 54.4782 43.2772 54.7978 43.2772C55.1174 43.2772 55.4239 43.1503 55.6499 42.9243C55.8759 42.6983 56.0029 42.3918 56.0029 42.0722V17.9714C56.0029 17.6518 55.8759 17.3453 55.6499 17.1193C55.4239 16.8933 55.1174 16.7664 54.7978 16.7664Z" fill="white"/>
<path d="M60.7519 20.3813C60.4323 20.3813 60.1258 20.5083 59.8998 20.7343C59.6738 20.9603 59.5469 21.2668 59.5469 21.5864V38.4569C59.5469 38.7765 59.6738 39.083 59.8998 39.309C60.1258 39.535 60.4323 39.662 60.7519 39.662C61.0715 39.662 61.378 39.535 61.604 39.309C61.83 39.083 61.957 38.7765 61.957 38.4569V21.5864C61.957 21.2668 61.83 20.9603 61.604 20.7343C61.378 20.5083 61.0715 20.3813 60.7519 20.3813Z" fill="white"/>
<path d="M66.7065 23.9963C66.3869 23.9963 66.0804 24.1233 65.8544 24.3493C65.6284 24.5753 65.5015 24.8818 65.5015 25.2014V34.8417C65.5015 35.1613 65.6284 35.4678 65.8544 35.6938C66.0804 35.9198 66.3869 36.0467 66.7065 36.0467C67.0261 36.0467 67.3326 35.9198 67.5586 35.6938C67.7846 35.4678 67.9115 35.1613 67.9115 34.8417V25.2014C67.9115 24.8818 67.7846 24.5753 67.5586 24.3493C67.3326 24.1233 67.0261 23.9963 66.7065 23.9963Z" fill="white"/>
<path d="M72.6606 26.4065C72.341 26.4065 72.0345 26.5335 71.8085 26.7594C71.5825 26.9854 71.4556 27.2919 71.4556 27.6115V32.4317C71.4556 32.7513 71.5825 33.0578 71.8085 33.2838C72.0345 33.5098 72.341 33.6367 72.6606 33.6367C72.9802 33.6367 73.2867 33.5098 73.5127 33.2838C73.7387 33.0578 73.8656 32.7513 73.8656 32.4317V27.6115C73.8656 27.2919 73.7387 26.9854 73.5127 26.7594C73.2867 26.5335 72.9802 26.4065 72.6606 26.4065Z" fill="white"/>
</svg>
