<svg width="116" height="116" viewBox="0 0 116 116" fill="none" xmlns="http://www.w3.org/2000/svg">
<path d="M91.7917 51.5173C73.3777 40.5818 43.0041 39.5763 25.4256 44.9114C22.6027 45.7682 19.6174 44.174 18.7624 41.3519C17.9067 38.5271 19.4986 35.5441 22.3237 34.6859C42.5026 28.5609 76.047 29.7437 97.2456 42.3274C99.7845 43.835 100.617 47.1141 99.1126 49.6488C97.6064 52.1877 94.3246 53.0246 91.7917 51.5173ZM91.1887 67.7144C89.8967 69.8107 87.1558 70.4683 85.0623 69.181C69.7105 59.7444 46.3013 57.0107 28.139 62.5239C25.7838 63.2356 23.296 61.9076 22.5806 59.5568C21.8709 57.2015 23.1996 54.7184 25.5506 54.0021C46.2984 47.7062 72.0912 50.7557 89.7235 61.5912C91.817 62.8807 92.4759 65.6229 91.1887 67.7144ZM84.1987 83.2696C83.1721 84.9531 80.9803 85.4805 79.3029 84.4543C65.8882 76.2557 49.0035 74.4042 29.1188 78.9459C27.2026 79.3853 25.2929 78.1846 24.8559 76.2685C24.417 74.3531 25.6132 72.4431 27.5336 72.0058C49.294 67.0312 67.9602 69.1722 83.0172 78.373C84.696 79.3983 85.2247 81.5914 84.1987 83.2696ZM58.0002 0.874367C26.451 0.874367 0.874512 26.4503 0.874512 57.999C0.874512 89.5515 26.451 115.125 58.0002 115.125C89.5502 115.125 115.125 89.5515 115.125 57.999C115.125 26.4503 89.5502 0.874367 58.0002 0.874367Z" fill="#1ED760"/>
</svg>
