<svg width="45" height="45" viewBox="0 0 45 45" fill="none" xmlns="http://www.w3.org/2000/svg">
<mask id="mask0_4294_5706" style="mask-type:luminance" maskUnits="userSpaceOnUse" x="0" y="0" width="45" height="45">
<path d="M0 0H45V45H0V0Z" fill="white"/>
</mask>
<g mask="url(#mask0_4294_5706)">
<path d="M35.9221 15.3296C37.1064 17.4905 37.7803 19.9703 37.7803 22.6082C37.7803 28.2055 34.7469 33.0923 30.2364 35.7221L34.8703 22.3239C35.7359 20.1594 36.0241 18.4287 36.0241 16.8898C36.0241 16.3312 35.9873 15.8128 35.9221 15.3296ZM24.6996 15.4948C25.613 15.4467 26.436 15.3507 26.436 15.3507C27.2535 15.2539 27.1571 14.0525 26.3392 14.1003C26.3392 14.1003 23.8817 14.2932 22.2953 14.2932C20.8046 14.2932 18.2996 14.1003 18.2996 14.1003C17.4814 14.0525 17.3855 15.3023 18.2034 15.3507C18.2034 15.3507 18.9773 15.4467 19.7948 15.4948L22.1583 21.9714L18.8376 31.9291L13.313 15.4948C14.2271 15.4467 15.0492 15.3507 15.0492 15.3507C15.8662 15.2539 15.7698 14.0525 14.9523 14.1003C14.9523 14.1003 12.4953 14.2932 10.9087 14.2932C10.6241 14.2932 10.2885 14.2862 9.93228 14.2748C12.6451 10.1562 17.308 7.43639 22.6087 7.43639C26.5584 7.43639 30.1548 8.94656 32.8539 11.4198C32.7885 11.4158 32.7248 11.4076 32.6575 11.4076C31.1671 11.4076 30.1096 12.7058 30.1096 14.1003C30.1096 15.3507 30.831 16.4085 31.6 17.6587C32.1769 18.6692 32.8509 19.9673 32.8509 21.843C32.8509 23.1414 32.3514 24.6483 31.6964 26.7476L30.1826 31.8039L24.6996 15.4948ZM22.6087 37.7812C21.1194 37.7812 19.6821 37.5628 18.3225 37.163L22.8751 23.9353L27.5384 36.7119C27.5691 36.7869 27.6067 36.856 27.6469 36.921C26.07 37.4762 24.3755 37.7812 22.6087 37.7812ZM7.43692 22.6082C7.43692 20.4085 7.90871 18.3205 8.75067 16.4337L15.988 36.2626C10.9264 33.8037 7.43692 28.6135 7.43692 22.6082ZM22.6087 5.73371C13.3039 5.73371 5.73389 13.3035 5.73389 22.6082C5.73389 31.9132 13.3039 39.4839 22.6087 39.4839C31.9134 39.4839 39.4837 31.9132 39.4837 22.6082C39.4837 13.3035 31.9134 5.73371 22.6087 5.73371Z" fill="#3F3C3C"/>
</g>
</svg>
