<svg width="20" height="21" viewBox="0 0 20 21" fill="none" xmlns="http://www.w3.org/2000/svg">
<path fill-rule="evenodd" clip-rule="evenodd" d="M2 0C1.46957 0 0.960859 0.210714 0.585786 0.585786C0.210714 0.960859 0 1.46957 0 2V16C0 16.5304 0.210714 17.0391 0.585786 17.4142C0.960859 17.7893 1.46957 18 2 18H18C18.5304 18 19.0391 17.7893 19.4142 17.4142C19.7893 17.0391 20 16.5304 20 16V2C20 1.46957 19.7893 0.960859 19.4142 0.585786C19.0391 0.210714 18.5304 0 18 0H2ZM6.625 5.63C6.64719 5.43882 6.71376 5.25547 6.81939 5.09458C6.92502 4.93369 7.0668 4.79972 7.2334 4.70335C7.4 4.60698 7.58682 4.55089 7.77896 4.53954C7.97109 4.5282 8.16321 4.56191 8.34 4.638C8.844 4.854 9.908 5.34 11.256 6.118C12.2034 6.65944 13.1182 7.25579 13.996 7.904C14.1503 8.01883 14.2757 8.16816 14.362 8.34005C14.4484 8.51194 14.4933 8.70164 14.4933 8.894C14.4933 9.08636 14.4484 9.27606 14.362 9.44795C14.2757 9.61984 14.1503 9.76917 13.996 9.884C13.1182 10.5315 12.2033 11.1272 11.256 11.668C10.3137 12.2184 9.34005 12.7132 8.34 13.15C8.16323 13.2263 7.97106 13.2602 7.77885 13.2489C7.58664 13.2377 7.39973 13.1816 7.23306 13.0852C7.0664 12.9888 6.9246 12.8548 6.81902 12.6938C6.71344 12.5328 6.64699 12.3493 6.625 12.158C6.50501 11.0742 6.44625 9.98444 6.449 8.894C6.449 7.343 6.561 6.175 6.625 5.63Z" fill="black"/>
</svg>
