<svg width="18" height="18" viewBox="0 0 18 18" fill="none" xmlns="http://www.w3.org/2000/svg">
<path d="M9.00256 0.666992C5.52347 0.666992 4.50596 0.670583 4.30818 0.686992C3.59422 0.746356 3.14994 0.858803 2.66593 1.09984C2.29292 1.28512 1.99874 1.49988 1.70841 1.80093C1.17967 2.34995 0.859217 3.02539 0.743211 3.82828C0.686814 4.21806 0.670405 4.29755 0.667072 6.28849C0.665793 6.95214 0.667072 7.82554 0.667072 8.99705C0.667072 12.4743 0.670915 13.491 0.687582 13.6885C0.745264 14.3834 0.854215 14.8206 1.08494 15.2989C1.52589 16.2143 2.36803 16.9016 3.36016 17.158C3.70368 17.2465 4.0831 17.2952 4.57018 17.3183C4.77656 17.3272 6.88001 17.3337 8.98474 17.3337C11.0895 17.3337 13.1942 17.3311 13.3954 17.3208C13.9594 17.2943 14.2869 17.2503 14.6491 17.1567C15.6476 16.899 16.4744 16.222 16.9243 15.2937C17.1505 14.827 17.2652 14.3731 17.3172 13.7145C17.3284 13.5709 17.3332 11.2813 17.3332 8.99488C17.3332 6.70801 17.328 4.42269 17.3168 4.27909C17.2642 3.6098 17.1495 3.15977 16.9159 2.68408C16.7243 2.29469 16.5115 2.00389 16.2026 1.70657C15.6513 1.17986 14.9771 0.859313 14.1736 0.743408C13.7843 0.687118 13.7068 0.67045 11.7149 0.666992H9.00256Z" fill="url(#paint0_radial_4364_6520)"/>
<path d="M9.00256 0.666992C5.52347 0.666992 4.50596 0.670583 4.30818 0.686992C3.59422 0.746356 3.14994 0.858803 2.66593 1.09984C2.29292 1.28512 1.99874 1.49988 1.70841 1.80093C1.17967 2.34995 0.859217 3.02539 0.743211 3.82828C0.686814 4.21806 0.670405 4.29755 0.667072 6.28849C0.665793 6.95214 0.667072 7.82554 0.667072 8.99705C0.667072 12.4743 0.670915 13.491 0.687582 13.6885C0.745264 14.3834 0.854215 14.8206 1.08494 15.2989C1.52589 16.2143 2.36803 16.9016 3.36016 17.158C3.70368 17.2465 4.0831 17.2952 4.57018 17.3183C4.77656 17.3272 6.88001 17.3337 8.98474 17.3337C11.0895 17.3337 13.1942 17.3311 13.3954 17.3208C13.9594 17.2943 14.2869 17.2503 14.6491 17.1567C15.6476 16.899 16.4744 16.222 16.9243 15.2937C17.1505 14.827 17.2652 14.3731 17.3172 13.7145C17.3284 13.5709 17.3332 11.2813 17.3332 8.99488C17.3332 6.70801 17.328 4.42269 17.3168 4.27909C17.2642 3.6098 17.1495 3.15977 16.9159 2.68408C16.7243 2.29469 16.5115 2.00389 16.2026 1.70657C15.6513 1.17986 14.9771 0.859313 14.1736 0.743408C13.7843 0.687118 13.7068 0.67045 11.7149 0.666992H9.00256Z" fill="url(#paint1_radial_4364_6520)"/>
<path d="M9.00256 0.666992C5.52347 0.666992 4.50596 0.670583 4.30818 0.686992C3.59422 0.746356 3.14994 0.858803 2.66593 1.09984C2.29292 1.28512 1.99874 1.49988 1.70841 1.80093C1.17967 2.34995 0.859217 3.02539 0.743211 3.82828C0.686814 4.21806 0.670405 4.29755 0.667072 6.28849C0.665793 6.95214 0.667072 7.82554 0.667072 8.99705C0.667072 12.4743 0.670915 13.491 0.687582 13.6885C0.745264 14.3834 0.854215 14.8206 1.08494 15.2989C1.52589 16.2143 2.36803 16.9016 3.36016 17.158C3.70368 17.2465 4.0831 17.2952 4.57018 17.3183C4.77656 17.3272 6.88001 17.3337 8.98474 17.3337C11.0895 17.3337 13.1942 17.3311 13.3954 17.3208C13.9594 17.2943 14.2869 17.2503 14.6491 17.1567C15.6476 16.899 16.4744 16.222 16.9243 15.2937C17.1505 14.827 17.2652 14.3731 17.3172 13.7145C17.3284 13.5709 17.3332 11.2813 17.3332 8.99488C17.3332 6.70801 17.328 4.42269 17.3168 4.27909C17.2642 3.6098 17.1495 3.15977 16.9159 2.68408C16.7243 2.29469 16.5115 2.00389 16.2026 1.70657C15.6513 1.17986 14.9771 0.859313 14.1736 0.743408C13.7843 0.687118 13.7068 0.67045 11.7149 0.666992H9.00256Z" fill="url(#paint2_radial_4364_6520)"/>
<path d="M9.00256 0.666992C5.52347 0.666992 4.50596 0.670583 4.30818 0.686992C3.59422 0.746356 3.14994 0.858803 2.66593 1.09984C2.29292 1.28512 1.99874 1.49988 1.70841 1.80093C1.17967 2.34995 0.859217 3.02539 0.743211 3.82828C0.686814 4.21806 0.670405 4.29755 0.667072 6.28849C0.665793 6.95214 0.667072 7.82554 0.667072 8.99705C0.667072 12.4743 0.670915 13.491 0.687582 13.6885C0.745264 14.3834 0.854215 14.8206 1.08494 15.2989C1.52589 16.2143 2.36803 16.9016 3.36016 17.158C3.70368 17.2465 4.0831 17.2952 4.57018 17.3183C4.77656 17.3272 6.88001 17.3337 8.98474 17.3337C11.0895 17.3337 13.1942 17.3311 13.3954 17.3208C13.9594 17.2943 14.2869 17.2503 14.6491 17.1567C15.6476 16.899 16.4744 16.222 16.9243 15.2937C17.1505 14.827 17.2652 14.3731 17.3172 13.7145C17.3284 13.5709 17.3332 11.2813 17.3332 8.99488C17.3332 6.70801 17.328 4.42269 17.3168 4.27909C17.2642 3.6098 17.1495 3.15977 16.9159 2.68408C16.7243 2.29469 16.5115 2.00389 16.2026 1.70657C15.6513 1.17986 14.9771 0.859313 14.1736 0.743408C13.7843 0.687118 13.7068 0.67045 11.7149 0.666992H9.00256Z" fill="url(#paint3_radial_4364_6520)"/>
<path d="M9.00297 2.80664C7.32003 2.80664 7.10882 2.81399 6.44783 2.84405C5.78813 2.87424 5.33783 2.9786 4.94381 3.13174C4.53625 3.28989 4.19051 3.50146 3.84608 3.84577C3.50139 4.18995 3.28966 4.53542 3.13087 4.94256C2.97724 5.33641 2.87266 5.7865 2.84297 6.44546C2.81341 7.10595 2.80566 7.31714 2.80566 8.99883C2.80566 10.6805 2.81315 10.8909 2.8431 11.5514C2.87344 12.2106 2.97788 12.6606 3.13099 13.0543C3.2894 13.4616 3.50112 13.8071 3.84569 14.1512C4.19 14.4957 4.53573 14.7078 4.94304 14.8659C5.33731 15.0191 5.78774 15.1234 6.44731 15.1536C7.1083 15.1837 7.31938 15.191 9.00219 15.191C10.6853 15.191 10.8958 15.1837 11.5568 15.1536C12.2165 15.1234 12.6673 15.0191 13.0616 14.8659C13.469 14.7078 13.8143 14.4957 14.1586 14.1512C14.5033 13.8071 14.715 13.4616 14.8738 13.0545C15.0261 12.6606 15.1307 12.2105 15.1617 11.5516C15.1914 10.8911 15.1991 10.6805 15.1991 8.99883C15.1991 7.31713 15.1914 7.10609 15.1617 6.44558C15.1307 5.78637 15.0261 5.33641 14.8738 4.94269C14.715 4.53542 14.5033 4.18995 14.1586 3.84577C13.8139 3.50132 13.4692 3.28976 13.0612 3.13173C12.6662 2.9786 12.2156 2.87424 11.5559 2.84405C10.8949 2.81399 10.6845 2.80664 9.00104 2.80664H9.00297ZM8.44706 3.92253C8.61206 3.92227 8.79615 3.92253 9.00297 3.92253C10.6575 3.92253 10.8536 3.92846 11.507 3.95813C12.1112 3.98574 12.4391 4.08662 12.6575 4.17137C12.9467 4.2836 13.1529 4.41777 13.3696 4.6345C13.5865 4.85123 13.7208 5.05763 13.8334 5.3466C13.9182 5.56461 14.0193 5.89229 14.0468 6.49603C14.0765 7.14878 14.0829 7.34487 14.0829 8.99741C14.0829 10.6499 14.0765 10.846 14.0468 11.4988C14.0191 12.1025 13.9182 12.4302 13.8334 12.6482C13.7211 12.9372 13.5865 13.143 13.3696 13.3595C13.1528 13.5763 12.9468 13.7104 12.6575 13.8227C12.4393 13.9078 12.1112 14.0084 11.507 14.036C10.8537 14.0657 10.6575 14.0722 9.00297 14.0722C7.3483 14.0722 7.1522 14.0657 6.49895 14.036C5.89477 14.0082 5.56686 13.9073 5.34829 13.8225C5.0591 13.7103 4.85254 13.5761 4.63565 13.3594C4.41877 13.1427 4.28451 12.9368 4.17193 12.6477C4.08711 12.4297 3.98602 12.102 3.95853 11.4983C3.92883 10.8455 3.92289 10.6494 3.92289 8.99586C3.92289 7.34229 3.92883 7.14723 3.95853 6.49448C3.98616 5.89074 4.08711 5.56307 4.17193 5.34479C4.28424 5.05582 4.41877 4.84942 4.63565 4.63269C4.85254 4.41596 5.0591 4.2818 5.34829 4.16931C5.56672 4.08417 5.89477 3.98355 6.49895 3.95581C7.0706 3.93 7.29214 3.92227 8.44707 3.92097L8.44706 3.92253ZM12.3108 4.95068C11.9002 4.95068 11.5671 5.28313 11.5671 5.69349C11.5671 6.10372 11.9002 6.43656 12.3108 6.43656C12.7213 6.43656 13.0544 6.10372 13.0544 5.69349C13.0544 5.28326 12.7213 4.95043 12.3108 4.95043L12.3108 4.95068ZM9.00297 5.81888C7.24553 5.81888 5.82066 7.2427 5.82066 8.99883C5.82066 10.755 7.24553 12.1781 9.00297 12.1781C10.7604 12.1781 12.1848 10.755 12.1848 8.99883C12.1848 7.2427 10.7603 5.81888 9.00284 5.81888H9.00297ZM9.00297 6.93477C10.1437 6.93477 11.0686 7.85882 11.0686 8.99883C11.0686 10.1387 10.1437 11.0629 9.00297 11.0629C7.86212 11.0629 6.93738 10.1387 6.93738 8.99883C6.93738 7.85882 7.86212 6.93477 9.00297 6.93477Z" fill="white"/>
<defs>
<radialGradient id="paint0_radial_4364_6520" cx="0" cy="0" r="1" gradientUnits="userSpaceOnUse" gradientTransform="translate(16.795 8.47887) rotate(164.25) scale(10.6491 7.67213)">
<stop stop-color="#FF005F"/>
<stop offset="1" stop-color="#FC01D8"/>
</radialGradient>
<radialGradient id="paint1_radial_4364_6520" cx="0" cy="0" r="1" gradientUnits="userSpaceOnUse" gradientTransform="translate(5.09346 18.6173) rotate(-90) scale(13.3036 14.1149)">
<stop stop-color="#FFCC00"/>
<stop offset="0.1242" stop-color="#FFCC00"/>
<stop offset="0.5672" stop-color="#FE4A05"/>
<stop offset="0.6942" stop-color="#FF0F3F"/>
<stop offset="1" stop-color="#FE0657" stop-opacity="0"/>
</radialGradient>
<radialGradient id="paint2_radial_4364_6520" cx="0" cy="0" r="1" gradientUnits="userSpaceOnUse" gradientTransform="translate(9.42099 17.0986) rotate(-59.8703) scale(5.50117 7.16191)">
<stop stop-color="#FFCC00"/>
<stop offset="1" stop-color="#FFCC00" stop-opacity="0"/>
</radialGradient>
<radialGradient id="paint3_radial_4364_6520" cx="0" cy="0" r="1" gradientUnits="userSpaceOnUse" gradientTransform="translate(2.92781 1.34565) rotate(164.274) scale(10.5309 3.58788)">
<stop stop-color="#780CFF"/>
<stop offset="1" stop-color="#820BFF" stop-opacity="0"/>
</radialGradient>
</defs>
</svg>
