<svg width="9" height="8" viewBox="0 0 9 8" fill="none" xmlns="http://www.w3.org/2000/svg">
<path d="M3.72363 4.3998C3.8953 4.6293 4.11431 4.81919 4.36582 4.9566C4.61733 5.09401 4.89545 5.17572 5.18132 5.1962C5.46718 5.21667 5.75411 5.17543 6.02263 5.07526C6.29116 4.97509 6.535 4.81835 6.73762 4.61565L7.93682 3.41645C8.30089 3.0395 8.50234 2.53464 8.49779 2.01059C8.49323 1.48655 8.28304 0.98526 7.91247 0.614692C7.5419 0.244123 7.04061 0.0339262 6.51657 0.0293724C5.99252 0.0248186 5.48766 0.226273 5.11071 0.590345L4.42317 1.27389" stroke="white" stroke-width="1.06595" stroke-linecap="round" stroke-linejoin="round"/>
<path d="M5.32306 3.60034C5.15139 3.37084 4.93238 3.18094 4.68087 3.04353C4.42936 2.90612 4.15124 2.82441 3.86537 2.80393C3.57951 2.78346 3.29258 2.82471 3.02406 2.92487C2.75553 3.02504 2.51169 3.18179 2.30907 3.38448L1.10988 4.58368C0.745804 4.96063 0.54435 5.4655 0.548904 5.98954C0.553457 6.51358 0.763655 7.01487 1.13422 7.38544C1.50479 7.75601 2.00608 7.96621 2.53012 7.97076C3.05417 7.97531 3.55903 7.77386 3.93599 7.40979L4.61953 6.72624" stroke="white" stroke-width="1.06595" stroke-linecap="round" stroke-linejoin="round"/>
</svg>
