<svg width="13" height="9" viewBox="0 0 13 9" fill="none" xmlns="http://www.w3.org/2000/svg">
<path d="M13 6.74336V1.86282C13 1.19477 12.524 0.621215 11.8673 0.49784C8.39863 -0.153997 4.84001 -0.165904 1.36701 0.463133L1.18182 0.496572C0.497553 0.620454 0 1.2163 0 1.91146V6.6965C0 7.36328 0.474245 7.93582 1.12938 8.06021L1.31558 8.09542C4.81974 8.76018 8.41865 8.74776 11.918 8.05894C12.5465 7.93531 13 7.38405 13 6.74336Z" fill="#2A52C6"/>
<g clip-path="url(#clip0_4364_6944)">
<path d="M8.0312 3.62999C8.10935 3.67154 8.17471 3.73358 8.2203 3.80945C8.26588 3.88531 8.28996 3.97215 8.28996 4.06066C8.28996 4.14917 8.26588 4.23601 8.2203 4.31187C8.17471 4.38774 8.10935 4.44977 8.0312 4.49133L5.94667 5.62487C5.61102 5.80759 5.19873 5.57004 5.19873 5.19436V2.92712C5.19873 2.55128 5.61102 2.3139 5.94667 2.49628L8.0312 3.62999Z" fill="white"/>
</g>
<defs>
<clipPath id="clip0_4364_6944">
<rect width="3.90484" height="3.90484" fill="white" transform="translate(4.54736 2.1084)"/>
</clipPath>
</defs>
</svg>
