<svg width="37" height="25" viewBox="0 0 37 25" fill="none" xmlns="http://www.w3.org/2000/svg">
<path d="M37 19.1926V5.30188C37 3.4005 35.6452 1.76807 33.7762 1.41693C23.9038 -0.438298 13.7754 -0.472187 3.89071 1.31815L3.36363 1.41332C1.41611 1.76591 0 3.46179 0 5.44032V19.0593C0 20.957 1.34978 22.5866 3.21438 22.9406L3.74434 23.0408C13.7177 24.9328 23.9608 24.8975 33.9204 22.937C35.7093 22.5851 37 21.0161 37 19.1926Z" fill="#4BA9FE"/>
<path d="M22.8575 10.3314C23.08 10.4497 23.266 10.6262 23.3957 10.8422C23.5255 11.0581 23.594 11.3052 23.594 11.5571C23.594 11.8091 23.5255 12.0562 23.3957 12.2721C23.266 12.4881 23.08 12.6646 22.8575 12.7829L16.9246 16.0091C15.9693 16.5292 14.7959 15.8531 14.7959 14.7838V8.33091C14.7959 7.26121 15.9693 6.58559 16.9246 7.1047L22.8575 10.3314Z" fill="white"/>
</svg>
