<svg width="63" height="41" viewBox="0 0 63 41" fill="none" xmlns="http://www.w3.org/2000/svg">
<path d="M62.0855 32.205V8.89647C62.0855 5.70599 59.8121 2.9668 56.676 2.37759C40.1102 -0.735457 23.1149 -0.792323 6.52856 2.21183L5.64412 2.37153C2.37621 2.96317 0 5.80884 0 9.12877V31.9812C0 35.1656 2.2649 37.8999 5.39368 38.494L6.28295 38.6622C23.0181 41.8369 40.2058 41.7776 56.918 38.4879C59.9198 37.8975 62.0855 35.2648 62.0855 32.205Z" fill="#4BA9FE"/>
<path d="M38.3555 17.3348C38.7287 17.5333 39.0408 17.8296 39.2585 18.1919C39.4762 18.5542 39.5912 18.9689 39.5912 19.3916C39.5912 19.8143 39.4762 20.2291 39.2585 20.5914C39.0408 20.9537 38.7287 21.25 38.3555 21.4484L28.4001 26.862C26.7971 27.7346 24.8281 26.6002 24.8281 24.806V13.9781C24.8281 12.1831 26.7971 11.0494 28.4001 11.9205L38.3555 17.3348Z" fill="white"/>
</svg>
