<svg width="73" height="73" viewBox="0 0 73 73" fill="none" xmlns="http://www.w3.org/2000/svg">
<g filter="url(#filter0_d_4220_7161)">
<path d="M57.3571 0H15.6429C7.00357 0 0 7.00356 0 15.6429V57.3571C0 65.9964 7.00357 73 15.6429 73H57.3571C65.9964 73 73 65.9964 73 57.3571V15.6429C73 7.00356 65.9964 0 57.3571 0Z" fill="#8C6BFF"/>
<path d="M48.7215 29.3506L29.168 34.239L48.7215 29.3506Z" fill="#8C6BFF"/>
<path d="M48.7215 29.3506L29.168 34.239" stroke="#DFE5F7" stroke-width="2.60714" stroke-linecap="round" stroke-linejoin="round"/>
<path d="M29.168 48.2928V26.906L48.7215 22.0176V43.4044" fill="#8C6BFF"/>
<path d="M29.168 48.2928V26.906L48.7215 22.0176V43.4044" stroke="#DFE5F7" stroke-width="2.60714" stroke-linecap="round" stroke-linejoin="round"/>
<path d="M44.4453 47.6817C46.8076 47.6817 48.7227 45.7667 48.7227 43.4044C48.7227 41.0421 46.8076 39.127 44.4453 39.127C42.083 39.127 40.168 41.0421 40.168 43.4044C40.168 45.7667 42.083 47.6817 44.4453 47.6817Z" fill="#8C6BFF" stroke="#DFE5F7" stroke-width="2.60714" stroke-linecap="round" stroke-linejoin="round"/>
<path d="M24.8906 52.5702C27.2529 52.5702 29.168 50.6552 29.168 48.2929C29.168 45.9306 27.2529 44.0156 24.8906 44.0156C22.5283 44.0156 20.6133 45.9306 20.6133 48.2929C20.6133 50.6552 22.5283 52.5702 24.8906 52.5702Z" fill="#8C6BFF" stroke="#DFE5F7" stroke-width="2.60714" stroke-linecap="round" stroke-linejoin="round"/>
</g>
<defs>
<filter id="filter0_d_4220_7161" x="-51.8" y="-29.8" width="170.6" height="170.6" filterUnits="userSpaceOnUse" color-interpolation-filters="sRGB">
<feFlood flood-opacity="0" result="BackgroundImageFix"/>
<feColorMatrix in="SourceAlpha" type="matrix" values="0 0 0 0 0 0 0 0 0 0 0 0 0 0 0 0 0 0 127 0" result="hardAlpha"/>
<feOffset dx="-3" dy="19"/>
<feGaussianBlur stdDeviation="24.4"/>
<feComposite in2="hardAlpha" operator="out"/>
<feColorMatrix type="matrix" values="0 0 0 0 1 0 0 0 0 1 0 0 0 0 1 0 0 0 0.34 0"/>
<feBlend mode="normal" in2="BackgroundImageFix" result="effect1_dropShadow_4220_7161"/>
<feBlend mode="normal" in="SourceGraphic" in2="effect1_dropShadow_4220_7161" result="shape"/>
</filter>
</defs>
</svg>
