<svg width="13" height="14" viewBox="0 0 13 14" fill="none" xmlns="http://www.w3.org/2000/svg">
<path d="M9.09985 0.317724C9.02395 0.241845 8.92102 0.199219 8.8137 0.199219C8.70637 0.199219 8.60344 0.241845 8.52754 0.317724L7.95522 0.890848C7.87934 0.96675 7.83672 1.06968 7.83672 1.17701C7.83672 1.28433 7.87934 1.38726 7.95522 1.46316L9.92959 3.43753H5.40773C4.01223 3.43753 2.67389 3.99189 1.68712 4.97866C0.700356 5.96542 0.145996 7.30377 0.145996 8.69927C0.145996 10.0948 0.700356 11.4331 1.68712 12.4199C2.67389 13.4066 4.01223 13.961 5.40773 13.961H11.2985L10.8646 12.342H5.40773C4.44162 12.342 3.51507 11.9582 2.83193 11.2751C2.14878 10.5919 1.76499 9.66538 1.76499 8.69927C1.76499 7.73315 2.14878 6.80661 2.83193 6.12346C3.51507 5.44031 4.44162 5.05653 5.40773 5.05653H9.92959L7.95441 7.0317C7.87878 7.10757 7.83631 7.21033 7.83631 7.31745C7.83631 7.42458 7.87878 7.52734 7.95441 7.60321L8.52754 8.17633C8.60344 8.25221 8.70637 8.29484 8.8137 8.29484C8.92102 8.29484 9.02395 8.25221 9.09985 8.17633L12.7426 4.53359C12.7803 4.49599 12.8102 4.45133 12.8306 4.40215C12.851 4.35298 12.8615 4.30027 12.8615 4.24703C12.8615 4.19379 12.851 4.14107 12.8306 4.0919C12.8102 4.04273 12.7803 3.99806 12.7426 3.96046L9.09985 0.317724Z" fill="black"/>
</svg>
