<svg width="20" height="20" viewBox="0 0 20 20" fill="none" xmlns="http://www.w3.org/2000/svg">
<path d="M20 8.5V10C20 14.714 20 17.071 18.535 18.535C17.072 20 14.714 20 10 20C5.286 20 2.929 20 1.464 18.535C0 17.072 0 14.714 0 10C0 8.872 -1.86265e-08 7.878 0.02 7M11.5 0H10C5.286 0 2.929 0 1.464 1.464C1.024 1.905 0.715 2.427 0.5 3.07" stroke="white" stroke-width="1.5" stroke-linecap="round"/>
<path d="M5 12L6.797 9.844C7.509 8.989 7.865 8.562 8.333 8.562C8.802 8.562 9.158 8.989 9.87 9.844L10.13 10.156C10.842 11.011 11.198 11.438 11.667 11.438C12.136 11.438 12.491 11.011 13.203 10.156L15 8" stroke="white" stroke-width="1.5" stroke-linecap="round"/>
<path d="M17 6C18.6569 6 20 4.65685 20 3C20 1.34315 18.6569 0 17 0C15.3431 0 14 1.34315 14 3C14 4.65685 15.3431 6 17 6Z" stroke="white" stroke-width="1.5"/>
</svg>
