<svg width="18" height="18" viewBox="0 0 18 18" fill="none" xmlns="http://www.w3.org/2000/svg">
<path fill-rule="evenodd" clip-rule="evenodd" d="M9.50026 11.6262C9.36743 11.759 9.18729 11.8336 8.99947 11.8336C8.81165 11.8336 8.63151 11.759 8.49868 11.6262L4.49164 7.6192C4.42398 7.55385 4.37002 7.47569 4.3329 7.38927C4.29577 7.30286 4.27623 7.20991 4.27542 7.11586C4.2746 7.0218 4.29252 6.92853 4.32814 6.84148C4.36375 6.75443 4.41635 6.67534 4.48286 6.60883C4.54936 6.54233 4.62845 6.48973 4.7155 6.45411C4.80255 6.4185 4.89583 6.40058 4.98988 6.40139C5.08393 6.40221 5.17688 6.42175 5.2633 6.45887C5.34972 6.496 5.42788 6.54996 5.49322 6.61761L8.99947 10.1239L12.5057 6.61761C12.6393 6.48858 12.8182 6.41719 13.004 6.4188C13.1897 6.42042 13.3673 6.49491 13.4987 6.62624C13.63 6.75757 13.7045 6.93523 13.7061 7.12095C13.7077 7.30668 13.6363 7.4856 13.5073 7.6192L9.50026 11.6262Z" fill="#2358DE"/>
</svg>
