<svg width="56" height="12" viewBox="0 0 56 12" fill="none" xmlns="http://www.w3.org/2000/svg">
<mask id="mask0_4362_4840" style="mask-type:alpha" maskUnits="userSpaceOnUse" x="22" y="0" width="12" height="12">
<rect x="22.6855" width="11.1684" height="11.1684" fill="#D9D9D9"/>
</mask>
<g mask="url(#mask0_4362_4840)">
<path d="M26.9908 10.2376L26.8047 8.74853C26.7038 8.70975 26.6088 8.66321 26.5196 8.60892C26.4304 8.55463 26.3432 8.49646 26.2579 8.43441L24.8735 9.0161L23.5938 6.80569L24.792 5.89826C24.7843 5.84397 24.7804 5.79162 24.7804 5.74121V5.4271C24.7804 5.37668 24.7843 5.32433 24.792 5.27004L23.5938 4.36261L24.8735 2.1522L26.2579 2.73389C26.3432 2.67184 26.4324 2.61368 26.5254 2.55939C26.6185 2.50509 26.7116 2.45856 26.8047 2.41978L26.9908 0.930664H29.5502L29.7364 2.41978C29.8372 2.45856 29.9322 2.50509 30.0214 2.55939C30.1106 2.61368 30.1978 2.67184 30.2831 2.73389L31.6676 2.1522L32.9473 4.36261L31.749 5.27004C31.7567 5.32433 31.7606 5.37668 31.7606 5.4271V5.74121C31.7606 5.79162 31.7529 5.84397 31.7374 5.89826L32.9356 6.80569L31.6559 9.0161L30.2831 8.43441C30.1978 8.49646 30.1086 8.55463 30.0156 8.60892C29.9225 8.66321 29.8294 8.70975 29.7364 8.74853L29.5502 10.2376H26.9908ZM27.8052 9.30694H28.7242L28.8871 8.07377C29.1275 8.01172 29.3505 7.92059 29.556 7.80038C29.7616 7.68016 29.9496 7.53474 30.1203 7.36411L31.272 7.84109L31.7257 7.05L30.7252 6.29381C30.764 6.18523 30.7911 6.07083 30.8067 5.95062C30.8222 5.8304 30.8299 5.70825 30.8299 5.58415C30.8299 5.46006 30.8222 5.33791 30.8067 5.21769C30.7911 5.09748 30.764 4.98308 30.7252 4.8745L31.7257 4.1183L31.272 3.32721L30.1203 3.81583C29.9496 3.63744 29.7616 3.48814 29.556 3.36793C29.3505 3.24771 29.1275 3.15658 28.8871 3.09454L28.7359 1.86136H27.8168L27.6539 3.09454C27.4135 3.15658 27.1905 3.24771 26.985 3.36793C26.7795 3.48814 26.5914 3.63357 26.4207 3.80419L25.269 3.32721L24.8153 4.1183L25.8158 4.86286C25.777 4.9792 25.7499 5.09554 25.7344 5.21187C25.7188 5.32821 25.7111 5.4523 25.7111 5.58415C25.7111 5.70825 25.7188 5.82846 25.7344 5.9448C25.7499 6.06114 25.777 6.17747 25.8158 6.29381L24.8153 7.05L25.269 7.84109L26.4207 7.35248C26.5914 7.53086 26.7795 7.68016 26.985 7.80038C27.1905 7.92059 27.4135 8.01172 27.6539 8.07377L27.8052 9.30694ZM28.2938 7.21287C28.7436 7.21287 29.1275 7.05388 29.4455 6.73589C29.7635 6.4179 29.9225 6.03399 29.9225 5.58415C29.9225 5.13432 29.7635 4.7504 29.4455 4.43241C29.1275 4.11443 28.7436 3.95543 28.2938 3.95543C27.8362 3.95543 27.4503 4.11443 27.1362 4.43241C26.8221 4.7504 26.6651 5.13432 26.6651 5.58415C26.6651 6.03399 26.8221 6.4179 27.1362 6.73589C27.4503 7.05388 27.8362 7.21287 28.2938 7.21287Z" fill="white"/>
</g>
<mask id="mask1_4362_4840" style="mask-type:alpha" maskUnits="userSpaceOnUse" x="0" y="0" width="12" height="12">
<rect x="0.348633" width="11.1684" height="11.1684" fill="#D9D9D9"/>
</mask>
<g mask="url(#mask1_4362_4840)">
<path d="M2.67581 9.7728C2.41987 9.7728 2.20077 9.68167 2.01851 9.4994C1.83625 9.31714 1.74512 9.09804 1.74512 8.8421V2.32722C1.74512 2.07127 1.83625 1.85217 2.01851 1.66991C2.20077 1.48765 2.41987 1.39652 2.67581 1.39652H4.63028C4.73111 1.11731 4.89979 0.89239 5.13635 0.721762C5.3729 0.551134 5.63854 0.46582 5.93326 0.46582C6.22798 0.46582 6.49361 0.551134 6.73017 0.721762C6.96672 0.89239 7.13541 1.11731 7.23623 1.39652H9.1907C9.44664 1.39652 9.66574 1.48765 9.848 1.66991C10.0303 1.85217 10.1214 2.07127 10.1214 2.32722V5.44505C9.97404 5.37525 9.8228 5.31514 9.66768 5.26473C9.51257 5.21432 9.35357 5.17748 9.1907 5.15421V2.32722H2.67581V8.8421H5.49118C5.51444 9.01273 5.55128 9.1756 5.6017 9.33072C5.65211 9.48583 5.71222 9.63319 5.78202 9.7728H2.67581ZM2.67581 8.8421V2.32722V5.15421V5.11931V8.8421ZM3.60651 7.9114H5.50281C5.52608 7.74853 5.56292 7.58954 5.61333 7.43442C5.66374 7.2793 5.71997 7.12806 5.78202 6.9807H3.60651V7.9114ZM3.60651 6.05001H6.44514C6.69333 5.81733 6.9706 5.62344 7.27695 5.46832C7.58331 5.3132 7.91099 5.2085 8.26 5.15421V5.11931H3.60651V6.05001ZM3.60651 4.18861H8.26V3.25791H3.60651V4.18861ZM5.93326 1.9782C6.03408 1.9782 6.11746 1.94524 6.18338 1.87932C6.24931 1.81339 6.28227 1.73002 6.28227 1.62919C6.28227 1.52837 6.24931 1.44499 6.18338 1.37907C6.11746 1.31314 6.03408 1.28018 5.93326 1.28018C5.83243 1.28018 5.74906 1.31314 5.68313 1.37907C5.61721 1.44499 5.58425 1.52837 5.58425 1.62919C5.58425 1.73002 5.61721 1.81339 5.68313 1.87932C5.74906 1.94524 5.83243 1.9782 5.93326 1.9782ZM8.72535 10.7035C8.08162 10.7035 7.53289 10.4766 7.07918 10.0229C6.62546 9.56921 6.39861 9.02048 6.39861 8.37675C6.39861 7.73302 6.62546 7.18429 7.07918 6.73058C7.53289 6.27686 8.08162 6.05001 8.72535 6.05001C9.36908 6.05001 9.91781 6.27686 10.3715 6.73058C10.8252 7.18429 11.0521 7.73302 11.0521 8.37675C11.0521 9.02048 10.8252 9.56921 10.3715 10.0229C9.91781 10.4766 9.36908 10.7035 8.72535 10.7035ZM8.49268 9.7728H8.95802V8.60942H10.1214V8.14408H8.95802V6.9807H8.49268V8.14408H7.3293V8.60942H8.49268V9.7728Z" fill="#F3F3F3"/>
</g>
<mask id="mask2_4362_4840" style="mask-type:alpha" maskUnits="userSpaceOnUse" x="44" y="0" width="12" height="12">
<rect x="44.0918" width="11.1684" height="11.1684" fill="#D9D9D9"/>
</mask>
<g mask="url(#mask2_4362_4840)">
<path d="M46.8834 9.77276V8.37672H45.4873V7.44602H47.814V9.77276H46.8834ZM51.5368 9.77276V7.44602H53.8636V8.37672H52.4675V9.77276H51.5368ZM45.4873 3.72323V2.79253H46.8834V1.39648H47.814V3.72323H45.4873ZM51.5368 3.72323V1.39648H52.4675V2.79253H53.8636V3.72323H51.5368Z" fill="white"/>
</g>
</svg>
