<svg width="8" height="9" viewBox="0 0 8 9" fill="none" xmlns="http://www.w3.org/2000/svg">
<path d="M3.22363 4.60585C3.3953 4.83535 3.61431 5.02524 3.86582 5.16266C4.11733 5.30007 4.39545 5.38178 4.68132 5.40225C4.96718 5.42273 5.25411 5.38148 5.52263 5.28131C5.79116 5.18115 6.035 5.0244 6.23762 4.82171L7.43682 3.62251C7.80089 3.24556 8.00234 2.74069 7.99779 2.21665C7.99323 1.6926 7.78304 1.19131 7.41247 0.820747C7.0419 0.450178 6.54061 0.239981 6.01657 0.235427C5.49252 0.230873 4.98766 0.432327 4.61071 0.7964L3.92317 1.47994" stroke="white" stroke-width="1.06595" stroke-linecap="round" stroke-linejoin="round"/>
<path d="M4.82306 3.8059C4.65139 3.5764 4.43238 3.38651 4.18087 3.2491C3.92936 3.11169 3.65124 3.02997 3.36537 3.0095C3.07951 2.98903 2.79258 3.03027 2.52406 3.13044C2.25553 3.23061 2.01169 3.38735 1.80907 3.59005L0.609877 4.78924C0.245804 5.1662 0.0443499 5.67106 0.0489037 6.19511C0.0534575 6.71915 0.263655 7.22044 0.634223 7.59101C1.00479 7.96158 1.50608 8.17177 2.03012 8.17633C2.55417 8.18088 3.05903 7.97943 3.43599 7.61535L4.11953 6.93181" stroke="white" stroke-width="1.06595" stroke-linecap="round" stroke-linejoin="round"/>
</svg>
