<svg width="23" height="22" viewBox="0 0 23 22" fill="none" xmlns="http://www.w3.org/2000/svg">
<path d="M19.1015 18.6015C18.1044 19.6013 16.9195 20.3941 15.615 20.9345C14.3105 21.4748 12.912 21.7519 11.5 21.75C5.563 21.75 0.75 16.937 0.75 11C0.75 5.06301 5.563 0.25001 11.5 0.25001C12.912 0.248072 14.3105 0.525235 15.615 1.06556C16.9195 1.60589 18.1044 2.39873 19.1015 3.39851" stroke="black" stroke-width="1.4" stroke-linecap="round" stroke-linejoin="round"/>
<path d="M21.4999 6.7947L17.6609 9.0107V7.3252C17.6609 7.05998 17.5555 6.80563 17.368 6.61809C17.1804 6.43055 16.9261 6.3252 16.6609 6.3252H6.33887C6.07365 6.3252 5.8193 6.43055 5.63176 6.61809C5.44422 6.80563 5.33887 7.05998 5.33887 7.3252V14.6752C5.33887 14.9404 5.44422 15.1948 5.63176 15.3823C5.8193 15.5698 6.07365 15.6752 6.33887 15.6752H16.6609C16.9261 15.6752 17.1804 15.5698 17.368 15.3823C17.5555 15.1948 17.6609 14.9404 17.6609 14.6752V12.9902L21.4999 15.2062C21.5759 15.2501 21.6622 15.2732 21.75 15.2732C21.8378 15.2732 21.9241 15.25 22.0001 15.2061C22.0761 15.1621 22.1392 15.0989 22.1831 15.0229C22.2269 14.9468 22.25 14.8605 22.2499 14.7727V7.2277C22.2499 7.13993 22.2268 7.05371 22.1829 6.9777C22.139 6.90169 22.0759 6.83858 21.9999 6.79469C21.9239 6.75081 21.8376 6.72771 21.7499 6.72771C21.6621 6.72771 21.5759 6.75081 21.4999 6.7947Z" stroke="black" stroke-width="1.4" stroke-linecap="round" stroke-linejoin="round"/>
<path d="M11.5 12.5C12.3284 12.5 13 11.8284 13 11C13 10.1716 12.3284 9.5 11.5 9.5C10.6716 9.5 10 10.1716 10 11C10 11.8284 10.6716 12.5 11.5 12.5Z" stroke="black" stroke-width="1.4" stroke-linecap="round" stroke-linejoin="round"/>
</svg>
