<svg width="13" height="14" viewBox="0 0 13 14" fill="none" xmlns="http://www.w3.org/2000/svg">
<path d="M3.93678 0.317724C4.01268 0.241845 4.11561 0.199219 4.22294 0.199219C4.33026 0.199219 4.43319 0.241845 4.50909 0.317724L5.08141 0.890848C5.15729 0.96675 5.19991 1.06968 5.19991 1.17701C5.19991 1.28433 5.15729 1.38726 5.08141 1.46316L3.10623 3.43753H7.62809C9.02359 3.43753 10.3619 3.99189 11.3487 4.97866C12.3355 5.96542 12.8898 7.30377 12.8898 8.69927C12.8898 10.0948 12.3355 11.4331 11.3487 12.4199C10.3619 13.4066 9.02359 13.961 7.62809 13.961H1.73818L2.17126 12.342H7.62809C8.5942 12.342 9.52075 11.9582 10.2039 11.2751C10.887 10.5919 11.2708 9.66538 11.2708 8.69927C11.2708 7.73315 10.887 6.80661 10.2039 6.12346C9.52075 5.44031 8.5942 5.05653 7.62809 5.05653H3.10623L5.08141 7.0317C5.15704 7.10757 5.19951 7.21033 5.19951 7.31745C5.19951 7.42458 5.15704 7.52734 5.08141 7.60321L4.50909 8.17633C4.4715 8.21402 4.42683 8.24393 4.37766 8.26433C4.32848 8.28474 4.27577 8.29524 4.22253 8.29524C4.16929 8.29524 4.11658 8.28474 4.0674 8.26433C4.01823 8.24393 3.97357 8.21402 3.93597 8.17633L0.293227 4.53359C0.255534 4.49599 0.225629 4.45133 0.205224 4.40215C0.18482 4.35298 0.174316 4.30027 0.174316 4.24703C0.174316 4.19379 0.18482 4.14107 0.205224 4.0919C0.225629 4.04273 0.255534 3.99806 0.293227 3.96046L3.93678 0.317724Z" fill="black"/>
</svg>
