<svg width="12" height="7" viewBox="0 0 12 7" fill="none" xmlns="http://www.w3.org/2000/svg">
<path d="M5.29441 6.56456C5.34705 6.61733 5.40958 6.6592 5.47842 6.68777C5.54727 6.71633 5.62107 6.73104 5.6956 6.73104C5.77014 6.73104 5.84394 6.71633 5.91278 6.68777C5.98162 6.6592 6.04415 6.61733 6.09679 6.56456L10.996 1.66419C11.049 1.61108 11.0787 1.53915 11.0787 1.46416C11.0787 1.38917 11.049 1.31724 10.996 1.26413L10.5948 0.862944C10.5417 0.810002 10.4698 0.780273 10.3948 0.780273C10.3198 0.780273 10.2479 0.810002 10.1948 0.862944L5.6956 5.36213L1.19641 0.862944C1.1433 0.810002 1.07137 0.780273 0.996385 0.780273C0.921396 0.780273 0.849466 0.810002 0.796358 0.862944L0.395171 1.26413C0.342229 1.31724 0.3125 1.38917 0.3125 1.46416C0.3125 1.53915 0.342229 1.61108 0.395171 1.66419L5.29441 6.56456Z" fill="black"/>
</svg>
