<svg width="66" height="67" viewBox="0 0 66 67" fill="none" xmlns="http://www.w3.org/2000/svg">
<g filter="url(#filter0_d_4220_6908)">
<path d="M61.8805 0H3.85884C1.72766 0 0 1.72766 0 3.85884V62.4193C0 64.5505 1.72766 66.2781 3.85884 66.2781H61.8805C64.0117 66.2781 65.7393 64.5505 65.7393 62.4193V3.85884C65.7393 1.72766 64.0117 0 61.8805 0Z" fill="#4BFEB0"/>
<path d="M32.8697 15.7026C26.6026 15.7026 24.0957 21.343 24.0957 21.343C24.0957 21.343 26.6026 26.9834 32.8697 26.9834C39.1368 26.9834 41.6437 21.343 41.6437 21.343C41.6437 21.343 39.1368 15.7026 32.8697 15.7026Z" stroke="black" stroke-width="1.17969" stroke-linecap="round" stroke-linejoin="round"/>
<path d="M32.8698 24.4771C34.6004 24.4771 36.0034 23.0741 36.0034 21.3435C36.0034 19.6129 34.6004 18.21 32.8698 18.21C31.1392 18.21 29.7363 19.6129 29.7363 21.3435C29.7363 23.0741 31.1392 24.4771 32.8698 24.4771Z" stroke="black" stroke-width="1.17969" stroke-linecap="round" stroke-linejoin="round"/>
<path d="M13.375 44.3772V43.3666L16.352 38.6629H17.1948V40.1018H16.6809L14.6768 43.2775V43.3323H18.8324V44.3772H13.375ZM16.722 45.679V44.0689L16.7358 43.6166V38.6629H17.9348V45.679H16.722ZM22.4209 45.775C21.9116 45.775 21.4594 45.6893 21.0643 45.518C20.6715 45.3467 20.3631 45.1126 20.1393 44.8157C19.9177 44.5165 19.8081 44.1774 19.8104 43.7982C19.8081 43.5036 19.8721 43.233 20.0022 42.9864C20.1324 42.7396 20.3083 42.5341 20.5298 42.3697C20.7536 42.2029 21.0026 42.0967 21.2767 42.0511V42.0031C20.9158 41.9232 20.6235 41.7393 20.3997 41.4515C20.1781 41.1615 20.0685 40.8269 20.0708 40.4478C20.0685 40.0869 20.169 39.7649 20.3722 39.4817C20.5755 39.1985 20.8541 38.9758 21.2082 38.8137C21.5621 38.6493 21.9664 38.567 22.4209 38.567C22.8708 38.567 23.2716 38.6493 23.6233 38.8137C23.9774 38.9758 24.2559 39.1985 24.4592 39.4817C24.6648 39.7649 24.7676 40.0869 24.7676 40.4478C24.7676 40.8269 24.6545 41.1615 24.4284 41.4515C24.2046 41.7393 23.9157 41.9232 23.5617 42.0031V42.0511C23.8357 42.0967 24.0824 42.2029 24.3016 42.3697C24.5232 42.5341 24.6991 42.7396 24.8292 42.9864C24.9617 43.233 25.0279 43.5036 25.0279 43.7982C25.0279 44.1774 24.916 44.5165 24.6922 44.8157C24.4684 45.1126 24.1601 45.3467 23.7672 45.518C23.3767 45.6893 22.9279 45.775 22.4209 45.775ZM22.4209 44.7951C22.6835 44.7951 22.9119 44.7507 23.106 44.6616C23.3001 44.5702 23.4509 44.4423 23.5583 44.2778C23.6656 44.1134 23.7204 43.9239 23.7227 43.7092C23.7204 43.4854 23.6622 43.2878 23.548 43.1165C23.436 42.9429 23.2819 42.807 23.0855 42.7088C22.8913 42.6106 22.6699 42.5615 22.4209 42.5615C22.1696 42.5615 21.9458 42.6106 21.7494 42.7088C21.553 42.807 21.3977 42.9429 21.2835 43.1165C21.1716 43.2878 21.1168 43.4854 21.1191 43.7092C21.1168 43.9239 21.1693 44.1134 21.2767 44.2778C21.384 44.44 21.5347 44.5668 21.7288 44.6581C21.9252 44.7495 22.156 44.7951 22.4209 44.7951ZM22.4209 41.5988C22.6355 41.5988 22.8252 41.5555 22.9896 41.4687C23.1563 41.3819 23.2876 41.2609 23.3835 41.1056C23.4795 40.9503 23.5286 40.7709 23.5308 40.5677C23.5286 40.3667 23.4806 40.1909 23.3869 40.0401C23.2934 39.8871 23.1631 39.7695 22.9964 39.6872C22.8297 39.6028 22.6378 39.5605 22.4209 39.5605C22.1993 39.5605 22.0041 39.6028 21.8351 39.6872C21.6683 39.7695 21.5382 39.8871 21.4445 40.0401C21.3532 40.1909 21.3086 40.3667 21.3109 40.5677C21.3086 40.7709 21.3543 40.9503 21.4479 41.1056C21.5439 41.2586 21.6752 41.3796 21.8419 41.4687C22.0109 41.5555 22.2039 41.5988 22.4209 41.5988ZM28.6721 45.775C28.1788 45.775 27.7403 45.6904 27.3566 45.5215C26.9752 45.3524 26.6737 45.1172 26.4522 44.8157C26.2307 44.5142 26.1131 44.166 26.0993 43.7708H27.3874C27.3989 43.9604 27.4617 44.126 27.5759 44.2676C27.69 44.4069 27.842 44.5154 28.0315 44.593C28.2211 44.6707 28.4335 44.7095 28.6687 44.7095C28.9199 44.7095 29.1426 44.6661 29.3367 44.5793C29.5309 44.4903 29.6828 44.3669 29.7924 44.2093C29.902 44.0518 29.9557 43.8701 29.9534 43.6646C29.9557 43.4522 29.9009 43.2649 29.789 43.1028C29.677 42.9406 29.5149 42.8139 29.3025 42.7226C29.0924 42.6312 28.8388 42.5855 28.542 42.5855H27.9219V41.6057H28.542C28.7864 41.6057 28.9999 41.5635 29.1826 41.479C29.3675 41.3944 29.5126 41.2757 29.6177 41.1227C29.7227 40.9674 29.7741 40.7881 29.7718 40.5848C29.7741 40.3861 29.7296 40.2137 29.6382 40.0675C29.5491 39.9191 29.4224 39.8037 29.2579 39.7215C29.0958 39.6393 28.9051 39.5982 28.6858 39.5982C28.4711 39.5982 28.2725 39.637 28.0897 39.7147C27.9071 39.7923 27.7597 39.9031 27.6478 40.0469C27.5359 40.1886 27.4765 40.3576 27.4697 40.554H26.2466C26.2558 40.1612 26.3689 39.8163 26.5858 39.5194C26.8051 39.2202 27.0974 38.9873 27.4628 38.8205C27.8282 38.6515 28.2382 38.567 28.6927 38.567C29.1609 38.567 29.5674 38.6549 29.9123 38.8308C30.2594 39.0044 30.5278 39.2384 30.7174 39.5331C30.9069 39.8277 31.0017 40.1532 31.0017 40.5095C31.004 40.9045 30.8875 41.2357 30.6522 41.503C30.4193 41.7702 30.1133 41.9449 29.7341 42.0271V42.0819C30.2275 42.1504 30.6054 42.3332 30.8681 42.63C31.133 42.9246 31.2643 43.2912 31.2621 43.7297C31.2621 44.1225 31.1501 44.4742 30.9263 44.7849C30.7048 45.0932 30.3987 45.3353 30.0082 45.5112C29.6199 45.687 29.1746 45.775 28.6721 45.775ZM33.7004 44.7198L33.6559 45.0966C33.6239 45.3844 33.5668 45.6768 33.4845 45.9736C33.4046 46.2728 33.3201 46.548 33.231 46.7993C33.1419 47.0505 33.07 47.2481 33.0152 47.3919H32.1793C32.2113 47.2526 32.2547 47.0631 32.3095 46.8232C32.3666 46.5835 32.4214 46.3139 32.474 46.0147C32.5265 45.7156 32.5619 45.4118 32.5802 45.1035L32.6041 44.7198H33.7004ZM37.3959 45.8126C36.8318 45.8126 36.3477 45.6699 35.9434 45.3844C35.5415 45.0966 35.232 44.6821 35.015 44.1408C34.8003 43.5972 34.693 42.9429 34.693 42.1779C34.6953 41.4127 34.8038 40.7618 35.0184 40.2251C35.2355 39.6861 35.5449 39.275 35.9469 38.9918C36.3511 38.7086 36.8342 38.567 37.3959 38.567C37.9578 38.567 38.4408 38.7086 38.8451 38.9918C39.2493 39.275 39.5588 39.6861 39.7735 40.2251C39.9904 40.7641 40.0989 41.415 40.0989 42.1779C40.0989 42.9452 39.9904 43.6007 39.7735 44.1442C39.5588 44.6855 39.2493 45.0989 38.8451 45.3844C38.4432 45.6699 37.9601 45.8126 37.3959 45.8126ZM37.3959 44.7404C37.8345 44.7404 38.1805 44.5245 38.434 44.0928C38.6898 43.659 38.8177 43.0206 38.8177 42.1779C38.8177 41.6206 38.7594 41.1524 38.643 40.7733C38.5265 40.3941 38.362 40.1086 38.1497 39.9168C37.9373 39.7227 37.686 39.6256 37.3959 39.6256C36.9598 39.6256 36.6149 39.8425 36.3614 40.2765C36.1079 40.7081 35.98 41.3419 35.9777 42.1779C35.9754 42.7374 36.0313 43.2078 36.1456 43.5893C36.262 43.9707 36.4265 44.2584 36.6389 44.4526C36.8512 44.6444 37.1036 44.7404 37.3959 44.7404ZM41.2372 45.679V44.7609L43.6729 42.3731C43.9059 42.1379 44.1 41.9289 44.2553 41.7462C44.4106 41.5635 44.5271 41.3865 44.6048 41.2152C44.6824 41.0439 44.7212 40.8612 44.7212 40.6671C44.7212 40.4455 44.671 40.256 44.5705 40.0984C44.47 39.9385 44.3318 39.8151 44.156 39.7284C43.9801 39.6416 43.7802 39.5982 43.5564 39.5982C43.3258 39.5982 43.1237 39.6461 42.9501 39.7421C42.7765 39.8357 42.6418 39.9693 42.5459 40.1429C42.4522 40.3165 42.4053 40.5232 42.4053 40.763H41.196C41.196 40.3176 41.2977 39.9305 41.501 39.6016C41.7042 39.2728 41.984 39.0181 42.3403 38.8376C42.6988 38.6573 43.11 38.567 43.5736 38.567C44.044 38.567 44.4575 38.6549 44.8137 38.8308C45.17 39.0067 45.4463 39.2476 45.6427 39.5537C45.8415 39.8597 45.9408 40.2091 45.9408 40.6019C45.9408 40.8646 45.8906 41.1227 45.7901 41.3762C45.6896 41.6297 45.5126 41.9106 45.2591 42.2189C45.0078 42.5273 44.655 42.9007 44.2005 43.3392L42.9912 44.569V44.617H46.047V45.679H41.2372ZM49.6647 38.567C50.0004 38.5693 50.327 38.6287 50.6444 38.7452C50.9642 38.8593 51.252 39.0467 51.5078 39.307C51.7636 39.5651 51.9668 39.9111 52.1175 40.345C52.2683 40.7789 52.3437 41.3156 52.3437 41.9552C52.346 42.5581 52.282 43.0971 52.1518 43.5722C52.0239 44.0449 51.8401 44.4446 51.6002 44.7712C51.3605 45.0977 51.0715 45.3467 50.7335 45.518C50.3955 45.6893 50.0153 45.775 49.5927 45.775C49.1497 45.775 48.7569 45.6882 48.4143 45.5146C48.074 45.341 47.7987 45.1035 47.5886 44.802C47.3785 44.5005 47.2495 44.1557 47.2015 43.7674H48.4519C48.5159 44.046 48.646 44.2676 48.8425 44.432C49.0412 44.5942 49.2913 44.6753 49.5927 44.6753C50.0792 44.6753 50.4538 44.464 50.7164 44.0415C50.9791 43.619 51.1104 43.032 51.1104 42.2806H51.0624C50.9505 42.4816 50.8055 42.6552 50.6273 42.8014C50.4492 42.9452 50.2471 43.056 50.0209 43.1337C49.7971 43.2113 49.5596 43.2501 49.3084 43.2501C48.8973 43.2501 48.5273 43.1519 48.1984 42.9555C47.8718 42.7591 47.6126 42.4896 47.4208 42.147C47.2312 41.8044 47.1353 41.4127 47.133 40.9719C47.133 40.5151 47.2381 40.1052 47.4482 39.7421C47.6606 39.3766 47.9564 39.0889 48.3355 38.8788C48.7146 38.6664 49.1577 38.5625 49.6647 38.567ZM49.6681 39.5948C49.4215 39.5948 49.1988 39.6553 49.0001 39.7763C48.8037 39.8951 48.6484 40.0572 48.5342 40.2628C48.4222 40.466 48.3663 40.6933 48.3663 40.9445C48.3686 41.1935 48.4246 41.4196 48.5342 41.6229C48.646 41.8261 48.798 41.9871 48.9898 42.1059C49.1839 42.2247 49.4054 42.2841 49.6544 42.2841C49.8394 42.2841 50.0118 42.2486 50.1717 42.1779C50.3316 42.107 50.4709 42.0088 50.5897 41.8832C50.7107 41.7553 50.8044 41.6103 50.8706 41.4481C50.9391 41.2859 50.9722 41.1147 50.9699 40.9342C50.9699 40.6945 50.9128 40.4729 50.7986 40.2696C50.6867 40.0664 50.5326 39.9031 50.3362 39.7798C50.142 39.6564 49.9193 39.5948 49.6681 39.5948ZM23.0969 49.338L24.613 53.7745H24.6741L26.1902 49.338H27.0786L25.1183 54.7852H24.1688L22.2085 49.338H23.0969ZM27.8014 54.7852V50.6998H28.5967V54.7852H27.8014ZM28.203 50.0695C28.0647 50.0695 27.9459 50.0233 27.8466 49.9311C27.7491 49.8371 27.7003 49.7254 27.7003 49.596C27.7003 49.4647 27.7491 49.3531 27.8466 49.2608C27.9459 49.1669 28.0647 49.1199 28.203 49.1199C28.3413 49.1199 28.4592 49.1669 28.5567 49.2608C28.6561 49.3531 28.7057 49.4647 28.7057 49.596C28.7057 49.7254 28.6561 49.8371 28.5567 49.9311C28.4592 50.0233 28.3413 50.0695 28.203 50.0695ZM31.4274 54.8677C31.0248 54.8677 30.6781 54.7817 30.3874 54.6097C30.0984 54.4359 29.8749 54.1921 29.7171 53.8782C29.5611 53.5626 29.4831 53.1929 29.4831 52.7691C29.4831 52.3506 29.5611 51.9818 29.7171 51.6626C29.8749 51.3435 30.0948 51.0943 30.3767 50.9152C30.6604 50.7362 30.992 50.6466 31.3715 50.6466C31.602 50.6466 31.8255 50.6847 32.0418 50.761C32.2581 50.8372 32.4522 50.9569 32.6243 51.12C32.7962 51.2832 32.9319 51.4951 33.0312 51.7557C33.1305 52.0146 33.1801 52.3293 33.1801 52.7V52.9819H29.9326V52.3861H32.4008C32.4008 52.1768 32.3582 51.9916 32.2731 51.8302C32.188 51.6671 32.0684 51.5385 31.9141 51.4446C31.7616 51.3506 31.5825 51.3036 31.3768 51.3036C31.1534 51.3036 30.9583 51.3585 30.7916 51.4684C30.6267 51.5767 30.4991 51.7185 30.4087 51.8941C30.32 52.0678 30.2757 52.2566 30.2757 52.4606V52.926C30.2757 53.1991 30.3236 53.4314 30.4193 53.6229C30.5168 53.8144 30.6524 53.9607 30.8262 54.0618C31 54.1611 31.203 54.2107 31.4353 54.2107C31.586 54.2107 31.7235 54.1895 31.8476 54.1469C31.9717 54.1025 32.079 54.037 32.1694 53.95C32.2599 53.8632 32.329 53.7559 32.3769 53.6282L33.1296 53.7638C33.0693 53.9855 32.9611 54.1797 32.8051 54.3464C32.6508 54.5113 32.4567 54.6399 32.2226 54.732C31.9904 54.8225 31.7252 54.8677 31.4274 54.8677ZM34.9409 54.7852L33.7387 50.6998H34.5605L35.3612 53.7H35.401L36.2044 50.6998H37.0262L37.8241 53.6867H37.8641L38.6593 50.6998H39.4812L38.2816 54.7852H37.4704L36.6405 51.8355H36.5794L35.7495 54.7852H34.9409ZM43.2973 51.6972L42.5765 51.8248C42.5463 51.7327 42.4985 51.6449 42.4329 51.5615C42.3691 51.4783 42.2822 51.41 42.1722 51.3568C42.0623 51.3036 41.9249 51.2769 41.76 51.2769C41.5348 51.2769 41.3468 51.3275 41.1961 51.4286C41.0454 51.5278 40.97 51.6565 40.97 51.8143C40.97 51.9508 41.0206 52.0607 41.1216 52.1441C41.2227 52.2274 41.3858 52.2956 41.611 52.3489L42.26 52.4978C42.6359 52.5847 42.9161 52.7186 43.1005 52.8995C43.2849 53.0803 43.3771 53.3153 43.3771 53.6043C43.3771 53.8489 43.3062 54.0671 43.1643 54.2586C43.0243 54.4484 42.8283 54.5973 42.5765 54.7054C42.3265 54.8136 42.0366 54.8677 41.7068 54.8677C41.2493 54.8677 40.8761 54.7701 40.587 54.5751C40.298 54.3783 40.1207 54.099 40.055 53.7373L40.8237 53.6202C40.8716 53.8206 40.97 53.9722 41.119 54.0751C41.2679 54.1761 41.4621 54.2266 41.7014 54.2266C41.9621 54.2266 42.1705 54.1726 42.3265 54.0644C42.4825 53.9545 42.5606 53.8206 42.5606 53.6628C42.5606 53.5351 42.5127 53.4278 42.417 53.341C42.323 53.2541 42.1785 53.1885 41.9834 53.1441L41.2919 52.9925C40.9106 52.9056 40.6286 52.7673 40.446 52.5776C40.2652 52.3879 40.1747 52.1476 40.1747 51.8568C40.1747 51.6156 40.2421 51.4046 40.3769 51.2238C40.5117 51.0429 40.6979 50.902 40.9355 50.8009C41.1731 50.698 41.4452 50.6466 41.752 50.6466C42.1935 50.6466 42.541 50.7423 42.7946 50.9338C43.0482 51.1236 43.2157 51.378 43.2973 51.6972Z" fill="black"/>
</g>
<defs>
<filter id="filter0_d_4220_6908" x="-12.7487" y="-19.7535" width="136.067" height="136.606" filterUnits="userSpaceOnUse" color-interpolation-filters="sRGB">
<feFlood flood-opacity="0" result="BackgroundImageFix"/>
<feColorMatrix in="SourceAlpha" type="matrix" values="0 0 0 0 0 0 0 0 0 0 0 0 0 0 0 0 0 0 127 0" result="hardAlpha"/>
<feOffset dx="22.4153" dy="15.4105"/>
<feGaussianBlur stdDeviation="17.582"/>
<feComposite in2="hardAlpha" operator="out"/>
<feColorMatrix type="matrix" values="0 0 0 0 0 0 0 0 0 0 0 0 0 0 0 0 0 0 0.3 0"/>
<feBlend mode="normal" in2="BackgroundImageFix" result="effect1_dropShadow_4220_6908"/>
<feBlend mode="normal" in="SourceGraphic" in2="effect1_dropShadow_4220_6908" result="shape"/>
</filter>
</defs>
</svg>
