<svg width="48" height="31" viewBox="0 0 48 31" fill="none" xmlns="http://www.w3.org/2000/svg">
<path fill-rule="evenodd" clip-rule="evenodd" d="M24.3429 26.1749L47.8011 11.4346V15.4166L24.3429 30.1568L0.884766 15.4166V11.4346L24.3429 26.1749ZM24.3429 7.73212C29.6489 7.73212 34.2568 10.4566 36.9796 14.5783L33.5586 16.7439C28.3922 9.75803 18.8275 8.57043 12.2648 14.0893C12.0553 14.229 11.9157 14.4386 11.7062 14.5783C14.4291 10.4566 19.0369 7.73212 24.3429 7.73212ZM24.3429 14.5084C27.2054 14.5084 29.7886 15.9755 31.3245 18.1411L27.9733 20.2369C26.4374 18.0712 24.1335 16.7439 21.6201 16.7439C20.0841 16.7439 18.618 17.2329 17.4311 18.1411C18.9671 15.9056 21.4805 14.5084 24.3429 14.5084ZM8.4947 8.57043C7.65691 9.26902 6.67949 10.1772 5.98133 10.9456C9.89102 4.86791 16.733 0.955811 24.3429 0.955811C32.0227 0.955811 38.7948 4.93777 42.7045 10.9456L39.1439 13.1811L39.0741 13.1113C31.8132 2.91186 18.1293 0.885951 8.4947 8.57043Z" fill="#F7991C"/>
</svg>
