<svg width="13" height="16" viewBox="0 0 13 16" fill="none" xmlns="http://www.w3.org/2000/svg">
<path d="M3.97387 9.25523L2.77859 8.18854C2.71233 8.12966 2.64008 8.07788 2.56303 8.03404L2.5214 8.00999C1.56666 7.46416 0.423184 8.33009 0.689624 9.3977C0.73033 9.55868 0.802491 9.7104 0.902406 9.84362L3.06446 12.7254L3.18103 12.8892C4.3393 14.511 6.08319 15.8561 8.07502 15.8561C10.7737 15.8561 12.8552 13.905 12.8552 10.7984V5.15408C12.8552 4.85965 12.7383 4.57727 12.5301 4.36907C12.3219 4.16088 12.0395 4.04391 11.7451 4.04391C11.4506 4.04391 11.1682 4.16088 10.96 4.36907C10.7519 4.57727 10.6349 4.85965 10.6349 5.15408V7.32816V2.93374C10.6349 2.63931 10.5179 2.35693 10.3097 2.14874C10.1015 1.94054 9.81915 1.82357 9.52472 1.82357C9.23028 1.82357 8.94791 1.94054 8.73971 2.14874C8.53151 2.35693 8.41455 2.63931 8.41455 2.93374V7.32816V1.88556C8.41455 1.59112 8.29759 1.30875 8.08939 1.10055C7.88119 0.892355 7.59881 0.775391 7.30438 0.775391C7.00994 0.775391 6.72757 0.892355 6.51937 1.10055C6.31118 1.30875 6.19421 1.59112 6.19421 1.88556V7.32816V2.96427C6.19421 2.66984 6.07725 2.38746 5.86905 2.17927C5.66085 1.97107 5.37848 1.8541 5.08404 1.8541C4.78961 1.8541 4.50723 1.97107 4.29903 2.17927C4.09084 2.38746 3.97387 2.66984 3.97387 2.96427V9.25523Z" stroke="black" stroke-width="1.38771" stroke-miterlimit="10" stroke-linecap="round" stroke-linejoin="round"/>
</svg>
