<svg width="53" height="36" viewBox="0 0 53 36" fill="none" xmlns="http://www.w3.org/2000/svg">
<path d="M0 29.9888H0.499551V31.9658H3.06867V29.9888H3.56822V34.443H3.06867V32.4422H0.499551V34.443H0V29.9888Z" fill="#231F20"/>
<path d="M4.35303 33.4903C4.35303 32.7757 4.92394 32.4184 5.75653 32.4184C6.08956 32.4184 6.44638 32.4661 6.77942 32.5613V32.4422C6.77942 31.8467 6.4226 31.5371 5.8041 31.5371C5.44728 31.5371 5.11425 31.6324 4.805 31.7753L4.66227 31.3704C5.04288 31.1798 5.44728 31.0845 5.85168 31.0845C6.23229 31.0607 6.6129 31.1798 6.92215 31.4418C7.16003 31.7038 7.27897 32.0611 7.25518 32.3946V34.4193H6.77942V33.919C6.49396 34.3002 6.04199 34.4907 5.59001 34.4907C4.94773 34.586 4.4006 34.1334 4.35303 33.4903ZM6.77942 33.2283V32.9186C6.47017 32.8233 6.13714 32.7757 5.8041 32.7757C5.18561 32.7757 4.85258 33.0377 4.85258 33.4665V33.4903C4.85258 33.8952 5.23319 34.1572 5.68516 34.1572C6.23229 34.2049 6.73184 33.7999 6.77942 33.2283Z" fill="#231F20"/>
<path d="M8.04053 31.1559H8.54008V31.8229C8.80175 31.3703 9.27751 31.0845 9.80085 31.0845C10.7048 31.1083 11.4422 31.8705 11.3709 32.7995C11.4184 33.7046 10.7048 34.4907 9.80085 34.5145C9.27751 34.5145 8.80175 34.2525 8.54008 33.8237V35.4673H8.04053V31.1559ZM10.8475 32.8233C10.8951 32.1325 10.3718 31.537 9.68191 31.537C8.99205 31.5609 8.46871 32.1325 8.4925 32.7995V32.8233C8.46871 33.5141 8.99205 34.0857 9.68191 34.1095C10.3718 34.0857 10.9189 33.4902 10.8475 32.8233Z" fill="#231F20"/>
<path d="M12.0132 31.1559H12.5127V31.8229C12.7744 31.3703 13.2502 31.0845 13.7735 31.0845C14.6775 31.1083 15.4149 31.8705 15.3435 32.7995C15.3911 33.7046 14.6775 34.4907 13.7735 34.5145C13.2502 34.5145 12.7744 34.2525 12.5127 33.8237V35.4673H12.0132V31.1559ZM14.8202 32.8233C14.8678 32.1325 14.3444 31.537 13.6546 31.537C12.9647 31.5609 12.4414 32.1325 12.4652 32.7995V32.8233C12.4414 33.5141 12.9647 34.0857 13.6546 34.1095C14.3444 34.0857 14.8915 33.4902 14.8202 32.8233Z" fill="#231F20"/>
<path d="M18.3882 31.1558H18.9115L17.5318 34.562C17.2464 35.2527 16.9371 35.4909 16.4376 35.4909C16.1997 35.4909 15.9618 35.4433 15.7477 35.3242L15.9142 34.9431C16.0807 35.0383 16.2473 35.0622 16.4376 35.0622C16.723 35.0622 16.9133 34.9192 17.1036 34.4429L15.605 31.1558H16.1521L17.3415 33.895L18.3882 31.1558Z" fill="#231F20"/>
<path d="M21.0762 33.7999L21.3854 33.4426C21.7898 33.8475 22.3369 34.0857 22.9079 34.0619C23.5026 34.0619 23.907 33.7523 23.907 33.2997C23.907 32.8948 23.6929 32.6566 22.7413 32.4422C21.7185 32.2278 21.2427 31.8943 21.2427 31.1559V31.1321C21.2427 30.4175 21.8612 29.9173 22.7176 29.9173C23.2885 29.8935 23.8594 30.1079 24.2876 30.4652L24.0021 30.8463C23.6453 30.5366 23.1933 30.3699 22.7176 30.3699C22.1466 30.3699 21.766 30.6796 21.766 31.0845V31.1083C21.766 31.5371 22.0039 31.7752 22.9792 31.9658C23.9783 32.1802 24.4303 32.5375 24.4303 33.2282V33.2521C24.4303 34.0143 23.788 34.5145 22.9079 34.5145C22.218 34.5145 21.5519 34.2763 21.0762 33.7999Z" fill="#231F20"/>
<path d="M25.2869 33.5853V31.5844H24.835V31.1557H25.2869V30.1553H25.7865V31.1557H26.8332V31.5844H25.7865V33.5138C25.7389 33.8473 26.0244 34.1093 26.3336 34.0617C26.5001 34.0617 26.6666 34.014 26.8094 33.9426V34.3713C26.6191 34.4666 26.4288 34.5142 26.2147 34.5142C25.6913 34.5619 25.2394 34.1093 25.2869 33.5853Z" fill="#231F20"/>
<path d="M27.4754 31.1559H27.975V32.0134C28.1891 31.4656 28.7124 31.0845 29.3071 31.0845V31.6085H29.2596C28.5459 31.6085 27.9512 32.1325 27.9512 33.1091V34.4192H27.4517V31.1559H27.4754Z" fill="#231F20"/>
<path d="M29.5926 32.8233C29.545 31.8943 30.2586 31.1083 31.1626 31.0845C32.1379 31.0845 32.7088 31.8705 32.7088 32.8233C32.7088 32.8709 32.7088 32.9186 32.7088 32.99H30.0921C30.1159 33.6093 30.6393 34.1095 31.2577 34.1095C31.6621 34.1095 32.0428 33.9428 32.3044 33.6332L32.6137 33.919C32.2806 34.3239 31.7811 34.5621 31.2577 34.5383C30.3062 34.5383 29.5688 33.7523 29.5926 32.8233ZM32.2331 32.6089C32.2569 32.0134 31.7811 31.5132 31.1864 31.4894C30.5917 31.5132 30.1159 32.0134 30.1159 32.6089H32.2331Z" fill="#231F20"/>
<path d="M33.1846 33.4903C33.1846 32.7757 33.7555 32.4184 34.5881 32.4184C34.9211 32.4184 35.2779 32.4661 35.611 32.5613V32.4422C35.611 31.8467 35.2541 31.5371 34.6356 31.5371C34.2788 31.5371 33.9458 31.6324 33.6365 31.7753L33.4938 31.3704C33.8744 31.1798 34.2788 31.0845 34.6832 31.0845C35.0638 31.0607 35.4444 31.1798 35.7537 31.4418C35.9916 31.7038 36.1105 32.0611 36.0867 32.3946V34.4193H35.611V33.919C35.3255 34.3002 34.8735 34.4907 34.4216 34.4907C33.7793 34.586 33.2321 34.1334 33.1846 33.4903ZM35.611 33.2283V32.9186C35.3017 32.8233 34.9687 32.7757 34.6356 32.7757C34.0172 32.7757 33.6841 33.0377 33.6841 33.4665V33.4903C33.6841 33.8952 34.0647 34.1572 34.5167 34.1572C35.0638 34.2049 35.5634 33.7999 35.611 33.2283Z" fill="#231F20"/>
<path d="M36.8716 31.156H37.3711V31.7038C37.5852 31.3227 37.9896 31.0845 38.4416 31.0845C38.8936 31.0607 39.3218 31.3227 39.5121 31.7515C39.7499 31.3465 40.2019 31.0845 40.6777 31.0845C41.4151 31.0607 41.986 31.68 41.8909 32.4184V34.4669H41.3913V32.5375C41.3913 31.8944 41.0821 31.5371 40.535 31.5371C39.9878 31.5371 39.5834 32.0135 39.631 32.5613V34.4669H39.1315V32.5375C39.1315 31.9182 38.7984 31.5609 38.2751 31.5609C37.728 31.5847 37.2998 32.0611 37.3473 32.609V34.4907H36.8716V31.156Z" fill="#231F20"/>
<path d="M42.6523 29.8936H43.2233V30.4414H42.6523V29.8936ZM42.6999 31.156H43.1995V34.4669H42.6999V31.156Z" fill="#231F20"/>
<path d="M44.0083 31.156H44.5079V31.7276C44.7219 31.3227 45.1739 31.0607 45.6259 31.0845C46.3633 31.0369 46.958 31.68 46.8867 32.3946V34.4431H46.3871V32.5137C46.4585 31.9658 46.0303 31.4895 45.4832 31.5133C44.9122 31.5133 44.4603 31.9897 44.5079 32.5375V34.4193H44.0083V31.156Z" fill="#231F20"/>
<path d="M47.6715 35.0147L47.8856 34.6336C48.2424 34.9194 48.6944 35.0623 49.1464 35.0623C49.8362 35.1338 50.4071 34.5621 50.3358 33.8952V33.514C50.0503 33.9428 49.5745 34.2048 49.0512 34.2048C48.1948 34.2286 47.4812 33.514 47.505 32.6565C47.505 31.1321 49.4556 30.5128 50.3358 31.7514V31.1559H50.8353V33.8713C50.8591 34.3001 50.7164 34.7288 50.4071 35.0385C50.0741 35.3481 49.6221 35.5149 49.1464 35.4911C48.623 35.4911 48.0997 35.3243 47.6715 35.0147ZM50.3596 32.6565C50.3358 31.9896 49.7886 31.4894 49.1464 31.537C48.5279 31.5132 48.0045 32.0134 48.0045 32.6565V32.6804C48.0045 33.2997 48.5279 33.8237 49.1464 33.7999C49.7886 33.7999 50.3358 33.2997 50.3596 32.6565Z" fill="#231F20"/>
<path d="M51.3825 30.1078H51.0732V29.9887H51.8345V30.1078H51.5252V30.9414H51.3825V30.1078ZM52.0248 29.9648H52.1675L52.5005 30.4889L52.8336 29.9648H52.9763V30.9176H52.8336V30.1792L52.5005 30.7032H52.4767L52.1437 30.1792V30.9176H52.001V29.9648H52.0248Z" fill="#231F20"/>
<path d="M50.8353 0H0V26.5111H50.8353V0Z" fill="#662D91"/>
<path d="M16.842 22.1282H13.3689L10.6333 18.3171H9.70553V22.1282H6.66064V10.6948H11.0377C13.5592 10.6948 15.605 12.4098 15.605 14.5298C15.5574 15.8637 14.7962 17.0546 13.6068 17.6739L16.842 22.1282ZM12.5363 14.4821C12.5363 13.4341 11.6799 12.5766 10.6333 12.5527H9.68174V16.3877H10.6333C11.6799 16.3877 12.5363 15.554 12.5363 14.4821Z" fill="white"/>
<path d="M24.9536 17.6266C24.9536 19.5322 23.8356 21.2472 22.0753 21.9856C20.3387 22.724 18.3168 22.3191 16.9608 20.9852C15.6287 19.6513 15.2243 17.6266 15.9379 15.864C16.6516 14.1013 18.3643 12.958 20.2674 12.958C21.5044 12.958 22.6938 13.4344 23.5739 14.3157C24.4541 15.197 24.9536 16.388 24.9536 17.6266ZM20.2674 15.1732C19.4586 15.1732 18.7687 16.2689 18.7687 17.6266C18.7687 18.9843 19.4586 20.08 20.2674 20.08C21.1 20.08 21.766 18.9843 21.766 17.6266C21.766 16.2689 21.1 15.1732 20.2674 15.1732Z" fill="white"/>
<path d="M32.114 13.1484L28.6171 16.6737V13.1484H25.5723V22.1046H28.6171V18.484L32.2805 22.1284H36.1104L31.4479 17.4598L35.3016 13.5772V18.8889C35.3016 20.6516 36.3721 22.2951 39.0364 22.2951C40.1782 22.2713 41.2487 21.7711 42.0337 20.9136L43.4134 22.1046H44.0557V13.1484H41.0108V18.9366C40.7253 19.5321 40.1068 19.9132 39.4408 19.9132C38.6795 19.9132 38.3465 19.4606 38.3465 18.0314V13.1484H32.114Z" fill="white"/>
<path d="M44.793 13.7678C44.793 12.9817 45.9586 12.9817 45.9824 13.7678C45.9824 14.5538 44.793 14.5538 44.793 13.7678ZM45.911 13.7678C45.911 13.4819 45.6731 13.2437 45.3877 13.2437C45.1022 13.2437 44.8643 13.4819 44.8643 13.7678C44.8643 14.0536 45.1022 14.2918 45.3877 14.2918C45.6731 14.2918 45.911 14.0536 45.911 13.7678ZM45.1498 13.4581H45.4115C45.5542 13.4581 45.6493 13.5296 45.6493 13.6487C45.6493 13.7439 45.6018 13.8154 45.5066 13.8392L45.6731 14.0536H45.5304L45.3877 13.8392H45.2687V14.0536H45.1498V13.4581ZM45.4115 13.7439C45.4828 13.7439 45.5304 13.6963 45.5304 13.6487C45.5304 13.5772 45.4828 13.5534 45.4115 13.5534H45.2687V13.7439H45.4115Z" fill="white"/>
</svg>
