<svg width="21" height="21" viewBox="0 0 21 21" fill="none" xmlns="http://www.w3.org/2000/svg">
<path d="M5.5 12.5L7.297 10.344C8.009 9.489 8.365 9.062 8.833 9.062C9.302 9.062 9.658 9.489 10.37 10.344L10.63 10.656C11.342 11.511 11.698 11.938 12.167 11.938C12.636 11.938 12.991 11.511 13.703 10.656L15.5 8.5" stroke="#2A52C6" stroke-width="1.5" stroke-linecap="round"/>
<path d="M20.5 10.5C20.5 15.214 20.5 17.571 19.035 19.035C17.572 20.5 15.214 20.5 10.5 20.5C5.786 20.5 3.429 20.5 1.964 19.035C0.5 17.572 0.5 15.214 0.5 10.5C0.5 5.786 0.5 3.429 1.964 1.964C3.43 0.5 5.786 0.5 10.5 0.5C15.214 0.5 17.571 0.5 19.035 1.964C20.009 2.938 20.335 4.307 20.445 6.5" stroke="#2A52C6" stroke-width="1.5" stroke-linecap="round"/>
</svg>
