<svg width="19" height="18" viewBox="0 0 19 18" fill="none" xmlns="http://www.w3.org/2000/svg">
<path d="M15.9648 10.6012L15.9273 10.2285L15.9161 10.2292L15.9033 10.2315L15.9648 10.6012ZM15.9648 10.6012L16.0023 10.9747L16.0151 10.9732L16.0271 10.971L15.9648 10.6012ZM12.9348 14.7128L13.1726 14.4225L13.1688 14.4203L12.9348 14.7128ZM12.9348 14.7128L12.6971 15.003L12.7008 15.006L12.9348 14.7128ZM6.03783 14.7128L5.80008 14.4233L5.79483 14.4278L5.78883 14.433L6.03783 14.7128ZM6.03783 14.7128L6.27558 15.0038L6.28158 14.9985L6.28683 14.994L6.03783 14.7128ZM3.00708 7.39725V7.02225H2.98908L2.97033 7.02375L3.00708 7.39725ZM3.00708 7.39725V7.77225H3.02583L3.04458 7.77L3.00708 7.39725ZM11.4603 2.4825C11.4492 2.3465 11.4334 2.21092 11.4131 2.076C11.3962 1.95653 11.3603 1.84055 11.3066 1.7325L10.6398 2.07675C10.6473 2.09175 10.6601 2.12175 10.6728 2.19975C10.6871 2.28225 10.6976 2.3895 10.7148 2.55675L11.4603 2.4825ZM11.6073 3.38475C11.5983 3.3735 11.5713 3.32775 11.5421 3.16725C11.507 2.94003 11.4807 2.71163 11.4618 2.4825L10.7148 2.55675C10.7448 2.8575 10.7696 3.1065 10.8041 3.3C10.8378 3.489 10.8903 3.68175 11.0111 3.84L11.6073 3.38475ZM11.9553 3.52875C11.8898 3.53757 11.8231 3.5289 11.7619 3.50361C11.7008 3.47832 11.6475 3.43731 11.6073 3.38475L11.0103 3.83925C11.1308 3.99719 11.2909 4.12042 11.4744 4.19643C11.6579 4.27244 11.8582 4.29851 12.0551 4.272L11.9553 3.52875ZM12.6963 2.994C12.4526 3.19425 12.2861 3.33 12.1548 3.42075C12.0206 3.51375 11.9688 3.5265 11.9553 3.52875L12.0551 4.272C12.2516 4.24575 12.4248 4.14675 12.5831 4.0365C12.7443 3.924 12.9371 3.7665 13.1718 3.5745L12.6963 2.994ZM13.3353 2.57325C13.2153 2.6115 13.1141 2.67225 13.0181 2.7405C12.9251 2.8065 12.8193 2.8935 12.6963 2.994L13.1718 3.5745C13.3016 3.468 13.3856 3.39975 13.4531 3.35175C13.4868 3.32506 13.5242 3.30333 13.5641 3.28725L13.3353 2.57325ZM14.1251 2.61225C13.8752 2.50412 13.5946 2.49026 13.3353 2.57325L13.5641 3.28725C13.6503 3.25993 13.7436 3.26473 13.8266 3.30075L14.1251 2.61225ZM14.7191 3.09525C14.6066 2.98275 14.5098 2.88525 14.4243 2.81025C14.3358 2.72866 14.2348 2.66181 14.1251 2.61225L13.8266 3.30075C13.8423 3.3075 13.8708 3.32325 13.9308 3.37575C13.9931 3.42975 14.0696 3.50625 14.1888 3.6255L14.7191 3.09525ZM15.3888 3.765L14.7191 3.09525L14.1888 3.6255L14.8586 4.29525L15.3888 3.765ZM15.8718 4.359C15.822 4.24925 15.7549 4.14821 15.6731 4.05975C15.5981 3.97425 15.5006 3.8775 15.3888 3.765L14.8586 4.29525C14.9778 4.4145 15.0536 4.491 15.1091 4.55325C15.1616 4.61325 15.1766 4.64175 15.1833 4.6575L15.8718 4.359ZM15.9108 5.14875C15.9938 4.88945 15.98 4.60886 15.8718 4.359L15.1833 4.6575C15.2191 4.7406 15.2236 4.83383 15.1961 4.92L15.9108 5.14875ZM15.4901 5.78775C15.5906 5.66475 15.6776 5.559 15.7436 5.466C15.8111 5.37 15.8726 5.26875 15.9108 5.14875L15.1961 4.92C15.1802 4.95985 15.1588 4.99723 15.1323 5.031C15.0609 5.12695 14.9866 5.22074 14.9096 5.31225L15.4901 5.78775ZM14.9553 6.52875C14.9576 6.51525 14.9703 6.4635 15.0633 6.32925C15.1541 6.198 15.2898 6.0315 15.4901 5.78775L14.9096 5.31225C14.7176 5.547 14.5593 5.73975 14.4476 5.901C14.3373 6.0585 14.2383 6.2325 14.2121 6.429L14.9553 6.52875ZM15.0993 6.87675C15.0468 6.8366 15.0058 6.78326 14.9805 6.72214C14.9552 6.66102 14.9465 6.5943 14.9553 6.52875L14.2121 6.429C14.1857 6.62572 14.2118 6.82593 14.2878 7.00928C14.3638 7.19264 14.487 7.35263 14.6448 7.473L15.0993 6.87675ZM16.0016 7.023C15.6873 6.9915 15.4743 6.9705 15.3168 6.942C15.1563 6.91275 15.1106 6.88575 15.0993 6.87675L14.6448 7.473C14.8023 7.593 14.9951 7.6455 15.1848 7.68C15.3776 7.7145 15.6258 7.74 15.9273 7.77L16.0016 7.023ZM16.7516 7.1775C16.6435 7.12381 16.5275 7.08785 16.4081 7.071C16.2956 7.05225 16.1591 7.03875 16.0016 7.023L15.9266 7.76925C16.0946 7.7865 16.2018 7.797 16.2843 7.81125C16.3267 7.81636 16.3681 7.82747 16.4073 7.84425L16.7516 7.1775ZM17.2818 7.76325C17.1817 7.51031 16.9933 7.30222 16.7516 7.1775L16.4073 7.84425C16.488 7.88571 16.5508 7.95499 16.5843 8.03925L17.2818 7.76325ZM17.3606 8.5245C17.3606 8.36625 17.3606 8.229 17.3531 8.115C17.3483 7.99469 17.3242 7.87593 17.2818 7.76325L16.5843 8.03925C16.5903 8.055 16.5993 8.0865 16.6046 8.16525C16.6102 8.28516 16.6122 8.40522 16.6106 8.52525L17.3606 8.5245ZM17.3606 9.4725V8.5245H16.6106V9.4725H17.3606ZM17.2818 10.233C17.3283 10.116 17.3456 9.999 17.3531 9.88125C17.3606 9.768 17.3606 9.63075 17.3606 9.4725H16.6106C16.6106 9.6405 16.6106 9.7485 16.6046 9.83175C16.6038 9.8745 16.597 9.91692 16.5843 9.95775L17.2818 10.233ZM16.7516 10.8195C16.9935 10.6946 17.1819 10.4862 17.2818 10.233L16.5843 9.95775C16.5508 10.042 16.488 10.1113 16.4073 10.1528L16.7516 10.8195ZM16.0016 10.974C16.1591 10.9583 16.2963 10.944 16.4081 10.9252C16.5243 10.9065 16.6391 10.8772 16.7508 10.8202L16.4073 10.1528C16.3681 10.1695 16.3267 10.1806 16.2843 10.1857C16.2018 10.2 16.0946 10.2105 15.9273 10.2277L16.0016 10.974ZM15.1001 11.1202C15.1113 11.1112 15.1571 11.0835 15.3176 11.055C15.4751 11.0265 15.6881 11.0048 16.0016 10.974L15.9273 10.2277C15.6266 10.2577 15.3776 10.2817 15.1841 10.317C14.9951 10.3507 14.8031 10.4032 14.6448 10.5232L15.1001 11.1202ZM14.9553 11.4682C14.9466 11.4026 14.9554 11.3359 14.9808 11.2747C15.0062 11.2136 15.0474 11.1603 15.1001 11.1202L14.6448 10.5232C14.4869 10.6437 14.3637 10.8038 14.2876 10.9873C14.2116 11.1708 14.1856 11.3712 14.2121 11.568L14.9553 11.4682ZM15.4901 12.2093C15.3415 12.0338 15.1992 11.8532 15.0633 11.6677C14.9703 11.5342 14.9576 11.4817 14.9553 11.4682L14.2128 11.5687C14.2391 11.7652 14.3381 11.9377 14.4476 12.096C14.5601 12.2565 14.7176 12.45 14.9096 12.684L15.4901 12.2093ZM15.9108 12.8482C15.8725 12.734 15.816 12.6266 15.7436 12.5302C15.6623 12.4207 15.5778 12.3137 15.4901 12.2093L14.9096 12.684C15.0161 12.8145 15.0843 12.8977 15.1323 12.966C15.1587 12.9995 15.1802 13.0367 15.1961 13.0763L15.9108 12.8482ZM15.8718 13.638C15.98 13.3881 15.9938 13.1075 15.9108 12.8482L15.1961 13.0763C15.2238 13.1627 15.2193 13.2562 15.1833 13.3395L15.8718 13.638ZM15.3896 14.2313C15.5013 14.1195 15.5981 14.0227 15.6731 13.9373C15.7511 13.848 15.8216 13.7542 15.8718 13.638L15.1833 13.3395C15.1634 13.3774 15.1381 13.4122 15.1083 13.443C15.0277 13.5315 14.9444 13.6175 14.8586 13.701L15.3896 14.2313ZM14.7191 14.9018L15.3896 14.2313L14.8586 13.701L14.1888 14.3715L14.7191 14.9018ZM14.1251 15.384C14.2406 15.3338 14.3351 15.264 14.4243 15.186C14.5098 15.111 14.6066 15.0135 14.7191 14.901L14.1888 14.3715C14.0696 14.4908 13.9931 14.5665 13.9308 14.6213C13.8998 14.6511 13.8647 14.6764 13.8266 14.6963L14.1251 15.384ZM13.3353 15.4237C13.5947 15.5065 13.8753 15.4924 14.1251 15.384L13.8266 14.6963C13.7435 14.732 13.6503 14.7366 13.5641 14.709L13.3353 15.4237ZM12.6963 15.0023C12.8193 15.1027 12.9251 15.1897 13.0181 15.2557C13.1141 15.324 13.2153 15.3855 13.3353 15.4237L13.5641 14.709C13.5242 14.6931 13.4869 14.6717 13.4531 14.6453C13.3571 14.5736 13.2633 14.499 13.1718 14.4218L12.6963 15.0023ZM11.9553 14.4683C11.9688 14.4698 12.0213 14.4833 12.1548 14.5763C12.2861 14.667 12.4526 14.8028 12.6963 15.0023L13.1718 14.4218C12.9371 14.2305 12.7443 14.0723 12.5831 13.9598C12.4256 13.8503 12.2516 13.7513 12.0551 13.725L11.9553 14.4683ZM11.6073 14.6122C11.6475 14.5597 11.7008 14.5187 11.7619 14.4934C11.8231 14.4681 11.8898 14.4594 11.9553 14.4683L12.0551 13.725C11.8584 13.6985 11.6583 13.7246 11.4749 13.8004C11.2916 13.8763 11.1315 13.9993 11.0111 14.157L11.6073 14.6122ZM11.4611 15.5145C11.4926 15.2003 11.5136 14.9873 11.5421 14.8298C11.5713 14.6693 11.5983 14.6235 11.6073 14.6122L11.0111 14.157C10.8911 14.3145 10.8386 14.508 10.8041 14.697C10.7696 14.8898 10.7441 15.138 10.7141 15.4395L11.4611 15.5145ZM11.3066 16.2645C11.3643 16.152 11.3928 16.0373 11.4123 15.921C11.4318 15.8085 11.4453 15.672 11.4611 15.5145L10.7141 15.4395C10.7037 15.5591 10.6904 15.6784 10.6728 15.7972C10.6677 15.8396 10.6566 15.881 10.6398 15.9203L11.3066 16.2645ZM10.7208 16.7948C10.9738 16.6946 11.1819 16.5063 11.3066 16.2645L10.6398 15.9203C10.5984 16.0009 10.5291 16.0638 10.4448 16.0973L10.7208 16.7948ZM9.95958 16.8735C10.1178 16.8735 10.2551 16.8735 10.3691 16.866C10.4861 16.8585 10.6038 16.8412 10.7208 16.7948L10.4448 16.0973C10.404 16.11 10.3616 16.1168 10.3188 16.1175C10.2363 16.1235 10.1276 16.1235 9.95883 16.1235L9.95958 16.8735ZM9.01158 16.8735H9.95958L9.95883 16.1235H9.01158V16.8735ZM8.25033 16.7948C8.36808 16.8412 8.48508 16.8585 8.60283 16.866C8.71608 16.8735 8.85333 16.8735 9.01158 16.8735V16.1235C8.84358 16.1235 8.73558 16.1235 8.65233 16.1175C8.60958 16.1168 8.56715 16.11 8.52633 16.0973L8.25033 16.7948ZM7.66458 16.2645C7.7893 16.5063 7.99739 16.6946 8.25033 16.7948L8.52633 16.0973C8.44207 16.0638 8.37279 16.0009 8.33133 15.9203L7.66458 16.2645ZM7.51008 15.5145C7.52508 15.673 7.54108 15.8085 7.55808 15.921C7.57758 16.0373 7.60683 16.152 7.66458 16.2645L8.33133 15.9203C8.31455 15.881 8.30344 15.8396 8.29833 15.7972C8.28077 15.6787 8.26676 15.5596 8.25633 15.4403L7.51008 15.5145ZM7.36383 14.6122C7.37283 14.6235 7.39983 14.6693 7.42908 14.8298C7.45758 14.9873 7.47858 15.201 7.51008 15.5145L8.25633 15.4403C8.22633 15.1395 8.20158 14.8905 8.16708 14.697C8.13333 14.508 8.08083 14.3153 7.96008 14.157L7.36383 14.6122ZM7.01583 14.4683C7.08138 14.4594 7.1481 14.4681 7.20922 14.4934C7.27033 14.5187 7.32367 14.5597 7.36383 14.6122L7.96008 14.157C7.8397 13.9992 7.67972 13.8768 7.49636 13.8008C7.313 13.7248 7.1128 13.6986 6.91608 13.725L7.01583 14.4683ZM6.27483 15.003C6.51858 14.8027 6.68508 14.667 6.81633 14.5763C6.95058 14.4833 7.00233 14.4698 7.01583 14.4683L6.91608 13.725C6.71958 13.7513 6.54633 13.8503 6.38808 13.9605C6.22683 14.0723 6.03408 14.2305 5.79933 14.4225L6.27483 15.003ZM5.63583 15.4237C5.75583 15.3855 5.85708 15.3248 5.95308 15.2565C6.04608 15.1905 6.15183 15.1035 6.27483 15.003L5.79933 14.4225C5.70782 14.4995 5.61403 14.5738 5.51808 14.6453C5.4843 14.6717 5.44693 14.6931 5.40708 14.709L5.63583 15.4237ZM4.84608 15.3855C5.09594 15.4936 5.37653 15.5067 5.63583 15.4237L5.40708 14.709C5.3209 14.7366 5.22768 14.732 5.14458 14.6963L4.84608 15.3855ZM4.25208 14.9018C4.36458 15.0143 4.46133 15.1118 4.54683 15.1868C4.63533 15.264 4.73058 15.3352 4.84608 15.3855L5.14458 14.6963C5.10642 14.6764 5.07131 14.6511 5.04033 14.6213C4.95186 14.5406 4.86582 14.4573 4.78233 14.3715L4.25208 14.9018ZM3.58233 14.232L4.25208 14.9018L4.78233 14.3715L4.11258 13.7018L3.58233 14.232ZM3.09933 13.638C3.14958 13.7535 3.22008 13.848 3.29808 13.9373C3.37308 14.0227 3.47058 14.1195 3.58233 14.232L4.11258 13.7018C4.02652 13.6183 3.94298 13.5322 3.86208 13.4438C3.83222 13.4128 3.80697 13.3777 3.78708 13.3395L3.09933 13.638ZM3.06033 12.8482C2.97734 13.1075 2.9912 13.3881 3.09933 13.638L3.78708 13.3395C3.75106 13.2565 3.74701 13.1633 3.77433 13.077L3.06033 12.8482ZM3.48108 12.2093C3.38058 12.3323 3.29358 12.438 3.22758 12.531C3.15522 12.6271 3.09876 12.7342 3.06033 12.8482L3.77433 13.077C3.79041 13.0371 3.81213 12.9997 3.83883 12.966C3.88683 12.8985 3.95508 12.8145 4.06158 12.6847L3.48108 12.2093ZM4.01583 11.4682C4.01358 11.4817 4.00083 11.5335 3.90783 11.6677C3.81633 11.799 3.68133 11.9655 3.48108 12.2093L4.06158 12.6847C4.25358 12.45 4.41183 12.2572 4.52358 12.096C4.63383 11.9385 4.73283 11.7645 4.75908 11.568L4.01583 11.4682ZM3.87183 11.1202C3.92439 11.1604 3.96539 11.2137 3.99068 11.2749C4.01597 11.336 4.02465 11.4027 4.01583 11.4682L4.75908 11.568C4.78545 11.3713 4.75931 11.1711 4.68331 10.9877C4.60731 10.8044 4.48415 10.6444 4.32633 10.524L3.87183 11.1202ZM2.96958 10.9747C3.28383 11.0055 3.49683 11.0265 3.65433 11.055C3.81483 11.0842 3.86058 11.1112 3.87183 11.1202L4.32633 10.5232C4.16883 10.4032 3.97608 10.3507 3.78633 10.317C3.59358 10.2825 3.34533 10.257 3.04383 10.227L2.96958 10.9747ZM2.21958 10.8195C2.33208 10.8772 2.44683 10.9057 2.56308 10.9252C2.67558 10.9447 2.81133 10.959 2.96958 10.9747L3.04458 10.2277C2.92493 10.2173 2.80563 10.2033 2.68683 10.1857C2.64447 10.1806 2.60306 10.1695 2.56383 10.1528L2.21958 10.8195ZM1.68933 10.233C1.78929 10.4862 1.97769 10.6946 2.21958 10.8195L2.56383 10.1528C2.48319 10.1113 2.42031 10.042 2.38683 9.95775L1.68933 10.233ZM1.61133 9.474C1.61133 9.63225 1.61133 9.7695 1.61883 9.8835C1.62368 10.0036 1.64774 10.1221 1.69008 10.2345L2.38758 9.95925C2.37488 9.91842 2.36806 9.876 2.36733 9.83325C2.36173 9.71334 2.35973 9.59328 2.36133 9.47325L1.61133 9.474ZM1.61133 8.526V9.474H2.36133V8.526H1.61133ZM1.69008 7.76475C1.64758 7.87767 1.62352 7.99669 1.61883 8.11725C1.61133 8.2305 1.61133 8.36775 1.61133 8.526H2.36133C2.36133 8.358 2.36133 8.25 2.36733 8.16675C2.36806 8.124 2.37488 8.08157 2.38758 8.04075L1.69008 7.76475ZM2.22033 7.179C1.97857 7.30372 1.7902 7.51181 1.69008 7.76475L2.38758 8.04075C2.42106 7.95649 2.48394 7.88721 2.56458 7.84575L2.22033 7.179ZM2.97033 7.02375C2.81183 7.03875 2.67633 7.0555 2.56383 7.0725C2.44436 7.08935 2.32838 7.12531 2.22033 7.179L2.56458 7.84575C2.57958 7.83825 2.60958 7.8255 2.68758 7.81275C2.77008 7.7985 2.87733 7.788 3.04458 7.77075L2.97033 7.02375ZM3.87258 6.87825C3.86133 6.88725 3.81558 6.91425 3.65508 6.9435C3.49758 6.972 3.28458 6.99225 2.97033 7.02375L3.04458 7.77075C3.34533 7.74075 3.59508 7.716 3.78783 7.6815C3.97758 7.64775 4.17033 7.59525 4.32783 7.4745L3.87258 6.87825ZM4.01658 6.53025C4.0254 6.5958 4.01672 6.66252 3.99143 6.72364C3.96614 6.78476 3.92514 6.8381 3.87258 6.87825L4.32783 7.4745C4.48551 7.35404 4.60853 7.19402 4.68439 7.01067C4.76026 6.82731 4.78629 6.62641 4.75983 6.42975L4.01658 6.53025ZM3.48183 5.7885C3.68208 6.033 3.81783 6.1995 3.90933 6.33075C4.00233 6.465 4.01433 6.51675 4.01658 6.53025L4.75983 6.42975C4.73358 6.23325 4.63458 6.06075 4.52433 5.9025C4.41258 5.74125 4.25433 5.5485 4.06233 5.31375L3.48183 5.7885ZM3.06108 5.1495C3.09858 5.2695 3.16008 5.3715 3.22833 5.4675C3.29433 5.55975 3.38133 5.66625 3.48183 5.7885L4.06233 5.31375C3.98528 5.222 3.911 5.12795 3.83958 5.03175C3.81295 4.99825 3.79123 4.96113 3.77508 4.9215L3.06108 5.1495ZM3.10008 4.3605C2.99213 4.61014 2.97828 4.89043 3.06108 5.1495L3.77508 4.9215C3.74776 4.83524 3.75256 4.74201 3.78858 4.659L3.10008 4.3605ZM3.58308 3.7665C3.47058 3.87825 3.37308 3.975 3.29808 4.06125C3.21649 4.14976 3.14964 4.2508 3.10008 4.3605L3.78858 4.659C3.80853 4.62111 3.83378 4.58551 3.86358 4.55475C3.94386 4.46593 4.02716 4.37988 4.11333 4.29675L3.58308 3.7665ZM4.25283 3.096L3.58308 3.7665L4.11333 4.29675L4.78308 3.62625L4.25283 3.096ZM4.84683 2.61375C4.73713 2.66331 4.63609 2.73016 4.54758 2.81175C4.46208 2.88675 4.36458 2.9835 4.25283 3.096L4.78308 3.62625C4.90233 3.50775 4.97883 3.43125 5.04108 3.3765C5.10108 3.324 5.12958 3.309 5.14533 3.3015L4.84683 2.61375ZM5.63658 2.574C5.37719 2.49125 5.0966 2.50537 4.84683 2.61375L5.14533 3.3015C5.22833 3.26548 5.32156 3.26143 5.40783 3.28875L5.63658 2.574ZM6.27558 2.9955C6.15258 2.895 6.04683 2.808 5.95383 2.742C5.85775 2.66938 5.75064 2.61266 5.63658 2.574L5.40783 3.28875C5.44768 3.3046 5.48505 3.32607 5.51883 3.3525C5.58633 3.40125 5.67033 3.4695 5.80083 3.576L6.27558 2.9955ZM7.01658 3.53025C7.00308 3.528 6.95133 3.51525 6.81708 3.42225C6.63159 3.28618 6.45098 3.14434 6.27558 2.9955L5.80083 3.576C6.03483 3.768 6.22833 3.92625 6.38883 4.038C6.54633 4.1475 6.72033 4.2465 6.91683 4.2735L7.01658 3.53025ZM7.36458 3.3855C7.32451 3.4382 7.27121 3.47935 7.21008 3.50477C7.14896 3.5302 7.0822 3.53899 7.01658 3.53025L6.91683 4.2735C7.1136 4.3001 7.31391 4.27339 7.49741 4.19752C7.68091 4.12164 7.84105 3.99855 7.96158 3.84075L7.36458 3.3855ZM7.51083 2.484C7.47933 2.7975 7.45833 3.01125 7.42983 3.168C7.40058 3.3285 7.37358 3.37425 7.36458 3.3855L7.96158 3.84075C8.08158 3.68325 8.13408 3.4905 8.16783 3.30075C8.20233 3.108 8.22783 2.85975 8.25783 2.55825L7.51083 2.484ZM7.66533 1.734C7.60758 1.8465 7.57833 1.96125 7.55883 2.0775C7.54008 2.19 7.52658 2.32575 7.51083 2.484L8.25708 2.559C8.26749 2.43936 8.2815 2.32005 8.29908 2.20125C8.30419 2.15889 8.3153 2.11748 8.33208 2.07825L7.66533 1.734ZM8.25183 1.20375C7.99849 1.3039 7.79009 1.49183 7.66533 1.734L8.33208 2.07825C8.37354 1.99762 8.44282 1.93474 8.52708 1.90125L8.25183 1.20375ZM9.01233 1.125C8.85408 1.125 8.71683 1.125 8.60283 1.1325C8.48277 1.13735 8.36427 1.16141 8.25183 1.20375L8.52708 1.90125C8.5679 1.88855 8.61033 1.88173 8.65308 1.881C8.73558 1.875 8.84433 1.875 9.01308 1.875L9.01233 1.125ZM9.96033 1.125H9.01233V1.875H9.96033V1.125ZM10.7216 1.20375C10.6087 1.16125 10.4896 1.13719 10.3691 1.1325C10.2558 1.125 10.1186 1.125 9.96033 1.125V1.875C10.1283 1.875 10.2363 1.875 10.3196 1.881C10.3623 1.88173 10.4048 1.88855 10.4456 1.90125L10.7216 1.20375ZM11.3073 1.734C11.1824 1.49211 10.974 1.30372 10.7208 1.20375L10.4456 1.90125C10.5298 1.93474 10.5991 1.99762 10.6406 2.07825L11.3073 1.734ZM12.1113 8.99925C12.1113 9.69544 11.8348 10.3631 11.3425 10.8554C10.8502 11.3477 10.1825 11.6242 9.48633 11.6242V12.3742C10.3814 12.3742 11.2399 12.0187 11.8728 11.3857C12.5057 10.7528 12.8613 9.89436 12.8613 8.99925H12.1113ZM9.48633 6.37425C10.1825 6.37425 10.8502 6.65081 11.3425 7.14309C11.8348 7.63538 12.1113 8.30306 12.1113 8.99925H12.8613C12.8613 8.10414 12.5057 7.2457 11.8728 6.61276C11.2399 5.97983 10.3814 5.62425 9.48633 5.62425V6.37425ZM6.86133 8.99925C6.86133 8.30306 7.13789 7.63538 7.63017 7.14309C8.12246 6.65081 8.79013 6.37425 9.48633 6.37425V5.62425C8.59122 5.62425 7.73278 5.97983 7.09984 6.61276C6.46691 7.2457 6.11133 8.10414 6.11133 8.99925H6.86133ZM9.48633 11.6242C8.79013 11.6242 8.12246 11.3477 7.63017 10.8554C7.13789 10.3631 6.86133 9.69544 6.86133 8.99925H6.11133C6.11133 9.89436 6.46691 10.7528 7.09984 11.3857C7.73278 12.0187 8.59122 12.3742 9.48633 12.3742V11.6242Z" fill="white"/>
</svg>
