<svg width="7" height="7" viewBox="0 0 7 7" fill="none" xmlns="http://www.w3.org/2000/svg">
<g clip-path="url(#clip0_4294_6288)">
<path d="M6.23059 4.52562L6.23484 4.41576L6.23154 4.41552L6.22774 4.41566L6.23059 4.52562ZM6.23059 4.52562L6.22631 4.63571L6.23008 4.63579L6.23366 4.63562L6.23059 4.52562ZM5.18282 5.5975L5.26372 5.5228L5.26272 5.52199L5.18282 5.5975ZM5.18282 5.5975L5.10192 5.67219L5.10289 5.67322L5.18282 5.5975ZM3.17819 5.31719L3.12085 5.22339L3.11915 5.22448L3.11719 5.22576L3.17819 5.31719ZM3.17819 5.31719L3.23547 5.41143L3.23742 5.41015L3.23913 5.40906L3.17819 5.31719ZM2.59461 3.06775L2.60985 2.95876L2.60462 2.95803L2.59911 2.9577L2.59461 3.06775ZM2.59461 3.06775L2.57937 3.17675L2.58482 3.17751L2.59036 3.17762L2.59461 3.06775ZM5.25131 1.98283C5.2536 1.94285 5.25453 1.9028 5.25409 1.86276C5.25405 1.82735 5.24831 1.79218 5.2371 1.75859L5.02932 1.83155C5.03089 1.83621 5.03337 1.84545 5.03391 1.86864C5.0347 1.8932 5.03339 1.9248 5.03161 1.97411L5.25131 1.98283ZM5.25736 2.25104C5.2552 2.24741 5.24922 2.23301 5.24724 2.18517C5.24628 2.1177 5.24793 2.05025 5.25174 1.98289L5.03161 1.97411C5.0281 2.06274 5.02518 2.13612 5.02734 2.19376C5.02947 2.25007 5.0369 2.30822 5.06556 2.35913L5.25736 2.25104ZM5.35266 2.30704C5.33325 2.30694 5.31421 2.3017 5.29747 2.29187C5.28074 2.28204 5.2669 2.26795 5.25736 2.25104L5.06537 2.35888C5.09396 2.40968 5.13549 2.452 5.18573 2.48155C5.23598 2.5111 5.29315 2.52683 5.35144 2.52712L5.35266 2.30704ZM5.58976 2.18173C5.51078 2.23002 5.45687 2.26271 5.41503 2.28376C5.37223 2.30533 5.35667 2.30693 5.35266 2.30704L5.35144 2.52712C5.40962 2.52748 5.464 2.50574 5.51448 2.48013C5.56592 2.45398 5.62834 2.41604 5.70438 2.36978L5.58976 2.18173ZM5.79259 2.08541C5.75616 2.09165 5.72426 2.10519 5.69358 2.12112C5.66387 2.13653 5.6296 2.15752 5.58976 2.18173L5.70438 2.36978C5.74642 2.34409 5.77361 2.32767 5.79518 2.31646C5.80606 2.31008 5.81781 2.30528 5.83006 2.30223L5.79259 2.08541ZM6.02055 2.12884C5.95232 2.08725 5.87133 2.07182 5.79259 2.08541L5.83006 2.30223C5.85624 2.29779 5.88315 2.30298 5.90581 2.31682L6.02055 2.12884ZM6.17357 2.29336C6.14544 2.25609 6.12128 2.22382 6.09948 2.19855C6.07707 2.17124 6.05042 2.1477 6.02055 2.12884L5.90581 2.31682C5.91011 2.31942 5.91775 2.32516 5.93306 2.34286C5.94896 2.36108 5.96808 2.38642 5.9979 2.42593L6.17357 2.29336ZM6.34101 2.51525L6.17357 2.29336L5.9979 2.42593L6.16534 2.64782L6.34101 2.51525ZM6.45725 2.70752C6.44724 2.6736 6.43184 2.64151 6.41165 2.61247C6.39332 2.58457 6.36892 2.55249 6.34101 2.51525L6.16534 2.64782C6.19516 2.68732 6.21406 2.71264 6.22766 2.73298C6.24048 2.75256 6.24369 2.76145 6.24501 2.7663L6.45725 2.70752ZM6.43649 2.93865C6.47115 2.86666 6.47853 2.78454 6.45725 2.70752L6.24501 2.7663C6.25203 2.79191 6.24956 2.81919 6.23805 2.84312L6.43649 2.93865ZM6.28823 3.10728C6.32244 3.07561 6.35202 3.04841 6.37499 3.02406C6.39851 2.9989 6.4205 2.97198 6.43649 2.93865L6.23805 2.84312C6.23182 2.85405 6.22406 2.86405 6.21501 2.87279C6.19034 2.89777 6.16494 2.92201 6.13883 2.94548L6.28823 3.10728ZM6.10269 3.30092C6.10389 3.29709 6.1097 3.28256 6.14219 3.24732C6.1739 3.21286 6.22012 3.16999 6.28823 3.10728L6.13883 2.94548C6.07349 3.00591 6.01966 3.0555 5.98062 3.09783C5.94218 3.13912 5.90633 3.18567 5.89072 3.24172L6.10269 3.30092ZM6.1304 3.40792C6.11675 3.39411 6.107 3.37694 6.10214 3.35815C6.09727 3.33936 6.09746 3.31961 6.10269 3.30092L5.89072 3.24172C5.87505 3.29782 5.87452 3.35708 5.88915 3.41346C5.90379 3.46984 5.93309 3.52135 5.97407 3.56275L6.1304 3.40792ZM6.3867 3.48709C6.29664 3.46517 6.23558 3.45041 6.19096 3.43572C6.1455 3.4207 6.1333 3.41099 6.1304 3.40792L5.97407 3.56275C6.01497 3.60403 6.06886 3.62712 6.12261 3.64486C6.17723 3.66272 6.24834 3.68022 6.33476 3.70119L6.3867 3.48709ZM6.59841 3.56248C6.56918 3.54248 6.53693 3.52732 6.5029 3.51757C6.47096 3.50754 6.43183 3.49807 6.3867 3.48709L6.33457 3.70094C6.3827 3.71279 6.41344 3.7202 6.43684 3.72769C6.44895 3.7309 6.46053 3.73581 6.47125 3.74228L6.59841 3.56248ZM6.72872 3.75428C6.7099 3.67669 6.6636 3.60856 6.59841 3.56248L6.47125 3.74228C6.493 3.75761 6.50846 3.7803 6.51477 3.80615L6.72872 3.75428ZM6.72067 3.97874C6.7271 3.93274 6.73268 3.89285 6.73513 3.85941C6.73863 3.82425 6.73647 3.78875 6.72872 3.75428L6.51477 3.80615C6.51588 3.81097 6.51721 3.82049 6.51554 3.8436C6.51229 3.87868 6.50799 3.91365 6.50265 3.94848L6.72067 3.97874ZM6.68214 4.25428L6.72067 3.97874L6.50268 3.94826L6.46415 4.2238L6.68214 4.25428ZM6.62834 4.47212C6.64661 4.44 6.65638 4.4067 6.66335 4.37278C6.67013 4.34016 6.67571 4.30027 6.68214 4.25428L6.46415 4.2238C6.45732 4.27263 6.45293 4.30402 6.44781 4.32797C6.44586 4.34036 6.44215 4.35242 6.4368 4.36377L6.62834 4.47212ZM6.45039 4.62103C6.52577 4.59456 6.589 4.54165 6.62834 4.47212L6.4368 4.36377C6.42364 4.3869 6.40255 4.40448 6.37743 4.41325L6.45039 4.62103ZM6.22612 4.63546C6.27254 4.63728 6.31301 4.63872 6.34625 4.63781C6.3808 4.63708 6.41534 4.63325 6.45014 4.62122L6.37743 4.41325C6.36535 4.41653 6.35286 4.41808 6.34034 4.41784C6.31578 4.41863 6.28418 4.41733 6.23487 4.41554L6.22612 4.63546ZM5.95816 4.64133C5.96179 4.63917 5.97622 4.63296 6.02402 4.6312C6.07096 4.62932 6.13375 4.63166 6.22612 4.63546L6.23487 4.41554C6.14624 4.41204 6.07289 4.40889 6.01522 4.41128C5.95891 4.4134 5.90097 4.42086 5.8501 4.44931L5.95816 4.64133ZM5.90194 4.73659C5.90207 4.71716 5.90734 4.69812 5.91721 4.68138C5.92708 4.66465 5.94121 4.65083 5.95816 4.64133L5.8501 4.44931C5.7993 4.47789 5.75697 4.51942 5.72742 4.56967C5.69787 4.61991 5.68215 4.67709 5.68186 4.73538L5.90194 4.73659ZM6.02725 4.9737C5.99119 4.91668 5.95716 4.85839 5.92522 4.79897C5.90362 4.75638 5.90205 4.74061 5.90194 4.73659L5.68205 4.73563C5.68169 4.79381 5.70345 4.84797 5.72885 4.89841C5.75502 4.94963 5.79294 5.01228 5.83923 5.08809L6.02725 4.9737ZM6.12357 5.17652C6.11707 5.14175 6.10502 5.10825 6.08789 5.0773C6.06873 5.04216 6.0485 5.00761 6.02725 4.9737L5.83923 5.08809C5.86488 5.13035 5.88134 5.15732 5.89252 5.17911C5.89882 5.18993 5.90355 5.20159 5.90656 5.21374L6.12357 5.17652ZM6.08014 5.40448C6.12172 5.33625 6.13716 5.25526 6.12357 5.17652L5.90656 5.21374C5.91112 5.23999 5.906 5.26699 5.89216 5.28974L6.08014 5.40448ZM5.91586 5.55731C5.95289 5.52937 5.98494 5.50518 6.01021 5.48338C6.03651 5.46061 6.06081 5.43623 6.08014 5.40448L5.89216 5.28974C5.88482 5.29994 5.87606 5.30905 5.86615 5.31677C5.83911 5.33921 5.81141 5.36083 5.78308 5.38161L5.91586 5.55731ZM5.69373 5.72494L5.91586 5.55731L5.78308 5.38161L5.56116 5.54928L5.69373 5.72494ZM5.50148 5.84097C5.5371 5.83106 5.5674 5.81463 5.59651 5.79558C5.62441 5.77726 5.65649 5.75285 5.69376 5.72473L5.56116 5.54928C5.52166 5.57909 5.49634 5.598 5.47603 5.61138C5.46581 5.6188 5.45458 5.62471 5.44268 5.62894L5.50148 5.84097ZM5.27033 5.82043C5.34236 5.85502 5.42449 5.86232 5.50148 5.84097L5.44268 5.62894C5.41707 5.63596 5.38979 5.63349 5.36586 5.62198L5.27033 5.82043ZM5.10173 5.67195C5.1334 5.70616 5.1606 5.73574 5.18495 5.7587C5.21007 5.78244 5.237 5.80443 5.27033 5.82043L5.36586 5.62198C5.35492 5.61575 5.34493 5.60799 5.33619 5.59894C5.31121 5.57421 5.28698 5.54873 5.26353 5.52255L5.10173 5.67195ZM4.90806 5.48662C4.91192 5.48761 4.92663 5.49367 4.96166 5.52612C4.99612 5.55783 5.03899 5.60405 5.10173 5.67195L5.26353 5.52255C5.20307 5.45742 5.15348 5.40359 5.11118 5.36434C5.06986 5.32611 5.02331 5.29027 4.96726 5.27465L4.90806 5.48662ZM4.80106 5.51433C4.81487 5.50069 4.83204 5.49094 4.85083 5.48607C4.86962 5.48121 4.88937 5.4814 4.90806 5.48662L4.96726 5.27465C4.91118 5.25897 4.85194 5.2584 4.79557 5.273C4.73919 5.2876 4.68768 5.31685 4.64626 5.35778L4.80106 5.51433ZM4.72188 5.77063C4.74381 5.68057 4.75857 5.61952 4.77326 5.5749C4.78828 5.52944 4.79799 5.51724 4.80106 5.51433L4.64626 5.35778C4.60498 5.39868 4.58186 5.45279 4.56415 5.50632C4.54629 5.56094 4.52879 5.63206 4.50782 5.71847L4.72188 5.77063ZM4.6465 5.98234C4.66786 5.95199 4.6808 5.91979 4.69119 5.8868C4.70143 5.85489 4.71091 5.81577 4.72188 5.77063L4.50782 5.71847C4.49993 5.75282 4.49122 5.78696 4.48129 5.82078C4.47808 5.83288 4.47317 5.84447 4.4667 5.85519L4.6465 5.98234ZM4.4547 6.11265C4.53228 6.09383 4.60042 6.04754 4.6465 5.98234L4.4667 5.85519C4.45137 5.87694 4.42868 5.8924 4.40283 5.89871L4.4547 6.11265ZM4.23024 6.1046C4.27623 6.11103 4.31613 6.11661 4.34957 6.11907C4.38388 6.12164 4.4188 6.12141 4.4547 6.11265L4.40283 5.89871C4.39044 5.90074 4.37784 5.901 4.36538 5.89947C4.34116 5.89786 4.30955 5.89344 4.2605 5.88658L4.23024 6.1046ZM3.9547 6.06607L4.23024 6.1046L4.2605 5.88658L3.98518 5.84809L3.9547 6.06607ZM3.73664 6.01225C3.76898 6.03055 3.80228 6.04032 3.8362 6.04728C3.86881 6.05407 3.90871 6.05964 3.9547 6.06607L3.98518 5.84809C3.93635 5.84126 3.90496 5.83687 3.88101 5.83174C3.86861 5.82979 3.85656 5.82609 3.84521 5.82074L3.73664 6.01225ZM3.58794 5.83432C3.61437 5.90966 3.6672 5.97287 3.73664 6.01225L3.84521 5.82074C3.82208 5.80758 3.8045 5.78649 3.79573 5.76136L3.58794 5.83432ZM3.57352 5.61006C3.57144 5.65673 3.57058 5.69677 3.57095 5.73016C3.57189 5.76474 3.57573 5.79928 3.58794 5.83432L3.79573 5.76136C3.79245 5.74928 3.7909 5.73679 3.79113 5.72427C3.79085 5.6891 3.79162 5.65393 3.79344 5.6188L3.57352 5.61006ZM3.56768 5.34187C3.56984 5.34551 3.57583 5.3599 3.57781 5.40774C3.57969 5.45468 3.5771 5.51766 3.57352 5.61006L3.79344 5.6188C3.79694 5.53017 3.79987 5.45679 3.7977 5.39915C3.79557 5.34284 3.78815 5.28469 3.75948 5.23378L3.56768 5.34187ZM3.47239 5.28587C3.4918 5.28597 3.51084 5.29121 3.52757 5.30104C3.54431 5.31088 3.55815 5.32496 3.56768 5.34187L3.75948 5.23378C3.73091 5.18302 3.68939 5.14094 3.63918 5.1114C3.58898 5.08186 3.53185 5.06612 3.4736 5.06579L3.47239 5.28587ZM3.23528 5.41118C3.31426 5.36289 3.36818 5.3302 3.41001 5.30916C3.45281 5.28758 3.4684 5.28576 3.47239 5.28587L3.4736 5.06579C3.41542 5.06544 3.36104 5.08717 3.31056 5.11278C3.25916 5.13871 3.1967 5.17687 3.12067 5.22314L3.23528 5.41118ZM3.03245 5.50751C3.06889 5.50127 3.10078 5.48772 3.13146 5.47179C3.16117 5.45639 3.19545 5.4354 3.23528 5.41118L3.12067 5.22314C3.09094 5.24181 3.06066 5.25959 3.02987 5.27645C3.01898 5.28276 3.00724 5.28748 2.99502 5.29047L3.03245 5.50751ZM2.80447 5.46429C2.87269 5.50588 2.95372 5.52109 3.03245 5.50751L2.99502 5.29047C2.96885 5.29497 2.94194 5.28987 2.91924 5.27609L2.80447 5.46429ZM2.65148 5.29955C2.6796 5.33682 2.70376 5.36909 2.72557 5.39436C2.74815 5.42041 2.77294 5.44499 2.80447 5.46429L2.91924 5.27609C2.90896 5.26876 2.89978 5.25999 2.89199 5.25006C2.86955 5.22302 2.84793 5.19531 2.82715 5.16698L2.65148 5.29955ZM2.48403 5.07767L2.65148 5.29955L2.82715 5.16698L2.6597 4.9451L2.48403 5.07767ZM2.36779 4.88539C2.3777 4.921 2.39435 4.95133 2.4134 4.98044C2.43172 5.00834 2.45613 5.04043 2.48403 5.07767L2.6597 4.9451C2.63808 4.91734 2.6173 4.88893 2.59738 4.85993C2.58996 4.84971 2.58405 4.83848 2.57982 4.82658L2.36779 4.88539ZM2.38855 4.65426C2.35389 4.72625 2.34652 4.80837 2.36779 4.88539L2.57982 4.82658C2.57272 4.80099 2.57533 4.77373 2.58678 4.74977L2.38855 4.65426ZM2.53681 4.48563C2.5026 4.5173 2.47302 4.5445 2.45006 4.56885C2.42512 4.59385 2.40435 4.62268 2.38855 4.65426L2.58678 4.74977C2.59308 4.73882 2.60091 4.72884 2.61004 4.72012C2.62673 4.70246 2.64998 4.68082 2.68621 4.64743L2.53681 4.48563ZM2.72235 4.29199C2.72115 4.29583 2.71534 4.31035 2.68286 4.34559C2.65093 4.38002 2.60492 4.42293 2.53681 4.48563L2.68621 4.64743C2.75156 4.587 2.80539 4.53741 2.84442 4.49509C2.88287 4.45379 2.91871 4.40724 2.93433 4.35119L2.72235 4.29199ZM2.69464 4.185C2.70829 4.1988 2.71804 4.21597 2.72291 4.23476C2.72777 4.25356 2.72758 4.2733 2.72235 4.29199L2.93433 4.35119C2.94999 4.29509 2.95053 4.23584 2.93589 4.17945C2.92125 4.12307 2.89196 4.07157 2.85098 4.03017L2.69464 4.185ZM2.43832 4.10604C2.5284 4.12775 2.58946 4.14251 2.63408 4.15719C2.67954 4.17222 2.69174 4.18192 2.69464 4.185L2.85101 4.02995C2.81011 3.98867 2.75622 3.96558 2.70244 3.94805C2.64782 3.93019 2.5767 3.91269 2.49029 3.89172L2.43832 4.10604ZM2.22664 4.03043C2.25699 4.05179 2.28918 4.06474 2.32218 4.07513C2.35408 4.08537 2.39296 4.09503 2.43832 4.10604L2.49048 3.89197C2.45612 3.88408 2.42202 3.87516 2.3882 3.86522C2.3761 3.86201 2.36451 3.8571 2.35379 3.85063L2.22664 4.03043ZM2.09636 3.83841C2.11512 3.91608 2.16141 3.9843 2.22664 4.03043L2.35379 3.85063C2.33204 3.8353 2.31658 3.81261 2.31027 3.78676L2.09636 3.83841ZM2.10453 3.61464C2.0981 3.66064 2.09252 3.70053 2.09007 3.73397C2.0866 3.76906 2.08878 3.80448 2.09651 3.83888L2.31043 3.78723C2.3084 3.77484 2.30814 3.76224 2.30966 3.74978C2.31291 3.7147 2.31721 3.67973 2.32255 3.6449L2.10453 3.61464ZM2.14306 3.3391L2.10453 3.61464L2.32252 3.64512L2.36105 3.36958L2.14306 3.3391ZM2.19689 3.12104C2.17995 3.15214 2.16812 3.18575 2.16185 3.2206C2.15507 3.25321 2.14949 3.29311 2.14306 3.3391L2.36105 3.36958C2.36788 3.32075 2.37227 3.28936 2.37739 3.26541C2.37934 3.25301 2.38305 3.24096 2.3884 3.22961L2.19689 3.12104ZM2.37481 2.97234C2.29948 2.99877 2.23627 3.0516 2.19689 3.12104L2.3884 3.22961C2.40156 3.20648 2.42265 3.1889 2.44777 3.18013L2.37481 2.97234ZM2.59911 2.9577C2.55243 2.95562 2.51237 2.95498 2.47898 2.95535C2.44357 2.95539 2.4084 2.96113 2.37481 2.97234L2.44777 3.18013C2.45243 3.17856 2.46167 3.17607 2.48486 3.17553C2.50942 3.17475 2.54102 3.17605 2.59033 3.17784L2.59911 2.9577ZM2.86726 2.95208C2.86363 2.95424 2.84923 2.96023 2.80139 2.96221C2.75446 2.96409 2.69173 2.96132 2.59911 2.9577L2.59033 3.17784C2.67896 3.18134 2.75256 3.1843 2.80999 3.1821C2.86651 3.18 2.92467 3.17258 2.97535 3.14388L2.86726 2.95208ZM2.92326 2.85679C2.92316 2.8762 2.91793 2.89524 2.90809 2.91197C2.89826 2.92871 2.88417 2.94255 2.86726 2.95208L2.97535 3.14388C3.02608 3.11528 3.06833 3.07377 3.09784 3.02356C3.12734 2.97335 3.14307 2.91602 3.14337 2.85778L2.92326 2.85679ZM2.79798 2.61946C2.84625 2.69867 2.87894 2.75258 2.9002 2.79444C2.92177 2.83724 2.92316 2.85277 2.92326 2.85679L3.14337 2.85778C3.14373 2.7996 3.12196 2.74544 3.09635 2.69497C3.07042 2.64356 3.03226 2.5811 2.986 2.50507L2.79798 2.61946ZM2.70166 2.41664C2.70768 2.45304 2.72141 2.48518 2.73735 2.51586C2.75278 2.54536 2.77374 2.57985 2.79798 2.61946L2.986 2.50507C2.96733 2.47527 2.94956 2.44492 2.93272 2.41405C2.92634 2.40323 2.92153 2.39156 2.91845 2.37939L2.70166 2.41664ZM2.74506 2.1889C2.70354 2.25707 2.68812 2.33797 2.70166 2.41664L2.91845 2.37939C2.91402 2.3532 2.9192 2.3263 2.93304 2.30364L2.74506 2.1889ZM2.90959 2.03588C2.87235 2.06379 2.84008 2.08795 2.81477 2.10997C2.78746 2.13238 2.76392 2.15903 2.74506 2.1889L2.93304 2.30364C2.94038 2.29344 2.94917 2.28411 2.95908 2.27639C2.98602 2.25383 3.01373 2.23221 3.04215 2.21155L2.90959 2.03588ZM3.1315 1.86822L2.90959 2.03588L3.04215 2.21155L3.26407 2.04389L3.1315 1.86822ZM3.32375 1.75219C3.28985 1.76214 3.25776 1.77746 3.22872 1.79758C3.20082 1.8159 3.16855 1.84006 3.1315 1.86822L3.26407 2.04389C3.30354 2.01429 3.32889 1.99516 3.34921 1.98178C3.36878 1.96896 3.37767 1.96576 3.38255 1.96422L3.32375 1.75219ZM3.5549 1.77273C3.48288 1.73814 3.40075 1.73084 3.32375 1.75219L3.38255 1.96422C3.40814 1.95712 3.43541 1.95974 3.45937 1.97118L3.5549 1.77273ZM3.7235 1.92121C3.69183 1.88701 3.66463 1.85742 3.64029 1.83446C3.61531 1.80945 3.58649 1.78861 3.5549 1.77273L3.45937 1.97118C3.47031 1.97741 3.4803 1.98517 3.48904 1.99422C3.50668 2.01113 3.52832 2.03439 3.56192 2.07064L3.7235 1.92121ZM3.91714 2.10676C3.91331 2.10555 3.89879 2.09974 3.86354 2.06726C3.81516 2.02017 3.76843 1.9716 3.7235 1.92121L3.56192 2.07064C3.62213 2.13596 3.67194 2.18982 3.71405 2.22882C3.75538 2.26705 3.80193 2.3029 3.85794 2.31873L3.91714 2.10676ZM4.02417 2.07883C4.01038 2.09252 3.99322 2.10231 3.97442 2.10721C3.95562 2.11212 3.93586 2.11196 3.91714 2.10676L3.85794 2.31873C3.91405 2.33446 3.97336 2.33484 4.02978 2.32024C4.08619 2.30564 4.13774 2.27638 4.17919 2.23541L4.02417 2.07883ZM4.10332 1.82275C4.08142 1.91259 4.06663 1.97386 4.05197 2.01826C4.03695 2.06372 4.02724 2.07592 4.02417 2.07883L4.17919 2.23541C4.22047 2.19451 4.24356 2.14062 4.26108 2.08684C4.27894 2.03222 4.29644 1.9611 4.31742 1.87469L4.10332 1.82275ZM4.1787 1.61104C4.15735 1.64139 4.14418 1.67355 4.13379 1.70655C4.12377 1.73849 4.11433 1.77739 4.10332 1.82275L4.31717 1.87488C4.32506 1.84052 4.33398 1.80642 4.34391 1.7726C4.34712 1.7605 4.35203 1.74891 4.3585 1.73819L4.1787 1.61104ZM4.37072 1.48076C4.29302 1.49957 4.22481 1.54572 4.1787 1.61104L4.3585 1.73819C4.37383 1.71644 4.39652 1.70098 4.42237 1.69467L4.37072 1.48076ZM4.59496 1.48878C4.54897 1.48234 4.50907 1.47677 4.47563 1.47431C4.44054 1.47084 4.40512 1.47302 4.37072 1.48076L4.42237 1.69467C4.43476 1.69264 4.44737 1.69238 4.45982 1.69391C4.48404 1.69552 4.51565 1.69994 4.5647 1.7068L4.59496 1.48878ZM4.8705 1.5273L4.59496 1.48878L4.56448 1.70676L4.84002 1.74529L4.8705 1.5273ZM5.08856 1.58113C5.05746 1.56419 5.02385 1.55236 4.989 1.5461C4.95639 1.53931 4.9165 1.53374 4.8705 1.5273L4.84002 1.74529C4.88885 1.75212 4.92024 1.75651 4.94419 1.76164C4.95659 1.76359 4.96864 1.76729 4.97999 1.77264L5.08856 1.58113ZM5.23726 1.75906C5.21078 1.68367 5.15788 1.62045 5.08834 1.5811L4.97999 1.77264C5.00312 1.7858 5.0207 1.80689 5.02947 1.83201L5.23726 1.75906ZM5.17567 3.90339C5.14738 4.10574 5.03986 4.28856 4.87677 4.41164C4.71368 4.53471 4.50838 4.58796 4.30603 4.55967L4.27554 4.77765C4.53571 4.81403 4.79967 4.74557 5.00936 4.58733C5.21904 4.42909 5.35728 4.19403 5.39366 3.93387L5.17567 3.90339ZM4.51939 3.03374C4.72174 3.06204 4.90457 3.16956 5.02764 3.33265C5.15072 3.49574 5.20396 3.70104 5.17567 3.90339L5.39366 3.93387C5.43004 3.67371 5.36158 3.40975 5.20334 3.20006C5.0451 2.99037 4.81004 2.85213 4.54987 2.81575L4.51939 3.03374ZM3.64975 3.69002C3.67804 3.48767 3.78556 3.30485 3.94865 3.18177C4.11174 3.0587 4.31704 3.00545 4.51939 3.03374L4.54987 2.81575C4.28971 2.77938 4.02575 2.84784 3.81606 3.00608C3.60638 3.16432 3.46814 3.39938 3.43176 3.65954L3.64975 3.69002ZM4.30603 4.55967C4.10368 4.53137 3.92085 4.42385 3.79778 4.26076C3.6747 4.09767 3.62145 3.89237 3.64975 3.69002L3.43176 3.65954C3.39538 3.9197 3.46384 4.18366 3.62208 4.39335C3.78032 4.60304 4.01538 4.74128 4.27554 4.77765L4.30603 4.55967Z" fill="white"/>
</g>
<defs>
<clipPath id="clip0_4294_6288">
<rect width="5.28263" height="5.28263" fill="white" transform="translate(1.12158 0.67041) rotate(7.95999)"/>
</clipPath>
</defs>
</svg>
