<svg width="19" height="19" viewBox="0 0 19 19" fill="none" xmlns="http://www.w3.org/2000/svg">
<g clip-path="url(#clip0_4238_6135)">
<path d="M19.3728 11.2607L19.3359 10.8937L19.3248 10.8944L19.3123 10.8966L19.3728 11.2607ZM19.3728 11.2607L19.4097 11.6285L19.4223 11.627L19.4341 11.6248L19.3728 11.2607ZM16.3892 15.3092L16.6234 15.0234L16.6197 15.0212L16.3892 15.3092ZM16.3892 15.3092L16.1551 15.595L16.1588 15.598L16.3892 15.3092ZM9.59793 15.3092L9.36382 15.0242L9.35865 15.0286L9.35275 15.0338L9.59793 15.3092ZM9.59793 15.3092L9.83204 15.5958L9.83795 15.5906L9.84312 15.5862L9.59793 15.3092ZM6.61362 8.10583V7.73657H6.5959L6.57743 7.73805L6.61362 8.10583ZM6.61362 8.10583V8.47508H6.63208L6.65055 8.47287L6.61362 8.10583ZM14.9373 3.26639C14.9264 3.13247 14.9109 2.99897 14.8908 2.86612C14.8742 2.74848 14.8388 2.63427 14.7859 2.52788L14.1294 2.86685C14.1368 2.88162 14.1494 2.91116 14.1619 2.98797C14.1759 3.06921 14.1863 3.17481 14.2033 3.3395L14.9373 3.26639ZM15.0821 4.15481C15.0732 4.14373 15.0466 4.09869 15.0178 3.94064C14.9833 3.7169 14.9574 3.49201 14.9388 3.26639L14.2033 3.3395C14.2328 3.63564 14.2572 3.88083 14.2911 4.07136C14.3244 4.25746 14.3761 4.44726 14.495 4.60309L15.0821 4.15481ZM15.4248 4.2966C15.3602 4.30529 15.2945 4.29675 15.2343 4.27185C15.1742 4.24694 15.1216 4.20657 15.0821 4.15481L14.4942 4.60235C14.6128 4.75787 14.7705 4.87921 14.9512 4.95406C15.1319 5.0289 15.3292 5.05457 15.523 5.02847L15.4248 4.2966ZM16.1544 3.77005C15.9144 3.96723 15.7504 4.1009 15.6212 4.19026C15.489 4.28183 15.4381 4.29439 15.4248 4.2966L15.523 5.02847C15.7165 5.00262 15.8871 4.90514 16.0429 4.79657C16.2017 4.6858 16.3915 4.53071 16.6226 4.34165L16.1544 3.77005ZM16.7836 3.35575C16.6655 3.39341 16.5658 3.45323 16.4712 3.52043C16.3796 3.58542 16.2755 3.67109 16.1544 3.77005L16.6226 4.34165C16.7504 4.23679 16.8331 4.16958 16.8996 4.12232C16.9328 4.09603 16.9696 4.07464 17.0089 4.05881L16.7836 3.35575ZM17.5613 3.39415C17.3152 3.28767 17.0389 3.27403 16.7836 3.35575L17.0089 4.05881C17.0938 4.03191 17.1856 4.03663 17.2673 4.0721L17.5613 3.39415ZM18.1462 3.86975C18.0354 3.75897 17.9401 3.66297 17.8559 3.58911C17.7688 3.50878 17.6693 3.44295 17.5613 3.39415L17.2673 4.0721C17.2828 4.07875 17.3109 4.09425 17.37 4.14595C17.4313 4.19912 17.5066 4.27445 17.624 4.39187L18.1462 3.86975ZM18.8056 4.52923L18.1462 3.86975L17.624 4.39187L18.2835 5.05136L18.8056 4.52923ZM19.2812 5.11413C19.2322 5.00606 19.1661 4.90657 19.0855 4.81947C19.0117 4.73528 18.9157 4.64001 18.8056 4.52923L18.2835 5.05136C18.4009 5.16878 18.4755 5.24411 18.5302 5.30541C18.5819 5.36449 18.5967 5.39255 18.6033 5.40806L19.2812 5.11413ZM19.3196 5.89178C19.4014 5.63646 19.3877 5.36016 19.2812 5.11413L18.6033 5.40806C18.6385 5.48988 18.643 5.58168 18.6159 5.66654L19.3196 5.89178ZM18.9053 6.52099C19.0043 6.39988 19.09 6.29575 19.155 6.20417C19.2214 6.10964 19.282 6.00994 19.3196 5.89178L18.6159 5.66654C18.6002 5.70578 18.5791 5.74258 18.5531 5.77584C18.4827 5.87032 18.4096 5.96267 18.3337 6.05278L18.9053 6.52099ZM18.3788 7.25064C18.381 7.23734 18.3936 7.18639 18.4851 7.05419C18.5745 6.92495 18.7082 6.76101 18.9053 6.52099L18.3337 6.05278C18.1447 6.28393 17.9889 6.47373 17.8788 6.63251C17.7703 6.78759 17.6728 6.95893 17.6469 7.15241L18.3788 7.25064ZM18.5206 7.5933C18.4688 7.55377 18.4285 7.50124 18.4035 7.44106C18.3786 7.38088 18.3701 7.31518 18.3788 7.25064L17.6469 7.15241C17.621 7.34613 17.6467 7.54326 17.7215 7.72381C17.7964 7.90435 17.9176 8.06189 18.073 8.18042L18.5206 7.5933ZM19.409 7.73731C19.0996 7.7063 18.8898 7.68562 18.7348 7.65755C18.5767 7.62875 18.5317 7.60217 18.5206 7.5933L18.073 8.18042C18.2281 8.29858 18.4179 8.35027 18.6048 8.38425C18.7946 8.41822 19.039 8.44333 19.3359 8.47287L19.409 7.73731ZM20.1475 7.88945C20.0411 7.83658 19.9269 7.80117 19.8093 7.78458C19.6985 7.76611 19.5641 7.75282 19.409 7.73731L19.3352 8.47213C19.5006 8.48911 19.6062 8.49945 19.6874 8.51348C19.7291 8.51852 19.7699 8.52946 19.8085 8.54598L20.1475 7.88945ZM20.6696 8.46622C20.5711 8.21716 20.3856 8.01225 20.1475 7.88945L19.8085 8.54598C19.8879 8.58681 19.9499 8.65502 19.9828 8.73799L20.6696 8.46622ZM20.7472 9.21581C20.7472 9.05998 20.7472 8.92483 20.7398 8.81258C20.7351 8.69412 20.7114 8.57718 20.6696 8.46622L19.9828 8.73799C19.9887 8.7535 19.9976 8.78452 20.0028 8.86206C20.0083 8.98013 20.0103 9.09835 20.0087 9.21654L20.7472 9.21581ZM20.7472 10.1493V9.21581H20.0087V10.1493H20.7472ZM20.6696 10.8981C20.7154 10.7829 20.7324 10.6677 20.7398 10.5518C20.7472 10.4403 20.7472 10.3051 20.7472 10.1493H20.0087C20.0087 10.3147 20.0087 10.4211 20.0028 10.503C20.002 10.5451 19.9953 10.5869 19.9828 10.6271L20.6696 10.8981ZM20.1475 11.4756C20.3857 11.3526 20.5712 11.1475 20.6696 10.8981L19.9828 10.6271C19.9499 10.7101 19.8879 10.7783 19.8085 10.8191L20.1475 11.4756ZM19.409 11.6278C19.5641 11.6123 19.6992 11.5982 19.8093 11.5798C19.9237 11.5613 20.0367 11.5325 20.1468 11.4764L19.8085 10.8191C19.7699 10.8356 19.7291 10.8466 19.6874 10.8516C19.6062 10.8656 19.5006 10.876 19.3359 10.893L19.409 11.6278ZM18.5213 11.7718C18.5324 11.7629 18.5774 11.7356 18.7355 11.7075C18.8906 11.6795 19.1003 11.6581 19.409 11.6278L19.3359 10.893C19.0398 10.9225 18.7946 10.9461 18.604 10.9808C18.4179 11.0141 18.2289 11.0658 18.073 11.1839L18.5213 11.7718ZM18.3788 12.1144C18.3702 12.0498 18.3788 11.9841 18.4039 11.9239C18.4289 11.8637 18.4694 11.8112 18.5213 11.7718L18.073 11.1839C17.9175 11.3025 17.7962 11.4602 17.7213 11.6409C17.6465 11.8216 17.6208 12.0188 17.6469 12.2127L18.3788 12.1144ZM18.9053 12.8441C18.759 12.6714 18.6189 12.4935 18.4851 12.3109C18.3936 12.1794 18.381 12.1277 18.3788 12.1144L17.6477 12.2134C17.6735 12.4069 17.771 12.5768 17.8788 12.7326C17.9896 12.8906 18.1447 13.0812 18.3337 13.3116L18.9053 12.8441ZM19.3196 13.4733C19.2819 13.3608 19.2263 13.2551 19.155 13.1602C19.075 13.0523 18.9917 12.9469 18.9053 12.8441L18.3337 13.3116C18.4386 13.4401 18.5058 13.522 18.5531 13.5892C18.579 13.6223 18.6002 13.6588 18.6159 13.6978L19.3196 13.4733ZM19.2812 14.251C19.3877 14.0049 19.4014 13.7286 19.3196 13.4733L18.6159 13.6978C18.6432 13.7829 18.6387 13.875 18.6033 13.957L19.2812 14.251ZM18.8064 14.8351C18.9164 14.7251 19.0117 14.6298 19.0855 14.5456C19.1623 14.4577 19.2318 14.3654 19.2812 14.251L18.6033 13.957C18.5837 13.9943 18.5588 14.0287 18.5294 14.0589C18.45 14.1461 18.368 14.2308 18.2835 14.313L18.8064 14.8351ZM18.1462 15.4953L18.8064 14.8351L18.2835 14.313L17.624 14.9732L18.1462 15.4953ZM17.5613 15.9702C17.675 15.9207 17.768 15.852 17.8559 15.7752C17.9401 15.7014 18.0354 15.6054 18.1462 15.4946L17.624 14.9732C17.5066 15.0906 17.4313 15.1652 17.37 15.2191C17.3395 15.2485 17.3049 15.2734 17.2673 15.293L17.5613 15.9702ZM16.7836 16.0093C17.039 16.0908 17.3153 16.0769 17.5613 15.9702L17.2673 15.293C17.1855 15.3282 17.0937 15.3327 17.0089 15.3055L16.7836 16.0093ZM16.1544 15.5943C16.2755 15.6933 16.3796 15.7789 16.4712 15.8439C16.5658 15.9111 16.6655 15.9717 16.7836 16.0093L17.0089 15.3055C16.9696 15.2899 16.9328 15.2688 16.8996 15.2428C16.8051 15.1722 16.7127 15.0988 16.6226 15.0227L16.1544 15.5943ZM15.4248 15.0685C15.4381 15.07 15.4897 15.0833 15.6212 15.1748C15.7504 15.2642 15.9144 15.3979 16.1544 15.5943L16.6226 15.0227C16.3915 14.8344 16.2017 14.6785 16.0429 14.5678C15.8878 14.46 15.7165 14.3625 15.523 14.3366L15.4248 15.0685ZM15.0821 15.2103C15.1216 15.1585 15.1742 15.1181 15.2343 15.0932C15.2945 15.0683 15.3602 15.0598 15.4248 15.0685L15.523 14.3366C15.3293 14.3106 15.1322 14.3362 14.9517 14.4109C14.7712 14.4856 14.6136 14.6067 14.495 14.762L15.0821 15.2103ZM14.9381 16.0987C14.9691 15.7893 14.9898 15.5795 15.0178 15.4244C15.0466 15.2664 15.0732 15.2214 15.0821 15.2103L14.495 14.762C14.3768 14.9171 14.3251 15.1076 14.2911 15.2937C14.2572 15.4835 14.2321 15.728 14.2025 16.0248L14.9381 16.0987ZM14.7859 16.8372C14.8428 16.7264 14.8709 16.6134 14.8901 16.499C14.9093 16.3882 14.9226 16.2538 14.9381 16.0987L14.2025 16.0248C14.1923 16.1427 14.1792 16.2601 14.1619 16.3771C14.1569 16.4188 14.1459 16.4596 14.1294 16.4982L14.7859 16.8372ZM14.2092 17.3593C14.4582 17.2607 14.6631 17.0753 14.7859 16.8372L14.1294 16.4982C14.0886 16.5776 14.0204 16.6395 13.9374 16.6725L14.2092 17.3593ZM13.4596 17.4369C13.6154 17.4369 13.7506 17.4369 13.8628 17.4295C13.978 17.4221 14.094 17.4051 14.2092 17.3593L13.9374 16.6725C13.8972 16.685 13.8554 16.6917 13.8133 16.6925C13.7321 16.6984 13.625 16.6984 13.4589 16.6984L13.4596 17.4369ZM12.5261 17.4369H13.4596L13.4589 16.6984H12.5261V17.4369ZM11.7765 17.3593C11.8925 17.4051 12.0077 17.4221 12.1236 17.4295C12.2351 17.4369 12.3703 17.4369 12.5261 17.4369V16.6984C12.3607 16.6984 12.2543 16.6984 12.1724 16.6925C12.1303 16.6917 12.0885 16.685 12.0483 16.6725L11.7765 17.3593ZM11.1998 16.8372C11.3226 17.0753 11.5275 17.2607 11.7765 17.3593L12.0483 16.6725C11.9653 16.6395 11.8971 16.5776 11.8563 16.4982L11.1998 16.8372ZM11.0476 16.0987C11.0624 16.2548 11.0781 16.3882 11.0949 16.499C11.1141 16.6134 11.1429 16.7264 11.1998 16.8372L11.8563 16.4982C11.8398 16.4596 11.8288 16.4188 11.8238 16.3771C11.8065 16.2604 11.7927 16.1431 11.7824 16.0256L11.0476 16.0987ZM10.9036 15.2103C10.9125 15.2214 10.9391 15.2664 10.9679 15.4244C10.9959 15.5795 11.0166 15.79 11.0476 16.0987L11.7824 16.0256C11.7529 15.7294 11.7285 15.4843 11.6946 15.2937C11.6613 15.1076 11.6096 14.9178 11.4907 14.762L10.9036 15.2103ZM10.5609 15.0685C10.6255 15.0598 10.6912 15.0683 10.7514 15.0932C10.8116 15.1181 10.8641 15.1585 10.9036 15.2103L11.4907 14.762C11.3722 14.6066 11.2147 14.4861 11.0341 14.4112C10.8536 14.3364 10.6564 14.3106 10.4627 14.3366L10.5609 15.0685ZM9.8313 15.595C10.0713 15.3979 10.2353 15.2642 10.3645 15.1748C10.4967 15.0833 10.5477 15.07 10.5609 15.0685L10.4627 14.3366C10.2692 14.3625 10.0986 14.4599 9.94281 14.5685C9.78404 14.6785 9.59424 14.8344 9.36309 15.0234L9.8313 15.595ZM9.20209 16.0093C9.32025 15.9717 9.41995 15.9119 9.51448 15.8447C9.60605 15.7797 9.71018 15.694 9.8313 15.595L9.36309 15.0234C9.27298 15.0993 9.18062 15.1724 9.08615 15.2428C9.05289 15.2688 9.01608 15.2899 8.97685 15.3055L9.20209 16.0093ZM8.42444 15.9717C8.67047 16.0782 8.94677 16.0911 9.20209 16.0093L8.97685 15.3055C8.89199 15.3327 8.80019 15.3282 8.71837 15.293L8.42444 15.9717ZM7.83954 15.4953C7.95032 15.6061 8.04559 15.7021 8.12978 15.776C8.21692 15.852 8.31071 15.9222 8.42444 15.9717L8.71837 15.293C8.6808 15.2734 8.64623 15.2485 8.61572 15.2191C8.5286 15.1397 8.44388 15.0577 8.36167 14.9732L7.83954 15.4953ZM7.18006 14.8358L7.83954 15.4953L8.36167 14.9732L7.70218 14.3137L7.18006 14.8358ZM6.70446 14.251C6.75394 14.3647 6.82336 14.4577 6.90016 14.5456C6.97401 14.6298 7.07002 14.7251 7.18006 14.8358L7.70218 14.3137C7.61744 14.2315 7.53518 14.1468 7.45552 14.0597C7.42612 14.0292 7.40125 13.9946 7.38167 13.957L6.70446 14.251ZM6.66605 13.4733C6.58434 13.7286 6.59798 14.0049 6.70446 14.251L7.38167 13.957C7.3462 13.8753 7.34222 13.7835 7.36911 13.6985L6.66605 13.4733ZM7.08036 12.8441C6.9814 12.9652 6.89573 13.0693 6.83074 13.1609C6.7595 13.2556 6.70389 13.361 6.66605 13.4733L7.36911 13.6985C7.38495 13.6593 7.40634 13.6225 7.43263 13.5892C7.47989 13.5228 7.5471 13.4401 7.65196 13.3123L7.08036 12.8441ZM7.60691 12.1144C7.6047 12.1277 7.59214 12.1787 7.50057 12.3109C7.41047 12.4401 7.27754 12.6041 7.08036 12.8441L7.65196 13.3123C7.84102 13.0812 7.99685 12.8914 8.10688 12.7326C8.21544 12.5775 8.31293 12.4062 8.33878 12.2127L7.60691 12.1144ZM7.46512 11.7718C7.51688 11.8113 7.55725 11.8638 7.58215 11.924C7.60706 11.9842 7.6156 12.0499 7.60691 12.1144L8.33878 12.2127C8.36475 12.019 8.33901 11.8218 8.26417 11.6413C8.18933 11.4607 8.06806 11.3032 7.91266 11.1847L7.46512 11.7718ZM6.5767 11.6285C6.88613 11.6588 7.09587 11.6795 7.25095 11.7075C7.40899 11.7363 7.45404 11.7629 7.46512 11.7718L7.91266 11.1839C7.75757 11.0658 7.56777 11.0141 7.38093 10.9808C7.19113 10.9469 6.94669 10.9218 6.64981 10.8922L6.5767 11.6285ZM5.83819 11.4756C5.94896 11.5325 6.06196 11.5606 6.17642 11.5798C6.2872 11.599 6.42087 11.613 6.5767 11.6285L6.65055 10.893C6.53274 10.8827 6.41526 10.8689 6.29828 10.8516C6.25657 10.8466 6.21579 10.8356 6.17716 10.8191L5.83819 11.4756ZM5.31606 10.8981C5.4145 11.1475 5.6 11.3526 5.83819 11.4756L6.17716 10.8191C6.09776 10.7783 6.03585 10.7101 6.00287 10.6271L5.31606 10.8981ZM5.23926 10.1508C5.23926 10.3066 5.23926 10.4417 5.24664 10.554C5.25142 10.6722 5.27511 10.7889 5.3168 10.8996L6.00361 10.6286C5.99111 10.5884 5.98439 10.5466 5.98367 10.5045C5.97816 10.3864 5.97619 10.2682 5.97777 10.15L5.23926 10.1508ZM5.23926 9.21728V10.1508H5.97777V9.21728H5.23926ZM5.3168 8.4677C5.27495 8.57889 5.25127 8.69608 5.24664 8.8148C5.23926 8.92631 5.23926 9.06146 5.23926 9.21728H5.97777C5.97777 9.05186 5.97777 8.94551 5.98367 8.86354C5.98439 8.82144 5.99111 8.77967 6.00361 8.73947L5.3168 8.4677ZM5.83893 7.89092C5.60088 8.01373 5.41539 8.21864 5.3168 8.4677L6.00361 8.73947C6.03659 8.6565 6.0985 8.58828 6.1779 8.54746L5.83893 7.89092ZM6.57743 7.73805C6.42136 7.75282 6.28794 7.76931 6.17716 7.78605C6.05952 7.80265 5.94532 7.83806 5.83893 7.89092L6.1779 8.54746C6.19267 8.54007 6.22221 8.52752 6.29902 8.51496C6.38025 8.50093 6.48586 8.49059 6.65055 8.47361L6.57743 7.73805ZM7.46586 7.59478C7.45478 7.60364 7.40973 7.63023 7.25169 7.65903C7.09661 7.68709 6.88687 7.70703 6.57743 7.73805L6.65055 8.47361C6.94669 8.44407 7.19261 8.41969 7.38241 8.38572C7.56925 8.35249 7.75905 8.30079 7.91413 8.18189L7.46586 7.59478ZM7.60765 7.25211C7.61634 7.31666 7.6078 7.38236 7.58289 7.44254C7.55799 7.50272 7.51761 7.55524 7.46586 7.59478L7.91413 8.18189C8.0694 8.06328 8.19053 7.90571 8.26524 7.72517C8.33994 7.54462 8.36557 7.3468 8.33951 7.15315L7.60765 7.25211ZM7.0811 6.52173C7.27828 6.76248 7.41195 6.92643 7.50205 7.05567C7.59362 7.18786 7.60544 7.23882 7.60765 7.25211L8.33951 7.15315C8.31367 6.95966 8.21618 6.78981 8.10762 6.63398C7.99758 6.4752 7.84176 6.28541 7.6527 6.05425L7.0811 6.52173ZM6.66679 5.89252C6.70372 6.01068 6.76428 6.11112 6.83148 6.20565C6.89647 6.29648 6.98214 6.40135 7.0811 6.52173L7.6527 6.05425C7.57683 5.9639 7.50369 5.8713 7.43336 5.77657C7.40714 5.74359 7.38575 5.70704 7.36985 5.66801L6.66679 5.89252ZM6.7052 5.11561C6.5989 5.36142 6.58526 5.63742 6.66679 5.89252L7.36985 5.66801C7.34295 5.58307 7.34768 5.49127 7.38315 5.40954L6.7052 5.11561ZM7.1808 4.53071C7.07002 4.64075 6.97401 4.73602 6.90016 4.82095C6.81983 4.9081 6.754 5.00759 6.7052 5.11561L7.38315 5.40954C7.40279 5.37222 7.42766 5.33717 7.457 5.30688C7.53605 5.21942 7.61807 5.13469 7.70292 5.05284L7.1808 4.53071ZM7.84028 3.87049L7.1808 4.53071L7.70292 5.05284L8.36241 4.39261L7.84028 3.87049ZM8.42518 3.39563C8.31716 3.44443 8.21767 3.51026 8.13052 3.59059C8.04633 3.66444 7.95032 3.75971 7.84028 3.87049L8.36241 4.39261C8.47983 4.27593 8.55516 4.2006 8.61645 4.14669C8.67553 4.09499 8.7036 4.08022 8.71911 4.07284L8.42518 3.39563ZM9.20283 3.35648C8.94742 3.275 8.67112 3.28891 8.42518 3.39563L8.71911 4.07284C8.80084 4.03737 8.89264 4.03338 8.97758 4.06028L9.20283 3.35648ZM9.83204 3.77153C9.71092 3.67257 9.60679 3.5869 9.51522 3.52191C9.42061 3.4504 9.31514 3.39455 9.20283 3.35648L8.97758 4.06028C9.01682 4.07589 9.05363 4.09703 9.08688 4.12306C9.15335 4.17106 9.23606 4.23826 9.36456 4.34313L9.83204 3.77153ZM10.5617 4.29808C10.5484 4.29587 10.4974 4.28331 10.3652 4.19174C10.1826 4.05775 10.0048 3.91809 9.83204 3.77153L9.36456 4.34313C9.59498 4.53219 9.78551 4.68801 9.94355 4.79805C10.0986 4.90587 10.27 5.00336 10.4635 5.02994L10.5617 4.29808ZM10.9044 4.15555C10.8649 4.20744 10.8124 4.24796 10.7522 4.27299C10.692 4.29803 10.6263 4.30668 10.5617 4.29808L10.4635 5.02994C10.6572 5.05613 10.8545 5.02984 11.0351 4.95512C11.2158 4.88041 11.3735 4.75921 11.4922 4.60382L10.9044 4.15555ZM11.0484 3.26786C11.0173 3.57656 10.9967 3.78703 10.9686 3.94138C10.9398 4.09942 10.9132 4.14447 10.9044 4.15555L11.4922 4.60382C11.6104 4.44874 11.6621 4.25894 11.6953 4.0721C11.7293 3.8823 11.7544 3.63786 11.7839 3.34098L11.0484 3.26786ZM11.2005 2.52936C11.1436 2.64013 11.1148 2.75312 11.0956 2.86759C11.0772 2.97837 11.0639 3.11204 11.0484 3.26786L11.7832 3.34171C11.7934 3.2239 11.8072 3.10643 11.8245 2.98945C11.8296 2.94774 11.8405 2.90696 11.857 2.86833L11.2005 2.52936ZM11.778 2.00723C11.5285 2.10585 11.3233 2.29089 11.2005 2.52936L11.857 2.86833C11.8979 2.78893 11.9661 2.72702 12.049 2.69404L11.778 2.00723ZM12.5269 1.92969C12.371 1.92969 12.2359 1.92969 12.1236 1.93707C12.0054 1.94185 11.8887 1.96554 11.778 2.00723L12.049 2.69404C12.0892 2.68154 12.131 2.67482 12.1731 2.6741C12.2543 2.6682 12.3614 2.6682 12.5276 2.6682L12.5269 1.92969ZM13.4603 1.92969H12.5269V2.6682H13.4603V1.92969ZM14.2099 2.00723C14.0987 1.96538 13.9815 1.94169 13.8628 1.93707C13.7513 1.92969 13.6162 1.92969 13.4603 1.92969V2.6682C13.6258 2.6682 13.7321 2.6682 13.8141 2.6741C13.8562 2.67482 13.8979 2.68154 13.9381 2.69404L14.2099 2.00723ZM14.7867 2.52936C14.6637 2.29117 14.4585 2.10566 14.2092 2.00723L13.9381 2.69404C14.0211 2.72702 14.0893 2.78893 14.1302 2.86833L14.7867 2.52936ZM15.5784 9.68328C15.5784 10.3688 15.306 11.0263 14.8213 11.511C14.3366 11.9957 13.6791 12.2681 12.9936 12.2681V13.0066C13.875 13.0066 14.7203 12.6564 15.3435 12.0332C15.9667 11.41 16.3169 10.5647 16.3169 9.68328H15.5784ZM12.9936 7.0985C13.6791 7.0985 14.3366 7.37083 14.8213 7.85557C15.306 8.34031 15.5784 8.99776 15.5784 9.68328H16.3169C16.3169 8.80189 15.9667 7.9566 15.3435 7.33336C14.7203 6.71013 13.875 6.36 12.9936 6.36V7.0985ZM10.4088 9.68328C10.4088 8.99776 10.6811 8.34031 11.1659 7.85557C11.6506 7.37083 12.3081 7.0985 12.9936 7.0985V6.36C12.1122 6.36 11.2669 6.71013 10.6437 7.33336C10.0204 7.9566 9.67031 8.80189 9.67031 9.68328H10.4088ZM12.9936 12.2681C12.3081 12.2681 11.6506 11.9957 11.1659 11.511C10.6811 11.0263 10.4088 10.3688 10.4088 9.68328H9.67031C9.67031 10.5647 10.0204 11.41 10.6437 12.0332C11.2669 12.6564 12.1122 13.0066 12.9936 13.0066V12.2681Z" fill="white"/>
</g>
<defs>
<clipPath id="clip0_4238_6135">
<rect width="17.7242" height="17.7242" fill="white" transform="translate(0.606934 0.82312)"/>
</clipPath>
</defs>
</svg>
