<svg width="8" height="8" viewBox="0 0 8 8" fill="none" xmlns="http://www.w3.org/2000/svg">
<g clip-path="url(#clip0_4299_6883)">
<path d="M7.55372 5.06298L7.5393 4.91968L7.53498 4.91997L7.53008 4.92083L7.55372 5.06298ZM7.55372 5.06298L7.56813 5.20657L7.57304 5.20599L7.57765 5.20513L7.55372 5.06298ZM6.38886 6.64361L6.48026 6.53203L6.47882 6.53116L6.38886 6.64361ZM6.38886 6.64361L6.29746 6.75519L6.2989 6.75635L6.38886 6.64361ZM3.73737 6.64361L3.64597 6.53231L3.64395 6.53404L3.64165 6.53606L3.73737 6.64361ZM3.73737 6.64361L3.82877 6.75548L3.83108 6.75346L3.8331 6.75173L3.73737 6.64361ZM2.57223 3.83123V3.68707H2.56531L2.5581 3.68764L2.57223 3.83123ZM2.57223 3.83123V3.9754H2.57944L2.58664 3.97453L2.57223 3.83123ZM5.822 1.9418C5.81773 1.88952 5.81167 1.8374 5.80384 1.78553C5.79736 1.7396 5.78354 1.69501 5.7629 1.65347L5.50657 1.78581C5.50945 1.79158 5.51435 1.80311 5.51926 1.8331C5.52473 1.86482 5.52877 1.90605 5.5354 1.97035L5.822 1.9418ZM5.87852 2.28866C5.87506 2.28434 5.86468 2.26675 5.85343 2.20505C5.83995 2.11769 5.82985 2.02989 5.82258 1.9418L5.5354 1.97035C5.54694 2.08597 5.55645 2.18169 5.56971 2.25608C5.58269 2.32874 5.60287 2.40284 5.64929 2.46368L5.87852 2.28866ZM6.0123 2.34402C5.9871 2.34741 5.96145 2.34408 5.93796 2.33436C5.91446 2.32463 5.89395 2.30887 5.87852 2.28866L5.64901 2.46339C5.69531 2.52411 5.75686 2.57149 5.82741 2.60071C5.89795 2.62993 5.97498 2.63995 6.05065 2.62976L6.0123 2.34402ZM6.29717 2.13844C6.20347 2.21543 6.13946 2.26761 6.089 2.3025C6.03739 2.33826 6.01749 2.34316 6.0123 2.34402L6.05065 2.62976C6.12619 2.61967 6.1928 2.58161 6.25363 2.53922C6.31563 2.49597 6.38973 2.43542 6.47997 2.36161L6.29717 2.13844ZM6.54283 1.97669C6.4967 1.99139 6.45777 2.01475 6.42087 2.04099C6.38511 2.06636 6.34446 2.09981 6.29717 2.13844L6.47997 2.36161C6.52986 2.32067 6.56215 2.29443 6.5881 2.27598C6.60106 2.26571 6.61544 2.25736 6.63077 2.25118L6.54283 1.97669ZM6.84644 1.99168C6.75039 1.95011 6.64251 1.94478 6.54283 1.97669L6.63077 2.25118C6.66393 2.24068 6.69978 2.24252 6.73169 2.25637L6.84644 1.99168ZM7.0748 2.17737C7.03155 2.13412 6.99436 2.09663 6.96149 2.0678C6.92746 2.03644 6.88862 2.01074 6.84644 1.99168L6.73169 2.25637C6.73774 2.25896 6.7487 2.26502 6.77177 2.2852C6.7957 2.30596 6.82511 2.33537 6.87095 2.38122L7.0748 2.17737ZM7.33228 2.43485L7.0748 2.17737L6.87095 2.38122L7.12843 2.6387L7.33228 2.43485ZM7.51797 2.6632C7.49882 2.62101 7.47302 2.58217 7.44156 2.54816C7.41272 2.51529 7.37524 2.4781 7.33228 2.43485L7.12843 2.6387C7.17427 2.68454 7.2034 2.71395 7.22473 2.73788C7.24492 2.76095 7.25068 2.7719 7.25328 2.77796L7.51797 2.6632ZM7.53296 2.96682C7.56486 2.86713 7.55954 2.75926 7.51797 2.6632L7.25328 2.77796C7.26703 2.80991 7.26877 2.84575 7.25818 2.87888L7.53296 2.96682ZM7.3712 3.21247C7.40984 3.16519 7.44329 3.12453 7.46866 3.08878C7.49461 3.05187 7.51825 3.01295 7.53296 2.96682L7.25818 2.87888C7.25209 2.89419 7.24383 2.90856 7.23367 2.92155C7.20621 2.95843 7.17765 2.99449 7.14804 3.02967L7.3712 3.21247ZM7.16563 3.49734C7.16649 3.49215 7.17139 3.47226 7.20714 3.42065C7.24203 3.37019 7.29422 3.30618 7.3712 3.21247L7.14804 3.02967C7.07422 3.11992 7.01339 3.19402 6.97043 3.25601C6.92804 3.31656 6.88998 3.38345 6.87989 3.459L7.16563 3.49734ZM7.22098 3.63113C7.20078 3.61569 7.18501 3.59519 7.17529 3.57169C7.16557 3.54819 7.16223 3.52255 7.16563 3.49734L6.87989 3.459C6.86975 3.53463 6.8798 3.61159 6.90902 3.68208C6.93824 3.75257 6.98558 3.81408 7.04626 3.86035L7.22098 3.63113ZM7.56785 3.68735C7.44704 3.67524 7.36515 3.66717 7.3046 3.65621C7.2429 3.64497 7.22531 3.63459 7.22098 3.63113L7.04626 3.86035C7.10681 3.90649 7.18091 3.92667 7.25385 3.93993C7.32796 3.9532 7.42339 3.963 7.5393 3.97453L7.56785 3.68735ZM7.85618 3.74675C7.81464 3.72611 7.77005 3.71229 7.72412 3.70581C7.68087 3.6986 7.6284 3.69341 7.56785 3.68735L7.53901 3.97424C7.6036 3.98087 7.64483 3.98491 7.67655 3.99039C7.69283 3.99236 7.70875 3.99663 7.72383 4.00308L7.85618 3.74675ZM8.06003 3.97194C8.02154 3.8747 7.94912 3.7947 7.85618 3.74675L7.72383 4.00308C7.75483 4.01902 7.77901 4.04565 7.79188 4.07804L8.06003 3.97194ZM8.0903 4.26459C8.0903 4.20375 8.0903 4.15099 8.08742 4.10716C8.08558 4.06091 8.07633 4.01526 8.06003 3.97194L7.79188 4.07804C7.79419 4.0841 7.79765 4.09621 7.79966 4.12648C7.80182 4.17258 7.80259 4.21873 7.80197 4.26488L8.0903 4.26459ZM8.0903 4.62904V4.26459H7.80197V4.62904H8.0903ZM8.06003 4.92141C8.0779 4.87643 8.08454 4.83145 8.08742 4.78618C8.0903 4.74264 8.0903 4.68988 8.0903 4.62904H7.80197C7.80197 4.69363 7.80197 4.73515 7.79966 4.76715C7.79938 4.78359 7.79676 4.7999 7.79188 4.81559L8.06003 4.92141ZM7.85618 5.14688C7.94917 5.09887 8.0216 5.01876 8.06003 4.92141L7.79188 4.81559C7.77901 4.84799 7.75483 4.87462 7.72383 4.89056L7.85618 5.14688ZM7.56785 5.20628C7.6284 5.20023 7.68116 5.19475 7.72412 5.18754C7.76881 5.18033 7.81293 5.16909 7.85589 5.14717L7.72383 4.89056C7.70875 4.89701 7.69283 4.90128 7.67655 4.90324C7.64483 4.90872 7.6036 4.91276 7.5393 4.91939L7.56785 5.20628ZM7.22127 5.2625C7.2256 5.25904 7.24319 5.24838 7.30489 5.23742C7.36544 5.22646 7.44732 5.2181 7.56785 5.20628L7.5393 4.91939C7.42368 4.93092 7.32796 4.94015 7.25357 4.9537C7.18091 4.96668 7.10709 4.98686 7.04626 5.03299L7.22127 5.2625ZM7.16563 5.39629C7.16227 5.37106 7.16565 5.3454 7.17542 5.3219C7.18519 5.2984 7.20101 5.27791 7.22127 5.2625L7.04626 5.03299C6.98554 5.0793 6.93816 5.14085 6.90894 5.21139C6.87972 5.28194 6.8697 5.35896 6.87989 5.43464L7.16563 5.39629ZM7.3712 5.68116C7.31408 5.61373 7.25936 5.54429 7.20714 5.47299C7.17139 5.42166 7.16649 5.40148 7.16563 5.39629L6.88018 5.43493C6.89027 5.51047 6.92833 5.57679 6.97043 5.63762C7.01367 5.69933 7.07422 5.77372 7.14804 5.86367L7.3712 5.68116ZM7.53296 5.92682C7.51821 5.88289 7.4965 5.84161 7.46866 5.80457C7.43743 5.76246 7.40493 5.7213 7.3712 5.68116L7.14804 5.86367C7.18898 5.91384 7.21522 5.94585 7.23367 5.97209C7.24381 5.98498 7.25206 5.99925 7.25818 6.01447L7.53296 5.92682ZM7.51797 6.23043C7.55954 6.13438 7.56486 6.0265 7.53296 5.92682L7.25818 6.01447C7.26884 6.04769 7.2671 6.08365 7.25328 6.11568L7.51797 6.23043ZM7.33257 6.4585C7.37553 6.41554 7.41272 6.37834 7.44156 6.34547C7.47154 6.31116 7.49865 6.27512 7.51797 6.23043L7.25328 6.11568C7.24561 6.13024 7.2359 6.14364 7.22444 6.15546C7.19344 6.18948 7.16142 6.22255 7.12843 6.25465L7.33257 6.4585ZM7.0748 6.71627L7.33257 6.4585L7.12843 6.25465L6.87095 6.51242L7.0748 6.71627ZM6.84644 6.90166C6.89085 6.88235 6.92718 6.85553 6.96149 6.82555C6.99436 6.79671 7.03155 6.75923 7.0748 6.71598L6.87095 6.51242C6.82511 6.55826 6.7957 6.58738 6.77177 6.60843C6.75985 6.61991 6.74636 6.62962 6.73169 6.63727L6.84644 6.90166ZM6.54283 6.91695C6.64255 6.94876 6.75042 6.94333 6.84644 6.90166L6.73169 6.63727C6.69974 6.65102 6.6639 6.65276 6.63077 6.64217L6.54283 6.91695ZM6.29717 6.7549C6.34446 6.79354 6.38511 6.82699 6.42087 6.85236C6.45777 6.8786 6.4967 6.90224 6.54283 6.91695L6.63077 6.64217C6.61545 6.63607 6.60108 6.62782 6.5881 6.61766C6.55121 6.5901 6.51515 6.56145 6.47997 6.53174L6.29717 6.7549ZM6.0123 6.54961C6.01749 6.55019 6.03767 6.55538 6.089 6.59113C6.13946 6.62602 6.20347 6.67821 6.29717 6.7549L6.47997 6.53174C6.38973 6.45821 6.31563 6.39737 6.25363 6.35413C6.19309 6.31203 6.12619 6.27397 6.05065 6.26388L6.0123 6.54961ZM5.87852 6.60497C5.89395 6.58477 5.91446 6.569 5.93796 6.55928C5.96145 6.54956 5.9871 6.54622 6.0123 6.54961L6.05065 6.26388C5.97505 6.25371 5.8981 6.26371 5.82761 6.29288C5.75712 6.32204 5.6956 6.36934 5.64929 6.42996L5.87852 6.60497ZM5.82229 6.95183C5.8344 6.83102 5.84248 6.74914 5.85343 6.68859C5.86468 6.62689 5.87506 6.6093 5.87852 6.60497L5.64929 6.42996C5.60316 6.49051 5.58298 6.56489 5.56971 6.63755C5.55645 6.71166 5.54665 6.80709 5.53511 6.923L5.82229 6.95183ZM5.7629 7.24017C5.7851 7.19692 5.79605 7.1528 5.80355 7.10811C5.81105 7.06486 5.81624 7.01238 5.82229 6.95183L5.53511 6.923C5.53111 6.969 5.52601 7.01486 5.51926 7.06053C5.51729 7.07682 5.51302 7.09274 5.50657 7.10782L5.7629 7.24017ZM5.53771 7.44401C5.63495 7.40553 5.71495 7.33311 5.7629 7.24017L5.50657 7.10782C5.49063 7.13882 5.464 7.16299 5.4316 7.17587L5.53771 7.44401ZM5.24505 7.47429C5.30589 7.47429 5.35866 7.47429 5.40248 7.47141C5.44746 7.46852 5.49273 7.46189 5.53771 7.44401L5.4316 7.17587C5.41591 7.18075 5.3996 7.18337 5.38316 7.18365C5.35145 7.18596 5.30964 7.18596 5.24477 7.18596L5.24505 7.47429ZM4.8806 7.47429H5.24505L5.24477 7.18596H4.8806V7.47429ZM4.58795 7.44401C4.63322 7.46189 4.6782 7.46852 4.72346 7.47141C4.767 7.47429 4.81977 7.47429 4.8806 7.47429V7.18596C4.81602 7.18596 4.7745 7.18596 4.74249 7.18365C4.72606 7.18337 4.70975 7.18075 4.69405 7.17587L4.58795 7.44401ZM4.36276 7.24017C4.41071 7.33311 4.49071 7.40553 4.58795 7.44401L4.69405 7.17587C4.66166 7.16299 4.63503 7.13882 4.61909 7.10782L4.36276 7.24017ZM4.30337 6.95183C4.30913 7.01277 4.31528 7.06486 4.32182 7.10811C4.32932 7.1528 4.34056 7.19692 4.36276 7.24017L4.61909 7.10782C4.61264 7.09274 4.60837 7.07682 4.6064 7.06053C4.59965 7.01496 4.59426 6.96919 4.59025 6.92329L4.30337 6.95183ZM4.24714 6.60497C4.2506 6.6093 4.26098 6.62689 4.27223 6.68859C4.28318 6.74914 4.29126 6.83131 4.30337 6.95183L4.59025 6.92329C4.57872 6.80767 4.56921 6.71194 4.55594 6.63755C4.54297 6.56489 4.52279 6.49079 4.47636 6.42996L4.24714 6.60497ZM4.11336 6.54961C4.13856 6.54622 4.16421 6.54956 4.1877 6.55928C4.2112 6.569 4.2317 6.58477 4.24714 6.60497L4.47636 6.42996C4.43009 6.36928 4.36858 6.32222 4.29809 6.29301C4.2276 6.26379 4.15064 6.25374 4.07501 6.26388L4.11336 6.54961ZM3.82849 6.75519C3.92219 6.67821 3.9862 6.62602 4.03666 6.59113C4.08827 6.55538 4.10817 6.55019 4.11336 6.54961L4.07501 6.26388C3.99947 6.27397 3.93286 6.31203 3.87202 6.35441C3.81003 6.39737 3.73593 6.45821 3.64568 6.53203L3.82849 6.75519ZM3.58283 6.91695C3.62896 6.90224 3.66788 6.87889 3.70479 6.85265C3.74054 6.82728 3.7812 6.79383 3.82849 6.75519L3.64568 6.53203C3.6105 6.56164 3.57445 6.5902 3.53756 6.61766C3.52458 6.62782 3.51021 6.63607 3.49489 6.64217L3.58283 6.91695ZM3.27922 6.90224C3.37527 6.94381 3.48314 6.94885 3.58283 6.91695L3.49489 6.64217C3.46176 6.65276 3.42592 6.65102 3.39397 6.63727L3.27922 6.90224ZM3.05086 6.71627C3.09411 6.75952 3.1313 6.797 3.16417 6.82583C3.19819 6.85553 3.23481 6.88292 3.27922 6.90224L3.39397 6.63727C3.3793 6.62962 3.3658 6.61991 3.35389 6.60843C3.31988 6.57742 3.2868 6.54541 3.25471 6.51242L3.05086 6.71627ZM2.79338 6.45879L3.05086 6.71627L3.25471 6.51242L2.99723 6.25494L2.79338 6.45879ZM2.60769 6.23043C2.62701 6.27483 2.65411 6.31116 2.6841 6.34547C2.71293 6.37834 2.75042 6.41554 2.79338 6.45879L2.99723 6.25494C2.96414 6.22285 2.93203 6.18977 2.90093 6.15575C2.88945 6.14384 2.87974 6.13034 2.87209 6.11568L2.60769 6.23043ZM2.5927 5.92682C2.5608 6.0265 2.56612 6.13438 2.60769 6.23043L2.87209 6.11568C2.85824 6.08377 2.85669 6.04792 2.86719 6.01476L2.5927 5.92682ZM2.75445 5.68116C2.71582 5.72845 2.68237 5.7691 2.657 5.80485C2.62918 5.84181 2.60747 5.88299 2.5927 5.92682L2.86719 6.01476C2.87337 5.99942 2.88172 5.98505 2.89199 5.97209C2.91044 5.94614 2.93668 5.91384 2.97762 5.86396L2.75445 5.68116ZM2.96003 5.39629C2.95917 5.40148 2.95427 5.42137 2.91851 5.47299C2.88334 5.52344 2.83144 5.58745 2.75445 5.68116L2.97762 5.86396C3.05143 5.77372 3.11227 5.69961 3.15523 5.63762C3.19762 5.57707 3.23568 5.51018 3.24577 5.43464L2.96003 5.39629ZM2.90467 5.2625C2.92488 5.27794 2.94064 5.29845 2.95037 5.32194C2.96009 5.34544 2.96342 5.37109 2.96003 5.39629L3.24577 5.43464C3.25591 5.35901 3.24586 5.28204 3.21664 5.21155C3.18742 5.14106 3.14007 5.07956 3.0794 5.03328L2.90467 5.2625ZM2.55781 5.20657C2.67862 5.21839 2.76051 5.22646 2.82106 5.23742C2.88276 5.24866 2.90035 5.25904 2.90467 5.2625L3.0794 5.03299C3.01885 4.98686 2.94475 4.96668 2.8718 4.9537C2.7977 4.94044 2.70227 4.93064 2.58636 4.9191L2.55781 5.20657ZM2.26948 5.14688C2.31273 5.16909 2.35684 5.18004 2.40154 5.18754C2.44479 5.19504 2.49697 5.20051 2.55781 5.20657L2.58664 4.91939C2.54065 4.91539 2.49478 4.91 2.44911 4.90324C2.43283 4.90128 2.41691 4.89701 2.40182 4.89056L2.26948 5.14688ZM2.06563 4.92141C2.10406 5.01876 2.17649 5.09887 2.26948 5.14688L2.40182 4.89056C2.37083 4.87462 2.34665 4.84799 2.33378 4.81559L2.06563 4.92141ZM2.03564 4.62962C2.03564 4.69046 2.03564 4.74322 2.03853 4.78705C2.04039 4.8332 2.04964 4.87876 2.06592 4.92199L2.33407 4.81617C2.32918 4.80047 2.32656 4.78416 2.32628 4.76773C2.32413 4.72163 2.32336 4.67548 2.32398 4.62933L2.03564 4.62962ZM2.03564 4.26517V4.62962H2.32398V4.26517H2.03564ZM2.06592 3.97251C2.04958 4.01592 2.04033 4.06168 2.03853 4.10803C2.03564 4.15157 2.03564 4.20433 2.03564 4.26517H2.32398C2.32398 4.20058 2.32398 4.15906 2.32628 4.12706C2.32656 4.11062 2.32918 4.09431 2.33407 4.07862L2.06592 3.97251ZM2.26977 3.74733C2.17683 3.79527 2.10441 3.87527 2.06592 3.97251L2.33407 4.07862C2.34694 4.04623 2.37111 4.01959 2.40211 4.00365L2.26977 3.74733ZM2.5581 3.68764C2.49717 3.69341 2.44507 3.69985 2.40182 3.70638C2.3559 3.71286 2.31131 3.72669 2.26977 3.74733L2.40211 4.00365C2.40788 4.00077 2.41941 3.99587 2.4494 3.99097C2.48112 3.98549 2.52235 3.98145 2.58664 3.97482L2.5581 3.68764ZM2.90496 3.63171C2.90064 3.63517 2.88305 3.64555 2.82135 3.65679C2.7608 3.66775 2.67891 3.67553 2.5581 3.68764L2.58664 3.97482C2.70227 3.96329 2.79828 3.95377 2.87238 3.94051C2.94533 3.92753 3.01943 3.90735 3.07998 3.86093L2.90496 3.63171ZM2.96032 3.49792C2.96371 3.52312 2.96038 3.54877 2.95065 3.57227C2.94093 3.59576 2.92517 3.61627 2.90496 3.63171L3.07998 3.86093C3.1406 3.81462 3.18789 3.7531 3.21706 3.68261C3.24622 3.61212 3.25623 3.53489 3.24606 3.45928L2.96032 3.49792ZM2.75474 3.21276C2.83173 3.30676 2.88391 3.37077 2.91909 3.42123C2.95484 3.47284 2.95946 3.49273 2.96032 3.49792L3.24606 3.45928C3.23597 3.38374 3.19791 3.31743 3.15552 3.25659C3.11256 3.1946 3.05172 3.1205 2.97791 3.03025L2.75474 3.21276ZM2.59299 2.9671C2.6074 3.01324 2.63105 3.05245 2.65729 3.08936C2.68266 3.12482 2.71611 3.16576 2.75474 3.21276L2.97791 3.03025C2.94829 2.99497 2.91973 2.95882 2.89228 2.92184C2.88204 2.90896 2.87369 2.89469 2.86748 2.87945L2.59299 2.9671ZM2.60798 2.66378C2.56648 2.75975 2.56116 2.86751 2.59299 2.9671L2.86748 2.87945C2.85698 2.84629 2.85882 2.81045 2.87267 2.77854L2.60798 2.66378ZM2.79367 2.43542C2.75042 2.47838 2.71293 2.51558 2.6841 2.54874C2.65274 2.58276 2.62704 2.62161 2.60798 2.66378L2.87267 2.77854C2.88034 2.76397 2.89005 2.75028 2.9015 2.73846C2.93237 2.70431 2.96439 2.67123 2.99752 2.63927L2.79367 2.43542ZM3.05115 2.17765L2.79367 2.43542L2.99752 2.63927L3.255 2.3815L3.05115 2.17765ZM3.2795 1.99226C3.23733 2.01131 3.19849 2.03701 3.16446 2.06838C3.13159 2.09721 3.09411 2.13441 3.05115 2.17765L3.255 2.3815C3.30084 2.33595 3.33025 2.30654 3.35418 2.28549C3.37725 2.26531 3.3882 2.25954 3.39426 2.25666L3.2795 1.99226ZM3.58312 1.97698C3.4834 1.94516 3.37552 1.95059 3.2795 1.99226L3.39426 2.25666C3.42617 2.24281 3.46201 2.24125 3.49517 2.25176L3.58312 1.97698ZM3.82877 2.13902C3.78149 2.10038 3.74083 2.06694 3.70508 2.04156C3.66814 2.01364 3.62697 1.99184 3.58312 1.97698L3.49517 2.25176C3.51049 2.25785 3.52486 2.2661 3.53785 2.27626C3.5638 2.29501 3.59609 2.32124 3.64626 2.36219L3.82877 2.13902ZM4.11364 2.3446C4.10845 2.34373 4.08856 2.33883 4.03695 2.30308C3.96564 2.25077 3.8962 2.19624 3.82877 2.13902L3.64626 2.36219C3.73622 2.436 3.81061 2.49684 3.87231 2.5398C3.93286 2.58189 3.99975 2.61995 4.0753 2.63033L4.11364 2.3446ZM4.24743 2.28895C4.23203 2.30921 4.21153 2.32503 4.18804 2.3348C4.16454 2.34458 4.13887 2.34796 4.11364 2.3446L4.0753 2.63033C4.15094 2.64056 4.22795 2.63029 4.2985 2.60112C4.36904 2.57195 4.43061 2.52463 4.47694 2.46397L4.24743 2.28895ZM4.30365 1.94238C4.29154 2.0629 4.28347 2.14507 4.27251 2.20533C4.26127 2.26704 4.25089 2.28463 4.24743 2.28895L4.47694 2.46397C4.52307 2.40342 4.54326 2.32932 4.55623 2.25637C4.56949 2.18227 4.5793 2.08683 4.59083 1.97092L4.30365 1.94238ZM4.36305 1.65405C4.34085 1.6973 4.3296 1.74141 4.32211 1.7861C4.3149 1.82935 4.30971 1.88154 4.30365 1.94238L4.59054 1.97121C4.59455 1.92521 4.59993 1.87935 4.60669 1.83368C4.60866 1.81739 4.61293 1.80147 4.61938 1.78639L4.36305 1.65405ZM4.58852 1.4502C4.49113 1.4887 4.41101 1.56095 4.36305 1.65405L4.61938 1.78639C4.63532 1.75539 4.66195 1.73122 4.69434 1.71834L4.58852 1.4502ZM4.88089 1.41992C4.82005 1.41992 4.76729 1.41992 4.72346 1.42281C4.67731 1.42467 4.63175 1.43392 4.58852 1.4502L4.69434 1.71834C4.71004 1.71346 4.72635 1.71084 4.74278 1.71056C4.7745 1.70825 4.81631 1.70825 4.88118 1.70825L4.88089 1.41992ZM5.24534 1.41992H4.88089V1.70825H5.24534V1.41992ZM5.538 1.4502C5.49459 1.43386 5.44883 1.42461 5.40248 1.42281C5.35894 1.41992 5.30618 1.41992 5.24534 1.41992V1.70825C5.30993 1.70825 5.35145 1.70825 5.38345 1.71056C5.39989 1.71084 5.4162 1.71346 5.43189 1.71834L5.538 1.4502ZM5.76318 1.65405C5.71517 1.56105 5.63506 1.48863 5.53771 1.4502L5.43189 1.71834C5.46429 1.73122 5.49092 1.75539 5.50686 1.78639L5.76318 1.65405ZM6.07227 4.44711C6.07227 4.71475 5.96595 4.97143 5.7767 5.16069C5.58745 5.34994 5.33076 5.45626 5.06312 5.45626V5.74459C5.40723 5.74459 5.73725 5.60789 5.98058 5.36457C6.22391 5.12124 6.36061 4.79122 6.36061 4.44711H6.07227ZM5.06312 3.43795C5.33076 3.43795 5.58745 3.54427 5.7767 3.73352C5.96595 3.92278 6.07227 4.17946 6.07227 4.44711H6.36061C6.36061 4.10299 6.22391 3.77297 5.98058 3.52964C5.73725 3.28632 5.40723 3.14962 5.06312 3.14962V3.43795ZM4.05396 4.44711C4.05396 4.17946 4.16028 3.92278 4.34954 3.73352C4.53879 3.54427 4.79547 3.43795 5.06312 3.43795V3.14962C4.719 3.14962 4.38898 3.28632 4.14565 3.52964C3.90233 3.77297 3.76563 4.10299 3.76563 4.44711H4.05396ZM5.06312 5.45626C4.79547 5.45626 4.53879 5.34994 4.34954 5.16069C4.16028 4.97143 4.05396 4.71475 4.05396 4.44711H3.76563C3.76563 4.79122 3.90233 5.12124 4.14565 5.36457C4.38898 5.60789 4.719 5.74459 5.06312 5.74459V5.45626Z" fill="white"/>
</g>
<defs>
<clipPath id="clip0_4299_6883">
<rect width="6.91994" height="6.91994" fill="white" transform="translate(0.227051 0.988281)"/>
</clipPath>
</defs>
</svg>
