<svg width="17" height="13" viewBox="0 0 17 13" fill="none" xmlns="http://www.w3.org/2000/svg">
<g clip-path="url(#clip0_4364_5742)">
<path d="M14.2782 7.09353L14.2528 6.84036L14.2451 6.84087L14.2365 6.84239L14.2782 7.09353ZM14.2782 7.09353L14.3037 7.34721L14.3124 7.34619L14.3205 7.34466L14.2782 7.09353ZM12.2203 9.88608L12.3817 9.68894L12.3792 9.68741L12.2203 9.88608ZM12.2203 9.88608L12.0588 10.0832L12.0613 10.0853L12.2203 9.88608ZM7.53579 9.88608L7.37431 9.68945L7.37075 9.6925L7.36667 9.69607L7.53579 9.88608ZM7.53579 9.88608L7.69727 10.0837L7.70135 10.0802L7.70491 10.0771L7.53579 9.88608ZM5.4773 4.91736V4.66266H5.46507L5.45233 4.66368L5.4773 4.91736ZM5.4773 4.91736V5.17206H5.49003L5.50277 5.17053L5.4773 4.91736ZM11.2188 1.57925C11.2112 1.48688 11.2005 1.39479 11.1867 1.30315C11.1752 1.222 11.1508 1.14323 11.1143 1.06984L10.6615 1.30366C10.6666 1.31385 10.6752 1.33422 10.6839 1.3872C10.6936 1.44323 10.7007 1.51608 10.7124 1.62968L11.2188 1.57925ZM11.3186 2.19206C11.3125 2.18442 11.2942 2.15334 11.2743 2.04433C11.2505 1.89 11.2326 1.73487 11.2198 1.57925L10.7124 1.62968C10.7328 1.83395 10.7496 2.00307 10.773 2.13449C10.796 2.26286 10.8316 2.39378 10.9136 2.50126L11.3186 2.19206ZM11.555 2.28986C11.5105 2.29585 11.4651 2.28996 11.4236 2.27278C11.3821 2.25561 11.3459 2.22776 11.3186 2.19206L10.9131 2.50075C10.9949 2.60803 11.1037 2.69173 11.2283 2.74336C11.353 2.79498 11.489 2.81269 11.6227 2.79468L11.555 2.28986ZM12.0583 1.92666C11.8927 2.06267 11.7796 2.15487 11.6905 2.21651C11.5993 2.27967 11.5641 2.28833 11.555 2.28986L11.6227 2.79468C11.7562 2.77685 11.8739 2.70961 11.9813 2.63473C12.0909 2.55832 12.2218 2.45134 12.3812 2.32094L12.0583 1.92666ZM12.4923 1.64088C12.4108 1.66686 12.342 1.70812 12.2768 1.75448C12.2136 1.79931 12.1418 1.8584 12.0583 1.92666L12.3812 2.32094C12.4694 2.2486 12.5264 2.20224 12.5723 2.16964C12.5952 2.15151 12.6206 2.13676 12.6476 2.12583L12.4923 1.64088ZM13.0287 1.66737C12.859 1.59393 12.6684 1.58452 12.4923 1.64088L12.6476 2.12583C12.7062 2.10728 12.7696 2.11054 12.8259 2.135L13.0287 1.66737ZM13.4321 1.99543C13.3557 1.91902 13.29 1.85279 13.2319 1.80185C13.1718 1.74644 13.1032 1.70104 13.0287 1.66737L12.8259 2.135C12.8366 2.13959 12.856 2.15029 12.8967 2.18594C12.939 2.22262 12.991 2.27458 13.072 2.35558L13.4321 1.99543ZM13.887 2.45032L13.4321 1.99543L13.072 2.35558L13.5269 2.81047L13.887 2.45032ZM14.2151 2.85377C14.1813 2.77923 14.1357 2.7106 14.0801 2.65052C14.0291 2.59245 13.9629 2.52673 13.887 2.45032L13.5269 2.81047C13.6079 2.89147 13.6593 2.94343 13.697 2.98571C13.7327 3.02646 13.7429 3.04582 13.7474 3.05651L14.2151 2.85377ZM14.2416 3.39017C14.2979 3.21406 14.2885 3.02348 14.2151 2.85377L13.7474 3.05651C13.7717 3.11295 13.7748 3.17628 13.7561 3.2348L14.2416 3.39017ZM13.9558 3.82418C14.0241 3.74064 14.0831 3.66882 14.128 3.60565C14.1738 3.54045 14.2156 3.47168 14.2416 3.39017L13.7561 3.2348C13.7453 3.26187 13.7308 3.28726 13.7128 3.3102C13.6643 3.37537 13.6138 3.43907 13.5615 3.50122L13.9558 3.82418ZM13.5926 4.32747C13.5941 4.3183 13.6028 4.28315 13.6659 4.19197C13.7276 4.10283 13.8198 3.98974 13.9558 3.82418L13.5615 3.50122C13.4311 3.66067 13.3236 3.79158 13.2477 3.9011C13.1728 4.00808 13.1056 4.12626 13.0878 4.25972L13.5926 4.32747ZM13.6904 4.56384C13.6547 4.53656 13.6268 4.50033 13.6097 4.45882C13.5925 4.41731 13.5866 4.372 13.5926 4.32747L13.0878 4.25972C13.0699 4.39334 13.0876 4.52932 13.1392 4.65385C13.1909 4.77839 13.2745 4.88705 13.3817 4.96881L13.6904 4.56384ZM14.3032 4.66317C14.0898 4.64177 13.9451 4.62751 13.8381 4.60815C13.7291 4.58829 13.698 4.56995 13.6904 4.56384L13.3817 4.96881C13.4887 5.05032 13.6196 5.08597 13.7485 5.10941C13.8794 5.13284 14.048 5.15016 14.2528 5.17053L14.3032 4.66317ZM14.8126 4.76811C14.7392 4.73164 14.6604 4.70722 14.5793 4.69577C14.5029 4.68304 14.4102 4.67387 14.3032 4.66317L14.2523 5.17002C14.3664 5.18174 14.4392 5.18887 14.4953 5.19855C14.524 5.20202 14.5521 5.20957 14.5788 5.22096L14.8126 4.76811ZM15.1728 5.16595C15.1048 4.99415 14.9768 4.85282 14.8126 4.76811L14.5788 5.22096C14.6336 5.24913 14.6763 5.29618 14.699 5.35341L15.1728 5.16595ZM15.2262 5.68299C15.2262 5.57551 15.2262 5.48229 15.2212 5.40486C15.2179 5.32315 15.2016 5.24248 15.1728 5.16595L14.699 5.35341C14.7031 5.36411 14.7092 5.3855 14.7128 5.43899C14.7166 5.52043 14.7179 5.60198 14.7168 5.6835L15.2262 5.68299ZM15.2262 6.32688V5.68299H14.7168V6.32688H15.2262ZM15.1728 6.84341C15.2043 6.76395 15.2161 6.68448 15.2212 6.6045C15.2262 6.52758 15.2262 6.43436 15.2262 6.32688H14.7168C14.7168 6.44098 14.7168 6.51434 14.7128 6.57088C14.7123 6.59992 14.7076 6.62873 14.699 6.65646L15.1728 6.84341ZM14.8126 7.24177C14.9769 7.15693 15.1049 7.0154 15.1728 6.84341L14.699 6.65646C14.6763 6.71369 14.6336 6.76074 14.5788 6.78891L14.8126 7.24177ZM14.3032 7.3467C14.4102 7.33601 14.5034 7.32633 14.5793 7.31359C14.6583 7.30086 14.7362 7.28099 14.8121 7.24228L14.5788 6.78891C14.5521 6.8003 14.524 6.80785 14.4953 6.81132C14.4392 6.821 14.3664 6.82813 14.2528 6.83985L14.3032 7.3467ZM13.6909 7.44604C13.6985 7.43992 13.7296 7.42108 13.8386 7.40172C13.9456 7.38236 14.0903 7.36759 14.3032 7.3467L14.2528 6.83985C14.0485 6.86022 13.8794 6.87652 13.748 6.90047C13.6196 6.92339 13.4892 6.95905 13.3817 7.04055L13.6909 7.44604ZM13.5926 7.6824C13.5867 7.63783 13.5926 7.59248 13.6099 7.55097C13.6272 7.50945 13.6551 7.47325 13.6909 7.44604L13.3817 7.04055C13.2744 7.12235 13.1907 7.2311 13.1391 7.35574C13.0875 7.48037 13.0698 7.61645 13.0878 7.75015L13.5926 7.6824ZM13.9558 8.18569C13.8549 8.06655 13.7582 7.94387 13.6659 7.8179C13.6028 7.72723 13.5941 7.69157 13.5926 7.6824L13.0883 7.75066C13.1061 7.88412 13.1734 8.00128 13.2477 8.10877C13.3241 8.21778 13.4311 8.34921 13.5615 8.50814L13.9558 8.18569ZM14.2416 8.6197C14.2155 8.54208 14.1772 8.46916 14.128 8.40371C14.0728 8.32932 14.0154 8.25661 13.9558 8.18569L13.5615 8.50814C13.6339 8.59678 13.6802 8.65332 13.7128 8.69968C13.7307 8.72246 13.7453 8.74767 13.7561 8.77456L14.2416 8.6197ZM14.2151 9.1561C14.2885 8.9864 14.2979 8.79582 14.2416 8.6197L13.7561 8.77456C13.775 8.83324 13.7719 8.89677 13.7474 8.95336L14.2151 9.1561ZM13.8875 9.55904C13.9634 9.48314 14.0291 9.41743 14.0801 9.35935C14.1331 9.29873 14.1809 9.23506 14.2151 9.1561L13.7474 8.95336C13.7339 8.9791 13.7167 9.00277 13.6965 9.02366C13.6417 9.08375 13.5852 9.14218 13.5269 9.19889L13.8875 9.55904ZM13.4321 10.0144L13.8875 9.55904L13.5269 9.19889L13.072 9.6543L13.4321 10.0144ZM13.0287 10.342C13.1071 10.3079 13.1713 10.2605 13.2319 10.2075C13.29 10.1566 13.3557 10.0903 13.4321 10.0139L13.072 9.6543C12.991 9.73529 12.939 9.78674 12.8967 9.82393C12.8757 9.84421 12.8519 9.86136 12.8259 9.87487L13.0287 10.342ZM12.4923 10.369C12.6685 10.4252 12.859 10.4156 13.0287 10.342L12.8259 9.87487C12.7695 9.89917 12.7062 9.90224 12.6476 9.88353L12.4923 10.369ZM12.0583 10.0827C12.1418 10.151 12.2136 10.2101 12.2768 10.2549C12.342 10.3012 12.4108 10.343 12.4923 10.369L12.6476 9.88353C12.6206 9.87276 12.5952 9.85818 12.5723 9.84023C12.5071 9.79155 12.4434 9.74092 12.3812 9.68843L12.0583 10.0827ZM11.555 9.72001C11.5641 9.72103 11.5998 9.7302 11.6905 9.79336C11.7796 9.855 11.8927 9.9472 12.0583 10.0827L12.3812 9.68843C12.2218 9.55853 12.0909 9.45105 11.9813 9.37464C11.8744 9.30026 11.7562 9.23302 11.6227 9.21519L11.555 9.72001ZM11.3186 9.81781C11.3459 9.78212 11.3821 9.75426 11.4236 9.73709C11.4651 9.71991 11.5105 9.71402 11.555 9.72001L11.6227 9.21519C11.4892 9.19722 11.3532 9.2149 11.2287 9.26643C11.1041 9.31796 10.9955 9.40151 10.9136 9.50861L11.3186 9.81781ZM11.2193 10.4306C11.2407 10.2172 11.2549 10.0725 11.2743 9.96554C11.2942 9.85653 11.3125 9.82546 11.3186 9.81781L10.9136 9.50861C10.8321 9.61558 10.7965 9.74701 10.773 9.87538C10.7496 10.0063 10.7323 10.1749 10.7119 10.3797L11.2193 10.4306ZM11.1143 10.94C11.1536 10.8636 11.1729 10.7857 11.1862 10.7067C11.1994 10.6303 11.2086 10.5376 11.2193 10.4306L10.7119 10.3797C10.7048 10.4609 10.6958 10.542 10.6839 10.6227C10.6804 10.6514 10.6729 10.6796 10.6615 10.7062L11.1143 10.94ZM10.7165 11.3002C10.8883 11.2322 11.0296 11.1042 11.1143 10.94L10.6615 10.7062C10.6333 10.761 10.5863 10.8037 10.529 10.8264L10.7165 11.3002ZM10.1995 11.3537C10.3069 11.3537 10.4002 11.3537 10.4776 11.3486C10.5571 11.3435 10.637 11.3318 10.7165 11.3002L10.529 10.8264C10.5013 10.8351 10.4725 10.8397 10.4435 10.8402C10.3874 10.8443 10.3136 10.8443 10.1989 10.8443L10.1995 11.3537ZM9.55557 11.3537H10.1995L10.1989 10.8443H9.55557V11.3537ZM9.03853 11.3002C9.11851 11.3318 9.19797 11.3435 9.27795 11.3486C9.35487 11.3537 9.44809 11.3537 9.55557 11.3537V10.8443C9.44147 10.8443 9.36811 10.8443 9.31157 10.8402C9.28253 10.8397 9.25372 10.8351 9.22599 10.8264L9.03853 11.3002ZM8.64069 10.94C8.7254 11.1042 8.86673 11.2322 9.03853 11.3002L9.22599 10.8264C9.16876 10.8037 9.12171 10.761 9.09354 10.7062L8.64069 10.94ZM8.53575 10.4306C8.54594 10.5383 8.5568 10.6303 8.56835 10.7067C8.5816 10.7857 8.60146 10.8636 8.64069 10.94L9.09354 10.7062C9.08215 10.6796 9.0746 10.6514 9.07113 10.6227C9.0592 10.5421 9.04969 10.4613 9.0426 10.3802L8.53575 10.4306ZM8.43642 9.81781C8.44253 9.82546 8.46087 9.85653 8.48073 9.96554C8.50009 10.0725 8.51435 10.2177 8.53575 10.4306L9.0426 10.3802C9.02223 10.1759 9.00542 10.0068 8.98199 9.87538C8.95906 9.74701 8.9234 9.61609 8.84139 9.50861L8.43642 9.81781ZM8.20005 9.72001C8.24458 9.71402 8.28989 9.71991 8.3314 9.73709C8.37291 9.75426 8.40914 9.78212 8.43642 9.81781L8.84139 9.50861C8.75963 9.40142 8.65097 9.31828 8.52643 9.26665C8.4019 9.21503 8.26592 9.19728 8.1323 9.21519L8.20005 9.72001ZM7.69676 10.0832C7.86232 9.9472 7.97541 9.855 8.06455 9.79336C8.15573 9.7302 8.19088 9.72103 8.20005 9.72001L8.1323 9.21519C7.99884 9.23302 7.88117 9.30026 7.77368 9.37514C7.66416 9.45105 7.53324 9.55853 7.3738 9.68894L7.69676 10.0832ZM7.26275 10.369C7.34426 10.343 7.41303 10.3017 7.47823 10.2554C7.54139 10.2106 7.61322 10.1515 7.69676 10.0832L7.3738 9.68894C7.31165 9.74126 7.24794 9.79171 7.18278 9.84023C7.15984 9.85818 7.13445 9.87276 7.10738 9.88353L7.26275 10.369ZM6.72635 10.343C6.89606 10.4165 7.08664 10.4254 7.26275 10.369L7.10738 9.88353C7.04885 9.90224 6.98553 9.89917 6.92909 9.87487L6.72635 10.343ZM6.3229 10.0144C6.39931 10.0909 6.46503 10.1571 6.5231 10.208C6.58321 10.2605 6.6479 10.3089 6.72635 10.343L6.92909 9.87487C6.90318 9.86136 6.87933 9.84421 6.85829 9.82393C6.7982 9.76915 6.73976 9.71258 6.68305 9.6543L6.3229 10.0144ZM5.86801 9.55955L6.3229 10.0144L6.68305 9.6543L6.22815 9.1994L5.86801 9.55955ZM5.53995 9.1561C5.57408 9.23455 5.62197 9.29873 5.67494 9.35935C5.72588 9.41743 5.79211 9.48314 5.86801 9.55955L6.22815 9.1994C6.1697 9.1427 6.11296 9.08426 6.05801 9.02417C6.03774 9.00312 6.02058 8.97928 6.00707 8.95336L5.53995 9.1561ZM5.51346 8.6197C5.4571 8.79582 5.46651 8.9864 5.53995 9.1561L6.00707 8.95336C5.98261 8.89698 5.97986 8.83366 5.99841 8.77507L5.51346 8.6197ZM5.79924 8.18569C5.73098 8.26923 5.67189 8.34106 5.62706 8.40422C5.57792 8.46951 5.53956 8.54226 5.51346 8.6197L5.99841 8.77507C6.00934 8.74797 6.02409 8.72258 6.04222 8.69968C6.07482 8.65383 6.12118 8.59678 6.19352 8.50865L5.79924 8.18569ZM6.16244 7.6824C6.16091 7.69157 6.15225 7.72672 6.08909 7.8179C6.02694 7.90705 5.93525 8.02013 5.79924 8.18569L6.19352 8.50865C6.32392 8.34921 6.43141 8.21829 6.50731 8.10877C6.58219 8.00179 6.64943 7.88361 6.66726 7.75015L6.16244 7.6824ZM6.06464 7.44604C6.10034 7.47331 6.12819 7.50954 6.14536 7.55105C6.16254 7.59256 6.16843 7.63788 6.16244 7.6824L6.66726 7.75015C6.68517 7.61653 6.66742 7.48056 6.6158 7.35602C6.56418 7.23148 6.48053 7.12282 6.37333 7.04106L6.06464 7.44604ZM5.45183 7.34721C5.66526 7.3681 5.80994 7.38236 5.91691 7.40172C6.02592 7.42158 6.057 7.43992 6.06464 7.44604L6.37333 7.04055C6.26636 6.95905 6.13544 6.92339 6.00656 6.90047C5.87565 6.87703 5.70704 6.85971 5.50226 6.83934L5.45183 7.34721ZM4.94242 7.24177C5.01883 7.28099 5.09677 7.30035 5.17573 7.31359C5.25214 7.32684 5.34434 7.33651 5.45183 7.34721L5.50277 6.83985C5.4215 6.83277 5.34047 6.82326 5.25978 6.81132C5.23101 6.80785 5.20288 6.8003 5.17624 6.78891L4.94242 7.24177ZM4.58227 6.84341C4.65017 7.0154 4.77813 7.15693 4.94242 7.24177L5.17624 6.78891C5.12147 6.76074 5.07876 6.71369 5.05602 6.65646L4.58227 6.84341ZM4.5293 6.3279C4.5293 6.43538 4.5293 6.5286 4.53439 6.60603C4.53769 6.68757 4.55403 6.76806 4.58278 6.84443L5.05653 6.65748C5.0479 6.62975 5.04327 6.60094 5.04277 6.5719C5.03897 6.49046 5.03761 6.40891 5.0387 6.32739L4.5293 6.3279ZM4.5293 5.68401V6.3279H5.0387V5.68401H4.5293ZM4.58278 5.16697C4.55392 5.24366 4.53758 5.3245 4.53439 5.40639C4.5293 5.48331 4.5293 5.57653 4.5293 5.68401H5.0387C5.0387 5.56991 5.0387 5.49655 5.04277 5.44001C5.04327 5.41097 5.0479 5.38216 5.05653 5.35443L4.58278 5.16697ZM4.94293 4.76912C4.77873 4.85384 4.65078 4.99517 4.58278 5.16697L5.05653 5.35443C5.07927 5.2972 5.12198 5.25015 5.17675 5.22198L4.94293 4.76912ZM5.45233 4.66368C5.34468 4.67387 5.25265 4.68524 5.17624 4.69679C5.09509 4.70823 5.01632 4.73266 4.94293 4.76912L5.17675 5.22198C5.18694 5.21689 5.20731 5.20823 5.26029 5.19957C5.31632 5.18989 5.38917 5.18276 5.50277 5.17104L5.45233 4.66368ZM6.06515 4.56485C6.0575 4.57097 6.02643 4.58931 5.91742 4.60917C5.81044 4.62853 5.66577 4.64228 5.45233 4.66368L5.50277 5.17104C5.70704 5.15067 5.87667 5.13386 6.00758 5.11042C6.13646 5.0875 6.26738 5.05184 6.37435 4.96983L6.06515 4.56485ZM6.16295 4.32849C6.16894 4.37302 6.16305 4.41833 6.14587 4.45984C6.1287 4.50135 6.10085 4.53758 6.06515 4.56485L6.37435 4.96983C6.48145 4.88801 6.565 4.77932 6.61653 4.65479C6.66807 4.53026 6.68574 4.3938 6.66777 4.26023L6.16295 4.32849ZM5.79975 3.82469C5.93576 3.99076 6.02796 4.10385 6.09011 4.19299C6.15327 4.28417 6.16142 4.31932 6.16295 4.32849L6.66777 4.26023C6.64994 4.12677 6.5827 4.00961 6.50782 3.90212C6.43192 3.7926 6.32443 3.66168 6.19402 3.50224L5.79975 3.82469ZM5.51397 3.39068C5.53944 3.47219 5.58121 3.54146 5.62757 3.60667C5.6724 3.66932 5.73149 3.74166 5.79975 3.82469L6.19402 3.50224C6.14169 3.43992 6.09124 3.37605 6.04273 3.31071C6.02464 3.28795 6.00989 3.26274 5.99892 3.23582L5.51397 3.39068ZM5.54046 2.85479C5.46714 3.02435 5.45773 3.21472 5.51397 3.39068L5.99892 3.23582C5.98037 3.17723 5.98363 3.11391 6.00809 3.05753L5.54046 2.85479ZM5.86852 2.45134C5.79211 2.52724 5.72588 2.59296 5.67494 2.65154C5.61953 2.71166 5.57413 2.78028 5.54046 2.85479L6.00809 3.05753C6.02164 3.0318 6.03879 3.00761 6.05903 2.98673C6.11356 2.9264 6.17014 2.86795 6.22866 2.81149L5.86852 2.45134ZM6.32341 1.99594L5.86852 2.45134L6.22866 2.81149L6.68356 2.35608L6.32341 1.99594ZM6.72686 1.66839C6.65235 1.70206 6.58373 1.74746 6.52361 1.80287C6.46554 1.85381 6.39931 1.91953 6.32341 1.99594L6.68356 2.35608C6.76456 2.2756 6.81651 2.22364 6.8588 2.18645C6.89955 2.1508 6.9189 2.14061 6.9296 2.13551L6.72686 1.66839ZM7.26326 1.64139C7.08708 1.58519 6.8965 1.59478 6.72686 1.66839L6.9296 2.13551C6.98598 2.11105 7.0493 2.1083 7.10789 2.12685L7.26326 1.64139ZM7.69727 1.92768C7.61373 1.85942 7.5419 1.80033 7.47874 1.7555C7.41348 1.70617 7.34073 1.66765 7.26326 1.64139L7.10789 2.12685C7.13496 2.13762 7.16035 2.1522 7.18328 2.17015C7.22913 2.20326 7.28618 2.24962 7.37482 2.32195L7.69727 1.92768ZM8.20056 2.29088C8.19139 2.28935 8.15624 2.28069 8.06506 2.21753C7.93908 2.12511 7.8164 2.02877 7.69727 1.92768L7.37482 2.32195C7.53375 2.45236 7.66518 2.55985 7.77419 2.63575C7.88117 2.71012 7.99935 2.77736 8.13281 2.7957L8.20056 2.29088ZM8.43692 2.19257C8.40971 2.22836 8.37351 2.25631 8.33199 2.27358C8.29048 2.29084 8.24513 2.29681 8.20056 2.29088L8.13281 2.7957C8.26646 2.81377 8.40251 2.79563 8.52714 2.74409C8.65178 2.69256 8.76055 2.60895 8.84241 2.50177L8.43692 2.19257ZM8.53626 1.58026C8.51486 1.79319 8.5006 1.93837 8.48124 2.04484C8.46138 2.15385 8.44304 2.18493 8.43692 2.19257L8.84241 2.50177C8.92391 2.3948 8.95957 2.26388 8.98249 2.135C9.00593 2.00409 9.02325 1.83547 9.04362 1.6307L8.53626 1.58026ZM8.6412 1.07086C8.60197 1.14727 8.5821 1.22521 8.56886 1.30417C8.55613 1.38058 8.54696 1.47278 8.53626 1.58026L9.04311 1.6312C9.05019 1.54994 9.0597 1.46891 9.07164 1.38822C9.07511 1.35945 9.08266 1.33132 9.09405 1.30468L8.6412 1.07086ZM9.03955 0.710714C8.86748 0.778737 8.72593 0.906377 8.6412 1.07086L9.09405 1.30468C9.12222 1.24991 9.16927 1.2072 9.2265 1.18446L9.03955 0.710714ZM9.55608 0.657227C9.4486 0.657227 9.35538 0.657227 9.27795 0.662321C9.19641 0.665617 9.11592 0.681955 9.03955 0.710714L9.2265 1.18446C9.25423 1.17583 9.28304 1.1712 9.31208 1.1707C9.36811 1.16663 9.44198 1.16663 9.55659 1.16663L9.55608 0.657227ZM10.2 0.657227H9.55608V1.16663H10.2V0.657227ZM10.717 0.710714C10.6403 0.681849 10.5595 0.665509 10.4776 0.662321C10.4007 0.657227 10.3075 0.657227 10.2 0.657227V1.16663C10.3141 1.16663 10.3874 1.16663 10.444 1.1707C10.473 1.1712 10.5018 1.17583 10.5296 1.18446L10.717 0.710714ZM11.1149 1.07086C11.03 0.906568 10.8885 0.778611 10.7165 0.710714L10.5296 1.18446C10.5868 1.2072 10.6338 1.24991 10.662 1.30468L11.1149 1.07086ZM11.6609 6.00545C11.6609 6.4783 11.4731 6.93179 11.1387 7.26615C10.8044 7.60051 10.3509 7.78835 9.87803 7.78835V8.29776C10.486 8.29776 11.069 8.05625 11.4989 7.62635C11.9288 7.19646 12.1703 6.6134 12.1703 6.00545H11.6609ZM9.87803 4.22254C10.3509 4.22254 10.8044 4.41038 11.1387 4.74474C11.4731 5.0791 11.6609 5.53259 11.6609 6.00545H12.1703C12.1703 5.39749 11.9288 4.81443 11.4989 4.38454C11.069 3.95464 10.486 3.71313 9.87803 3.71313V4.22254ZM8.09512 6.00545C8.09512 5.53259 8.28296 5.0791 8.61732 4.74474C8.95168 4.41038 9.40517 4.22254 9.87803 4.22254V3.71313C9.27007 3.71313 8.68701 3.95464 8.25712 4.38454C7.82722 4.81443 7.58571 5.39749 7.58571 6.00545H8.09512ZM9.87803 7.78835C9.40517 7.78835 8.95168 7.60051 8.61732 7.26615C8.28296 6.93179 8.09512 6.4783 8.09512 6.00545H7.58571C7.58571 6.6134 7.82722 7.19646 8.25712 7.62635C8.68701 8.05625 9.27007 8.29776 9.87803 8.29776V7.78835Z" fill="#FFF8F0"/>
</g>
<defs>
<clipPath id="clip0_4364_5742">
<rect width="15.0631" height="12.3243" fill="white" transform="translate(0.969238 0.335938)"/>
</clipPath>
</defs>
</svg>
