<svg width="14" height="12" viewBox="0 0 14 12" fill="none" xmlns="http://www.w3.org/2000/svg">
<g clip-path="url(#clip0_4240_5358)">
<path d="M11.44 6.46924L11.4177 6.24759L11.411 6.24803L11.4035 6.24937L11.44 6.46924ZM11.44 6.46924L11.4623 6.69134L11.4699 6.69045L11.4771 6.68911L11.44 6.46924ZM9.63826 8.91413L9.77964 8.74153L9.77741 8.74019L9.63826 8.91413ZM9.63826 8.91413L9.49688 9.08672L9.49911 9.08851L9.63826 8.91413ZM5.53699 8.91413L5.39561 8.74198L5.39249 8.74465L5.38892 8.74778L5.53699 8.91413ZM5.53699 8.91413L5.67836 9.08717L5.68193 9.08405L5.68505 9.08137L5.53699 8.91413ZM3.73476 4.564V4.341H3.72406L3.71291 4.3419L3.73476 4.564ZM3.73476 4.564V4.78699H3.74591L3.75706 4.78565L3.73476 4.564ZM8.76145 1.64146C8.75484 1.56059 8.74547 1.47997 8.73336 1.39974C8.72334 1.32869 8.70195 1.25973 8.67003 1.19548L8.27355 1.40018C8.27801 1.4091 8.28559 1.42694 8.29317 1.47332C8.30164 1.52238 8.30789 1.58616 8.31814 1.68561L8.76145 1.64146ZM8.84887 2.17798C8.84351 2.17129 8.82746 2.14408 8.81007 2.04864C8.78921 1.91353 8.77359 1.77771 8.76234 1.64146L8.31814 1.68561C8.33598 1.86445 8.3507 2.01252 8.37122 2.12758C8.39129 2.23997 8.4225 2.35459 8.49431 2.44869L8.84887 2.17798ZM9.0558 2.26361C9.01682 2.26885 8.97715 2.2637 8.94081 2.24866C8.90446 2.23362 8.87274 2.20923 8.84887 2.17798L8.49386 2.44825C8.56548 2.54216 8.66069 2.61545 8.76981 2.66064C8.87893 2.70584 8.99807 2.72135 9.11512 2.70558L9.0558 2.26361ZM9.49644 1.94562C9.35149 2.0647 9.25248 2.14542 9.17443 2.19939C9.0946 2.25469 9.06383 2.26227 9.0558 2.26361L9.11512 2.70558C9.23197 2.68997 9.33499 2.6311 9.42909 2.56554C9.52498 2.49864 9.6396 2.40499 9.77919 2.29081L9.49644 1.94562ZM9.87641 1.69542C9.80506 1.71817 9.74485 1.75429 9.68776 1.79488C9.63246 1.83413 9.56958 1.88586 9.49644 1.94562L9.77919 2.29081C9.85634 2.22748 9.90629 2.1869 9.94643 2.15836C9.96649 2.14248 9.98872 2.12957 10.0124 2.12L9.87641 1.69542ZM10.346 1.71862C10.1975 1.65431 10.0306 1.64608 9.87641 1.69542L10.0124 2.12C10.0637 2.10376 10.1192 2.10661 10.1685 2.12803L10.346 1.71862ZM10.6993 2.00583C10.6324 1.93893 10.5748 1.88095 10.524 1.83636C10.4713 1.78784 10.4113 1.74809 10.346 1.71862L10.1685 2.12803C10.1779 2.13204 10.1948 2.14141 10.2305 2.17263C10.2675 2.20474 10.313 2.25023 10.3839 2.32114L10.6993 2.00583ZM11.0975 2.40409L10.6993 2.00583L10.3839 2.32114L10.7822 2.7194L11.0975 2.40409ZM11.3847 2.75731C11.3551 2.69205 11.3152 2.63197 11.2665 2.57937C11.2219 2.52852 11.164 2.47099 11.0975 2.40409L10.7822 2.7194C10.8531 2.79032 10.8982 2.83581 10.9312 2.87282C10.9624 2.9085 10.9713 2.92545 10.9753 2.93482L11.3847 2.75731ZM11.4079 3.22694C11.4573 3.07275 11.449 2.90589 11.3847 2.75731L10.9753 2.93482C10.9966 2.98423 10.9993 3.03967 10.9829 3.09091L11.4079 3.22694ZM11.1577 3.60691C11.2175 3.53377 11.2692 3.47089 11.3085 3.41559C11.3486 3.3585 11.3852 3.29829 11.4079 3.22694L10.9829 3.09091C10.9735 3.11461 10.9607 3.13683 10.945 3.15692C10.9025 3.21397 10.8583 3.26974 10.8125 3.32416L11.1577 3.60691ZM10.8397 4.04755C10.8411 4.03952 10.8487 4.00875 10.904 3.92891C10.9579 3.85087 11.0386 3.75186 11.1577 3.60691L10.8125 3.32416C10.6984 3.46375 10.6043 3.57837 10.5378 3.67426C10.4722 3.76791 10.4134 3.87138 10.3978 3.98823L10.8397 4.04755ZM10.9254 4.25448C10.8941 4.23061 10.8697 4.19889 10.8547 4.16254C10.8397 4.1262 10.8345 4.08653 10.8397 4.04755L10.3978 3.98823C10.3821 4.10521 10.3976 4.22426 10.4428 4.33329C10.488 4.44233 10.5613 4.53746 10.6551 4.60904L10.9254 4.25448ZM11.4619 4.34145C11.275 4.32272 11.1484 4.31023 11.0547 4.29328C10.9593 4.27589 10.9321 4.25984 10.9254 4.25448L10.6551 4.60904C10.7488 4.6804 10.8634 4.71162 10.9762 4.73213C11.0908 4.75265 11.2385 4.76781 11.4177 4.78565L11.4619 4.34145ZM11.9079 4.43332C11.8436 4.4014 11.7747 4.38001 11.7036 4.36999C11.6367 4.35884 11.5555 4.35082 11.4619 4.34145L11.4173 4.7852C11.5172 4.79546 11.581 4.80171 11.63 4.81018C11.6552 4.81322 11.6798 4.81983 11.7032 4.8298L11.9079 4.43332ZM12.2232 4.78164C12.1636 4.63123 12.0516 4.50749 11.9079 4.43332L11.7032 4.8298C11.7511 4.85446 11.7885 4.89565 11.8084 4.94576L12.2232 4.78164ZM12.27 5.23431C12.27 5.14021 12.27 5.05859 12.2656 4.9908C12.2627 4.91926 12.2484 4.84864 12.2232 4.78164L11.8084 4.94576C11.812 4.95512 11.8173 4.97386 11.8205 5.02068C11.8238 5.09199 11.825 5.16338 11.824 5.23476L12.27 5.23431ZM12.27 5.79803V5.23431H11.824V5.79803H12.27ZM12.2232 6.25026C12.2508 6.18069 12.2611 6.11112 12.2656 6.0411C12.27 5.97375 12.27 5.89214 12.27 5.79803H11.824C11.824 5.89794 11.824 5.96216 11.8205 6.01166C11.82 6.03708 11.816 6.06231 11.8084 6.08659L12.2232 6.25026ZM11.9079 6.59902C12.0517 6.52475 12.1637 6.40084 12.2232 6.25026L11.8084 6.08659C11.7885 6.13669 11.7511 6.17789 11.7032 6.20254L11.9079 6.59902ZM11.4619 6.6909C11.5555 6.68153 11.6372 6.67306 11.7036 6.66191C11.7727 6.65076 11.841 6.63336 11.9074 6.59947L11.7032 6.20254C11.6798 6.21252 11.6552 6.21913 11.63 6.22217C11.581 6.23064 11.5172 6.23688 11.4177 6.24714L11.4619 6.6909ZM10.9258 6.77786C10.9325 6.77251 10.9597 6.75601 11.0552 6.73906C11.1488 6.72211 11.2755 6.70918 11.4619 6.6909L11.4177 6.24714C11.2389 6.26498 11.0908 6.27925 10.9758 6.30021C10.8634 6.32028 10.7492 6.3515 10.6551 6.42286L10.9258 6.77786ZM10.8397 6.9848C10.8345 6.94578 10.8398 6.90608 10.8549 6.86973C10.87 6.83338 10.8945 6.80169 10.9258 6.77786L10.6551 6.42286C10.5612 6.49448 10.4879 6.58969 10.4427 6.6988C10.3975 6.80792 10.382 6.92706 10.3978 7.04412L10.8397 6.9848ZM11.1577 7.42543C11.0694 7.32112 10.9847 7.21372 10.904 7.10343C10.8487 7.02405 10.8411 6.99283 10.8397 6.9848L10.3982 7.04456C10.4138 7.16141 10.4727 7.26399 10.5378 7.35809C10.6047 7.45353 10.6984 7.56859 10.8125 7.70774L11.1577 7.42543ZM11.4079 7.80541C11.3851 7.73746 11.3515 7.67361 11.3085 7.61631C11.2602 7.55118 11.2099 7.48752 11.1577 7.42543L10.8125 7.70774C10.8759 7.78534 10.9164 7.83485 10.945 7.87543C10.9607 7.89538 10.9734 7.91745 10.9829 7.94099L11.4079 7.80541ZM11.3847 8.27503C11.449 8.12646 11.4573 7.9596 11.4079 7.80541L10.9829 7.94099C10.9994 7.99237 10.9967 8.04799 10.9753 8.09753L11.3847 8.27503ZM11.098 8.62781C11.1644 8.56135 11.2219 8.50382 11.2665 8.45298C11.3129 8.39991 11.3549 8.34416 11.3847 8.27503L10.9753 8.09753C10.9635 8.12006 10.9484 8.14079 10.9307 8.15908C10.8828 8.21169 10.8332 8.26285 10.7822 8.3125L11.098 8.62781ZM10.6993 9.02652L11.098 8.62781L10.7822 8.3125L10.3839 8.71121L10.6993 9.02652ZM10.346 9.31328C10.4147 9.2834 10.4709 9.24193 10.524 9.19555C10.5748 9.15095 10.6324 9.09297 10.6993 9.02607L10.3839 8.71121C10.313 8.78212 10.2675 8.82716 10.2305 8.85972C10.2121 8.87747 10.1912 8.89249 10.1685 8.90432L10.346 9.31328ZM9.87641 9.33692C10.0307 9.38613 10.1975 9.37773 10.346 9.31328L10.1685 8.90432C10.1191 8.92559 10.0637 8.92828 10.0124 8.9119L9.87641 9.33692ZM9.49644 9.08628C9.56958 9.14604 9.63246 9.19777 9.68776 9.23702C9.74485 9.27761 9.80506 9.31418 9.87641 9.33692L10.0124 8.9119C9.98874 8.90247 9.96652 8.88971 9.94643 8.87399C9.88937 8.83137 9.8336 8.78705 9.77919 8.74109L9.49644 9.08628ZM9.0558 8.76874C9.06383 8.76963 9.09505 8.77766 9.17443 8.83296C9.25248 8.88692 9.35149 8.96765 9.49644 9.08628L9.77919 8.74109C9.6396 8.62736 9.52498 8.53326 9.42909 8.46636C9.33543 8.40125 9.23197 8.34238 9.11512 8.32677L9.0558 8.76874ZM8.84887 8.85437C8.87274 8.82311 8.90446 8.79873 8.94081 8.78369C8.97715 8.76865 9.01682 8.76349 9.0558 8.76874L9.11512 8.32677C8.99818 8.31103 8.87916 8.32651 8.77013 8.37162C8.6611 8.41674 8.56594 8.48989 8.49431 8.58365L8.84887 8.85437ZM8.7619 9.39089C8.78063 9.20402 8.79312 9.07736 8.81007 8.9837C8.82746 8.88826 8.84351 8.86106 8.84887 8.85437L8.49431 8.58365C8.42295 8.67731 8.39173 8.79238 8.37122 8.90476C8.3507 9.01938 8.33554 9.167 8.3177 9.34629L8.7619 9.39089ZM8.67003 9.83687C8.70437 9.76997 8.72131 9.70174 8.73291 9.63261C8.74451 9.56571 8.75253 9.48454 8.7619 9.39089L8.3177 9.34629C8.3115 9.41743 8.30362 9.48838 8.29317 9.55902C8.29013 9.58421 8.28352 9.60884 8.27355 9.63216L8.67003 9.83687ZM8.32171 10.1522C8.47212 10.0926 8.59586 9.98063 8.67003 9.83687L8.27355 9.63216C8.24889 9.68011 8.2077 9.7175 8.15759 9.73742L8.32171 10.1522ZM7.86904 10.199C7.96314 10.199 8.04476 10.199 8.11255 10.1945C8.18212 10.1901 8.25214 10.1798 8.32171 10.1522L8.15759 9.73742C8.13331 9.74497 8.10808 9.74902 8.08266 9.74946C8.03361 9.75303 7.96894 9.75303 7.86859 9.75303L7.86904 10.199ZM7.30531 10.199H7.86904L7.86859 9.75303H7.30531V10.199ZM6.85264 10.1522C6.92266 10.1798 6.99223 10.1901 7.06225 10.1945C7.1296 10.199 7.21121 10.199 7.30531 10.199V9.75303C7.20541 9.75303 7.14119 9.75303 7.09169 9.74946C7.06627 9.74902 7.04104 9.74497 7.01676 9.73742L6.85264 10.1522ZM6.50433 9.83687C6.57849 9.98063 6.70223 10.0926 6.85264 10.1522L7.01676 9.73742C6.96666 9.7175 6.92546 9.68011 6.90081 9.63216L6.50433 9.83687ZM6.41245 9.39089C6.42137 9.48514 6.43089 9.56571 6.441 9.63261C6.45259 9.70174 6.46999 9.76997 6.50433 9.83687L6.90081 9.63216C6.89083 9.60884 6.88422 9.58421 6.88118 9.55902C6.87074 9.48852 6.86241 9.41773 6.85621 9.34673L6.41245 9.39089ZM6.32549 8.85437C6.33084 8.86106 6.34689 8.88826 6.36429 8.9837C6.38123 9.07736 6.39372 9.20446 6.41245 9.39089L6.85621 9.34673C6.83837 9.16789 6.82365 9.01983 6.80314 8.90476C6.78307 8.79238 6.75185 8.67776 6.68004 8.58365L6.32549 8.85437ZM6.11855 8.76874C6.15753 8.76349 6.1972 8.76865 6.23355 8.78369C6.26989 8.79873 6.30161 8.82311 6.32549 8.85437L6.68004 8.58365C6.60846 8.48981 6.51333 8.41702 6.4043 8.37182C6.29526 8.32663 6.17621 8.31108 6.05923 8.32677L6.11855 8.76874ZM5.67792 9.08672C5.82286 8.96765 5.92187 8.88692 5.99992 8.83296C6.07975 8.77766 6.11052 8.76963 6.11855 8.76874L6.05923 8.32677C5.94239 8.34238 5.83936 8.40125 5.74526 8.46681C5.64937 8.53326 5.53476 8.62736 5.39516 8.74153L5.67792 9.08672ZM5.29794 9.33692C5.3693 9.31418 5.4295 9.27805 5.48659 9.23747C5.54189 9.19822 5.60477 9.14649 5.67792 9.08672L5.39516 8.74153C5.34075 8.78734 5.28497 8.83151 5.22792 8.87399C5.20784 8.88971 5.18561 8.90247 5.16191 8.9119L5.29794 9.33692ZM4.82832 9.31418C4.97689 9.37848 5.14375 9.38627 5.29794 9.33692L5.16191 8.9119C5.11067 8.92828 5.05523 8.92559 5.00582 8.90432L4.82832 9.31418ZM4.4751 9.02652C4.54199 9.09341 4.59953 9.15139 4.65037 9.19599C4.70299 9.24193 4.75963 9.2843 4.82832 9.31418L5.00582 8.90432C4.98313 8.89249 4.96225 8.87747 4.94383 8.85972C4.89122 8.81176 4.84005 8.76223 4.79041 8.71121L4.4751 9.02652ZM4.07683 8.62825L4.4751 9.02652L4.79041 8.71121L4.39214 8.31294L4.07683 8.62825ZM3.78962 8.27503C3.8195 8.34371 3.86142 8.39991 3.9078 8.45298C3.9524 8.50382 4.01038 8.56135 4.07683 8.62825L4.39214 8.31294C4.34097 8.2633 4.29129 8.21214 4.24318 8.15952C4.22543 8.1411 4.21041 8.12022 4.19859 8.09753L3.78962 8.27503ZM3.76643 7.80541C3.71708 7.9596 3.72532 8.12646 3.78962 8.27503L4.19859 8.09753C4.17717 8.04817 4.17476 7.99273 4.191 7.94144L3.76643 7.80541ZM4.01662 7.42543C3.95686 7.49857 3.90513 7.56146 3.86588 7.61676C3.82286 7.67392 3.78928 7.73761 3.76643 7.80541L4.191 7.94144C4.20057 7.91771 4.21349 7.89549 4.22936 7.87543C4.2579 7.83529 4.29849 7.78534 4.36182 7.70819L4.01662 7.42543ZM4.33461 6.9848C4.33327 6.99283 4.32569 7.0236 4.27039 7.10343C4.21598 7.18148 4.1357 7.28049 4.01662 7.42543L4.36182 7.70819C4.47599 7.56859 4.57009 7.45398 4.63654 7.35809C4.7021 7.26443 4.76097 7.16096 4.77658 7.04412L4.33461 6.9848ZM4.24898 6.77786C4.28024 6.80174 4.30462 6.83346 4.31966 6.8698C4.3347 6.90615 4.33986 6.94582 4.33461 6.9848L4.77658 7.04412C4.79227 6.92713 4.77672 6.80808 4.73153 6.69905C4.68633 6.59002 4.61309 6.49488 4.51925 6.42331L4.24898 6.77786ZM3.71246 6.69134C3.89933 6.70963 4.02599 6.72211 4.11965 6.73906C4.21509 6.75646 4.24229 6.77251 4.24898 6.77786L4.51925 6.42286C4.42559 6.3515 4.31097 6.32028 4.19814 6.30021C4.08352 6.2797 3.9359 6.26453 3.75662 6.2467L3.71246 6.69134ZM3.26648 6.59902C3.33338 6.63336 3.40161 6.65031 3.47074 6.66191C3.53764 6.6735 3.61836 6.68198 3.71246 6.69134L3.75706 6.24714C3.68592 6.24095 3.61497 6.23262 3.54433 6.22217C3.51914 6.21913 3.49451 6.21252 3.47119 6.20254L3.26648 6.59902ZM2.95117 6.25026C3.01061 6.40084 3.12264 6.52475 3.26648 6.59902L3.47119 6.20254C3.42324 6.17789 3.38585 6.13669 3.36593 6.08659L2.95117 6.25026ZM2.90479 5.79893C2.90479 5.89303 2.90479 5.97464 2.90924 6.04243C2.91213 6.11382 2.92644 6.18429 2.95161 6.25116L3.36638 6.08748C3.35883 6.0632 3.35477 6.03797 3.35434 6.01255C3.35101 5.94125 3.34982 5.86986 3.35077 5.79848L2.90479 5.79893ZM2.90479 5.2352V5.79893H3.35077V5.2352H2.90479ZM2.95161 4.78253C2.92634 4.84968 2.91204 4.92045 2.90924 4.99214C2.90479 5.05948 2.90479 5.1411 2.90479 5.2352H3.35077C3.35077 5.1353 3.35077 5.07108 3.35434 5.02158C3.35477 4.99616 3.35883 4.97093 3.36638 4.94665L2.95161 4.78253ZM3.26692 4.43421C3.12317 4.50838 3.01115 4.63212 2.95161 4.78253L3.36638 4.94665C3.38629 4.89655 3.42368 4.85535 3.47163 4.83069L3.26692 4.43421ZM3.71291 4.3419C3.61866 4.35082 3.53808 4.36078 3.47119 4.37088C3.40014 4.38091 3.33118 4.40229 3.26692 4.43421L3.47163 4.83069C3.48055 4.82623 3.49839 4.81865 3.54477 4.81107C3.59383 4.8026 3.65761 4.79635 3.75706 4.7861L3.71291 4.3419ZM4.24943 4.25537C4.24274 4.26073 4.21553 4.27678 4.12009 4.29418C4.02644 4.31112 3.89978 4.32316 3.71291 4.3419L3.75706 4.7861C3.9359 4.76826 4.08441 4.75354 4.19903 4.73302C4.31187 4.71295 4.42648 4.68174 4.52014 4.60993L4.24943 4.25537ZM4.33506 4.04844C4.3403 4.08742 4.33514 4.12709 4.32011 4.16344C4.30507 4.19978 4.28068 4.2315 4.24943 4.25537L4.52014 4.60993C4.61391 4.5383 4.68706 4.44314 4.73217 4.33412C4.77729 4.22509 4.79276 4.10562 4.77703 3.98868L4.33506 4.04844ZM4.01707 3.60736C4.13615 3.75275 4.21687 3.85176 4.27128 3.92981C4.32658 4.00964 4.33372 4.04041 4.33506 4.04844L4.77703 3.98868C4.76142 3.87183 4.70255 3.76925 4.63699 3.67515C4.57054 3.57926 4.47643 3.46464 4.36226 3.32505L4.01707 3.60736ZM3.76687 3.22738C3.78917 3.29874 3.82574 3.35939 3.86633 3.41648C3.90557 3.47133 3.95731 3.53466 4.01707 3.60736L4.36226 3.32505C4.31645 3.27049 4.27227 3.21457 4.22981 3.15736C4.21397 3.13744 4.20105 3.11537 4.19145 3.0918L3.76687 3.22738ZM3.79006 2.75821C3.72587 2.90665 3.71764 3.07333 3.76687 3.22738L4.19145 3.0918C4.17521 3.04051 4.17806 2.98507 4.19948 2.93571L3.79006 2.75821ZM4.07728 2.40499C4.01038 2.47144 3.9524 2.52897 3.9078 2.58026C3.85929 2.63289 3.81954 2.69297 3.79006 2.75821L4.19948 2.93571C4.21134 2.91317 4.22636 2.892 4.24408 2.87372C4.29182 2.8209 4.34135 2.76973 4.39259 2.7203L4.07728 2.40499ZM4.47554 2.00628L4.07728 2.40499L4.39259 2.7203L4.79085 2.32159L4.47554 2.00628ZM4.82876 1.71951C4.76353 1.74898 4.70345 1.78873 4.65081 1.83725C4.59997 1.88185 4.54199 1.93938 4.47554 2.00628L4.79085 2.32159C4.86177 2.25112 4.90726 2.20563 4.94427 2.17307C4.97995 2.14185 4.9969 2.13294 5.00626 2.12848L4.82876 1.71951ZM5.29838 1.69587C5.14414 1.64666 4.97728 1.65506 4.82876 1.71951L5.00626 2.12848C5.05562 2.10705 5.11106 2.10465 5.16236 2.12089L5.29838 1.69587ZM5.67836 1.94651C5.60522 1.88675 5.54234 1.83502 5.48704 1.79577C5.4299 1.75259 5.36621 1.71886 5.29838 1.69587L5.16236 2.12089C5.18605 2.13032 5.20828 2.14309 5.22836 2.1588C5.2685 2.18779 5.31845 2.22838 5.39605 2.29171L5.67836 1.94651ZM6.11899 2.2645C6.11097 2.26316 6.08019 2.25558 6.00036 2.20028C5.89006 2.11937 5.78266 2.03502 5.67836 1.94651L5.39605 2.29171C5.5352 2.40588 5.65027 2.49998 5.74571 2.56643C5.83936 2.63155 5.94283 2.69042 6.05968 2.70647L6.11899 2.2645ZM6.32593 2.17843C6.30211 2.20976 6.27041 2.23423 6.23406 2.24935C6.19772 2.26447 6.15802 2.2697 6.11899 2.2645L6.05968 2.70647C6.17669 2.72229 6.2958 2.70641 6.40492 2.66129C6.51404 2.61617 6.60927 2.54297 6.68094 2.44914L6.32593 2.17843ZM6.4129 1.64235C6.39417 1.82877 6.38168 1.95588 6.36473 2.04909C6.34734 2.14453 6.33128 2.17174 6.32593 2.17843L6.68094 2.44914C6.75229 2.35548 6.78351 2.24086 6.80358 2.12803C6.8241 2.01341 6.83926 1.86579 6.8571 1.6865L6.4129 1.64235ZM6.50477 1.19637C6.47043 1.26327 6.45304 1.3315 6.44144 1.40063C6.43029 1.46753 6.42226 1.54825 6.4129 1.64235L6.85665 1.68695C6.86285 1.61581 6.87118 1.54486 6.88163 1.47422C6.88467 1.44903 6.89128 1.4244 6.90125 1.40107L6.50477 1.19637ZM6.85353 0.881057C6.70288 0.940611 6.57896 1.05236 6.50477 1.19637L6.90125 1.40107C6.92591 1.35313 6.9671 1.31573 7.01721 1.29582L6.85353 0.881057ZM7.30576 0.834229C7.21166 0.834229 7.13004 0.834229 7.06225 0.838688C6.99086 0.841575 6.9204 0.855879 6.85353 0.881057L7.01721 1.29582C7.04148 1.28827 7.06671 1.28421 7.09213 1.28378C7.14119 1.28021 7.20586 1.28021 7.30621 1.28021L7.30576 0.834229ZM7.86948 0.834229H7.30576V1.28021H7.86948V0.834229ZM8.32216 0.881057C8.25501 0.855785 8.18424 0.84148 8.11255 0.838688C8.0452 0.834229 7.96359 0.834229 7.86948 0.834229V1.28021C7.96938 1.28021 8.03361 1.28021 8.08311 1.28378C8.10853 1.28421 8.13376 1.28827 8.15804 1.29582L8.32216 0.881057ZM8.67047 1.19637C8.5962 1.05253 8.47229 0.940501 8.32171 0.881057L8.15804 1.29582C8.20814 1.31573 8.24934 1.35313 8.27399 1.40107L8.67047 1.19637ZM9.14857 5.51662C9.14857 5.93061 8.98411 6.32764 8.69138 6.62037C8.39864 6.91311 8.00161 7.07756 7.58762 7.07756V7.52355C8.11989 7.52355 8.63036 7.3121 9.00674 6.93573C9.38311 6.55936 9.59455 6.04889 9.59455 5.51662H9.14857ZM7.58762 3.95567C8.00161 3.95567 8.39864 4.12013 8.69138 4.41286C8.98411 4.7056 9.14857 5.10263 9.14857 5.51662H9.59455C9.59455 4.98435 9.38311 4.47388 9.00674 4.09751C8.63036 3.72113 8.11989 3.50969 7.58762 3.50969V3.95567ZM6.02668 5.51662C6.02668 5.10263 6.19113 4.7056 6.48387 4.41286C6.7766 4.12013 7.17363 3.95567 7.58762 3.95567V3.50969C7.05535 3.50969 6.54488 3.72113 6.16851 4.09751C5.79214 4.47388 5.58069 4.98435 5.58069 5.51662H6.02668ZM7.58762 7.07756C7.17363 7.07756 6.7766 6.91311 6.48387 6.62037C6.19113 6.32764 6.02668 5.93061 6.02668 5.51662H5.58069C5.58069 6.04889 5.79214 6.55936 6.16851 6.93573C6.54488 7.3121 7.05535 7.52355 7.58762 7.52355V7.07756Z" fill="white"/>
</g>
<defs>
<clipPath id="clip0_4240_5358">
<rect width="13" height="11" fill="white" transform="translate(0.0532227 0.0748291)"/>
</clipPath>
</defs>
</svg>
