<svg width="83" viewBox="0 0 83 0" fill="none" xmlns="http://www.w3.org/2000/svg">
<path d="M83.3536 0.353553C83.5488 0.158291 83.5488 -0.158291 83.3536 -0.353553L80.1716 -3.53553C79.9763 -3.7308 79.6597 -3.7308 79.4645 -3.53553C79.2692 -3.34027 79.2692 -3.02369 79.4645 -2.82843L82.2929 0L79.4645 2.82843C79.2692 3.02369 79.2692 3.34027 79.4645 3.53553C79.6597 3.7308 79.9763 3.7308 80.1716 3.53553L83.3536 0.353553ZM0 0V0.5H2.075V0V-0.5H0V0ZM6.225 0V0.5H10.375V0V-0.5H6.225V0ZM14.525 0V0.5H18.675V0V-0.5H14.525V0ZM22.825 0V0.5H26.975V0V-0.5H22.825V0ZM31.125 0V0.5H35.275V0V-0.5H31.125V0ZM39.425 0V0.5H43.575V0V-0.5H39.425V0ZM47.725 0V0.5H51.875V0V-0.5H47.725V0ZM56.025 0V0.5H60.175V0V-0.5H56.025V0ZM64.325 0V0.5H68.475V0V-0.5H64.325V0ZM72.625 0V0.5H76.775V0V-0.5H72.625V0ZM80.925 0V0.5H83V0V-0.5H80.925V0Z" fill="#2A52C6"/>
</svg>
