<svg width="22" height="21" viewBox="0 0 22 21" fill="none" xmlns="http://www.w3.org/2000/svg">
<mask id="mask0_4236_8379" style="mask-type:alpha" maskUnits="userSpaceOnUse" x="0" y="0" width="22" height="21">
<rect x="0.96875" y="0.123047" width="20.8414" height="20.8414" fill="#D9D9D9"/>
</mask>
<g mask="url(#mask0_4236_8379)">
<path d="M10.8475 15.2406H7.40205C6.25425 15.2406 5.27586 14.8361 4.46688 14.0272C3.65791 13.2183 3.25342 12.2401 3.25342 11.0924C3.25342 9.9448 3.65791 8.96641 4.46688 8.15728C5.27586 7.348 6.25425 6.94336 7.40205 6.94336H10.8475V8.3145H7.40205C6.63436 8.3145 5.97956 8.58553 5.43765 9.12759C4.89559 9.66965 4.62456 10.3245 4.62456 11.092C4.62456 11.8595 4.89559 12.5143 5.43765 13.0564C5.97956 13.5984 6.63436 13.8695 7.40205 13.8695H10.8475V15.2406ZM8.50948 11.7776V10.4064H15.3652V11.7776H8.50948ZM13.0272 15.2406V13.8695H16.4726C17.2403 13.8695 17.8951 13.5984 18.437 13.0564C18.9791 12.5143 19.2501 11.8595 19.2501 11.092C19.2501 10.3245 18.9791 9.66965 18.437 9.12759C17.8951 8.58553 17.2403 8.3145 16.4726 8.3145H13.0272V6.94336H16.4726C17.6204 6.94336 18.5988 7.34785 19.4078 8.15682C20.2168 8.96565 20.6213 9.94388 20.6213 11.0915C20.6213 12.2392 20.2168 13.2176 19.4078 14.0267C18.5988 14.836 17.6204 15.2406 16.4726 15.2406H13.0272Z" fill="#B0B0B0"/>
</g>
</svg>
