<svg width="22" height="18" viewBox="0 0 22 18" fill="none" xmlns="http://www.w3.org/2000/svg">
<g clip-path="url(#clip0_4238_8898)">
<path d="M22 2.19187C21.1762 2.55767 20.3024 2.79775 19.4076 2.90412C20.3396 2.34431 21.0552 1.45783 21.3922 0.401605C20.5062 0.928475 19.5369 1.29971 18.5261 1.49926C17.7027 0.620188 16.5297 0.0708008 15.2315 0.0708008C12.7388 0.0708008 10.7178 2.0961 10.7178 4.59405C10.7178 4.94863 10.7577 5.29382 10.8347 5.62496C7.08348 5.43626 3.7577 3.63549 1.53149 0.898801C1.14305 1.56687 0.920477 2.34397 0.920477 3.17283C0.920477 4.74219 1.71738 6.12664 2.92841 6.93784C2.21164 6.91539 1.51064 6.72137 0.883953 6.37201C0.883724 6.39095 0.883638 6.40993 0.883695 6.42894C0.883695 8.62054 2.43951 10.4488 4.50424 10.8643C3.83959 11.0455 3.14242 11.072 2.46598 10.9419C3.0403 12.7389 4.70723 14.0466 6.68224 14.0832C5.13752 15.2964 3.19129 16.0196 1.07671 16.0196C0.712336 16.0196 0.353117 15.9981 0 15.9564C1.99745 17.2398 4.36992 17.9886 6.91883 17.9886C15.221 17.9886 19.7608 11.096 19.7608 5.11864C19.7608 4.92245 19.7565 4.72738 19.7478 4.53342C20.6313 3.89317 21.394 3.10027 22 2.19187Z" fill="#55ACEE"/>
</g>
<defs>
<clipPath id="clip0_4238_8898">
<rect width="22" height="18" fill="white"/>
</clipPath>
</defs>
</svg>
