<svg width="15" height="15" viewBox="0 0 15 15" fill="none" xmlns="http://www.w3.org/2000/svg">
<path d="M3.125 8.4375C3.125 9.3646 3.39991 10.2709 3.91498 11.0417C4.43005 11.8126 5.16214 12.4134 6.01867 12.7682C6.8752 13.123 7.8177 13.2158 8.72698 13.0349C9.63627 12.8541 10.4715 12.4076 11.1271 11.7521C11.7826 11.0965 12.2291 10.2613 12.4099 9.35199C12.5908 8.4427 12.498 7.5002 12.1432 6.64367C11.7884 5.78714 11.1876 5.05506 10.4167 4.53999C9.64588 4.02492 8.7396 3.75 7.8125 3.75H2.5M2.5 3.75L4.375 1.875M2.5 3.75L4.375 5.625" stroke="white" stroke-width="1.25" stroke-linecap="round" stroke-linejoin="round"/>
</svg>
