<svg width="9" height="9" viewBox="0 0 9 9" fill="none" xmlns="http://www.w3.org/2000/svg">
<path d="M4.4455 2.11621C4.82056 2.11621 5.17266 2.18702 5.5018 2.32862C5.83093 2.47023 6.11879 2.66432 6.36536 2.91089C6.61193 3.15746 6.80602 3.44543 6.94763 3.7748C7.08924 4.10416 7.16004 4.45615 7.16004 4.83075C7.16004 5.20536 7.08924 5.55746 6.94763 5.88705C6.80602 6.21664 6.61193 6.5045 6.36536 6.75061C6.11879 6.99673 5.83082 7.19082 5.50146 7.33288C5.17209 7.47495 4.82011 7.54575 4.4455 7.5453C4.23965 7.5453 4.0304 7.52098 3.81776 7.47234C3.60512 7.42348 3.40651 7.35109 3.22192 7.25518L3.47844 6.99866C3.62164 7.06561 3.77919 7.11685 3.95111 7.15237C4.12303 7.18788 4.28783 7.20575 4.4455 7.20598C5.10151 7.20598 5.66139 6.97411 6.12512 6.51038C6.58886 6.04664 6.82072 5.48677 6.82072 4.83075C6.82072 4.17474 6.58886 3.61486 6.12512 3.15113C5.66139 2.6874 5.10151 2.45553 4.4455 2.45553C3.78949 2.45553 3.22961 2.6874 2.76588 3.15113C2.30214 3.61486 2.07027 4.17474 2.07027 4.83075C2.07027 5.00132 2.08701 5.16498 2.12049 5.32175C2.15397 5.47851 2.20645 5.63505 2.27794 5.79136L2.02345 6.04585C1.92595 5.86827 1.85277 5.67283 1.80391 5.45951C1.75527 5.24619 1.73096 5.03661 1.73096 4.83075C1.73096 4.45569 1.80176 4.1036 1.94337 3.77446C2.08498 3.44532 2.27907 3.15746 2.52564 2.91089C2.77221 2.66432 3.06018 2.47023 3.38954 2.32862C3.71891 2.18702 4.07089 2.11621 4.4455 2.11621ZM4.95448 6.01837V4.56201L1.99732 7.51917L1.75708 7.27927L4.71424 4.32178H3.25789V3.98246H5.29379V6.01837H4.95448Z" fill="black"/>
</svg>
