<svg width="18" height="18" viewBox="0 0 18 18" fill="none" xmlns="http://www.w3.org/2000/svg">
<path d="M9.15367 12.6776L6.10811 14.5122C5.97356 14.5979 5.83291 14.6346 5.68613 14.6223C5.53936 14.6101 5.41093 14.5612 5.30085 14.4756C5.19077 14.3899 5.10515 14.283 5.04399 14.1548C4.98284 14.0267 4.97061 13.8828 5.0073 13.7233L5.81456 10.2558L3.11758 7.92575C2.99527 7.81567 2.91895 7.69018 2.88862 7.54928C2.85828 7.40837 2.86733 7.2709 2.91577 7.13684C2.9642 7.00279 3.03759 6.89271 3.13593 6.8066C3.23427 6.72049 3.36881 6.66545 3.53956 6.64148L7.09883 6.32958L8.47484 3.06386C8.536 2.91708 8.63091 2.807 8.75958 2.73362C8.88826 2.66023 9.01962 2.62354 9.15367 2.62354C9.28773 2.62354 9.41909 2.66023 9.54776 2.73362C9.67643 2.807 9.77135 2.91708 9.8325 3.06386L11.2085 6.32958L14.7678 6.64148C14.939 6.66594 15.0736 6.72098 15.1714 6.8066C15.2693 6.89222 15.3427 7.0023 15.3916 7.13684C15.4405 7.27138 15.4498 7.40911 15.4195 7.55001C15.3891 7.69091 15.3126 7.81616 15.1898 7.92575L12.4928 10.2558L13.3 13.7233C13.3367 13.8823 13.3245 14.0262 13.2633 14.1548C13.2022 14.2835 13.1166 14.3904 13.0065 14.4756C12.8964 14.5607 12.768 14.6096 12.6212 14.6223C12.4744 14.635 12.3338 14.5984 12.1992 14.5122L9.15367 12.6776Z" fill="#FFCC00"/>
</svg>
