<svg width="19" height="18" viewBox="0 0 19 18" fill="none" xmlns="http://www.w3.org/2000/svg">
<path d="M9.50035 12.6776L6.45479 14.5122C6.32024 14.5979 6.17959 14.6346 6.03281 14.6223C5.88604 14.6101 5.75761 14.5612 5.64753 14.4756C5.53745 14.3899 5.45183 14.283 5.39067 14.1548C5.32952 14.0267 5.31729 13.8828 5.35398 13.7233L6.16124 10.2558L3.46426 7.92575C3.34195 7.81567 3.26563 7.69018 3.2353 7.54928C3.20496 7.40837 3.21401 7.2709 3.26245 7.13684C3.31088 7.00279 3.38427 6.89271 3.48261 6.8066C3.58095 6.72049 3.71549 6.66545 3.88624 6.64148L7.44551 6.32958L8.82152 3.06386C8.88268 2.91708 8.97759 2.807 9.10626 2.73362C9.23494 2.66023 9.3663 2.62354 9.50035 2.62354C9.63441 2.62354 9.76577 2.66023 9.89444 2.73362C10.0231 2.807 10.118 2.91708 10.1792 3.06386L11.5552 6.32958L15.1145 6.64148C15.2857 6.66594 15.4202 6.72098 15.5181 6.8066C15.6159 6.89222 15.6893 7.0023 15.7383 7.13684C15.7872 7.27138 15.7965 7.40911 15.7661 7.55001C15.7358 7.69091 15.6592 7.81616 15.5364 7.92575L12.8395 10.2558L13.6467 13.7233C13.6834 13.8823 13.6712 14.0262 13.61 14.1548C13.5489 14.2835 13.4633 14.3904 13.3532 14.4756C13.2431 14.5607 13.1147 14.6096 12.9679 14.6223C12.8211 14.635 12.6805 14.5984 12.5459 14.5122L9.50035 12.6776Z" fill="#FFCC00"/>
</svg>
