<svg width="18" height="18" viewBox="0 0 18 18" fill="none" xmlns="http://www.w3.org/2000/svg">
<path d="M9.1942 12.6776L6.14863 14.5122C6.01409 14.5979 5.87343 14.6346 5.72666 14.6223C5.57988 14.6101 5.45146 14.5612 5.34138 14.4756C5.2313 14.3899 5.14568 14.283 5.08452 14.1548C5.02337 14.0267 5.01113 13.8828 5.04783 13.7233L5.85509 10.2558L3.15811 7.92575C3.0358 7.81567 2.95948 7.69018 2.92914 7.54928C2.89881 7.40837 2.90786 7.2709 2.9563 7.13684C3.00473 7.00279 3.07812 6.89271 3.17646 6.8066C3.2748 6.72049 3.40934 6.66545 3.58009 6.64148L7.13936 6.32958L8.51537 3.06386C8.57652 2.91708 8.67144 2.807 8.80011 2.73362C8.92878 2.66023 9.06015 2.62354 9.1942 2.62354C9.32825 2.62354 9.45962 2.66023 9.58829 2.73362C9.71696 2.807 9.81187 2.91708 9.87303 3.06386L11.249 6.32958L14.8083 6.64148C14.9795 6.66594 15.1141 6.72098 15.2119 6.8066C15.3098 6.89222 15.3832 7.0023 15.4321 7.13684C15.481 7.27138 15.4903 7.40911 15.46 7.55001C15.4297 7.69091 15.3531 7.81616 15.2303 7.92575L12.5333 10.2558L13.3406 13.7233C13.3773 13.8823 13.365 14.0262 13.3039 14.1548C13.2427 14.2835 13.1571 14.3904 13.047 14.4756C12.9369 14.5607 12.8085 14.6096 12.6617 14.6223C12.515 14.635 12.3743 14.5984 12.2398 14.5122L9.1942 12.6776Z" fill="#FFCC00"/>
</svg>
