<svg width="53" height="53" viewBox="0 0 53 53" fill="none" xmlns="http://www.w3.org/2000/svg">
<path d="M39.75 9.9375L43.0625 19.875H36.4375L33.125 9.9375H28.1562L31.4687 19.875H24.8437L21.5312 9.9375H16.5625L19.875 19.875H13.25L9.9375 9.9375H8.28125C6.96346 9.9375 5.69963 10.461 4.76781 11.3928C3.83599 12.3246 3.3125 13.5885 3.3125 14.9062V38.0937C3.3125 39.4115 3.83599 40.6754 4.76781 41.6072C5.69963 42.539 6.96346 43.0625 8.28125 43.0625H44.7187C46.0365 43.0625 47.3004 42.539 48.2322 41.6072C49.164 40.6754 49.6875 39.4115 49.6875 38.0937V9.9375H39.75Z" fill="#FF9800"/>
</svg>
