<svg width="11" height="12" viewBox="0 0 11 12" fill="none" xmlns="http://www.w3.org/2000/svg">
<path d="M3.49099 9.66664C3.28566 9.66664 3.11088 9.59453 2.96666 9.4503C2.82244 9.30608 2.75033 9.13146 2.75033 8.92643V3.24997H2.29199V2.79164H4.12533V2.43872H6.87533V2.79164H8.70866V3.24997H8.25033V8.92643C8.25033 9.13726 8.17974 9.31342 8.03858 9.45489C7.89741 9.59636 7.7211 9.66694 7.50966 9.66664H3.49099ZM7.79199 3.24997H3.20866V8.92643C3.20866 9.00862 3.23509 9.07615 3.28795 9.12901C3.34081 9.18187 3.40849 9.2083 3.49099 9.2083H7.51012C7.5804 9.2083 7.64502 9.17897 7.70399 9.1203C7.76296 9.06164 7.7923 8.99686 7.79199 8.92597V3.24997ZM4.49566 8.29164H4.95399V4.16664H4.49566V8.29164ZM6.04666 8.29164H6.50499V4.16664H6.04666V8.29164Z" fill="black"/>
</svg>
