<svg width="20" height="20" viewBox="0 0 20 20" fill="none" xmlns="http://www.w3.org/2000/svg">
<path d="M2 10C2 11.8897 2.75067 13.7019 4.08686 15.0381C5.42306 16.3743 7.23533 17.125 9.125 17.125C11.0171 17.125 12.83 16.3808 14.1917 15.0667L13.0042 13.8792C12.5058 14.407 11.9043 14.8269 11.2371 15.1128C10.5698 15.3988 9.85094 15.5448 9.125 15.5417C4.185 15.5417 1.715 9.5725 5.20625 6.08125C8.6975 2.59 14.6667 5.06792 14.6667 10H12.2917L15.4583 13.1667H15.5375L18.625 10H16.25C16.25 8.11033 15.4993 6.29806 14.1631 4.96186C12.8269 3.62567 11.0147 2.875 9.125 2.875C7.23533 2.875 5.42306 3.62567 4.08686 4.96186C2.75067 6.29806 2 8.11033 2 10Z" fill="white"/>
</svg>
