<svg width="23" height="23" viewBox="0 0 23 23" fill="none" xmlns="http://www.w3.org/2000/svg">
<mask id="mask0_4220_5258" style="mask-type:alpha" maskUnits="userSpaceOnUse" x="0" y="0" width="23" height="23">
<rect x="0.5" y="0.5" width="22" height="22" fill="#D9D9D9"/>
</mask>
<g mask="url(#mask0_4220_5258)">
<path d="M7.25179 19.5209V16.4994C5.73929 16.3266 4.48269 15.6779 3.482 14.5533C2.4813 13.4285 1.98096 12.1052 1.98096 10.5834H3.35596C3.35596 11.8515 3.80283 12.9324 4.69658 13.8261C5.59033 14.7199 6.67123 15.1667 7.93929 15.1667C8.03722 15.1667 8.13515 15.1653 8.23308 15.1624C8.33101 15.1595 8.42696 15.1474 8.52092 15.1262C8.67247 15.3495 8.83495 15.5611 9.00835 15.7607C9.18176 15.9606 9.36303 16.1487 9.55217 16.325C9.39939 16.3648 9.24898 16.3977 9.10094 16.4235C8.95274 16.4495 8.79462 16.4748 8.62656 16.4994V19.5209H7.25179ZM7.42802 12.8027C6.91209 12.6804 6.48637 12.4189 6.15087 12.018C5.81537 11.617 5.64762 11.1388 5.64762 10.5834V5.08341C5.64762 4.44297 5.86946 3.90091 6.31312 3.45725C6.75664 3.01358 7.29869 2.79175 7.93929 2.79175C8.57973 2.79175 9.12179 3.01358 9.56546 3.45725C10.009 3.90091 10.2307 4.44297 10.2307 5.08341V8.57385H7.09298V10.5834C7.09298 10.9721 7.12094 11.3514 7.17685 11.7212C7.23262 12.0911 7.31634 12.4516 7.42802 12.8027ZM15.0609 12.8751C14.4204 12.8751 13.8784 12.6532 13.4347 12.2096C12.9912 11.7659 12.7694 11.2239 12.7694 10.5834V5.08341C12.7694 4.44297 12.9912 3.90091 13.4347 3.45725C13.8784 3.01358 14.4204 2.79175 15.0609 2.79175C15.7015 2.79175 16.2435 3.01358 16.687 3.45725C17.1307 3.90091 17.3525 4.44297 17.3525 5.08341V10.5834C17.3525 11.2239 17.1307 11.7659 16.687 12.2096C16.2435 12.6532 15.7015 12.8751 15.0609 12.8751ZM14.3736 19.5209V16.4994C12.8611 16.3266 11.6045 15.6779 10.6038 14.5533C9.60312 13.4285 9.10277 12.1052 9.10277 10.5834H10.4775C10.4775 11.8515 10.9244 12.9324 11.8182 13.8261C12.7119 14.7199 13.7928 15.1667 15.0609 15.1667C16.3289 15.1667 17.4098 14.7199 18.3036 13.8261C19.1973 12.9324 19.6442 11.8515 19.6442 10.5834H21.0192C21.0192 12.1052 20.5189 13.4285 19.5182 14.5533C18.5175 15.6779 17.2609 16.3266 15.7484 16.4994V19.5209H14.3736ZM15.0609 11.5001C15.3206 11.5001 15.5383 11.4122 15.714 11.2365C15.8897 11.0608 15.9775 10.8431 15.9775 10.5834V5.08341C15.9775 4.82369 15.8897 4.60598 15.714 4.43029C15.5383 4.2546 15.3206 4.16675 15.0609 4.16675C14.8012 4.16675 14.5834 4.2546 14.4077 4.43029C14.2321 4.60598 14.1442 4.82369 14.1442 5.08341V10.5834C14.1442 10.8431 14.2321 11.0608 14.4077 11.2365C14.5834 11.4122 14.8012 11.5001 15.0609 11.5001Z" fill="white"/>
</g>
</svg>
