<svg width="16" height="15" viewBox="0 0 16 15" fill="none" xmlns="http://www.w3.org/2000/svg">
<path d="M7.71874 5.64061C8.13177 5.64061 8.46971 5.30267 8.46971 4.88964C8.46971 4.47661 8.13177 4.13867 7.71874 4.13867C7.30571 4.13867 6.96777 4.47661 6.96777 4.88964C6.96777 5.30267 7.30571 5.64061 7.71874 5.64061ZM7.71874 6.39158C7.30571 6.39158 6.96777 6.72951 6.96777 7.14254C6.96777 7.55558 7.30571 7.89351 7.71874 7.89351C8.13177 7.89351 8.46971 7.55558 8.46971 7.14254C8.46971 6.72951 8.13177 6.39158 7.71874 6.39158ZM7.71874 8.64448C7.30571 8.64448 6.96777 8.98241 6.96777 9.39545C6.96777 9.80848 7.30571 10.1464 7.71874 10.1464C8.13177 10.1464 8.46971 9.80848 8.46971 9.39545C8.46971 8.98241 8.13177 8.64448 7.71874 8.64448Z" fill="#86888A"/>
</svg>
