<svg width="16" height="17" viewBox="0 0 16 17" fill="none" xmlns="http://www.w3.org/2000/svg">
<path fill-rule="evenodd" clip-rule="evenodd" d="M14.95 4.184L8.637 9.412C8.45761 9.56063 8.23196 9.64196 7.999 9.64196C7.76604 9.64196 7.54039 9.56063 7.361 9.412L1.051 4.184C1.01714 4.28591 0.999922 4.39261 1 4.5V12.5C1 12.7652 1.10536 13.0196 1.29289 13.2071C1.48043 13.3946 1.73478 13.5 2 13.5H14C14.2652 13.5 14.5196 13.3946 14.7071 13.2071C14.8946 13.0196 15 12.7652 15 12.5V4.5C15.0004 4.39267 14.9835 4.28597 14.95 4.184ZM2 2.5H14C14.5304 2.5 15.0391 2.71071 15.4142 3.08579C15.7893 3.46086 16 3.96957 16 4.5V12.5C16 13.0304 15.7893 13.5391 15.4142 13.9142C15.0391 14.2893 14.5304 14.5 14 14.5H2C1.46957 14.5 0.960859 14.2893 0.585786 13.9142C0.210714 13.5391 0 13.0304 0 12.5V4.5C0 3.96957 0.210714 3.46086 0.585786 3.08579C0.960859 2.71071 1.46957 2.5 2 2.5ZM1.79 3.5L7.366 8.103C7.54459 8.2505 7.76884 8.33144 8.00046 8.33199C8.23209 8.33254 8.45672 8.25266 8.636 8.106L14.268 3.5H1.79Z" fill="#B1B1B1"/>
</svg>
