<svg width="9" height="9" viewBox="0 0 9 9" fill="none" xmlns="http://www.w3.org/2000/svg">
<path d="M4.10218 4.49987L1.76949 2.16774C1.74334 2.14159 1.7226 2.11055 1.70845 2.07638C1.6943 2.04222 1.68701 2.0056 1.68701 1.96862C1.68701 1.93164 1.6943 1.89502 1.70845 1.86085C1.7226 1.82669 1.74334 1.79564 1.76949 1.76949C1.79564 1.74334 1.82669 1.7226 1.86085 1.70845C1.89502 1.6943 1.93164 1.68701 1.96862 1.68701C2.0056 1.68701 2.04222 1.6943 2.07638 1.70845C2.11055 1.7226 2.14159 1.74334 2.16774 1.76949L4.49987 4.10218L6.83199 1.76949C6.8848 1.71668 6.95643 1.68701 7.03112 1.68701C7.1058 1.68701 7.17743 1.71668 7.23024 1.76949C7.28305 1.8223 7.31272 1.89393 7.31272 1.96862C7.31272 2.0433 7.28305 2.11493 7.23024 2.16774L4.89755 4.49987L7.23024 6.83199C7.28305 6.8848 7.31272 6.95643 7.31272 7.03112C7.31272 7.1058 7.28305 7.17743 7.23024 7.23024C7.17743 7.28305 7.1058 7.31272 7.03112 7.31272C6.95643 7.31272 6.8848 7.28305 6.83199 7.23024L4.49987 4.89755L2.16774 7.23024C2.11493 7.28305 2.0433 7.31272 1.96862 7.31272C1.89393 7.31272 1.8223 7.28305 1.76949 7.23024C1.71668 7.17743 1.68701 7.1058 1.68701 7.03112C1.68701 6.95643 1.71668 6.8848 1.76949 6.83199L4.10218 4.49987Z" fill="black"/>
</svg>
