<svg width="22" height="22" viewBox="0 0 22 22" fill="none" xmlns="http://www.w3.org/2000/svg">
<mask id="mask0_4240_5505" style="mask-type:alpha" maskUnits="userSpaceOnUse" x="0" y="0" width="22" height="22">
<rect x="0.739258" y="0.964844" width="20.7177" height="20.7177" fill="#D9D9D9"/>
</mask>
<g mask="url(#mask0_4240_5505)">
<path d="M9.54371 18.6612C9.18863 18.6612 8.85003 18.5854 8.5279 18.4338C8.20577 18.2821 7.92975 18.0655 7.69984 17.784L2.44531 11.3669L2.93995 10.9104C3.15245 10.7034 3.40423 10.588 3.69528 10.5643C3.98633 10.5405 4.24977 10.6089 4.48557 10.7693L7.21297 12.5588V3.76217C7.21297 3.57874 7.27505 3.42494 7.39922 3.30077C7.52338 3.17676 7.67718 3.11475 7.86062 3.11475C8.0442 3.11475 8.19793 3.17676 8.3218 3.30077C8.44582 3.42494 8.50783 3.57874 8.50783 3.76217V15.0272L5.48973 13.0452L8.71565 16.9643C8.825 17.0896 8.95052 17.188 9.09224 17.2593C9.23381 17.3307 9.3843 17.3664 9.54371 17.3664H15.1979C15.739 17.3664 16.198 17.178 16.575 16.8012C16.9518 16.4242 17.1402 15.9652 17.1402 15.4241V9.38142C17.1402 9.19798 17.2023 9.04418 17.3264 8.92002C17.4506 8.796 17.6044 8.73399 17.7878 8.73399C17.9714 8.73399 18.1252 8.796 18.249 8.92002C18.373 9.04418 18.4351 9.19798 18.4351 9.38142V15.4241C18.4351 16.3182 18.1191 17.0813 17.4872 17.7134C16.8552 18.3453 16.0921 18.6612 15.1979 18.6612H9.54371ZM10.5248 11.7553V6.7917C10.5248 6.60827 10.5869 6.45447 10.711 6.3303C10.8352 6.20629 10.9891 6.14428 11.1726 6.14428C11.3561 6.14428 11.5098 6.20629 11.6338 6.3303C11.7577 6.45447 11.8196 6.60827 11.8196 6.7917V11.7553H10.5248ZM13.8366 11.7553V7.73803C13.8366 7.55459 13.8987 7.40079 14.0228 7.27663C14.147 7.15261 14.3009 7.0906 14.4845 7.0906C14.6679 7.0906 14.8216 7.15261 14.9456 7.27663C15.0695 7.40079 15.1314 7.55459 15.1314 7.73803V11.7553H13.8366Z" fill="white"/>
</g>
</svg>
