<svg width="9" height="9" viewBox="0 0 9 9" fill="none" xmlns="http://www.w3.org/2000/svg">
<g clip-path="url(#clip0_4295_6552)">
<path d="M8.19045 2.93602C8.17731 3.39195 7.98984 3.82548 7.66664 4.14733L6.529 5.28564C6.3633 5.45223 6.16621 5.58431 5.94913 5.67423C5.73205 5.76414 5.49929 5.8101 5.26432 5.80945H5.26269C5.02371 5.80928 4.78719 5.76122 4.5671 5.6681C4.34701 5.57499 4.14781 5.43871 3.98127 5.26732C3.81474 5.09593 3.68423 4.8929 3.59748 4.67023C3.51072 4.44756 3.46947 4.20976 3.47617 3.97087C3.47812 3.90141 3.50759 3.83557 3.55809 3.78784C3.60858 3.7401 3.67598 3.71438 3.74544 3.71634C3.8149 3.71829 3.88074 3.74776 3.92848 3.79825C3.97621 3.84875 4.00193 3.91614 3.99998 3.98561C3.99521 4.15451 4.02434 4.32266 4.08566 4.48011C4.14698 4.63756 4.23924 4.78113 4.35698 4.90232C4.47473 5.02352 4.61557 5.11988 4.77119 5.18571C4.92681 5.25155 5.09404 5.28553 5.26301 5.28564C5.42911 5.28604 5.59365 5.25353 5.74711 5.18998C5.90057 5.12643 6.03991 5.03309 6.15709 4.91537L7.29474 3.77772C7.52946 3.54004 7.66061 3.21916 7.65957 2.88512C7.65852 2.55108 7.52536 2.23102 7.28916 1.99482C7.05296 1.75861 6.7329 1.62545 6.39886 1.62441C6.06482 1.62336 5.74393 1.75452 5.50626 1.98924L5.14614 2.34936C5.09662 2.3964 5.03069 2.42224 4.96239 2.42136C4.8941 2.42049 4.82885 2.39297 4.78055 2.34468C4.73226 2.29638 4.70474 2.23113 4.70386 2.16283C4.70299 2.09454 4.72883 2.0286 4.77587 1.97909L5.13599 1.61897C5.30213 1.45277 5.49939 1.32093 5.7165 1.23098C5.93361 1.14102 6.16631 1.09473 6.40132 1.09473C6.63632 1.09473 6.86902 1.14102 7.08613 1.23098C7.30324 1.32093 7.5005 1.45277 7.66664 1.61897C7.83873 1.79149 7.97392 1.99722 8.06397 2.22364C8.15402 2.45006 8.19705 2.69244 8.19045 2.93602ZM3.90176 6.1257L3.54164 6.48582C3.4242 6.60407 3.28441 6.69779 3.13041 6.76152C2.97642 6.82526 2.81128 6.85773 2.64462 6.85706C2.3946 6.85686 2.15025 6.78256 1.94244 6.64354C1.73463 6.50452 1.5727 6.30703 1.47709 6.07601C1.38148 5.84499 1.35649 5.59082 1.40528 5.34561C1.45407 5.10039 1.57444 4.87514 1.7512 4.69831L2.88688 3.56067C3.06576 3.38085 3.29457 3.25897 3.54361 3.21086C3.79264 3.16274 4.05038 3.19063 4.28337 3.29088C4.51635 3.39113 4.71381 3.55913 4.85009 3.77304C4.98638 3.98695 5.05519 4.2369 5.0476 4.49043C5.04564 4.55989 5.07136 4.62728 5.1191 4.67778C5.16683 4.72828 5.23267 4.75774 5.30213 4.7597C5.3716 4.76165 5.43899 4.73593 5.48949 4.6882C5.53999 4.64046 5.56945 4.57462 5.57141 4.50516C5.57769 4.26196 5.53451 4.02001 5.44446 3.79401C5.35442 3.568 5.2194 3.36265 5.0476 3.1904C4.71209 2.85504 4.25713 2.66665 3.78276 2.66665C3.30839 2.66665 2.85343 2.85504 2.51792 3.1904L1.38093 4.32805C1.13089 4.57799 0.960545 4.89644 0.891433 5.24317C0.822321 5.58989 0.857541 5.94932 0.99264 6.27603C1.12774 6.60274 1.35666 6.88207 1.65046 7.07872C1.94426 7.27538 2.28977 7.38052 2.64331 7.38087C2.87833 7.38155 3.11115 7.3356 3.32828 7.24569C3.54542 7.15578 3.74257 7.02369 3.90831 6.85706L4.26843 6.49695C4.31081 6.44702 4.33296 6.38303 4.33049 6.31759C4.32803 6.25214 4.30113 6.19 4.25511 6.1434C4.20909 6.09681 4.14729 6.06914 4.08188 6.06587C4.01647 6.06259 3.95221 6.08393 3.90176 6.1257Z" fill="#2A52C6"/>
</g>
<defs>
<clipPath id="clip0_4295_6552">
<rect width="8.38095" height="8.38095" fill="white" transform="translate(0.333496 0.0473633)"/>
</clipPath>
</defs>
</svg>
