<svg width="21" height="20" viewBox="0 0 21 20" fill="none" xmlns="http://www.w3.org/2000/svg">
<path d="M18.1132 8.06867C17.8254 7.76796 17.5278 7.45809 17.4156 7.18562C17.3118 6.93605 17.3057 6.52238 17.2996 6.12169C17.2881 5.37679 17.2759 4.53267 16.689 3.94575C16.1021 3.35883 15.2579 3.34662 14.513 3.33517C14.1123 3.32907 13.6987 3.32296 13.4491 3.21916C13.1774 3.10697 12.8668 2.80931 12.5661 2.52158C12.0394 2.01556 11.4411 1.44238 10.6443 1.44238C9.84747 1.44238 9.24986 2.01556 8.72248 2.52158C8.42177 2.80931 8.1119 3.10697 7.83943 3.21916C7.59138 3.32296 7.17619 3.32907 6.7755 3.33517C6.0306 3.34662 5.18647 3.35883 4.59956 3.94575C4.01264 4.53267 4.00424 5.37679 3.98898 6.12169C3.98287 6.52238 3.97677 6.93605 3.87297 7.18562C3.76078 7.45733 3.46312 7.76796 3.17539 8.06867C2.66937 8.59529 2.09619 9.19366 2.09619 9.99046C2.09619 10.7873 2.66937 11.3849 3.17539 11.9123C3.46312 12.213 3.76078 12.5228 3.87297 12.7953C3.97677 13.0449 3.98287 13.4585 3.98898 13.8592C4.00043 14.6041 4.01264 15.4483 4.59956 16.0352C5.18647 16.6221 6.0306 16.6343 6.7755 16.6457C7.17619 16.6519 7.58986 16.658 7.83943 16.7618C8.11114 16.874 8.42177 17.1716 8.72248 17.4593C9.2491 17.9654 9.84747 18.5385 10.6443 18.5385C11.4411 18.5385 12.0387 17.9654 12.5661 17.4593C12.8668 17.1716 13.1766 16.874 13.4491 16.7618C13.6987 16.658 14.1123 16.6519 14.513 16.6457C15.2579 16.6343 16.1021 16.6221 16.689 16.0352C17.2759 15.4483 17.2881 14.6041 17.2996 13.8592C17.3057 13.4585 17.3118 13.0449 17.4156 12.7953C17.5278 12.5236 17.8254 12.213 18.1132 11.9123C18.6192 11.3856 19.1923 10.7873 19.1923 9.99046C19.1923 9.19366 18.6192 8.59605 18.1132 8.06867ZM14.1291 8.59071L9.8551 12.8648C9.79839 12.9215 9.73105 12.9666 9.65693 12.9973C9.58281 13.028 9.50335 13.0438 9.42311 13.0438C9.34288 13.0438 9.26342 13.028 9.1893 12.9973C9.11518 12.9666 9.04784 12.9215 8.99113 12.8648L7.1594 11.033C7.10267 10.9763 7.05767 10.9089 7.02697 10.8348C6.99627 10.7607 6.98047 10.6813 6.98047 10.601C6.98047 10.5208 6.99627 10.4414 7.02697 10.3672C7.05767 10.2931 7.10267 10.2258 7.1594 10.1691C7.27397 10.0545 7.42936 9.99012 7.59138 9.99012C7.67161 9.99012 7.75105 10.0059 7.82517 10.0366C7.89929 10.0673 7.96664 10.1123 8.02337 10.1691L9.42311 11.5696L13.2652 7.72675C13.3219 7.67002 13.3892 7.62502 13.4634 7.59432C13.5375 7.56361 13.6169 7.54781 13.6972 7.54781C13.7774 7.54781 13.8568 7.56361 13.9309 7.59432C14.0051 7.62502 14.0724 7.67002 14.1291 7.72675C14.1859 7.78347 14.2309 7.85082 14.2616 7.92494C14.2923 7.99906 14.3081 8.0785 14.3081 8.15873C14.3081 8.23896 14.2923 8.3184 14.2616 8.39252C14.2309 8.46664 14.1859 8.53398 14.1291 8.59071Z" fill="#4BA9FE"/>
</svg>
