<svg width="21" height="20" viewBox="0 0 21 20" fill="none" xmlns="http://www.w3.org/2000/svg">
<path d="M18.1132 8.22199C17.8254 7.92128 17.5278 7.61141 17.4156 7.33894C17.3118 7.08937 17.3057 6.6757 17.2996 6.27501C17.2881 5.53011 17.2759 4.68599 16.689 4.09907C16.1021 3.51215 15.2579 3.49994 14.513 3.48849C14.1123 3.48239 13.6987 3.47628 13.4491 3.37248C13.1774 3.26029 12.8668 2.96263 12.5661 2.6749C12.0394 2.16888 11.4411 1.5957 10.6443 1.5957C9.84747 1.5957 9.24986 2.16888 8.72248 2.6749C8.42177 2.96263 8.1119 3.26029 7.83943 3.37248C7.59138 3.47628 7.17619 3.48239 6.7755 3.48849C6.0306 3.49994 5.18647 3.51215 4.59956 4.09907C4.01264 4.68599 4.00424 5.53011 3.98898 6.27501C3.98287 6.6757 3.97677 7.08937 3.87297 7.33894C3.76078 7.61065 3.46312 7.92128 3.17539 8.22199C2.66937 8.74861 2.09619 9.34698 2.09619 10.1438C2.09619 10.9406 2.66937 11.5382 3.17539 12.0656C3.46312 12.3663 3.76078 12.6761 3.87297 12.9486C3.97677 13.1982 3.98287 13.6119 3.98898 14.0125C4.00043 14.7575 4.01264 15.6016 4.59956 16.1885C5.18647 16.7754 6.0306 16.7876 6.7755 16.7991C7.17619 16.8052 7.58986 16.8113 7.83943 16.9151C8.11114 17.0273 8.42177 17.3249 8.72248 17.6127C9.2491 18.1187 9.84747 18.6919 10.6443 18.6919C11.4411 18.6919 12.0387 18.1187 12.5661 17.6127C12.8668 17.3249 13.1766 17.0273 13.4491 16.9151C13.6987 16.8113 14.1123 16.8052 14.513 16.7991C15.2579 16.7876 16.1021 16.7754 16.689 16.1885C17.2759 15.6016 17.2881 14.7575 17.2996 14.0125C17.3057 13.6119 17.3118 13.1982 17.4156 12.9486C17.5278 12.6769 17.8254 12.3663 18.1132 12.0656C18.6192 11.5389 19.1923 10.9406 19.1923 10.1438C19.1923 9.34698 18.6192 8.74937 18.1132 8.22199ZM14.1291 8.74403L9.8551 13.0181C9.79839 13.0748 9.73105 13.1199 9.65693 13.1506C9.58281 13.1813 9.50335 13.1971 9.42311 13.1971C9.34288 13.1971 9.26342 13.1813 9.1893 13.1506C9.11518 13.1199 9.04784 13.0748 8.99113 13.0181L7.1594 11.1863C7.10267 11.1296 7.05767 11.0623 7.02697 10.9881C6.99627 10.914 6.98047 10.8346 6.98047 10.7544C6.98047 10.6741 6.99627 10.5947 7.02697 10.5206C7.05767 10.4464 7.10267 10.3791 7.1594 10.3224C7.27397 10.2078 7.42936 10.1434 7.59138 10.1434C7.67161 10.1434 7.75105 10.1592 7.82517 10.1899C7.89929 10.2206 7.96664 10.2656 8.02337 10.3224L9.42311 11.7229L13.2652 7.88007C13.3219 7.82334 13.3892 7.77834 13.4634 7.74764C13.5375 7.71693 13.6169 7.70113 13.6972 7.70113C13.7774 7.70113 13.8568 7.71693 13.9309 7.74764C14.0051 7.77834 14.0724 7.82334 14.1291 7.88007C14.1859 7.93679 14.2309 8.00414 14.2616 8.07826C14.2923 8.15238 14.3081 8.23182 14.3081 8.31205C14.3081 8.39228 14.2923 8.47172 14.2616 8.54584C14.2309 8.61996 14.1859 8.6873 14.1291 8.74403Z" fill="#4BA9FE"/>
</svg>
