<svg width="25" height="25" viewBox="0 0 25 25" fill="none" xmlns="http://www.w3.org/2000/svg">
<path d="M13.5 19.25H6.5C5.77065 19.25 5.07118 18.9603 4.55546 18.4445C4.03973 17.9288 3.75 17.2293 3.75 16.5V8.5C3.75 7.77065 4.03973 7.07118 4.55546 6.55546C5.07118 6.03973 5.77065 5.75 6.5 5.75H13.5C14.2293 5.75 14.9288 6.03973 15.4445 6.55546C15.9603 7.07118 16.25 7.77065 16.25 8.5V16.5C16.25 17.2293 15.9603 17.9288 15.4445 18.4445C14.9288 18.9603 14.2293 19.25 13.5 19.25ZM6.5 7.25C6.16848 7.25 5.85054 7.3817 5.61612 7.61612C5.3817 7.85054 5.25 8.16848 5.25 8.5V16.5C5.25 16.8315 5.3817 17.1495 5.61612 17.3839C5.85054 17.6183 6.16848 17.75 6.5 17.75H13.5C13.8315 17.75 14.1495 17.6183 14.3839 17.3839C14.6183 17.1495 14.75 16.8315 14.75 16.5V8.5C14.75 8.16848 14.6183 7.85054 14.3839 7.61612C14.1495 7.3817 13.8315 7.25 13.5 7.25H6.5Z" fill="white"/>
<path d="M20.5 17.2499C20.3627 17.2473 20.2284 17.2094 20.11 17.1399L15.11 14.1399C15.0002 14.073 14.9094 13.9791 14.8463 13.867C14.7833 13.7549 14.7501 13.6285 14.75 13.4999V11.4999C14.7501 11.3713 14.7833 11.2449 14.8463 11.1328C14.9094 11.0208 15.0002 10.9268 15.11 10.8599L20.11 7.8599C20.2248 7.79118 20.3562 7.75488 20.49 7.75488C20.6238 7.75488 20.7552 7.79118 20.87 7.8599C20.985 7.92513 21.0807 8.01961 21.1475 8.13376C21.2142 8.24791 21.2496 8.37768 21.25 8.5099V16.5099C21.2496 16.6421 21.2142 16.7719 21.1475 16.886C21.0807 17.0002 20.985 17.0947 20.87 17.1599C20.7574 17.2235 20.6293 17.2547 20.5 17.2499ZM16.25 13.0799L19.75 15.1799V9.8199L16.25 11.9199V13.0799Z" fill="white"/>
</svg>
