<svg width="22" height="22" viewBox="0 0 22 22" fill="none" xmlns="http://www.w3.org/2000/svg">
<mask id="mask0_4236_8365" style="mask-type:alpha" maskUnits="userSpaceOnUse" x="0" y="0" width="22" height="22">
<rect x="0.96875" y="0.616699" width="20.8414" height="20.8414" fill="#D9D9D9"/>
</mask>
<g mask="url(#mask0_4236_8365)">
<path d="M7.82382 18.899H14.574C14.6561 18.899 14.7235 18.8727 14.7762 18.82C14.8289 18.7673 14.8553 18.6998 14.8553 18.6177V11.8676C14.8553 11.7855 14.8289 11.718 14.7762 11.6653C14.7235 11.6126 14.6561 11.5863 14.574 11.5863H7.82382C7.74185 11.5863 7.67444 11.6126 7.62157 11.6653C7.56886 11.718 7.54251 11.7855 7.54251 11.8676V18.6177C7.54251 18.6998 7.56886 18.7673 7.62157 18.82C7.67444 18.8727 7.74185 18.899 7.82382 18.899ZM4.54541 8.28158C5.05989 6.66774 5.99715 5.36774 7.35717 4.38158C8.7172 3.39542 10.2439 2.90234 11.9373 2.90234C13.2392 2.90234 14.456 3.21001 15.5875 3.82535C16.719 4.44054 17.6351 5.28844 18.3359 6.36906V3.35939H19.7071V8.28158H14.7851V6.91043H16.9614C16.4082 6.08774 15.686 5.44254 14.7947 4.97483C13.9035 4.50727 12.951 4.27349 11.9373 4.27349C10.627 4.27349 9.434 4.63623 8.35811 5.36172C7.28237 6.08706 6.50424 7.06034 6.02373 8.28158H4.54541ZM7.82382 20.2702C7.36799 20.2702 6.97866 20.1088 6.65583 19.7859C6.33285 19.463 6.17136 19.0736 6.17136 18.6177V11.8676C6.17136 11.4117 6.33285 11.0223 6.65583 10.6994C6.97866 10.3765 7.36799 10.2151 7.82382 10.2151H14.574C15.0299 10.2151 15.4194 10.3765 15.7422 10.6994C16.065 11.0223 16.2264 11.4117 16.2264 11.8676V14.5571L18.793 11.9905V18.4948L16.2264 15.9282V18.6177C16.2264 19.0736 16.065 19.463 15.7422 19.7859C15.4194 20.1088 15.0299 20.2702 14.574 20.2702H7.82382Z" fill="#B0B0B0"/>
</g>
</svg>
