<svg width="12" height="12" viewBox="0 0 12 12" fill="none" xmlns="http://www.w3.org/2000/svg">
<mask id="mask0_4220_5841" style="mask-type:alpha" maskUnits="userSpaceOnUse" x="0" y="0" width="12" height="12">
<rect x="0.68457" width="11.1684" height="11.1684" fill="#D9D9D9"/>
</mask>
<g mask="url(#mask0_4220_5841)">
<path d="M4.98982 10.2376L4.80368 8.74853C4.70286 8.70975 4.60785 8.66321 4.51865 8.60892C4.42946 8.55463 4.34221 8.49646 4.2569 8.43441L2.87248 9.0161L1.59277 6.80569L2.79105 5.89826C2.78329 5.84397 2.77941 5.79162 2.77941 5.74121V5.4271C2.77941 5.37668 2.78329 5.32433 2.79105 5.27004L1.59277 4.36261L2.87248 2.1522L4.2569 2.73389C4.34221 2.67184 4.4314 2.61368 4.52447 2.55939C4.61754 2.50509 4.71061 2.45856 4.80368 2.41978L4.98982 0.930664H7.54924L7.73538 2.41978C7.8362 2.45856 7.93121 2.50509 8.02041 2.55939C8.1096 2.61368 8.19685 2.67184 8.28216 2.73389L9.66658 2.1522L10.9463 4.36261L9.74801 5.27004C9.75577 5.32433 9.75965 5.37668 9.75965 5.4271V5.74121C9.75965 5.79162 9.75189 5.84397 9.73638 5.89826L10.9347 6.80569L9.65494 9.0161L8.28216 8.43441C8.19685 8.49646 8.10766 8.55463 8.01459 8.60892C7.92152 8.66321 7.82845 8.70975 7.73538 8.74853L7.54924 10.2376H4.98982ZM5.80418 9.30694H6.72325L6.88612 8.07377C7.12655 8.01172 7.34953 7.92059 7.55506 7.80038C7.76059 7.68016 7.94866 7.53474 8.11929 7.36411L9.27103 7.84109L9.72475 7.05L8.72425 6.29381C8.76302 6.18523 8.79017 6.07083 8.80568 5.95062C8.82119 5.8304 8.82895 5.70825 8.82895 5.58415C8.82895 5.46006 8.82119 5.33791 8.80568 5.21769C8.79017 5.09748 8.76302 4.98308 8.72425 4.8745L9.72475 4.1183L9.27103 3.32721L8.11929 3.81583C7.94866 3.63744 7.76059 3.48814 7.55506 3.36793C7.34953 3.24771 7.12655 3.15658 6.88612 3.09454L6.73488 1.86136H5.81581L5.65294 3.09454C5.41251 3.15658 5.18953 3.24771 4.984 3.36793C4.77847 3.48814 4.5904 3.63357 4.41977 3.80419L3.26803 3.32721L2.81431 4.1183L3.81481 4.86286C3.77604 4.9792 3.74889 5.09554 3.73338 5.21187C3.71787 5.32821 3.71011 5.4523 3.71011 5.58415C3.71011 5.70825 3.71787 5.82846 3.73338 5.9448C3.74889 6.06114 3.77604 6.17747 3.81481 6.29381L2.81431 7.05L3.26803 7.84109L4.41977 7.35248C4.5904 7.53086 4.77847 7.68016 4.984 7.80038C5.18953 7.92059 5.41251 8.01172 5.65294 8.07377L5.80418 9.30694ZM6.2928 7.21287C6.74263 7.21287 7.12655 7.05388 7.44454 6.73589C7.76252 6.4179 7.92152 6.03399 7.92152 5.58415C7.92152 5.13432 7.76252 4.7504 7.44454 4.43241C7.12655 4.11443 6.74263 3.95543 6.2928 3.95543C5.8352 3.95543 5.44935 4.11443 5.13524 4.43241C4.82113 4.7504 4.66408 5.13432 4.66408 5.58415C4.66408 6.03399 4.82113 6.4179 5.13524 6.73589C5.44935 7.05388 5.8352 7.21287 6.2928 7.21287Z" fill="white"/>
</g>
</svg>
