<svg width="25" height="25" viewBox="0 0 25 25" fill="none" xmlns="http://www.w3.org/2000/svg">
<mask id="mask0_4293_4948" style="mask-type:alpha" maskUnits="userSpaceOnUse" x="0" y="0" width="25" height="25">
<rect x="0.596191" y="0.589844" width="23.9307" height="23.9307" fill="#D9D9D9"/>
</mask>
<g mask="url(#mask0_4293_4948)">
<path d="M17.354 22.0276C16.6077 22.0276 15.974 21.7666 15.453 21.2446C14.9322 20.7227 14.6718 20.0888 14.6718 19.3432C14.6718 19.2434 14.7063 19.0011 14.7752 18.6163L7.68428 14.4419C7.44398 14.6911 7.15847 14.8864 6.82776 15.0277C6.49705 15.1689 6.14275 15.2395 5.76484 15.2395C5.02183 15.2395 4.39024 14.9775 3.87008 14.4533C3.34992 13.9292 3.08984 13.2964 3.08984 12.5551C3.08984 11.8137 3.34992 11.181 3.87008 10.6568C4.39024 10.1327 5.02183 9.8706 5.76484 9.8706C6.14275 9.8706 6.49705 9.94123 6.82776 10.0825C7.15847 10.2237 7.44398 10.419 7.68428 10.6683L14.7752 6.50336C14.7357 6.38071 14.7085 6.26056 14.6937 6.1429C14.6791 6.02524 14.6718 5.89994 14.6718 5.76699C14.6718 5.02132 14.9329 4.38749 15.4553 3.8655C15.9778 3.34351 16.6122 3.08252 17.3585 3.08252C18.1048 3.08252 18.7384 3.34376 19.2592 3.86625C19.7802 4.38857 20.0407 5.0229 20.0407 5.76924C20.0407 6.51557 19.7797 7.14924 19.2577 7.67023C18.7358 8.19105 18.1019 8.45146 17.3563 8.45146C16.9765 8.45146 16.6234 8.37926 16.2968 8.23484C15.9701 8.09043 15.6866 7.89358 15.4463 7.6443L8.35534 11.8187C8.39489 11.9415 8.42206 12.0617 8.43685 12.1792C8.45148 12.2968 8.45879 12.4221 8.45879 12.5551C8.45879 12.688 8.45148 12.8133 8.43685 12.931C8.42206 13.0485 8.39489 13.1686 8.35534 13.2914L15.4463 17.4658C15.6866 17.2166 15.9701 17.0197 16.2968 16.8753C16.6234 16.7309 16.9765 16.6587 17.3563 16.6587C18.1019 16.6587 18.7358 16.9198 19.2577 17.4422C19.7797 17.9646 20.0407 18.5991 20.0407 19.3454C20.0407 20.0917 19.7795 20.7253 19.257 21.2461C18.7347 21.7671 18.1003 22.0276 17.354 22.0276ZM17.3563 20.532C17.6931 20.532 17.9755 20.418 18.2033 20.1902C18.4311 19.9624 18.5451 19.68 18.5451 19.3432C18.5451 19.0063 18.4311 18.7239 18.2033 18.4961C17.9755 18.2681 17.6931 18.1541 17.3563 18.1541C17.0194 18.1541 16.7371 18.2681 16.5092 18.4961C16.2812 18.7239 16.1672 19.0063 16.1672 19.3432C16.1672 19.68 16.2812 19.9624 16.5092 20.1902C16.7371 20.418 17.0194 20.532 17.3563 20.532ZM5.76484 13.7439C6.10436 13.7439 6.38895 13.63 6.61862 13.4021C6.84845 13.1743 6.96337 12.8919 6.96337 12.5551C6.96337 12.2182 6.84845 11.9359 6.61862 11.708C6.38895 11.4802 6.10436 11.3663 5.76484 11.3663C5.43064 11.3663 5.15054 11.4802 4.92453 11.708C4.69852 11.9359 4.58551 12.2182 4.58551 12.5551C4.58551 12.8919 4.69852 13.1743 4.92453 13.4021C5.15054 13.63 5.43064 13.7439 5.76484 13.7439ZM17.3563 6.95605C17.6931 6.95605 17.9755 6.84204 18.2033 6.61404C18.4311 6.3862 18.5451 6.10385 18.5451 5.76699C18.5451 5.43013 18.4311 5.14779 18.2033 4.91995C17.9755 4.69211 17.6931 4.57819 17.3563 4.57819C17.0194 4.57819 16.7371 4.69211 16.5092 4.91995C16.2812 5.14779 16.1672 5.43013 16.1672 5.76699C16.1672 6.10385 16.2812 6.3862 16.5092 6.61404C16.7371 6.84204 17.0194 6.95605 17.3563 6.95605Z" fill="white"/>
</g>
</svg>
