<svg width="16" height="16" viewBox="0 0 16 16" fill="none" xmlns="http://www.w3.org/2000/svg">
<mask id="mask0_4364_5735" style="mask-type:alpha" maskUnits="userSpaceOnUse" x="0" y="0" width="16" height="16">
<rect x="0.576172" y="0.625" width="15.1073" height="15.1073" fill="#D9D9D9"/>
</mask>
<g mask="url(#mask0_4364_5735)">
<path d="M11.1523 14.1591C10.6812 14.1591 10.2811 13.9944 9.95225 13.6648C9.62346 13.3353 9.45906 12.9352 9.45906 12.4644C9.45906 12.4015 9.48083 12.2485 9.52437 12.0056L5.0479 9.37029C4.89619 9.52765 4.71596 9.65093 4.50718 9.7401C4.29841 9.82928 4.07474 9.87386 3.83617 9.87386C3.36711 9.87386 2.96839 9.70842 2.64002 9.37753C2.31165 9.04664 2.14746 8.64718 2.14746 8.17917C2.14746 7.71116 2.31165 7.31171 2.64002 6.98082C2.96839 6.64993 3.36711 6.48449 3.83617 6.48449C4.07474 6.48449 4.29841 6.52907 4.50718 6.61825C4.71596 6.70742 4.89619 6.83069 5.0479 6.98806L9.52437 4.35877C9.4994 4.28134 9.48224 4.20549 9.47291 4.13122C9.46367 4.05694 9.45906 3.97784 9.45906 3.89391C9.45906 3.42317 9.62393 3.02304 9.95366 2.69351C10.2835 2.36398 10.684 2.19922 11.1552 2.19922C11.6263 2.19922 12.0263 2.36414 12.3551 2.69398C12.684 3.02372 12.8484 3.42417 12.8484 3.89532C12.8484 4.36648 12.6837 4.76651 12.3541 5.09541C12.0246 5.4242 11.6245 5.58859 11.1537 5.58859C10.914 5.58859 10.6911 5.54301 10.4849 5.45184C10.2787 5.36067 10.0997 5.23641 9.948 5.07904L5.47153 7.71431C5.4965 7.79184 5.51365 7.86769 5.52299 7.94186C5.53222 8.01614 5.53684 8.09525 5.53684 8.17917C5.53684 8.2631 5.53222 8.34221 5.52299 8.41648C5.51365 8.49066 5.4965 8.56651 5.47153 8.64404L9.948 11.2793C10.0997 11.1219 10.2787 10.9977 10.4849 10.9065C10.6911 10.8153 10.914 10.7698 11.1537 10.7698C11.6245 10.7698 12.0246 10.9346 12.3541 11.2644C12.6837 11.5942 12.8484 11.9947 12.8484 12.4659C12.8484 12.937 12.6835 13.337 12.3537 13.6658C12.0239 13.9947 11.6235 14.1591 11.1523 14.1591ZM11.1537 13.2149C11.3664 13.2149 11.5446 13.143 11.6885 12.9992C11.8323 12.8553 11.9042 12.6771 11.9042 12.4644C11.9042 12.2518 11.8323 12.0735 11.6885 11.9297C11.5446 11.7858 11.3664 11.7138 11.1537 11.7138C10.9411 11.7138 10.7628 11.7858 10.619 11.9297C10.4751 12.0735 10.4031 12.2518 10.4031 12.4644C10.4031 12.6771 10.4751 12.8553 10.619 12.9992C10.7628 13.143 10.9411 13.2149 11.1537 13.2149ZM3.83617 8.92966C4.0505 8.92966 4.23016 8.85774 4.37515 8.71391C4.52024 8.57008 4.59279 8.39183 4.59279 8.17917C4.59279 7.96652 4.52024 7.78827 4.37515 7.64444C4.23016 7.50061 4.0505 7.42869 3.83617 7.42869C3.62519 7.42869 3.44836 7.50061 3.30568 7.64444C3.163 7.78827 3.09166 7.96652 3.09166 8.17917C3.09166 8.39183 3.163 8.57008 3.30568 8.71391C3.44836 8.85774 3.62519 8.92966 3.83617 8.92966ZM11.1537 4.64455C11.3664 4.64455 11.5446 4.57258 11.6885 4.42864C11.8323 4.28481 11.9042 4.10656 11.9042 3.89391C11.9042 3.68125 11.8323 3.50301 11.6885 3.35917C11.5446 3.21534 11.3664 3.14342 11.1537 3.14342C10.9411 3.14342 10.7628 3.21534 10.619 3.35917C10.4751 3.50301 10.4031 3.68125 10.4031 3.89391C10.4031 4.10656 10.4751 4.28481 10.619 4.42864C10.7628 4.57258 10.9411 4.64455 11.1537 4.64455Z" fill="#FFF8F0"/>
</g>
</svg>
