<svg width="22" height="22" viewBox="0 0 22 22" fill="none" xmlns="http://www.w3.org/2000/svg">
<mask id="mask0_4236_8317" style="mask-type:alpha" maskUnits="userSpaceOnUse" x="0" y="0" width="22" height="22">
<rect x="0.96875" y="0.532715" width="20.8414" height="20.8414" fill="#D9D9D9"/>
</mask>
<g mask="url(#mask0_4236_8317)">
<path d="M16.33 20.1862C15.6458 20.1862 15.0649 19.9469 14.5873 19.4684C14.1098 18.9899 13.8711 18.4088 13.8711 17.7252C13.8711 17.6338 13.9027 17.4117 13.9659 17.0588L7.46535 13.232C7.24505 13.4605 6.98331 13.6395 6.68014 13.769C6.37696 13.8985 6.05215 13.9633 5.70571 13.9633C5.02456 13.9633 4.44555 13.723 3.9687 13.2425C3.49184 12.762 3.25342 12.1819 3.25342 11.5023C3.25342 10.8226 3.49184 10.2426 3.9687 9.76207C4.44555 9.28156 5.02456 9.0413 5.70571 9.0413C6.05215 9.0413 6.37696 9.10605 6.68014 9.23555C6.98331 9.36505 7.24505 9.54406 7.46535 9.77258L13.9659 5.9544C13.9297 5.84196 13.9048 5.73182 13.8912 5.62395C13.8778 5.51609 13.8711 5.40122 13.8711 5.27934C13.8711 4.59574 14.1105 4.01468 14.5894 3.53615C15.0683 3.05762 15.6499 2.81836 16.3341 2.81836C17.0183 2.81836 17.5992 3.05785 18.0766 3.53684C18.5543 4.01567 18.7931 4.59719 18.7931 5.28139C18.7931 5.9656 18.5538 6.5465 18.0753 7.02412C17.5967 7.50158 17.0157 7.74031 16.3321 7.74031C15.984 7.74031 15.6602 7.67412 15.3609 7.54173C15.0613 7.40934 14.8014 7.22888 14.5811 7.00035L8.08054 10.8272C8.1168 10.9398 8.1417 11.05 8.15526 11.1577C8.16867 11.2655 8.17537 11.3804 8.17537 11.5023C8.17537 11.6242 8.16867 11.739 8.15526 11.8469C8.1417 11.9546 8.1168 12.0648 8.08054 12.1773L14.5811 16.0042C14.8014 15.7757 15.0613 15.5952 15.3609 15.4628C15.6602 15.3304 15.984 15.2642 16.3321 15.2642C17.0157 15.2642 17.5967 15.5037 18.0753 15.9825C18.5538 16.4615 18.7931 17.0431 18.7931 17.7273C18.7931 18.4115 18.5536 18.9923 18.0746 19.4698C17.5958 19.9474 17.0142 20.1862 16.33 20.1862ZM16.3321 18.8151C16.6409 18.8151 16.8997 18.7106 17.1086 18.5017C17.3175 18.2929 17.4219 18.034 17.4219 17.7252C17.4219 17.4164 17.3175 17.1576 17.1086 16.9487C16.8997 16.7397 16.6409 16.6352 16.3321 16.6352C16.0233 16.6352 15.7644 16.7397 15.5556 16.9487C15.3465 17.1576 15.242 17.4164 15.242 17.7252C15.242 18.034 15.3465 18.2929 15.5556 18.5017C15.7644 18.7106 16.0233 18.8151 16.3321 18.8151ZM5.70571 12.5921C6.01696 12.5921 6.27786 12.4877 6.48841 12.2788C6.69911 12.0699 6.80446 11.8111 6.80446 11.5023C6.80446 11.1935 6.69911 10.9346 6.48841 10.7258C6.27786 10.5169 6.01696 10.4124 5.70571 10.4124C5.39934 10.4124 5.14255 10.5169 4.93536 10.7258C4.72816 10.9346 4.62456 11.1935 4.62456 11.5023C4.62456 11.8111 4.72816 12.0699 4.93536 12.2788C5.14255 12.4877 5.39934 12.5921 5.70571 12.5921ZM16.3321 6.3694C16.6409 6.3694 16.8997 6.26489 17.1086 6.05586C17.3175 5.84699 17.4219 5.58815 17.4219 5.27934C17.4219 4.97052 17.3175 4.71168 17.1086 4.50281C16.8997 4.29394 16.6409 4.1895 16.3321 4.1895C16.0233 4.1895 15.7644 4.29394 15.5556 4.50281C15.3465 4.71168 15.242 4.97052 15.242 5.27934C15.242 5.58815 15.3465 5.84699 15.5556 6.05586C15.7644 6.26489 16.0233 6.3694 16.3321 6.3694Z" fill="#B0B0B0"/>
</g>
</svg>
