<svg width="9" height="10" viewBox="0 0 9 10" fill="none" xmlns="http://www.w3.org/2000/svg">
<mask id="mask0_4299_6876" style="mask-type:alpha" maskUnits="userSpaceOnUse" x="0" y="0" width="9" height="10">
<rect x="0.00585938" y="0.986328" width="8.55097" height="8.55097" fill="#D9D9D9"/>
</mask>
<g mask="url(#mask0_4299_6876)">
<path d="M5.99388 8.64745C5.7272 8.64745 5.50078 8.55419 5.31462 8.36767C5.12851 8.18115 5.03546 7.95467 5.03546 7.68822C5.03546 7.65259 5.04778 7.56602 5.07243 7.42849L2.53867 5.93688C2.4528 6.02595 2.35079 6.09572 2.23262 6.1462C2.11445 6.19667 1.98784 6.22191 1.85281 6.22191C1.58731 6.22191 1.36163 6.12826 1.17577 5.94098C0.989905 5.75369 0.896973 5.52759 0.896973 5.26269C0.896973 4.99779 0.989905 4.77169 1.17577 4.5844C1.36163 4.39711 1.58731 4.30346 1.85281 4.30346C1.98784 4.30346 2.11445 4.3287 2.23262 4.37918C2.35079 4.42965 2.4528 4.49942 2.53867 4.5885L5.07243 3.10027C5.05829 3.05645 5.04859 3.01352 5.0433 2.97147C5.03807 2.92943 5.03546 2.88466 5.03546 2.83715C5.03546 2.57071 5.12878 2.34422 5.31542 2.15771C5.50211 1.97119 5.7288 1.87793 5.99549 1.87793C6.26217 1.87793 6.48856 1.97128 6.67466 2.15797C6.86083 2.34461 6.95391 2.57127 6.95391 2.83795C6.95391 3.10464 6.86065 3.33106 6.67413 3.51722C6.48761 3.70332 6.26113 3.79637 5.99468 3.79637C5.859 3.79637 5.73281 3.77057 5.61613 3.71897C5.49938 3.66737 5.39808 3.59703 5.31221 3.50796L2.77845 4.99957C2.79259 5.04345 2.80229 5.08638 2.80758 5.12837C2.8128 5.17041 2.81542 5.21518 2.81542 5.26269C2.81542 5.31019 2.8128 5.35497 2.80758 5.39701C2.80229 5.43899 2.79259 5.48192 2.77845 5.52581L5.31221 7.01742C5.39808 6.92834 5.49938 6.85801 5.61613 6.8064C5.73281 6.7548 5.859 6.729 5.99468 6.729C6.26113 6.729 6.48761 6.82232 6.67413 7.00896C6.86065 7.19565 6.95391 7.42234 6.95391 7.68902C6.95391 7.95571 6.86056 8.1821 6.67386 8.3682C6.48723 8.55436 6.26057 8.64745 5.99388 8.64745ZM5.99468 8.11301C6.11505 8.11301 6.21594 8.0723 6.29735 7.99089C6.37877 7.90948 6.41947 7.80859 6.41947 7.68822C6.41947 7.56786 6.37877 7.46697 6.29735 7.38555C6.21594 7.30408 6.11505 7.26335 5.99468 7.26335C5.87432 7.26335 5.77343 7.30408 5.69202 7.38555C5.61054 7.46697 5.56981 7.56786 5.56981 7.68822C5.56981 7.80859 5.61054 7.90948 5.69202 7.99089C5.77343 8.0723 5.87432 8.11301 5.99468 8.11301ZM1.85281 5.68747C1.97413 5.68747 2.07582 5.64677 2.15788 5.56536C2.24001 5.48394 2.28107 5.38305 2.28107 5.26269C2.28107 5.14232 2.24001 5.04143 2.15788 4.96002C2.07582 4.87861 1.97413 4.8379 1.85281 4.8379C1.73339 4.8379 1.63331 4.87861 1.55255 4.96002C1.47179 5.04143 1.43141 5.14232 1.43141 5.26269C1.43141 5.38305 1.47179 5.48394 1.55255 5.56536C1.63331 5.64677 1.73339 5.68747 1.85281 5.68747ZM5.99468 3.26203C6.11505 3.26203 6.21594 3.22129 6.29735 3.13982C6.37877 3.05841 6.41947 2.95752 6.41947 2.83715C6.41947 2.71679 6.37877 2.6159 6.29735 2.53448C6.21594 2.45307 6.11505 2.41237 5.99468 2.41237C5.87432 2.41237 5.77343 2.45307 5.69202 2.53448C5.61054 2.6159 5.56981 2.71679 5.56981 2.83715C5.56981 2.95752 5.61054 3.05841 5.69202 3.13982C5.77343 3.22129 5.87432 3.26203 5.99468 3.26203Z" fill="white"/>
</g>
</svg>
