<svg width="8" height="9" viewBox="0 0 8 9" fill="none" xmlns="http://www.w3.org/2000/svg">
<mask id="mask0_4294_6281" style="mask-type:alpha" maskUnits="userSpaceOnUse" x="0" y="0" width="8" height="9">
<rect x="1.48486" y="0.961914" width="6.52775" height="6.52775" transform="rotate(7.95999 1.48486 0.961914)" fill="#D9D9D9"/>
</mask>
<g mask="url(#mask0_4294_6281)">
<path d="M5.20226 7.38632C5.00064 7.35813 4.83932 7.26369 4.71829 7.10299C4.59731 6.9423 4.5509 6.76124 4.57907 6.5598C4.58283 6.53286 4.6013 6.4687 4.63447 6.36733L2.87654 4.97176C2.80221 5.03003 2.7177 5.07199 2.62303 5.09766C2.52835 5.12333 2.42997 5.12903 2.32787 5.11475C2.12715 5.08668 1.96643 4.99203 1.84571 4.83078C1.72498 4.66953 1.67863 4.48877 1.70663 4.2885C1.73464 4.08822 1.8288 3.92711 1.98912 3.80516C2.14944 3.68321 2.32996 3.63627 2.53068 3.66434C2.63278 3.67861 2.72582 3.71107 2.80983 3.76173C2.89383 3.81238 2.96359 3.87592 3.01909 3.95234L5.09203 3.09504C5.08598 3.06041 5.08318 3.02693 5.08363 2.99459C5.08412 2.96225 5.08688 2.92812 5.0919 2.8922C5.12007 2.69076 5.21456 2.5294 5.37539 2.40811C5.53625 2.28684 5.7175 2.24029 5.91912 2.26849C6.12074 2.29668 6.28204 2.39119 6.403 2.55201C6.52402 2.71279 6.57043 2.894 6.54223 3.09562C6.51404 3.29724 6.4196 3.45857 6.2589 3.57959C6.09821 3.70058 5.91715 3.74699 5.71571 3.71882C5.61312 3.70447 5.52045 3.67163 5.43768 3.62028C5.35488 3.56892 5.28572 3.50503 5.23022 3.42862L3.15692 4.28847C3.16296 4.32314 3.16576 4.35663 3.16532 4.38893C3.16483 4.42126 3.16207 4.45539 3.15705 4.49131C3.15203 4.52722 3.14532 4.5608 3.13692 4.59203C3.12849 4.62321 3.11661 4.65464 3.10128 4.68633L4.85921 6.0819C4.93355 6.02363 5.01757 5.98117 5.11129 5.95449C5.20497 5.92781 5.3031 5.92165 5.40568 5.93599C5.60712 5.96416 5.76849 6.05865 5.88977 6.21948C6.01105 6.38034 6.05759 6.56159 6.0294 6.76321C6.00121 6.96483 5.9067 7.12613 5.74588 7.24709C5.58509 7.36811 5.40389 7.41452 5.20226 7.38632ZM5.25937 6.98236C5.35037 6.99508 5.43095 6.97497 5.50111 6.92203C5.57126 6.86908 5.61271 6.79711 5.62543 6.70611C5.63815 6.61511 5.61804 6.53453 5.5651 6.46437C5.51216 6.39417 5.44019 6.3527 5.34919 6.33998C5.25819 6.32725 5.17761 6.34739 5.10744 6.40038C5.03724 6.45331 4.99578 6.52528 4.98305 6.61628C4.97033 6.70729 4.99046 6.78787 5.04345 6.85803C5.09639 6.92819 5.16837 6.96963 5.25937 6.98236ZM2.38437 4.7107C2.47609 4.72352 2.55728 4.7035 2.62793 4.65062C2.69863 4.59775 2.74034 4.52582 2.75306 4.43482C2.76579 4.34382 2.74541 4.2632 2.69192 4.19297C2.63849 4.12274 2.56591 4.08121 2.47419 4.06839C2.3839 4.05576 2.30393 4.07596 2.23427 4.12897C2.1646 4.18199 2.12341 4.25399 2.11068 4.34499C2.09796 4.436 2.11782 4.51654 2.17027 4.58663C2.22272 4.65672 2.29409 4.69807 2.38437 4.7107ZM5.77219 3.31483C5.8632 3.32756 5.94378 3.30742 6.01394 3.25443C6.0841 3.20149 6.12554 3.12952 6.13827 3.03852C6.15099 2.94751 6.13088 2.86693 6.07794 2.79678C6.02499 2.72662 5.95302 2.68518 5.86202 2.67245C5.77102 2.65973 5.69044 2.67984 5.62028 2.73278C5.55008 2.78572 5.50861 2.85769 5.49589 2.94869C5.48316 3.03969 5.5033 3.12028 5.55628 3.19044C5.60922 3.26064 5.68119 3.30211 5.77219 3.31483Z" fill="white"/>
</g>
</svg>
