<svg width="14" height="14" viewBox="0 0 14 14" fill="none" xmlns="http://www.w3.org/2000/svg">
<mask id="mask0_4240_5328" style="mask-type:alpha" maskUnits="userSpaceOnUse" x="0" y="-1" width="14" height="15">
<rect x="0.307617" y="-0.00683594" width="13.2265" height="13.2265" fill="#D9D9D9"/>
</mask>
<g mask="url(#mask0_4240_5328)">
<path d="M9.56984 11.8423C9.15734 11.8423 8.80711 11.698 8.51916 11.4095C8.2313 11.121 8.08737 10.7707 8.08737 10.3586C8.08737 10.3035 8.10643 10.1696 8.14455 9.95683L4.22538 7.64964C4.09256 7.78742 3.93477 7.89534 3.75198 7.97341C3.5692 8.05149 3.37337 8.09052 3.16451 8.09052C2.75384 8.09052 2.40477 7.94568 2.11727 7.65598C1.82978 7.36628 1.68604 7.01656 1.68604 6.60682C1.68604 6.19707 1.82978 5.84735 2.11727 5.55765C2.40477 5.26796 2.75384 5.12311 3.16451 5.12311C3.37337 5.12311 3.5692 5.16215 3.75198 5.24022C3.93477 5.31829 4.09256 5.42622 4.22538 5.56399L8.14455 3.26203C8.12269 3.19425 8.10767 3.12784 8.0995 3.06281C8.09141 2.99778 8.08737 2.92853 8.08737 2.85505C8.08737 2.44291 8.23172 2.09259 8.5204 1.80409C8.80918 1.51559 9.15982 1.37134 9.57232 1.37134C9.98482 1.37134 10.335 1.51573 10.6229 1.8045C10.9108 2.09319 11.0548 2.44378 11.0548 2.85629C11.0548 3.26879 10.9105 3.61901 10.622 3.90696C10.3335 4.19482 9.98321 4.33875 9.57108 4.33875C9.3612 4.33875 9.16602 4.29884 8.98553 4.21903C8.80495 4.13921 8.64826 4.03041 8.51544 3.89263L4.59627 6.19983C4.61813 6.2677 4.63315 6.33411 4.64133 6.39905C4.64941 6.46408 4.65345 6.53334 4.65345 6.60682C4.65345 6.6803 4.64941 6.74955 4.64133 6.81458C4.63315 6.87952 4.61813 6.94593 4.59627 7.01381L8.51544 9.321C8.64826 9.18322 8.80495 9.07443 8.98553 8.99461C9.16602 8.91479 9.3612 8.87488 9.57108 8.87488C9.98321 8.87488 10.3335 9.01922 10.622 9.30791C10.9105 9.59669 11.0548 9.94733 11.0548 10.3598C11.0548 10.7723 10.9104 11.1225 10.6216 11.4104C10.3329 11.6983 9.98234 11.8423 9.56984 11.8423ZM9.57108 11.0156C9.75726 11.0156 9.91331 10.9527 10.0392 10.8268C10.1652 10.7008 10.2281 10.5448 10.2281 10.3586C10.2281 10.1724 10.1652 10.0164 10.0392 9.89043C9.91331 9.76441 9.75726 9.7014 9.57108 9.7014C9.3849 9.7014 9.22885 9.76441 9.10292 9.89043C8.9769 10.0164 8.91389 10.1724 8.91389 10.3586C8.91389 10.5448 8.9769 10.7008 9.10292 10.8268C9.22885 10.9527 9.3849 11.0156 9.57108 11.0156ZM3.16451 7.26387C3.35216 7.26387 3.50945 7.20091 3.63639 7.07498C3.76342 6.94905 3.82693 6.793 3.82693 6.60682C3.82693 6.42064 3.76342 6.26458 3.63639 6.13866C3.50945 6.01273 3.35216 5.94976 3.16451 5.94976C2.9798 5.94976 2.82498 6.01273 2.70006 6.13866C2.57515 6.26458 2.51269 6.42064 2.51269 6.60682C2.51269 6.793 2.57515 6.94905 2.70006 7.07498C2.82498 7.20091 2.9798 7.26387 3.16451 7.26387ZM9.57108 3.51224C9.75726 3.51224 9.91331 3.44923 10.0392 3.32321C10.1652 3.19728 10.2281 3.04123 10.2281 2.85505C10.2281 2.66886 10.1652 2.51281 10.0392 2.38688C9.91331 2.26096 9.75726 2.19799 9.57108 2.19799C9.3849 2.19799 9.22885 2.26096 9.10292 2.38688C8.9769 2.51281 8.91389 2.66886 8.91389 2.85505C8.91389 3.04123 8.9769 3.19728 9.10292 3.32321C9.22885 3.44923 9.3849 3.51224 9.57108 3.51224Z" fill="white"/>
</g>
</svg>
