<svg width="10" height="10" viewBox="0 0 10 10" fill="none" xmlns="http://www.w3.org/2000/svg">
<mask id="mask0_4238_5965" style="mask-type:alpha" maskUnits="userSpaceOnUse" x="0" y="0" width="10" height="10">
<rect x="0.238281" y="0.248047" width="9.27627" height="9.27627" fill="#D9D9D9"/>
</mask>
<g mask="url(#mask0_4238_5965)">
<path d="M6.73432 8.55856C6.44501 8.55856 6.19939 8.45739 5.99743 8.25505C5.79555 8.05271 5.6946 7.80702 5.6946 7.51798C5.6946 7.47932 5.70797 7.3854 5.7347 7.23621L2.98603 5.61808C2.89288 5.71471 2.78221 5.7904 2.65401 5.84515C2.52582 5.89991 2.38848 5.92729 2.24199 5.92729C1.95398 5.92729 1.70915 5.8257 1.50752 5.62252C1.30589 5.41935 1.20508 5.17407 1.20508 4.8867C1.20508 4.59933 1.30589 4.35406 1.50752 4.15088C1.70915 3.9477 1.95398 3.84612 2.24199 3.84612C2.38848 3.84612 2.52582 3.87349 2.65401 3.92825C2.78221 3.98301 2.89288 4.0587 2.98603 4.15533L5.7347 2.54087C5.71937 2.49333 5.70884 2.44675 5.7031 2.40114C5.69744 2.35554 5.6946 2.30696 5.6946 2.25543C5.6946 1.96638 5.79584 1.72069 5.9983 1.51835C6.20083 1.31601 6.44675 1.21484 6.73606 1.21484C7.02536 1.21484 7.27096 1.31611 7.47284 1.51864C7.6748 1.72111 7.77577 1.967 7.77577 2.2563C7.77577 2.5456 7.6746 2.79123 7.47226 2.99318C7.26993 3.19507 7.02423 3.29601 6.73519 3.29601C6.58799 3.29601 6.4511 3.26802 6.32452 3.21204C6.19787 3.15607 6.08797 3.07976 5.99482 2.98313L3.24615 4.60126C3.26148 4.64887 3.27201 4.69544 3.27775 4.74099C3.28341 4.7866 3.28625 4.83517 3.28625 4.8867C3.28625 4.93824 3.28341 4.98681 3.27775 5.03242C3.27201 5.07796 3.26148 5.12454 3.24615 5.17214L5.99482 6.79027C6.08797 6.69364 6.19787 6.61734 6.32452 6.56136C6.4511 6.50538 6.58799 6.47739 6.73519 6.47739C7.02423 6.47739 7.26993 6.57862 7.47226 6.78109C7.6746 6.98362 7.77577 7.22954 7.77577 7.51885C7.77577 7.80815 7.67451 8.05375 7.47197 8.25563C7.26951 8.45758 7.02362 8.55856 6.73432 8.55856ZM6.73519 7.97879C6.86576 7.97879 6.97521 7.93463 7.06353 7.84632C7.15185 7.758 7.196 7.64855 7.196 7.51798C7.196 7.3874 7.15185 7.27795 7.06353 7.18963C6.97521 7.10125 6.86576 7.05706 6.73519 7.05706C6.60461 7.05706 6.49516 7.10125 6.40685 7.18963C6.31846 7.27795 6.27427 7.3874 6.27427 7.51798C6.27427 7.64855 6.31846 7.758 6.40685 7.84632C6.49516 7.93463 6.60461 7.97879 6.73519 7.97879ZM2.24199 5.34752C2.3736 5.34752 2.48392 5.30336 2.57294 5.21504C2.66203 5.12673 2.70658 5.01728 2.70658 4.8867C2.70658 4.75613 2.66203 4.64668 2.57294 4.55836C2.48392 4.47004 2.3736 4.42588 2.24199 4.42588C2.11245 4.42588 2.00387 4.47004 1.91626 4.55836C1.82865 4.64668 1.78485 4.75613 1.78485 4.8867C1.78485 5.01728 1.82865 5.12673 1.91626 5.21504C2.00387 5.30336 2.11245 5.34752 2.24199 5.34752ZM6.73519 2.71634C6.86576 2.71634 6.97521 2.67215 7.06353 2.58377C7.15185 2.49545 7.196 2.38601 7.196 2.25543C7.196 2.12485 7.15185 2.01541 7.06353 1.92709C6.97521 1.83877 6.86576 1.79461 6.73519 1.79461C6.60461 1.79461 6.49516 1.83877 6.40685 1.92709C6.31846 2.01541 6.27427 2.12485 6.27427 2.25543C6.27427 2.38601 6.31846 2.49545 6.40685 2.58377C6.49516 2.67215 6.60461 2.71634 6.73519 2.71634Z" fill="white"/>
</g>
</svg>
