<svg width="36" height="37" viewBox="0 0 36 37" fill="none" xmlns="http://www.w3.org/2000/svg">
<mask id="mask0_4238_6168" style="mask-type:alpha" maskUnits="userSpaceOnUse" x="0" y="0" width="36" height="37">
<rect x="0.557617" y="0.865326" width="35.3292" height="35.3292" fill="#D9D9D9"/>
</mask>
<g mask="url(#mask0_4238_6168)">
<path d="M25.2982 32.5154C24.1963 32.5154 23.2608 32.1301 22.4917 31.3595C21.7228 30.5889 21.3383 29.6531 21.3383 28.5523C21.3383 28.4051 21.3893 28.0474 21.4911 27.4791L11.0226 21.3164C10.6678 21.6844 10.2463 21.9727 9.75809 22.1812C9.26986 22.3898 8.7468 22.4941 8.18889 22.4941C7.09197 22.4941 6.15954 22.1071 5.39163 21.3333C4.62371 20.5595 4.23975 19.6254 4.23975 18.5309C4.23975 17.4365 4.62371 16.5023 5.39163 15.7285C6.15954 14.9547 7.09197 14.5678 8.18889 14.5678C8.7468 14.5678 9.26986 14.6721 9.75809 14.8806C10.2463 15.0891 10.6678 15.3774 11.0226 15.7454L21.4911 9.59668C21.4327 9.41562 21.3926 9.23824 21.3707 9.06454C21.3491 8.89084 21.3383 8.70585 21.3383 8.50957C21.3383 7.40873 21.7239 6.47299 22.495 5.70237C23.2664 4.93176 24.203 4.54645 25.3048 4.54645C26.4066 4.54645 27.342 4.93213 28.1109 5.70348C28.88 6.47459 29.2646 7.41106 29.2646 8.51289C29.2646 9.61472 28.8793 10.5502 28.1087 11.3193C27.3381 12.0883 26.4023 12.4727 25.3015 12.4727C24.7409 12.4727 24.2195 12.3661 23.7374 12.1529C23.2551 11.9397 22.8365 11.6491 22.4818 11.2811L12.0133 17.4438C12.0717 17.6251 12.1118 17.8025 12.1336 17.976C12.1552 18.1497 12.166 18.3347 12.166 18.5309C12.166 18.7272 12.1552 18.9122 12.1336 19.0859C12.1118 19.2593 12.0717 19.4367 12.0133 19.618L22.4818 25.7808C22.8365 25.4128 23.2551 25.1222 23.7374 24.9089C24.2195 24.6957 24.7409 24.5891 25.3015 24.5891C26.4023 24.5891 27.3381 24.9747 28.1087 25.7458C28.8793 26.5172 29.2646 27.4538 29.2646 28.5556C29.2646 29.6574 28.8789 30.5928 28.1076 31.3617C27.3365 32.1308 26.4 32.5154 25.2982 32.5154ZM25.3015 30.3073C25.7988 30.3073 26.2156 30.1391 26.552 29.8028C26.8883 29.4664 27.0565 29.0496 27.0565 28.5523C27.0565 28.055 26.8883 27.6381 26.552 27.3018C26.2156 26.9652 25.7988 26.7969 25.3015 26.7969C24.8042 26.7969 24.3873 26.9652 24.051 27.3018C23.7144 27.6381 23.546 28.055 23.546 28.5523C23.546 29.0496 23.7144 29.4664 24.051 29.8028C24.3873 30.1391 24.8042 30.3073 25.3015 30.3073ZM8.18889 20.286C8.69012 20.286 9.11027 20.1178 9.44933 19.7814C9.78864 19.4451 9.95829 19.0282 9.95829 18.5309C9.95829 18.0336 9.78864 17.6168 9.44933 17.2804C9.11027 16.9441 8.69012 16.7759 8.18889 16.7759C7.69551 16.7759 7.28198 16.9441 6.94832 17.2804C6.61465 17.6168 6.44782 18.0336 6.44782 18.5309C6.44782 19.0282 6.61465 19.4451 6.94832 19.7814C7.28198 20.1178 7.69551 20.286 8.18889 20.286ZM25.3015 10.265C25.7988 10.265 26.2156 10.0967 26.552 9.76008C26.8883 9.42372 27.0565 9.00688 27.0565 8.50957C27.0565 8.01227 26.8883 7.59543 26.552 7.25907C26.2156 6.92271 25.7988 6.75452 25.3015 6.75452C24.8042 6.75452 24.3873 6.92271 24.051 7.25907C23.7144 7.59543 23.546 8.01227 23.546 8.50957C23.546 9.00688 23.7144 9.42372 24.051 9.76008C24.3873 10.0967 24.8042 10.265 25.3015 10.265Z" fill="white"/>
</g>
</svg>
