<svg width="12" height="12" viewBox="0 0 12 12" fill="none" xmlns="http://www.w3.org/2000/svg">
<mask id="mask0_4381_10189" style="mask-type:alpha" maskUnits="userSpaceOnUse" x="0" y="0" width="12" height="12">
<rect x="0.489746" y="0.932861" width="10.8796" height="10.8796" fill="#D9D9D9"/>
</mask>
<g mask="url(#mask0_4381_10189)">
<path d="M8.10844 10.6794C7.76914 10.6794 7.48106 10.5608 7.2442 10.3234C7.00742 10.0861 6.88902 9.79797 6.88902 9.45897C6.88902 9.41364 6.9047 9.30348 6.93606 9.1285L3.7123 7.23069C3.60305 7.34402 3.47325 7.4328 3.3229 7.49702C3.17255 7.56124 3.01147 7.59335 2.83967 7.59335C2.50187 7.59335 2.21473 7.4742 1.97825 7.23591C1.74178 6.99761 1.62354 6.70995 1.62354 6.37291C1.62354 6.03587 1.74178 5.7482 1.97825 5.50991C2.21473 5.27161 2.50187 5.15247 2.83967 5.15247C3.01147 5.15247 3.17255 5.18458 3.3229 5.2488C3.47325 5.31302 3.60305 5.40179 3.7123 5.51512L6.93606 3.62162C6.91808 3.56586 6.90572 3.51124 6.899 3.45775C6.89235 3.40425 6.88902 3.34729 6.88902 3.28685C6.88902 2.94784 7.00776 2.65968 7.24522 2.42237C7.48276 2.18506 7.77118 2.06641 8.11048 2.06641C8.44979 2.06641 8.73784 2.18518 8.97462 2.42271C9.21148 2.66017 9.3299 2.94856 9.3299 3.28787C9.3299 3.62717 9.21125 3.91525 8.97394 4.15211C8.73663 4.38889 8.44847 4.50729 8.10946 4.50729C7.93683 4.50729 7.77628 4.47446 7.62782 4.4088C7.47928 4.34315 7.35039 4.25366 7.24114 4.14033L4.01738 6.03813C4.03536 6.09397 4.04772 6.14859 4.05444 6.20201C4.06109 6.2555 4.06441 6.31246 4.06441 6.37291C4.06441 6.43335 4.06109 6.49032 4.05444 6.54381C4.04772 6.59722 4.03536 6.65185 4.01738 6.70768L7.24114 8.60549C7.35039 8.49216 7.47928 8.40267 7.62782 8.33701C7.77628 8.27136 7.93683 8.23853 8.10946 8.23853C8.44847 8.23853 8.73663 8.35726 8.97394 8.59472C9.21125 8.83226 9.3299 9.12068 9.3299 9.45999C9.3299 9.79929 9.21114 10.0873 8.9736 10.3241C8.73614 10.561 8.44775 10.6794 8.10844 10.6794ZM8.10946 9.99943C8.26261 9.99943 8.39097 9.94764 8.49456 9.84406C8.59814 9.74048 8.64993 9.61211 8.64993 9.45897C8.64993 9.30582 8.59814 9.17746 8.49456 9.07388C8.39097 8.97022 8.26261 8.91839 8.10946 8.91839C7.95632 8.91839 7.82796 8.97022 7.72437 9.07388C7.62071 9.17746 7.56888 9.30582 7.56888 9.45897C7.56888 9.61211 7.62071 9.74048 7.72437 9.84406C7.82796 9.94764 7.95632 9.99943 8.10946 9.99943ZM2.83967 6.91337C2.99402 6.91337 3.12341 6.86158 3.22782 6.758C3.33231 6.65442 3.38455 6.52605 3.38455 6.37291C3.38455 6.21976 3.33231 6.0914 3.22782 5.98781C3.12341 5.88423 2.99402 5.83244 2.83967 5.83244C2.68773 5.83244 2.56039 5.88423 2.45764 5.98781C2.35488 6.0914 2.30351 6.21976 2.30351 6.37291C2.30351 6.52605 2.35488 6.65442 2.45764 6.758C2.56039 6.86158 2.68773 6.91337 2.83967 6.91337ZM8.10946 3.82743C8.26261 3.82743 8.39097 3.7756 8.49456 3.67194C8.59814 3.56835 8.64993 3.43999 8.64993 3.28685C8.64993 3.1337 8.59814 3.00534 8.49456 2.90175C8.39097 2.79817 8.26261 2.74638 8.10946 2.74638C7.95632 2.74638 7.82796 2.79817 7.72437 2.90175C7.62071 3.00534 7.56888 3.1337 7.56888 3.28685C7.56888 3.43999 7.62071 3.56835 7.72437 3.67194C7.82796 3.7756 7.95632 3.82743 8.10946 3.82743Z" fill="white"/>
</g>
</svg>
