<svg width="28" height="28" viewBox="0 0 28 28" fill="none" xmlns="http://www.w3.org/2000/svg">
<path d="M16.25 19.625H23M19.625 23V16.25M6.8 5H9.95C10.1864 5 10.4204 5.04656 10.6388 5.13702C10.8572 5.22748 11.0556 5.36006 11.2228 5.52721C11.3899 5.69435 11.5225 5.89278 11.613 6.11117C11.7034 6.32956 11.75 6.56362 11.75 6.8V9.95C11.75 10.1864 11.7034 10.4204 11.613 10.6388C11.5225 10.8572 11.3899 11.0556 11.2228 11.2228C11.0556 11.3899 10.8572 11.5225 10.6388 11.613C10.4204 11.7034 10.1864 11.75 9.95 11.75H6.8C6.32261 11.75 5.86477 11.5604 5.52721 11.2228C5.18964 10.8852 5 10.4274 5 9.95V6.8C5 6.32261 5.18964 5.86477 5.52721 5.52721C5.86477 5.18964 6.32261 5 6.8 5ZM6.8 16.25H9.95C10.4274 16.25 10.8852 16.4396 11.2228 16.7772C11.5604 17.1148 11.75 17.5726 11.75 18.05V21.2C11.75 21.6774 11.5604 22.1352 11.2228 22.4728C10.8852 22.8104 10.4274 23 9.95 23H6.8C6.32261 23 5.86477 22.8104 5.52721 22.4728C5.18964 22.1352 5 21.6774 5 21.2V18.05C5 17.5726 5.18964 17.1148 5.52721 16.7772C5.86477 16.4396 6.32261 16.25 6.8 16.25ZM18.05 5H21.2C21.6774 5 22.1352 5.18964 22.4728 5.52721C22.8104 5.86477 23 6.32261 23 6.8V9.95C23 10.4274 22.8104 10.8852 22.4728 11.2228C22.1352 11.5604 21.6774 11.75 21.2 11.75H18.05C17.5726 11.75 17.1148 11.5604 16.7772 11.2228C16.4396 10.8852 16.25 10.4274 16.25 9.95V6.8C16.25 6.32261 16.4396 5.86477 16.7772 5.52721C17.1148 5.18964 17.5726 5 18.05 5Z" stroke="white" stroke-width="1.5" stroke-miterlimit="10" stroke-linecap="round" stroke-linejoin="round"/>
</svg>
