<svg width="16" height="16" viewBox="0 0 16 16" fill="none" xmlns="http://www.w3.org/2000/svg">
<g clip-path="url(#clip0_4386_19805)">
<path d="M9.97078 3.49023C9.99078 3.49023 10.007 3.50598 10.007 3.52523V5.52323C10.007 5.89298 10.211 6.23298 10.5383 6.40648C10.6826 6.48326 10.8436 6.52335 11.007 6.52322C11.2033 6.52322 11.4298 6.46572 11.5983 6.35148L15 4.42598V11.5575L11.5795 9.68998C11.4116 9.57256 11.2117 9.50963 11.0068 9.50973C10.846 9.50981 10.6876 9.54848 10.5448 9.6225C10.2148 9.79475 10.0073 10.1362 10.0068 10.5082L10.0043 12.4745C10.0043 12.494 9.98855 12.5098 9.96855 12.5098H1.0358C1.0158 12.5098 1.00003 12.4943 1.00003 12.475L1.00253 3.52523C1.00253 3.50573 1.01828 3.49023 1.0383 3.49023H9.97078ZM15.4745 2.98973C15.368 2.98973 15.1575 3.02123 15.0375 3.14073L11.0067 5.52323V3.52523C11.0067 2.95398 10.543 2.49023 9.9705 2.49023H1.038C0.465 2.49023 0.00225 2.95375 0.00225 3.52525L0 12.4745C0 13.0458 0.463 13.5098 1.03575 13.5098H9.96875C10.5415 13.5098 11.0045 13.046 11.0045 12.4745L11.007 10.5098L15.116 12.9053C15.2365 13.0253 15.37 13.0097 15.4768 13.0097C15.5875 13.0097 15.67 12.976 15.6803 12.9717C15.8745 12.8907 16 12.7032 16 12.4922V3.50823C16 3.29723 15.8745 3.109 15.6803 3.02923C15.669 3.02423 15.586 2.98973 15.4745 2.98973Z" fill="black"/>
</g>
<defs>
<clipPath id="clip0_4386_19805">
<rect width="16" height="16" fill="white"/>
</clipPath>
</defs>
</svg>
