<svg width="21" height="20" viewBox="0 0 21 20" fill="none" xmlns="http://www.w3.org/2000/svg">
<path d="M7.99665 4.40399C9.02835 2.55393 9.5438 1.62891 10.3149 1.62891C11.0861 1.62891 11.6015 2.55393 12.6332 4.40399L12.9003 4.88279C13.1934 5.40882 13.34 5.67183 13.568 5.84528C13.796 6.01872 14.081 6.08305 14.651 6.21171L15.1689 6.32896C17.172 6.78252 18.1728 7.00889 18.4114 7.77514C18.6491 8.54056 17.9668 9.33938 16.6012 10.9362L16.2478 11.349C15.8602 11.8026 15.6656 12.0298 15.5785 12.3099C15.4913 12.5908 15.5207 12.8937 15.5793 13.4987L15.633 14.05C15.839 16.181 15.9425 17.2461 15.3187 17.7192C14.695 18.1923 13.7569 17.7607 11.8824 16.8976L11.3963 16.6745C10.8638 16.4285 10.5975 16.3064 10.3149 16.3064C10.0324 16.3064 9.76609 16.4285 9.23355 16.6745L8.74824 16.8976C6.87294 17.7607 5.93488 18.1923 5.31195 17.72C4.6874 17.2461 4.79081 16.181 4.99682 14.05L5.05057 13.4996C5.10919 12.8937 5.13851 12.5908 5.05057 12.3107C4.96425 12.0298 4.76964 11.8026 4.38204 11.3498L4.02864 10.9362C2.66308 9.34019 1.98071 8.54138 2.21848 7.77514C2.45625 7.00889 3.45864 6.78171 5.46178 6.32896L5.97967 6.21171C6.54885 6.08305 6.83304 6.01872 7.06185 5.84528C7.29067 5.67183 7.43642 5.40882 7.72957 4.88279L7.99665 4.40399Z" fill="#FFC362"/>
</svg>
