<svg width="20" height="20" viewBox="0 0 20 20" fill="none" xmlns="http://www.w3.org/2000/svg">
<path d="M7.53962 4.40399C8.57132 2.55393 9.08676 1.62891 9.85789 1.62891C10.629 1.62891 11.1445 2.55393 12.1762 4.40399L12.4432 4.88279C12.7364 5.40882 12.883 5.67183 13.111 5.84528C13.339 6.01872 13.624 6.08305 14.194 6.21171L14.7119 6.32896C16.715 6.78252 17.7157 7.00889 17.9543 7.77514C18.1921 8.54056 17.5097 9.33938 16.1442 10.9362L15.7908 11.349C15.4032 11.8026 15.2086 12.0298 15.1214 12.3099C15.0343 12.5908 15.0636 12.8937 15.1222 13.4987L15.176 14.05C15.382 16.181 15.4854 17.2461 14.8617 17.7192C14.2379 18.1923 13.2999 17.7607 11.4254 16.8976L10.9393 16.6745C10.4067 16.4285 10.1404 16.3064 9.85789 16.3064C9.57534 16.3064 9.30906 16.4285 8.77652 16.6745L8.29121 16.8976C6.41591 17.7607 5.47785 18.1923 4.85492 17.72C4.23036 17.2461 4.33378 16.181 4.53979 14.05L4.59354 13.4996C4.65216 12.8937 4.68148 12.5908 4.59354 12.3107C4.50722 12.0298 4.31261 11.8026 3.92501 11.3498L3.57161 10.9362C2.20605 9.34019 1.52368 8.54138 1.76145 7.77514C1.99922 7.00889 3.00161 6.78171 5.00475 6.32896L5.52264 6.21171C6.09182 6.08305 6.37601 6.01872 6.60482 5.84528C6.83364 5.67183 6.97939 5.40882 7.27254 4.88279L7.53962 4.40399Z" fill="#FFC362"/>
</svg>
