<svg width="8" height="10" viewBox="0 0 8 10" fill="none" xmlns="http://www.w3.org/2000/svg">
<path d="M3.80931 6.31151C3.96664 6.31151 4.10201 6.17979 4.10201 6.02612V2.26855L4.08006 1.71973L4.3252 1.97951L4.88133 2.57223C4.93256 2.63077 5.00573 2.66004 5.07891 2.66004C5.22892 2.66004 5.346 2.55028 5.346 2.40027C5.346 2.32343 5.31307 2.26489 5.25819 2.21001L4.02152 1.01724C3.94834 0.944069 3.88614 0.918457 3.80931 0.918457C3.73613 0.918457 3.67393 0.944069 3.5971 1.01724L2.36043 2.21001C2.30555 2.26489 2.27628 2.32343 2.27628 2.40027C2.27628 2.55028 2.38604 2.66004 2.53971 2.66004C2.60923 2.66004 2.68972 2.63077 2.74094 2.57223L3.29342 1.97951L3.54222 1.71973L3.52027 2.26855V6.02612C3.52027 6.17979 3.65198 6.31151 3.80931 6.31151ZM1.71282 9.17634H5.90945C6.67414 9.17634 7.05831 8.79583 7.05831 8.04212V4.39065C7.05831 3.63694 6.67414 3.25642 5.90945 3.25642H4.88865V3.84549H5.89848C6.2607 3.84549 6.46925 4.04306 6.46925 4.42358V8.00919C6.46925 8.3897 6.2607 8.58728 5.89848 8.58728H1.72014C1.35426 8.58728 1.15303 8.3897 1.15303 8.00919V4.42358C1.15303 4.04306 1.35426 3.84549 1.72014 3.84549H2.73363V3.25642H1.71282C0.948138 3.25642 0.563965 3.63694 0.563965 4.39065V8.04212C0.563965 8.79583 0.948138 9.17634 1.71282 9.17634Z" fill="white" fill-opacity="0.6"/>
</svg>
