<svg width="8" height="8" viewBox="0 0 8 8" fill="none" xmlns="http://www.w3.org/2000/svg">
<path d="M1.56357 4.02017H3.23198C3.69665 4.02017 3.93081 3.786 3.93081 3.30304V1.66757C3.93081 1.18461 3.69665 0.954102 3.23198 0.954102H1.56357C1.09891 0.954102 0.864746 1.18461 0.864746 1.66757V3.30304C0.864746 3.786 1.09891 4.02017 1.56357 4.02017ZM5.237 4.02017H6.90175C7.36641 4.02017 7.60057 3.786 7.60057 3.30304V1.66757C7.60057 1.18461 7.36641 0.954102 6.90175 0.954102H5.237C4.76867 0.954102 4.53451 1.18461 4.53451 1.66757V3.30304C4.53451 3.786 4.76867 4.02017 5.237 4.02017ZM1.57089 3.50428C1.44283 3.50428 1.38064 3.43842 1.38064 3.30304V1.66757C1.38064 1.53585 1.44283 1.46999 1.57089 1.46999H3.22101C3.34906 1.46999 3.41492 1.53585 3.41492 1.66757V3.30304C3.41492 3.43842 3.34906 3.50428 3.22101 3.50428H1.57089ZM5.24432 3.50428C5.1126 3.50428 5.0504 3.43842 5.0504 3.30304V1.66757C5.0504 1.53585 5.1126 1.46999 5.24432 1.46999H6.89443C7.02249 1.46999 7.08469 1.53585 7.08469 1.66757V3.30304C7.08469 3.43842 7.02249 3.50428 6.89443 3.50428H5.24432ZM1.56357 7.68993H3.23198C3.69665 7.68993 3.93081 7.45943 3.93081 6.97647V5.33733C3.93081 4.85803 3.69665 4.62387 3.23198 4.62387H1.56357C1.09891 4.62387 0.864746 4.85803 0.864746 5.33733V6.97647C0.864746 7.45943 1.09891 7.68993 1.56357 7.68993ZM5.237 7.68993H6.90175C7.36641 7.68993 7.60057 7.45943 7.60057 6.97647V5.33733C7.60057 4.85803 7.36641 4.62387 6.90175 4.62387H5.237C4.76867 4.62387 4.53451 4.85803 4.53451 5.33733V6.97647C4.53451 7.45943 4.76867 7.68993 5.237 7.68993ZM1.57089 7.17404C1.44283 7.17404 1.38064 7.10818 1.38064 6.97647V5.34099C1.38064 5.20561 1.44283 5.13976 1.57089 5.13976H3.22101C3.34906 5.13976 3.41492 5.20561 3.41492 5.34099V6.97647C3.41492 7.10818 3.34906 7.17404 3.22101 7.17404H1.57089ZM5.24432 7.17404C5.1126 7.17404 5.0504 7.10818 5.0504 6.97647V5.34099C5.0504 5.20561 5.1126 5.13976 5.24432 5.13976H6.89443C7.02249 5.13976 7.08469 5.20561 7.08469 5.34099V6.97647C7.08469 7.10818 7.02249 7.17404 6.89443 7.17404H5.24432Z" fill="white" fill-opacity="0.6"/>
</svg>
