<svg width="21" height="20" viewBox="0 0 21 20" fill="none" xmlns="http://www.w3.org/2000/svg">
<g clip-path="url(#clip0_4364_6549)">
<path d="M19.0564 10.2568C19.0564 9.61595 18.9989 8.99975 18.8921 8.4082H10.3804V11.9041H15.2442C15.0347 13.0338 14.398 13.991 13.4408 14.6318V16.8994H16.3616C18.0705 15.326 19.0564 13.0091 19.0564 10.2568Z" fill="#4285F4"/>
<path d="M10.3805 19.089C12.8206 19.089 14.8664 18.2797 16.3617 16.8994L13.4409 14.6318C12.6317 15.1741 11.5965 15.4945 10.3805 15.4945C8.02662 15.4945 6.03425 13.9047 5.32357 11.7686H2.3042V14.1101C3.79129 17.0637 6.84763 19.089 10.3805 19.089Z" fill="#34A853"/>
<path d="M5.32341 11.768C5.14266 11.2258 5.03996 10.6465 5.03996 10.0509C5.03996 9.45522 5.14266 8.87599 5.32341 8.33374V5.99219H2.30404C1.67141 7.25158 1.34222 8.64152 1.34277 10.0509C1.34277 11.5092 1.69195 12.8895 2.30404 14.1096L5.32341 11.768Z" fill="#FBBC05"/>
<path d="M10.3805 4.60816C11.7074 4.60816 12.8987 5.06414 13.8353 5.95968L16.4274 3.36755C14.8623 1.90921 12.8165 1.01367 10.3805 1.01367C6.84763 1.01367 3.79129 3.03891 2.3042 5.99254L5.32357 8.33409C6.03425 6.19794 8.02662 4.60816 10.3805 4.60816Z" fill="#EA4335"/>
</g>
<defs>
<clipPath id="clip0_4364_6549">
<rect width="19.7183" height="19.7183" fill="white" transform="translate(0.520996 0.192383)"/>
</clipPath>
</defs>
</svg>
