<svg width="7" height="7" viewBox="0 0 7 7" fill="none" xmlns="http://www.w3.org/2000/svg">
<path d="M2.95993 3.7006L2.13919 5.15155C2.09586 5.22814 2.08448 5.31935 2.10792 5.40384C2.13174 5.48969 2.18761 5.56153 2.26508 5.60535C2.34167 5.64868 2.4329 5.66004 2.51875 5.63622C2.60324 5.61279 2.67555 5.55605 2.71888 5.47945L3.53961 4.0285L4.99057 4.84924C5.06716 4.89257 5.15839 4.90394 5.24424 4.88012C5.32873 4.85668 5.40104 4.79994 5.44437 4.72334C5.48819 4.64588 5.49957 4.55467 5.47613 4.47018C5.45231 4.38433 5.39557 4.31199 5.31897 4.26867L3.86802 3.44793L4.68826 1.99785C4.73208 1.92039 4.74346 1.82918 4.72002 1.74469C4.6962 1.65883 4.63946 1.5865 4.56287 1.54318C4.4854 1.49936 4.39505 1.48848 4.30919 1.5123C4.2247 1.53574 4.15239 1.59248 4.10857 1.66995L3.28833 3.12002L1.83738 2.29928C1.75991 2.25546 1.66955 2.24459 1.5837 2.26841C1.49921 2.29185 1.4269 2.34859 1.38308 2.42606C1.33976 2.50265 1.32838 2.59385 1.35182 2.67835C1.37564 2.7642 1.43151 2.83604 1.50897 2.87986L2.95993 3.7006Z" fill="#4BA9FE"/>
</svg>
