<svg width="13" height="13" viewBox="0 0 13 13" fill="none" xmlns="http://www.w3.org/2000/svg">
<path d="M5.50344 6.76324L3.96486 9.48324C3.88313 9.62772 3.86212 9.7985 3.90661 9.95809C3.95102 10.1176 4.05683 10.2533 4.20114 10.335C4.34545 10.4166 4.51626 10.4374 4.67588 10.3932C4.83558 10.3491 4.97113 10.2432 5.05286 10.0987L6.59144 7.37867L9.31144 8.91725C9.45575 8.99888 9.62656 9.01966 9.78617 8.97553C9.94588 8.93144 10.0814 8.82546 10.1632 8.68097C10.2449 8.53648 10.2659 8.36571 10.2214 8.20612C10.177 8.04658 10.0712 7.91088 9.92687 7.82925L7.20687 6.29067L8.74545 3.57067C8.82718 3.42619 8.84819 3.25541 8.80369 3.09582C8.75929 2.93628 8.65348 2.80059 8.50917 2.71896C8.36486 2.63733 8.19405 2.61655 8.03443 2.66068C7.87473 2.70477 7.73918 2.81075 7.65745 2.95524L6.11887 5.67524L3.39887 4.13666C3.25456 4.05502 3.08375 4.03425 2.92414 4.07838C2.76443 4.12247 2.62889 4.22845 2.54716 4.37294C2.46543 4.51743 2.44442 4.6882 2.48891 4.84779C2.53332 5.00733 2.63913 5.14302 2.78344 5.22465L5.50344 6.76324Z" fill="#FFDD55"/>
</svg>
