<svg width="8" height="7" viewBox="0 0 8 7" fill="none" xmlns="http://www.w3.org/2000/svg">
<path d="M3.50924 3.70158L2.68851 5.15252C2.64518 5.22912 2.6338 5.32032 2.65724 5.40481C2.68106 5.49067 2.73693 5.56251 2.81439 5.60633C2.89099 5.64965 2.98222 5.66102 3.06807 5.6372C3.15256 5.61376 3.22487 5.55702 3.26819 5.48043L4.08893 4.02948L5.53989 4.85022C5.61648 4.89355 5.70771 4.90491 5.79356 4.88109C5.87805 4.85766 5.95036 4.80092 5.99368 4.72432C6.0375 4.64686 6.04888 4.55565 6.02544 4.47116C6.00163 4.3853 5.94489 4.31297 5.86829 4.26964L4.41734 3.4489L5.23758 1.99883C5.2814 1.92136 5.29278 1.83015 5.26934 1.74566C5.24552 1.65981 5.18878 1.58748 5.11218 1.54415C5.03472 1.50033 4.94436 1.48946 4.85851 1.51328C4.77402 1.53672 4.70171 1.59346 4.65789 1.67093L3.83765 3.121L2.38669 2.30026C2.30923 2.25644 2.21887 2.24557 2.13302 2.26938C2.04853 2.29282 1.97622 2.34957 1.9324 2.42703C1.88907 2.50363 1.87769 2.59483 1.90113 2.67932C1.92495 2.76517 1.98082 2.83702 2.05829 2.88083L3.50924 3.70158Z" fill="#4BA9FE"/>
</svg>
