<svg width="141" height="93" viewBox="0 0 141 93" fill="none" xmlns="http://www.w3.org/2000/svg">
<path d="M140.293 93.7071C140.683 94.0976 141.317 94.0976 141.707 93.7071L148.071 87.3431C148.462 86.9526 148.462 86.3195 148.071 85.9289C147.681 85.5384 147.047 85.5384 146.657 85.9289L141 91.5858L135.343 85.9289C134.953 85.5384 134.319 85.5384 133.929 85.9289C133.538 86.3195 133.538 86.9526 133.929 87.3431L140.293 93.7071ZM0 0V1H4.75V0V-1H0V0ZM14.25 0V1H23.75V0V-1H14.25V0ZM33.25 0V1H42.75V0V-1H33.25V0ZM52.25 0V1H61.75V0V-1H52.25V0ZM71.25 0V1H80.75V0V-1H71.25V0ZM90.25 0V1H99.75V0V-1H90.25V0ZM109.25 0V1H118.75V0V-1H109.25V0ZM128.25 0V1H133V0V-1H128.25V0ZM133 0V1C133.951 1 134.855 1.18909 135.679 1.53077L136.062 0.607045L136.445 -0.316681C135.383 -0.757306 134.218 -1 133 -1V0ZM140.393 4.9377L139.469 5.32075C139.811 6.14472 140 7.04902 140 8H141H142C142 6.78152 141.757 5.6172 141.317 4.55464L140.393 4.9377ZM141 8H140V12.25H141H142V8H141ZM141 20.75H140V29.25H141H142V20.75H141ZM141 37.75H140V46.25H141H142V37.75H141ZM141 54.75H140V63.25H141H142V54.75H141ZM141 71.75H140V80.25H141H142V71.75H141ZM141 88.75H140V93H141H142V88.75H141Z" fill="#4BA9FE"/>
</svg>
