<svg width="8" height="9" viewBox="0 0 8 9" fill="none" xmlns="http://www.w3.org/2000/svg">
<path d="M3.45834 5.11873L2.43278 6.93178C2.37813 7.02839 2.36416 7.14225 2.39373 7.2486C2.42331 7.35494 2.4939 7.44543 2.59008 7.49984C2.68626 7.55424 2.80019 7.56813 2.90666 7.53874C3.01304 7.5093 3.10343 7.43866 3.15809 7.34205L4.18365 5.529L5.99695 6.55471C6.09313 6.60911 6.20706 6.62299 6.31353 6.5936C6.41991 6.56416 6.5103 6.49353 6.56495 6.39692C6.61911 6.30117 6.63309 6.18729 6.60351 6.08095C6.57385 5.97455 6.50325 5.88406 6.40708 5.82966L4.59377 4.80395L5.61982 2.99005C5.67397 2.89431 5.68795 2.78043 5.65838 2.67408C5.62872 2.56769 5.55812 2.4772 5.46194 2.42279C5.36576 2.36839 5.25183 2.3545 5.14545 2.38394C5.03907 2.41338 4.94867 2.48404 4.89451 2.57978L3.86847 4.39368L2.05508 3.36792C1.9589 3.31352 1.84497 3.29964 1.73859 3.32908C1.63221 3.35851 1.54181 3.42917 1.48765 3.52491C1.433 3.62153 1.41903 3.73539 1.4486 3.84173C1.47818 3.94807 1.54877 4.03857 1.64495 4.09297L3.45834 5.11873Z" fill="#4BA9FE"/>
</svg>
