<svg width="8" height="9" viewBox="0 0 8 9" fill="none" xmlns="http://www.w3.org/2000/svg">
<path d="M3.45786 5.11873L2.43229 6.93178C2.37764 7.02839 2.36367 7.14225 2.39324 7.2486C2.42282 7.35494 2.49342 7.44543 2.58959 7.49984C2.68577 7.55424 2.7997 7.56813 2.90617 7.53874C3.01255 7.5093 3.10295 7.43866 3.1576 7.34205L4.18316 5.529L5.99646 6.55471C6.09264 6.60911 6.20657 6.62299 6.31304 6.5936C6.41942 6.56416 6.50981 6.49353 6.56446 6.39692C6.61862 6.30117 6.6326 6.18729 6.60302 6.08095C6.57336 5.97455 6.50277 5.88406 6.40659 5.82966L4.59329 4.80395L5.61933 2.99005C5.67349 2.89431 5.68747 2.78043 5.65789 2.67408C5.62823 2.56769 5.55763 2.4772 5.46145 2.42279C5.36528 2.36839 5.25134 2.3545 5.14496 2.38394C5.03858 2.41338 4.94818 2.48404 4.89403 2.57978L3.86798 4.39368L2.05459 3.36792C1.95841 3.31352 1.84448 3.29964 1.7381 3.32908C1.63172 3.35851 1.54132 3.42917 1.48716 3.52491C1.43251 3.62153 1.41854 3.73539 1.44811 3.84173C1.47769 3.94807 1.54828 4.03857 1.64446 4.09297L3.45786 5.11873Z" fill="#FFDD55"/>
</svg>
