<svg width="7" height="7" viewBox="0 0 7 7" fill="none" xmlns="http://www.w3.org/2000/svg">
<path d="M3.69315 3.69089L3.93146 5.76022C3.94416 5.87049 3.91267 5.9808 3.84401 6.06722C3.77535 6.15365 3.67508 6.2095 3.5653 6.22214C3.45553 6.23478 3.34519 6.20319 3.25858 6.13464C3.17207 6.06609 3.11633 5.96583 3.10363 5.85556L2.86532 3.78623L0.7957 4.02457C0.685926 4.03721 0.575586 4.00562 0.488976 3.93708C0.402465 3.86853 0.346726 3.76826 0.334027 3.65799C0.321442 3.54871 0.352928 3.43838 0.421591 3.35196C0.490354 3.26552 0.590624 3.20967 0.700398 3.19703L2.77002 2.95869L2.53159 0.888387C2.51901 0.779109 2.55049 0.668776 2.61916 0.582353C2.68792 0.495919 2.78819 0.440071 2.89797 0.427429C3.00774 0.414787 3.11808 0.44638 3.20459 0.514933C3.2911 0.583486 3.34684 0.683774 3.35942 0.793052L3.59784 2.86335L5.66757 2.625C5.77734 2.61235 5.88768 2.64395 5.97419 2.7125C6.0607 2.78105 6.11644 2.88134 6.12902 2.99062C6.14172 3.10089 6.11024 3.2112 6.04158 3.29762C5.97291 3.38405 5.87264 3.43989 5.76287 3.45253L3.69315 3.69089Z" fill="#4BA9FE"/>
</svg>
