<svg width="11" height="11" viewBox="0 0 11 11" fill="none" xmlns="http://www.w3.org/2000/svg">
<path d="M6.08103 6.37178L6.43856 9.47626C6.45755 9.64117 6.41037 9.80664 6.30723 9.9363C6.20418 10.0659 6.05388 10.1497 5.88916 10.1687C5.72445 10.1876 5.55904 10.1402 5.42922 10.0374C5.29931 9.9346 5.21575 9.78418 5.19676 9.61927L4.83924 6.51479L1.73476 6.87231C1.57005 6.89128 1.40464 6.84388 1.27482 6.74106C1.14491 6.63825 1.06135 6.48783 1.04236 6.32292C1.02337 6.15801 1.07054 5.99254 1.17369 5.86289C1.27673 5.73325 1.42704 5.64949 1.59175 5.63052L4.69623 5.273L4.33871 2.16852C4.31972 2.00361 4.36689 1.83814 4.47004 1.70849C4.57308 1.57885 4.72339 1.49509 4.8881 1.47612C5.05281 1.45715 5.21822 1.50455 5.34804 1.60737C5.47796 1.71018 5.56151 1.8606 5.5805 2.02551L5.93802 5.12999L9.04251 4.77247C9.20722 4.7535 9.37263 4.8009 9.50244 4.90372C9.63236 5.00654 9.71591 5.15695 9.73491 5.32186C9.7539 5.48677 9.70672 5.65224 9.60358 5.78189C9.50053 5.91153 9.35023 5.99529 9.18551 6.01426L6.08103 6.37178Z" fill="#4BA9FE"/>
</svg>
