<svg width="187" height="158" viewBox="0 0 187 158" fill="none" xmlns="http://www.w3.org/2000/svg">
<path d="M105 141L104.029 140.76L105 141ZM105 115.5L104.4 116.3L105 115.5ZM79.5 128.5L80.2803 129.125L79.5 128.5ZM141 156L140.764 155.028L141 156ZM183 104.5L182.066 104.143L183 104.5ZM166.836 -0.941929C166.316 -1.12739 165.744 -0.856026 165.558 -0.335813L162.536 8.14154C162.35 8.66176 162.622 9.23382 163.142 9.41929C163.662 9.60475 164.234 9.33338 164.42 8.81317L167.106 1.27774L174.642 3.96425C175.162 4.14971 175.734 3.87834 175.919 3.35813C176.105 2.83792 175.833 2.26585 175.313 2.08039L166.836 -0.941929ZM0.5 128.5C0.0155618 129.375 0.0155763 129.375 0.015593 129.375C0.0156015 129.375 0.0156204 129.375 0.0156374 129.375C0.0156714 129.375 0.0157142 129.375 0.0157659 129.375C0.0158693 129.375 0.016008 129.375 0.0161819 129.375C0.0165298 129.375 0.0170189 129.376 0.0176486 129.376C0.0189082 129.377 0.0207308 129.378 0.0231139 129.379C0.0278801 129.382 0.0348881 129.385 0.0441171 129.391C0.0625749 129.401 0.0899165 129.416 0.125974 129.436C0.198089 129.475 0.30507 129.534 0.445575 129.61C0.726582 129.763 1.1417 129.987 1.68019 130.275L2.1509 129.392L2.6216 128.51C2.08811 128.226 1.67778 128.004 1.40133 127.853C1.26311 127.778 1.15837 127.721 1.08843 127.682C1.05347 127.663 1.02721 127.649 1.00982 127.639C1.00113 127.634 0.99465 127.631 0.990412 127.628C0.988294 127.627 0.986735 127.626 0.985738 127.626C0.98524 127.626 0.984882 127.625 0.984665 127.625C0.984557 127.625 0.984484 127.625 0.984446 127.625C0.984427 127.625 0.984417 127.625 0.984416 127.625C0.984415 127.625 0.984421 127.625 0.98442 127.625C0.984428 127.625 0.984438 127.625 0.5 128.5ZM5.60252 131.2L5.14473 132.089C6.18169 132.623 7.35859 133.221 8.65922 133.872L9.10634 132.977L9.55345 132.083C8.26035 131.436 7.09057 130.841 6.0603 130.311L5.60252 131.2ZM12.5875 134.693L12.1503 135.592C13.2615 136.133 14.4337 136.695 15.6602 137.275L16.0876 136.371L16.515 135.467C15.2953 134.89 14.1297 134.331 13.0247 133.794L12.5875 134.693ZM19.6135 138.014L19.1961 138.923C20.347 139.452 21.5345 139.99 22.7541 140.533L23.1612 139.62L23.5683 138.706C22.3559 138.166 21.1753 137.631 20.031 137.106L19.6135 138.014ZM26.7282 141.185L26.3319 142.103C27.5026 142.608 28.6969 143.115 29.9114 143.622L30.2963 142.699L30.6812 141.776C29.4747 141.273 28.288 140.769 27.1245 140.266L26.7282 141.185ZM33.8897 144.17L33.517 145.098C34.7129 145.579 35.9244 146.056 37.1484 146.528L37.5081 145.595L37.8677 144.661C36.6529 144.193 35.4501 143.719 34.2625 143.242L33.8897 144.17ZM41.1495 146.967L40.8041 147.905C42.0216 148.353 43.2484 148.794 44.4816 149.225L44.8114 148.281L45.1412 147.337C43.9189 146.91 42.7026 146.473 41.4949 146.028L41.1495 146.967ZM48.4916 149.53L48.179 150.48C49.4179 150.887 50.6606 151.283 51.9044 151.665L52.1979 150.709L52.4913 149.753C51.261 149.375 50.031 148.984 48.8042 148.58L48.4916 149.53ZM55.9294 151.809L55.6576 152.772C56.9197 153.128 58.1802 153.468 59.4362 153.788L59.6835 152.819L59.9308 151.85C58.6921 151.534 57.448 151.199 56.2013 150.847L55.9294 151.809ZM63.458 153.726L63.239 154.702C64.5267 154.991 65.8069 155.257 67.0762 155.497L67.2623 154.515L67.4485 153.532C66.2026 153.296 64.9445 153.035 63.6771 152.75L63.458 153.726ZM71.1024 155.166L70.9553 156.155C72.2752 156.351 73.5796 156.516 74.8648 156.645L74.9649 155.65L75.065 154.655C73.8136 154.529 72.5405 154.369 71.2495 154.177L71.1024 155.166ZM78.8447 155.932L78.8022 156.931C80.1502 156.988 81.4717 157 82.7616 156.963L82.7324 155.963L82.7033 154.963C81.4654 155 80.1919 154.988 78.8873 154.932L78.8447 155.932ZM86.6079 155.68L86.728 156.673C88.0872 156.508 89.4025 156.276 90.6659 155.969L90.4298 154.997L90.1937 154.026C89.0144 154.312 87.7772 154.531 86.4878 154.687L86.6079 155.68ZM94.1196 153.808L94.5013 154.733C95.7774 154.206 96.9801 153.577 98.0972 152.836L97.5447 152.003L96.9921 151.169C95.9916 151.832 94.9047 152.402 93.7379 152.884L94.1196 153.808ZM100.517 149.516L101.242 150.205C102.167 149.231 102.989 148.142 103.7 146.932L102.837 146.426L101.975 145.919C101.341 146.999 100.61 147.965 99.7917 148.828L100.517 149.516ZM104.44 142.907L105.386 143.231C105.605 142.592 105.8 141.928 105.971 141.24L105 141L104.029 140.76C103.872 141.393 103.694 142.001 103.494 142.583L104.44 142.907ZM105 141L105.971 141.24C106.149 140.521 106.346 139.798 106.554 139.072L105.593 138.796L104.632 138.52C104.418 139.263 104.215 140.011 104.029 140.76L105 141ZM106.928 134.43L107.883 134.727C108.346 133.243 108.8 131.756 109.176 130.297L108.208 130.047L107.24 129.797C106.877 131.204 106.436 132.649 105.973 134.132L106.928 134.43ZM109.052 125.565L110.048 125.661C110.209 123.993 110.163 122.353 109.772 120.787L108.801 121.029L107.831 121.271C108.152 122.557 108.203 123.957 108.057 125.468L109.052 125.565ZM106.688 117.037L107.434 116.372C106.909 115.782 106.299 115.224 105.6 114.7L105 115.5L104.4 116.3C105 116.75 105.51 117.219 105.942 117.703L106.688 117.037ZM105 115.5L105.6 114.7C104.998 114.248 104.388 113.867 103.77 113.553L103.317 114.445L102.864 115.337C103.372 115.595 103.885 115.913 104.4 116.3L105 115.5ZM99.502 113.436L99.54 112.436C98.0901 112.381 96.6608 112.641 95.2695 113.131L95.6017 114.074L95.934 115.017C97.1292 114.596 98.3063 114.391 99.464 114.435L99.502 113.436ZM92.0583 115.855L91.5168 115.015C90.398 115.735 89.3023 116.576 88.2358 117.495L88.8884 118.252L89.5411 119.01C90.5531 118.138 91.5745 117.357 92.5998 116.696L92.0583 115.855ZM86.0001 120.985L85.2843 120.286C84.3493 121.245 83.4382 122.244 82.556 123.254L83.3093 123.912L84.0626 124.57C84.9262 123.581 85.812 122.609 86.7159 121.683L86.0001 120.985ZM80.7491 126.954L79.9744 126.322C79.5473 126.845 79.1288 127.364 78.7197 127.875L79.5 128.5L80.2803 129.125C80.6868 128.618 81.1014 128.104 81.5237 127.587L80.7491 126.954ZM79.5 128.5L78.7197 127.875C78.2498 128.461 77.8307 129.045 77.4613 129.627L78.3055 130.163L79.1498 130.699C79.4769 130.183 79.8528 129.659 80.2803 129.125L79.5 128.5ZM76.6597 133.859L75.6902 133.614C75.3041 135.141 75.2655 136.633 75.5419 138.074L76.524 137.886L77.5061 137.698C77.286 136.55 77.3132 135.354 77.6292 134.104L76.6597 133.859ZM78.0716 141.611L77.2327 142.155C77.9791 143.306 78.9268 144.394 80.0368 145.42L80.7153 144.685L81.3937 143.95C80.3832 143.017 79.5508 142.054 78.9106 141.067L78.0716 141.611ZM83.9209 147.179L83.3664 148.011C84.4804 148.753 85.6875 149.459 86.9723 150.127L87.4338 149.24L87.8953 148.353C86.6662 147.714 85.5222 147.044 84.4754 146.346L83.9209 147.179ZM91.1109 150.963L90.7214 151.884C91.9595 152.407 93.2488 152.903 94.5796 153.369L94.9101 152.425L95.2406 151.481C93.9464 151.028 92.6967 150.548 91.5003 150.042L91.1109 150.963ZM98.7789 153.663L98.4986 154.623C99.7984 155.003 101.127 155.356 102.477 155.684L102.713 154.712L102.949 153.74C101.627 153.42 100.328 153.074 99.0592 152.703L98.7789 153.663ZM106.683 155.586L106.488 156.566C107.824 156.831 109.174 157.071 110.531 157.285L110.687 156.297L110.842 155.309C109.511 155.1 108.187 154.864 106.878 154.605L106.683 155.586ZM114.716 156.851L114.599 157.844C115.962 158.005 117.326 158.139 118.685 158.245L118.763 157.248L118.841 156.251C117.509 156.147 116.17 156.016 114.833 155.858L114.716 156.851ZM122.826 157.482L122.789 158.482C124.173 158.533 125.545 158.553 126.897 158.543L126.889 157.543L126.881 156.543C125.56 156.553 124.218 156.533 122.862 156.483L122.826 157.482ZM130.955 157.41L131.013 158.408C132.418 158.326 133.792 158.207 135.126 158.048L135.008 157.055L134.89 156.062C133.598 156.215 132.264 156.332 130.896 156.412L130.955 157.41ZM139.023 156.432L139.215 157.413C139.904 157.279 140.578 157.132 141.236 156.972L141 156L140.764 155.028C140.137 155.181 139.492 155.321 138.832 155.45L139.023 156.432ZM141 156L141.236 156.972C141.885 156.814 142.524 156.646 143.151 156.469L142.879 155.507L142.607 154.545C142.004 154.715 141.39 154.876 140.764 155.028L141 156ZM146.563 154.307L146.911 155.245C148.174 154.776 149.388 154.264 150.557 153.71L150.128 152.806L149.7 151.902C148.585 152.431 147.424 152.921 146.215 153.37L146.563 154.307ZM153.545 150.991L154.055 151.851C155.207 151.168 156.31 150.441 157.368 149.671L156.78 148.863L156.192 148.054C155.184 148.787 154.133 149.48 153.036 150.13L153.545 150.991ZM159.801 146.441L160.462 147.192C161.456 146.317 162.406 145.401 163.316 144.447L162.592 143.757L161.868 143.067C160.997 143.981 160.089 144.856 159.141 145.69L159.801 146.441ZM165.149 140.85L165.925 141.481C166.75 140.466 167.54 139.416 168.3 138.335L167.481 137.76L166.663 137.185C165.929 138.231 165.166 139.243 164.373 140.219L165.149 140.85ZM169.61 134.525L170.461 135.05C171.142 133.946 171.798 132.815 172.434 131.66L171.558 131.178L170.682 130.696C170.061 131.825 169.421 132.927 168.759 134L169.61 134.525ZM173.354 127.745L174.249 128.191C174.824 127.036 175.384 125.861 175.932 124.667L175.023 124.25L174.114 123.833C173.574 125.01 173.024 126.166 172.459 127.299L173.354 127.745ZM176.591 120.71L177.51 121.104C178.017 119.922 178.515 118.724 179.009 117.513L178.083 117.135L177.157 116.758C176.667 117.96 176.173 119.147 175.672 120.316L176.591 120.71ZM179.521 113.537L180.451 113.903C180.921 112.709 181.388 111.503 181.855 110.288L180.922 109.928L179.989 109.569C179.522 110.782 179.057 111.983 178.59 113.171L179.521 113.537ZM182.308 106.311L183.242 106.667C183.472 106.066 183.702 105.463 183.934 104.857L183 104.5L182.066 104.143C181.834 104.748 181.604 105.352 181.374 105.954L182.308 106.311ZM183 104.5L183.934 104.857C184.167 104.249 184.389 103.633 184.599 103.012L183.652 102.691L182.705 102.37C182.503 102.967 182.29 103.558 182.066 104.143L183 104.5ZM184.758 98.9938L185.725 99.2465C186.053 97.9903 186.342 96.714 186.593 95.4201L185.611 95.2297L184.629 95.0392C184.386 96.2933 184.107 97.5281 183.79 98.7411L184.758 98.9938ZM186.236 91.4203L187.227 91.5547C187.401 90.2718 187.542 88.9748 187.653 87.6661L186.656 87.5821L185.66 87.4981C185.552 88.7748 185.415 90.0381 185.245 91.2859L186.236 91.4203ZM186.892 83.7275L187.891 83.7663C187.941 82.474 187.964 81.1725 187.962 79.8641L186.962 79.8659L185.962 79.8677C185.964 81.1503 185.942 82.4246 185.893 83.6887L186.892 83.7275ZM186.883 76.0042L187.882 75.9659C187.833 74.6743 187.761 73.3779 187.668 72.0788L186.67 72.1501L185.673 72.2215C185.764 73.4996 185.835 74.7739 185.884 76.0426L186.883 76.0042ZM186.336 68.3055L187.331 68.2042C187.2 66.917 187.05 65.6289 186.884 64.342L185.892 64.4706L184.9 64.5992C185.065 65.8687 185.212 67.1385 185.342 68.4068L186.336 68.3055ZM185.346 60.6478L186.335 60.4942C186.136 59.2134 185.921 57.9355 185.693 56.6624L184.709 56.8389L183.724 57.0154C183.95 58.2738 184.162 59.5364 184.358 60.8013L185.346 60.6478ZM183.986 53.0456L184.966 52.8479C184.709 51.5751 184.44 50.309 184.16 49.0518L183.184 49.2691L182.208 49.4864C182.485 50.731 182.752 51.984 183.005 53.2432L183.986 53.0456ZM182.31 45.5103L183.282 45.2748C182.975 44.0103 182.659 42.7571 182.336 41.5172L181.368 41.7698L180.401 42.0225C180.721 43.2515 181.035 44.4933 181.338 45.7459L182.31 45.5103ZM180.361 38.0414L181.324 37.7726C180.972 36.5125 180.614 35.2691 180.251 34.0448L179.293 34.3288L178.334 34.6129C178.694 35.8274 179.049 37.0606 179.398 38.3102L180.361 38.0414ZM178.167 30.6338L179.122 30.3353C178.729 29.0799 178.333 27.8488 177.937 26.6447L176.987 26.9571L176.037 27.2695C176.431 28.4647 176.823 29.6866 177.213 30.9324L178.167 30.6338ZM175.756 23.3L176.701 22.9742C176.27 21.7212 175.84 20.5041 175.416 19.3266L174.475 19.6654L173.534 20.0041C173.955 21.1733 174.382 22.3818 174.81 23.6258L175.756 23.3ZM173.139 16.032L174.075 15.6804C173.597 14.4082 173.131 13.1956 172.682 12.0483L171.751 12.4127L170.82 12.7772C171.266 13.9163 171.728 15.1204 172.203 16.3836L173.139 16.032ZM170.324 8.83985L171.25 8.46228C170.706 7.12931 170.203 5.92571 169.752 4.8658L168.832 5.25763L167.911 5.64946C168.359 6.70038 168.858 7.89446 169.398 9.21743L170.324 8.83985ZM167.298 1.7437L168.21 1.33447C167.954 0.763526 167.753 0.324235 167.616 0.0269527C167.547 -0.12169 167.494 -0.234835 167.459 -0.311189C167.441 -0.349366 167.427 -0.378345 167.418 -0.397966C167.413 -0.407776 167.41 -0.415246 167.407 -0.420357C167.406 -0.422912 167.405 -0.424877 167.405 -0.42625C167.404 -0.426936 167.404 -0.427475 167.404 -0.427865C167.404 -0.428059 167.404 -0.428217 167.404 -0.428338C167.404 -0.428398 167.404 -0.428449 167.404 -0.428491C167.404 -0.428512 167.404 -0.428536 167.404 -0.428547C167.404 -0.428569 167.404 -0.428588 166.5 0C165.596 0.428588 165.596 0.428573 165.596 0.428561C165.596 0.428559 165.596 0.428549 165.596 0.428547C165.596 0.428542 165.596 0.428547 165.596 0.428561C165.596 0.428589 165.597 0.428654 165.597 0.428756C165.597 0.42896 165.597 0.429312 165.597 0.429812C165.598 0.430813 165.598 0.432405 165.599 0.434586C165.601 0.438948 165.605 0.445666 165.609 0.454719C165.617 0.472827 165.63 0.500278 165.647 0.536911C165.682 0.610176 165.733 0.720166 165.8 0.865588C165.935 1.15644 166.132 1.58899 166.385 2.15292L167.298 1.7437Z" fill="black" fill-opacity="0.5"/>
</svg>
