<svg width="9" height="10" viewBox="0 0 9 10" fill="none" xmlns="http://www.w3.org/2000/svg">
<path d="M3.70648 4.83025L0.695702 5.6662C0.614922 5.68714 0.540041 5.72406 0.473899 5.77397C0.407265 5.82474 0.352092 5.88775 0.310357 5.9595C0.268622 6.03125 0.242171 6.1105 0.232113 6.19328C0.221185 6.27556 0.228115 6.35877 0.249549 6.43868C0.271855 6.51909 0.310124 6.59361 0.36139 6.65937C0.412277 6.72377 0.476667 6.77853 0.549402 6.81853C0.622138 6.85852 0.70186 6.88413 0.784258 6.89282C0.866164 6.90239 0.949857 6.89456 1.02988 6.8709L4.04105 6.03629L4.87618 9.04658C4.89712 9.12736 4.93354 9.20312 4.98393 9.26839C5.03384 9.33453 5.09686 9.38967 5.16861 9.43141C5.24036 9.47314 5.32046 9.50011 5.40187 9.51055C5.48465 9.52061 5.56824 9.51501 5.64864 9.49271C5.72817 9.46991 5.80306 9.43298 5.86795 9.38122C5.93372 9.32996 5.98715 9.26596 6.02801 9.19372C6.06801 9.12098 6.09358 9.04124 6.10277 8.95797C6.11146 8.87557 6.10453 8.79237 6.08086 8.71235L5.24486 5.70156L8.25651 4.8661C8.33729 4.84516 8.41217 4.80824 8.47832 4.75833C8.54446 4.70843 8.59964 4.64541 8.64138 4.57365C8.68224 4.50141 8.70956 4.42265 8.71962 4.33988C8.73055 4.25759 8.72411 4.17351 8.70218 4.09447C8.67988 4.01407 8.64158 3.9396 8.59031 3.87383C8.53943 3.80943 8.47507 3.75462 8.40234 3.71463C8.3301 3.67377 8.24986 3.64905 8.16796 3.63948C8.08556 3.63079 8.00187 3.63861 7.92233 3.66141L4.91153 4.49741L4.07603 1.48572C4.0546 1.40581 4.01818 1.33005 3.96828 1.26391C3.91789 1.19864 3.85537 1.14261 3.78313 1.10175C3.71138 1.06001 3.63124 1.03309 3.54983 1.02265C3.46705 1.0126 3.3835 1.01814 3.30309 1.04044C3.22405 1.06237 3.14867 1.10017 3.08378 1.15193C3.01802 1.2032 2.96372 1.2667 2.92372 1.33943C2.88373 1.41217 2.85814 1.49194 2.84945 1.57433C2.84075 1.65673 2.84769 1.73993 2.87135 1.81995L3.70648 4.83025Z" fill="#4BA9FE"/>
</svg>
