<svg width="8" height="7" viewBox="0 0 8 7" fill="none" xmlns="http://www.w3.org/2000/svg">
<path d="M3.50973 3.70158L2.68899 5.15252C2.64567 5.22912 2.63429 5.32032 2.65773 5.40481C2.68155 5.49067 2.73742 5.56251 2.81488 5.60633C2.89148 5.64965 2.9827 5.66102 3.06856 5.6372C3.15305 5.61376 3.22535 5.55702 3.26868 5.48043L4.08942 4.02948L5.54037 4.85022C5.61697 4.89355 5.7082 4.90491 5.79405 4.88109C5.87854 4.85766 5.95085 4.80092 5.99417 4.72432C6.03799 4.64686 6.04937 4.55565 6.02593 4.47116C6.00212 4.3853 5.94537 4.31297 5.86878 4.26964L4.41782 3.4489L5.23807 1.99883C5.28188 1.92136 5.29327 1.83015 5.26983 1.74566C5.24601 1.65981 5.18927 1.58748 5.11267 1.54415C5.03521 1.50033 4.94485 1.48946 4.859 1.51328C4.77451 1.53672 4.7022 1.59346 4.65838 1.67093L3.83814 3.121L2.38718 2.30026C2.30972 2.25644 2.21936 2.24557 2.13351 2.26938C2.04902 2.29282 1.97671 2.34957 1.93289 2.42703C1.88956 2.50363 1.87818 2.59483 1.90162 2.67932C1.92544 2.76517 1.98131 2.83702 2.05878 2.88083L3.50973 3.70158Z" fill="#FFDD55"/>
</svg>
