<svg width="108" height="45" viewBox="0 0 108 45" fill="none" xmlns="http://www.w3.org/2000/svg">
<path d="M51.5 32.1153L51.5146 32.8652L51.5 32.1153ZM78.5 25.6153L77.8403 25.2585L78.5 25.6153ZM71.5 0.615326L71.7239 -0.100466L71.5 0.615326ZM51.5 13.6153L50.7973 13.3533L51.5 13.6153ZM71.5 40.6153L70.8973 41.0617L71.5 40.6153ZM94.5 32.1153L95.079 32.592L94.5 32.1153ZM98.5 8.11533L98.2448 7.41009L98.5 8.11533ZM108.41 8.74333C108.757 8.5169 108.854 8.05216 108.628 7.70532L104.938 2.05324C104.712 1.7064 104.247 1.60879 103.9 1.83523C103.553 2.06167 103.456 2.52641 103.682 2.87325L106.962 7.89732L101.938 11.1774C101.591 11.4038 101.493 11.8685 101.72 12.2154C101.946 12.5622 102.411 12.6598 102.758 12.4334L108.41 8.74333ZM0 8.11533C-0.480172 8.69146 -0.48016 8.69147 -0.480148 8.69148C-0.480142 8.69149 -0.480129 8.6915 -0.480118 8.69151C-0.480095 8.69153 -0.480069 8.69155 -0.480038 8.69158C-0.479977 8.69163 -0.479898 8.69169 -0.479803 8.69177C-0.479613 8.69193 -0.479356 8.69214 -0.479031 8.69241C-0.478382 8.69295 -0.477464 8.69372 -0.476279 8.6947C-0.473908 8.69667 -0.470467 8.69953 -0.465964 8.70327C-0.456956 8.71074 -0.4437 8.72172 -0.426259 8.73612C-0.391377 8.76491 -0.339755 8.80738 -0.271915 8.86283C-0.136235 8.97372 0.064331 9.13651 0.325624 9.34558L0.794188 8.75996L1.26275 8.17434C1.00567 7.96865 0.809146 7.80912 0.677324 7.70139C0.611414 7.64752 0.561683 7.6066 0.52865 7.57933C0.512134 7.5657 0.499793 7.55548 0.491691 7.54876C0.487641 7.5454 0.48465 7.54291 0.482727 7.54131C0.481766 7.54051 0.481072 7.53994 0.480645 7.53958C0.480432 7.5394 0.480286 7.53928 0.480207 7.53922C0.480168 7.53918 0.480145 7.53917 0.480139 7.53916C0.480136 7.53916 0.480137 7.53916 0.480143 7.53916C0.480146 7.53917 0.480153 7.53917 0.480154 7.53917C0.480162 7.53918 0.480172 7.53919 0 8.11533ZM2.40795 10.0264L1.94985 10.6203C2.43725 10.9962 2.99179 11.4187 3.60778 11.8799L4.0573 11.2796L4.50682 10.6792C3.89686 10.2225 3.34803 9.80439 2.86604 9.43258L2.40795 10.0264ZM5.71495 12.5037L5.27334 13.1099C5.80673 13.4985 6.37173 13.9051 6.96597 14.3264L7.3998 13.7147L7.83364 13.1029C7.24481 12.6853 6.68499 12.2825 6.15655 11.8975L5.71495 12.5037ZM9.08846 14.8963L8.66235 15.5134C9.21344 15.8939 9.78428 16.2831 10.3734 16.6789L10.7917 16.0563L11.2099 15.4338C10.6263 15.0416 10.0606 14.6561 9.51458 14.2791L9.08846 14.8963ZM12.5116 17.1959L12.1014 17.8238C12.669 18.1946 13.2507 18.5694 13.8453 18.9466L14.2471 18.3133L14.6489 17.68C14.0601 17.3065 13.484 16.9353 12.9217 16.568L12.5116 17.1959ZM15.998 19.4074L15.605 20.0462C16.1867 20.404 16.7789 20.7628 17.3807 21.1212L17.7644 20.4768L18.1482 19.8324C17.5528 19.4779 16.9668 19.1228 16.391 18.7686L15.998 19.4074ZM19.5466 21.5202L19.1726 22.1703C19.7677 22.5126 20.3707 22.8534 20.981 23.1917L21.3446 22.5357L21.7082 21.8797C21.1051 21.5455 20.509 21.2085 19.9205 20.87L19.5466 21.5202ZM23.1562 23.5201L22.8038 24.1821C23.4117 24.5058 24.0257 24.8259 24.6451 25.1416L24.9856 24.4733L25.3261 23.8051C24.715 23.4937 24.109 23.1777 23.5087 22.8581L23.1562 23.5201ZM26.8331 25.3928L26.5054 26.0674C27.1278 26.3696 27.7546 26.6664 28.3853 26.9567L28.6989 26.2755L29.0125 25.5942C28.3916 25.3084 27.7741 25.016 27.1607 24.7181L26.8331 25.3928ZM30.5833 27.118L30.2849 27.8061C30.922 28.0824 31.5622 28.3512 32.2048 28.6116L32.4864 27.9165L32.7681 27.2214C32.1372 26.9657 31.5081 26.7016 30.8817 26.4299L30.5833 27.118ZM34.4085 28.6665L34.1452 29.3688C34.7976 29.6133 35.4518 29.8483 36.1068 30.0726L36.3497 29.363L36.5927 28.6534C35.9518 28.434 35.3113 28.204 34.6718 27.9642L34.4085 28.6665ZM38.3127 30.001L38.0924 30.7179C38.762 30.9237 39.432 31.1173 40.1014 31.2975L40.2964 30.5733L40.4914 29.8491C39.8397 29.6736 39.1866 29.4849 38.533 29.2841L38.3127 30.001ZM42.2998 31.0716L42.1332 31.8029C42.8195 31.9592 43.5044 32.1002 44.1872 32.2247L44.3217 31.4869L44.4562 30.749C43.7959 30.6286 43.1323 30.4921 42.4663 30.3404L42.2998 31.0716ZM46.3603 31.8081L46.262 32.5517C46.9632 32.6443 47.6613 32.7179 48.3552 32.771L48.4124 32.0232L48.4696 31.2753C47.8045 31.2245 47.1338 31.1538 46.4585 31.0646L46.3603 31.8081ZM50.4733 32.1178L50.4626 32.8678C50.8147 32.8728 51.1654 32.872 51.5146 32.8652L51.5 32.1153L51.4854 31.3655C51.1534 31.3719 50.8196 31.3727 50.484 31.3679L50.4733 32.1178ZM51.5 32.1153L51.5146 32.8652C51.8606 32.8584 52.2071 32.8553 52.554 32.8551L52.5537 32.1051L52.5534 31.3551C52.1978 31.3553 51.8417 31.3585 51.4854 31.3655L51.5 32.1153ZM54.661 32.1369L54.6396 32.8866C55.3385 32.9065 56.0367 32.9344 56.7333 32.9658L56.7672 32.2165L56.801 31.4673C56.0994 31.4357 55.3923 31.4074 54.6823 31.3872L54.661 32.1369ZM58.8726 32.3182L58.8356 33.0673C59.5438 33.1021 60.2492 33.1361 60.9482 33.1641L60.9782 32.4147L61.0083 31.6653C60.3167 31.6376 59.6171 31.6039 58.9095 31.5691L58.8726 32.3182ZM63.085 32.4764L63.0731 33.2263C63.7941 33.2376 64.5079 33.2369 65.2116 33.2182L65.1917 32.4685L65.1717 31.7187C64.4936 31.7368 63.8015 31.7376 63.0968 31.7265L63.085 32.4764ZM67.2957 32.3487L67.3641 33.0956C68.0968 33.0285 68.817 32.9333 69.5211 32.8022L69.3838 32.0648L69.2465 31.3275C68.5945 31.4489 67.921 31.5383 67.2273 31.6019L67.2957 32.3487ZM71.4263 31.5556L71.6554 32.2698C72.3649 32.0422 73.053 31.7646 73.7153 31.4273L73.375 30.759L73.0346 30.0906C72.4504 30.3882 71.8374 30.6361 71.1972 30.8415L71.4263 31.5556ZM75.1553 29.6381L75.6122 30.2329C76.1914 29.7879 76.74 29.2819 77.2548 28.7079L76.6964 28.2072L76.1381 27.7064C75.6848 28.2118 75.2042 28.6548 74.6984 29.0433L75.1553 29.6381ZM77.9661 26.5252L78.5988 26.9279C78.7929 26.6229 78.9799 26.3045 79.1597 25.9722L78.5 25.6153L77.8403 25.2585C77.6769 25.5606 77.5078 25.8483 77.3334 26.1225L77.9661 26.5252ZM78.5 25.6153L79.1597 25.9722C79.3328 25.6521 79.4972 25.3272 79.6528 24.9979L78.9747 24.6774L78.2966 24.3569C78.1524 24.662 78.0003 24.9627 77.8403 25.2585L78.5 25.6153ZM79.7719 22.7326L80.4796 22.981C80.7198 22.2963 80.9256 21.5989 81.0968 20.8937L80.3679 20.7168L79.6391 20.5399C79.4794 21.1977 79.2877 21.8473 79.0642 22.4843L79.7719 22.7326ZM80.764 18.6524L81.5065 18.758C81.6089 18.0384 81.6762 17.3152 81.7085 16.593L80.9592 16.5595L80.21 16.5261C80.1799 17.1999 80.117 17.875 80.0215 18.5468L80.764 18.6524ZM80.9498 14.4575L81.6987 14.4168C81.659 13.6869 81.5826 12.9626 81.4689 12.2489L80.7283 12.3669L79.9876 12.4848C80.0929 13.1461 80.164 13.8188 80.2009 14.4981L80.9498 14.4575ZM80.2842 10.3125L81.0071 10.113C80.8112 9.40321 80.575 8.7098 80.2979 8.03853L79.6046 8.3247L78.9113 8.61087C79.1642 9.2234 79.3809 9.85884 79.5612 10.5121L80.2842 10.3125ZM78.6751 6.43953L79.3233 6.06226C78.9506 5.42186 78.5335 4.81118 78.0715 4.23696L77.4871 4.70713L76.9028 5.17729C77.3156 5.6903 77.6903 6.23853 78.0269 6.81681L78.6751 6.43953ZM76.0424 3.18281L76.5421 2.62354C75.9922 2.1322 75.398 1.68437 74.7593 1.2866L74.3628 1.92323L73.9663 2.55985C74.5303 2.91111 75.0557 3.30692 75.5427 3.74209L76.0424 3.18281ZM72.4906 0.970308L72.7726 0.275367C72.4325 0.137312 72.0829 0.0118343 71.7239 -0.100466L71.5 0.615326L71.2761 1.33112C71.596 1.4312 71.9068 1.54278 72.2085 1.66525L72.4906 0.970308ZM71.5 0.615326L71.7239 -0.100466C71.4041 -0.200532 71.0851 -0.288625 70.7671 -0.365027L70.5919 0.364214L70.4166 1.09346C70.7015 1.16191 70.988 1.241 71.2761 1.33112L71.5 0.615326ZM68.7352 0.0547998L68.8048 -0.691967C68.1326 -0.754585 67.468 -0.76584 66.8128 -0.729066L66.8549 0.0197559L66.8969 0.768577C67.4781 0.735954 68.0681 0.745899 68.6657 0.801567L68.7352 0.0547998ZM64.9901 0.26445L64.838 -0.469975C64.1873 -0.335249 63.5494 -0.153798 62.926 0.0702753L63.1797 0.776062L63.4334 1.48185C63.9927 1.2808 64.5628 1.11882 65.1421 0.998874L64.9901 0.26445ZM61.4546 1.52793L61.1116 0.860925C60.5306 1.15963 59.9653 1.49532 59.417 1.86413L59.8356 2.48644L60.2542 3.10875C60.7561 2.77117 61.271 2.46564 61.7975 2.19494L61.4546 1.52793ZM58.3325 3.6191L57.8508 3.04428C57.355 3.45975 56.8762 3.90286 56.4154 4.37032L56.9496 4.89681L57.4837 5.4233C57.9124 4.98832 58.3564 4.57763 58.8143 4.19393L58.3325 3.6191ZM55.6885 6.294L55.1108 5.81571C54.7002 6.3116 54.3075 6.82761 53.9337 7.36092L54.5479 7.79139L55.162 8.22185C55.5135 7.72047 55.8819 7.23643 56.2662 6.77228L55.6885 6.294ZM53.5268 9.37311L52.8819 8.99023C52.5533 9.54377 52.2437 10.1115 51.9544 10.6909L52.6253 11.026L53.2963 11.3611C53.5696 10.8138 53.8618 10.278 54.1717 9.75598L53.5268 9.37311ZM51.8444 12.7391L51.1514 12.4524C51.0281 12.7506 50.91 13.051 50.7973 13.3533L51.5 13.6153L52.2027 13.8773C52.3093 13.5916 52.4209 13.3076 52.5375 13.0258L51.8444 12.7391ZM51.5 13.6153L50.7973 13.3533C50.671 13.6921 50.5597 14.0261 50.463 14.3556L51.1827 14.5667L51.9024 14.7778C51.9886 14.484 52.0884 14.1839 52.2027 13.8773L51.5 13.6153ZM50.7823 16.5199L50.037 16.4359C49.9537 17.1752 49.9487 17.8893 50.0154 18.5808L50.762 18.5088L51.5085 18.4368C51.452 17.8516 51.4557 17.2421 51.5276 16.6038L50.7823 16.5199ZM51.1686 20.4558L50.4552 20.6874C50.6756 21.366 50.9652 22.0165 51.3125 22.643L51.9684 22.2795L52.6244 21.9159C52.3193 21.3654 52.0698 20.8029 51.8819 20.2241L51.1686 20.4558ZM53.0674 23.9426L52.4722 24.399C52.8853 24.9377 53.3385 25.4605 53.8234 25.9708L54.3671 25.4541L54.9108 24.9375C54.4565 24.4594 54.0386 23.9767 53.6626 23.4862L53.0674 23.9426ZM55.795 26.8451L55.2901 27.3997C55.7822 27.8478 56.296 28.2897 56.8253 28.7276L57.3034 28.1497L57.7815 27.5719C57.2664 27.1457 56.7711 26.7195 56.2999 26.2905L55.795 26.8451ZM58.8609 29.398L58.3993 29.9892C58.9209 30.3964 59.4528 30.8034 59.9897 31.2113L60.4435 30.6142L60.8972 30.017C60.3626 29.6107 59.8365 29.2083 59.3224 28.8069L58.8609 29.398ZM62.0326 31.819L61.5789 32.4162C62.1047 32.8156 62.6313 33.2179 63.1557 33.6257L63.6161 33.0337L64.0765 32.4416C63.5456 32.0288 63.0139 31.6226 62.4862 31.2217L62.0326 31.819ZM65.1782 34.2745L64.7045 34.8561C65.2146 35.2715 65.7182 35.6935 66.2119 36.1241L66.7049 35.5589L67.1979 34.9937C66.6893 34.5502 66.1726 34.1172 65.6518 33.693L65.1782 34.2745ZM68.1791 36.9024L67.6609 37.4446C68.1335 37.8964 68.5921 38.3582 69.0333 38.832L69.5822 38.3208L70.131 37.8097C69.6679 37.3124 69.1886 36.8299 68.6973 36.3603L68.1791 36.9024ZM70.89 39.8264L70.306 40.2971C70.5086 40.5485 70.7059 40.8033 70.8973 41.0617L71.5 40.6153L72.1027 40.1689C71.8986 39.8934 71.6888 39.6224 71.4739 39.3558L70.89 39.8264ZM71.5 40.6153L70.8973 41.0617C71.124 41.3677 71.3525 41.6569 71.5829 41.9297L72.1559 41.4457L72.7288 40.9617C72.5201 40.7146 72.3113 40.4506 72.1027 40.1689L71.5 40.6153ZM73.6364 42.9416L73.1524 43.5145C73.7728 44.0386 74.4062 44.4583 75.0514 44.7793L75.3855 44.1078L75.7195 43.4363C75.1914 43.1736 74.6576 42.8224 74.1203 42.3686L73.6364 42.9416ZM77.3819 44.7531L77.2649 45.4939C78.0437 45.6169 78.8201 45.6112 79.5882 45.4986L79.4794 44.7565L79.3706 44.0145C78.7404 44.1069 78.1167 44.1098 77.4988 44.0123L77.3819 44.7531ZM81.5063 44.1972L81.7843 44.8937C82.4578 44.6249 83.1214 44.2866 83.7729 43.8946L83.3862 43.252L82.9995 42.6093C82.4061 42.9664 81.8152 43.2664 81.2283 43.5006L81.5063 44.1972ZM85.1256 42.0599L85.5814 42.6555C86.1443 42.2248 86.6993 41.76 87.2447 41.2706L86.7438 40.7124L86.2429 40.1541C85.7222 40.6214 85.1974 41.0606 84.6699 41.4642L85.1256 42.0599ZM88.2698 39.2593L88.8013 39.7885C89.3022 39.2854 89.7947 38.767 90.2772 38.2412L89.7246 37.7341L89.172 37.227C88.701 37.7403 88.2227 38.2436 87.7383 38.7301L88.2698 39.2593ZM91.126 36.1593L91.6929 36.6503C92.1619 36.1088 92.6201 35.5668 93.0658 35.0326L92.49 34.5521L91.9141 34.0716C91.4724 34.6009 91.0204 35.1356 90.5591 35.6683L91.126 36.1593ZM93.8321 32.928L94.4116 33.4041C94.6382 33.1282 94.8605 32.8574 95.079 32.592L94.5 32.1153L93.921 31.6387C93.7018 31.9048 93.4787 32.1767 93.2525 32.4519L93.8321 32.928ZM94.5 32.1153L95.079 32.592C95.3002 32.3234 95.5008 32.0469 95.6821 31.7634L95.0503 31.3592L94.4186 30.9551C94.2693 31.1884 94.1039 31.4164 93.921 31.6387L94.5 32.1153ZM95.8623 29.6799L96.5705 29.9268C96.7925 29.29 96.943 28.6353 97.0376 27.9708L96.295 27.8652L95.5525 27.7596C95.4699 28.3404 95.3402 28.8991 95.1541 29.4331L95.8623 29.6799ZM96.4186 26.0013L97.1686 26.0011C97.1684 25.3583 97.1313 24.7102 97.0691 24.0628L96.3225 24.1345L95.576 24.2062C95.6345 24.8161 95.6685 25.4156 95.6686 26.0016L96.4186 26.0013ZM96.0841 22.2801L96.8251 22.1646C96.7276 21.5391 96.6165 20.9157 96.5024 20.301L95.765 20.4379L95.0276 20.5749C95.1405 21.1831 95.2487 21.7906 95.343 22.3957L96.0841 22.2801ZM95.4186 18.601L96.1559 18.4635C96.0398 17.8414 95.9312 17.2344 95.8401 16.6439L95.0988 16.7584L94.3576 16.8729C94.4523 17.4862 94.5642 18.1108 94.6813 18.7385L95.4186 18.601ZM94.8749 14.9007L95.6227 14.8426C95.5742 14.2192 95.5633 13.6331 95.602 13.0871L94.8539 13.0341L94.1058 12.9811C94.0605 13.6198 94.0747 14.283 94.1272 14.9588L94.8749 14.9007ZM95.2125 11.205L95.9193 11.4559C96.0987 10.9505 96.3559 10.5024 96.7099 10.1111L96.1537 9.60792L95.5975 9.10477C95.0983 9.65663 94.7447 10.2807 94.5057 10.9541L95.2125 11.205ZM97.6396 8.48843L97.9837 9.15485C98.2166 9.03457 98.473 8.92269 98.7552 8.82056L98.5 8.11533L98.2448 7.41009C97.9064 7.53255 97.5902 7.66987 97.2955 7.82202L97.6396 8.48843ZM98.5 8.11533L98.7552 8.82056C99.0748 8.70491 99.4258 8.61056 99.8018 8.53572L99.6554 7.80015L99.509 7.06458C99.0732 7.15131 98.6477 7.26427 98.2448 7.41009L98.5 8.11533ZM102.04 7.55967L102.058 8.30947C102.847 8.29093 103.641 8.323 104.38 8.38008L104.438 7.63231L104.495 6.88454C103.719 6.82458 102.873 6.78989 102.022 6.80988L102.04 7.55967ZM106.821 7.90873L106.707 8.65005C107.062 8.70462 107.35 8.75496 107.547 8.79143C107.646 8.80966 107.722 8.82441 107.772 8.83447C107.798 8.83949 107.817 8.84334 107.829 8.84587C107.835 8.84713 107.84 8.84806 107.843 8.84864C107.844 8.84893 107.845 8.84914 107.846 8.84925C107.846 8.8493 107.846 8.84934 107.846 8.84935C107.846 8.84935 107.846 8.84935 107.846 8.84935C107.846 8.84935 107.846 8.84934 107.846 8.84933C107.846 8.84933 107.846 8.84933 107.846 8.84933C107.846 8.84932 107.846 8.84931 108 8.11533C108.154 7.38134 108.154 7.38133 108.154 7.38132C108.154 7.38132 108.154 7.38131 108.154 7.38131C108.154 7.3813 108.154 7.38128 108.154 7.38127C108.154 7.38124 108.154 7.38121 108.153 7.38116C108.153 7.38108 108.152 7.38098 108.152 7.38085C108.151 7.3806 108.149 7.38026 108.147 7.37982C108.143 7.37896 108.137 7.37774 108.129 7.37619C108.114 7.3731 108.092 7.36866 108.064 7.36305C108.007 7.35182 107.925 7.33587 107.819 7.31642C107.609 7.27752 107.307 7.22457 106.934 7.16742L106.821 7.90873Z" fill="#2A52C6"/>
</svg>
