<svg width="111" height="169" viewBox="0 0 111 169" fill="none" xmlns="http://www.w3.org/2000/svg">
<path d="M12.5831 169.409C13.0852 169.639 13.6787 169.419 13.9089 168.917L17.6595 160.735C17.8896 160.233 17.6692 159.64 17.1672 159.41C16.6651 159.18 16.0715 159.4 15.8414 159.902L12.5076 167.174L5.23532 163.84C4.73327 163.61 4.13971 163.831 3.90956 164.333C3.6794 164.835 3.89981 165.428 4.40186 165.658L12.5831 169.409ZM12.9999 168.5L13.9373 168.152C13.6993 167.511 13.465 166.872 13.2344 166.235L12.2942 166.576L11.3539 166.917C11.5863 167.558 11.8225 168.202 12.0624 168.848L12.9999 168.5ZM10.95 162.769L11.8957 162.443C11.4642 161.188 11.0476 159.943 10.6454 158.706L9.69443 159.015L8.74343 159.324C9.14907 160.572 9.5693 161.828 10.0043 163.094L10.95 162.769ZM8.49073 155.199L9.44707 154.906C9.05201 153.614 8.67308 152.331 8.31003 151.059L7.3484 151.333L6.38677 151.607C6.75328 152.892 7.13575 154.187 7.5344 155.491L8.49073 155.199ZM6.30154 147.527L7.26825 147.271C6.9226 145.965 6.59394 144.67 6.28198 143.386L5.31023 143.622L4.33849 143.858C4.65371 145.156 4.98573 146.464 5.33483 147.783L6.30154 147.527ZM4.40536 139.717L5.38193 139.501C5.09802 138.213 4.83121 136.936 4.58118 135.67L3.60013 135.864L2.61908 136.058C2.87198 137.338 3.14179 138.63 3.4288 139.932L4.40536 139.717ZM2.86019 131.871L3.84556 131.7C3.61881 130.389 3.41039 129.09 3.21995 127.803L2.23072 127.95L1.24149 128.096C1.43434 129.399 1.64533 130.714 1.87482 132.041L2.86019 131.871ZM1.69507 123.981L2.68774 123.86C2.52532 122.527 2.38257 121.207 2.25907 119.9L1.2635 119.994L0.26794 120.088C0.393152 121.413 0.537843 122.751 0.702409 124.102L1.69507 123.981ZM0.94558 116.047L1.94338 115.981C1.85375 114.632 1.78504 113.297 1.73677 111.977L0.737434 112.014L-0.261898 112.05C-0.212886 113.391 -0.143149 114.745 -0.0522212 116.114L0.94558 116.047ZM0.65276 108.066L1.65274 108.06C1.64447 106.708 1.65807 105.371 1.693 104.05L0.693351 104.023L-0.3063 103.997C-0.341809 105.34 -0.355628 106.698 -0.347221 108.072L0.65276 108.066ZM0.863722 100.06L1.86194 100.12C1.94222 98.7777 2.04499 97.4519 2.16961 96.1425L1.17411 96.0478L0.17861 95.953C0.0517445 97.2859 -0.0528255 98.6351 -0.134494 100.001L0.863722 100.06ZM1.6217 92.0976L2.61314 92.2282C2.78825 90.8989 2.98639 89.5874 3.20686 88.2933L2.22106 88.1253L1.23527 87.9574C1.01054 89.2765 0.808643 90.6129 0.630269 91.967L1.6217 92.0976ZM2.96422 84.2183L3.94279 84.4242C4.21844 83.114 4.51751 81.8226 4.83921 80.5497L3.86969 80.3047L2.90017 80.0596C2.57188 81.3587 2.26678 82.6762 1.98564 84.0124L2.96422 84.2183ZM4.92127 76.4728L5.88 76.7571C6.26041 75.4743 6.66435 74.2112 7.09095 72.9675L6.14505 72.643L5.19914 72.3186C4.76342 73.5889 4.35092 74.8788 3.96254 76.1885L4.92127 76.4728ZM7.51401 68.9109L8.44532 69.2751C8.93152 68.032 9.44092 66.8092 9.97256 65.6064L9.05793 65.2021L8.14329 64.7978C7.59998 66.027 7.07946 67.2765 6.5827 68.5467L7.51401 68.9109ZM10.749 61.5901L11.6453 62.0337C12.2344 60.8436 12.8458 59.6741 13.4785 58.5251L12.6025 58.0427L11.7266 57.5604C11.0799 58.7348 10.4549 59.9301 9.85282 61.1465L10.749 61.5901ZM14.6073 54.583L15.4614 55.1031C16.1492 53.9736 16.8581 52.865 17.5871 51.777L16.7563 51.2204L15.9255 50.6638C15.1807 51.7756 14.4562 52.9085 13.7532 54.0629L14.6073 54.583ZM19.0574 47.9409L19.8635 48.5327C20.6455 47.4676 21.4472 46.4234 22.2675 45.3999L21.4871 44.7745L20.7068 44.1492C19.8691 45.1944 19.0503 46.2609 18.2513 47.3491L19.0574 47.9409ZM24.0551 41.7037L24.8087 42.361C25.6784 41.3639 26.5659 40.3877 27.4702 39.4323L26.744 38.7449L26.0177 38.0575C25.095 39.0324 24.1892 40.0286 23.3014 41.0464L24.0551 41.7037ZM29.5472 35.8989L30.2457 36.6146C31.1936 35.6894 32.1576 34.7852 33.1362 33.9014L32.466 33.1592L31.7958 32.4171C30.7983 33.3178 29.8156 34.2398 28.8488 35.1832L29.5472 35.8989ZM35.4816 30.5376L36.1235 31.3044C37.1386 30.4546 38.1675 29.6254 39.2088 28.8163L38.5953 28.0267L37.9818 27.237C36.9216 28.0606 35.8738 28.9051 34.8397 29.7708L35.4816 30.5376ZM41.7973 25.6289L42.3826 26.4397C43.4551 25.6656 44.5389 24.9117 45.6328 24.1776L45.0756 23.3472L44.5183 22.5169C43.4059 23.2634 42.3034 24.0303 41.2121 24.818L41.7973 25.6289ZM48.4371 21.1717L48.9665 22.0201C50.0909 21.3184 51.2242 20.6366 52.3651 19.9745L51.8631 19.1096L51.3611 18.2447C50.2021 18.9174 49.0505 19.6102 47.9076 20.3234L48.4371 21.1717ZM55.35 17.1578L55.8249 18.0379C56.9942 17.4069 58.1699 16.7956 59.3506 16.2037L58.9025 15.3097L58.4543 14.4158C57.256 15.0165 56.0624 15.6371 54.8751 16.2778L55.35 17.1578ZM62.5011 13.5714L62.9229 14.4781C64.1275 13.9176 65.3358 13.3767 66.5463 12.855L66.1505 11.9367L65.7547 11.0183C64.527 11.5475 63.3014 12.0961 62.0793 12.6647L62.5011 13.5714ZM69.8499 10.4031L70.22 11.3321C71.4546 10.8402 72.69 10.3679 73.9245 9.91453L73.5798 8.97582L73.2351 8.0371C71.9838 8.49658 70.7315 8.97544 69.4799 9.47408L69.8499 10.4031ZM77.354 7.64711L77.6735 8.59471C78.939 8.16807 80.2021 7.76114 81.461 7.3735L81.1667 6.41778L80.8724 5.46206C79.5969 5.85483 78.3171 6.26716 77.0346 6.6995L77.354 7.64711ZM84.9976 5.29281L85.2668 6.25589C86.5533 5.89625 87.8336 5.55663 89.1059 5.23654L88.8619 4.26677L88.6179 3.29699C87.3289 3.62129 86.0318 3.96537 84.7284 4.32973L84.9976 5.29281ZM92.7636 3.33939L92.982 4.31525C94.289 4.02274 95.5851 3.75093 96.8684 3.49928L96.6759 2.51797L96.4835 1.53666C95.1829 1.7917 93.8695 2.06715 92.5452 2.36354L92.7636 3.33939ZM100.594 1.80426L100.76 2.79041C102.09 2.56666 103.404 2.36497 104.698 2.18468L104.56 1.19425L104.422 0.203812C103.109 0.386709 101.777 0.591258 100.428 0.818105L100.594 1.80426ZM108.54 0.699156L108.648 1.69324C109.303 1.62173 109.951 1.55589 110.593 1.49562L110.5 0.5L110.406 -0.495625C109.754 -0.434404 109.095 -0.367536 108.431 -0.294928L108.54 0.699156Z" fill="black" fill-opacity="0.5"/>
</svg>
