<svg width="8" height="8" viewBox="0 0 8 8" fill="none" xmlns="http://www.w3.org/2000/svg">
<path d="M4.60381 4.43414L4.88983 6.91773C4.905 7.04947 4.8672 7.18183 4.78474 7.28572C4.70238 7.38959 4.58205 7.45648 4.45032 7.47165C4.31859 7.48682 4.1862 7.44904 4.08228 7.36661C3.97847 7.28418 3.91157 7.16387 3.8964 7.03213L3.61038 4.54855L1.12679 4.83457C0.995063 4.84974 0.862672 4.81196 0.75876 4.72953C0.654947 4.6471 0.588043 4.52679 0.572872 4.39505C0.5577 4.26331 0.595505 4.13094 0.677861 4.02707C0.760319 3.92319 0.880656 3.8563 1.01239 3.84113L3.49597 3.55512L3.20995 1.07153C3.19478 0.939791 3.23259 0.807417 3.31494 0.703543C3.3974 0.599667 3.51774 0.53278 3.64947 0.51761C3.7812 0.50244 3.91359 0.540221 4.0174 0.622646C4.12131 0.705069 4.18821 0.825384 4.20339 0.957123L4.4894 3.44071L6.97297 3.15469C7.1047 3.13952 7.23707 3.17731 7.34095 3.25972C7.44483 3.34215 7.51172 3.46247 7.52689 3.59421C7.54206 3.72595 7.50428 3.85831 7.42185 3.96219C7.33942 4.06607 7.21911 4.13296 7.08738 4.14813L4.60381 4.43414Z" fill="#4BA9FE"/>
</svg>
