<svg width="8" height="7" viewBox="0 0 8 7" fill="none" xmlns="http://www.w3.org/2000/svg">
<path d="M4.08412 2.45473L1.87416 0.245733C1.81616 0.185733 1.74716 0.138734 1.67116 0.105734C1.59416 0.0727339 1.51216 0.0557314 1.42915 0.0547314C1.34615 0.0537314 1.26415 0.0697285 1.18715 0.101728C1.11015 0.132728 1.04113 0.17973 0.982133 0.23773C0.923133 0.29673 0.87711 0.366731 0.845109 0.443731C0.814109 0.519731 0.79815 0.602736 0.79915 0.685736C0.80015 0.768736 0.817114 0.850733 0.850114 0.926733C0.882114 1.00273 0.930129 1.07173 0.990129 1.12973L3.19911 3.33974L0.990129 5.54873C0.930129 5.60673 0.882114 5.67573 0.850114 5.75173C0.817114 5.82773 0.80015 5.90973 0.79915 5.99274C0.79815 6.07574 0.814109 6.15873 0.845109 6.23473C0.877109 6.31173 0.923133 6.38173 0.982133 6.44073C1.04113 6.49873 1.11015 6.54573 1.18715 6.57673C1.26415 6.60873 1.34615 6.62373 1.42915 6.62373C1.51215 6.62273 1.59416 6.60573 1.67116 6.57273C1.74716 6.53973 1.81616 6.49273 1.87416 6.43273L4.08315 4.22273L6.29311 6.43273C6.35111 6.49273 6.42011 6.53973 6.49611 6.57273C6.57211 6.60573 6.65414 6.62273 6.73714 6.62373C6.82014 6.62373 6.90214 6.60874 6.97914 6.57674C7.05614 6.54573 7.12616 6.49873 7.18416 6.44073C7.24316 6.38173 7.28912 6.31173 7.32112 6.23473C7.35212 6.15873 7.36814 6.07574 7.36714 5.99274C7.36714 5.90974 7.34916 5.82773 7.31716 5.75173C7.28416 5.67573 7.23614 5.60674 7.17714 5.54874L4.96712 3.33974L7.17714 1.12973C7.23614 1.07173 7.28416 1.00273 7.31716 0.926733C7.34916 0.850733 7.36714 0.768736 7.36714 0.685736C7.36814 0.602736 7.35212 0.519732 7.32112 0.443732C7.28912 0.366732 7.24316 0.29673 7.18416 0.23773C7.12616 0.17973 7.05614 0.132729 6.97914 0.101729C6.90214 0.0697287 6.82014 0.0537316 6.73714 0.0547316C6.65414 0.0557316 6.57211 0.0727341 6.49611 0.105734C6.42011 0.138734 6.35111 0.185733 6.29311 0.245733L4.08412 2.45473Z" fill="#8C6BFF"/>
</svg>
