<svg width="9" height="10" viewBox="0 0 9 10" fill="none" xmlns="http://www.w3.org/2000/svg">
<path d="M3.70599 4.83025L0.695214 5.6662C0.614434 5.68714 0.539553 5.72406 0.473411 5.77397C0.406777 5.82474 0.351604 5.88775 0.309869 5.9595C0.268133 6.03125 0.241683 6.1105 0.231625 6.19328C0.220696 6.27556 0.227626 6.35877 0.249061 6.43868C0.271366 6.51909 0.309636 6.59361 0.360901 6.65937C0.411789 6.72377 0.476178 6.77853 0.548914 6.81853C0.621649 6.85852 0.701372 6.88413 0.78377 6.89282C0.865675 6.90239 0.949369 6.89456 1.02939 6.8709L4.04057 6.03629L4.87569 9.04658C4.89664 9.12736 4.93305 9.20312 4.98344 9.26839C5.03335 9.33453 5.09637 9.38967 5.16812 9.43141C5.23987 9.47314 5.31997 9.50011 5.40138 9.51055C5.48416 9.52061 5.56775 9.51501 5.64815 9.49271C5.72768 9.46991 5.80257 9.43298 5.86747 9.38122C5.93323 9.32996 5.98666 9.26596 6.02752 9.19372C6.06752 9.12098 6.09309 9.04124 6.10228 8.95797C6.11098 8.87557 6.10404 8.79237 6.08037 8.71235L5.24438 5.70156L8.25602 4.8661C8.3368 4.84516 8.41169 4.80824 8.47783 4.75833C8.54397 4.70843 8.59915 4.64541 8.64089 4.57365C8.68175 4.50141 8.70907 4.42265 8.71913 4.33988C8.73006 4.25759 8.72362 4.17351 8.7017 4.09447C8.67939 4.01407 8.64109 3.9396 8.58983 3.87383C8.53894 3.80943 8.47459 3.75462 8.40185 3.71463C8.32961 3.67377 8.24937 3.64905 8.16747 3.63948C8.08507 3.63079 8.00138 3.63861 7.92185 3.66141L4.91104 4.49741L4.07554 1.48572C4.05411 1.40581 4.0177 1.33005 3.96779 1.26391C3.9174 1.19864 3.85488 1.14261 3.78264 1.10175C3.71089 1.06001 3.63076 1.03309 3.54934 1.02265C3.46657 1.0126 3.38301 1.01814 3.30261 1.04044C3.22357 1.06237 3.14818 1.10017 3.08329 1.15193C3.01753 1.2032 2.96323 1.2667 2.92323 1.33943C2.88324 1.41217 2.85765 1.49194 2.84896 1.57433C2.84026 1.65673 2.8472 1.73993 2.87087 1.81995L3.70599 4.83025Z" fill="#FFDD55"/>
</svg>
