<svg width="7" height="7" viewBox="0 0 7 7" fill="none" xmlns="http://www.w3.org/2000/svg">
<path d="M3.39551 3.19336L1.3125 3.19336C1.2015 3.19336 1.09552 3.23725 1.01752 3.31535C0.939517 3.39345 0.895508 3.49945 0.895508 3.60995C0.895508 3.72045 0.939517 3.82646 1.01752 3.90466C1.09552 3.98276 1.2015 4.02666 1.3125 4.02666L3.39551 4.02666L3.39551 6.10995C3.39551 6.22045 3.43952 6.32646 3.51752 6.40466C3.59552 6.48276 3.7015 6.52666 3.8125 6.52666C3.9225 6.52666 4.02851 6.48276 4.10651 6.40466C4.18451 6.32646 4.22852 6.22045 4.22852 6.10995L4.22852 4.02666L6.3125 4.02666C6.4225 4.02666 6.52851 3.98276 6.60651 3.90466C6.68451 3.82646 6.72852 3.72045 6.72852 3.60995C6.72852 3.49945 6.68451 3.39345 6.60651 3.31535C6.52851 3.23725 6.4225 3.19336 6.3125 3.19336L4.22852 3.19336L4.22852 1.10995C4.22852 0.999455 4.18451 0.893453 4.10651 0.815353C4.02851 0.737253 3.9225 0.693359 3.8125 0.693359C3.7015 0.693359 3.59552 0.737253 3.51752 0.815353C3.43952 0.893453 3.39551 0.999455 3.39551 1.10995L3.39551 3.19336Z" fill="#8C6BFF"/>
</svg>
