<svg width="6" height="6" viewBox="0 0 6 6" fill="none" xmlns="http://www.w3.org/2000/svg">
<path d="M3.08388 3.10196L3.2746 4.758C3.28467 4.84543 3.25962 4.93386 3.20512 5.00254C3.14974 5.07234 3.0703 5.11674 2.98188 5.12692C2.89446 5.13699 2.80601 5.11192 2.73622 5.05654C2.66753 5.00205 2.62304 4.92162 2.61297 4.8342L2.42226 3.17815L0.766202 3.36887C0.67878 3.37894 0.590331 3.35387 0.520537 3.29849C0.451851 3.24399 0.407358 3.16357 0.39729 3.07615C0.387107 2.98773 0.412154 2.89929 0.466654 2.83061C0.522033 2.76081 0.602468 2.71629 0.68989 2.70623L2.34594 2.51551L2.15534 0.860464C2.14516 0.772048 2.17021 0.68361 2.22471 0.614924C2.28009 0.54513 2.36052 0.500612 2.44794 0.490545C2.53636 0.480362 2.62381 0.505545 2.69361 0.560923C2.76229 0.615423 2.80679 0.695853 2.81697 0.784269L3.00757 2.43931L4.66363 2.2486C4.75204 2.23842 4.8395 2.2636 4.90929 2.31898C4.97798 2.37348 5.02247 2.45391 5.03265 2.54232C5.04272 2.62974 5.01767 2.71818 4.96317 2.78686C4.90779 2.85666 4.82835 2.90106 4.73994 2.91124L3.08388 3.10196Z" fill="#4BA9FE"/>
</svg>
