<svg width="5" height="4" viewBox="0 0 5 4" fill="none" xmlns="http://www.w3.org/2000/svg">
<path d="M2.55557 1.93186L3.86112 2.9683C3.89626 2.99546 3.92572 3.02932 3.94769 3.06705C3.96966 3.10579 3.98384 3.14845 3.98927 3.19211C3.9947 3.23578 3.99139 3.28045 3.97939 3.3231C3.96749 3.36574 3.94708 3.40533 3.91954 3.43971C3.8921 3.47508 3.85801 3.50417 3.81911 3.52475C3.78042 3.54632 3.73772 3.5593 3.69372 3.56437C3.64971 3.56944 3.60526 3.56549 3.56277 3.55226C3.52049 3.54002 3.48096 3.5184 3.4467 3.49014L2.14107 2.45472L1.10518 3.75979C1.07834 3.7951 1.04476 3.82513 1.00627 3.84668C0.967994 3.8692 0.925511 3.88316 0.881602 3.88822C0.837593 3.89329 0.793066 3.89035 0.750489 3.87815C0.707928 3.86694 0.668112 3.84636 0.633356 3.81815C0.598715 3.79094 0.569846 3.75703 0.548565 3.71821C0.527184 3.6794 0.513804 3.63665 0.509168 3.59289C0.504432 3.54915 0.508538 3.50439 0.521233 3.46165C0.534042 3.41991 0.555043 3.38025 0.583087 3.34581L1.61888 2.04073L0.313429 1.00428C0.278291 0.977122 0.248823 0.943269 0.226862 0.905534C0.204786 0.866805 0.190612 0.824149 0.18528 0.780472C0.179849 0.736807 0.183162 0.692137 0.195161 0.649484C0.20706 0.606842 0.227465 0.567255 0.255013 0.532877C0.282446 0.497506 0.316543 0.468416 0.355443 0.447831C0.39413 0.426263 0.436824 0.413284 0.480833 0.408216C0.524743 0.403159 0.569287 0.407097 0.61168 0.420334C0.654057 0.432566 0.69359 0.454182 0.727749 0.482459L2.03318 1.5179L3.06927 0.212802C3.09621 0.177488 3.12979 0.147452 3.16818 0.125919C3.20655 0.103381 3.24894 0.089432 3.29295 0.0843637C3.33696 0.0792955 3.38148 0.0822295 3.42406 0.0944386C3.46662 0.105643 3.50644 0.126221 3.54119 0.15443C3.57583 0.181645 3.6047 0.215559 3.62598 0.254379C3.64736 0.293188 3.66074 0.335935 3.66538 0.379692C3.67002 0.423449 3.66591 0.468211 3.65332 0.510932C3.64051 0.552672 3.61951 0.592336 3.59146 0.626771L2.55557 1.93186Z" fill="#4BA9FE"/>
</svg>
