<svg width="12" height="12" viewBox="0 0 12 12" fill="none" xmlns="http://www.w3.org/2000/svg">
<mask id="mask0_4220_5838" style="mask-type:alpha" maskUnits="userSpaceOnUse" x="0" y="0" width="12" height="12">
<rect x="0.27832" width="11.1684" height="11.1684" fill="#D9D9D9"/>
</mask>
<g mask="url(#mask0_4220_5838)">
<path d="M6.79364 9.64409V8.69013C7.49167 8.48848 8.05396 8.10069 8.48053 7.52676C8.9071 6.95283 9.12039 6.30134 9.12039 5.57229C9.12039 4.84324 8.9071 4.19176 8.48053 3.61783C8.05396 3.0439 7.49167 2.6561 6.79364 2.45445V1.50049C7.75536 1.71765 8.5387 2.20433 9.14365 2.96052C9.74861 3.71671 10.0511 4.5873 10.0511 5.57229C10.0511 6.55728 9.74861 7.42787 9.14365 8.18406C8.5387 8.94025 7.75536 9.42693 6.79364 9.64409ZM1.6748 6.97997V4.18788H3.5362L5.86294 1.86113V9.30672L3.5362 6.97997H1.6748ZM6.79364 7.44532V3.69926C7.15817 3.86989 7.44319 4.12583 7.64872 4.46709C7.85425 4.80834 7.95701 5.18062 7.95701 5.58392C7.95701 5.97947 7.85425 6.34593 7.64872 6.68331C7.44319 7.02069 7.15817 7.27469 6.79364 7.44532ZM4.93225 4.11808L3.93175 5.11858H2.6055V6.04927H3.93175L4.93225 7.04977V4.11808Z" fill="white"/>
</g>
</svg>
