<svg width="10" height="10" viewBox="0 0 10 10" fill="none" xmlns="http://www.w3.org/2000/svg">
<mask id="mask0_4381_10386" style="mask-type:alpha" maskUnits="userSpaceOnUse" x="0" y="0" width="10" height="10">
<rect x="0.0771484" width="9.8263" height="9.8263" fill="#D9D9D9"/>
</mask>
<g mask="url(#mask0_4381_10386)">
<path d="M5.80939 8.48533V7.646C6.42353 7.46858 6.91826 7.12738 7.29357 6.62242C7.66888 6.11746 7.85653 5.54426 7.85653 4.90282C7.85653 4.26138 7.66888 3.68818 7.29357 3.18322C6.91826 2.67825 6.42353 2.33706 5.80939 2.15964V1.32031C6.65554 1.51138 7.34475 1.93957 7.87701 2.6049C8.40926 3.27022 8.67539 4.03619 8.67539 4.90282C8.67539 5.76944 8.40926 6.53542 7.87701 7.20074C7.34475 7.86606 6.65554 8.29426 5.80939 8.48533ZM1.30566 6.14134V3.68477H2.94338L4.99053 1.63762V8.18849L2.94338 6.14134H1.30566ZM5.80939 6.55077V3.25487C6.13011 3.40499 6.38088 3.63018 6.56171 3.93042C6.74254 4.23067 6.83296 4.55822 6.83296 4.91305C6.83296 5.26107 6.74254 5.5835 6.56171 5.88033C6.38088 6.17717 6.13011 6.40065 5.80939 6.55077ZM4.17167 3.62335L3.2914 4.50363H2.12452V5.32248H3.2914L4.17167 6.20276V3.62335Z" fill="white"/>
</g>
</svg>
