<svg width="32" height="32" viewBox="0 0 32 32" fill="none" xmlns="http://www.w3.org/2000/svg">
<mask id="mask0_4220_5345" style="mask-type:alpha" maskUnits="userSpaceOnUse" x="0" y="0" width="32" height="32">
<rect width="32" height="32" fill="#D9D9D9"/>
</mask>
<g mask="url(#mask0_4220_5345)">
<path d="M16.3335 17.4999L23.5258 12.6666L16.3335 7.83325V17.4999ZM19.7028 24.9743H24.4258C24.3471 25.4238 24.1596 25.7944 23.8631 26.0859C23.5665 26.3773 23.1865 26.5588 22.7231 26.6306L7.92079 28.4613C7.25567 28.5555 6.65867 28.3983 6.12979 27.9896C5.60067 27.5811 5.2959 27.0444 5.21545 26.3793L3.51312 12.6206C3.43267 11.9555 3.59545 11.3576 4.00145 10.8269C4.40745 10.296 4.9429 9.9947 5.60779 9.92292L7.02579 9.77425V11.7743L5.87712 11.9026C5.75734 11.911 5.66334 11.9601 5.59512 12.0499C5.52667 12.1397 5.50101 12.2444 5.51812 12.3639L7.21545 26.1229C7.23256 26.2427 7.2839 26.3367 7.36945 26.4049C7.45479 26.4734 7.55734 26.499 7.67712 26.4819L19.7028 24.9743ZM12.1028 22.3076C11.4292 22.3076 10.8591 22.0743 10.3925 21.6076C9.92579 21.1409 9.69245 20.5708 9.69245 19.8973V5.74359C9.69245 5.07003 9.92579 4.49992 10.3925 4.03325C10.8591 3.56659 11.4292 3.33325 12.1028 3.33325H26.2565C26.93 3.33325 27.5001 3.56659 27.9668 4.03325C28.4335 4.49992 28.6668 5.07003 28.6668 5.74359V19.8973C28.6668 20.5708 28.4335 21.1409 27.9668 21.6076C27.5001 22.0743 26.93 22.3076 26.2565 22.3076H12.1028ZM12.1028 20.3076H26.2565C26.3762 20.3076 26.4746 20.2691 26.5515 20.1923C26.6283 20.1154 26.6668 20.017 26.6668 19.8973V5.74359C26.6668 5.62381 26.6283 5.52548 26.5515 5.44859C26.4746 5.3717 26.3762 5.33325 26.2565 5.33325H12.1028C11.983 5.33325 11.8847 5.3717 11.8078 5.44859C11.7309 5.52548 11.6925 5.62381 11.6925 5.74359V19.8973C11.6925 20.017 11.7309 20.1154 11.8078 20.1923C11.8847 20.2691 11.983 20.3076 12.1028 20.3076Z" fill="#8C6BFF"/>
</g>
</svg>
