<svg width="28" height="27" viewBox="0 0 28 27" fill="none" xmlns="http://www.w3.org/2000/svg">
<path d="M15.7672 7.41158L9.42412 11.4139M16.5985 17.3903V23.6992M13.0582 23.6987H19.8312M14.2131 4.15075C15.166 3.59474 16.2494 3.30176 17.3527 3.30176C18.4559 3.30176 19.5393 3.59474 20.4922 4.15075C21.4482 4.7128 22.2408 5.51484 22.7915 6.47743C23.3422 7.44002 23.6319 8.52978 23.6319 9.63876C23.6319 10.7478 23.3422 11.8375 22.7915 12.8001C22.2408 13.7627 21.4482 14.5647 20.4922 15.1268L13.7495 19.0376C13.0353 19.4519 12.2464 19.7214 11.4279 19.8304C10.6094 19.9395 9.77749 19.8861 8.9797 19.6732C8.18191 19.4604 7.43394 19.0922 6.7786 18.5899C6.12326 18.0876 5.57343 17.461 5.16058 16.7459C4.74773 16.0308 4.47997 15.2414 4.37262 14.4227C4.26528 13.604 4.32046 12.7721 4.53501 11.9748C4.74956 11.1775 5.11926 10.4303 5.62295 9.776C6.12664 9.12173 6.75443 8.57322 7.47038 8.16188L14.2131 4.15075Z" stroke="black" stroke-width="1.65385" stroke-linecap="round" stroke-linejoin="round"/>
</svg>
