<svg width="10" height="10" viewBox="0 0 10 10" fill="none" xmlns="http://www.w3.org/2000/svg">
<mask id="mask0_4381_10392" style="mask-type:alpha" maskUnits="userSpaceOnUse" x="0" y="0" width="10" height="10">
<rect x="0.0200195" width="9.8263" height="9.8263" fill="#D9D9D9"/>
</mask>
<g mask="url(#mask0_4381_10392)">
<path d="M2.06739 8.59825C1.84221 8.59825 1.64943 8.51807 1.48907 8.35771C1.32872 8.19735 1.24854 8.00458 1.24854 7.7794V2.04739C1.24854 1.8222 1.32872 1.62943 1.48907 1.46907C1.64943 1.30871 1.84221 1.22853 2.06739 1.22853H3.787C3.87571 0.982869 4.02412 0.784978 4.23225 0.634854C4.44038 0.48473 4.67409 0.409668 4.9334 0.409668C5.1927 0.409668 5.42642 0.48473 5.63455 0.634854C5.84267 0.784978 5.99109 0.982869 6.0798 1.22853H7.7994C8.02459 1.22853 8.21736 1.30871 8.37772 1.46907C8.53808 1.62943 8.61826 1.8222 8.61826 2.04739V4.79056C8.48861 4.72915 8.35555 4.67626 8.21907 4.63191C8.08259 4.58755 7.9427 4.55514 7.7994 4.53467V2.04739H2.06739V7.7794H4.54444C4.56491 7.92952 4.59733 8.07282 4.64168 8.2093C4.68604 8.34577 4.73892 8.47542 4.80033 8.59825H2.06739ZM2.06739 7.7794V2.04739V4.53467V4.50396V7.7794ZM2.88625 6.96054H4.55468C4.57515 6.81724 4.60756 6.67735 4.65192 6.54087C4.69627 6.4044 4.74574 6.27133 4.80033 6.14168H2.88625V6.96054ZM2.88625 5.32282H5.38377C5.60213 5.1181 5.84609 4.94751 6.11563 4.81103C6.38517 4.67456 6.67347 4.58243 6.98055 4.53467V4.50396H2.88625V5.32282ZM2.88625 3.6851H6.98055V2.86624H2.88625V3.6851ZM4.9334 1.74031C5.02211 1.74031 5.09546 1.71131 5.15347 1.65331C5.21147 1.59531 5.24047 1.52195 5.24047 1.43324C5.24047 1.34453 5.21147 1.27118 5.15347 1.21317C5.09546 1.15517 5.02211 1.12617 4.9334 1.12617C4.84469 1.12617 4.77133 1.15517 4.71333 1.21317C4.65533 1.27118 4.62633 1.34453 4.62633 1.43324C4.62633 1.52195 4.65533 1.59531 4.71333 1.65331C4.77133 1.71131 4.84469 1.74031 4.9334 1.74031ZM7.38997 9.41711C6.8236 9.41711 6.34081 9.21752 5.94162 8.81832C5.54243 8.41913 5.34283 7.93634 5.34283 7.36997C5.34283 6.80359 5.54243 6.3208 5.94162 5.92161C6.34081 5.52242 6.8236 5.32282 7.38997 5.32282C7.95635 5.32282 8.43914 5.52242 8.83833 5.92161C9.23752 6.3208 9.43712 6.80359 9.43712 7.36997C9.43712 7.93634 9.23752 8.41913 8.83833 8.81832C8.43914 9.21752 7.95635 9.41711 7.38997 9.41711ZM7.18526 8.59825H7.59469V7.57468H8.61826V7.16525H7.59469V6.14168H7.18526V7.16525H6.16169V7.57468H7.18526V8.59825Z" fill="#F3F3F3"/>
</g>
</svg>
