<svg width="32" height="32" viewBox="0 0 32 32" fill="none" xmlns="http://www.w3.org/2000/svg">
<path fill-rule="evenodd" clip-rule="evenodd" d="M5.48002 8.36C3.86344 10.5789 2.99487 13.2547 3.00002 16C3.00002 22.6627 8.01202 28.1547 14.472 28.9107C14.9792 28.9697 15.4894 28.9995 16 29C19.4478 29 22.7544 27.6304 25.1924 25.1924C27.6304 22.7544 29 19.4478 29 16C29.0033 14.187 28.6253 12.3935 27.8907 10.736C26.871 8.43339 25.2044 6.47652 23.0935 5.10319C20.9826 3.72987 18.5183 2.99921 16 3C13.9817 2.99897 11.9908 3.4684 10.1855 4.37104C8.38026 5.27368 6.81021 6.58468 5.60002 8.2C5.55607 8.25026 5.51596 8.30374 5.48002 8.36ZM6.30136 10.804C5.47861 12.34 5.03245 14.0494 4.99958 15.7916C4.96671 17.5338 5.34809 19.2588 6.11231 20.8247C6.87653 22.3907 8.00174 23.7527 9.39531 24.7987C10.7889 25.8448 12.411 26.5448 14.128 26.8413L17.096 21.696C16.7405 21.7644 16.3751 21.7991 16 21.8C14.9398 21.8001 13.8998 21.5095 12.9931 20.9599C12.0864 20.4103 11.3478 19.6227 10.8574 18.6827L6.30136 10.804ZM7.54669 8.96134L10.5174 14.1013C10.9122 12.9617 11.6524 11.9735 12.6351 11.2743C13.6178 10.5751 14.794 10.1995 16 10.2H25.348C24.362 8.60861 22.9856 7.29557 21.3496 6.3855C19.7136 5.47543 17.8721 4.99851 16 5C14.3865 4.99799 12.7924 5.35182 11.3313 6.03629C9.87014 6.72077 8.57792 7.71904 7.54669 8.96M26.3254 12.2H20.3814C21.2983 13.2534 21.8023 14.6034 21.8 16C21.8019 17.0997 21.4897 18.1771 20.9 19.1053L16.3494 26.9947C18.091 26.9397 19.7946 26.4719 21.32 25.6296C22.8453 24.7873 24.1488 23.5946 25.1229 22.1499C26.0971 20.7052 26.7141 19.0497 26.9232 17.3199C27.1322 15.59 26.9273 13.8352 26.3254 12.2ZM16 12.2C14.9922 12.2 14.0257 12.6004 13.313 13.313C12.6004 14.0256 12.2 14.9922 12.2 16C12.2 17.0078 12.6004 17.9744 13.313 18.687C14.0257 19.3996 14.9922 19.8 16 19.8C17.0078 19.8 17.9744 19.3996 18.687 18.687C19.3997 17.9744 19.8 17.0078 19.8 16C19.8 14.9922 19.3997 14.0256 18.687 13.313C17.9744 12.6004 17.0078 12.2 16 12.2Z" fill="#FFDD55"/>
</svg>
