<svg width="10" height="5" viewBox="0 0 10 5" fill="none" xmlns="http://www.w3.org/2000/svg">
<path opacity="0.4" fill-rule="evenodd" clip-rule="evenodd" d="M1.6958 4.70801H7.34033L7.43213 4.7041C7.85739 4.66108 8.19566 4.32269 8.23877 3.89746L8.24365 3.80566V1.77344C8.24365 1.30573 7.88767 0.921117 7.43213 0.875L7.34033 0.870117H1.6958L1.60303 0.875C1.14775 0.921366 0.79248 1.30592 0.79248 1.77344V3.80566L0.797363 3.89746C0.840475 4.32249 1.17804 4.66085 1.60303 4.7041L1.6958 4.70801ZM7.34033 4.37012H1.6958C1.3842 4.37012 1.13157 4.11721 1.13135 3.80566V1.77344C1.13135 1.4617 1.38406 1.20898 1.6958 1.20898H7.34033C7.65196 1.20911 7.90479 1.46178 7.90479 1.77344V3.80566C7.90456 4.11714 7.65183 4.36999 7.34033 4.37012ZM9.0318 2.78941C9.0318 3.08511 8.85458 3.35202 8.58204 3.46675V2.11207C8.85458 2.2268 9.0318 2.49371 9.0318 2.78941Z" fill="black"/>
<rect x="1.46973" y="1.54785" width="6.09606" height="2.48358" rx="0.45156" fill="black"/>
</svg>
