<svg width="22" height="21" viewBox="0 0 22 21" fill="none" xmlns="http://www.w3.org/2000/svg">
<mask id="mask0_4236_8329" style="mask-type:alpha" maskUnits="userSpaceOnUse" x="0" y="0" width="22" height="22">
<rect x="0.96875" y="0.162598" width="20.8414" height="20.8414" fill="#D9D9D9"/>
</mask>
<g mask="url(#mask0_4236_8329)">
<path d="M2.79736 22.1007V19.3584H21.0793V22.1007H2.79736ZM6.45375 15.1659H7.58403L15.171 7.59282L14.5963 7.0094L14.0268 6.4486L6.45375 14.0356V15.1659ZM5.08261 16.537V13.452L15.3294 3.21933C15.4618 3.08694 15.6121 2.98676 15.7803 2.91882C15.9483 2.85087 16.1232 2.81689 16.305 2.81689C16.4869 2.81689 16.663 2.85087 16.8333 2.91882C17.0036 2.98676 17.1597 3.09166 17.3016 3.2335L18.4003 4.34618C18.5422 4.47857 18.6447 4.63023 18.7079 4.80117C18.7711 4.97195 18.8027 5.14853 18.8027 5.33089C18.8027 5.50183 18.7707 5.67177 18.7065 5.84073C18.6424 6.00984 18.5403 6.16439 18.4003 6.3044L8.16768 16.537H5.08261ZM15.171 7.59282L14.5963 7.0094L14.0268 6.4486L15.171 7.59282Z" fill="#B0B0B0"/>
</g>
</svg>
