<svg width="32" height="32" viewBox="0 0 32 32" fill="none" xmlns="http://www.w3.org/2000/svg">
<mask id="mask0_4220_5355" style="mask-type:alpha" maskUnits="userSpaceOnUse" x="0" y="0" width="32" height="32">
<rect width="32" height="32" fill="#D9D9D9"/>
</mask>
<g mask="url(#mask0_4220_5355)">
<path d="M2.6665 32.0001V28.0001H29.3332V32.0001H2.6665ZM7.99984 21.8847H9.6485L20.7152 10.8384L19.8768 9.9874L19.0462 9.1694L7.99984 20.2361V21.8847ZM5.99984 23.8847V19.3847L20.9462 4.45907C21.1393 4.26596 21.3585 4.11985 21.6038 4.02074C21.8489 3.92163 22.1041 3.87207 22.3692 3.87207C22.6345 3.87207 22.8914 3.92163 23.1398 4.02074C23.3883 4.11985 23.6159 4.27285 23.8228 4.47974L25.4255 6.10274C25.6324 6.29585 25.7819 6.51707 25.8742 6.7664C25.9664 7.01552 26.0125 7.27307 26.0125 7.53907C26.0125 7.7884 25.9657 8.03629 25.8722 8.28274C25.7786 8.5294 25.6297 8.75485 25.4255 8.95907L10.4998 23.8847H5.99984ZM20.7152 10.8384L19.8768 9.9874L19.0462 9.1694L20.7152 10.8384Z" fill="#00BF16"/>
</g>
</svg>
