<svg width="18" height="18" viewBox="0 0 18 18" fill="none" xmlns="http://www.w3.org/2000/svg">
<mask id="mask0_4240_5447" style="mask-type:alpha" maskUnits="userSpaceOnUse" x="0" y="0" width="18" height="18">
<rect x="0.12793" y="0.211426" width="17.2647" height="17.2647" fill="#D9D9D9"/>
</mask>
<g mask="url(#mask0_4240_5447)">
<path d="M4.44434 12.4407V3.53176C4.44434 3.20061 4.55524 2.92414 4.77704 2.70233C4.99885 2.48053 5.27532 2.36963 5.60647 2.36963H11.9146C12.2457 2.36963 12.5222 2.48053 12.744 2.70233C12.9658 2.92414 13.0767 3.20061 13.0767 3.53176V12.4407H12.3573V3.53176C12.3573 3.42098 12.3112 3.31949 12.219 3.22729C12.1268 3.13509 12.0254 3.08899 11.9146 3.08899H5.60647C5.49569 3.08899 5.3942 3.13509 5.302 3.22729C5.2098 3.31949 5.1637 3.42098 5.1637 3.53176V12.4407H4.44434ZM8.76052 7.37748C9.0732 7.37748 9.34045 7.26658 9.56225 7.04478C9.78406 6.82297 9.89496 6.55573 9.89496 6.24305C9.89496 5.93048 9.78406 5.6633 9.56225 5.44149C9.34045 5.21969 9.0732 5.10879 8.76052 5.10879C8.44784 5.10879 8.18059 5.21969 7.95879 5.44149C7.73699 5.6633 7.62608 5.93048 7.62608 6.24305C7.62608 6.55573 7.73699 6.82297 7.95879 7.04478C8.18059 7.26658 8.44784 7.37748 8.76052 7.37748ZM7.57357 15.8993L7.06444 15.3901L8.21542 14.2391H4.44434V13.5198H8.21542L7.06444 12.3688L7.57357 11.8597L9.59337 13.8795L7.57357 15.8993ZM10.1992 14.2391V13.5198H13.0767V14.2391H10.1992Z" fill="#1C1B1F"/>
</g>
</svg>
