<svg width="32" height="32" viewBox="0 0 32 32" fill="none" xmlns="http://www.w3.org/2000/svg">
<mask id="mask0_4220_5374" style="mask-type:alpha" maskUnits="userSpaceOnUse" x="0" y="0" width="32" height="32">
<rect width="32" height="32" fill="#F0ACFB"/>
</mask>
<g mask="url(#mask0_4220_5374)">
<path d="M27.6002 29.0256L23.3335 24.7589V28.1999H21.3335V21.3333H28.2002V23.3333H24.7258L28.9925 27.5999L27.6002 29.0256ZM16.0002 28.6666C14.2479 28.6666 12.6013 28.3341 11.0602 27.6693C9.51905 27.0044 8.1785 26.102 7.0385 24.9623C5.8985 23.8225 4.99605 22.4821 4.33116 20.9413C3.66605 19.4004 3.3335 17.754 3.3335 16.0023C3.3335 14.2503 3.66594 12.6035 4.33083 11.0619C4.99572 9.52036 5.89805 8.17947 7.03783 7.03925C8.17761 5.89903 9.51794 4.99625 11.0588 4.33092C12.5997 3.66581 14.2461 3.33325 15.9978 3.33325C17.7498 3.33325 19.3966 3.66581 20.9382 4.33092C22.4797 4.99581 23.8206 5.89825 24.9608 7.03825C26.1011 8.17825 27.0038 9.51881 27.6692 11.0599C28.3343 12.601 28.6668 14.2477 28.6668 15.9999C28.6668 16.4017 28.6478 16.8034 28.6098 17.2049C28.5718 17.6067 28.5147 18.0085 28.4385 18.4103H26.3848C26.4788 18.0085 26.5493 17.6067 26.5962 17.2049C26.6433 16.8034 26.6668 16.4017 26.6668 15.9999C26.6668 15.5155 26.6348 15.0311 26.5708 14.5469C26.5066 14.0625 26.4062 13.581 26.2695 13.1026H21.3128C21.3966 13.581 21.4574 14.0625 21.4952 14.5469C21.5327 15.0311 21.5515 15.5155 21.5515 15.9999C21.5515 16.4017 21.5381 16.8034 21.5112 17.2049C21.4841 17.6067 21.4436 18.0085 21.3898 18.4103H19.3898C19.4438 18.0085 19.4843 17.6067 19.5112 17.2049C19.5381 16.8034 19.5515 16.4017 19.5515 15.9999C19.5515 15.5155 19.5327 15.0311 19.4952 14.5469C19.4574 14.0625 19.3967 13.581 19.3132 13.1026H12.6872C12.6036 13.581 12.5429 14.0628 12.5052 14.5479C12.4676 15.033 12.4488 15.5181 12.4488 16.0033C12.4488 16.4881 12.4676 16.972 12.5052 17.4549C12.5429 17.938 12.6036 18.4188 12.6872 18.8973H17.5898V20.8973H13.1462C13.4417 21.9461 13.8233 22.9525 14.2908 23.9163C14.7586 24.8798 15.3284 25.7871 16.0002 26.6383C16.4019 26.6383 16.8036 26.6148 17.2052 26.5679C17.6069 26.5208 18.0087 26.475 18.4105 26.4306V28.4589C18.0087 28.5034 17.6069 28.549 17.2052 28.5959C16.8036 28.643 16.4019 28.6666 16.0002 28.6666ZM5.73083 18.8973H10.6875C10.6037 18.4188 10.5429 17.937 10.5052 17.4519C10.4676 16.9668 10.4488 16.4817 10.4488 15.9966C10.4488 15.5117 10.4676 15.0278 10.5052 14.5449C10.5429 14.0618 10.6037 13.581 10.6875 13.1026H5.73083C5.59416 13.581 5.49372 14.0628 5.4295 14.5479C5.3655 15.033 5.3335 15.5181 5.3335 16.0033C5.3335 16.4881 5.3655 16.972 5.4295 17.4549C5.49372 17.938 5.59416 18.4188 5.73083 18.8973ZM6.5695 11.1026H11.0865C11.3161 10.135 11.6215 9.19914 12.0028 8.29492C12.3839 7.39047 12.8557 6.52636 13.4182 5.70259C11.9224 6.03414 10.5809 6.6717 9.39383 7.61525C8.2065 8.55881 7.26505 9.72125 6.5695 11.1026ZM13.4182 26.2973C12.8815 25.4648 12.4204 24.5965 12.0348 23.6923C11.6493 22.788 11.3352 21.8564 11.0925 20.8973H6.5695C7.26505 22.2699 8.20861 23.428 9.40016 24.3716C10.5917 25.3154 11.9311 25.9573 13.4182 26.2973ZM13.1462 11.1026H18.8542C18.5704 10.053 18.1882 9.05114 17.7075 8.09692C17.2268 7.14292 16.6577 6.23114 16.0002 5.36158C15.3368 6.2127 14.7663 7.11992 14.2885 8.08325C13.8107 9.04659 13.4299 10.053 13.1462 11.1026ZM20.9078 11.1026H25.4308C24.7353 9.72125 23.7938 8.5567 22.6065 7.60892C21.4194 6.66092 20.0779 6.02547 18.5822 5.70259C19.1188 6.53503 19.5735 7.40547 19.9462 8.31392C20.3188 9.22259 20.6394 10.1521 20.9078 11.1026Z" fill="#F0ACFB"/>
</g>
</svg>
