<svg width="26" height="27" viewBox="0 0 26 27" fill="none" xmlns="http://www.w3.org/2000/svg">
<path d="M22.7329 3.7666H3.4781C3.05254 3.7666 2.64442 3.93565 2.3435 4.23657C2.04259 4.53748 1.87354 4.94561 1.87354 5.37117V18.2077C1.87354 18.6333 2.04259 19.0414 2.3435 19.3423C2.64442 19.6432 3.05254 19.8123 3.4781 19.8123H9.89637V23.0214H6.68724V24.626H19.5238V23.0214H16.3146V19.8123H22.7329C23.1585 19.8123 23.5666 19.6432 23.8675 19.3423C24.1684 19.0414 24.3375 18.6333 24.3375 18.2077V5.37117C24.3375 4.94561 24.1684 4.53748 23.8675 4.23657C23.5666 3.93565 23.1585 3.7666 22.7329 3.7666ZM14.7101 23.0214H11.5009V19.8123H14.7101V23.0214ZM22.7329 18.2077H3.4781V5.37117H22.7329V18.2077Z" fill="black"/>
</svg>
