<svg width="5" height="7" viewBox="0 0 5 7" fill="none" xmlns="http://www.w3.org/2000/svg">
<path d="M0.629883 3.31645C0.629883 3.40792 0.662812 3.48842 0.732329 3.55793L3.63375 6.39349C3.69595 6.45935 3.77644 6.49228 3.87157 6.49228C4.06183 6.49228 4.20818 6.34959 4.20818 6.15933C4.20818 6.0642 4.16793 5.98371 4.10939 5.92151L1.44579 3.31645L4.10939 0.711396C4.16793 0.649196 4.20818 0.565044 4.20818 0.473575C4.20818 0.283318 4.06183 0.140625 3.87157 0.140625C3.77644 0.140625 3.69595 0.173554 3.63375 0.235753L0.732329 3.07497C0.662812 3.14083 0.629883 3.22498 0.629883 3.31645Z" fill="white" fill-opacity="0.6"/>
</svg>
