<svg width="25" height="24" viewBox="0 0 25 24" fill="none" xmlns="http://www.w3.org/2000/svg">
<g clip-path="url(#clip0_4364_7173)">
<path d="M12.4997 -0.000226562C9.01972 -0.000226562 4.92547 0.827773 1.42972 2.62852L0.886719 2.90527V3.52252C0.886719 7.23352 0.956469 17.1365 11.9875 23.6908L12.4997 23.9998L13.012 23.6908C24.043 17.1365 24.1127 7.23352 24.1127 3.52252V2.91352L23.5735 2.63227C20.1205 0.823273 15.9797 -0.000976562 12.4997 -0.000976562V-0.000226562ZM12.4997 2.01202C15.4765 2.01202 19.0855 2.77327 22.0735 4.21102C22.0652 8.09827 21.6557 15.7543 12.4997 21.539C3.34372 15.7543 2.92972 8.09827 2.92597 4.21102C5.96122 2.77027 9.52297 2.01202 12.4997 2.01202ZM17.5345 7.57777C17.2727 7.58602 17.0507 7.74952 16.9255 7.87477L11.5465 13.457L9.53047 11.0428C8.57722 9.93802 7.26922 10.793 6.96847 10.9918L11.6447 16.4218L18.031 7.77277C17.898 7.64474 17.7198 7.57462 17.5352 7.57777H17.5345Z" fill="white"/>
</g>
<defs>
<clipPath id="clip0_4364_7173">
<rect width="24" height="24" fill="white" transform="translate(0.5)"/>
</clipPath>
</defs>
</svg>
