<svg width="23" height="23" viewBox="0 0 23 23" fill="none" xmlns="http://www.w3.org/2000/svg">
<path d="M20.781 5.3125H16.9481L16.2502 3.30371C16.1564 3.03395 15.9809 2.80008 15.7482 2.63455C15.5154 2.46901 15.2369 2.38 14.9513 2.37988H8.02989C7.74275 2.37982 7.4628 2.46967 7.22934 2.63683C6.99588 2.804 6.82063 3.04007 6.72819 3.31192L6.04727 5.3125H2.21875C1.94534 5.31281 1.68322 5.42156 1.48989 5.61489C1.29655 5.80822 1.18781 6.07034 1.1875 6.34375V19.75C1.18781 20.0234 1.29655 20.2855 1.48989 20.4789C1.68322 20.6722 1.94534 20.7809 2.21875 20.7812H20.781C21.0544 20.7809 21.3165 20.6722 21.5098 20.4789C21.7031 20.2855 21.8119 20.0234 21.8122 19.75V6.34375C21.8119 6.07034 21.7031 5.80822 21.5098 5.61489C21.3165 5.42156 21.0544 5.31281 20.781 5.3125ZM20.4372 19.4062H2.5628V6.6875H7.03198L8.02989 3.75488H14.9513L15.9701 6.6875H20.4372V19.4062Z" fill="white"/>
<path d="M11.5 7.71875C10.5312 7.71875 9.58412 8.00604 8.77858 8.54429C7.97303 9.08253 7.34519 9.84756 6.97444 10.7426C6.60369 11.6377 6.50668 12.6226 6.69569 13.5728C6.88469 14.523 7.35123 15.3958 8.03628 16.0809C8.72134 16.766 9.59416 17.2325 10.5444 17.4215C11.4946 17.6105 12.4795 17.5135 13.3746 17.1428C14.2696 16.772 15.0347 16.1442 15.5729 15.3386C16.1112 14.5331 16.3984 13.586 16.3984 12.6172C16.397 11.3185 15.8804 10.0734 14.9621 9.1551C14.0438 8.23679 12.7987 7.72023 11.5 7.71875ZM11.5 16.1406C10.8031 16.1406 10.1219 15.934 9.54249 15.5468C8.96306 15.1597 8.51145 14.6094 8.24477 13.9655C7.97809 13.3217 7.90831 12.6133 8.04427 11.9298C8.18022 11.2463 8.51579 10.6185 9.00856 10.1257C9.50132 9.63298 10.1291 9.2974 10.8126 9.16145C11.4961 9.0255 12.2045 9.09528 12.8484 9.36196C13.4922 9.62864 14.0425 10.0802 14.4296 10.6597C14.8168 11.2391 15.0234 11.9203 15.0234 12.6172C15.0224 13.5513 14.6508 14.4469 13.9903 15.1075C13.3297 15.768 12.4342 16.1396 11.5 16.1406Z" fill="white"/>
</svg>
