<svg width="25" height="25" viewBox="0 0 25 25" fill="none" xmlns="http://www.w3.org/2000/svg">
<path d="M4 12.5C4 7.8 7.8 4 12.5 4C17.2 4 21 7.8 21 12.5C21 17.2 17.2 21 12.5 21C7.8 21 4 17.2 4 12.5ZM20 12.5C20 8.35 16.65 5 12.5 5C8.35 5 5 8.35 5 12.5C5 16.65 8.35 20 12.5 20C16.65 20 20 16.65 20 12.5Z" fill="black"/>
<path d="M11.6502 16.6504L15.8002 12.5004L11.6502 8.35039L12.3502 7.65039L17.2002 12.5004L12.3502 17.3504L11.6502 16.6504Z" fill="black"/>
<path d="M16.5 12L16.5 13L8 13L8 12L16.5 12Z" fill="black"/>
</svg>
