<svg width="19" height="19" viewBox="0 0 19 19" fill="none" xmlns="http://www.w3.org/2000/svg">
<path d="M9.49951 7.22705C9.81494 7.22705 10.1087 7.28581 10.3809 7.40332C10.653 7.52083 10.8942 7.68473 11.1045 7.89502C11.3148 8.10531 11.4756 8.34342 11.5869 8.60938C11.6982 8.87533 11.7601 9.1722 11.7725 9.5C11.7725 9.81543 11.7137 10.1092 11.5962 10.3813C11.4787 10.6535 11.3148 10.8947 11.1045 11.105C10.8942 11.3153 10.6561 11.4761 10.3901 11.5874C10.1242 11.6987 9.82731 11.7606 9.49951 11.7729C9.18408 11.7729 8.8903 11.7142 8.61816 11.5967C8.34603 11.4792 8.10482 11.3153 7.89453 11.105C7.68424 10.8947 7.52344 10.6566 7.41211 10.3906C7.30078 10.1247 7.23893 9.8278 7.22656 9.5C7.22656 9.18457 7.28532 8.89079 7.40283 8.61865C7.52035 8.34652 7.68424 8.10531 7.89453 7.89502C8.10482 7.68473 8.34294 7.52393 8.60889 7.4126C8.87484 7.30127 9.17171 7.23942 9.49951 7.22705ZM9.49951 10.7896C9.67887 10.7896 9.84587 10.7555 10.0005 10.6875C10.1551 10.6195 10.2912 10.5298 10.4087 10.4185C10.5262 10.3071 10.619 10.1711 10.687 10.0103C10.755 9.84945 10.7891 9.67936 10.7891 9.5C10.7891 9.32064 10.755 9.15365 10.687 8.99902C10.619 8.8444 10.5293 8.70833 10.418 8.59082C10.3066 8.47331 10.1706 8.38053 10.0098 8.3125C9.84896 8.24447 9.67887 8.21045 9.49951 8.21045C9.32015 8.21045 9.15316 8.24447 8.99854 8.3125C8.84391 8.38053 8.70784 8.47021 8.59033 8.58154C8.47282 8.69287 8.38005 8.82894 8.31201 8.98975C8.24398 9.15055 8.20996 9.32064 8.20996 9.5C8.20996 9.67936 8.24398 9.84635 8.31201 10.001C8.38005 10.1556 8.46973 10.2917 8.58105 10.4092C8.69238 10.5267 8.82845 10.6195 8.98926 10.6875C9.15007 10.7555 9.32015 10.7896 9.49951 10.7896ZM16.1421 2.85742C16.5874 3.29655 16.9801 3.77279 17.3203 4.28613C17.6605 4.79948 17.9481 5.33757 18.1831 5.90039C18.4181 6.46322 18.5944 7.04769 18.7119 7.65381C18.8294 8.25993 18.8913 8.87533 18.8975 9.5C18.8975 10.1247 18.8387 10.7401 18.7212 11.3462C18.6037 11.9523 18.4243 12.5368 18.1831 13.0996C17.9419 13.6624 17.6543 14.2005 17.3203 14.7139C16.9863 15.2272 16.5936 15.7035 16.1421 16.1426L15.4463 15.4468C15.8421 15.0509 16.1916 14.6242 16.4946 14.1665C16.7977 13.7088 17.0544 13.2264 17.2646 12.7192C17.4749 12.2121 17.6327 11.6895 17.7378 11.1514C17.8429 10.6133 17.8986 10.0628 17.9048 9.5C17.9048 8.94336 17.8522 8.396 17.7471 7.85791C17.6419 7.31982 17.4842 6.79411 17.2739 6.28076C17.0636 5.76742 16.807 5.28499 16.5039 4.8335C16.2008 4.382 15.8483 3.95524 15.4463 3.55322L16.1421 2.85742ZM3.55273 3.55322C3.1569 3.94906 2.80745 4.37581 2.50439 4.8335C2.20133 5.29118 1.94157 5.7736 1.7251 6.28076C1.50863 6.78792 1.35091 7.31055 1.25195 7.84863C1.15299 8.38672 1.09733 8.93717 1.08496 9.5C1.08496 10.0566 1.13753 10.604 1.24268 11.1421C1.34782 11.6802 1.50863 12.2059 1.7251 12.7192C1.94157 13.2326 2.19824 13.715 2.49512 14.1665C2.79199 14.618 3.14453 15.0448 3.55273 15.4468L2.85693 16.1426C2.41162 15.7035 2.01888 15.2272 1.67871 14.7139C1.33854 14.2005 1.05094 13.6624 0.815918 13.0996C0.580892 12.5368 0.404622 11.9523 0.287109 11.3462C0.169596 10.7401 0.107747 10.1247 0.101562 9.5C0.101562 8.87533 0.160319 8.25993 0.277832 7.65381C0.395345 7.04769 0.574707 6.46322 0.815918 5.90039C1.05713 5.33757 1.34473 4.79948 1.67871 4.28613C2.0127 3.77279 2.40544 3.29655 2.85693 2.85742L3.55273 3.55322ZM13.6279 5.37158C14.1784 5.92822 14.599 6.55908 14.8896 7.26416C15.1803 7.96924 15.3288 8.71452 15.335 9.5C15.335 10.2793 15.1896 11.0215 14.8989 11.7266C14.6082 12.4316 14.1846 13.0656 13.6279 13.6284L12.9321 12.9326C13.3898 12.4749 13.7393 11.9523 13.9805 11.3647C14.2217 10.7772 14.3454 10.1556 14.3516 9.5C14.3516 8.85059 14.231 8.2321 13.9897 7.64453C13.7485 7.05697 13.396 6.53125 12.9321 6.06738L13.6279 5.37158ZM6.06689 6.06738C5.60921 6.52507 5.25977 7.04769 5.01855 7.63525C4.77734 8.22282 4.65365 8.8444 4.64746 9.5C4.64746 10.1494 4.76807 10.7679 5.00928 11.3555C5.25049 11.943 5.60303 12.4688 6.06689 12.9326L5.37109 13.6284C4.82064 13.0718 4.40006 12.4409 4.10938 11.7358C3.81868 11.0308 3.67025 10.2855 3.66406 9.5C3.66406 8.7207 3.80941 7.97852 4.1001 7.27344C4.39079 6.56836 4.81445 5.93441 5.37109 5.37158L6.06689 6.06738Z" fill="white"/>
</svg>
