<svg width="20" height="20" viewBox="0 0 20 20" fill="none" xmlns="http://www.w3.org/2000/svg">
<path d="M20 6.54297V15.3125C20 15.6445 19.9284 15.944 19.7852 16.2109C19.6419 16.4779 19.4499 16.7057 19.209 16.8945C18.9681 17.0833 18.7012 17.2331 18.4082 17.3438C18.1152 17.4544 17.8125 17.5065 17.5 17.5C17.194 17.5 16.8913 17.4479 16.5918 17.3438C16.2923 17.2396 16.0254 17.0931 15.791 16.9043C15.5566 16.7155 15.3678 16.4844 15.2246 16.2109C15.0814 15.9375 15.0065 15.638 15 15.3125C15 14.9805 15.0716 14.681 15.2148 14.4141C15.3581 14.1471 15.5501 13.916 15.791 13.7207C16.0319 13.5254 16.2988 13.3789 16.5918 13.2812C16.8848 13.1836 17.1875 13.1315 17.5 13.125C17.9297 13.125 18.3464 13.2259 18.75 13.4277V8.14453L12.5 9.70703V16.5625C12.5 16.8945 12.4284 17.194 12.2852 17.4609C12.1419 17.7279 11.9499 17.9557 11.709 18.1445C11.4681 18.3333 11.2012 18.4831 10.9082 18.5938C10.6152 18.7044 10.3125 18.7565 10 18.75C9.69401 18.75 9.39128 18.6979 9.0918 18.5938C8.79232 18.4896 8.52539 18.3431 8.29102 18.1543C8.05664 17.9655 7.86784 17.7344 7.72461 17.4609C7.58138 17.1875 7.50651 16.888 7.5 16.5625C7.5 16.2305 7.57161 15.931 7.71484 15.6641C7.85807 15.3971 8.05013 15.166 8.29102 14.9707C8.5319 14.7754 8.79883 14.6289 9.0918 14.5312C9.38477 14.4336 9.6875 14.3815 10 14.375C10.4297 14.375 10.8464 14.4759 11.25 14.6777V8.73047L20 6.54297ZM10 17.5C10.1302 17.5 10.2669 17.4805 10.4102 17.4414C10.5534 17.4023 10.6901 17.3438 10.8203 17.2656C10.9505 17.1875 11.0514 17.0898 11.123 16.9727C11.1947 16.8555 11.237 16.7188 11.25 16.5625C11.25 16.4062 11.2109 16.2695 11.1328 16.1523C11.0547 16.0352 10.9505 15.9375 10.8203 15.8594C10.6901 15.7812 10.5566 15.7227 10.4199 15.6836C10.2832 15.6445 10.1432 15.625 10 15.625C9.86979 15.625 9.73307 15.6445 9.58984 15.6836C9.44661 15.7227 9.3099 15.7812 9.17969 15.8594C9.04948 15.9375 8.94857 16.0352 8.87695 16.1523C8.80534 16.2695 8.76302 16.4062 8.75 16.5625C8.75 16.7188 8.78906 16.8555 8.86719 16.9727C8.94531 17.0898 9.04948 17.1875 9.17969 17.2656C9.3099 17.3438 9.44336 17.4023 9.58008 17.4414C9.7168 17.4805 9.85677 17.5 10 17.5ZM17.5 16.25C17.6302 16.25 17.7669 16.2305 17.9102 16.1914C18.0534 16.1523 18.1901 16.0938 18.3203 16.0156C18.4505 15.9375 18.5514 15.8398 18.623 15.7227C18.6947 15.6055 18.737 15.4688 18.75 15.3125C18.75 15.1562 18.7109 15.0195 18.6328 14.9023C18.5547 14.7852 18.4505 14.6875 18.3203 14.6094C18.1901 14.5312 18.0566 14.4727 17.9199 14.4336C17.7832 14.3945 17.6432 14.375 17.5 14.375C17.3698 14.375 17.2331 14.3945 17.0898 14.4336C16.9466 14.4727 16.8099 14.5312 16.6797 14.6094C16.5495 14.6875 16.4486 14.7852 16.377 14.9023C16.3053 15.0195 16.263 15.1562 16.25 15.3125C16.25 15.4688 16.2891 15.6055 16.3672 15.7227C16.4453 15.8398 16.5495 15.9375 16.6797 16.0156C16.8099 16.0938 16.9434 16.1523 17.0801 16.1914C17.2168 16.2305 17.3568 16.25 17.5 16.25ZM3.75 6.25H2.5V5H3.75V6.25ZM2.5 7.5H3.75V8.75H2.5V7.5ZM11.25 5H12.5V6.25H11.25V5ZM10 12.5H0V1.25H15V6.25L13.75 6.5625V2.5H12.5V3.75H11.25V2.5H3.75V3.75H2.5V2.5H1.25V11.25H2.5V10H3.75V11.25H10V12.5Z" fill="#4BA9FE"/>
</svg>
