<svg width="7" height="4" viewBox="0 0 7 4" fill="none" xmlns="http://www.w3.org/2000/svg">
<g clip-path="url(#clip0_4386_10611)">
<path d="M3.5 3.50047C3.47131 3.50082 3.44287 3.49516 3.41649 3.48386C3.39012 3.47256 3.36641 3.45586 3.34687 3.43484L1.37812 1.46609C1.29063 1.37859 1.29063 1.24297 1.37812 1.15547C1.46562 1.06797 1.60125 1.06797 1.68875 1.15547L3.50437 2.97109L5.31562 1.15984C5.40312 1.07234 5.53875 1.07234 5.62625 1.15984C5.71375 1.24734 5.71375 1.38297 5.62625 1.47047L3.6575 3.43922C3.61375 3.48297 3.55687 3.50484 3.50437 3.50484L3.5 3.50047Z" fill="black"/>
</g>
<defs>
<clipPath id="clip0_4386_10611">
<rect width="7" height="3.0625" fill="white" transform="translate(0 0.65625)"/>
</clipPath>
</defs>
</svg>
