<svg width="63" height="60" viewBox="0 0 63 60" fill="none" xmlns="http://www.w3.org/2000/svg">
<path d="M1.46774 26.4065C1.14814 26.4065 0.841632 26.5335 0.615644 26.7594C0.389655 26.9854 0.262695 27.2919 0.262695 27.6115V32.4317C0.262695 32.7513 0.389655 33.0578 0.615644 33.2838C0.841632 33.5098 1.14814 33.6367 1.46774 33.6367C1.78733 33.6367 2.09384 33.5098 2.31983 33.2838C2.54582 33.0578 2.67277 32.7513 2.67277 32.4317V27.6115C2.67277 27.2919 2.54582 26.9854 2.31983 26.7594C2.09384 26.5335 1.78733 26.4065 1.46774 26.4065Z" fill="white"/>
<path d="M7.42184 22.7915C7.10224 22.7915 6.79573 22.9185 6.56975 23.1445C6.34376 23.3704 6.2168 23.6769 6.2168 23.9965V36.0469C6.2168 36.3665 6.34376 36.673 6.56975 36.899C6.79573 37.125 7.10224 37.252 7.42184 37.252C7.74143 37.252 8.04794 37.125 8.27393 36.899C8.49992 36.673 8.62688 36.3665 8.62688 36.0469V23.9965C8.62688 23.6769 8.49992 23.3704 8.27393 23.1445C8.04794 22.9185 7.74143 22.7915 7.42184 22.7915Z" fill="white"/>
<path d="M13.3764 17.9714C13.0568 17.9714 12.7503 18.0984 12.5243 18.3244C12.2983 18.5504 12.1714 18.8569 12.1714 19.1765V40.8672C12.1714 41.1868 12.2983 41.4933 12.5243 41.7193C12.7503 41.9453 13.0568 42.0722 13.3764 42.0722C13.696 42.0722 14.0025 41.9453 14.2285 41.7193C14.4545 41.4933 14.5815 41.1868 14.5815 40.8672V19.1765C14.5815 18.8569 14.4545 18.5504 14.2285 18.3244C14.0025 18.0984 13.696 17.9714 13.3764 17.9714Z" fill="white"/>
<path d="M19.3305 9.53589C19.0109 9.53589 18.7044 9.66285 18.4784 9.88884C18.2524 10.1148 18.1255 10.4213 18.1255 10.7409V49.3022C18.1255 49.6218 18.2524 49.9283 18.4784 50.1543C18.7044 50.3803 19.0109 50.5072 19.3305 50.5072C19.6501 50.5072 19.9566 50.3803 20.1826 50.1543C20.4086 49.9283 20.5356 49.6218 20.5356 49.3022V10.7409C20.5356 10.4213 20.4086 10.1148 20.1826 9.88884C19.9566 9.66285 19.6501 9.53589 19.3305 9.53589Z" fill="white"/>
<path d="M25.2851 13.1511C24.9655 13.1511 24.659 13.2781 24.433 13.5041C24.207 13.7301 24.0801 14.0366 24.0801 14.3562V45.6872C24.0801 46.0068 24.207 46.3133 24.433 46.5393C24.659 46.7653 24.9655 46.8922 25.2851 46.8922C25.6047 46.8922 25.9112 46.7653 26.1372 46.5393C26.3632 46.3133 26.4902 46.0068 26.4902 45.6872V14.3562C26.4902 14.0366 26.3632 13.7301 26.1372 13.5041C25.9112 13.2781 25.6047 13.1511 25.2851 13.1511Z" fill="white"/>
<path d="M31.2392 22.7915C30.9196 22.7915 30.6131 22.9185 30.3871 23.1445C30.1611 23.3704 30.0342 23.6769 30.0342 23.9965V36.0469C30.0342 36.3665 30.1611 36.673 30.3871 36.899C30.6131 37.125 30.9196 37.252 31.2392 37.252C31.5588 37.252 31.8653 37.125 32.0913 36.899C32.3173 36.673 32.4443 36.3665 32.4443 36.0469V23.9965C32.4443 23.6769 32.3173 23.3704 32.0913 23.1445C31.8653 22.9185 31.5588 22.7915 31.2392 22.7915Z" fill="white"/>
<path d="M37.1938 19.1763C36.8742 19.1763 36.5677 19.3032 36.3417 19.5292C36.1157 19.7552 35.9888 20.0617 35.9888 20.3813V39.6619C35.9888 39.9815 36.1157 40.288 36.3417 40.514C36.5677 40.74 36.8742 40.867 37.1938 40.867C37.5134 40.867 37.8199 40.74 38.0459 40.514C38.2719 40.288 38.3988 39.9815 38.3988 39.6619V20.3813C38.3988 20.0617 38.2719 19.7552 38.0459 19.5292C37.8199 19.3032 37.5134 19.1763 37.1938 19.1763Z" fill="white"/>
<path d="M43.1479 16.7661C42.8283 16.7661 42.5218 16.8931 42.2958 17.1191C42.0698 17.345 41.9429 17.6516 41.9429 17.9712V42.072C41.9429 42.3915 42.0698 42.6981 42.2958 42.924C42.5218 43.15 42.8283 43.277 43.1479 43.277C43.4675 43.277 43.774 43.15 44 42.924C44.226 42.6981 44.353 42.3915 44.353 42.072V17.9712C44.353 17.6516 44.226 17.345 44 17.1191C43.774 16.8931 43.4675 16.7661 43.1479 16.7661Z" fill="white"/>
<path d="M49.102 20.3813C48.7824 20.3813 48.4759 20.5083 48.2499 20.7343C48.0239 20.9603 47.897 21.2668 47.897 21.5864V38.4569C47.897 38.7765 48.0239 39.083 48.2499 39.309C48.4759 39.535 48.7824 39.662 49.102 39.662C49.4216 39.662 49.7281 39.535 49.9541 39.309C50.1801 39.083 50.3071 38.7765 50.3071 38.4569V21.5864C50.3071 21.2668 50.1801 20.9603 49.9541 20.7343C49.7281 20.5083 49.4216 20.3813 49.102 20.3813Z" fill="white"/>
<path d="M55.0566 23.9966C54.737 23.9966 54.4305 24.1235 54.2045 24.3495C53.9785 24.5755 53.8516 24.882 53.8516 25.2016V34.8419C53.8516 35.1615 53.9785 35.468 54.2045 35.694C54.4305 35.92 54.737 36.047 55.0566 36.047C55.3762 36.047 55.6827 35.92 55.9087 35.694C56.1347 35.468 56.2616 35.1615 56.2616 34.8419V25.2016C56.2616 24.882 56.1347 24.5755 55.9087 24.3495C55.6827 24.1235 55.3762 23.9966 55.0566 23.9966Z" fill="white"/>
<path d="M61.0107 26.4065C60.6911 26.4065 60.3846 26.5335 60.1586 26.7594C59.9326 26.9854 59.8057 27.2919 59.8057 27.6115V32.4317C59.8057 32.7513 59.9326 33.0578 60.1586 33.2838C60.3846 33.5098 60.6911 33.6367 61.0107 33.6367C61.3303 33.6367 61.6368 33.5098 61.8628 33.2838C62.0888 33.0578 62.2157 32.7513 62.2157 32.4317V27.6115C62.2157 27.2919 62.0888 26.9854 61.8628 26.7594C61.6368 26.5335 61.3303 26.4065 61.0107 26.4065Z" fill="white"/>
</svg>
