<svg width="75" height="60" viewBox="0 0 75 60" fill="none" xmlns="http://www.w3.org/2000/svg">
<path d="M2.06149 26.4065C1.74189 26.4065 1.43538 26.5335 1.20939 26.7594C0.983405 26.9854 0.856445 27.2919 0.856445 27.6115V32.4317C0.856445 32.7513 0.983405 33.0578 1.20939 33.2838C1.43538 33.5098 1.74189 33.6367 2.06149 33.6367C2.38108 33.6367 2.68759 33.5098 2.91358 33.2838C3.13957 33.0578 3.26652 32.7513 3.26652 32.4317V27.6115C3.26652 27.2919 3.13957 26.9854 2.91358 26.7594C2.68759 26.5335 2.38108 26.4065 2.06149 26.4065Z" fill="white"/>
<path d="M8.01559 23.9963C7.69599 23.9963 7.38948 24.1233 7.1635 24.3493C6.93751 24.5753 6.81055 24.8818 6.81055 25.2014V34.8417C6.81055 35.1613 6.93751 35.4678 7.1635 35.6938C7.38948 35.9198 7.69599 36.0467 8.01559 36.0467C8.33518 36.0467 8.64169 35.9198 8.86768 35.6938C9.09367 35.4678 9.22063 35.1613 9.22063 34.8417V25.2014C9.22063 24.8818 9.09367 24.5753 8.86768 24.3493C8.64169 24.1233 8.33518 23.9963 8.01559 23.9963Z" fill="white"/>
<path d="M13.9702 22.7915C13.6506 22.7915 13.3441 22.9185 13.1181 23.1445C12.8921 23.3704 12.7651 23.6769 12.7651 23.9965V36.0469C12.7651 36.3665 12.8921 36.673 13.1181 36.899C13.3441 37.125 13.6506 37.252 13.9702 37.252C14.2898 37.252 14.5963 37.125 14.8223 36.899C15.0483 36.673 15.1752 36.3665 15.1752 36.0469V23.9965C15.1752 23.6769 15.0483 23.3704 14.8223 23.1445C14.5963 22.9185 14.2898 22.7915 13.9702 22.7915Z" fill="white"/>
<path d="M19.9243 17.9712C19.6047 17.9712 19.2982 18.0981 19.0722 18.3241C18.8462 18.5501 18.7192 18.8566 18.7192 19.1762V40.8669C18.7192 41.1865 18.8462 41.493 19.0722 41.719C19.2982 41.945 19.6047 42.072 19.9243 42.072C20.2439 42.072 20.5504 41.945 20.7764 41.719C21.0024 41.493 21.1293 41.1865 21.1293 40.8669V19.1762C21.1293 18.8566 21.0024 18.5501 20.7764 18.3241C20.5504 18.0981 20.2439 17.9712 19.9243 17.9712Z" fill="white"/>
<path d="M25.8789 9.53589C25.5593 9.53589 25.2528 9.66285 25.0268 9.88884C24.8008 10.1148 24.6738 10.4213 24.6738 10.7409V49.3022C24.6738 49.6218 24.8008 49.9283 25.0268 50.1543C25.2528 50.3803 25.5593 50.5072 25.8789 50.5072C26.1985 50.5072 26.505 50.3803 26.731 50.1543C26.9569 49.9283 27.0839 49.6218 27.0839 49.3022V10.7409C27.0839 10.4213 26.9569 10.1148 26.731 9.88884C26.505 9.66285 26.1985 9.53589 25.8789 9.53589Z" fill="white"/>
<path d="M31.833 13.1509C31.5134 13.1509 31.2069 13.2778 30.9809 13.5038C30.7549 13.7298 30.6279 14.0363 30.6279 14.3559V45.687C30.6279 46.0065 30.7549 46.3131 30.9809 46.539C31.2069 46.765 31.5134 46.892 31.833 46.892C32.1526 46.892 32.4591 46.765 32.6851 46.539C32.9111 46.3131 33.038 46.0065 33.038 45.687V14.3559C33.038 14.0363 32.9111 13.7298 32.6851 13.5038C32.4591 13.2778 32.1526 13.1509 31.833 13.1509Z" fill="white"/>
<path d="M37.7876 19.1763C37.468 19.1763 37.1615 19.3032 36.9355 19.5292C36.7095 19.7552 36.5825 20.0617 36.5825 20.3813V39.6619C36.5825 39.9815 36.7095 40.288 36.9355 40.514C37.1615 40.74 37.468 40.867 37.7876 40.867C38.1072 40.867 38.4137 40.74 38.6397 40.514C38.8656 40.288 38.9926 39.9815 38.9926 39.6619V20.3813C38.9926 20.0617 38.8656 19.7552 38.6397 19.5292C38.4137 19.3032 38.1072 19.1763 37.7876 19.1763Z" fill="white"/>
<path d="M43.7417 22.7915C43.4221 22.7915 43.1156 22.9185 42.8896 23.1445C42.6636 23.3704 42.5366 23.6769 42.5366 23.9965V36.0469C42.5366 36.3665 42.6636 36.673 42.8896 36.899C43.1156 37.125 43.4221 37.252 43.7417 37.252C44.0613 37.252 44.3678 37.125 44.5938 36.899C44.8197 36.673 44.9467 36.3665 44.9467 36.0469V23.9965C44.9467 23.6769 44.8197 23.3704 44.5938 23.1445C44.3678 22.9185 44.0613 22.7915 43.7417 22.7915Z" fill="white"/>
<path d="M49.6958 19.1763C49.3762 19.1763 49.0697 19.3032 48.8437 19.5292C48.6177 19.7552 48.4907 20.0617 48.4907 20.3813V39.6619C48.4907 39.9815 48.6177 40.288 48.8437 40.514C49.0697 40.74 49.3762 40.867 49.6958 40.867C50.0154 40.867 50.3219 40.74 50.5479 40.514C50.7738 40.288 50.9008 39.9815 50.9008 39.6619V20.3813C50.9008 20.0617 50.7738 19.7552 50.5479 19.5292C50.3219 19.3032 50.0154 19.1763 49.6958 19.1763Z" fill="white"/>
<path d="M55.6504 16.7664C55.3308 16.7664 55.0242 16.8933 54.7983 17.1193C54.5723 17.3453 54.4453 17.6518 54.4453 17.9714V42.0722C54.4453 42.3918 54.5723 42.6983 54.7983 42.9243C55.0242 43.1503 55.3308 43.2772 55.6504 43.2772C55.9699 43.2772 56.2765 43.1503 56.5024 42.9243C56.7284 42.6983 56.8554 42.3918 56.8554 42.0722V17.9714C56.8554 17.6518 56.7284 17.3453 56.5024 17.1193C56.2765 16.8933 55.9699 16.7664 55.6504 16.7664Z" fill="white"/>
<path d="M61.6045 20.3813C61.2849 20.3813 60.9783 20.5083 60.7524 20.7343C60.5264 20.9603 60.3994 21.2668 60.3994 21.5864V38.4569C60.3994 38.7765 60.5264 39.083 60.7524 39.309C60.9783 39.535 61.2849 39.662 61.6045 39.662C61.9241 39.662 62.2306 39.535 62.4565 39.309C62.6825 39.083 62.8095 38.7765 62.8095 38.4569V21.5864C62.8095 21.2668 62.6825 20.9603 62.4565 20.7343C62.2306 20.5083 61.9241 20.3813 61.6045 20.3813Z" fill="white"/>
<path d="M67.559 23.9963C67.2394 23.9963 66.9329 24.1233 66.707 24.3493C66.481 24.5753 66.354 24.8818 66.354 25.2014V34.8417C66.354 35.1613 66.481 35.4678 66.707 35.6938C66.9329 35.9198 67.2394 36.0467 67.559 36.0467C67.8786 36.0467 68.1851 35.9198 68.4111 35.6938C68.6371 35.4678 68.7641 35.1613 68.7641 34.8417V25.2014C68.7641 24.8818 68.6371 24.5753 68.4111 24.3493C68.1851 24.1233 67.8786 23.9963 67.559 23.9963Z" fill="white"/>
<path d="M73.5131 26.4065C73.1935 26.4065 72.887 26.5335 72.6611 26.7594C72.4351 26.9854 72.3081 27.2919 72.3081 27.6115V32.4317C72.3081 32.7513 72.4351 33.0578 72.6611 33.2838C72.887 33.5098 73.1935 33.6367 73.5131 33.6367C73.8327 33.6367 74.1392 33.5098 74.3652 33.2838C74.5912 33.0578 74.7182 32.7513 74.7182 32.4317V27.6115C74.7182 27.2919 74.5912 26.9854 74.3652 26.7594C74.1392 26.5335 73.8327 26.4065 73.5131 26.4065Z" fill="white"/>
</svg>
