<svg width="63" height="60" viewBox="0 0 63 60" fill="none" xmlns="http://www.w3.org/2000/svg">
<path d="M1.56441 26.4065C1.24482 26.4065 0.938312 26.5335 0.712323 26.7594C0.486334 26.9854 0.359375 27.2919 0.359375 27.6115V32.4317C0.359375 32.7513 0.486334 33.0578 0.712323 33.2838C0.938312 33.5098 1.24482 33.6367 1.56441 33.6367C1.88401 33.6367 2.19052 33.5098 2.41651 33.2838C2.6425 33.0578 2.76945 32.7513 2.76945 32.4317V27.6115C2.76945 27.2919 2.6425 26.9854 2.41651 26.7594C2.19052 26.5335 1.88401 26.4065 1.56441 26.4065Z" fill="white"/>
<path d="M7.51852 22.7915C7.19892 22.7915 6.89241 22.9185 6.66642 23.1445C6.44044 23.3704 6.31348 23.6769 6.31348 23.9965V36.0469C6.31348 36.3665 6.44044 36.673 6.66642 36.899C6.89241 37.125 7.19892 37.252 7.51852 37.252C7.83811 37.252 8.14462 37.125 8.37061 36.899C8.5966 36.673 8.72356 36.3665 8.72356 36.0469V23.9965C8.72356 23.6769 8.5966 23.3704 8.37061 23.1445C8.14462 22.9185 7.83811 22.7915 7.51852 22.7915Z" fill="white"/>
<path d="M13.4731 17.9712C13.1535 17.9712 12.847 18.0981 12.621 18.3241C12.395 18.5501 12.2681 18.8566 12.2681 19.1762V40.8669C12.2681 41.1865 12.395 41.493 12.621 41.719C12.847 41.945 13.1535 42.072 13.4731 42.072C13.7927 42.072 14.0992 41.945 14.3252 41.719C14.5512 41.493 14.6781 41.1865 14.6781 40.8669V19.1762C14.6781 18.8566 14.5512 18.5501 14.3252 18.3241C14.0992 18.0981 13.7927 17.9712 13.4731 17.9712Z" fill="white"/>
<path d="M19.4272 9.53589C19.1076 9.53589 18.8011 9.66285 18.5751 9.88884C18.3491 10.1148 18.2222 10.4213 18.2222 10.7409V49.3022C18.2222 49.6218 18.3491 49.9283 18.5751 50.1543C18.8011 50.3803 19.1076 50.5072 19.4272 50.5072C19.7468 50.5072 20.0533 50.3803 20.2793 50.1543C20.5053 49.9283 20.6322 49.6218 20.6322 49.3022V10.7409C20.6322 10.4213 20.5053 10.1148 20.2793 9.88884C20.0533 9.66285 19.7468 9.53589 19.4272 9.53589Z" fill="white"/>
<path d="M25.3813 13.1509C25.0617 13.1509 24.7552 13.2778 24.5292 13.5038C24.3032 13.7298 24.1763 14.0363 24.1763 14.3559V45.687C24.1763 46.0065 24.3032 46.3131 24.5292 46.539C24.7552 46.765 25.0617 46.892 25.3813 46.892C25.7009 46.892 26.0074 46.765 26.2334 46.539C26.4594 46.3131 26.5863 46.0065 26.5863 45.687V14.3559C26.5863 14.0363 26.4594 13.7298 26.2334 13.5038C26.0074 13.2778 25.7009 13.1509 25.3813 13.1509Z" fill="white"/>
<path d="M31.3359 22.7915C31.0163 22.7915 30.7098 22.9185 30.4838 23.1445C30.2578 23.3704 30.1309 23.6769 30.1309 23.9965V36.0469C30.1309 36.3665 30.2578 36.673 30.4838 36.899C30.7098 37.125 31.0163 37.252 31.3359 37.252C31.6555 37.252 31.962 37.125 32.188 36.899C32.414 36.673 32.5409 36.3665 32.5409 36.0469V23.9965C32.5409 23.6769 32.414 23.3704 32.188 23.1445C31.962 22.9185 31.6555 22.7915 31.3359 22.7915Z" fill="white"/>
<path d="M37.2905 19.1763C36.9709 19.1763 36.6644 19.3032 36.4384 19.5292C36.2124 19.7552 36.0854 20.0617 36.0854 20.3813V39.6619C36.0854 39.9815 36.2124 40.288 36.4384 40.514C36.6644 40.74 36.9709 40.867 37.2905 40.867C37.6101 40.867 37.9166 40.74 38.1426 40.514C38.3686 40.288 38.4955 39.9815 38.4955 39.6619V20.3813C38.4955 20.0617 38.3686 19.7552 38.1426 19.5292C37.9166 19.3032 37.6101 19.1763 37.2905 19.1763Z" fill="white"/>
<path d="M43.2446 16.7661C42.925 16.7661 42.6185 16.8931 42.3925 17.1191C42.1665 17.345 42.0396 17.6516 42.0396 17.9712V42.072C42.0396 42.3915 42.1665 42.6981 42.3925 42.924C42.6185 43.15 42.925 43.277 43.2446 43.277C43.5642 43.277 43.8707 43.15 44.0967 42.924C44.3227 42.6981 44.4496 42.3915 44.4496 42.072V17.9712C44.4496 17.6516 44.3227 17.345 44.0967 17.1191C43.8707 16.8931 43.5642 16.7661 43.2446 16.7661Z" fill="white"/>
<path d="M49.1987 20.3813C48.8791 20.3813 48.5726 20.5083 48.3466 20.7343C48.1206 20.9603 47.9937 21.2668 47.9937 21.5864V38.4569C47.9937 38.7765 48.1206 39.083 48.3466 39.309C48.5726 39.535 48.8791 39.662 49.1987 39.662C49.5183 39.662 49.8248 39.535 50.0508 39.309C50.2768 39.083 50.4037 38.7765 50.4037 38.4569V21.5864C50.4037 21.2668 50.2768 20.9603 50.0508 20.7343C49.8248 20.5083 49.5183 20.3813 49.1987 20.3813Z" fill="white"/>
<path d="M55.1533 23.9966C54.8337 23.9966 54.5272 24.1235 54.3012 24.3495C54.0752 24.5755 53.9482 24.882 53.9482 25.2016V34.8419C53.9482 35.1615 54.0752 35.468 54.3012 35.694C54.5272 35.92 54.8337 36.047 55.1533 36.047C55.4729 36.047 55.7794 35.92 56.0054 35.694C56.2314 35.468 56.3583 35.1615 56.3583 34.8419V25.2016C56.3583 24.882 56.2314 24.5755 56.0054 24.3495C55.7794 24.1235 55.4729 23.9966 55.1533 23.9966Z" fill="white"/>
<path d="M61.1074 26.4065C60.7878 26.4065 60.4813 26.5335 60.2553 26.7594C60.0293 26.9854 59.9023 27.2919 59.9023 27.6115V32.4317C59.9023 32.7513 60.0293 33.0578 60.2553 33.2838C60.4813 33.5098 60.7878 33.6367 61.1074 33.6367C61.427 33.6367 61.7335 33.5098 61.9595 33.2838C62.1855 33.0578 62.3124 32.7513 62.3124 32.4317V27.6115C62.3124 27.2919 62.1855 26.9854 61.9595 26.7594C61.7335 26.5335 61.427 26.4065 61.1074 26.4065Z" fill="white"/>
</svg>
