<svg width="8" height="8" viewBox="0 0 8 8" fill="none" xmlns="http://www.w3.org/2000/svg">
<mask id="mask0_4294_6292" style="mask-type:alpha" maskUnits="userSpaceOnUse" x="0" y="0" width="8" height="8">
<rect x="0.996094" y="0.0673828" width="6.52775" height="6.52775" transform="rotate(7.95999 0.996094 0.0673828)" fill="#D9D9D9"/>
</mask>
<g mask="url(#mask0_4294_6292)">
<path d="M1.16682 5.72136L1.34428 4.45223L1.74833 4.50873L1.62737 5.37381L2.49244 5.49477L2.43595 5.89882L1.16682 5.72136ZM4.47951 6.18457L4.53601 5.78052L5.40109 5.90148L5.52205 5.0364L5.92611 5.0929L5.74864 6.36203L4.47951 6.18457ZM1.62967 2.41122L1.80713 1.14209L3.07626 1.31955L3.01976 1.7236L2.15468 1.60264L2.03372 2.46772L1.62967 2.41122ZM5.80744 2.99539L5.92841 2.13032L5.06333 2.00935L5.11983 1.6053L6.38896 1.78276L6.2115 3.05189L5.80744 2.99539Z" fill="white"/>
</g>
</svg>
