<svg width="21" height="21" viewBox="0 0 21 21" fill="none" xmlns="http://www.w3.org/2000/svg">
<path d="M20.2398 10.3798C20.2398 4.93469 15.8257 0.520601 10.3806 0.520601C4.93557 0.520601 0.521484 4.93469 0.521484 10.3798C0.521484 15.3007 4.12683 19.3795 8.84015 20.1191V13.2297H6.33685V10.3798H8.84015V8.20766C8.84015 5.73671 10.312 4.37183 12.5641 4.37183C13.6428 4.37183 14.771 4.5644 14.771 4.5644V6.99067H13.5278C12.3031 6.99067 11.9211 7.75066 11.9211 8.53034V10.3798H14.6555L14.2184 13.2297H11.9211V20.1191C16.6344 19.3795 20.2398 15.3007 20.2398 10.3798Z" fill="#1877F2"/>
<path d="M14.218 13.23L14.6551 10.3801H11.9207V8.53068C11.9207 7.751 12.3027 6.99102 13.5274 6.99102H14.7706V4.56474C14.7706 4.56474 13.6423 4.37218 12.5637 4.37218C10.3116 4.37218 8.83973 5.73706 8.83973 8.20801V10.3801H6.33643V13.23H8.83973V20.1195C9.34168 20.1982 9.85614 20.2393 10.3802 20.2393C10.9043 20.2393 11.4188 20.1982 11.9207 20.1195V13.23H14.218Z" fill="white"/>
</svg>
