<svg width="17" height="12" viewBox="0 0 17 12" fill="none" xmlns="http://www.w3.org/2000/svg">
<path d="M16.178 2.36535C15.9937 1.67371 15.4508 1.12908 14.7612 0.944234C13.5115 0.608306 8.50012 0.608306 8.50012 0.608306C8.50012 0.608306 3.48877 0.608306 2.23901 0.944234C1.54951 1.12908 1.00646 1.67371 0.82218 2.36535C0.487305 3.61889 0.487305 6.23433 0.487305 6.23433C0.487305 6.23433 0.487305 8.84973 0.82218 10.1034C1.00646 10.7949 1.54951 11.3396 2.23901 11.5245C3.48877 11.8604 8.50012 11.8604 8.50012 11.8604C8.50012 11.8604 13.5115 11.8604 14.7612 11.5245C15.4508 11.3396 15.9937 10.7949 16.178 10.1034C16.5129 8.84973 16.5129 6.23433 16.5129 6.23433C16.5129 6.23433 16.5129 3.61889 16.178 2.36535Z" fill="#ED1D24"/>
<path d="M6.86133 8.6084L11.0498 6.2339L6.86133 3.85917V8.6084Z" fill="white"/>
</svg>
