<svg width="21" height="22" viewBox="0 0 21 22" fill="none" xmlns="http://www.w3.org/2000/svg">
<mask id="mask0_4240_5727" style="mask-type:alpha" maskUnits="userSpaceOnUse" x="0" y="0" width="21" height="22">
<rect y="0.579102" width="20.8414" height="20.8414" fill="#D9D9D9"/>
</mask>
<g mask="url(#mask0_4240_5727)">
<path d="M11.7852 19.2495C11.3465 19.2495 10.9318 19.1571 10.541 18.9723C10.1502 18.7875 9.8234 18.522 9.56057 18.1758L5.13698 12.4459L5.45763 12.1037C5.67458 11.8722 5.93423 11.733 6.23658 11.6863C6.53878 11.6394 6.8218 11.6967 7.08565 11.8582L9.2017 12.9938V4.26976C9.2017 4.08523 9.26415 3.93058 9.38906 3.80582C9.51382 3.68092 9.66854 3.61847 9.85321 3.61847C10.0377 3.61847 10.1946 3.68092 10.3239 3.80582C10.453 3.93058 10.5175 4.08523 10.5175 4.26976V15.2933L7.91062 13.8737L10.6194 17.4042C10.7619 17.5923 10.9356 17.7298 11.1404 17.8167C11.3453 17.9035 11.5603 17.9469 11.7852 17.9469H16.0568C16.6013 17.9469 17.0644 17.7574 17.4462 17.3784C17.8282 16.9992 18.0191 16.5374 18.0191 15.9931V9.78058C18.0191 9.59619 18.0816 9.44154 18.2065 9.31664C18.3314 9.19188 18.4861 9.1295 18.6707 9.1295C18.8553 9.1295 19.01 9.19188 19.1346 9.31664C19.2593 9.44154 19.3217 9.59619 19.3217 9.78058V15.9931C19.3217 16.8926 19.002 17.6602 18.3626 18.296C17.7233 18.9317 16.9547 19.2495 16.0568 19.2495H11.7852ZM12.1408 11.9518V7.32585C12.1408 7.14132 12.2032 6.9866 12.3281 6.86169C12.453 6.73693 12.6078 6.67455 12.7923 6.67455C12.977 6.67455 13.1316 6.73693 13.2562 6.86169C13.381 6.9866 13.4434 7.14132 13.4434 7.32585V11.9518H12.1408ZM15.0798 11.9518V8.32776C15.0798 8.14322 15.1423 7.98858 15.2672 7.86382C15.3921 7.73891 15.5469 7.67646 15.7316 7.67646C15.9161 7.67646 16.0708 7.73891 16.1955 7.86382C16.3201 7.98858 16.3824 8.14322 16.3824 8.32776V11.9518H15.0798ZM4.07472 9.07088C3.29099 9.07088 2.62472 8.8024 2.07589 8.26545C1.52693 7.72849 1.25244 7.07069 1.25244 6.29203C1.25244 5.71426 1.42778 5.19489 1.77847 4.73392C2.1293 4.27309 2.49171 3.82225 2.8657 3.38139L4.07472 2.00195L5.27549 3.39464C5.64962 3.83549 6.0134 4.28373 6.36684 4.73934C6.72027 5.19481 6.89699 5.71238 6.89699 6.29203C6.89699 7.07069 6.62258 7.72849 6.07375 8.26545C5.52493 8.8024 4.85858 9.07088 4.07472 9.07088ZM4.07472 7.76829C4.49227 7.76829 4.84997 7.62407 5.14783 7.33562C5.44554 7.04717 5.5944 6.6993 5.5944 6.29203C5.5944 5.87346 5.45358 5.5078 5.17193 5.19503C4.89028 4.88212 4.60805 4.57261 4.32525 4.2665L4.06647 3.99079L3.82418 4.2665C3.54731 4.58231 3.2666 4.89421 2.98206 5.2022C2.69737 5.51019 2.55503 5.87346 2.55503 6.29203C2.55503 6.6993 2.70396 7.04717 3.00182 7.33562C3.29968 7.62407 3.65731 7.76829 4.07472 7.76829Z" fill="#1C1B1F"/>
</g>
</svg>
