<svg width="59" height="11" viewBox="0 0 59 11" fill="none" xmlns="http://www.w3.org/2000/svg">
<g clip-path="url(#clip0_4294_6147)">
<path fill-rule="evenodd" clip-rule="evenodd" d="M19.6769 8.79018C17.6292 8.79018 15.9111 7.10823 15.9111 5.04354C15.9111 2.97884 17.6292 1.29688 19.6769 1.29688C20.8056 1.29688 21.6147 1.74003 22.2239 2.32419L21.5048 3.04934C21.0653 2.63641 20.4859 2.31411 19.6769 2.31411C18.1786 2.31411 17.0099 3.53278 17.0099 5.03346C17.0099 6.54422 18.1786 7.75282 19.6769 7.75282C20.6458 7.75282 21.1951 7.36 21.5547 7.00749C21.8444 6.71546 22.0342 6.2924 22.1041 5.71834H19.6769V4.69103H23.093C23.1329 4.87232 23.1429 5.09389 23.1429 5.32554C23.1429 6.09097 22.9332 7.03773 22.2639 7.72258C21.6147 8.4276 20.7856 8.79018 19.6769 8.79018ZM50.6328 8.63804V2.83678H52.4605V2.02098H47.9558V2.83678H49.7937V8.63804H50.6328ZM55.3185 8.64994H56.1973L58.5944 2.03285H57.6559L55.788 7.40102H55.748L53.95 2.03285H53.011L55.3185 8.64994ZM26.0704 8.78795C27.3689 8.78795 28.4277 7.7707 28.4277 6.38083C28.4277 4.98084 27.3689 3.97368 26.0704 3.97368C24.7718 3.97368 23.713 4.98084 23.713 6.38083C23.713 7.76062 24.7718 8.78795 26.0704 8.78795ZM26.0704 4.92042C26.7895 4.92042 27.3989 5.51464 27.3989 6.38083C27.3989 7.23687 26.7795 7.8412 26.0704 7.8412C25.3512 7.8412 24.7419 7.23687 24.7419 6.38083C24.7419 5.51464 25.3612 4.92042 26.0704 4.92042ZM33.7113 6.38088C33.7113 7.77075 32.6525 8.788 31.354 8.788C30.0555 8.788 28.9966 7.76072 28.9966 6.38088C28.9966 4.98092 30.0555 3.97375 31.354 3.97375C32.6525 3.96368 33.7113 4.98092 33.7113 6.38088ZM32.6825 6.38088C32.6825 5.51471 32.0732 4.92049 31.354 4.92049C30.6448 4.92049 30.0255 5.51471 30.0255 6.38088C30.0255 7.23697 30.6348 7.84125 31.354 7.84125C32.0632 7.84125 32.6825 7.23697 32.6825 6.38088ZM38.8655 8.44548V4.11468H37.8766V4.50748H37.8366C37.5969 4.22547 37.1474 3.97368 36.5781 3.97368C35.3894 3.97368 34.2907 5.0312 34.2907 6.39086C34.2907 7.74046 35.3794 8.78795 36.5781 8.78795C37.1474 8.78795 37.5969 8.53613 37.8366 8.24405H37.8766V8.58648C37.8766 9.51307 37.3872 10.0066 36.598 10.0066C35.9488 10.0066 35.5492 9.54331 35.3894 9.15054L34.4705 9.53323C34.7301 10.1677 35.4294 10.9533 36.588 10.9533C37.8266 10.9533 38.8655 10.2282 38.8655 8.44548ZM36.658 4.92042C37.3771 4.92042 37.9365 5.54485 37.9365 6.39086C37.9365 7.22684 37.3771 7.8412 36.658 7.8412C35.9388 7.8412 35.3295 7.22684 35.3295 6.39086C35.3295 5.54485 35.9288 4.92042 36.658 4.92042ZM40.7032 1.55605V8.6465H39.6544V1.55605H40.7032ZM45.6577 7.72035L44.8386 7.17645C44.5589 7.57935 44.1994 7.8412 43.6699 7.8412C43.1405 7.8412 42.751 7.58943 42.5113 7.10595L45.7076 5.77651L45.5977 5.50457C45.398 4.97077 44.7886 3.97368 43.5501 3.97368C42.3215 3.97368 41.3326 4.95063 41.3326 6.38083C41.3326 7.73043 42.3115 8.78795 43.6699 8.78795C44.7587 8.78795 45.398 8.11313 45.6577 7.72035ZM44.459 5.41393L42.3215 6.31033C42.3015 5.37364 43.0406 4.90027 43.5701 4.90027C43.9896 4.90027 44.3392 5.11178 44.459 5.41393Z" fill="black"/>
<path d="M10.3757 0.824219H3.58343C2.9941 0.824219 2.51465 1.30766 2.51465 1.90189V2.97956H10.7952C11.3846 2.97956 11.864 3.463 11.864 4.05722V2.3249C11.864 1.48895 11.1948 0.824219 10.3757 0.824219Z" fill="#4285F4"/>
<path d="M1.86575 0.824219C1.04668 0.824219 0.377441 1.49902 0.377441 2.3249V6.04132C0.377441 6.63557 0.856895 7.119 1.44623 7.119H2.51501V1.90189C2.51501 1.30766 2.99446 0.824219 3.58379 0.824219H1.86575Z" fill="#34A853"/>
<path d="M1.86575 9.27307H8.65801C9.24735 9.27307 9.72683 8.78964 9.72683 8.1954V7.11772H1.44623C0.856895 7.11772 0.377441 6.63429 0.377441 6.04004V7.78247C0.377441 8.59825 1.03669 9.27307 1.86575 9.27307Z" fill="#FBBC04"/>
<path d="M10.3752 9.27671C11.1943 9.27671 11.8636 8.60193 11.8636 7.77602V4.0596C11.8636 3.46537 11.3841 2.98193 10.7948 2.98193H9.72599V8.19908C9.72599 8.79328 9.24656 9.27671 8.65723 9.27671H10.3752Z" fill="#EA4335"/>
</g>
<defs>
<clipPath id="clip0_4294_6147">
<rect width="58.2447" height="10.1295" fill="white" transform="translate(0.377441 0.824219)"/>
</clipPath>
</defs>
</svg>
