<svg width="13" height="13" viewBox="0 0 13 13" fill="none" xmlns="http://www.w3.org/2000/svg">
<path d="M10.7188 5.06875V4.62813C10.7188 2.21 8.82879 0.25 6.50004 0.25C4.17129 0.25 2.28129 2.21 2.28129 4.62813V5.06875C2.28204 5.59472 2.13194 6.10988 1.84879 6.55313L1.15629 7.63125C0.524414 8.61563 1.00691 9.95375 2.10629 10.265C4.97897 11.0785 8.02111 11.0785 10.8938 10.265C11.9932 9.95375 12.4757 8.61562 11.8438 7.63187L11.1513 6.55375C10.8679 6.11057 10.7176 5.59541 10.7182 5.06938L10.7188 5.06875Z" stroke="black" stroke-width="0.9375"/>
<path d="M3.6875 10.875C4.09687 11.9675 5.20125 12.75 6.5 12.75C7.79875 12.75 8.90313 11.9675 9.3125 10.875" stroke="black" stroke-width="0.9375" stroke-linecap="round"/>
</svg>
