<svg width="19" height="19" viewBox="0 0 19 19" fill="none" xmlns="http://www.w3.org/2000/svg">
<path d="M14.5469 0H4.45312C1.99373 0 0 1.99373 0 4.45312V14.5469C0 17.0063 1.99373 19 4.45312 19H14.5469C17.0063 19 19 17.0063 19 14.5469V4.45312C19 1.99373 17.0063 0 14.5469 0Z" fill="url(#paint0_radial_4220_7289)"/>
<path d="M14.5469 0H4.45312C1.99373 0 0 1.99373 0 4.45312V14.5469C0 17.0063 1.99373 19 4.45312 19H14.5469C17.0063 19 19 17.0063 19 14.5469V4.45312C19 1.99373 17.0063 0 14.5469 0Z" fill="url(#paint1_radial_4220_7289)"/>
<path d="M9.50067 2.07812C7.48504 2.07812 7.23202 2.08696 6.44041 2.12295C5.65027 2.15917 5.11093 2.28423 4.63904 2.46777C4.15083 2.65733 3.73677 2.91093 3.32426 3.32359C2.91138 3.73617 2.65777 4.15024 2.46763 4.63823C2.28356 5.11026 2.15836 5.64983 2.1228 6.43959C2.0874 7.23128 2.07812 7.48437 2.07812 9.50007C2.07812 11.5158 2.08703 11.768 2.12295 12.5596C2.15932 13.3497 2.28438 13.8891 2.46777 14.361C2.65748 14.8492 2.91108 15.2632 3.32374 15.6757C3.73617 16.0886 4.15024 16.3428 4.63808 16.5324C5.11033 16.7159 5.64975 16.841 6.43974 16.8772C7.23143 16.9132 7.48422 16.922 9.49978 16.922C11.5156 16.922 11.7678 16.9132 12.5594 16.8772C13.3496 16.841 13.8895 16.7159 14.3618 16.5324C14.8498 16.3428 15.2632 16.0886 15.6756 15.6757C16.0885 15.2632 16.342 14.8492 16.5322 14.3612C16.7147 13.8891 16.8399 13.3496 16.877 12.5597C16.9126 11.7681 16.9219 11.5158 16.9219 9.50007C16.9219 7.48437 16.9126 7.23143 16.877 6.43974C16.8399 5.64961 16.7147 5.11033 16.5322 4.63845C16.342 4.15024 16.0885 3.73617 15.6756 3.32359C15.2628 2.91079 14.8499 2.65718 14.3613 2.46785C13.8882 2.28423 13.3485 2.1591 12.5584 2.12295C11.7667 2.08696 11.5147 2.07812 9.49837 2.07812H9.50067ZM8.83485 3.41562C9.0325 3.41532 9.253 3.41562 9.50067 3.41562C11.4824 3.41562 11.7172 3.42275 12.4998 3.4583C13.2234 3.4914 13.6162 3.6123 13.8778 3.71391C14.2242 3.84839 14.4711 4.00922 14.7307 4.26906C14.9905 4.52883 15.1512 4.7762 15.2861 5.12258C15.3877 5.38383 15.5088 5.77659 15.5417 6.50023C15.5773 7.28264 15.585 7.51762 15.585 9.49837C15.585 11.4791 15.5773 11.7142 15.5417 12.4965C15.5086 13.2201 15.3877 13.6129 15.2861 13.8742C15.1516 14.2206 14.9905 14.4672 14.7307 14.7269C14.4709 14.9866 14.2243 15.1474 13.8778 15.2819C13.6165 15.384 13.2234 15.5046 12.4998 15.5377C11.7174 15.5732 11.4824 15.581 9.50067 15.581C7.51888 15.581 7.28398 15.5732 6.50164 15.5377C5.778 15.5043 5.38524 15.3834 5.12339 15.2818C4.77709 15.1472 4.52964 14.9865 4.26988 14.7267C4.01011 14.4669 3.84936 14.2202 3.7145 13.8736C3.61289 13.6123 3.49184 13.2195 3.45889 12.4959C3.42334 11.7135 3.41621 11.4785 3.41621 9.49651C3.41621 7.5145 3.42334 7.28079 3.45889 6.49837C3.49199 5.77474 3.61289 5.38197 3.7145 5.12035C3.84906 4.77397 4.01011 4.5266 4.26995 4.26684C4.52979 4.00707 4.77709 3.84624 5.12347 3.71146C5.38509 3.60941 5.778 3.4888 6.50164 3.45555C7.1863 3.4246 7.45164 3.41532 8.83485 3.41377V3.41562ZM13.4625 4.64795C12.9708 4.64795 12.5718 5.0465 12.5718 5.53828C12.5718 6.02998 12.9708 6.4289 13.4625 6.4289C13.9542 6.4289 14.3531 6.02998 14.3531 5.53828C14.3531 5.04658 13.9542 4.64765 13.4625 4.64765V4.64795ZM9.50067 5.68857C7.39582 5.68857 5.68924 7.39516 5.68924 9.50007C5.68924 11.605 7.39582 13.3108 9.50067 13.3108C11.6056 13.3108 13.3116 11.605 13.3116 9.50007C13.3116 7.39523 11.6054 5.68857 9.50052 5.68857H9.50067ZM9.50067 7.02607C10.867 7.02607 11.9747 8.13363 11.9747 9.50007C11.9747 10.8664 10.867 11.9741 9.50067 11.9741C8.13438 11.9741 7.02673 10.8664 7.02673 9.50007C7.02673 8.13363 8.1343 7.02607 9.50067 7.02607Z" fill="white"/>
<defs>
<radialGradient id="paint0_radial_4220_7289" cx="0" cy="0" r="1" gradientUnits="userSpaceOnUse" gradientTransform="translate(5.04687 20.4634) rotate(-90) scale(18.8304 17.5138)">
<stop stop-color="#FFDD55"/>
<stop offset="0.1" stop-color="#FFDD55"/>
<stop offset="0.5" stop-color="#FF543E"/>
<stop offset="1" stop-color="#C837AB"/>
</radialGradient>
<radialGradient id="paint1_radial_4220_7289" cx="0" cy="0" r="1" gradientUnits="userSpaceOnUse" gradientTransform="translate(-3.18257 1.36867) rotate(78.681) scale(8.4173 34.6964)">
<stop stop-color="#3771C8"/>
<stop offset="0.128" stop-color="#3771C8"/>
<stop offset="1" stop-color="#6600FF" stop-opacity="0"/>
</radialGradient>
</defs>
</svg>
