<svg width="18" height="22" viewBox="0 0 18 22" fill="none" xmlns="http://www.w3.org/2000/svg">
<path d="M4.83366 8.91634H13.167M4.83366 17.2497H13.167M4.83366 13.083H9.00033M0.666992 20.7913V1.20801C0.666992 1.04225 0.73284 0.883276 0.85005 0.766066C0.967261 0.648856 1.12623 0.583008 1.29199 0.583008H13.4295C13.5952 0.583154 13.7541 0.649098 13.8712 0.766341L17.1503 4.04551C17.2086 4.10374 17.2548 4.17292 17.2863 4.24908C17.3178 4.32523 17.3339 4.40686 17.3337 4.48926V20.7913C17.3337 20.8734 17.3175 20.9547 17.2861 21.0305C17.2547 21.1063 17.2086 21.1752 17.1506 21.2333C17.0926 21.2913 17.0237 21.3374 16.9478 21.3688C16.872 21.4002 16.7907 21.4163 16.7087 21.4163H1.29199C1.20992 21.4163 1.12864 21.4002 1.05282 21.3688C0.976987 21.3374 0.908087 21.2913 0.85005 21.2333C0.792014 21.1752 0.745977 21.1063 0.714568 21.0305C0.683158 20.9547 0.666992 20.8734 0.666992 20.7913Z" stroke="black" stroke-width="1.5" stroke-linecap="round" stroke-linejoin="round"/>
<path d="M13.167 0.583008V4.12467C13.167 4.29043 13.2328 4.44941 13.35 4.56662C13.4673 4.68383 13.6262 4.74967 13.792 4.74967H17.3337" stroke="black" stroke-width="1.5" stroke-linecap="round" stroke-linejoin="round"/>
</svg>
