<svg width="17" height="21" viewBox="0 0 17 21" fill="none" xmlns="http://www.w3.org/2000/svg">
<path d="M4.5 8.5H12.5M4.5 16.5H12.5M4.5 12.5H8.5M0.5 19.9V1.1C0.5 0.94087 0.563214 0.788258 0.675736 0.675736C0.788258 0.563214 0.94087 0.5 1.1 0.5H12.752C12.9111 0.50014 13.0636 0.563446 13.176 0.676L16.324 3.824C16.38 3.8799 16.4243 3.94632 16.4545 4.01943C16.4847 4.09254 16.5002 4.1709 16.5 4.25V19.9C16.5 19.9788 16.4845 20.0568 16.4543 20.1296C16.4242 20.2024 16.38 20.2685 16.3243 20.3243C16.2685 20.38 16.2024 20.4242 16.1296 20.4543C16.0568 20.4845 15.9788 20.5 15.9 20.5H1.1C1.02121 20.5 0.943185 20.4845 0.87039 20.4543C0.797595 20.4242 0.731451 20.38 0.675736 20.3243C0.620021 20.2685 0.575825 20.2024 0.545672 20.1296C0.51552 20.0568 0.5 19.9788 0.5 19.9Z" stroke="white" stroke-width="1.5" stroke-linecap="round" stroke-linejoin="round"/>
<path d="M12.5 0.5V3.9C12.5 4.05913 12.5632 4.21174 12.6757 4.32426C12.7883 4.43679 12.9409 4.5 13.1 4.5H16.5" stroke="white" stroke-width="1.5" stroke-linecap="round" stroke-linejoin="round"/>
</svg>
