<svg width="27" height="18" viewBox="0 0 27 18" fill="none" xmlns="http://www.w3.org/2000/svg">
<path d="M26.5721 13.709V3.78705C26.5721 2.42893 25.6044 1.26291 24.2694 1.01209C17.2177 -0.31307 9.98313 -0.337277 2.92263 0.941533L2.54615 1.00951C1.15506 1.26136 0.143555 2.47271 0.143555 3.88594V13.6138C0.143555 14.9693 1.10768 16.1333 2.43954 16.3861L2.81808 16.4577C9.94193 17.8092 17.2584 17.7839 24.3724 16.3836C25.6502 16.1322 26.5721 15.0115 26.5721 13.709Z" fill="#2A52C6"/>
<g clip-path="url(#clip0_4240_5779)">
<path d="M16.4707 7.37937C16.6296 7.46386 16.7625 7.58997 16.8551 7.74421C16.9478 7.89844 16.9968 8.07498 16.9968 8.25491C16.9968 8.43485 16.9478 8.61139 16.8551 8.76562C16.7625 8.91986 16.6296 9.04597 16.4707 9.13046L12.2329 11.4349C11.5506 11.8064 10.7124 11.3234 10.7124 10.5597V5.95046C10.7124 5.18639 11.5506 4.7038 12.2329 5.07459L16.4707 7.37937Z" fill="white"/>
</g>
<defs>
<clipPath id="clip0_4240_5779">
<rect width="7.93841" height="7.93841" fill="white" transform="translate(9.38867 4.28577)"/>
</clipPath>
</defs>
</svg>
