<svg width="34" height="35" viewBox="0 0 34 35" fill="none" xmlns="http://www.w3.org/2000/svg">
<path d="M25.8076 14.4012C27.0336 14.4012 28.2093 13.9142 29.0762 13.0474M25.8076 14.4012C24.5817 14.4012 23.4059 13.9142 22.5391 13.0474M25.8076 14.4012V17.8677M29.0762 13.0474C29.943 12.1805 30.43 11.0048 30.43 9.77881M29.0762 13.0474L31.5272 15.4984M30.43 9.77881C30.43 8.55287 29.943 7.37714 29.0762 6.51026M30.43 9.77881H33.8965M29.0762 6.51026C28.2093 5.64339 27.0336 5.15639 25.8076 5.15639M29.0762 6.51026L31.5272 4.05924M25.8076 5.15639C24.5817 5.15639 23.4059 5.64339 22.5391 6.51026M25.8076 5.15639V1.68994M22.5391 6.51026C21.6722 7.37714 21.1852 8.55287 21.1852 9.77881M22.5391 6.51026L20.0881 4.05924M21.1852 9.77881C21.1852 11.0048 21.6722 12.1805 22.5391 13.0474M21.1852 9.77881H17.7188M22.5391 13.0474L20.0881 15.4984M25.037 1.68994H26.5783M30.983 3.51508L32.0713 4.6034M33.8965 9.00816V10.5495M32.0713 14.9542L30.983 16.0425M26.5783 17.8677H25.037M20.6322 16.0425L19.5439 14.9542M17.7188 10.5495V9.00816M19.5439 4.6034L20.6322 3.51508M10.7329 21.9121L13.1934 20.0664C13.4445 19.8783 13.7314 19.7433 14.0364 19.6698C14.3414 19.5963 14.6583 19.5857 14.9675 19.6387C15.2768 19.6916 15.572 19.8071 15.8352 19.978C16.0983 20.1489 16.3239 20.3716 16.4981 20.6326C16.7504 21.0116 16.885 21.4568 16.885 21.9121C16.885 22.3674 16.7504 22.8126 16.4981 23.1916L14.0788 26.8198C13.3353 27.9343 12.2712 28.7969 11.0271 29.2936L7.42383 30.7363M11.8359 14.1909L6.54876 16.4573C4.98665 17.1264 3.74177 18.3707 3.07202 19.9325L1.341 23.9711C0.987596 24.7955 0.805464 25.6832 0.805664 26.5801V34.0454" stroke="black" stroke-width="2.20605" stroke-linecap="round" stroke-linejoin="round"/>
<path d="M33.8965 20.8091V30.7363C33.8965 31.614 33.5478 32.4556 32.9273 33.0762C32.3067 33.6968 31.465 34.0454 30.5874 34.0454H15.145C14.2674 34.0454 13.4257 33.6968 12.8051 33.0762C12.1846 32.4556 11.8359 31.614 11.8359 30.7363V28.9053M11.8359 21.0841V4.26367C11.8359 3.38605 12.1846 2.54437 12.8051 1.9238C13.4257 1.30322 14.2674 0.95459 15.145 0.95459H17.7188" stroke="black" stroke-width="2.20605" stroke-linecap="round" stroke-linejoin="round"/>
</svg>
