<svg width="56" height="56" viewBox="0 0 56 56" fill="none" xmlns="http://www.w3.org/2000/svg">
<g filter="url(#filter0_d_4220_6921)">
<path d="M27.5325 55.0649C42.7382 55.0649 55.0649 42.7382 55.0649 27.5325C55.0649 12.3267 42.7382 0 27.5325 0C12.3267 0 0 12.3267 0 27.5325C0 42.7382 12.3267 55.0649 27.5325 55.0649Z" fill="#2F2AC6"/>
<path d="M10.1582 34.5897L22.8987 20.9805L31.2959 33.4315L44.905 16.9268" stroke="white" stroke-width="1.94347" stroke-linecap="round"/>
<path d="M10.4488 36.3272C11.5682 36.3272 12.4757 35.4198 12.4757 34.3003C12.4757 33.1809 11.5682 32.2734 10.4488 32.2734C9.32935 32.2734 8.42188 33.1809 8.42188 34.3003C8.42188 35.4198 9.32935 36.3272 10.4488 36.3272Z" fill="white"/>
<path d="M44.6158 18.9537C45.7352 18.9537 46.6427 18.0462 46.6427 16.9268C46.6427 15.8074 45.7352 14.8999 44.6158 14.8999C43.4963 14.8999 42.5889 15.8074 42.5889 16.9268C42.5889 18.0462 43.4963 18.9537 44.6158 18.9537Z" fill="white"/>
<path d="M23.189 23.0074C24.3084 23.0074 25.2159 22.0999 25.2159 20.9805C25.2159 19.8611 24.3084 18.9536 23.189 18.9536C22.0696 18.9536 21.1621 19.8611 21.1621 20.9805C21.1621 22.0999 22.0696 23.0074 23.189 23.0074Z" fill="white"/>
<path d="M31.2964 35.169C32.4159 35.169 33.3233 34.2616 33.3233 33.1421C33.3233 32.0227 32.4159 31.1152 31.2964 31.1152C30.177 31.1152 29.2695 32.0227 29.2695 33.1421C29.2695 34.2616 30.177 35.169 31.2964 35.169Z" fill="white"/>
<path d="M32.0813 6.89365C32.1722 6.58298 32.6122 6.58298 32.703 6.89365L33.3685 9.16905C33.3995 9.27508 33.4824 9.358 33.5885 9.38902L35.8639 10.0544C36.1745 10.1453 36.1745 10.5854 35.8639 10.6762L33.5885 11.3416C33.4824 11.3727 33.3995 11.4556 33.3685 11.5616L32.703 13.837C32.6122 14.1477 32.1722 14.1477 32.0813 13.837L31.4158 11.5616C31.3849 11.4556 31.302 11.3727 31.1959 11.3416L28.9205 10.6762C28.6098 10.5854 28.6098 10.1453 28.9205 10.0544L31.1959 9.38902C31.302 9.358 31.3849 9.27508 31.4158 9.16905L32.0813 6.89365Z" fill="white"/>
<path d="M19.2132 39.6288C19.2781 39.4069 19.5925 39.4069 19.6574 39.6288L20.1326 41.2541C20.1548 41.3298 20.214 41.3891 20.2898 41.4112L21.9151 41.8866C22.137 41.9515 22.137 42.2658 21.9151 42.3307L20.2898 42.806C20.214 42.8281 20.1548 42.8873 20.1326 42.9631L19.6574 44.5884C19.5925 44.8103 19.2781 44.8103 19.2132 44.5884L18.7379 42.9631C18.7158 42.8873 18.6565 42.8281 18.5808 42.806L16.9555 42.3307C16.7336 42.2658 16.7336 41.9515 16.9555 41.8866L18.5808 41.4112C18.6565 41.3891 18.7158 41.3298 18.7379 41.2541L19.2132 39.6288Z" fill="white"/>
</g>
<defs>
<filter id="filter0_d_4220_6921" x="-46.7234" y="-47.3086" width="163.726" height="163.726" filterUnits="userSpaceOnUse" color-interpolation-filters="sRGB">
<feFlood flood-opacity="0" result="BackgroundImageFix"/>
<feColorMatrix in="SourceAlpha" type="matrix" values="0 0 0 0 0 0 0 0 0 0 0 0 0 0 0 0 0 0 127 0" result="hardAlpha"/>
<feOffset dx="7.6073" dy="7.02213"/>
<feGaussianBlur stdDeviation="27.1654"/>
<feComposite in2="hardAlpha" operator="out"/>
<feColorMatrix type="matrix" values="0 0 0 0 0 0 0 0 0 0 0 0 0 0 0 0 0 0 0.53 0"/>
<feBlend mode="normal" in2="BackgroundImageFix" result="effect1_dropShadow_4220_6921"/>
<feBlend mode="normal" in="SourceGraphic" in2="effect1_dropShadow_4220_6921" result="shape"/>
</filter>
</defs>
</svg>
