<svg width="11" height="113" viewBox="0 0 11 113" fill="none" xmlns="http://www.w3.org/2000/svg">
<path fill-rule="evenodd" clip-rule="evenodd" d="M11.0078 2C11.0078 0.89543 10.1124 0 9.00782 0H2.00782C0.903254 0 0.00782382 0.895432 0.00782382 2V5.40663C0.00782382 5.40881 0.00605089 5.41059 0.00386388 5.41059C-0.000259186 5.41059 -0.00163717 5.4161 0.0020014 5.41804L0.00524061 5.41977C0.00683055 5.42062 0.00782382 5.42227 0.00782382 5.42407V5.43173C0.00782382 5.44148 0.015722 5.44937 0.0254649 5.44937H0.0502034C0.0571553 5.44937 0.0640005 5.45108 0.0701356 5.45435L4.52497 7.82857C5.11293 8.14192 5.81832 8.14192 6.40628 7.82857L10.8462 5.46229C10.8621 5.45381 10.8799 5.44937 10.8979 5.44937C10.9586 5.44937 11.0078 5.40017 11.0078 5.33947V2Z" fill="#2A52C6"/>
<line x1="5.44141" y1="11" x2="5.44141" y2="112" stroke="#2A52C6" stroke-width="2" stroke-linecap="round"/>
</svg>
