<svg width="22" height="16" viewBox="0 0 22 16" fill="none" xmlns="http://www.w3.org/2000/svg">
<path d="M20.141 12.8581L21.1644 5.53879C21.3045 4.53693 20.7109 3.57695 19.752 3.25422C14.6867 1.54929 9.35238 0.785187 4.01205 1.00026L3.72731 1.01157C2.67515 1.05387 1.80402 1.84312 1.65825 2.88564L0.654828 10.0617C0.515004 11.0617 1.10616 12.0198 2.06257 12.3437L2.33443 12.4355C7.45019 14.1673 12.85 14.9034 18.2424 14.6042C19.2109 14.5506 20.0066 13.8189 20.141 12.8581Z" fill="#4BA9FE"/>
<g clip-path="url(#clip0_4294_6295)">
<path d="M13.3412 7.14649C13.4497 7.2252 13.5347 7.33194 13.5871 7.45527C13.6396 7.57861 13.6575 7.71389 13.6389 7.84662C13.6204 7.97936 13.566 8.10454 13.4818 8.20876C13.3975 8.31298 13.2865 8.3923 13.1606 8.43824L9.7967 9.70107C9.25501 9.9047 8.68653 9.462 8.76531 8.8986L9.24075 5.49843C9.31956 4.93479 9.98764 4.66525 10.4528 5.00916L13.3412 7.14649Z" fill="white"/>
</g>
<defs>
<clipPath id="clip0_4294_6295">
<rect width="5.91302" height="5.91302" fill="white" transform="translate(8.43701 4.13379) rotate(7.95999)"/>
</clipPath>
</defs>
</svg>
