<svg width="10" height="10" viewBox="0 0 10 10" fill="none" xmlns="http://www.w3.org/2000/svg">
<path d="M7.98662 4.74973H1.92381C1.88676 4.74973 1.85645 4.78005 1.85645 4.8171V5.28865C1.85645 5.3257 1.88676 5.35601 1.92381 5.35601H7.98662C8.02367 5.35601 8.05399 5.3257 8.05399 5.28865V4.8171C8.05399 4.78005 8.02367 4.74973 7.98662 4.74973ZM7.98662 3.35192H7.51507C7.47802 3.35192 7.4477 3.38223 7.4477 3.41928V3.89083C7.4477 3.92788 7.47802 3.9582 7.51507 3.9582H7.98662C8.02367 3.9582 8.05399 3.92788 8.05399 3.89083V3.41928C8.05399 3.38223 8.02367 3.35192 7.98662 3.35192ZM7.98662 7.54536H7.51507C7.47802 7.54536 7.4477 7.57567 7.4477 7.61273V8.08428C7.4477 8.12133 7.47802 8.15164 7.51507 8.15164H7.98662C8.02367 8.15164 8.05399 8.12133 8.05399 8.08428V7.61273C8.05399 7.57567 8.02367 7.54536 7.98662 7.54536ZM7.98662 1.9541H7.51507C7.47802 1.9541 7.4477 1.98442 7.4477 2.02147V2.49302C7.4477 2.53007 7.47802 2.56038 7.51507 2.56038H7.98662C8.02367 2.56038 8.05399 2.53007 8.05399 2.49302V2.02147C8.05399 1.98442 8.02367 1.9541 7.98662 1.9541ZM7.98662 6.14755H7.51507C7.47802 6.14755 7.4477 6.17786 7.4477 6.21491V6.68646C7.4477 6.72351 7.47802 6.75383 7.51507 6.75383H7.98662C8.02367 6.75383 8.05399 6.72351 8.05399 6.68646V6.21491C8.05399 6.17786 8.02367 6.14755 7.98662 6.14755ZM6.11725 2.56038H6.58881C6.62586 2.56038 6.65617 2.53007 6.65617 2.49302V2.02147C6.65617 1.98442 6.62586 1.9541 6.58881 1.9541H6.11725C6.0802 1.9541 6.04989 1.98442 6.04989 2.02147V2.49302C6.04989 2.53007 6.0802 2.56038 6.11725 2.56038ZM6.58881 7.54536H6.11725C6.0802 7.54536 6.04989 7.57567 6.04989 7.61273V8.08428C6.04989 8.12133 6.0802 8.15164 6.11725 8.15164H6.58881C6.62586 8.15164 6.65617 8.12133 6.65617 8.08428V7.61273C6.65617 7.57567 6.62586 7.54536 6.58881 7.54536ZM3.79318 7.54536H3.32162C3.28457 7.54536 3.25426 7.57567 3.25426 7.61273V8.08428C3.25426 8.12133 3.28457 8.15164 3.32162 8.15164H3.79318C3.83023 8.15164 3.86054 8.12133 3.86054 8.08428V7.61273C3.86054 7.57567 3.83023 7.54536 3.79318 7.54536ZM3.32162 2.56038H3.79318C3.83023 2.56038 3.86054 2.53007 3.86054 2.49302V2.02147C3.86054 1.98442 3.83023 1.9541 3.79318 1.9541H3.32162C3.28457 1.9541 3.25426 1.98442 3.25426 2.02147V2.49302C3.25426 2.53007 3.28457 2.56038 3.32162 2.56038ZM1.92381 2.56038H2.39536C2.43241 2.56038 2.46273 2.53007 2.46273 2.49302V2.02147C2.46273 1.98442 2.43241 1.9541 2.39536 1.9541H1.92381C1.88676 1.9541 1.85645 1.98442 1.85645 2.02147V2.49302C1.85645 2.53007 1.88676 2.56038 1.92381 2.56038ZM4.71944 2.56038H5.19099C5.22804 2.56038 5.25836 2.53007 5.25836 2.49302V2.02147C5.25836 1.98442 5.22804 1.9541 5.19099 1.9541H4.71944C4.68239 1.9541 4.65207 1.98442 4.65207 2.02147V2.49302C4.65207 2.53007 4.68239 2.56038 4.71944 2.56038ZM2.39536 7.54536H1.92381C1.88676 7.54536 1.85645 7.57567 1.85645 7.61273V8.08428C1.85645 8.12133 1.88676 8.15164 1.92381 8.15164H2.39536C2.43241 8.15164 2.46273 8.12133 2.46273 8.08428V7.61273C2.46273 7.57567 2.43241 7.54536 2.39536 7.54536ZM5.19099 7.54536H4.71944C4.68239 7.54536 4.65207 7.57567 4.65207 7.61273V8.08428C4.65207 8.12133 4.68239 8.15164 4.71944 8.15164H5.19099C5.22804 8.15164 5.25836 8.12133 5.25836 8.08428V7.61273C5.25836 7.57567 5.22804 7.54536 5.19099 7.54536ZM1.92381 3.9582H2.39536C2.43241 3.9582 2.46273 3.92788 2.46273 3.89083V3.41928C2.46273 3.38223 2.43241 3.35192 2.39536 3.35192H1.92381C1.88676 3.35192 1.85645 3.38223 1.85645 3.41928V3.89083C1.85645 3.92788 1.88676 3.9582 1.92381 3.9582ZM4.71944 3.9582H5.19099C5.22804 3.9582 5.25836 3.92788 5.25836 3.89083V3.41928C5.25836 3.38223 5.22804 3.35192 5.19099 3.35192H4.71944C4.68239 3.35192 4.65207 3.38223 4.65207 3.41928V3.89083C4.65207 3.92788 4.68239 3.9582 4.71944 3.9582ZM2.39536 6.14755H1.92381C1.88676 6.14755 1.85645 6.17786 1.85645 6.21491V6.68646C1.85645 6.72351 1.88676 6.75383 1.92381 6.75383H2.39536C2.43241 6.75383 2.46273 6.72351 2.46273 6.68646V6.21491C2.46273 6.17786 2.43241 6.14755 2.39536 6.14755ZM5.19099 6.14755H4.71944C4.68239 6.14755 4.65207 6.17786 4.65207 6.21491V6.68646C4.65207 6.72351 4.68239 6.75383 4.71944 6.75383H5.19099C5.22804 6.75383 5.25836 6.72351 5.25836 6.68646V6.21491C5.25836 6.17786 5.22804 6.14755 5.19099 6.14755Z" fill="white"/>
</svg>
