<svg width="31" height="35" viewBox="0 0 31 35" fill="none" xmlns="http://www.w3.org/2000/svg">
<path d="M21.8792 15.9476C22.6075 15.7975 29.0514 12.8435 29.6266 12.5113C30.9398 11.7528 31.3896 10.0729 30.6315 8.75912C29.8734 7.44534 28.1942 6.9952 26.8811 7.75371C26.3059 8.08597 20.527 12.1923 20.033 12.7484C19.4668 13.3857 19.3689 14.2972 19.7877 15.0229C20.2066 15.7486 21.0444 16.1195 21.8792 15.9476Z" fill="#FFC220"/>
<path d="M29.6265 22.4881C29.0513 22.1558 22.6074 19.2019 21.8791 19.0519C21.0444 18.8799 20.2065 19.2509 19.7877 19.9766C19.3689 20.7024 19.4668 21.6139 20.033 22.2511C20.527 22.8071 26.3059 26.9135 26.8811 27.2458C28.1942 28.0043 29.8734 27.5542 30.6315 26.2404C31.3896 24.9266 30.9396 23.2466 29.6265 22.4881Z" fill="#FFC220"/>
<path d="M15.4999 22.4536C14.6622 22.4536 13.9222 22.9941 13.6537 23.8034C13.4194 24.5095 12.7544 31.5698 12.7544 32.2343C12.7544 33.7513 13.9836 34.9811 15.4999 34.9811C17.0161 34.9811 18.2453 33.7513 18.2453 32.2343C18.2453 31.5698 17.5803 24.5095 17.346 23.8034C17.0775 22.9941 16.3375 22.4536 15.4999 22.4536Z" fill="#FFC220"/>
<path d="M9.12065 19.0519C8.39233 19.2019 1.94838 22.1559 1.37324 22.4881C0.0600589 23.2466 -0.38986 24.9266 0.368276 26.2403C1.12641 27.5541 2.80553 28.0042 4.11865 27.2457C4.69385 26.9135 10.4727 22.8071 10.9667 22.2511C11.533 21.6138 11.6308 20.7023 11.212 19.9766C10.7932 19.2509 9.95537 18.8799 9.12065 19.0519Z" fill="#FFC220"/>
<path d="M4.11871 7.75371C2.80559 6.9952 1.12647 7.44534 0.368278 8.75912C-0.389858 10.0729 0.0600611 11.7528 1.37318 12.5113C1.94838 12.8436 8.39233 15.7976 9.12059 15.9476C9.95532 16.1195 10.7932 15.7486 11.2121 15.0228C11.6309 14.297 11.533 13.3856 10.9668 12.7483C10.4728 12.1923 4.69385 8.08591 4.11871 7.75371Z" fill="#FFC220"/>
<path d="M15.4999 0.0185547C13.9835 0.0185547 12.7544 1.24836 12.7544 2.76538C12.7544 3.42984 13.4194 10.4902 13.6537 11.1963C13.9223 12.0055 14.6623 12.5461 15.4999 12.5461C16.3374 12.5461 17.0775 12.0055 17.346 11.1963C17.5803 10.4902 18.2453 3.42984 18.2453 2.76538C18.2453 1.24836 17.0161 0.0185547 15.4999 0.0185547Z" fill="#FFC220"/>
</svg>
