<svg width="25" height="31" viewBox="0 0 25 31" fill="none" xmlns="http://www.w3.org/2000/svg">
<path fill-rule="evenodd" clip-rule="evenodd" d="M4.25 9C4.25 6.81196 5.11919 4.71354 6.66637 3.16637C8.21354 1.61919 10.312 0.75 12.5 0.75C14.688 0.75 16.7865 1.61919 18.3336 3.16637C19.8808 4.71354 20.75 6.81196 20.75 9H22.125C22.8543 9 23.5538 9.28973 24.0695 9.80546C24.5853 10.3212 24.875 11.0207 24.875 11.75V25.5C24.875 26.2293 24.5853 26.9288 24.0695 27.4445C23.5538 27.9603 22.8543 28.25 22.125 28.25H2.875C2.14565 28.25 1.44618 27.9603 0.930456 27.4445C0.414731 26.9288 0.125 26.2293 0.125 25.5V11.75C0.125 11.0207 0.414731 10.3212 0.930456 9.80546C1.44618 9.28973 2.14565 9 2.875 9H4.25ZM12.5 3.5C13.9587 3.5 15.3576 4.07946 16.3891 5.11091C17.4205 6.14236 18 7.54131 18 9H7C7 7.54131 7.57946 6.14236 8.61091 5.11091C9.64236 4.07946 11.0413 3.5 12.5 3.5ZM15.25 17.25C15.25 17.7327 15.1229 18.2069 14.8816 18.625C14.6402 19.043 14.293 19.3901 13.875 19.6315V21.375C13.875 21.7397 13.7301 22.0894 13.4723 22.3473C13.2144 22.6051 12.8647 22.75 12.5 22.75C12.1353 22.75 11.7856 22.6051 11.5277 22.3473C11.2699 22.0894 11.125 21.7397 11.125 21.375V19.6315C10.6008 19.3288 10.1911 18.8616 9.95942 18.3023C9.72778 17.743 9.68715 17.123 9.84383 16.5382C10.0005 15.9535 10.3457 15.4368 10.826 15.0683C11.3062 14.6998 11.8947 14.5 12.5 14.5C13.2293 14.5 13.9288 14.7897 14.4445 15.3055C14.9603 15.8212 15.25 16.5207 15.25 17.25Z" fill="white"/>
</svg>
