<svg width="20" height="24" viewBox="0 0 20 24" fill="none" xmlns="http://www.w3.org/2000/svg">
<path d="M4.375 13.25H15.625V12H4.375V13.25ZM15.625 16.375H4.375V15.125H15.625V16.375ZM4.375 19.5H15.625V18.25H4.375V19.5Z" fill="white"/>
<path fill-rule="evenodd" clip-rule="evenodd" d="M19.375 9.5C19.375 9.16848 19.2433 8.85054 19.0089 8.61612C18.7745 8.3817 18.4565 8.25 18.125 8.25H16.875V7.625C16.875 3.82812 13.7969 0.75 10 0.75C6.20312 0.75 3.125 3.82812 3.125 7.625V8.25H1.875C1.54348 8.25 1.22554 8.3817 0.991117 8.61612C0.756696 8.85054 0.625 9.16848 0.625 9.5V22C0.625 22.3315 0.756696 22.6495 0.991117 22.8839C1.22554 23.1183 1.54348 23.25 1.875 23.25H18.125C18.4565 23.25 18.7745 23.1183 19.0089 22.8839C19.2433 22.6495 19.375 22.3315 19.375 22V9.5ZM4.375 7.625C4.375 6.13316 4.96763 4.70242 6.02252 3.64752C7.07742 2.59263 8.50816 2 10 2C11.4918 2 12.9226 2.59263 13.9775 3.64752C15.0324 4.70242 15.625 6.13316 15.625 7.625V8.25H14.375V7.625C14.375 7.05047 14.2618 6.48156 14.042 5.95076C13.8221 5.41996 13.4998 4.93766 13.0936 4.53141C12.6873 4.12515 12.205 3.80289 11.6742 3.58303C11.1434 3.36316 10.5745 3.25 10 3.25C9.42547 3.25 8.85656 3.36316 8.32576 3.58303C7.79496 3.80289 7.31266 4.12515 6.90641 4.53141C6.50015 4.93766 6.17789 5.41996 5.95803 5.95076C5.73816 6.48156 5.625 7.05047 5.625 7.625V9.5H18.125V22H1.875V9.5H4.375V7.625ZM10 4.5C10.8288 4.5 11.6237 4.82924 12.2097 5.41529C12.7958 6.00134 13.125 6.7962 13.125 7.625V8.25H6.875V7.625C6.875 6.7962 7.20424 6.00134 7.79029 5.41529C8.37634 4.82924 9.1712 4.5 10 4.5Z" fill="white"/>
</svg>
