<svg width="16" height="10" viewBox="0 0 16 10" fill="none" xmlns="http://www.w3.org/2000/svg">
<path d="M0.601562 0.519531H15.9878V9.30765H0.601562V0.519531Z" fill="white"/>
<path d="M0.601562 0.519531H15.9878V1.19555H0.601562V0.519531ZM0.601562 1.87158H15.9878V2.5476H0.601562V1.87158ZM0.601562 3.22356H15.9878V3.89959H0.601562V3.22356ZM0.601562 4.57561H15.9878V5.25163H0.601562V4.57561ZM0.601562 5.9276H15.9878V6.60362H0.601562V5.9276ZM0.601562 7.27964H15.9878V7.95566H0.601562V7.27964ZM0.601562 8.63163H15.9878V9.30765H0.601562V8.63163Z" fill="#B22234"/>
<path d="M0.601562 0.519531H6.75607V5.25158H0.601562V0.519531Z" fill="#3C3B6E"/>
<path d="M0.890625 0.903808L1.03726 1.01941L0.98125 1.20648L1.12783 1.09087L1.27446 1.20648L1.21846 1.01941L1.36504 0.903808H1.18384L1.12783 0.716797L1.07182 0.903808H0.890625ZM1.91099 0.903808L2.05757 1.01941L2.00157 1.20648L2.1482 1.09087L2.29483 1.20648L2.23882 1.01941L2.3854 0.903808H2.2042L2.1482 0.716797L2.09219 0.903808H1.91099ZM2.93136 0.903808L3.07794 1.01941L3.02193 1.20648L3.16856 1.09087L3.31514 1.20648L3.25914 1.01941L3.40577 0.903808H3.22457L3.16856 0.716797L3.11256 0.903808H2.93136ZM3.95173 0.903808L4.0983 1.01941L4.0423 1.20648L4.18893 1.09087L4.33551 1.20648L4.2795 1.01941L4.42614 0.903808H4.24488L4.18893 0.716797L4.13292 0.903808H3.95173ZM4.97204 0.903808L5.11867 1.01941L5.06267 1.20648L5.20925 1.09087L5.35588 1.20648L5.29987 1.01941L5.44645 0.903808H5.26525L5.20925 0.716797L5.15324 0.903808H4.97204ZM5.99241 0.903808L6.13899 1.01941L6.08298 1.20648L6.22961 1.09087L6.37619 1.20648L6.32019 1.01941L6.46682 0.903808H6.28562L6.22961 0.716797L6.17361 0.903808H5.99241ZM1.40078 1.3784L1.54741 1.49401L1.49141 1.68102L1.63804 1.56541L1.78462 1.68102L1.72861 1.49401L1.87524 1.3784H1.69399L1.63804 1.19134L1.58203 1.3784H1.40078ZM2.42115 1.3784L2.56778 1.49401L2.51177 1.68102L2.65835 1.56541L2.80499 1.68102L2.74898 1.49401L2.89556 1.3784H2.71436L2.65835 1.19134L2.60235 1.3784H2.42115ZM3.44152 1.3784L3.58815 1.49401L3.53214 1.68102L3.67872 1.56541L3.82535 1.68102L3.76935 1.49401L3.91593 1.3784H3.73473L3.67872 1.19134L3.62272 1.3784H3.44152ZM4.46188 1.3784L4.60846 1.49401L4.55246 1.68102L4.69909 1.56541L4.84567 1.68102L4.78966 1.49401L4.93629 1.3784H4.75509L4.69909 1.19134L4.64308 1.3784H4.46188ZM5.4822 1.3784L5.62883 1.49401L5.57282 1.68102L5.7194 1.56541L5.86603 1.68102L5.81003 1.49401L5.95661 1.3784H5.77541L5.7194 1.19134L5.66345 1.3784H5.4822ZM0.890625 1.85294L1.03726 1.96855L0.98125 2.15561L1.12783 2.04001L1.27446 2.15561L1.21846 1.96855L1.36504 1.85294H1.18384L1.12783 1.66593L1.07182 1.85294H0.890625ZM1.91099 1.85294L2.05757 1.96855L2.00157 2.15561L2.1482 2.04001L2.29483 2.15561L2.23882 1.96855L2.3854 1.85294H2.2042L2.1482 1.66593L2.09219 1.85294H1.91099ZM2.93136 1.85294L3.07794 1.96855L3.02193 2.15561L3.16856 2.04001L3.31514 2.15561L3.25914 1.96855L3.40577 1.85294H3.22457L3.16856 1.66593L3.11256 1.85294H2.93136ZM3.95173 1.85294L4.0983 1.96855L4.0423 2.15561L4.18893 2.04001L4.33551 2.15561L4.2795 1.96855L4.42614 1.85294H4.24488L4.18893 1.66593L4.13292 1.85294H3.95173ZM4.97204 1.85294L5.11867 1.96855L5.06267 2.15561L5.20925 2.04001L5.35588 2.15561L5.29987 1.96855L5.44645 1.85294H5.26525L5.20925 1.66593L5.15324 1.85294H4.97204ZM5.99241 1.85294L6.13899 1.96855L6.08298 2.15561L6.22961 2.04001L6.37619 2.15561L6.32019 1.96855L6.46682 1.85294H6.28562L6.22961 1.66593L6.17361 1.85294H5.99241ZM1.4134 2.3291L1.55998 2.4447L1.50402 2.63171L1.6506 2.51611L1.79724 2.63171L1.74123 2.44464L1.88781 2.3291H1.70661L1.6506 2.14203L1.5946 2.3291H1.4134ZM2.43377 2.3291L2.58035 2.4447L2.52434 2.63171L2.67097 2.51611L2.81755 2.63171L2.76155 2.44464L2.90818 2.3291H2.72698L2.67097 2.14203L2.61497 2.3291H2.43377ZM3.45413 2.3291L3.60071 2.4447L3.54471 2.63171L3.69134 2.51611L3.83792 2.63171L3.78191 2.44464L3.92854 2.3291H3.74729L3.69134 2.14203L3.63533 2.3291H3.45413ZM4.47445 2.3291L4.62108 2.4447L4.56507 2.63171L4.71165 2.51611L4.85828 2.63171L4.80228 2.44464L4.94886 2.3291H4.76766L4.71165 2.14203L4.65565 2.3291H4.47445ZM5.49482 2.3291L5.64139 2.4447L5.58539 2.63171L5.73202 2.51611L5.8786 2.63171L5.82259 2.44464L5.96923 2.3291H5.78803L5.73202 2.14203L5.67601 2.3291H5.49482ZM0.906114 2.79969L1.05275 2.91523L0.996739 3.1023L1.14332 2.9867L1.28995 3.1023L1.23394 2.91523L1.38052 2.79969H1.19933L1.14332 2.61262L1.08731 2.79969H0.906114ZM1.92648 2.79969L2.07306 2.91523L2.01705 3.1023L2.16369 2.9867L2.31027 3.1023L2.25431 2.91523L2.40089 2.79969H2.21969L2.16369 2.61262L2.10768 2.79969H1.92648ZM2.94685 2.79969L3.09343 2.91523L3.03742 3.1023L3.18405 2.9867L3.33063 3.1023L3.27463 2.91523L3.42126 2.79969H3.24006L3.18405 2.61262L3.12805 2.79969H2.94685ZM3.96716 2.79969L4.11379 2.91523L4.05779 3.1023L4.20437 2.9867L4.351 3.1023L4.29499 2.91523L4.44162 2.79969H4.26037L4.20437 2.61262L4.14841 2.79969H3.96716ZM4.98753 2.79969L5.13411 2.91523L5.07815 3.1023L5.22473 2.9867L5.37137 3.1023L5.31536 2.91523L5.46194 2.79969H5.28074L5.22473 2.61262L5.16873 2.79969H4.98753ZM6.0079 2.79969L6.15448 2.91523L6.09847 3.1023L6.2451 2.9867L6.39168 3.1023L6.33568 2.91523L6.48231 2.79969H6.30111L6.2451 2.61262L6.1891 2.79969H6.0079ZM0.915705 3.73374L1.06228 3.84934L1.00628 4.03641L1.15291 3.92081L1.29949 4.03641L1.24348 3.84934L1.39011 3.73374H1.20892L1.15291 3.54673L1.0969 3.73374H0.915705ZM1.93602 3.73374L2.08265 3.84934L2.02665 4.03641L2.17323 3.92081L2.31986 4.03641L2.26385 3.84934L2.41043 3.73374H2.22923L2.17323 3.54673L2.11722 3.73374H1.93602ZM2.95639 3.73374L3.10297 3.84934L3.04701 4.03641L3.19359 3.92081L3.34022 4.03641L3.28422 3.84934L3.4308 3.73374H3.2496L3.19359 3.54673L3.13759 3.73374H2.95639ZM3.97675 3.73374L4.12333 3.84934L4.06733 4.03641L4.21396 3.92081L4.36054 4.03641L4.30458 3.84934L4.45116 3.73374H4.26996L4.21396 3.54673L4.15795 3.73374H3.97675ZM4.99707 3.73374L5.1437 3.84934L5.08769 4.03641L5.23427 3.92081L5.38091 4.03641L5.3249 3.84934L5.47153 3.73374H5.29028L5.23427 3.54673L5.17832 3.73374H4.99707ZM6.01744 3.73374L6.16402 3.84934L6.10806 4.03641L6.25464 3.92081L6.40127 4.03641L6.34527 3.84934L6.49185 3.73374H6.31065L6.25464 3.54673L6.19863 3.73374H6.01744ZM0.903242 4.67881L1.04982 4.79441L0.993816 4.98148L1.14045 4.86588L1.28703 4.98148L1.23102 4.79441L1.37765 4.67881H1.1964L1.14045 4.4918L1.08444 4.67881H0.903242ZM1.92356 4.67881L2.07019 4.79441L2.01418 4.98148L2.16076 4.86588L2.30739 4.98148L2.25139 4.79441L2.39797 4.67881H2.21677L2.16076 4.4918L2.10476 4.67881H1.92356ZM2.94392 4.67881L3.0905 4.79441L3.03455 4.98148L3.18113 4.86588L3.32776 4.98148L3.27175 4.79441L3.41833 4.67881H3.23713L3.18113 4.4918L3.12512 4.67881H2.94392ZM3.96429 4.67881L4.11087 4.79441L4.05486 4.98148L4.2015 4.86588L4.34808 4.98148L4.29212 4.79441L4.4387 4.67881H4.2575L4.2015 4.4918L4.14549 4.67881H3.96429ZM4.98461 4.67881L5.13124 4.79441L5.07523 4.98148L5.22181 4.86588L5.36844 4.98148L5.31244 4.79441L5.45907 4.67881H5.27782L5.22181 4.4918L5.16586 4.67881H4.98461ZM6.00497 4.67881L6.15155 4.79441L6.0956 4.98148L6.24218 4.86588L6.38881 4.98148L6.3328 4.79441L6.47938 4.67881H6.29818L6.24218 4.4918L6.18617 4.67881H6.00497ZM1.41643 3.26204L1.56301 3.37764L1.50705 3.56465L1.65363 3.44905L1.80026 3.56465L1.74426 3.37764L1.89084 3.26204H1.70964L1.65363 3.07497L1.59762 3.26204H1.41643ZM2.43679 3.26204L2.58337 3.37764L2.52737 3.56465L2.674 3.44905L2.82058 3.56465L2.76462 3.37764L2.9112 3.26204H2.73L2.674 3.07497L2.61799 3.26204H2.43679ZM3.45716 3.26204L3.60374 3.37764L3.54773 3.56465L3.69436 3.44905L3.84094 3.56465L3.78494 3.37764L3.93157 3.26204H3.75037L3.69436 3.07497L3.63836 3.26204H3.45716ZM4.47747 3.26204L4.62411 3.37764L4.5681 3.56465L4.71468 3.44905L4.86131 3.56465L4.8053 3.37764L4.95188 3.26204H4.77069L4.71468 3.07497L4.65867 3.26204H4.47747ZM5.49784 3.26204L5.64442 3.37764L5.58841 3.56465L5.73505 3.44905L5.88163 3.56465L5.82567 3.37764L5.97225 3.26204H5.79105L5.73505 3.07497L5.67904 3.26204H5.49784ZM1.4134 4.20561L1.56003 4.32121L1.50402 4.50828L1.6506 4.39267L1.79724 4.50828L1.74123 4.32121L1.88781 4.20561H1.70661L1.6506 4.0186L1.5946 4.20561H1.4134ZM2.43377 4.20561L2.58035 4.32121L2.52434 4.50828L2.67097 4.39267L2.8176 4.50828L2.7616 4.32121L2.90818 4.20561H2.72698L2.67097 4.0186L2.61497 4.20561H2.43377ZM3.45413 4.20561L3.60071 4.32121L3.54471 4.50828L3.69134 4.39267L3.83792 4.50828L3.78191 4.32121L3.92854 4.20561H3.74734L3.69134 4.0186L3.63533 4.20561H3.45413ZM4.47445 4.20561L4.62108 4.32121L4.56507 4.50828L4.71165 4.39267L4.85828 4.50828L4.80228 4.32121L4.94886 4.20561H4.76766L4.71165 4.0186L4.65565 4.20561H4.47445ZM5.49482 4.20561L5.64139 4.32121L5.58539 4.50828L5.73202 4.39267L5.8786 4.50828L5.82265 4.32121L5.96923 4.20561H5.78803L5.73202 4.0186L5.67601 4.20561H5.49482Z" fill="white"/>
</svg>
