<svg width="32" height="32" viewBox="0 0 32 32" fill="none" xmlns="http://www.w3.org/2000/svg">
<mask id="mask0_4220_5350" style="mask-type:alpha" maskUnits="userSpaceOnUse" x="0" y="0" width="32" height="32">
<rect width="32" height="32" fill="#D9D9D9"/>
</mask>
<g mask="url(#mask0_4220_5350)">
<path d="M8.4105 19.795H10.0002V17.1283H13.0772V19.795H14.6668V12.205H13.0772V15.5383H10.0002V12.205H8.4105V19.795ZM17.3335 19.795H22.2052C22.5916 19.795 22.9189 19.6608 23.1872 19.3923C23.4556 19.1239 23.5898 18.7966 23.5898 18.4103V13.5897C23.5898 13.2034 23.4556 12.8761 23.1872 12.6077C22.9189 12.3392 22.5916 12.205 22.2052 12.205H17.3335V19.795ZM18.9232 18.205V13.795H21.7952C21.8463 13.795 21.8933 13.8163 21.9362 13.859C21.9788 13.9017 22.0002 13.9487 22.0002 14V18C22.0002 18.0513 21.9788 18.0983 21.9362 18.141C21.8933 18.1837 21.8463 18.205 21.7952 18.205H18.9232ZM5.74383 26C5.07027 26 4.50016 25.7667 4.0335 25.3C3.56683 24.8333 3.3335 24.2632 3.3335 23.5897V8.41033C3.3335 7.73678 3.56683 7.16667 4.0335 6.7C4.50016 6.23333 5.07027 6 5.74383 6H26.2565C26.9301 6 27.5002 6.23333 27.9668 6.7C28.4335 7.16667 28.6668 7.73678 28.6668 8.41033V23.5897C28.6668 24.2632 28.4335 24.8333 27.9668 25.3C27.5002 25.7667 26.9301 26 26.2565 26H5.74383ZM5.74383 24H26.2565C26.3592 24 26.4532 23.9572 26.5385 23.8717C26.6241 23.7863 26.6668 23.6923 26.6668 23.5897V8.41033C26.6668 8.30767 26.6241 8.21367 26.5385 8.12833C26.4532 8.04278 26.3592 8 26.2565 8H5.74383C5.64116 8 5.54716 8.04278 5.46183 8.12833C5.37627 8.21367 5.3335 8.30767 5.3335 8.41033V23.5897C5.3335 23.6923 5.37627 23.7863 5.46183 23.8717C5.54716 23.9572 5.64116 24 5.74383 24Z" fill="#BD7E29"/>
</g>
</svg>
