<svg width="25" height="25" viewBox="0 0 25 25" fill="none" xmlns="http://www.w3.org/2000/svg">
<mask id="mask0_4220_5253" style="mask-type:alpha" maskUnits="userSpaceOnUse" x="0" y="0" width="25" height="25">
<rect x="0.5" y="0.5" width="24" height="24" fill="#D9D9D9"/>
</mask>
<g mask="url(#mask0_4220_5253)">
<path d="M9.5 21.5H5.5C4.95 21.5 4.47917 21.3042 4.0875 20.9125C3.69583 20.5208 3.5 20.05 3.5 19.5V12.5C3.5 11.25 3.7375 10.0792 4.2125 8.9875C4.6875 7.89583 5.32917 6.94583 6.1375 6.1375C6.94583 5.32917 7.89583 4.6875 8.9875 4.2125C10.0792 3.7375 11.25 3.5 12.5 3.5C13.75 3.5 14.9208 3.7375 16.0125 4.2125C17.1042 4.6875 18.0542 5.32917 18.8625 6.1375C19.6708 6.94583 20.3125 7.89583 20.7875 8.9875C21.2625 10.0792 21.5 11.25 21.5 12.5V19.5C21.5 20.05 21.3042 20.5208 20.9125 20.9125C20.5208 21.3042 20.05 21.5 19.5 21.5H15.5V13.5H19.5V12.5C19.5 10.55 18.8208 8.89583 17.4625 7.5375C16.1042 6.17917 14.45 5.5 12.5 5.5C10.55 5.5 8.89583 6.17917 7.5375 7.5375C6.17917 8.89583 5.5 10.55 5.5 12.5V13.5H9.5V21.5ZM7.5 15.5H5.5V19.5H7.5V15.5ZM17.5 15.5V19.5H19.5V15.5H17.5Z" fill="white"/>
</g>
</svg>
