<svg width="18" height="18" viewBox="0 0 18 18" fill="none" xmlns="http://www.w3.org/2000/svg">
<path fill-rule="evenodd" clip-rule="evenodd" d="M5.24062 9.95757C5.37472 9.82351 5.55658 9.7482 5.7462 9.7482C5.93582 9.7482 6.11767 9.82351 6.25178 9.95757L8.6066 12.3124L10.9614 9.95757C11.0274 9.88927 11.1063 9.83479 11.1936 9.79731C11.2808 9.75984 11.3746 9.74011 11.4696 9.73928C11.5645 9.73846 11.6587 9.75655 11.7466 9.79251C11.8345 9.82846 11.9143 9.88156 11.9814 9.94871C12.0486 10.0158 12.1017 10.0957 12.1376 10.1836C12.1736 10.2715 12.1917 10.3656 12.1909 10.4606C12.19 10.5555 12.1703 10.6494 12.1328 10.7366C12.0954 10.8238 12.0409 10.9028 11.9726 10.9687L9.11218 13.8291C8.97808 13.9632 8.79622 14.0385 8.6066 14.0385C8.41698 14.0385 8.23513 13.9632 8.10103 13.8291L5.24062 10.9687C5.10656 10.8346 5.03125 10.6528 5.03125 10.4631C5.03125 10.2735 5.10656 10.0917 5.24062 9.95757Z" fill="#9CA3AF"/>
<path fill-rule="evenodd" clip-rule="evenodd" d="M11.9815 7.80066C11.8474 7.93472 11.6656 8.01003 11.4759 8.01003C11.2863 8.01003 11.1045 7.93472 10.9704 7.80066L8.61554 5.44583L6.26072 7.80066C6.19475 7.86896 6.11584 7.92343 6.0286 7.96091C5.94135 7.99839 5.84752 8.01812 5.75257 8.01894C5.65761 8.01977 5.56345 8.00167 5.47557 7.96572C5.38768 7.92976 5.30784 7.87666 5.2407 7.80952C5.17356 7.74238 5.12046 7.66254 5.0845 7.57465C5.04855 7.48677 5.03045 7.3926 5.03128 7.29765C5.0321 7.2027 5.05183 7.10887 5.08931 7.02162C5.12678 6.93438 5.18126 6.85547 5.24956 6.7895L8.10997 3.9291C8.24407 3.79504 8.42593 3.71973 8.61554 3.71973C8.80516 3.71973 8.98702 3.79504 9.12112 3.9291L11.9815 6.7895C12.1156 6.92361 12.1909 7.10546 12.1909 7.29508C12.1909 7.4847 12.1156 7.66656 11.9815 7.80066Z" fill="#9CA3AF"/>
</svg>
