<svg width="8" height="8" viewBox="0 0 8 8" fill="none" xmlns="http://www.w3.org/2000/svg">
<g clip-path="url(#clip0_4238_5972)">
<path d="M7.97099 4.84123L7.95535 4.68577L7.95066 4.68609L7.94534 4.68702L7.97099 4.84123ZM7.97099 4.84123L7.98663 4.997L7.99194 4.99637L7.99695 4.99543L7.97099 4.84123ZM6.70733 6.55593L6.80648 6.43488L6.80492 6.43394L6.70733 6.55593ZM6.70733 6.55593L6.60817 6.67698L6.60974 6.67823L6.70733 6.55593ZM3.83093 6.55593L3.73178 6.43519L3.72959 6.43707L3.72709 6.43926L3.83093 6.55593ZM3.83093 6.55593L3.93009 6.67729L3.93259 6.6751L3.93478 6.67322L3.83093 6.55593ZM2.56696 3.505V3.34861H2.55945L2.55163 3.34923L2.56696 3.505ZM2.56696 3.505V3.66139H2.57478L2.5826 3.66046L2.56696 3.505ZM6.09239 1.45531C6.08775 1.39859 6.08118 1.34204 6.07268 1.28577C6.06565 1.23595 6.05066 1.18758 6.02827 1.14252L5.7502 1.28609C5.75333 1.29234 5.75864 1.30485 5.76396 1.33738C5.7699 1.37179 5.77428 1.41652 5.78148 1.48627L6.09239 1.45531ZM6.15369 1.83159C6.14994 1.8269 6.13868 1.80782 6.12648 1.74088C6.11186 1.64612 6.1009 1.55087 6.09301 1.45531L5.78148 1.48627C5.79399 1.6117 5.80431 1.71554 5.8187 1.79624C5.83277 1.87507 5.85467 1.95545 5.90503 2.02145L6.15369 1.83159ZM6.29883 1.89164C6.27149 1.89532 6.24366 1.8917 6.21817 1.88116C6.19269 1.87061 6.17044 1.85351 6.15369 1.83159L5.90471 2.02114C5.95494 2.08701 6.02172 2.1384 6.09825 2.1701C6.17478 2.2018 6.25833 2.21267 6.34043 2.20162L6.29883 1.89164ZM6.60786 1.66863C6.5062 1.75214 6.43677 1.80875 6.38203 1.8466C6.32604 1.88539 6.30446 1.89071 6.29883 1.89164L6.34043 2.20162C6.42238 2.19067 6.49463 2.14938 6.56063 2.1034C6.62788 2.05648 6.70826 1.9908 6.80617 1.91072L6.60786 1.66863ZM6.87436 1.49315C6.82431 1.5091 6.78208 1.53444 6.74205 1.5629C6.70326 1.59043 6.65916 1.62671 6.60786 1.66863L6.80617 1.91072C6.86028 1.86631 6.89531 1.83784 6.92346 1.81783C6.93753 1.80669 6.95312 1.79763 6.96976 1.79093L6.87436 1.49315ZM7.20372 1.50942C7.09952 1.46432 6.98249 1.45854 6.87436 1.49315L6.96976 1.79093C7.00573 1.77953 7.04461 1.78153 7.07923 1.79656L7.20372 1.50942ZM7.45145 1.71085C7.40453 1.66393 7.36418 1.62327 7.32852 1.59199C7.29161 1.55797 7.24947 1.53009 7.20372 1.50942L7.07923 1.79656C7.0858 1.79937 7.09769 1.80594 7.12271 1.82783C7.14867 1.85036 7.18057 1.88226 7.23031 1.93199L7.45145 1.71085ZM7.73077 1.99017L7.45145 1.71085L7.23031 1.93199L7.50963 2.21131L7.73077 1.99017ZM7.9322 2.2379C7.91144 2.19213 7.88345 2.14999 7.84931 2.1131C7.81803 2.07744 7.77737 2.03709 7.73077 1.99017L7.50963 2.21131C7.55936 2.26105 7.59095 2.29295 7.6141 2.31891C7.63599 2.34393 7.64225 2.35582 7.64506 2.36239L7.9322 2.2379ZM7.94847 2.56726C7.98308 2.45912 7.9773 2.3421 7.9322 2.2379L7.64506 2.36239C7.65998 2.39704 7.66187 2.43593 7.65038 2.47186L7.94847 2.56726ZM7.77299 2.83376C7.81491 2.78246 7.85119 2.73836 7.87872 2.69957C7.90687 2.65954 7.93251 2.61731 7.94847 2.56726L7.65038 2.47186C7.64377 2.48848 7.63482 2.50407 7.62379 2.51816C7.594 2.55817 7.56302 2.59729 7.5309 2.63545L7.77299 2.83376ZM7.54998 3.14279C7.55091 3.13716 7.55623 3.11558 7.59502 3.05959C7.63286 3.00485 7.68948 2.93542 7.77299 2.83376L7.5309 2.63545C7.45082 2.73335 7.38482 2.81374 7.33822 2.88099C7.29224 2.94668 7.25095 3.01924 7.24 3.10119L7.54998 3.14279ZM7.61003 3.28793C7.58811 3.27118 7.57101 3.24893 7.56046 3.22345C7.54991 3.19796 7.5463 3.17013 7.54998 3.14279L7.24 3.10119C7.229 3.18324 7.23991 3.26673 7.2716 3.3432C7.3033 3.41967 7.35466 3.48639 7.42048 3.53659L7.61003 3.28793ZM7.98631 3.34892C7.85526 3.33578 7.76642 3.32702 7.70074 3.31514C7.6338 3.30294 7.61472 3.29168 7.61003 3.28793L7.42048 3.53659C7.48617 3.58664 7.56655 3.60853 7.64569 3.62292C7.72608 3.63731 7.82961 3.64794 7.95535 3.66046L7.98631 3.34892ZM8.2991 3.41335C8.25404 3.39096 8.20567 3.37597 8.15585 3.36894C8.10893 3.36112 8.052 3.35549 7.98631 3.34892L7.95504 3.66014C8.0251 3.66734 8.06983 3.67172 8.10423 3.67766C8.1219 3.67979 8.13917 3.68443 8.15553 3.69142L8.2991 3.41335ZM8.52024 3.65764C8.47849 3.55215 8.39993 3.46537 8.2991 3.41335L8.15553 3.69142C8.18916 3.70871 8.21538 3.73761 8.22935 3.77275L8.52024 3.65764ZM8.55309 3.97512C8.55309 3.90912 8.55308 3.85188 8.54996 3.80434C8.54797 3.75416 8.53793 3.70463 8.52024 3.65764L8.22935 3.77275C8.23185 3.77932 8.23561 3.79245 8.23779 3.82529C8.24013 3.8753 8.24097 3.92537 8.2403 3.97543L8.55309 3.97512ZM8.55309 4.37048V3.97512H8.2403V4.37048H8.55309ZM8.52024 4.68765C8.53963 4.63885 8.54683 4.59006 8.54996 4.54095C8.55308 4.49372 8.55309 4.43648 8.55309 4.37048H8.2403C8.2403 4.44055 8.2403 4.48559 8.23779 4.52031C8.23749 4.53814 8.23465 4.55583 8.22935 4.57286L8.52024 4.68765ZM8.2991 4.93225C8.39998 4.88016 8.47855 4.79325 8.52024 4.68765L8.22935 4.57286C8.21538 4.608 8.18916 4.63689 8.15553 4.65418L8.2991 4.93225ZM7.98631 4.99668C8.052 4.99012 8.10924 4.98417 8.15585 4.97635C8.20433 4.96853 8.25218 4.95633 8.29879 4.93256L8.15553 4.65418C8.13917 4.66118 8.1219 4.66581 8.10423 4.66794C8.06983 4.67389 8.0251 4.67827 7.95535 4.68546L7.98631 4.99668ZM7.61034 5.05768C7.61504 5.05392 7.63412 5.04235 7.70105 5.03046C7.76674 5.01858 7.85557 5.00951 7.98631 4.99668L7.95535 4.68546C7.82992 4.69797 7.72608 4.70798 7.64538 4.72268C7.56655 4.73676 7.48648 4.75865 7.42048 4.8087L7.61034 5.05768ZM7.54998 5.20281C7.54633 5.17544 7.55 5.1476 7.5606 5.12211C7.5712 5.09662 7.58837 5.07439 7.61034 5.05768L7.42048 4.8087C7.35461 4.85893 7.30322 4.9257 7.27152 5.00223C7.23982 5.07876 7.22895 5.16232 7.24 5.24441L7.54998 5.20281ZM7.77299 5.51184C7.71102 5.43869 7.65166 5.36336 7.59502 5.28601C7.55623 5.23034 7.55091 5.20844 7.54998 5.20281L7.24032 5.24472C7.25126 5.32667 7.29255 5.39862 7.33822 5.46461C7.38514 5.53155 7.45082 5.61225 7.5309 5.70984L7.77299 5.51184ZM7.94847 5.77834C7.93247 5.73068 7.90892 5.6859 7.87872 5.64572C7.84484 5.60004 7.80958 5.55539 7.77299 5.51184L7.5309 5.70984C7.57531 5.76426 7.60378 5.79898 7.62379 5.82745C7.63479 5.84144 7.64374 5.85692 7.65038 5.87343L7.94847 5.77834ZM7.9322 6.1077C7.9773 6.0035 7.98308 5.88648 7.94847 5.77834L7.65038 5.87343C7.66195 5.90946 7.66006 5.94847 7.64506 5.98322L7.9322 6.1077ZM7.73108 6.35512C7.77769 6.30851 7.81803 6.26816 7.84931 6.23251C7.88184 6.19528 7.91125 6.15619 7.9322 6.1077L7.64506 5.98322C7.63674 5.99902 7.62621 6.01355 7.61378 6.02638C7.58015 6.06328 7.54541 6.09916 7.50963 6.13398L7.73108 6.35512ZM7.45145 6.63475L7.73108 6.35512L7.50963 6.13398L7.23031 6.41361L7.45145 6.63475ZM7.20372 6.83587C7.25189 6.81492 7.2913 6.78583 7.32852 6.7533C7.36418 6.72202 7.40453 6.68136 7.45145 6.63444L7.23031 6.41361C7.18057 6.46334 7.14867 6.49494 7.12271 6.51777C7.10979 6.53022 7.09514 6.54075 7.07923 6.54905L7.20372 6.83587ZM6.87436 6.85245C6.98253 6.88696 7.09956 6.88107 7.20372 6.83587L7.07923 6.54905C7.04458 6.56397 7.00569 6.56586 6.96976 6.55437L6.87436 6.85245ZM6.60786 6.67666C6.65916 6.71858 6.70326 6.75486 6.74205 6.78239C6.78208 6.81085 6.82431 6.8365 6.87436 6.85245L6.96976 6.55437C6.95314 6.54775 6.93755 6.5388 6.92346 6.52778C6.88344 6.49789 6.84433 6.4668 6.80617 6.43457L6.60786 6.67666ZM6.29883 6.45396C6.30446 6.45459 6.32635 6.46022 6.38203 6.499C6.43677 6.53685 6.5062 6.59346 6.60786 6.67666L6.80617 6.43457C6.70826 6.35481 6.62788 6.28881 6.56063 6.24189C6.49494 6.19622 6.42238 6.15494 6.34043 6.14399L6.29883 6.45396ZM6.15369 6.51402C6.17044 6.49209 6.19269 6.47499 6.21817 6.46445C6.24366 6.4539 6.27149 6.45028 6.29883 6.45396L6.34043 6.14399C6.25841 6.13295 6.17494 6.14381 6.09847 6.17545C6.022 6.20709 5.95527 6.25839 5.90503 6.32415L6.15369 6.51402ZM6.0927 6.8903C6.10584 6.75924 6.11459 6.67041 6.12648 6.60472C6.13868 6.53779 6.14994 6.51871 6.15369 6.51402L5.90503 6.32415C5.85498 6.38984 5.83309 6.47054 5.8187 6.54936C5.80431 6.62975 5.79367 6.73328 5.78116 6.85902L6.0927 6.8903ZM6.02827 7.20309C6.05235 7.15617 6.06424 7.10831 6.07237 7.05983C6.0805 7.01291 6.08613 6.95598 6.0927 6.8903L5.78116 6.85902C5.77682 6.90892 5.77129 6.95867 5.76396 7.00822C5.76183 7.02588 5.75719 7.04316 5.7502 7.05952L6.02827 7.20309ZM5.78398 7.42423C5.88947 7.38247 5.97625 7.30391 6.02827 7.20309L5.7502 7.05952C5.7329 7.09314 5.70401 7.11937 5.66887 7.13333L5.78398 7.42423ZM5.4665 7.45707C5.5325 7.45707 5.58974 7.45707 5.63728 7.45394C5.68608 7.45081 5.73518 7.44362 5.78398 7.42423L5.66887 7.13333C5.65185 7.13863 5.63415 7.14147 5.61632 7.14178C5.58192 7.14428 5.53656 7.14428 5.46619 7.14428L5.4665 7.45707ZM5.07114 7.45707H5.4665L5.46619 7.14428H5.07114V7.45707ZM4.75366 7.42423C4.80276 7.44362 4.85156 7.45081 4.90067 7.45394C4.9479 7.45707 5.00514 7.45707 5.07114 7.45707V7.14428C5.00107 7.14428 4.95603 7.14428 4.92131 7.14178C4.90348 7.14147 4.88579 7.13863 4.86876 7.13333L4.75366 7.42423ZM4.50937 7.20309C4.56138 7.30391 4.64817 7.38247 4.75366 7.42423L4.86876 7.13333C4.83362 7.11937 4.80473 7.09314 4.78744 7.05952L4.50937 7.20309ZM4.44494 6.8903C4.45119 6.9564 4.45786 7.01291 4.46495 7.05983C4.47309 7.10831 4.48529 7.15617 4.50937 7.20309L4.78744 7.05952C4.78044 7.04316 4.77581 7.02588 4.77368 7.00822C4.76635 6.95878 4.76051 6.90912 4.75616 6.85933L4.44494 6.8903ZM4.38394 6.51402C4.3877 6.51871 4.39896 6.53779 4.41115 6.60472C4.42304 6.67041 4.4318 6.75955 4.44494 6.8903L4.75616 6.85933C4.74365 6.7339 4.73333 6.63006 4.71894 6.54936C4.70486 6.47054 4.68297 6.39015 4.63261 6.32415L4.38394 6.51402ZM4.23881 6.45396C4.26615 6.45028 4.29397 6.4539 4.31946 6.46445C4.34495 6.47499 4.3672 6.49209 4.38394 6.51402L4.63261 6.32415C4.58241 6.25834 4.51568 6.20728 4.43922 6.17559C4.36275 6.14389 4.27925 6.13299 4.19721 6.14399L4.23881 6.45396ZM3.92977 6.67698C4.03143 6.59346 4.10087 6.53685 4.15561 6.499C4.2116 6.46022 4.23318 6.45459 4.23881 6.45396L4.19721 6.14399C4.11526 6.15494 4.043 6.19622 3.97701 6.2422C3.90976 6.28881 3.82937 6.35481 3.73147 6.43488L3.92977 6.67698ZM3.66328 6.85245C3.71333 6.8365 3.75555 6.81116 3.79559 6.7827C3.83437 6.75517 3.87848 6.71889 3.92977 6.67698L3.73147 6.43488C3.6933 6.46701 3.65419 6.49799 3.61417 6.52778C3.60009 6.5388 3.5845 6.54775 3.56788 6.55437L3.66328 6.85245ZM3.33392 6.8365C3.43812 6.8816 3.55514 6.88706 3.66328 6.85245L3.56788 6.55437C3.53194 6.56586 3.49306 6.56397 3.4584 6.54905L3.33392 6.8365ZM3.08619 6.63475C3.13311 6.68167 3.17346 6.72233 3.20911 6.75361C3.24602 6.78583 3.28575 6.81554 3.33392 6.8365L3.4584 6.54905C3.44249 6.54075 3.42785 6.53022 3.41493 6.51777C3.37803 6.48413 3.34215 6.4494 3.30733 6.41361L3.08619 6.63475ZM2.80687 6.35543L3.08619 6.63475L3.30733 6.41361L3.02801 6.13429L2.80687 6.35543ZM2.60543 6.1077C2.62639 6.15587 2.65579 6.19528 2.68832 6.23251C2.7196 6.26816 2.76026 6.30851 2.80687 6.35543L3.02801 6.13429C2.99212 6.09948 2.95728 6.06359 2.92354 6.02669C2.91109 6.01377 2.90055 5.99913 2.89226 5.98322L2.60543 6.1077ZM2.58917 5.77834C2.55456 5.88648 2.56034 6.0035 2.60543 6.1077L2.89226 5.98322C2.87724 5.9486 2.87555 5.90972 2.88694 5.87374L2.58917 5.77834ZM2.76464 5.51184C2.72273 5.56314 2.68645 5.60724 2.65892 5.64603C2.62874 5.68612 2.60519 5.73079 2.58917 5.77834L2.88694 5.87374C2.89365 5.8571 2.90271 5.84151 2.91384 5.82745C2.93386 5.7993 2.96232 5.76426 3.00674 5.71015L2.76464 5.51184ZM2.98766 5.20281C2.98672 5.20844 2.9814 5.23002 2.94262 5.28601C2.90446 5.34075 2.84816 5.41019 2.76464 5.51184L3.00674 5.71015C3.08681 5.61225 3.15281 5.53186 3.19942 5.46461C3.2454 5.39893 3.28668 5.32636 3.29763 5.24441L2.98766 5.20281ZM2.9276 5.05768C2.94952 5.07442 2.96663 5.09667 2.97717 5.12216C2.98772 5.14765 2.99134 5.17547 2.98766 5.20281L3.29763 5.24441C3.30863 5.16237 3.29773 5.07887 3.26603 5.0024C3.23434 4.92594 3.18297 4.85921 3.11715 4.80901L2.9276 5.05768ZM2.55132 4.997C2.68238 5.00982 2.77121 5.01858 2.8369 5.03046C2.90383 5.04266 2.92291 5.05392 2.9276 5.05768L3.11715 4.8087C3.05147 4.75865 2.97108 4.73676 2.89195 4.72268C2.81156 4.70829 2.70803 4.69766 2.58229 4.68515L2.55132 4.997ZM2.23853 4.93225C2.28545 4.95633 2.33331 4.96822 2.38179 4.97635C2.42871 4.98448 2.48532 4.99043 2.55132 4.997L2.5826 4.68546C2.5327 4.68112 2.48295 4.67527 2.4334 4.66794C2.41574 4.66581 2.39846 4.66118 2.3821 4.65418L2.23853 4.93225ZM2.01739 4.68765C2.05908 4.79325 2.13765 4.88016 2.23853 4.93225L2.3821 4.65418C2.34847 4.63689 2.32225 4.608 2.30829 4.57286L2.01739 4.68765ZM1.98486 4.37111C1.98486 4.43711 1.98486 4.49435 1.98799 4.54189C1.99002 4.59196 2.00005 4.64138 2.01771 4.68828L2.3086 4.57348C2.3033 4.55646 2.30046 4.53876 2.30015 4.52093C2.29782 4.47092 2.29698 4.42086 2.29765 4.3708L1.98486 4.37111ZM1.98486 3.97575V4.37111H2.29765V3.97575H1.98486ZM2.01771 3.65827C1.99998 3.70536 1.98995 3.755 1.98799 3.80528C1.98486 3.85251 1.98486 3.90975 1.98486 3.97575H2.29765C2.29765 3.90568 2.29765 3.86064 2.30015 3.82592C2.30046 3.80809 2.3033 3.7904 2.3086 3.77337L2.01771 3.65827ZM2.23885 3.41398C2.13802 3.46599 2.05946 3.55278 2.01771 3.65827L2.3086 3.77337C2.32256 3.73823 2.34879 3.70934 2.38242 3.69205L2.23885 3.41398ZM2.55163 3.34923C2.48553 3.35549 2.42902 3.36247 2.3821 3.36956C2.33228 3.37659 2.28391 3.39159 2.23885 3.41398L2.38242 3.69205C2.38867 3.68892 2.40118 3.6836 2.43371 3.67828C2.46812 3.67234 2.51285 3.66796 2.5826 3.66077L2.55163 3.34923ZM2.92792 3.28855C2.92323 3.29231 2.90415 3.30357 2.83721 3.31576C2.77152 3.32765 2.68269 3.3361 2.55163 3.34923L2.5826 3.66077C2.70803 3.64826 2.81219 3.63794 2.89257 3.62355C2.97171 3.60947 3.05209 3.58758 3.11778 3.53722L2.92792 3.28855ZM2.98797 3.14342C2.99165 3.17076 2.98803 3.19858 2.97749 3.22407C2.96694 3.24956 2.94984 3.27181 2.92792 3.28855L3.11778 3.53722C3.18354 3.48698 3.23484 3.42024 3.26649 3.34378C3.29813 3.26731 3.30898 3.18352 3.29794 3.10151L2.98797 3.14342ZM2.76495 2.83407C2.84847 2.93604 2.90508 3.00548 2.94324 3.06022C2.98203 3.11621 2.98703 3.13779 2.98797 3.14342L3.29794 3.10151C3.287 3.01955 3.24571 2.94761 3.19973 2.88162C3.15312 2.81437 3.08713 2.73398 3.00705 2.63608L2.76495 2.83407ZM2.58948 2.56758C2.60512 2.61762 2.63077 2.66016 2.65923 2.7002C2.68676 2.73867 2.72304 2.78309 2.76495 2.83407L3.00705 2.63608C2.97492 2.59781 2.94394 2.55859 2.91415 2.51847C2.90305 2.5045 2.89399 2.48902 2.88725 2.47249L2.58948 2.56758ZM2.60575 2.23852C2.56073 2.34264 2.55495 2.45953 2.58948 2.56758L2.88725 2.47249C2.87586 2.43651 2.87786 2.39763 2.89288 2.36301L2.60575 2.23852ZM2.80718 1.9908C2.76026 2.0374 2.7196 2.07775 2.68832 2.11372C2.6543 2.15064 2.62642 2.19277 2.60575 2.23852L2.89288 2.36301C2.9012 2.34721 2.91174 2.33236 2.92416 2.31954C2.95765 2.28249 2.99239 2.24661 3.02832 2.21194L2.80718 1.9908ZM3.0865 1.71117L2.80718 1.9908L3.02832 2.21194L3.30764 1.93231L3.0865 1.71117ZM3.33423 1.51004C3.28848 1.53071 3.24634 1.55859 3.20943 1.59262C3.17377 1.6239 3.13311 1.66425 3.0865 1.71117L3.30764 1.93231C3.35737 1.88289 3.38928 1.85098 3.41524 1.82815C3.44026 1.80625 3.45215 1.8 3.45872 1.79687L3.33423 1.51004ZM3.66359 1.49347C3.55542 1.45895 3.43839 1.46484 3.33423 1.51004L3.45872 1.79687C3.49333 1.78185 3.53222 1.78016 3.56819 1.79155L3.66359 1.49347ZM3.93009 1.66925C3.87879 1.62734 3.83469 1.59106 3.7959 1.56353C3.75583 1.53324 3.71116 1.50959 3.66359 1.49347L3.56819 1.79155C3.58481 1.79816 3.6004 1.80712 3.61449 1.81814C3.64264 1.83847 3.67767 1.86693 3.73209 1.91135L3.93009 1.66925ZM4.23912 1.89227C4.23349 1.89133 4.21191 1.88601 4.15592 1.84723C4.07856 1.79048 4.00324 1.73133 3.93009 1.66925L3.73209 1.91135C3.82968 1.99142 3.91038 2.05742 3.97732 2.10403C4.043 2.14969 4.11557 2.19098 4.19752 2.20224L4.23912 1.89227ZM4.38425 1.8319C4.36754 1.85388 4.34531 1.87104 4.31982 1.88164C4.29433 1.89225 4.26649 1.89591 4.23912 1.89227L4.19752 2.20224C4.27959 2.21333 4.36313 2.2022 4.43965 2.17055C4.51618 2.13891 4.58297 2.08757 4.63323 2.02176L4.38425 1.8319ZM4.44525 1.45593C4.43211 1.58668 4.42335 1.67582 4.41147 1.74119C4.39927 1.80813 4.38801 1.82721 4.38425 1.8319L4.63323 2.02176C4.68328 1.95608 4.70517 1.87569 4.71925 1.79656C4.73364 1.71617 4.74427 1.61264 4.75678 1.4869L4.44525 1.45593ZM4.50968 1.14314C4.4856 1.19006 4.4734 1.23792 4.46527 1.2864C4.45745 1.33332 4.45182 1.38993 4.44525 1.45593L4.75647 1.48721C4.76082 1.43731 4.76666 1.38756 4.77399 1.33801C4.77612 1.32035 4.78075 1.30307 4.78775 1.28671L4.50968 1.14314ZM4.75428 0.922003C4.64863 0.963771 4.56171 1.04215 4.50968 1.14314L4.78775 1.28671C4.80504 1.25308 4.83393 1.22686 4.86908 1.2129L4.75428 0.922003ZM5.07145 0.88916C5.00545 0.88916 4.94821 0.88916 4.90067 0.892288C4.8506 0.894312 4.80118 0.904344 4.75428 0.922003L4.86908 1.2129C4.8861 1.2076 4.9038 1.20475 4.92162 1.20445C4.95603 1.20195 5.00138 1.20195 5.07176 1.20195L5.07145 0.88916ZM5.46681 0.88916H5.07145V1.20195H5.46681V0.88916ZM5.78429 0.922003C5.7372 0.904279 5.68756 0.894246 5.63728 0.892288C5.59005 0.88916 5.53281 0.88916 5.46681 0.88916V1.20195C5.53688 1.20195 5.58192 1.20195 5.61664 1.20445C5.63447 1.20475 5.65216 1.2076 5.66919 1.2129L5.78429 0.922003ZM6.02858 1.14314C5.97649 1.04226 5.88958 0.963693 5.78398 0.922003L5.66919 1.2129C5.70433 1.22686 5.73322 1.25308 5.75051 1.28671L6.02858 1.14314ZM6.36389 4.17311C6.36389 4.46346 6.24855 4.74192 6.04324 4.94722C5.83793 5.15253 5.55948 5.26787 5.26913 5.26787V5.58066C5.64243 5.58066 6.00045 5.43236 6.26441 5.1684C6.52838 4.90443 6.67667 4.54642 6.67667 4.17311H6.36389ZM5.26913 3.07836C5.55948 3.07836 5.83793 3.1937 6.04324 3.39901C6.24855 3.60431 6.36389 3.88277 6.36389 4.17311H6.67667C6.67667 3.79981 6.52838 3.4418 6.26441 3.17783C6.00045 2.91387 5.64243 2.76557 5.26913 2.76557V3.07836ZM4.17437 4.17311C4.17437 3.88277 4.28971 3.60431 4.49502 3.39901C4.70033 3.1937 4.97878 3.07836 5.26913 3.07836V2.76557C4.89583 2.76557 4.53781 2.91387 4.27385 3.17783C4.00988 3.4418 3.86159 3.79981 3.86159 4.17311H4.17437ZM5.26913 5.26787C4.97878 5.26787 4.70033 5.15253 4.49502 4.94722C4.28971 4.74192 4.17437 4.46346 4.17437 4.17311H3.86159C3.86159 4.54642 4.00988 4.90443 4.27385 5.1684C4.53781 5.43236 4.89583 5.58066 5.26913 5.58066V5.26787Z" fill="white"/>
</g>
<defs>
<clipPath id="clip0_4238_5972">
<rect width="7.5069" height="7.5069" fill="white" transform="translate(0.0229492 0.420898)"/>
</clipPath>
</defs>
</svg>
