<svg width="30" height="29" viewBox="0 0 30 29" fill="none" xmlns="http://www.w3.org/2000/svg">
<g clip-path="url(#clip0_4238_6175)">
<path d="M30.6901 16.9771L30.6305 16.3851L30.6127 16.3863L30.5924 16.3898L30.6901 16.9771ZM30.6901 16.9771L30.7497 17.5704L30.7699 17.568L30.789 17.5644L30.6901 16.9771ZM25.8774 23.5077L26.255 23.0467L26.249 23.0431L25.8774 23.5077ZM25.8774 23.5077L25.4997 23.9687L25.5057 23.9735L25.8774 23.5077ZM14.9225 23.5077L14.5448 23.0478L14.5365 23.055L14.527 23.0633L14.9225 23.5077ZM14.9225 23.5077L15.3001 23.9699L15.3096 23.9615L15.318 23.9544L14.9225 23.5077ZM10.1086 11.888V11.2924H10.08L10.0502 11.2948L10.1086 11.888ZM10.1086 11.888V12.4837H10.1383L10.1681 12.4801L10.1086 11.888ZM23.5353 4.08167C23.5177 3.86566 23.4926 3.65031 23.4603 3.436C23.4335 3.24624 23.3764 3.06202 23.2911 2.8904L22.2321 3.43719C22.244 3.46102 22.2642 3.50867 22.2845 3.63256C22.3071 3.7636 22.3238 3.93395 22.3512 4.19961L23.5353 4.08167ZM23.7688 5.51477C23.7545 5.4969 23.7116 5.42423 23.6652 5.1693C23.6095 4.80839 23.5678 4.44562 23.5377 4.08167L22.3512 4.19961C22.3989 4.6773 22.4382 5.07281 22.493 5.38015C22.5466 5.68035 22.63 5.98651 22.8218 6.23787L23.7688 5.51477ZM24.3216 5.74349C24.2174 5.7575 24.1115 5.74372 24.0144 5.70355C23.9173 5.66338 23.8326 5.59825 23.7688 5.51477L22.8206 6.23667C23.0119 6.48754 23.2662 6.68328 23.5576 6.80401C23.8491 6.92474 24.1674 6.96615 24.48 6.92404L24.3216 5.74349ZM25.4985 4.89412C25.1114 5.21218 24.8469 5.4278 24.6384 5.57195C24.4252 5.71966 24.343 5.73992 24.3216 5.74349L24.48 6.92404C24.7921 6.88234 25.0673 6.72509 25.3187 6.54998C25.5748 6.37129 25.8809 6.12112 26.2538 5.81616L25.4985 4.89412ZM26.5135 4.22581C26.3229 4.28657 26.1621 4.38306 26.0096 4.49147C25.8619 4.5963 25.6939 4.73449 25.4985 4.89412L26.2538 5.81616C26.4599 5.647 26.5933 5.53859 26.7005 5.46235C26.7541 5.41995 26.8135 5.38545 26.8768 5.3599L26.5135 4.22581ZM27.7679 4.28776C27.371 4.11601 26.9254 4.094 26.5135 4.22581L26.8768 5.3599C27.0139 5.31651 27.1619 5.32413 27.2938 5.38134L27.7679 4.28776ZM28.7114 5.05494C28.5327 4.87625 28.379 4.72138 28.2432 4.60225C28.1026 4.47267 27.9422 4.36649 27.7679 4.28776L27.2938 5.38134C27.3188 5.39207 27.3641 5.41708 27.4594 5.50047C27.5582 5.58624 27.6798 5.70775 27.8692 5.89716L28.7114 5.05494ZM29.7752 6.11874L28.7114 5.05494L27.8692 5.89716L28.933 6.96097L29.7752 6.11874ZM30.5424 7.06222C30.4633 6.8879 30.3567 6.72741 30.2267 6.58691C30.1076 6.4511 29.9527 6.29743 29.7752 6.11874L28.933 6.96097C29.1224 7.15038 29.2427 7.27189 29.3309 7.37076C29.4142 7.46606 29.4381 7.51133 29.4488 7.53635L30.5424 7.06222ZM30.6043 8.31663C30.7361 7.90477 30.7141 7.45909 30.5424 7.06222L29.4488 7.53635C29.5056 7.66834 29.5128 7.81642 29.469 7.95329L30.6043 8.31663ZM29.936 9.33159C30.0956 9.13622 30.2338 8.96825 30.3387 8.82053C30.4459 8.66805 30.5436 8.50723 30.6043 8.31663L29.469 7.95329C29.4439 8.01659 29.4098 8.07596 29.3678 8.1296C29.2543 8.282 29.1363 8.43098 29.014 8.57632L29.936 9.33159ZM29.0866 10.5086C29.0902 10.4871 29.1105 10.4049 29.2582 10.1917C29.4023 9.98321 29.6179 9.71875 29.936 9.33159L29.014 8.57632C28.709 8.94919 28.4577 9.25535 28.2802 9.51147C28.105 9.76164 27.9478 10.038 27.9061 10.3501L29.0866 10.5086ZM29.3154 11.0613C29.2319 10.9975 29.1667 10.9128 29.1266 10.8157C29.0864 10.7187 29.0726 10.6127 29.0866 10.5086L27.9061 10.3501C27.8642 10.6626 27.9057 10.9806 28.0264 11.2718C28.1472 11.5631 28.3428 11.8172 28.5935 12.0084L29.3154 11.0613ZM30.7485 11.2936C30.2493 11.2436 29.911 11.2102 29.6608 11.1649C29.4059 11.1185 29.3332 11.0756 29.3154 11.0613L28.5935 12.0084C28.8436 12.199 29.1498 12.2824 29.4512 12.3372C29.7573 12.392 30.1516 12.4325 30.6305 12.4801L30.7485 11.2936ZM31.9397 11.539C31.7681 11.4537 31.5839 11.3966 31.3941 11.3698C31.2154 11.3401 30.9986 11.3186 30.7485 11.2936L30.6293 12.4789C30.8962 12.5063 31.0665 12.523 31.1976 12.5456C31.2648 12.5538 31.3306 12.5714 31.3929 12.598L31.9397 11.539ZM32.782 12.4694C32.6229 12.0676 32.3237 11.7371 31.9397 11.539L31.3929 12.598C31.521 12.6639 31.6209 12.7739 31.6741 12.9078L32.782 12.4694ZM32.907 13.6785C32.907 13.4272 32.907 13.2092 32.8951 13.0281C32.8875 12.837 32.8493 12.6484 32.782 12.4694L31.6741 12.9078C31.6836 12.9328 31.6979 12.9828 31.7062 13.1079C31.7151 13.2984 31.7183 13.4891 31.7158 13.6797L32.907 13.6785ZM32.907 15.1843V13.6785H31.7158V15.1843H32.907ZM32.782 16.3922C32.8558 16.2064 32.8832 16.0206 32.8951 15.8335C32.907 15.6536 32.907 15.4356 32.907 15.1843H31.7158C31.7158 15.4511 31.7158 15.6227 31.7062 15.7549C31.7051 15.8228 31.6943 15.8902 31.6741 15.955L32.782 16.3922ZM31.9397 17.3238C32.3239 17.1254 32.6232 16.7944 32.782 16.3922L31.6741 15.955C31.6209 16.0889 31.521 16.1989 31.3929 16.2648L31.9397 17.3238ZM30.7485 17.5692C30.9986 17.5442 31.2166 17.5216 31.3941 17.4918C31.5788 17.462 31.761 17.4155 31.9385 17.325L31.3929 16.2648C31.3306 16.2914 31.2648 16.3091 31.1976 16.3172C31.0665 16.3398 30.8962 16.3565 30.6305 16.3839L30.7485 17.5692ZM29.3166 17.8015C29.3344 17.7872 29.4071 17.7431 29.662 17.6979C29.9122 17.6526 30.2505 17.618 30.7485 17.5692L30.6305 16.3839C30.1528 16.4315 29.7573 16.4697 29.45 16.5257C29.1498 16.5793 28.8448 16.6627 28.5935 16.8533L29.3166 17.8015ZM29.0866 18.3542C29.0728 18.25 29.0867 18.144 29.1271 18.0469C29.1675 17.9498 29.2329 17.8651 29.3166 17.8015L28.5935 16.8533C28.3426 17.0446 28.1469 17.2989 28.0261 17.5903C27.9054 17.8818 27.864 18.2 27.9061 18.5127L29.0866 18.3542ZM29.936 19.5312C29.7 19.2526 29.4739 18.9657 29.2582 18.6711C29.1105 18.4591 29.0902 18.3757 29.0866 18.3542L27.9073 18.5139C27.949 18.826 28.1062 19.1 28.2802 19.3513C28.4588 19.6063 28.709 19.9136 29.014 20.2853L29.936 19.5312ZM30.6043 20.5462C30.5434 20.3647 30.4537 20.1941 30.3387 20.0411C30.2096 19.8671 30.0753 19.6971 29.936 19.5312L29.014 20.2853C29.1831 20.4926 29.2915 20.6248 29.3678 20.7332C29.4097 20.7865 29.4438 20.8455 29.469 20.9083L30.6043 20.5462ZM30.5424 21.8006C30.7141 21.4037 30.7361 20.958 30.6043 20.5462L29.469 20.9083C29.5131 21.0456 29.5059 21.1941 29.4488 21.3265L30.5424 21.8006ZM29.7764 22.7429C29.9539 22.5654 30.1076 22.4117 30.2267 22.2759C30.3506 22.1341 30.4626 21.9852 30.5424 21.8006L29.4488 21.3265C29.4171 21.3867 29.377 21.442 29.3297 21.4909C29.2015 21.6314 29.0693 21.768 28.933 21.9007L29.7764 22.7429ZM28.7114 23.8079L29.7764 22.7429L28.933 21.9007L27.8692 22.9656L28.7114 23.8079ZM27.7679 24.5739C27.9514 24.494 28.1015 24.3833 28.2432 24.2594C28.379 24.1402 28.5327 23.9854 28.7114 23.8067L27.8692 22.9656C27.6798 23.1551 27.5582 23.2754 27.4594 23.3623C27.4102 23.4098 27.3544 23.4499 27.2938 23.4815L27.7679 24.5739ZM26.5135 24.637C26.9255 24.7684 27.3712 24.746 27.7679 24.5739L27.2938 23.4815C27.1618 23.5383 27.0137 23.5455 26.8768 23.5017L26.5135 24.637ZM25.4985 23.9675C25.6939 24.1271 25.8619 24.2653 26.0096 24.3702C26.1621 24.4786 26.3229 24.5762 26.5135 24.637L26.8768 23.5017C26.8135 23.4765 26.7542 23.4424 26.7005 23.4005C26.5481 23.2866 26.3991 23.1682 26.2538 23.0455L25.4985 23.9675ZM24.3216 23.1193C24.343 23.1217 24.4264 23.1431 24.6384 23.2909C24.8469 23.435 25.1114 23.6506 25.4985 23.9675L26.2538 23.0455C25.8809 22.7417 25.5748 22.4903 25.3187 22.3116C25.0685 22.1377 24.7921 21.9805 24.48 21.9388L24.3216 23.1193ZM23.7688 23.348C23.8326 23.2646 23.9173 23.1994 24.0144 23.1593C24.1115 23.1191 24.2174 23.1053 24.3216 23.1193L24.48 21.9388C24.1676 21.8967 23.8497 21.9381 23.5585 22.0586C23.2673 22.1791 23.0131 22.3745 22.8218 22.6249L23.7688 23.348ZM23.5365 24.7811C23.5866 24.282 23.6199 23.9437 23.6652 23.6935C23.7116 23.4386 23.7545 23.3659 23.7688 23.348L22.8218 22.6249C22.6312 22.8751 22.5478 23.1825 22.493 23.4827C22.4382 23.7888 22.3977 24.1831 22.35 24.662L23.5365 24.7811ZM23.2911 25.9724C23.3829 25.7937 23.4281 25.6115 23.4591 25.4268C23.4901 25.2481 23.5115 25.0313 23.5365 24.7811L22.35 24.662C22.3335 24.8521 22.3124 25.0415 22.2845 25.2302C22.2764 25.2975 22.2587 25.3633 22.2321 25.4256L23.2911 25.9724ZM22.3607 26.8146C22.7625 26.6556 23.093 26.3564 23.2911 25.9724L22.2321 25.4256C22.1662 25.5537 22.0562 25.6536 21.9224 25.7068L22.3607 26.8146ZM21.1516 26.9397C21.403 26.9397 21.621 26.9397 21.802 26.9278C21.9879 26.9159 22.1749 26.8885 22.3607 26.8146L21.9224 25.7068C21.8575 25.7269 21.7901 25.7378 21.7222 25.7389C21.5912 25.7484 21.4184 25.7485 21.1504 25.7485L21.1516 26.9397ZM19.6458 26.9397H21.1516L21.1504 25.7485H19.6458V26.9397ZM18.4367 26.8146C18.6237 26.8885 18.8096 26.9159 18.9966 26.9278C19.1765 26.9397 19.3945 26.9397 19.6458 26.9397V25.7485C19.379 25.7485 19.2075 25.7484 19.0752 25.7389C19.0073 25.7378 18.9399 25.7269 18.8751 25.7068L18.4367 26.8146ZM17.5063 25.9724C17.7044 26.3564 18.035 26.6556 18.4367 26.8146L18.8751 25.7068C18.7413 25.6536 18.6312 25.5537 18.5654 25.4256L17.5063 25.9724ZM17.2609 24.7811C17.2847 25.0329 17.3102 25.2481 17.3372 25.4268C17.3681 25.6115 17.4146 25.7937 17.5063 25.9724L18.5654 25.4256C18.5387 25.3633 18.5211 25.2975 18.5129 25.2302C18.4851 25.0419 18.4628 24.8528 18.4462 24.6632L17.2609 24.7811ZM17.0286 23.348C17.0429 23.3659 17.0858 23.4386 17.1323 23.6935C17.1775 23.9437 17.2109 24.2832 17.2609 24.7811L18.4462 24.6632C18.3986 24.1855 18.3593 23.79 18.3045 23.4827C18.2509 23.1825 18.1675 22.8763 17.9757 22.6249L17.0286 23.348ZM16.4759 23.1193C16.58 23.1053 16.686 23.1191 16.783 23.1593C16.8801 23.1994 16.9648 23.2646 17.0286 23.348L17.9757 22.6249C17.7845 22.3743 17.5304 22.1798 17.2391 22.0591C16.9479 21.9384 16.6299 21.8969 16.3174 21.9388L16.4759 23.1193ZM15.2989 23.9687C15.6861 23.6506 15.9505 23.435 16.159 23.2909C16.3722 23.1431 16.4544 23.1217 16.4759 23.1193L16.3174 21.9388C16.0053 21.9805 15.7301 22.1377 15.4788 22.3128C15.2227 22.4903 14.9165 22.7417 14.5436 23.0467L15.2989 23.9687ZM14.2839 24.637C14.4745 24.5762 14.6354 24.4798 14.7879 24.3713C14.9356 24.2665 15.1035 24.1283 15.2989 23.9687L14.5436 23.0467C14.3983 23.169 14.2493 23.287 14.0969 23.4005C14.0433 23.4424 13.9839 23.4765 13.9206 23.5017L14.2839 24.637ZM13.0295 24.5762C13.4264 24.748 13.8721 24.7688 14.2839 24.637L13.9206 23.5017C13.7837 23.5455 13.6357 23.5383 13.5037 23.4815L13.0295 24.5762ZM12.0861 23.8079C12.2647 23.9866 12.4184 24.1414 12.5542 24.2606C12.6948 24.3833 12.8461 24.4964 13.0295 24.5762L13.5037 23.4815C13.4431 23.4499 13.3873 23.4098 13.3381 23.3623C13.1976 23.2342 13.0609 23.1019 12.9283 22.9656L12.0861 23.8079ZM11.0223 22.7441L12.0861 23.8079L12.9283 22.9656L11.8645 21.9018L11.0223 22.7441ZM10.2551 21.8006C10.3349 21.984 10.4469 22.1341 10.5708 22.2759C10.6899 22.4117 10.8448 22.5654 11.0223 22.7441L11.8645 21.9018C11.7278 21.7693 11.5951 21.6326 11.4666 21.4921C11.4192 21.4428 11.3791 21.3871 11.3475 21.3265L10.2551 21.8006ZM10.1931 20.5462C10.0613 20.958 10.0833 21.4037 10.2551 21.8006L11.3475 21.3265C11.2903 21.1946 11.2838 21.0465 11.3272 20.9095L10.1931 20.5462ZM10.8614 19.5312C10.7018 19.7266 10.5636 19.8946 10.4588 20.0423C10.3439 20.195 10.2542 20.3651 10.1931 20.5462L11.3272 20.9095C11.3528 20.8462 11.3873 20.7868 11.4297 20.7332C11.5059 20.626 11.6143 20.4926 11.7835 20.2865L10.8614 19.5312ZM11.7108 18.3542C11.7072 18.3757 11.687 18.4579 11.5393 18.6711C11.3939 18.8796 11.1795 19.1441 10.8614 19.5312L11.7835 20.2865C12.0884 19.9136 12.3398 19.6075 12.5173 19.3513C12.6924 19.1012 12.8497 18.8248 12.8914 18.5127L11.7108 18.3542ZM11.4821 17.8015C11.5656 17.8653 11.6307 17.95 11.6709 18.0471C11.711 18.1442 11.7248 18.2501 11.7108 18.3542L12.8914 18.5127C12.9332 18.2002 12.8917 17.8822 12.771 17.591C12.6503 17.2998 12.4547 17.0456 12.204 16.8544L11.4821 17.8015ZM10.049 17.5704C10.5481 17.6192 10.8864 17.6526 11.1366 17.6979C11.3915 17.7443 11.4642 17.7872 11.4821 17.8015L12.204 16.8533C11.9538 16.6627 11.6477 16.5793 11.3463 16.5257C11.0401 16.4709 10.6458 16.4304 10.1669 16.3827L10.049 17.5704ZM8.85772 17.3238C9.03641 17.4155 9.21867 17.4608 9.40332 17.4918C9.58201 17.5227 9.79763 17.5454 10.049 17.5704L10.1681 16.3839C9.97808 16.3673 9.78858 16.3451 9.59988 16.3172C9.5326 16.3091 9.46682 16.2914 9.40451 16.2648L8.85772 17.3238ZM8.01549 16.3922C8.17427 16.7944 8.47351 17.1254 8.85772 17.3238L9.40451 16.2648C9.27644 16.1989 9.17656 16.0889 9.12337 15.955L8.01549 16.3922ZM7.8916 15.1867C7.8916 15.438 7.8916 15.656 7.90351 15.8371C7.91122 16.0278 7.94943 16.216 8.01668 16.3946L9.12456 15.9574C9.10439 15.8926 9.09356 15.8252 9.0924 15.7573C9.0835 15.5668 9.08033 15.3761 9.08287 15.1855L7.8916 15.1867ZM7.8916 13.6809V15.1867H9.08287V13.6809H7.8916ZM8.01668 12.4718C7.94918 12.6511 7.91097 12.8402 7.90351 13.0317C7.8916 13.2115 7.8916 13.4296 7.8916 13.6809H9.08287C9.08287 13.4141 9.08287 13.2425 9.0924 13.1103C9.09356 13.0424 9.10439 12.975 9.12456 12.9102L8.01668 12.4718ZM8.85891 11.5414C8.47492 11.7395 8.17571 12.07 8.01668 12.4718L9.12456 12.9102C9.17775 12.7763 9.27763 12.6663 9.4057 12.6004L8.85891 11.5414ZM10.0502 11.2948C9.79842 11.3186 9.5832 11.3452 9.40451 11.3722C9.21475 11.399 9.03053 11.4561 8.85891 11.5414L9.4057 12.6004C9.42953 12.5885 9.47718 12.5683 9.60107 12.548C9.73211 12.5254 9.90246 12.5087 10.1681 12.4813L10.0502 11.2948ZM11.4833 11.0637C11.4654 11.078 11.3927 11.1209 11.1378 11.1673C10.8876 11.2126 10.5493 11.2448 10.0502 11.2948L10.1681 12.4813C10.6458 12.4337 11.0425 12.3943 11.3487 12.3395C11.6501 12.2859 11.9562 12.2025 12.2064 12.0107L11.4833 11.0637ZM11.712 10.5109C11.726 10.6151 11.7122 10.721 11.6721 10.8181C11.6319 10.9152 11.5668 10.9999 11.4833 11.0637L12.2064 12.0107C12.4568 11.8194 12.6522 11.5652 12.7727 11.274C12.8932 10.9828 12.9346 10.6637 12.8925 10.3513L11.712 10.5109ZM10.8626 9.33278C11.1807 9.72113 11.3963 9.98559 11.5416 10.1941C11.6894 10.4073 11.7084 10.4895 11.712 10.5109L12.8925 10.3513C12.8509 10.0392 12.6936 9.76521 12.5185 9.51385C12.341 9.25773 12.0896 8.95157 11.7847 8.57871L10.8626 9.33278ZM10.1943 8.31782C10.2539 8.50842 10.3516 8.67043 10.46 8.82292C10.5648 8.96944 10.703 9.1386 10.8626 9.33278L11.7847 8.57871C11.6623 8.43297 11.5443 8.2836 11.4309 8.13079C11.3886 8.07759 11.3541 8.01862 11.3284 7.95567L10.1943 8.31782ZM10.2563 7.06461C10.0848 7.46112 10.0628 7.90633 10.1943 8.31782L11.3284 7.95567C11.285 7.81866 11.2926 7.67057 11.3499 7.53873L10.2563 7.06461ZM11.0234 6.12112C10.8448 6.29862 10.6899 6.45229 10.5708 6.58929C10.4412 6.72988 10.335 6.89036 10.2563 7.06461L11.3499 7.53873C11.3815 7.47854 11.4217 7.42199 11.469 7.37314C11.5965 7.23206 11.7288 7.09538 11.8657 6.96335L11.0234 6.12112ZM12.0872 5.05613L11.0234 6.12112L11.8657 6.96335L12.9295 5.89835L12.0872 5.05613ZM13.0307 4.29014C12.8565 4.36887 12.696 4.47505 12.5554 4.60464C12.4196 4.72376 12.2647 4.87744 12.0872 5.05613L12.9295 5.89835C13.1189 5.71013 13.2404 5.58862 13.3393 5.50166C13.4346 5.41827 13.4798 5.39445 13.5049 5.38254L13.0307 4.29014ZM14.2851 4.22701C13.8731 4.09557 13.4275 4.118 13.0307 4.29014L13.5049 5.38254C13.6367 5.32532 13.7848 5.31889 13.9218 5.36228L14.2851 4.22701ZM15.3001 4.8965C15.1047 4.73687 14.9368 4.59868 14.789 4.49385C14.6364 4.3785 14.4663 4.28841 14.2851 4.22701L13.9218 5.36228C13.9851 5.38746 14.0445 5.42156 14.0981 5.46354C14.2053 5.54097 14.3387 5.64938 14.546 5.81854L15.3001 4.8965ZM16.4771 5.74587C16.4556 5.7423 16.3734 5.72205 16.1602 5.57433C15.8656 5.35821 15.5787 5.13291 15.3001 4.8965L14.546 5.81854C14.9177 6.1235 15.225 6.37486 15.48 6.55236C15.7301 6.72629 16.0065 6.88353 16.3186 6.92642L16.4771 5.74587ZM17.0298 5.51596C16.9662 5.59966 16.8815 5.66502 16.7844 5.7054C16.6873 5.74579 16.5813 5.75975 16.4771 5.74587L16.3186 6.92642C16.6312 6.96867 16.9493 6.92625 17.2408 6.80573C17.5323 6.68521 17.7866 6.4897 17.9781 6.23906L17.0298 5.51596ZM17.2621 4.08405C17.2121 4.582 17.1787 4.92151 17.1335 5.17049C17.087 5.42542 17.0441 5.49809 17.0298 5.51596L17.9781 6.23906C18.1687 5.98889 18.2521 5.68273 18.3057 5.38134C18.3605 5.07519 18.401 4.68088 18.4486 4.20199L17.2621 4.08405ZM17.5075 2.89279C17.4158 3.07148 17.3693 3.25374 17.3384 3.43839C17.3086 3.61708 17.2871 3.8327 17.2621 4.08405L18.4474 4.20318C18.464 4.01314 18.4862 3.82365 18.5141 3.63495C18.5223 3.56767 18.5399 3.50189 18.5666 3.43958L17.5075 2.89279ZM18.4391 2.05056C18.0367 2.20963 17.7057 2.50813 17.5075 2.89279L18.5666 3.43958C18.6324 3.3115 18.7424 3.21163 18.8763 3.15844L18.4391 2.05056ZM19.647 1.92548C19.3957 1.92548 19.1777 1.92548 18.9966 1.93739C18.8059 1.9451 18.6177 1.98331 18.4391 2.05056L18.8763 3.15844C18.9411 3.13826 19.0085 3.12743 19.0764 3.12627C19.2075 3.11674 19.3802 3.11674 19.6482 3.11674L19.647 1.92548ZM21.1528 1.92548H19.647V3.11674H21.1528V1.92548ZM22.3619 2.05056C22.1826 1.98306 21.9935 1.94484 21.802 1.93739C21.6222 1.92548 21.4042 1.92548 21.1528 1.92548V3.11674C21.4196 3.11674 21.5912 3.11674 21.7234 3.12627C21.7913 3.12743 21.8587 3.13826 21.9235 3.15844L22.3619 2.05056ZM23.2923 2.89279C23.0939 2.50858 22.7629 2.20934 22.3607 2.05056L21.9235 3.15844C22.0574 3.21163 22.1674 3.3115 22.2333 3.43958L23.2923 2.89279ZM24.5694 14.4326C24.5694 15.5384 24.1301 16.5989 23.3482 17.3808C22.5662 18.1628 21.5057 18.602 20.3999 18.602V19.7933C21.8217 19.7933 23.1852 19.2285 24.1905 18.2232C25.1958 17.2179 25.7606 15.8543 25.7606 14.4326H24.5694ZM20.3999 10.2632C21.5057 10.2632 22.5662 10.7024 23.3482 11.4844C24.1301 12.2663 24.5694 13.3268 24.5694 14.4326H25.7606C25.7606 13.0108 25.1958 11.6473 24.1905 10.642C23.1852 9.63668 21.8217 9.07189 20.3999 9.07189V10.2632ZM16.2305 14.4326C16.2305 13.3268 16.6698 12.2663 17.4517 11.4844C18.2336 10.7024 19.2941 10.2632 20.3999 10.2632V9.07189C18.9782 9.07189 17.6147 9.63668 16.6093 10.642C15.604 11.6473 15.0392 13.0108 15.0392 14.4326H16.2305ZM20.3999 18.602C19.2941 18.602 18.2336 18.1628 17.4517 17.3808C16.6698 16.5989 16.2305 15.5384 16.2305 14.4326H15.0392C15.0392 15.8543 15.604 17.2179 16.6093 18.2232C17.6147 19.2285 18.9782 19.7933 20.3999 19.7933V18.602Z" fill="white"/>
</g>
<defs>
<clipPath id="clip0_4238_6175">
<rect width="28.5904" height="28.5904" fill="white" transform="translate(0.419922 0.141022)"/>
</clipPath>
</defs>
</svg>
