<svg width="20" height="20" viewBox="0 0 20 20" fill="none" xmlns="http://www.w3.org/2000/svg">
<g clip-path="url(#clip0_4293_4955)">
<path d="M15.6777 11.5978L15.6373 11.1967L15.6252 11.1975L15.6115 11.2L15.6777 11.5978ZM15.6777 11.5978L15.718 11.9996L15.7318 11.998L15.7447 11.9956L15.6777 11.5978ZM12.4177 16.0213L12.6735 15.709L12.6695 15.7066L12.4177 16.0213ZM12.4177 16.0213L12.1619 16.3336L12.166 16.3368L12.4177 16.0213ZM4.9973 16.0213L4.74151 15.7098L4.73586 15.7147L4.72941 15.7203L4.9973 16.0213ZM4.9973 16.0213L5.2531 16.3344L5.25955 16.3287L5.2652 16.3239L4.9973 16.0213ZM1.73654 8.15061V7.74715H1.71717L1.697 7.74877L1.73654 8.15061ZM1.73654 8.15061V8.55407H1.75671L1.77689 8.55165L1.73654 8.15061ZM10.8313 2.86287C10.8194 2.71655 10.8024 2.57068 10.7805 2.42552C10.7624 2.29698 10.7237 2.1722 10.6659 2.05595L9.94856 2.42632C9.95663 2.44246 9.97035 2.47474 9.98407 2.55866C9.9994 2.64742 10.0107 2.76281 10.0293 2.94275L10.8313 2.86287ZM10.9895 3.83359C10.9798 3.82149 10.9508 3.77227 10.9193 3.59959C10.8816 3.35512 10.8533 3.10939 10.8329 2.86287L10.0293 2.94275C10.0615 3.26633 10.0882 3.53423 10.1253 3.74241C10.1616 3.94575 10.2181 4.15313 10.348 4.32339L10.9895 3.83359ZM11.3639 3.98852C11.2934 3.99801 11.2216 3.98868 11.1558 3.96147C11.0901 3.93426 11.0327 3.89014 10.9895 3.83359L10.3472 4.32259C10.4768 4.49251 10.649 4.6251 10.8465 4.70688C11.0439 4.78866 11.2594 4.81671 11.4712 4.78818L11.3639 3.98852ZM12.1611 3.41319C11.8989 3.62864 11.7198 3.77469 11.5785 3.87232C11.4341 3.97238 11.3784 3.9861 11.3639 3.98852L11.4712 4.78818C11.6826 4.75994 11.869 4.65342 12.0393 4.53481C12.2128 4.41377 12.4202 4.24432 12.6727 4.03774L12.1611 3.41319ZM12.8486 2.96051C12.7195 3.00166 12.6106 3.06702 12.5073 3.14045C12.4072 3.21146 12.2935 3.30506 12.1611 3.41319L12.6727 4.03774C12.8123 3.92316 12.9027 3.84973 12.9753 3.79809C13.0116 3.76937 13.0518 3.74681 13.0947 3.7295L12.8486 2.96051ZM13.6983 3.00247C13.4295 2.88613 13.1276 2.87122 12.8486 2.96051L13.0947 3.7295C13.1876 3.70011 13.2879 3.70446 13.3772 3.74322L13.6983 3.00247ZM14.3374 3.52212C14.2164 3.40108 14.1123 3.29618 14.0203 3.21549C13.925 3.12772 13.8163 3.05579 13.6983 3.00247L13.3772 3.74322C13.3941 3.75048 13.4248 3.76743 13.4893 3.82391C13.5563 3.88201 13.6386 3.96431 13.7669 4.09261L14.3374 3.52212ZM15.058 4.2427L14.3374 3.52212L13.7669 4.09261L14.4875 4.81319L15.058 4.2427ZM15.5776 4.88178C15.5241 4.7637 15.4519 4.65499 15.3638 4.55982C15.2831 4.46783 15.1782 4.36374 15.058 4.2427L14.4875 4.81319C14.6158 4.94149 14.6973 5.0238 14.757 5.09077C14.8135 5.15533 14.8296 5.18599 14.8369 5.20294L15.5776 4.88178ZM15.6196 5.73147C15.7089 5.45249 15.694 5.1506 15.5776 4.88178L14.8369 5.20294C14.8754 5.29234 14.8802 5.39264 14.8506 5.48536L15.6196 5.73147ZM15.1669 6.41896C15.275 6.28663 15.3686 6.17285 15.4397 6.07279C15.5123 5.96951 15.5784 5.86058 15.6196 5.73147L14.8506 5.48536C14.8335 5.52823 14.8105 5.56845 14.782 5.60478C14.7052 5.70801 14.6252 5.80892 14.5424 5.90738L15.1669 6.41896ZM14.5916 7.2162C14.594 7.20168 14.6077 7.146 14.7078 7.00156C14.8054 6.86035 14.9515 6.68121 15.1669 6.41896L14.5424 5.90738C14.3358 6.15994 14.1655 6.36732 14.0453 6.54081C13.9267 6.71026 13.8202 6.89747 13.7919 7.10888L14.5916 7.2162ZM14.7465 7.59061C14.69 7.54741 14.6458 7.49002 14.6186 7.42427C14.5914 7.35851 14.5821 7.28673 14.5916 7.2162L13.7919 7.10888C13.7635 7.32053 13.7917 7.53593 13.8734 7.7332C13.9552 7.93048 14.0877 8.1026 14.2575 8.23211L14.7465 7.59061ZM15.7172 7.74796C15.3791 7.71407 15.15 7.69148 14.9805 7.66081C14.8078 7.62934 14.7586 7.60029 14.7465 7.59061L14.2575 8.23211C14.427 8.36122 14.6343 8.4177 14.8385 8.45482C15.0459 8.49194 15.313 8.51938 15.6373 8.55165L15.7172 7.74796ZM16.5242 7.91419C16.4079 7.85642 16.2831 7.81773 16.1546 7.7996C16.0335 7.77943 15.8867 7.76491 15.7172 7.74796L15.6365 8.55084C15.8173 8.5694 15.9327 8.5807 16.0214 8.59603C16.067 8.60153 16.1116 8.61349 16.1538 8.63154L16.5242 7.91419ZM17.0946 8.54439C16.9869 8.27226 16.7843 8.04837 16.5242 7.91419L16.1538 8.63154C16.2405 8.67615 16.3082 8.75068 16.3442 8.84134L17.0946 8.54439ZM17.1794 9.36341C17.1794 9.19315 17.1794 9.04549 17.1713 8.92283C17.1662 8.7934 17.1403 8.66562 17.0946 8.54439L16.3442 8.84134C16.3507 8.85828 16.3603 8.89217 16.366 8.9769C16.372 9.10591 16.3742 9.23508 16.3725 9.36422L17.1794 9.36341ZM17.1794 10.3834V9.36341L16.3725 9.36422V10.3834H17.1794ZM17.0946 11.2016C17.1447 11.0757 17.1632 10.9498 17.1713 10.8231C17.1794 10.7013 17.1794 10.5536 17.1794 10.3834H16.3725C16.3725 10.5641 16.3725 10.6803 16.366 10.7699C16.3652 10.8159 16.3579 10.8615 16.3442 10.9054L17.0946 11.2016ZM16.5242 11.8326C16.7844 11.6982 16.9871 11.474 17.0946 11.2016L16.3442 10.9054C16.3082 10.9961 16.2405 11.0706 16.1538 11.1152L16.5242 11.8326ZM15.7172 11.9988C15.8867 11.9819 16.0344 11.9665 16.1546 11.9464C16.2797 11.9262 16.4031 11.8947 16.5233 11.8334L16.1538 11.1152C16.1116 11.1333 16.067 11.1452 16.0214 11.1507C15.9327 11.1661 15.8173 11.1782 15.6373 11.1967L15.7172 11.9988ZM14.7473 12.1562C14.7594 12.1465 14.8086 12.1166 14.9813 12.086C15.1508 12.0553 15.3799 12.0319 15.7172 11.9988L15.6373 11.1967C15.3138 11.229 15.0459 11.254 14.8377 11.292C14.6343 11.3283 14.4278 11.3847 14.2575 11.5139L14.7473 12.1562ZM14.5916 12.5306C14.5822 12.46 14.5916 12.3881 14.619 12.3224C14.6463 12.2566 14.6906 12.1993 14.7473 12.1562L14.2575 11.5139C14.0876 11.6434 13.955 11.8157 13.8732 12.0131C13.7914 12.2106 13.7634 12.4261 13.7919 12.6379L14.5916 12.5306ZM15.1669 13.3278C15.007 13.1391 14.8539 12.9448 14.7078 12.7452C14.6077 12.6016 14.594 12.5451 14.5916 12.5306L13.7927 12.6387C13.821 12.8501 13.9275 13.0357 14.0453 13.206C14.1663 13.3786 14.3358 13.5868 14.5424 13.8386L15.1669 13.3278ZM15.6196 14.0153C15.5783 13.8924 15.5176 13.7768 15.4397 13.6732C15.3523 13.5553 15.2613 13.4401 15.1669 13.3278L14.5424 13.8386C14.6569 13.979 14.7304 14.0686 14.782 14.142C14.8104 14.1781 14.8335 14.218 14.8506 14.2606L15.6196 14.0153ZM15.5776 14.865C15.694 14.5962 15.7089 14.2943 15.6196 14.0153L14.8506 14.2606C14.8804 14.3536 14.8756 14.4542 14.8369 14.5438L15.5776 14.865ZM15.0588 15.5033C15.179 15.383 15.2831 15.2789 15.3638 15.187C15.4477 15.0909 15.5236 14.9901 15.5776 14.865L14.8369 14.5438C14.8154 14.5846 14.7883 14.6221 14.7562 14.6552C14.6694 14.7504 14.5798 14.8429 14.4875 14.9328L15.0588 15.5033ZM14.3374 16.2247L15.0588 15.5033L14.4875 14.9328L13.7669 15.6542L14.3374 16.2247ZM13.6983 16.7435C13.8226 16.6894 13.9243 16.6144 14.0203 16.5305C14.1123 16.4498 14.2164 16.3457 14.3374 16.2247L13.7669 15.6542C13.6386 15.7825 13.5563 15.864 13.4893 15.9229C13.456 15.955 13.4182 15.9822 13.3772 16.0036L13.6983 16.7435ZM12.8486 16.7863C13.1277 16.8753 13.4296 16.8601 13.6983 16.7435L13.3772 16.0036C13.2878 16.042 13.1875 16.0469 13.0947 16.0173L12.8486 16.7863ZM12.1611 16.3328C12.2935 16.4409 12.4072 16.5345 12.5073 16.6055C12.6106 16.6789 12.7195 16.7451 12.8486 16.7863L13.0947 16.0173C13.0519 16.0002 13.0117 15.9771 12.9753 15.9487C12.8721 15.8716 12.7712 15.7914 12.6727 15.7082L12.1611 16.3328ZM11.3639 15.7583C11.3784 15.7599 11.4349 15.7744 11.5785 15.8744C11.7198 15.9721 11.8989 16.1181 12.1611 16.3328L12.6727 15.7082C12.4202 15.5025 12.2128 15.3322 12.0393 15.2112C11.8698 15.0934 11.6826 14.9868 11.4712 14.9586L11.3639 15.7583ZM10.9895 15.9132C11.0327 15.8566 11.0901 15.8125 11.1558 15.7853C11.2216 15.7581 11.2934 15.7488 11.3639 15.7583L11.4712 14.9586C11.2596 14.9301 11.0443 14.9581 10.847 15.0398C10.6498 15.1214 10.4776 15.2537 10.348 15.4234L10.9895 15.9132ZM10.8321 16.8839C10.866 16.5458 10.8886 16.3166 10.9193 16.1472C10.9508 15.9745 10.9798 15.9253 10.9895 15.9132L10.348 15.4234C10.2189 15.5928 10.1624 15.801 10.1253 16.0044C10.0882 16.2117 10.0607 16.4788 10.0284 16.8032L10.8321 16.8839ZM10.6659 17.6908C10.728 17.5698 10.7587 17.4463 10.7797 17.3213C10.8007 17.2002 10.8152 17.0534 10.8321 16.8839L10.0284 16.8032C10.0172 16.9319 10.003 17.0603 9.98407 17.1881C9.97857 17.2337 9.96661 17.2782 9.94856 17.3204L10.6659 17.6908ZM10.0357 18.2613C10.3078 18.1536 10.5317 17.9509 10.6659 17.6908L9.94856 17.3204C9.90395 17.4072 9.82942 17.4749 9.73876 17.5109L10.0357 18.2613ZM9.21669 18.346C9.38695 18.346 9.53461 18.346 9.65727 18.338C9.78314 18.3299 9.90983 18.3113 10.0357 18.2613L9.73876 17.5109C9.69484 17.5245 9.64919 17.5319 9.6032 17.5327C9.51444 17.5391 9.39744 17.5391 9.21588 17.5391L9.21669 18.346ZM8.19674 18.346H9.21669L9.21588 17.5391H8.19674V18.346ZM7.37772 18.2613C7.5044 18.3113 7.63028 18.3299 7.75697 18.338C7.87881 18.346 8.02648 18.346 8.19674 18.346V17.5391C8.01599 17.5391 7.89979 17.5391 7.81023 17.5327C7.76423 17.5319 7.71859 17.5245 7.67466 17.5109L7.37772 18.2613ZM6.74751 17.6908C6.8817 17.9509 7.10558 18.1536 7.37772 18.2613L7.67466 17.5109C7.58401 17.4749 7.50948 17.4072 7.46486 17.3204L6.74751 17.6908ZM6.58129 16.8839C6.59743 17.0544 6.61464 17.2002 6.63293 17.3213C6.65391 17.4463 6.68538 17.5698 6.74751 17.6908L7.46486 17.3204C7.44682 17.2782 7.43486 17.2337 7.42936 17.1881C7.41047 17.0606 7.3954 16.9325 7.38417 16.804L6.58129 16.8839ZM6.42394 15.9132C6.43362 15.9253 6.46267 15.9745 6.49414 16.1472C6.5248 16.3166 6.5474 16.5466 6.58129 16.8839L7.38417 16.804C7.3519 16.4804 7.32527 16.2125 7.28815 16.0044C7.25184 15.801 7.19535 15.5936 7.06544 15.4234L6.42394 15.9132ZM6.04953 15.7583C6.12005 15.7488 6.19184 15.7581 6.25759 15.7853C6.32335 15.8125 6.38074 15.8566 6.42394 15.9132L7.06544 15.4234C6.93593 15.2536 6.7638 15.1219 6.56653 15.0401C6.36926 14.9583 6.15386 14.9302 5.94221 14.9586L6.04953 15.7583ZM5.25229 16.3336C5.51454 16.1181 5.69368 15.9721 5.83489 15.8744C5.97933 15.7744 6.035 15.7599 6.04953 15.7583L5.94221 14.9586C5.73079 14.9868 5.5444 15.0934 5.37414 15.212C5.20065 15.3322 4.99327 15.5025 4.7407 15.709L5.25229 16.3336ZM4.5648 16.7863C4.6939 16.7451 4.80284 16.6798 4.90612 16.6063C5.00618 16.5353 5.11996 16.4417 5.25229 16.3336L4.7407 15.709C4.64225 15.7919 4.54134 15.8718 4.43811 15.9487C4.40177 15.9771 4.36156 16.0002 4.31868 16.0173L4.5648 16.7863ZM3.71511 16.7451C3.98393 16.8615 4.28582 16.8756 4.5648 16.7863L4.31868 16.0173C4.22597 16.0469 4.12567 16.042 4.03626 16.0036L3.71511 16.7451ZM3.07603 16.2247C3.19707 16.3457 3.30116 16.4506 3.39315 16.5313C3.48836 16.6144 3.59084 16.6911 3.71511 16.7451L4.03626 16.0036C3.99521 15.9822 3.95744 15.955 3.9241 15.9229C3.82891 15.8361 3.73635 15.7465 3.64652 15.6542L3.07603 16.2247ZM2.35545 15.5041L3.07603 16.2247L3.64652 15.6542L2.92594 14.9336L2.35545 15.5041ZM1.83579 14.865C1.88986 14.9893 1.96571 15.0909 2.04963 15.187C2.13032 15.2789 2.23522 15.383 2.35545 15.5041L2.92594 14.9336C2.83335 14.8438 2.74347 14.7512 2.65643 14.656C2.62431 14.6227 2.59713 14.5849 2.57574 14.5438L1.83579 14.865ZM1.79383 14.0153C1.70454 14.2943 1.71945 14.5962 1.83579 14.865L2.57574 14.5438C2.53698 14.4545 2.53344 14.3542 2.56283 14.2614L1.79383 14.0153ZM2.24651 13.3278C2.13839 13.4601 2.04478 13.5739 1.97378 13.674C1.89593 13.7774 1.83518 13.8926 1.79383 14.0153L2.56283 14.2614C2.58013 14.2185 2.60269 14.1783 2.63141 14.142C2.68306 14.0694 2.75649 13.979 2.87107 13.8394L2.24651 13.3278ZM2.82185 12.5306C2.81943 12.5451 2.80571 12.6008 2.70565 12.7452C2.60721 12.8864 2.46196 13.0656 2.24651 13.3278L2.87107 13.8394C3.07764 13.5868 3.2479 13.3795 3.36813 13.206C3.48675 13.0365 3.59326 12.8493 3.62151 12.6379L2.82185 12.5306ZM2.66692 12.1562C2.72347 12.1994 2.76759 12.2568 2.7948 12.3225C2.822 12.3883 2.83134 12.46 2.82185 12.5306L3.62151 12.6379C3.64988 12.4262 3.62176 12.2108 3.53999 12.0136C3.45822 11.8163 3.32571 11.6442 3.15591 11.5147L2.66692 12.1562ZM1.6962 11.9996C2.03429 12.0327 2.26346 12.0553 2.43291 12.086C2.60559 12.1174 2.65482 12.1465 2.66692 12.1562L3.15591 11.5147C2.98646 11.3856 2.77908 11.3283 2.57493 11.292C2.36755 11.2548 2.10046 11.2274 1.77608 11.1951L1.6962 11.9996ZM0.889275 11.8326C1.01031 11.8947 1.13377 11.9254 1.25884 11.9464C1.37988 11.9673 1.52594 11.9827 1.6962 11.9996L1.77689 11.1959C1.64816 11.1847 1.51981 11.1697 1.39199 11.1507C1.34641 11.1452 1.30186 11.1333 1.25965 11.1152L0.889275 11.8326ZM0.318783 11.2016C0.426335 11.474 0.629027 11.6982 0.889275 11.8326L1.25965 11.1152C1.1729 11.0706 1.10525 10.9961 1.06922 10.9054L0.318783 11.2016ZM0.234863 10.385C0.234863 10.5552 0.234863 10.7029 0.242932 10.8256C0.248155 10.9547 0.274035 11.0822 0.31959 11.2032L1.07003 10.9071C1.05636 10.8631 1.04902 10.8175 1.04824 10.7715C1.04221 10.6425 1.04006 10.5133 1.04178 10.3842L0.234863 10.385ZM0.234863 9.36503V10.385L1.04178 10.3842V9.36503H0.234863ZM0.31959 8.5452C0.273866 8.66669 0.247983 8.79555 0.242932 8.92526C0.234863 9.0471 0.234863 9.19477 0.234863 9.36503H1.04178C1.04178 9.18428 1.04178 9.06808 1.04824 8.97851C1.04902 8.93252 1.05636 8.88687 1.07003 8.84295L0.31959 8.5452ZM0.890082 7.91499C0.629979 8.04918 0.427306 8.27306 0.31959 8.5452L1.07003 8.84295C1.10605 8.75229 1.1737 8.67776 1.26046 8.63315L0.890082 7.91499ZM1.697 7.74877C1.52647 7.76491 1.38069 7.78293 1.25965 7.80122C1.13111 7.81935 1.00633 7.85723 0.890082 7.91499L1.26046 8.63315C1.2766 8.62508 1.30887 8.61136 1.39279 8.59765C1.48155 8.58232 1.59694 8.57021 1.77689 8.55165L1.697 7.74877ZM2.66773 7.59142C2.65562 7.6011 2.6064 7.63096 2.43372 7.66243C2.26427 7.69309 2.0351 7.71488 1.697 7.74877L1.77689 8.55165C2.10046 8.51938 2.36917 8.49355 2.57654 8.45644C2.7807 8.42012 2.98807 8.36364 3.15753 8.23373L2.66773 7.59142ZM2.82265 7.21781C2.83214 7.28834 2.82281 7.36012 2.7956 7.42588C2.76839 7.49163 2.72428 7.54822 2.66773 7.59142L3.15753 8.23373C3.32718 8.10412 3.45953 7.93196 3.54115 7.73469C3.62278 7.53742 3.65078 7.32127 3.62231 7.10969L2.82265 7.21781ZM2.24732 6.41977C2.46277 6.68283 2.60882 6.86196 2.70727 7.00317C2.80732 7.14761 2.82023 7.20329 2.82265 7.21781L3.62231 7.10969C3.59407 6.89827 3.48756 6.71268 3.36894 6.54242C3.24871 6.36893 3.07845 6.16156 2.87188 5.90899L2.24732 6.41977ZM1.79464 5.73228C1.83499 5.86138 1.90115 5.97112 1.97458 6.07441C2.04559 6.17366 2.13919 6.28824 2.24732 6.41977L2.87188 5.90899C2.78898 5.81027 2.70906 5.70909 2.63222 5.60559C2.60357 5.56955 2.5802 5.52961 2.56283 5.48697L1.79464 5.73228ZM1.8366 4.8834C1.72046 5.15198 1.70555 5.45355 1.79464 5.73228L2.56283 5.48697C2.53344 5.39416 2.5386 5.29385 2.57735 5.20455L1.8366 4.8834ZM2.35626 4.24431C2.23522 4.36455 2.13032 4.46864 2.04963 4.56143C1.96185 4.65667 1.88993 4.76537 1.8366 4.8834L2.57735 5.20455C2.59881 5.16378 2.62598 5.12548 2.65804 5.09239C2.74442 4.99682 2.83404 4.90424 2.92675 4.81481L2.35626 4.24431ZM3.07683 3.52293L2.35626 4.24431L2.92675 4.81481L3.64733 4.09342L3.07683 3.52293ZM3.71592 3.00408C3.59789 3.05741 3.48919 3.12933 3.39395 3.21711C3.30197 3.2978 3.19707 3.40189 3.07683 3.52293L3.64733 4.09342C3.77563 3.96593 3.85793 3.88362 3.92491 3.82472C3.98946 3.76823 4.02012 3.75209 4.03707 3.74402L3.71592 3.00408ZM4.5656 2.96131C4.28653 2.87228 3.98464 2.88747 3.71592 3.00408L4.03707 3.74402C4.12637 3.70527 4.22668 3.70092 4.31949 3.73031L4.5656 2.96131ZM5.2531 3.4148C5.12076 3.30667 5.00699 3.21307 4.90693 3.14206C4.80356 3.06393 4.68832 3.0029 4.5656 2.96131L4.31949 3.73031C4.36236 3.74736 4.40258 3.77046 4.43892 3.7989C4.51154 3.85135 4.60191 3.92477 4.74232 4.03936L5.2531 3.4148ZM6.05033 3.99014C6.03581 3.98771 5.98013 3.974 5.83569 3.87394C5.63613 3.72755 5.44181 3.57494 5.2531 3.4148L4.74232 4.03936C4.99408 4.24593 5.20226 4.41619 5.37494 4.53642C5.5444 4.65423 5.7316 4.76074 5.94301 4.78979L6.05033 3.99014ZM6.42474 3.8344C6.38164 3.8911 6.32429 3.93537 6.25853 3.96272C6.19277 3.99008 6.12093 3.99953 6.05033 3.99014L5.94301 4.78979C6.15472 4.81841 6.37024 4.78968 6.56766 4.70804C6.76508 4.62641 6.93738 4.49398 7.06705 4.3242L6.42474 3.8344ZM6.58209 2.86448C6.5482 3.20177 6.52561 3.43175 6.49495 3.60039C6.46348 3.77307 6.43443 3.8223 6.42474 3.8344L7.06705 4.3242C7.19616 4.15475 7.25264 3.94737 7.28896 3.74322C7.32607 3.53584 7.35351 3.26875 7.38579 2.94437L6.58209 2.86448ZM6.74832 2.05756C6.68619 2.1786 6.65472 2.30206 6.63374 2.42713C6.61356 2.54817 6.59904 2.69422 6.58209 2.86448L7.38498 2.94517C7.39619 2.81645 7.41126 2.68809 7.43017 2.56027C7.43567 2.5147 7.44762 2.47014 7.46567 2.42794L6.74832 2.05756ZM7.37933 1.48707C7.10676 1.59482 6.88255 1.79701 6.74832 2.05756L7.46567 2.42794C7.51028 2.34118 7.58482 2.27353 7.67547 2.23751L7.37933 1.48707ZM8.19755 1.40234C8.02729 1.40234 7.87962 1.40234 7.75697 1.41041C7.6278 1.41564 7.50031 1.44152 7.37933 1.48707L7.67547 2.23751C7.71939 2.22384 7.76504 2.2165 7.81103 2.21572C7.89979 2.20926 8.0168 2.20926 8.19836 2.20926L8.19755 1.40234ZM9.21749 1.40234H8.19755L8.19836 2.20926H9.21749V1.40234ZM10.0365 1.48707C9.91503 1.44135 9.78698 1.41546 9.65727 1.41041C9.53542 1.40234 9.38776 1.40234 9.21749 1.40234V2.20926C9.39824 2.20926 9.51444 2.20926 9.60401 2.21572C9.65 2.2165 9.69565 2.22384 9.73957 2.23751L10.0365 1.48707ZM10.6667 2.05756C10.5323 1.79731 10.309 1.59462 10.0365 1.48707L9.73957 2.23751C9.83023 2.27353 9.90476 2.34038 9.94937 2.42713L10.6667 2.05756ZM11.5317 9.87419C11.5317 10.6232 11.2342 11.3416 10.7045 11.8712C10.1749 12.4009 9.45655 12.6984 8.70752 12.6984V13.5053C9.67056 13.5053 10.5942 13.1228 11.2751 12.4418C11.9561 11.7608 12.3387 10.8372 12.3387 9.87419H11.5317ZM8.70752 7.04997C9.45655 7.04997 10.1749 7.34753 10.7045 7.87717C11.2342 8.40681 11.5317 9.12516 11.5317 9.87419H12.3387C12.3387 8.91116 11.9561 7.98756 11.2751 7.30659C10.5942 6.62562 9.67056 6.24305 8.70752 6.24305V7.04997ZM5.8833 9.87419C5.8833 9.12516 6.18085 8.40681 6.7105 7.87717C7.24014 7.34753 7.95849 7.04997 8.70752 7.04997V6.24305C7.74448 6.24305 6.82089 6.62562 6.13992 7.30659C5.45895 7.98756 5.07638 8.91116 5.07638 9.87419H5.8833ZM8.70752 12.6984C7.95849 12.6984 7.24014 12.4009 6.7105 11.8712C6.18085 11.3416 5.8833 10.6232 5.8833 9.87419H5.07638C5.07638 10.8372 5.45895 11.7608 6.13992 12.4418C6.82089 13.1228 7.74448 13.5053 8.70752 13.5053V12.6984Z" fill="white"/>
</g>
<defs>
<clipPath id="clip0_4293_4955">
<rect width="19.3661" height="19.3661" fill="white" transform="translate(0.172852 0.195312)"/>
</clipPath>
</defs>
</svg>
