<svg width="10" height="10" viewBox="0 0 10 10" fill="none" xmlns="http://www.w3.org/2000/svg">
<g clip-path="url(#clip0_4364_7291)">
<path d="M10.263 5.66517L10.2446 5.48285L10.2391 5.48321L10.2329 5.48431L10.263 5.66517ZM10.263 5.66517L10.2813 5.84786L10.2875 5.84713L10.2934 5.84603L10.263 5.66517ZM8.78088 7.67624L8.89717 7.53427L8.89534 7.53317L8.78088 7.67624ZM8.78088 7.67624L8.66459 7.81821L8.66642 7.81968L8.78088 7.67624ZM5.40733 7.67624L5.29104 7.53464L5.28847 7.53684L5.28554 7.5394L5.40733 7.67624ZM5.40733 7.67624L5.52362 7.81858L5.52656 7.81601L5.52913 7.81381L5.40733 7.67624ZM3.92489 4.09799V3.91457H3.91609L3.90692 3.9153L3.92489 4.09799ZM3.92489 4.09799V4.28142H3.93407L3.94324 4.28031L3.92489 4.09799ZM8.05965 1.69403C8.05421 1.62751 8.0465 1.56119 8.03654 1.49519C8.0283 1.43676 8.01071 1.38003 7.98445 1.32718L7.65832 1.49556C7.66199 1.5029 7.66823 1.51757 7.67446 1.55572C7.68143 1.59608 7.68657 1.64854 7.69501 1.73034L8.05965 1.69403ZM8.13156 2.13535C8.12715 2.12984 8.11395 2.10747 8.09964 2.02896C8.08249 1.91782 8.06964 1.8061 8.06039 1.69403L7.69501 1.73034C7.70968 1.87745 7.72179 1.99925 7.73866 2.09389C7.75517 2.18634 7.78085 2.28062 7.83991 2.35802L8.13156 2.13535ZM8.30177 2.20578C8.26971 2.2101 8.23708 2.20585 8.20718 2.19348C8.17729 2.18111 8.1512 2.16106 8.13156 2.13535L7.83954 2.35766C7.89846 2.43491 7.97677 2.49519 8.06653 2.53237C8.15628 2.56955 8.25428 2.5823 8.35057 2.56933L8.30177 2.20578ZM8.66422 1.94422C8.545 2.04217 8.46355 2.10857 8.39936 2.15296C8.33369 2.19844 8.30838 2.20468 8.30177 2.20578L8.35057 2.56933C8.44668 2.55649 8.53142 2.50807 8.60883 2.45414C8.6877 2.39911 8.78198 2.32207 8.8968 2.22816L8.66422 1.94422ZM8.97678 1.73842C8.91808 1.75712 8.86856 1.78684 8.8216 1.82022C8.77611 1.85251 8.72439 1.89506 8.66422 1.94422L8.8968 2.22816C8.96027 2.17607 9.00136 2.14268 9.03437 2.1192C9.05087 2.10615 9.06915 2.09552 9.08867 2.08766L8.97678 1.73842ZM9.36307 1.75749C9.24086 1.7046 9.10361 1.69782 8.97678 1.73842L9.08867 2.08766C9.13086 2.07429 9.17646 2.07664 9.21706 2.09426L9.36307 1.75749ZM9.65361 1.99374C9.59859 1.93872 9.55126 1.89102 9.50944 1.85434C9.46615 1.81443 9.41673 1.78174 9.36307 1.75749L9.21706 2.09426C9.22477 2.09756 9.23871 2.10526 9.26806 2.13094C9.2985 2.15736 9.33592 2.19478 9.39425 2.25311L9.65361 1.99374ZM9.98121 2.32134L9.65361 1.99374L9.39425 2.25311L9.72185 2.5807L9.98121 2.32134ZM10.2175 2.61188C10.1931 2.5582 10.1603 2.50878 10.1202 2.46551C10.0836 2.42369 10.0359 2.37637 9.98121 2.32134L9.72185 2.5807C9.78018 2.63903 9.81723 2.67645 9.84438 2.7069C9.87006 2.73625 9.87739 2.75019 9.88069 2.75789L10.2175 2.61188ZM10.2365 2.99818C10.2771 2.87135 10.2704 2.7341 10.2175 2.61188L9.88069 2.75789C9.89819 2.79854 9.90041 2.84414 9.88693 2.88629L10.2365 2.99818ZM10.0307 3.31073C10.0799 3.25057 10.1224 3.19884 10.1547 3.15335C10.1877 3.1064 10.2178 3.05687 10.2365 2.99818L9.88693 2.88629C9.87918 2.90578 9.86868 2.92406 9.85575 2.94058C9.82081 2.98751 9.78448 3.03339 9.74679 3.07815L10.0307 3.31073ZM9.76917 3.67318C9.77027 3.66658 9.77651 3.64126 9.822 3.5756C9.86639 3.5114 9.93279 3.42996 10.0307 3.31073L9.74679 3.07815C9.65288 3.19297 9.57548 3.28725 9.52081 3.36613C9.46689 3.44316 9.41846 3.52827 9.40562 3.62439L9.76917 3.67318ZM9.83961 3.8434C9.8139 3.82376 9.79384 3.79767 9.78147 3.76777C9.7691 3.73788 9.76486 3.70524 9.76917 3.67318L9.40562 3.62439C9.39272 3.72061 9.40551 3.81854 9.44268 3.90822C9.47986 3.99791 9.5401 4.07616 9.6173 4.13504L9.83961 3.8434ZM10.2809 3.91493C10.1272 3.89952 10.023 3.88925 9.94599 3.87531C9.86749 3.86101 9.84511 3.8478 9.83961 3.8434L9.6173 4.13504C9.69433 4.19374 9.78861 4.21942 9.88143 4.23629C9.97571 4.25317 10.0971 4.26564 10.2446 4.28031L10.2809 3.91493ZM10.6478 3.9905C10.5949 3.96424 10.5382 3.94665 10.4798 3.93841C10.4247 3.92924 10.358 3.92264 10.2809 3.91493L10.2442 4.27995C10.3264 4.28839 10.3789 4.29352 10.4192 4.30049C10.4399 4.30299 10.4602 4.30843 10.4794 4.31663L10.6478 3.9905ZM10.9071 4.27701C10.8582 4.15329 10.766 4.05151 10.6478 3.9905L10.4794 4.31663C10.5188 4.33691 10.5496 4.3708 10.566 4.41201L10.9071 4.27701ZM10.9457 4.64936C10.9457 4.57196 10.9457 4.50483 10.942 4.44907C10.9397 4.39022 10.9279 4.33213 10.9071 4.27701L10.566 4.41201C10.5689 4.41972 10.5733 4.43512 10.5759 4.47364C10.5786 4.5323 10.5796 4.59102 10.5788 4.64973L10.9457 4.64936ZM10.9457 5.11306V4.64936H10.5788V5.11306H10.9457ZM10.9071 5.48505C10.9299 5.42782 10.9383 5.37059 10.942 5.313C10.9457 5.2576 10.9457 5.19047 10.9457 5.11306H10.5788C10.5788 5.19524 10.5788 5.24806 10.5759 5.28878C10.5755 5.30969 10.5722 5.33045 10.566 5.35041L10.9071 5.48505ZM10.6478 5.77192C10.7661 5.71083 10.8582 5.6089 10.9071 5.48505L10.566 5.35041C10.5496 5.39163 10.5188 5.42551 10.4794 5.4458L10.6478 5.77192ZM10.2809 5.8475C10.358 5.83979 10.4251 5.83282 10.4798 5.82365C10.5366 5.81448 10.5927 5.80017 10.6474 5.77229L10.4794 5.4458C10.4602 5.454 10.4399 5.45943 10.4192 5.46194C10.3789 5.46891 10.3264 5.47404 10.2446 5.48248L10.2809 5.8475ZM9.83997 5.91903C9.84548 5.91463 9.86785 5.90105 9.94636 5.88712C10.0234 5.87317 10.1276 5.86254 10.2809 5.8475L10.2446 5.48248C10.0975 5.49715 9.97571 5.50889 9.88106 5.52613C9.78861 5.54264 9.6947 5.56832 9.6173 5.62702L9.83997 5.91903ZM9.76917 6.08925C9.7649 6.05715 9.7692 6.0245 9.78163 5.9946C9.79407 5.9647 9.8142 5.93863 9.83997 5.91903L9.6173 5.62702C9.54004 5.68593 9.47976 5.76424 9.44259 5.854C9.40541 5.94376 9.39266 6.04176 9.40562 6.13804L9.76917 6.08925ZM10.0307 6.4517C9.95806 6.3659 9.88843 6.27755 9.822 6.18683C9.77651 6.12153 9.77027 6.09585 9.76917 6.08925L9.40599 6.13841C9.41883 6.23452 9.46725 6.3189 9.52081 6.3963C9.57584 6.47481 9.65288 6.56945 9.74679 6.68391L10.0307 6.4517ZM10.2365 6.76425C10.2178 6.70836 10.1902 6.65584 10.1547 6.60871C10.115 6.55513 10.0736 6.50277 10.0307 6.4517L9.74679 6.68391C9.79889 6.74774 9.83227 6.78846 9.85575 6.82185C9.86865 6.83825 9.87915 6.85641 9.88693 6.87577L10.2365 6.76425ZM10.2175 7.15054C10.2704 7.02833 10.2771 6.89108 10.2365 6.76425L9.88693 6.87577C9.9005 6.91804 9.89828 6.96379 9.88069 7.00454L10.2175 7.15054ZM9.98158 7.44072C10.0362 7.38606 10.0836 7.33874 10.1202 7.29692C10.1584 7.25326 10.1929 7.20741 10.2175 7.15054L9.88069 7.00454C9.87094 7.02307 9.85858 7.04012 9.84401 7.05516C9.80456 7.09844 9.76382 7.14052 9.72185 7.18136L9.98158 7.44072ZM9.65361 7.76869L9.98158 7.44072L9.72185 7.18136L9.39425 7.50932L9.65361 7.76869ZM9.36307 8.00457C9.41956 7.97999 9.46579 7.94587 9.50944 7.90772C9.55126 7.87104 9.59859 7.82335 9.65361 7.76832L9.39425 7.50932C9.33592 7.56765 9.2985 7.6047 9.26806 7.63148C9.2529 7.64609 9.23573 7.65844 9.21706 7.66817L9.36307 8.00457ZM8.97678 8.02401C9.10365 8.06449 9.2409 8.05758 9.36307 8.00457L9.21706 7.66817C9.17642 7.68567 9.13082 7.68788 9.08867 7.67441L8.97678 8.02401ZM8.66422 7.81784C8.72439 7.867 8.77611 7.90956 8.8216 7.94184C8.86856 7.97522 8.91808 8.0053 8.97678 8.02401L9.08867 7.67441C9.06918 7.66665 9.05089 7.65615 9.03437 7.64322C8.98744 7.60816 8.94156 7.57171 8.8968 7.5339L8.66422 7.81784ZM8.30177 7.55665C8.30838 7.55738 8.33406 7.56398 8.39936 7.60947C8.46355 7.65386 8.545 7.72026 8.66422 7.81784L8.8968 7.5339C8.78198 7.44036 8.6877 7.36295 8.60883 7.30792C8.53179 7.25436 8.44668 7.20594 8.35057 7.1931L8.30177 7.55665ZM8.13156 7.62708C8.1512 7.60137 8.17729 7.58132 8.20718 7.56895C8.23708 7.55658 8.26971 7.55233 8.30177 7.55665L8.35057 7.1931C8.25437 7.18016 8.15647 7.19289 8.06679 7.23C7.9771 7.26711 7.89883 7.32728 7.83991 7.4044L8.13156 7.62708ZM8.06002 8.0684C8.07543 7.91469 8.0857 7.81051 8.09964 7.73347C8.11395 7.65496 8.12715 7.63258 8.13156 7.62708L7.83991 7.4044C7.78122 7.48144 7.75554 7.57609 7.73866 7.66854C7.72179 7.76282 7.70931 7.88424 7.69464 8.03172L8.06002 8.0684ZM7.98445 8.43525C8.0127 8.38022 8.02664 8.3241 8.03618 8.26723C8.04571 8.21221 8.05232 8.14544 8.06002 8.0684L7.69464 8.03172C7.68954 8.09024 7.68306 8.14859 7.67446 8.2067C7.67196 8.22742 7.66653 8.24768 7.65832 8.26687L7.98445 8.43525ZM7.69794 8.69461C7.82166 8.64564 7.92345 8.5535 7.98445 8.43525L7.65832 8.26687C7.63804 8.30631 7.60415 8.33706 7.56294 8.35344L7.69794 8.69461ZM7.32559 8.73313C7.40299 8.73313 7.47013 8.73313 7.52589 8.72946C7.58312 8.7258 7.64071 8.71736 7.69794 8.69461L7.56294 8.35344C7.54297 8.35966 7.52222 8.36299 7.50131 8.36335C7.46096 8.36628 7.40776 8.36628 7.32522 8.36628L7.32559 8.73313ZM6.86189 8.73313H7.32559L7.32522 8.36628H6.86189V8.73313ZM6.48954 8.69461C6.54713 8.71736 6.60436 8.7258 6.66196 8.72946C6.71735 8.73313 6.78449 8.73313 6.86189 8.73313V8.36628C6.77972 8.36628 6.72689 8.36628 6.68617 8.36335C6.66526 8.36299 6.64451 8.35966 6.62454 8.35344L6.48954 8.69461ZM6.20303 8.43525C6.26403 8.5535 6.36582 8.64564 6.48954 8.69461L6.62454 8.35344C6.58332 8.33706 6.54944 8.30631 6.52916 8.26687L6.20303 8.43525ZM6.12746 8.0684C6.13479 8.14593 6.14262 8.21221 6.15094 8.26723C6.16047 8.3241 6.17478 8.38022 6.20303 8.43525L6.52916 8.26687C6.52095 8.24768 6.51552 8.22742 6.51302 8.2067C6.50443 8.14871 6.49758 8.09048 6.49247 8.03208L6.12746 8.0684ZM6.05592 7.62708C6.06032 7.63258 6.07353 7.65496 6.08784 7.73347C6.10178 7.81051 6.11205 7.91506 6.12746 8.0684L6.49247 8.03208C6.4778 7.88498 6.46569 7.76318 6.44882 7.66854C6.43231 7.57609 6.40663 7.48181 6.34757 7.4044L6.05592 7.62708ZM5.8857 7.55665C5.91777 7.55233 5.9504 7.55658 5.9803 7.56895C6.01019 7.58132 6.03628 7.60137 6.05592 7.62708L6.34757 7.4044C6.28869 7.32721 6.21043 7.26733 6.12075 7.23016C6.03106 7.19298 5.93314 7.1802 5.83691 7.1931L5.8857 7.55665ZM5.52326 7.81821C5.64248 7.72026 5.72392 7.65386 5.78812 7.60947C5.85379 7.56398 5.8791 7.55738 5.8857 7.55665L5.83691 7.1931C5.7408 7.20594 5.65606 7.25436 5.57865 7.30829C5.49978 7.36295 5.4055 7.44036 5.29067 7.53427L5.52326 7.81821ZM5.2107 8.02401C5.2694 8.0053 5.31892 7.97559 5.36588 7.94221C5.41137 7.90992 5.46309 7.86737 5.52326 7.81821L5.29067 7.53427C5.24591 7.57195 5.20004 7.60828 5.15311 7.64322C5.13659 7.65615 5.1183 7.66665 5.09881 7.67441L5.2107 8.02401ZM4.82441 8.0053C4.94662 8.05819 5.08387 8.06461 5.2107 8.02401L5.09881 7.67441C5.05666 7.68788 5.01106 7.68567 4.97041 7.66817L4.82441 8.0053ZM4.53386 7.76869C4.58889 7.82371 4.63622 7.8714 4.67804 7.90809C4.72132 7.94587 4.76791 7.98072 4.82441 8.0053L4.97041 7.66817C4.95175 7.65844 4.93458 7.64609 4.91942 7.63148C4.87615 7.59203 4.83406 7.55129 4.79323 7.50932L4.53386 7.76869ZM4.20627 7.44109L4.53386 7.76869L4.79323 7.50932L4.46563 7.18173L4.20627 7.44109ZM3.97002 7.15054C3.9946 7.20704 4.02908 7.25326 4.06723 7.29692C4.10392 7.33874 4.15161 7.38606 4.20627 7.44109L4.46563 7.18173C4.42354 7.14089 4.38268 7.09881 4.3431 7.05553C4.3285 7.04037 4.31615 7.0232 4.30642 7.00454L3.97002 7.15054ZM3.95094 6.76425C3.91035 6.89108 3.91713 7.02833 3.97002 7.15054L4.30642 7.00454C4.2888 6.96394 4.28682 6.91833 4.30018 6.87614L3.95094 6.76425ZM4.15674 6.4517C4.10759 6.51186 4.06503 6.56358 4.03275 6.60907C3.99736 6.65609 3.96974 6.70848 3.95094 6.76425L4.30018 6.87614C4.30805 6.85663 4.31867 6.83834 4.33173 6.82185C4.35521 6.78883 4.38859 6.74774 4.44068 6.68428L4.15674 6.4517ZM4.41831 6.08925C4.41721 6.09585 4.41097 6.12116 4.36548 6.18683C4.32072 6.25103 4.25469 6.33247 4.15674 6.4517L4.44068 6.68428C4.5346 6.56945 4.612 6.47517 4.66666 6.3963C4.72059 6.31926 4.76901 6.23415 4.78185 6.13804L4.41831 6.08925ZM4.34787 5.91903C4.37358 5.93867 4.39364 5.96476 4.40601 5.99466C4.41838 6.02455 4.42262 6.05718 4.41831 6.08925L4.78185 6.13804C4.79476 6.04182 4.78197 5.94389 4.74479 5.8542C4.70762 5.76452 4.64738 5.68626 4.57018 5.62739L4.34787 5.91903ZM3.90655 5.84786C4.06026 5.8629 4.16445 5.87317 4.24149 5.88712C4.31999 5.90142 4.34237 5.91463 4.34787 5.91903L4.57018 5.62702C4.49314 5.56832 4.39886 5.54264 4.30605 5.52613C4.21177 5.50926 4.09034 5.49679 3.94287 5.48211L3.90655 5.84786ZM3.5397 5.77192C3.59473 5.80017 3.65086 5.81411 3.70772 5.82365C3.76275 5.83319 3.82915 5.84016 3.90655 5.84786L3.94324 5.48248C3.88472 5.47738 3.82636 5.47053 3.76825 5.46194C3.74753 5.45943 3.72727 5.454 3.70809 5.4458L3.5397 5.77192ZM3.28034 5.48505C3.32924 5.6089 3.42139 5.71083 3.5397 5.77192L3.70809 5.4458C3.66865 5.42551 3.63789 5.39163 3.62151 5.35041L3.28034 5.48505ZM3.24219 5.1138C3.24219 5.1912 3.24219 5.25833 3.24586 5.3141C3.24823 5.37282 3.26 5.43078 3.28071 5.48578L3.62188 5.35115C3.61566 5.33118 3.61233 5.31043 3.61197 5.28952C3.60923 5.23086 3.60825 5.17214 3.60904 5.11343L3.24219 5.1138ZM3.24219 4.6501V5.1138H3.60904V4.6501H3.24219ZM3.28071 4.27775C3.25992 4.33298 3.24815 4.3912 3.24586 4.45017C3.24219 4.50556 3.24219 4.57269 3.24219 4.6501H3.60904C3.60904 4.56792 3.60904 4.5151 3.61197 4.47438C3.61233 4.45347 3.61566 4.43272 3.62188 4.41275L3.28071 4.27775ZM3.54007 3.99124C3.42182 4.05224 3.32968 4.15403 3.28071 4.27775L3.62188 4.41275C3.63826 4.37153 3.66901 4.33765 3.70845 4.31737L3.54007 3.99124ZM3.90692 3.9153C3.82939 3.92264 3.76311 3.93083 3.70809 3.93914C3.64965 3.94739 3.59292 3.96498 3.54007 3.99124L3.70845 4.31737C3.71579 4.3137 3.73046 4.30746 3.76862 4.30122C3.80897 4.29425 3.86143 4.28912 3.94324 4.28068L3.90692 3.9153ZM4.34824 3.84413C4.34274 3.84853 4.32036 3.86174 4.24185 3.87605C4.16481 3.88999 4.06063 3.89989 3.90692 3.9153L3.94324 4.28068C4.09034 4.26601 4.2125 4.2539 4.30678 4.23703C4.3996 4.22052 4.49388 4.19484 4.57092 4.13578L4.34824 3.84413ZM4.41867 3.67391C4.42299 3.70598 4.41874 3.73861 4.40637 3.76851C4.394 3.7984 4.37395 3.82449 4.34824 3.84413L4.57092 4.13578C4.64804 4.07685 4.70821 3.99858 4.74532 3.9089C4.78243 3.81922 4.79516 3.72095 4.78222 3.62475L4.41867 3.67391ZM4.15711 3.3111C4.25506 3.43069 4.32146 3.51213 4.36621 3.57633C4.4117 3.642 4.41757 3.66731 4.41867 3.67391L4.78222 3.62475C4.76938 3.52864 4.72096 3.44426 4.66703 3.36686C4.61237 3.28799 4.53496 3.19371 4.44105 3.07888L4.15711 3.3111ZM3.95131 2.99854C3.96965 3.05724 3.99973 3.10713 4.03311 3.15409C4.0654 3.19921 4.10795 3.2513 4.15711 3.3111L4.44105 3.07888C4.40336 3.034 4.36703 2.988 4.3321 2.94095C4.31907 2.92456 4.30845 2.90641 4.30055 2.88702L3.95131 2.99854ZM3.97038 2.61262C3.91758 2.73472 3.91081 2.87182 3.95131 2.99854L4.30055 2.88702C4.28719 2.84483 4.28953 2.79922 4.30715 2.75862L3.97038 2.61262ZM4.20663 2.32207C4.15161 2.37673 4.10392 2.42406 4.06723 2.46624C4.02733 2.50954 3.99463 2.55896 3.97038 2.61262L4.30715 2.75862C4.31691 2.74009 4.32926 2.72268 4.34384 2.70763C4.38311 2.66419 4.42385 2.6221 4.466 2.58144L4.20663 2.32207ZM4.53423 1.99411L4.20663 2.32207L4.466 2.58144L4.79359 2.25347L4.53423 1.99411ZM4.82478 1.75823C4.77112 1.78247 4.7217 1.81517 4.6784 1.85507C4.63658 1.89176 4.58889 1.93908 4.53423 1.99411L4.79359 2.25347C4.85192 2.19551 4.88934 2.15809 4.91979 2.13131C4.94914 2.10563 4.96308 2.09829 4.97078 2.09463L4.82478 1.75823ZM5.21107 1.73878C5.08419 1.69831 4.94694 1.70521 4.82478 1.75823L4.97078 2.09463C5.01138 2.07701 5.05699 2.07503 5.09918 2.08839L5.21107 1.73878ZM5.52362 1.94495C5.46346 1.89579 5.41173 1.85324 5.36625 1.82096C5.31925 1.78544 5.26686 1.75769 5.21107 1.73878L5.09918 2.08839C5.11867 2.09614 5.13695 2.10664 5.15347 2.11957C5.18649 2.14342 5.22758 2.1768 5.29141 2.22889L5.52362 1.94495ZM5.88607 2.20652C5.87947 2.20541 5.85416 2.19918 5.78849 2.15369C5.69776 2.08713 5.60942 2.01776 5.52362 1.94495L5.29141 2.22889C5.40587 2.32281 5.50051 2.40021 5.57902 2.45487C5.65606 2.50843 5.74117 2.55686 5.83728 2.57006L5.88607 2.20652ZM6.05629 2.13571C6.03669 2.16149 6.01062 2.18162 5.98072 2.19405C5.95082 2.20649 5.91817 2.21079 5.88607 2.20652L5.83728 2.57006C5.93353 2.58307 6.03151 2.57001 6.12126 2.5329C6.21102 2.49578 6.28935 2.43558 6.3483 2.35839L6.05629 2.13571ZM6.12782 1.69476C6.11242 1.8481 6.10215 1.95266 6.08821 2.02933C6.0739 2.10783 6.06069 2.13021 6.05629 2.13571L6.3483 2.35839C6.407 2.28135 6.43268 2.18707 6.44918 2.09426C6.46606 1.99998 6.47853 1.87855 6.49321 1.73108L6.12782 1.69476ZM6.2034 1.32791C6.17515 1.38294 6.16084 1.43907 6.1513 1.49593C6.14213 1.55096 6.13553 1.61736 6.12782 1.69476L6.49284 1.73145C6.49794 1.67292 6.50479 1.61457 6.51338 1.55646C6.51588 1.53574 6.52132 1.51548 6.52953 1.49629L6.2034 1.32791ZM6.49027 1.06855C6.36635 1.11754 6.26442 1.20946 6.2034 1.32791L6.52953 1.49629C6.54981 1.45685 6.58369 1.4261 6.62491 1.40972L6.49027 1.06855ZM6.86226 1.03003C6.78485 1.03003 6.71772 1.03003 6.66196 1.0337C6.60324 1.03607 6.54527 1.04784 6.49027 1.06855L6.62491 1.40972C6.64487 1.40351 6.66563 1.40017 6.68654 1.39981C6.72689 1.39688 6.78008 1.39688 6.86262 1.39688L6.86226 1.03003ZM7.32595 1.03003H6.86226V1.39688H7.32595V1.03003ZM7.69831 1.06855C7.64307 1.04776 7.58486 1.03599 7.52589 1.0337C7.47049 1.03003 7.40336 1.03003 7.32595 1.03003V1.39688C7.40813 1.39688 7.46096 1.39688 7.50168 1.39981C7.52259 1.40017 7.54334 1.40351 7.56331 1.40972L7.69831 1.06855ZM7.98482 1.32791C7.92372 1.20959 7.8218 1.11744 7.69794 1.06855L7.56331 1.40972C7.60452 1.4261 7.63841 1.45685 7.65869 1.49629L7.98482 1.32791ZM8.37808 4.88158C8.37808 5.22211 8.2428 5.54869 8.00201 5.78949C7.76122 6.03028 7.43464 6.16555 7.09411 6.16555V6.5324C7.53193 6.5324 7.95182 6.35848 8.26141 6.04889C8.571 5.7393 8.74493 5.31941 8.74493 4.88158H8.37808ZM7.09411 3.59761C7.43464 3.59761 7.76122 3.73288 8.00201 3.97367C8.2428 4.21447 8.37808 4.54105 8.37808 4.88158H8.74493C8.74493 4.44376 8.571 4.02386 8.26141 3.71427C7.95182 3.40468 7.53193 3.23076 7.09411 3.23076V3.59761ZM5.81013 4.88158C5.81013 4.54105 5.94541 4.21447 6.1862 3.97367C6.42699 3.73288 6.75358 3.59761 7.09411 3.59761V3.23076C6.65628 3.23076 6.23639 3.40468 5.9268 3.71427C5.61721 4.02386 5.44328 4.44376 5.44328 4.88158H5.81013ZM7.09411 6.16555C6.75358 6.16555 6.42699 6.03028 6.1862 5.78949C5.94541 5.54869 5.81013 5.22211 5.81013 4.88158H5.44328C5.44328 5.31941 5.61721 5.7393 5.9268 6.04889C6.23639 6.35848 6.65628 6.5324 7.09411 6.5324V6.16555Z" fill="white"/>
</g>
<defs>
<clipPath id="clip0_4364_7291">
<rect width="8.80439" height="8.80439" fill="white" transform="translate(0.940918 0.481445)"/>
</clipPath>
</defs>
</svg>
