<svg width="12" height="12" viewBox="0 0 12 12" fill="none" xmlns="http://www.w3.org/2000/svg">
<g clip-path="url(#clip0_4237_5357)">
<path d="M12.1571 6.67158L12.1344 6.4464L12.1276 6.44685L12.1199 6.44821L12.1571 6.67158ZM12.1571 6.67158L12.1798 6.89722L12.1875 6.89632L12.1947 6.89496L12.1571 6.67158ZM10.3266 9.15543L10.4702 8.98008L10.468 8.97872L10.3266 9.15543ZM10.3266 9.15543L10.183 9.33078L10.1852 9.33259L10.3266 9.15543ZM6.15998 9.15543L6.01635 8.98054L6.01318 8.98326L6.00956 8.98643L6.15998 9.15543ZM6.15998 9.15543L6.30361 9.33123L6.30724 9.32806L6.31041 9.32534L6.15998 9.15543ZM4.32904 4.73598V4.50943H4.31817L4.30684 4.51034L4.32904 4.73598ZM4.32904 4.73598V4.96252H4.34037L4.3517 4.96116L4.32904 4.73598ZM9.43583 1.76687C9.42911 1.68471 9.41959 1.60281 9.40729 1.5213C9.39711 1.44912 9.37538 1.37906 9.34295 1.31378L8.94015 1.52175C8.94468 1.53081 8.95238 1.54894 8.96009 1.59606C8.9687 1.6459 8.97504 1.71069 8.98546 1.81173L9.43583 1.76687ZM9.52464 2.31194C9.5192 2.30514 9.50289 2.27751 9.48522 2.18054C9.46404 2.04327 9.44817 1.9053 9.43674 1.76687L8.98546 1.81173C9.00358 1.99342 9.01854 2.14384 9.03938 2.26074C9.05977 2.37492 9.09148 2.49136 9.16443 2.58697L9.52464 2.31194ZM9.73487 2.39893C9.69527 2.40426 9.65497 2.39902 9.61804 2.38374C9.58112 2.36847 9.5489 2.34369 9.52464 2.31194L9.16398 2.58651C9.23674 2.68193 9.33346 2.75638 9.44432 2.8023C9.55518 2.84822 9.67622 2.86397 9.79513 2.84795L9.73487 2.39893ZM10.1825 2.07588C10.0353 2.19686 9.93469 2.27887 9.8554 2.33369C9.77429 2.38987 9.74303 2.39758 9.73487 2.39893L9.79513 2.84795C9.91384 2.83209 10.0185 2.77228 10.1141 2.70568C10.2115 2.63771 10.328 2.54256 10.4698 2.42657L10.1825 2.07588ZM10.5686 1.8217C10.4961 1.8448 10.4349 1.8815 10.3769 1.92274C10.3207 1.96261 10.2568 2.01517 10.1825 2.07588L10.4698 2.42657C10.5482 2.36223 10.5989 2.321 10.6397 2.292C10.6601 2.27588 10.6827 2.26276 10.7068 2.25304L10.5686 1.8217ZM11.0457 1.84526C10.8947 1.77993 10.7252 1.77156 10.5686 1.8217L10.7068 2.25304C10.7589 2.23654 10.8152 2.23943 10.8653 2.26119L11.0457 1.84526ZM11.4045 2.13705C11.3366 2.06908 11.2781 2.01018 11.2264 1.96487C11.173 1.91559 11.1119 1.8752 11.0457 1.84526L10.8653 2.26119C10.8749 2.26527 10.8921 2.27479 10.9283 2.3065C10.9659 2.33913 11.0121 2.38534 11.0842 2.45738L11.4045 2.13705ZM11.8091 2.54166L11.4045 2.13705L11.0842 2.45738L11.4888 2.86199L11.8091 2.54166ZM12.1009 2.90051C12.0708 2.8342 12.0303 2.77316 11.9808 2.71972C11.9355 2.66807 11.8766 2.60962 11.8091 2.54166L11.4888 2.86199C11.5608 2.93404 11.6066 2.98025 11.6401 3.01786C11.6718 3.0541 11.6809 3.07132 11.685 3.08084L12.1009 2.90051ZM12.1245 3.37761C12.1746 3.22096 12.1662 3.05145 12.1009 2.90051L11.685 3.08084C11.7066 3.13104 11.7093 3.18736 11.6927 3.23942L12.1245 3.37761ZM11.8703 3.76364C11.931 3.68934 11.9836 3.62545 12.0234 3.56927C12.0642 3.51127 12.1014 3.45011 12.1245 3.37761L11.6927 3.23942C11.6831 3.26349 11.6701 3.28607 11.6542 3.30648C11.611 3.36444 11.5661 3.4211 11.5196 3.47639L11.8703 3.76364ZM11.5472 4.2113C11.5486 4.20314 11.5563 4.17188 11.6125 4.09078C11.6673 4.01149 11.7493 3.9109 11.8703 3.76364L11.5196 3.47639C11.4036 3.6182 11.308 3.73465 11.2405 3.83206C11.1739 3.92721 11.1141 4.03233 11.0982 4.15104L11.5472 4.2113ZM11.6342 4.42153C11.6025 4.39728 11.5777 4.36505 11.5624 4.32813C11.5471 4.29121 11.5419 4.2509 11.5472 4.2113L11.0982 4.15104C11.0823 4.26988 11.0981 4.39083 11.144 4.5016C11.1899 4.61237 11.2643 4.70902 11.3597 4.78174L11.6342 4.42153ZM12.1793 4.50989C11.9895 4.49086 11.8608 4.47817 11.7656 4.46095C11.6687 4.44328 11.641 4.42697 11.6342 4.42153L11.3597 4.78174C11.4548 4.85424 11.5713 4.88595 11.6859 4.90679C11.8023 4.92764 11.9523 4.94304 12.1344 4.96116L12.1793 4.50989ZM12.6324 4.60322C12.5671 4.57079 12.4971 4.54906 12.4249 4.53888C12.3569 4.52756 12.2744 4.5194 12.1793 4.50989L12.134 4.96071C12.2355 4.97113 12.3003 4.97748 12.3501 4.98608C12.3757 4.98917 12.4007 4.99589 12.4244 5.00602L12.6324 4.60322ZM12.9527 4.95709C12.8922 4.80428 12.7784 4.67857 12.6324 4.60322L12.4244 5.00602C12.4731 5.03107 12.5111 5.07292 12.5314 5.12382L12.9527 4.95709ZM13.0003 5.41697C13.0003 5.32137 13.0003 5.23846 12.9958 5.16959C12.9929 5.09691 12.9784 5.02516 12.9527 4.95709L12.5314 5.12382C12.535 5.13334 12.5404 5.15237 12.5436 5.19994C12.547 5.27239 12.5482 5.34491 12.5472 5.41743L13.0003 5.41697ZM13.0003 5.98968V5.41697H12.5472V5.98968H13.0003ZM12.9527 6.44912C12.9808 6.37843 12.9912 6.30775 12.9958 6.23662C13.0003 6.1682 13.0003 6.08528 13.0003 5.98968H12.5472C12.5472 6.09117 12.5472 6.15642 12.5436 6.20671C12.5431 6.23254 12.539 6.25817 12.5314 6.28283L12.9527 6.44912ZM12.6324 6.80343C12.7785 6.72798 12.8923 6.60209 12.9527 6.44912L12.5314 6.28283C12.5111 6.33374 12.4731 6.37559 12.4244 6.40064L12.6324 6.80343ZM12.1793 6.89677C12.2744 6.88726 12.3574 6.87865 12.4249 6.86732C12.4951 6.85599 12.5644 6.83832 12.6319 6.80389L12.4244 6.40064C12.4007 6.41077 12.3757 6.41748 12.3501 6.42057C12.3003 6.42918 12.2355 6.43552 12.1344 6.44594L12.1793 6.89677ZM11.6347 6.98512C11.6415 6.97969 11.6691 6.96292 11.7661 6.9457C11.8612 6.92849 11.9899 6.91535 12.1793 6.89677L12.1344 6.44594C11.9528 6.46407 11.8023 6.47857 11.6854 6.49986C11.5713 6.52025 11.4553 6.55197 11.3597 6.62446L11.6347 6.98512ZM11.5472 7.19536C11.542 7.15571 11.5473 7.11538 11.5626 7.07846C11.578 7.04153 11.6028 7.00933 11.6347 6.98512L11.3597 6.62446C11.2642 6.69722 11.1898 6.79395 11.1439 6.90481C11.098 7.01566 11.0822 7.1367 11.0982 7.25562L11.5472 7.19536ZM11.8703 7.64301C11.7805 7.53704 11.6945 7.42793 11.6125 7.31588C11.5563 7.23523 11.5486 7.20351 11.5472 7.19536L11.0987 7.25607C11.1145 7.37478 11.1743 7.47899 11.2405 7.57459C11.3085 7.67156 11.4036 7.78845 11.5196 7.92982L11.8703 7.64301ZM12.1245 8.02904C12.1013 7.96001 12.0672 7.89514 12.0234 7.83693C11.9744 7.77076 11.9233 7.70609 11.8703 7.64301L11.5196 7.92982C11.5839 8.00866 11.6252 8.05895 11.6542 8.10018C11.6701 8.12044 11.6831 8.14287 11.6927 8.16678L12.1245 8.02904ZM12.1009 8.50615C12.1662 8.35521 12.1746 8.18569 12.1245 8.02904L11.6927 8.16678C11.7094 8.21898 11.7067 8.27549 11.685 8.32582L12.1009 8.50615ZM11.8096 8.86455C11.8771 8.79703 11.9355 8.73859 11.9808 8.68693C12.028 8.63302 12.0706 8.57638 12.1009 8.50615L11.685 8.32582C11.6729 8.34871 11.6577 8.36977 11.6397 8.38835C11.5909 8.44179 11.5406 8.49377 11.4888 8.54421L11.8096 8.86455ZM11.4045 9.26961L11.8096 8.86455L11.4888 8.54421L11.0842 8.94927L11.4045 9.26961ZM11.0457 9.56095C11.1154 9.53059 11.1725 9.48845 11.2264 9.44133C11.2781 9.39602 11.3366 9.33712 11.4045 9.26916L11.0842 8.94927C11.0121 9.02131 10.9659 9.06708 10.9283 9.10015C10.9096 9.11819 10.8884 9.13345 10.8653 9.14546L11.0457 9.56095ZM10.5686 9.58496C10.7253 9.63495 10.8948 9.62642 11.0457 9.56095L10.8653 9.14546C10.8151 9.16708 10.7588 9.16981 10.7068 9.15316L10.5686 9.58496ZM10.1825 9.33032C10.2568 9.39104 10.3207 9.44359 10.3769 9.48347C10.4349 9.5247 10.4961 9.56185 10.5686 9.58496L10.7068 9.15316C10.6827 9.14359 10.6601 9.13062 10.6397 9.11465C10.5817 9.07135 10.5251 9.02632 10.4698 8.97963L10.1825 9.33032ZM9.73487 9.00772C9.74303 9.00863 9.77474 9.01678 9.8554 9.07297C9.93469 9.12779 10.0353 9.2098 10.1825 9.33032L10.4698 8.97963C10.328 8.86409 10.2115 8.76849 10.1141 8.70053C10.019 8.63438 9.91384 8.57457 9.79513 8.55871L9.73487 9.00772ZM9.52464 9.09472C9.5489 9.06296 9.58112 9.03819 9.61804 9.02291C9.65497 9.00763 9.69527 9.00239 9.73487 9.00772L9.79513 8.55871C9.67633 8.54272 9.55541 8.55845 9.44464 8.60428C9.33388 8.65011 9.2372 8.72443 9.16443 8.81969L9.52464 9.09472ZM9.43629 9.63978C9.45532 9.44994 9.468 9.32126 9.48522 9.22611C9.50289 9.12915 9.5192 9.10151 9.52464 9.09472L9.16443 8.81969C9.09194 8.91484 9.06022 9.03174 9.03938 9.14592C9.01854 9.26236 9.00313 9.41233 8.98501 9.59447L9.43629 9.63978ZM9.34295 10.0929C9.37784 10.0249 9.39505 9.95559 9.40684 9.88536C9.41862 9.8174 9.42677 9.73493 9.43629 9.63978L8.98501 9.59447C8.97871 9.66675 8.97071 9.73883 8.96009 9.8106C8.957 9.83619 8.95029 9.86121 8.94015 9.88491L9.34295 10.0929ZM8.98909 10.4132C9.14189 10.3527 9.2676 10.2389 9.34295 10.0929L8.94015 9.88491C8.9151 9.93362 8.87325 9.97161 8.82235 9.99184L8.98909 10.4132ZM8.5292 10.4608C8.6248 10.4608 8.70772 10.4608 8.77659 10.4563C8.84727 10.4517 8.9184 10.4413 8.98909 10.4132L8.82235 9.99184C8.79768 9.99951 8.77205 10.0036 8.74623 10.0041C8.69639 10.0077 8.63069 10.0077 8.52874 10.0077L8.5292 10.4608ZM7.95649 10.4608H8.5292L8.52874 10.0077H7.95649V10.4608ZM7.4966 10.4132C7.56774 10.4413 7.63842 10.4517 7.70956 10.4563C7.77797 10.4608 7.86089 10.4608 7.95649 10.4608V10.0077C7.855 10.0077 7.78975 10.0077 7.73946 10.0041C7.71363 10.0036 7.688 9.99951 7.66334 9.99184L7.4966 10.4132ZM7.14274 10.0929C7.21808 10.2389 7.3438 10.3527 7.4966 10.4132L7.66334 9.99184C7.61244 9.97161 7.57059 9.93362 7.54554 9.88491L7.14274 10.0929ZM7.0494 9.63978C7.05846 9.73554 7.06813 9.8174 7.0784 9.88536C7.09018 9.95559 7.10785 10.0249 7.14274 10.0929L7.54554 9.88491C7.5354 9.86121 7.52869 9.83619 7.5256 9.8106C7.51499 9.73898 7.50653 9.66706 7.50023 9.59493L7.0494 9.63978ZM6.96105 9.09472C6.96649 9.10151 6.9828 9.12915 7.00047 9.22611C7.01769 9.32126 7.03037 9.45039 7.0494 9.63978L7.50023 9.59493C7.4821 9.41324 7.46715 9.26281 7.44631 9.14592C7.42592 9.03174 7.3942 8.91529 7.32126 8.81969L6.96105 9.09472ZM6.75081 9.00772C6.79042 9.00239 6.83072 9.00763 6.86764 9.02291C6.90457 9.03819 6.93679 9.06296 6.96105 9.09472L7.32126 8.81969C7.24854 8.72435 7.15189 8.6504 7.04112 8.60448C6.93035 8.55857 6.8094 8.54277 6.69055 8.55871L6.75081 9.00772ZM6.30316 9.33078C6.45042 9.2098 6.551 9.12779 6.63029 9.07297C6.7114 9.01678 6.74266 9.00863 6.75081 9.00772L6.69055 8.55871C6.57184 8.57457 6.46718 8.63438 6.37158 8.70098C6.27416 8.76849 6.15772 8.86409 6.0159 8.98008L6.30316 9.33078ZM5.91713 9.58496C5.98962 9.56185 6.05079 9.52515 6.10878 9.48392C6.16497 9.44405 6.22885 9.39149 6.30316 9.33078L6.0159 8.98008C5.96062 9.02662 5.90396 9.0715 5.84599 9.11465C5.82559 9.13062 5.80301 9.14359 5.77893 9.15316L5.91713 9.58496ZM5.44002 9.56185C5.59097 9.62718 5.76048 9.6351 5.91713 9.58496L5.77893 9.15316C5.72688 9.16981 5.67055 9.16708 5.62035 9.14546L5.44002 9.56185ZM5.08117 9.26961C5.14914 9.33757 5.20759 9.39647 5.25924 9.44178C5.3127 9.48845 5.37025 9.5315 5.44002 9.56185L5.62035 9.14546C5.5973 9.13345 5.57609 9.11819 5.55737 9.10015C5.50392 9.05143 5.45195 9.00111 5.40151 8.94927L5.08117 9.26961ZM4.67656 8.865L5.08117 9.26961L5.40151 8.94927L4.9969 8.54466L4.67656 8.865ZM4.38477 8.50615C4.41513 8.57593 4.45772 8.63302 4.50484 8.68693C4.55015 8.73859 4.60905 8.79703 4.67656 8.865L4.9969 8.54466C4.94491 8.49423 4.89444 8.44225 4.84557 8.3888C4.82753 8.37008 4.81227 8.34887 4.80026 8.32582L4.38477 8.50615ZM4.36121 8.02904C4.31108 8.18569 4.31945 8.35521 4.38477 8.50615L4.80026 8.32582C4.7785 8.27567 4.77605 8.21935 4.79255 8.16724L4.36121 8.02904ZM4.6154 7.64301C4.55468 7.71732 4.50212 7.7812 4.46225 7.83739C4.41854 7.89546 4.38443 7.96017 4.36121 8.02904L4.79255 8.16724C4.80227 8.14314 4.81539 8.12056 4.83152 8.10018C4.86052 8.0594 4.90175 8.00866 4.96609 7.93027L4.6154 7.64301ZM4.93845 7.19536C4.93709 7.20351 4.92939 7.23478 4.8732 7.31588C4.81793 7.39517 4.73637 7.49576 4.6154 7.64301L4.96609 7.93027C5.08208 7.78845 5.17768 7.67201 5.24519 7.57459C5.3118 7.47944 5.37161 7.37433 5.38746 7.25562L4.93845 7.19536ZM4.85146 6.98512C4.88321 7.00938 4.90798 7.0416 4.92326 7.07853C4.93854 7.11545 4.94378 7.15576 4.93845 7.19536L5.38746 7.25562C5.4034 7.13677 5.38761 7.01583 5.34169 6.90506C5.29578 6.79429 5.22137 6.69764 5.12603 6.62492L4.85146 6.98512ZM4.30639 6.89722C4.49623 6.9158 4.62491 6.92849 4.72006 6.9457C4.81702 6.96337 4.84466 6.97969 4.85146 6.98512L5.12603 6.62446C5.03088 6.55197 4.91444 6.52025 4.7998 6.49986C4.68336 6.47902 4.53339 6.46361 4.35124 6.44549L4.30639 6.89722ZM3.8533 6.80343C3.92126 6.83832 3.99058 6.85554 4.06081 6.86732C4.12878 6.8791 4.21079 6.88771 4.30639 6.89722L4.3517 6.44594C4.27942 6.43965 4.20734 6.43119 4.13557 6.42057C4.10998 6.41748 4.08496 6.41077 4.06127 6.40064L3.8533 6.80343ZM3.53296 6.44912C3.59335 6.60209 3.70717 6.72798 3.8533 6.80343L4.06127 6.40064C4.01255 6.37559 3.97457 6.33374 3.95434 6.28283L3.53296 6.44912ZM3.48584 5.99059C3.48584 6.08619 3.48584 6.16911 3.49037 6.23798C3.4933 6.3105 3.50784 6.38209 3.53341 6.45002L3.95479 6.28374C3.94712 6.25907 3.943 6.23344 3.94256 6.20762C3.93917 6.13518 3.93796 6.06265 3.93893 5.99013L3.48584 5.99059ZM3.48584 5.41788V5.99059H3.93893V5.41788H3.48584ZM3.53341 4.95799C3.50774 5.02621 3.49321 5.09811 3.49037 5.17095C3.48584 5.23936 3.48584 5.32228 3.48584 5.41788H3.93893C3.93893 5.31639 3.93893 5.25114 3.94256 5.20085C3.943 5.17502 3.94712 5.14939 3.95479 5.12473L3.53341 4.95799ZM3.85375 4.60413C3.7077 4.67947 3.5939 4.80519 3.53341 4.95799L3.95479 5.12473C3.97502 5.07383 4.01301 5.03198 4.06172 5.00693L3.85375 4.60413ZM4.30684 4.51034C4.21109 4.5194 4.12923 4.52952 4.06127 4.53979C3.98909 4.54997 3.91902 4.57169 3.85375 4.60413L4.06172 5.00693C4.07078 5.0024 4.0889 4.99469 4.13603 4.98699C4.18587 4.97838 4.25066 4.97204 4.3517 4.96162L4.30684 4.51034ZM4.85191 4.42244C4.84511 4.42788 4.81747 4.44419 4.72051 4.46186C4.62536 4.47908 4.49669 4.49131 4.30684 4.51034L4.3517 4.96162C4.53339 4.94349 4.68427 4.92854 4.80071 4.9077C4.91534 4.88731 5.03179 4.85559 5.12694 4.78265L4.85191 4.42244ZM4.9389 4.21221C4.94423 4.25181 4.93899 4.29211 4.92371 4.32904C4.90843 4.36596 4.88366 4.39818 4.85191 4.42244L5.12694 4.78265C5.22219 4.70987 5.29651 4.6132 5.34235 4.50243C5.38818 4.39167 5.4039 4.2703 5.38792 4.15149L4.9389 4.21221ZM4.61585 3.7641C4.73682 3.91181 4.81883 4.01239 4.87411 4.09168C4.93029 4.17279 4.93754 4.20405 4.9389 4.21221L5.38792 4.15149C5.37206 4.03278 5.31225 3.92857 5.24565 3.83297C5.17814 3.73555 5.08253 3.61911 4.96654 3.47729L4.61585 3.7641ZM4.36167 3.37806C4.38432 3.45056 4.42147 3.51218 4.4627 3.57018C4.50258 3.62591 4.55514 3.69024 4.61585 3.7641L4.96654 3.47729C4.91999 3.42186 4.87512 3.36505 4.83197 3.30693C4.81588 3.28669 4.80276 3.26427 4.79301 3.24032L4.36167 3.37806ZM4.38523 2.90141C4.32001 3.05223 4.31164 3.22156 4.36167 3.37806L4.79301 3.24032C4.77651 3.18821 4.7794 3.13189 4.80116 3.08174L4.38523 2.90141ZM4.67702 2.54256C4.60905 2.61007 4.55015 2.66852 4.50484 2.72063C4.45555 2.7741 4.41517 2.83514 4.38523 2.90141L4.80116 3.08174C4.81321 3.05885 4.82847 3.03734 4.84647 3.01876C4.89497 2.9651 4.9453 2.91312 4.99735 2.8629L4.67702 2.54256ZM5.08163 2.1375L4.67702 2.54256L4.99735 2.8629L5.40196 2.45784L5.08163 2.1375ZM5.44048 1.84616C5.3742 1.87611 5.31317 1.91649 5.25969 1.96578C5.20804 2.01109 5.14914 2.06954 5.08163 2.1375L5.40196 2.45784C5.474 2.38625 5.52022 2.34003 5.55783 2.30696C5.59407 2.27524 5.61129 2.26618 5.62081 2.26165L5.44048 1.84616ZM5.91758 1.82215C5.76088 1.77216 5.59136 1.78069 5.44048 1.84616L5.62081 2.26165C5.67095 2.23989 5.72727 2.23744 5.77939 2.25395L5.91758 1.82215ZM6.30361 2.07679C6.22931 2.01607 6.16542 1.96351 6.10924 1.92364C6.0512 1.87977 5.98649 1.8455 5.91758 1.82215L5.77939 2.25395C5.80346 2.26352 5.82604 2.27649 5.84644 2.29246C5.88722 2.32191 5.93797 2.36314 6.01681 2.42748L6.30361 2.07679ZM6.75127 2.39984C6.74311 2.39848 6.71185 2.39078 6.63075 2.3346C6.51869 2.25239 6.40958 2.16671 6.30361 2.07679L6.01681 2.42748C6.15817 2.54347 6.27507 2.63907 6.37203 2.70658C6.46718 2.77273 6.5723 2.83254 6.69101 2.84885L6.75127 2.39984ZM6.9615 2.31239C6.9373 2.34423 6.90509 2.36909 6.86817 2.38445C6.83124 2.39981 6.79091 2.40512 6.75127 2.39984L6.69101 2.84885C6.80988 2.86492 6.93089 2.84879 7.04175 2.80295C7.1526 2.75711 7.24935 2.68275 7.32216 2.58742L6.9615 2.31239ZM7.04985 1.76778C7.03083 1.95717 7.01814 2.0863 7.00092 2.181C6.98325 2.27796 6.96694 2.3056 6.9615 2.31239L7.32216 2.58742C7.39466 2.49227 7.42637 2.37583 7.44676 2.26119C7.4676 2.14475 7.48301 1.99478 7.50113 1.81263L7.04985 1.76778ZM7.14319 1.31469C7.1083 1.38265 7.09063 1.45197 7.07885 1.5222C7.06753 1.59017 7.05937 1.67218 7.04985 1.76778L7.50068 1.81309C7.50697 1.74081 7.51544 1.66873 7.52605 1.59696C7.52914 1.57137 7.53586 1.54635 7.54599 1.52266L7.14319 1.31469ZM7.49751 0.994352C7.34446 1.05486 7.21856 1.16839 7.14319 1.31469L7.54599 1.52266C7.57104 1.47394 7.61289 1.43596 7.66379 1.41573L7.49751 0.994352ZM7.95694 0.946777C7.86134 0.946777 7.77843 0.946777 7.70956 0.951308C7.63703 0.954241 7.56544 0.968773 7.49751 0.994352L7.66379 1.41573C7.68846 1.40805 7.71409 1.40393 7.73991 1.40349C7.78975 1.39987 7.85545 1.39987 7.9574 1.39987L7.95694 0.946777ZM8.52965 0.946777H7.95694V1.39987H8.52965V0.946777ZM8.98954 0.994352C8.92132 0.968678 8.84942 0.954144 8.77659 0.951308C8.70817 0.946777 8.62525 0.946777 8.52965 0.946777V1.39987C8.63114 1.39987 8.69639 1.39987 8.74668 1.40349C8.77251 1.40393 8.79814 1.40805 8.8228 1.41573L8.98954 0.994352ZM9.3434 1.31469C9.26795 1.16856 9.14206 1.05474 8.98909 0.994352L8.8228 1.41573C8.8737 1.43596 8.91556 1.47394 8.9406 1.52266L9.3434 1.31469ZM9.82912 5.70378C9.82912 6.12437 9.66204 6.52773 9.36464 6.82512C9.06724 7.12252 8.66388 7.2896 8.2433 7.2896V7.74269C8.78405 7.74269 9.30265 7.52788 9.68502 7.14551C10.0674 6.76314 10.2822 6.24453 10.2822 5.70378H9.82912ZM8.2433 4.11796C8.66388 4.11796 9.06724 4.28504 9.36464 4.58244C9.66204 4.87984 9.82912 5.2832 9.82912 5.70378H10.2822C10.2822 5.16303 10.0674 4.64442 9.68502 4.26205C9.30265 3.87968 8.78405 3.66487 8.2433 3.66487V4.11796ZM6.65748 5.70378C6.65748 5.2832 6.82456 4.87984 7.12195 4.58244C7.41935 4.28504 7.82271 4.11796 8.2433 4.11796V3.66487C7.70254 3.66487 7.18394 3.87968 6.80157 4.26205C6.4192 4.64442 6.20439 5.16303 6.20439 5.70378H6.65748ZM8.2433 7.2896C7.82271 7.2896 7.41935 7.12252 7.12195 6.82512C6.82456 6.52773 6.65748 6.12437 6.65748 5.70378H6.20439C6.20439 6.24453 6.4192 6.76314 6.80157 7.14551C7.18394 7.52788 7.70254 7.74269 8.2433 7.74269V7.2896Z" fill="white"/>
</g>
<defs>
<clipPath id="clip0_4237_5357">
<rect width="10.8742" height="10.8742" fill="white" transform="translate(0.644043 0.268066)"/>
</clipPath>
</defs>
</svg>
