<svg width="24" height="24" viewBox="0 0 24 24" fill="none" xmlns="http://www.w3.org/2000/svg">
<g clip-path="url(#clip0_4294_4981)">
<path d="M24.5038 14.0016L24.4575 13.5415L24.4436 13.5424L24.4279 13.5452L24.5038 14.0016ZM24.5038 14.0016L24.5501 14.4627L24.5658 14.4608L24.5806 14.4581L24.5038 14.0016ZM20.7634 19.0771L21.0569 18.7188L21.0523 18.716L20.7634 19.0771ZM20.7634 19.0771L20.4699 19.4353L20.4745 19.4391L20.7634 19.0771ZM12.2494 19.0771L11.9559 18.7197L11.9495 18.7252L11.9421 18.7317L12.2494 19.0771ZM12.2494 19.0771L12.5429 19.4363L12.5503 19.4298L12.5568 19.4242L12.2494 19.0771ZM8.50813 10.0465V9.58355H8.48591L8.46277 9.5854L8.50813 10.0465ZM8.50813 10.0465V10.5094H8.53128L8.55443 10.5066L8.50813 10.0465ZM18.9432 3.97947C18.9295 3.81159 18.91 3.64422 18.8849 3.47767C18.8641 3.33019 18.8197 3.18702 18.7534 3.05364L17.9304 3.47859C17.9396 3.49711 17.9553 3.53414 17.9711 3.63043C17.9887 3.73227 18.0016 3.86467 18.0229 4.07113L18.9432 3.97947ZM19.1247 5.09325C19.1136 5.07936 19.0802 5.02289 19.0441 4.82476C19.0008 4.54426 18.9684 4.26232 18.9451 3.97947L18.0229 4.07113C18.06 4.44239 18.0905 4.74977 18.1331 4.98863C18.1748 5.22194 18.2396 5.45988 18.3886 5.65523L19.1247 5.09325ZM19.5543 5.27101C19.4733 5.2819 19.391 5.27119 19.3155 5.23997C19.2401 5.20875 19.1742 5.15813 19.1247 5.09325L18.3877 5.6543C18.5364 5.84927 18.734 6.0014 18.9606 6.09523C19.1871 6.18906 19.4344 6.22124 19.6774 6.18851L19.5543 5.27101ZM20.469 4.61089C20.1681 4.85809 19.9626 5.02566 19.8005 5.13769C19.6348 5.25249 19.5709 5.26823 19.5543 5.27101L19.6774 6.18851C19.92 6.15611 20.1338 6.0339 20.3292 5.8978C20.5282 5.75892 20.7662 5.5645 21.056 5.32749L20.469 4.61089ZM21.2578 4.0915C21.1097 4.13871 20.9847 4.21371 20.8662 4.29796C20.7514 4.37943 20.6208 4.48683 20.469 4.61089L21.056 5.32749C21.2161 5.19602 21.3198 5.11177 21.4032 5.05251C21.4448 5.01956 21.4909 4.99275 21.5402 4.97289L21.2578 4.0915ZM22.2327 4.13964C21.9243 4.00616 21.5779 3.98905 21.2578 4.0915L21.5402 4.97289C21.6467 4.93917 21.7618 4.94509 21.8642 4.98956L22.2327 4.13964ZM22.966 4.73588C22.8271 4.597 22.7077 4.47664 22.6021 4.38406C22.4928 4.28335 22.3681 4.20082 22.2327 4.13964L21.8642 4.98956C21.8837 4.99789 21.9188 5.01733 21.9929 5.08214C22.0698 5.1488 22.1642 5.24323 22.3114 5.39044L22.966 4.73588ZM23.7927 5.56265L22.966 4.73588L22.3114 5.39044L23.1382 6.21721L23.7927 5.56265ZM24.389 6.29591C24.3275 6.16043 24.2447 6.0357 24.1436 5.9265C24.051 5.82096 23.9307 5.70152 23.7927 5.56265L23.1382 6.21721C23.2854 6.36442 23.3789 6.45886 23.4474 6.5357C23.5122 6.60977 23.5307 6.64495 23.5391 6.66439L24.389 6.29591ZM24.4371 7.27081C24.5396 6.95072 24.5225 6.60435 24.389 6.29591L23.5391 6.66439C23.5832 6.76697 23.5888 6.88206 23.5548 6.98843L24.4371 7.27081ZM23.9177 8.05962C24.0418 7.90779 24.1492 7.77724 24.2307 7.66244C24.314 7.54393 24.3899 7.41895 24.4371 7.27081L23.5548 6.98843C23.5352 7.03762 23.5087 7.08376 23.4761 7.12546C23.3879 7.2439 23.2962 7.35968 23.2011 7.47264L23.9177 8.05962ZM23.2576 8.97435C23.2604 8.95768 23.2761 8.8938 23.3909 8.72807C23.5029 8.56605 23.6705 8.36052 23.9177 8.05962L23.2011 7.47264C22.9641 7.76243 22.7688 8.00037 22.6308 8.19942C22.4947 8.39385 22.3725 8.60864 22.3401 8.85121L23.2576 8.97435ZM23.4354 9.40393C23.3705 9.35437 23.3199 9.28852 23.2886 9.21307C23.2574 9.13763 23.2467 9.05527 23.2576 8.97435L22.3401 8.85121C22.3075 9.09406 22.3398 9.34119 22.4336 9.56754C22.5275 9.79388 22.6795 9.99138 22.8743 10.14L23.4354 9.40393ZM24.5491 9.58447C24.1612 9.54559 23.8983 9.51966 23.7039 9.48448C23.5057 9.44837 23.4492 9.41504 23.4354 9.40393L22.8743 10.14C23.0687 10.2881 23.3067 10.3529 23.5409 10.3955C23.7788 10.4381 24.0853 10.4696 24.4575 10.5066L24.5491 9.58447ZM25.475 9.77519C25.3416 9.70892 25.1984 9.66453 25.0509 9.64372C24.9121 9.62058 24.7436 9.60391 24.5491 9.58447L24.4566 10.5057C24.6639 10.527 24.7963 10.5399 24.8982 10.5575C24.9505 10.5638 25.0016 10.5776 25.05 10.5983L25.475 9.77519ZM26.1295 10.4983C26.0059 10.186 25.7734 9.92915 25.475 9.77519L25.05 10.5983C25.1496 10.6494 25.2272 10.735 25.2685 10.839L26.1295 10.4983ZM26.2268 11.438C26.2268 11.2426 26.2268 11.0732 26.2175 10.9325C26.2116 10.784 26.1819 10.6374 26.1295 10.4983L25.2685 10.839C25.2759 10.8584 25.287 10.8973 25.2935 10.9945C25.3004 11.1425 25.3029 11.2907 25.3009 11.4389L26.2268 11.438ZM26.2268 12.6082V11.438H25.3009V12.6082H26.2268ZM26.1295 13.547C26.1869 13.4026 26.2082 13.2582 26.2175 13.1128C26.2268 12.973 26.2268 12.8036 26.2268 12.6082H25.3009C25.3009 12.8156 25.3009 12.949 25.2935 13.0517C25.2926 13.1045 25.2842 13.1569 25.2685 13.2073L26.1295 13.547ZM25.475 14.271C25.7736 14.1169 26.0061 13.8596 26.1295 13.547L25.2685 13.2073C25.2272 13.3113 25.1496 13.3968 25.05 13.448L25.475 14.271ZM24.5491 14.4618C24.7436 14.4423 24.913 14.4247 25.0509 14.4016C25.1944 14.3784 25.3361 14.3423 25.4741 14.272L25.05 13.448C25.0016 13.4687 24.9505 13.4824 24.8982 13.4887C24.7963 13.5063 24.6639 13.5193 24.4575 13.5406L24.5491 14.4618ZM23.4363 14.6423C23.4502 14.6312 23.5067 14.5969 23.7048 14.5618C23.8992 14.5266 24.1621 14.4997 24.5491 14.4618L24.4575 13.5406C24.0862 13.5776 23.7788 13.6072 23.54 13.6507C23.3067 13.6924 23.0697 13.7572 22.8743 13.9053L23.4363 14.6423ZM23.2576 15.0719C23.2468 14.9909 23.2577 14.9085 23.2891 14.833C23.3204 14.7576 23.3712 14.6918 23.4363 14.6423L22.8743 13.9053C22.6793 14.054 22.5272 14.2517 22.4334 14.4782C22.3396 14.7047 22.3074 14.952 22.3401 15.195L23.2576 15.0719ZM23.9177 15.9866C23.7343 15.7701 23.5586 15.5471 23.3909 15.3182C23.2761 15.1534 23.2604 15.0886 23.2576 15.0719L22.341 15.196C22.3734 15.4385 22.4956 15.6515 22.6308 15.8468C22.7697 16.0449 22.9641 16.2838 23.2011 16.5727L23.9177 15.9866ZM24.4371 16.7754C24.3898 16.6344 24.3201 16.5018 24.2307 16.3829C24.1304 16.2477 24.026 16.1155 23.9177 15.9866L23.2011 16.5727C23.3326 16.7338 23.4168 16.8365 23.4761 16.9208C23.5086 16.9622 23.5351 17.008 23.5548 17.0569L24.4371 16.7754ZM24.389 17.7503C24.5225 17.4419 24.5396 17.0955 24.4371 16.7754L23.5548 17.0569C23.589 17.1635 23.5835 17.279 23.5391 17.3818L24.389 17.7503ZM23.7937 18.4827C23.9316 18.3447 24.051 18.2253 24.1436 18.1197C24.2399 18.0096 24.3269 17.8938 24.389 17.7503L23.5391 17.3818C23.5144 17.4286 23.4833 17.4716 23.4465 17.5096C23.3469 17.6188 23.2441 17.725 23.1382 17.8281L23.7937 18.4827ZM22.966 19.3104L23.7937 18.4827L23.1382 17.8281L22.3114 18.6558L22.966 19.3104ZM22.2327 19.9057C22.3753 19.8436 22.4919 19.7575 22.6021 19.6613C22.7077 19.5687 22.8271 19.4483 22.966 19.3094L22.3114 18.6558C22.1642 18.803 22.0698 18.8965 21.9929 18.9641C21.9547 19.001 21.9113 19.0321 21.8642 19.0567L22.2327 19.9057ZM21.2578 19.9547C21.578 20.0569 21.9244 20.0395 22.2327 19.9057L21.8642 19.0567C21.7616 19.1008 21.6466 19.1064 21.5402 19.0724L21.2578 19.9547ZM20.469 19.4344C20.6208 19.5585 20.7514 19.6659 20.8662 19.7474C20.9847 19.8316 21.1097 19.9075 21.2578 19.9547L21.5402 19.0724C21.491 19.0529 21.4448 19.0264 21.4032 18.9937C21.2847 18.9052 21.1689 18.8132 21.056 18.7178L20.469 19.4344ZM19.5543 18.7752C19.5709 18.7771 19.6357 18.7937 19.8005 18.9085C19.9626 19.0206 20.1681 19.1882 20.469 19.4344L21.056 18.7178C20.7662 18.4817 20.5282 18.2864 20.3292 18.1475C20.1348 18.0123 19.92 17.8901 19.6774 17.8577L19.5543 18.7752ZM19.1247 18.953C19.1742 18.8881 19.2401 18.8375 19.3155 18.8063C19.391 18.775 19.4733 18.7643 19.5543 18.7752L19.6774 17.8577C19.4346 17.8251 19.1876 17.8572 18.9612 17.9508C18.7349 18.0445 18.5373 18.1964 18.3886 18.391L19.1247 18.953ZM18.9441 20.0668C18.983 19.6788 19.0089 19.4159 19.0441 19.2215C19.0802 19.0234 19.1136 18.9669 19.1247 18.953L18.3886 18.391C18.2405 18.5854 18.1757 18.8243 18.1331 19.0576C18.0905 19.2955 18.059 19.602 18.022 19.9742L18.9441 20.0668ZM18.7534 20.9926C18.8247 20.8537 18.8599 20.7121 18.884 20.5686C18.908 20.4297 18.9247 20.2612 18.9441 20.0668L18.022 19.9742C18.0092 20.1219 17.9928 20.2691 17.9711 20.4158C17.9648 20.4681 17.9511 20.5192 17.9304 20.5676L18.7534 20.9926ZM18.0303 21.6472C18.3426 21.5236 18.5995 21.291 18.7534 20.9926L17.9304 20.5676C17.8792 20.6672 17.7936 20.7448 17.6896 20.7861L18.0303 21.6472ZM17.0906 21.7444C17.286 21.7444 17.4554 21.7444 17.5961 21.7351C17.7406 21.7259 17.8859 21.7046 18.0303 21.6472L17.6896 20.7861C17.6392 20.8018 17.5869 20.8102 17.5341 20.8111C17.4323 20.8185 17.298 20.8185 17.0897 20.8185L17.0906 21.7444ZM15.9204 21.7444H17.0906L17.0897 20.8185H15.9204V21.7444ZM14.9806 21.6472C15.126 21.7046 15.2704 21.7259 15.4158 21.7351C15.5556 21.7444 15.725 21.7444 15.9204 21.7444V20.8185C15.713 20.8185 15.5797 20.8185 15.4769 20.8111C15.4241 20.8102 15.3717 20.8018 15.3214 20.7861L14.9806 21.6472ZM14.2576 20.9926C14.4115 21.291 14.6684 21.5236 14.9806 21.6472L15.3214 20.7861C15.2173 20.7448 15.1318 20.6672 15.0806 20.5676L14.2576 20.9926ZM14.0668 20.0668C14.0854 20.2624 14.1051 20.4297 14.1261 20.5686C14.1502 20.7121 14.1863 20.8537 14.2576 20.9926L15.0806 20.5676C15.0599 20.5192 15.0462 20.4681 15.0399 20.4158C15.0182 20.2695 15.0009 20.1225 14.988 19.9751L14.0668 20.0668ZM13.8863 18.953C13.8974 18.9669 13.9307 19.0234 13.9669 19.2215C14.002 19.4159 14.028 19.6798 14.0668 20.0668L14.988 19.9751C14.951 19.6038 14.9205 19.2965 14.8779 19.0576C14.8362 18.8243 14.7714 18.5864 14.6223 18.391L13.8863 18.953ZM13.4567 18.7752C13.5376 18.7643 13.62 18.775 13.6954 18.8063C13.7709 18.8375 13.8367 18.8881 13.8863 18.953L14.6223 18.391C14.4737 18.1962 14.2763 18.0451 14.0499 17.9513C13.8236 17.8574 13.5764 17.8252 13.3336 17.8577L13.4567 18.7752ZM12.542 19.4353C12.8429 19.1882 13.0484 19.0206 13.2104 18.9085C13.3762 18.7937 13.4401 18.7771 13.4567 18.7752L13.3336 17.8577C13.091 17.8901 12.8771 18.0123 12.6818 18.1484C12.4827 18.2864 12.2448 18.4817 11.955 18.7188L12.542 19.4353ZM11.7532 19.9547C11.9013 19.9075 12.0263 19.8325 12.1448 19.7483C12.2596 19.6668 12.3902 19.5594 12.542 19.4353L11.955 18.7188C11.8421 18.8139 11.7263 18.9055 11.6078 18.9937C11.5661 19.0264 11.52 19.0529 11.4708 19.0724L11.7532 19.9547ZM10.7783 19.9075C11.0867 20.041 11.4331 20.0572 11.7532 19.9547L11.4708 19.0724C11.3644 19.1064 11.2493 19.1008 11.1468 19.0567L10.7783 19.9075ZM10.045 19.3104C10.1839 19.4492 10.3033 19.5696 10.4089 19.6622C10.5181 19.7575 10.6357 19.8455 10.7783 19.9075L11.1468 19.0567C11.0997 19.0321 11.0563 19.001 11.0181 18.9641C10.9089 18.8645 10.8026 18.7617 10.6996 18.6558L10.045 19.3104ZM9.21825 18.4836L10.045 19.3104L10.6996 18.6558L9.87281 17.829L9.21825 18.4836ZM8.62201 17.7503C8.68404 17.8929 8.77107 18.0096 8.86736 18.1197C8.95994 18.2253 9.0803 18.3447 9.21825 18.4836L9.87281 17.829C9.76658 17.726 9.66346 17.6198 9.56359 17.5105C9.52673 17.4723 9.49555 17.429 9.471 17.3818L8.62201 17.7503ZM8.57387 16.7754C8.47142 17.0955 8.48853 17.4419 8.62201 17.7503L9.471 17.3818C9.42653 17.2794 9.42154 17.1643 9.45526 17.0578L8.57387 16.7754ZM9.09326 15.9866C8.9692 16.1385 8.8618 16.269 8.78033 16.3838C8.69101 16.5025 8.6213 16.6347 8.57387 16.7754L9.45526 17.0578C9.47512 17.0086 9.50193 16.9624 9.53488 16.9208C9.59414 16.8375 9.67839 16.7338 9.80986 16.5736L9.09326 15.9866ZM9.75338 15.0719C9.7506 15.0886 9.73486 15.1524 9.62006 15.3182C9.50711 15.4802 9.34046 15.6857 9.09326 15.9866L9.80986 16.5736C10.0469 16.2838 10.2422 16.0459 10.3802 15.8468C10.5163 15.6524 10.6385 15.4376 10.6709 15.195L9.75338 15.0719ZM9.57562 14.6423C9.6405 14.6919 9.69112 14.7577 9.72234 14.8332C9.75356 14.9086 9.76427 14.991 9.75338 15.0719L10.6709 15.195C10.7034 14.9522 10.6712 14.705 10.5774 14.4787C10.4835 14.2524 10.3315 14.0549 10.1367 13.9063L9.57562 14.6423ZM8.46184 14.4627C8.84977 14.5007 9.1127 14.5266 9.30713 14.5618C9.50526 14.5979 9.56173 14.6312 9.57562 14.6423L10.1367 13.9053C9.94225 13.7572 9.70431 13.6924 9.47008 13.6507C9.23214 13.6081 8.92569 13.5767 8.5535 13.5396L8.46184 14.4627ZM7.53601 14.271C7.67488 14.3423 7.81654 14.3775 7.96004 14.4016C8.09892 14.4257 8.26649 14.4432 8.46184 14.4627L8.55443 13.5406C8.40673 13.5277 8.25946 13.5104 8.1128 13.4887C8.06052 13.4824 8.00939 13.4687 7.96097 13.448L7.53601 14.271ZM6.88144 13.547C7.00484 13.8596 7.23741 14.1169 7.53601 14.271L7.96097 13.448C7.86143 13.3968 7.7838 13.3113 7.74247 13.2073L6.88144 13.547ZM6.78516 12.6101C6.78516 12.8054 6.78516 12.9749 6.79441 13.1156C6.80041 13.2638 6.8301 13.4101 6.88237 13.5489L7.74339 13.2091C7.72772 13.1587 7.7193 13.1063 7.7184 13.0536C7.71148 12.9055 7.70901 12.7573 7.71099 12.6092L6.78516 12.6101ZM6.78516 11.4398V12.6101H7.71099V11.4398H6.78516ZM6.88237 10.5001C6.82991 10.6395 6.80021 10.7864 6.79441 10.9353C6.78516 11.0751 6.78516 11.2445 6.78516 11.4398H7.71099C7.71099 11.2325 7.71099 11.0991 7.7184 10.9964C7.7193 10.9436 7.72772 10.8912 7.74339 10.8408L6.88237 10.5001ZM7.53693 9.77704C7.2385 9.931 7.00596 10.1879 6.88237 10.5001L7.74339 10.8408C7.78473 10.7368 7.86235 10.6513 7.96189 10.6001L7.53693 9.77704ZM8.46277 9.5854C8.26711 9.60391 8.09984 9.62459 7.96097 9.64558C7.81349 9.66638 7.67031 9.71077 7.53693 9.77704L7.96189 10.6001C7.98041 10.5909 8.01744 10.5751 8.11373 10.5594C8.21557 10.5418 8.34796 10.5288 8.55443 10.5075L8.46277 9.5854ZM9.57655 9.40579C9.56266 9.4169 9.50618 9.45023 9.30805 9.48633C9.11363 9.52151 8.85069 9.54651 8.46277 9.5854L8.55443 10.5075C8.92569 10.4705 9.23399 10.4399 9.47193 10.3974C9.70616 10.3557 9.9441 10.2909 10.1385 10.1418L9.57655 9.40579ZM9.75431 8.9762C9.7652 9.05712 9.75449 9.13948 9.72327 9.21493C9.69205 9.29037 9.64143 9.35622 9.57655 9.40579L10.1385 10.1418C10.3332 9.99312 10.485 9.79558 10.5787 9.56924C10.6723 9.34291 10.7045 9.0949 10.6718 8.85214L9.75431 8.9762ZM9.09419 8.06055C9.34139 8.36237 9.50896 8.56791 9.62191 8.72993C9.73672 8.89565 9.75153 8.95953 9.75431 8.9762L10.6718 8.85214C10.6394 8.60957 10.5172 8.39663 10.3811 8.20127C10.2431 8.00222 10.0478 7.76428 9.81078 7.4745L9.09419 8.06055ZM8.57479 7.27174C8.62109 7.41987 8.697 7.54578 8.78126 7.66429C8.86273 7.77817 8.97013 7.90964 9.09419 8.06055L9.81078 7.4745C9.71567 7.36123 9.62397 7.24514 9.53581 7.12638C9.50293 7.08503 9.47612 7.03921 9.45619 6.99028L8.57479 7.27174ZM8.62294 6.29776C8.48968 6.60593 8.47258 6.95193 8.57479 7.27174L9.45619 6.99028C9.42247 6.8838 9.42839 6.76871 9.47285 6.66624L8.62294 6.29776ZM9.21918 5.5645C9.0803 5.70245 8.95994 5.82188 8.86736 5.92835C8.76665 6.03762 8.68412 6.16234 8.62294 6.29776L9.47285 6.66624C9.49748 6.61947 9.52865 6.57552 9.56544 6.53755C9.66454 6.4279 9.76737 6.32168 9.87374 6.21906L9.21918 5.5645ZM10.0459 4.7368L9.21918 5.5645L9.87374 6.21906L10.7005 5.39137L10.0459 4.7368ZM10.7792 4.14149C10.6438 4.20268 10.5191 4.2852 10.4098 4.38591C10.3043 4.4785 10.1839 4.59793 10.0459 4.7368L10.7005 5.39137C10.8477 5.24509 10.9422 5.15065 11.019 5.08307C11.0931 5.01826 11.1282 4.99974 11.1477 4.99048L10.7792 4.14149ZM11.7541 4.09242C11.4339 3.99027 11.0875 4.0077 10.7792 4.14149L11.1477 4.99048C11.2502 4.94601 11.3652 4.94102 11.4717 4.97474L11.7541 4.09242ZM12.5429 4.61274C12.3911 4.48868 12.2605 4.38128 12.1457 4.29981C12.0271 4.21016 11.8949 4.14014 11.7541 4.09242L11.4717 4.97474C11.5209 4.99431 11.5671 5.02081 11.6088 5.05344C11.6921 5.11362 11.7958 5.19787 11.9569 5.32934L12.5429 4.61274ZM13.4576 5.27286C13.441 5.27008 13.3771 5.25434 13.2114 5.13954C12.9824 4.97157 12.7594 4.79648 12.5429 4.61274L11.9569 5.32934C12.2457 5.56635 12.4846 5.7617 12.6827 5.89965C12.8771 6.03482 13.0919 6.15703 13.3345 6.19036L13.4576 5.27286ZM13.8872 5.09418C13.8378 5.15923 13.772 5.21003 13.6965 5.24141C13.6211 5.27279 13.5386 5.28365 13.4576 5.27286L13.3345 6.19036C13.5774 6.2232 13.8247 6.19023 14.0512 6.09657C14.2777 6.0029 14.4754 5.85095 14.6242 5.65616L13.8872 5.09418ZM14.0678 3.98132C14.0289 4.36832 14.003 4.63218 13.9678 4.82568C13.9317 5.02381 13.8983 5.08029 13.8872 5.09418L14.6242 5.65616C14.7723 5.46173 14.8371 5.22379 14.8788 4.98956C14.9214 4.75162 14.9529 4.44517 14.9899 4.07298L14.0678 3.98132ZM14.2585 3.05549C14.1872 3.19436 14.1511 3.33602 14.127 3.47952C14.1039 3.6184 14.0872 3.78597 14.0678 3.98132L14.989 4.07391C15.0018 3.92621 15.0191 3.77894 15.0408 3.63228C15.0471 3.58 15.0609 3.52887 15.0816 3.48045L14.2585 3.05549ZM14.9825 2.40092C14.6698 2.52455 14.4125 2.75654 14.2585 3.05549L15.0816 3.48045C15.1327 3.38091 15.2183 3.30329 15.3223 3.26195L14.9825 2.40092ZM15.9213 2.30371C15.7259 2.30371 15.5565 2.30371 15.4158 2.31297C15.2676 2.31896 15.1213 2.34866 14.9825 2.40092L15.3223 3.26195C15.3727 3.24627 15.425 3.23785 15.4778 3.23695C15.5797 3.22955 15.7139 3.22955 15.9222 3.22955L15.9213 2.30371ZM17.0915 2.30371H15.9213V3.22955H17.0915V2.30371ZM18.0313 2.40092C17.8919 2.34846 17.745 2.31876 17.5961 2.31297C17.4563 2.30371 17.2869 2.30371 17.0915 2.30371V3.22955C17.2989 3.22955 17.4323 3.22955 17.535 3.23695C17.5878 3.23785 17.6402 3.24627 17.6906 3.26195L18.0313 2.40092ZM18.7543 3.05549C18.6002 2.75689 18.3429 2.52433 18.0303 2.40092L17.6906 3.26195C17.7946 3.30329 17.8801 3.38091 17.9313 3.48045L18.7543 3.05549ZM19.7468 12.024C19.7468 12.8835 19.4054 13.7077 18.7977 14.3154C18.19 14.9231 17.3658 15.2645 16.5064 15.2645V16.1903C17.6114 16.1903 18.6711 15.7514 19.4524 14.97C20.2337 14.1887 20.6727 13.129 20.6727 12.024H19.7468ZM16.5064 8.78362C17.3658 8.78362 18.19 9.12502 18.7977 9.73272C19.4054 10.3404 19.7468 11.1646 19.7468 12.024H20.6727C20.6727 10.9191 20.2337 9.85938 19.4524 9.07806C18.6711 8.29673 17.6114 7.85779 16.5064 7.85779V8.78362ZM13.266 12.024C13.266 11.1646 13.6074 10.3404 14.2151 9.73272C14.8228 9.12502 15.647 8.78362 16.5064 8.78362V7.85779C15.4015 7.85779 14.3418 8.29673 13.5604 9.07806C12.7791 9.85938 12.3402 10.9191 12.3402 12.024H13.266ZM16.5064 15.2645C15.647 15.2645 14.8228 14.9231 14.2151 14.3154C13.6074 13.7077 13.266 12.8835 13.266 12.024H12.3402C12.3402 13.129 12.7791 14.1887 13.5604 14.97C14.3418 15.7514 15.4015 16.1903 16.5064 16.1903V15.2645Z" fill="white"/>
</g>
<defs>
<clipPath id="clip0_4294_4981">
<rect width="22.22" height="22.22" fill="white" transform="translate(0.978027 0.917969)"/>
</clipPath>
</defs>
</svg>
