<svg width="12" height="12" viewBox="0 0 12 12" fill="none" xmlns="http://www.w3.org/2000/svg">
<g clip-path="url(#clip0_4220_7068)">
<path d="M9.61901 6.67207L9.59636 6.44689L9.58956 6.44734L9.58186 6.4487L9.61901 6.67207ZM9.61901 6.67207L9.64167 6.89771L9.64937 6.89681L9.65662 6.89545L9.61901 6.67207ZM7.78852 9.15592L7.93215 8.98057L7.92989 8.97921L7.78852 9.15592ZM7.78852 9.15592L7.64489 9.33126L7.64716 9.33308L7.78852 9.15592ZM3.6219 9.15592L3.47827 8.98102L3.4751 8.98374L3.47147 8.98692L3.6219 9.15592ZM3.6219 9.15592L3.76553 9.33172L3.76915 9.32855L3.77232 9.32583L3.6219 9.15592ZM1.79096 4.73647V4.50992H1.78008L1.76876 4.51083L1.79096 4.73647ZM1.79096 4.73647V4.96301H1.80228L1.81361 4.96165L1.79096 4.73647ZM6.89775 1.76736C6.89103 1.6852 6.88151 1.6033 6.8692 1.52179C6.85902 1.44961 6.8373 1.37954 6.80486 1.31427L6.40207 1.52224C6.4066 1.5313 6.4143 1.54942 6.422 1.59655C6.43061 1.64639 6.43695 1.71118 6.44737 1.81222L6.89775 1.76736ZM6.98655 2.31243C6.98112 2.30563 6.9648 2.27799 6.94713 2.18103C6.92595 2.04376 6.91008 1.90579 6.89865 1.76736L6.44737 1.81222C6.4655 1.99391 6.48045 2.14433 6.50129 2.26123C6.52168 2.37541 6.5534 2.49185 6.62635 2.58746L6.98655 2.31243ZM7.19679 2.39942C7.15719 2.40475 7.11688 2.39951 7.07996 2.38423C7.04304 2.36895 7.01081 2.34418 6.98655 2.31243L6.62589 2.587C6.69865 2.68242 6.79538 2.75687 6.90624 2.80278C7.01709 2.8487 7.13813 2.86445 7.25705 2.84844L7.19679 2.39942ZM7.64444 2.07637C7.49719 2.19734 7.3966 2.27935 7.31731 2.33418C7.23621 2.39036 7.20494 2.39806 7.19679 2.39942L7.25705 2.84844C7.37576 2.83258 7.48042 2.77277 7.57602 2.70617C7.67344 2.6382 7.78988 2.54305 7.9317 2.42706L7.64444 2.07637ZM8.03048 1.82218C7.95798 1.84529 7.89681 1.88199 7.83882 1.92322C7.78263 1.9631 7.71875 2.01565 7.64444 2.07637L7.9317 2.42706C8.01009 2.36272 8.06083 2.32149 8.10161 2.29249C8.12199 2.27637 8.14457 2.26324 8.16867 2.25353L8.03048 1.82218ZM8.50758 1.84575C8.35664 1.78042 8.18712 1.77205 8.03048 1.82218L8.16867 2.25353C8.22078 2.23702 8.2771 2.23992 8.32725 2.26168L8.50758 1.84575ZM8.86643 2.13754C8.79846 2.06957 8.74002 2.01067 8.68836 1.96536C8.63489 1.91607 8.57385 1.87569 8.50758 1.84575L8.32725 2.26168C8.33677 2.26576 8.35398 2.27528 8.39023 2.30699C8.42784 2.33961 8.47405 2.38583 8.54609 2.45787L8.86643 2.13754ZM9.27104 2.54215L8.86643 2.13754L8.54609 2.45787L8.9507 2.86248L9.27104 2.54215ZM9.56283 2.90099C9.53275 2.83469 9.49221 2.77365 9.44276 2.72021C9.39745 2.66856 9.33855 2.61011 9.27104 2.54215L8.9507 2.86248C9.02275 2.93452 9.06851 2.98074 9.10204 3.01835C9.13375 3.05459 9.14281 3.07181 9.14689 3.08132L9.56283 2.90099ZM9.58639 3.3781C9.63653 3.22145 9.62815 3.05194 9.56283 2.90099L9.14689 3.08132C9.1685 3.13153 9.17124 3.18785 9.15459 3.23991L9.58639 3.3781ZM9.33221 3.76413C9.39292 3.68983 9.44548 3.62594 9.48535 3.56976C9.52613 3.51176 9.56328 3.45059 9.58639 3.3781L9.15459 3.23991C9.14502 3.26398 9.13205 3.28656 9.11608 3.30696C9.07293 3.36493 9.02805 3.42159 8.98151 3.47687L9.33221 3.76413ZM9.00915 4.21179C9.01051 4.20363 9.01821 4.17237 9.0744 4.09126C9.12922 4.01197 9.21123 3.91139 9.33221 3.76413L8.98151 3.47687C8.86552 3.61869 8.76992 3.73514 8.70241 3.83255C8.6358 3.9277 8.576 4.03282 8.56014 4.15153L9.00915 4.21179ZM9.09615 4.42202C9.06439 4.39776 9.03962 4.36554 9.02434 4.32862C9.00906 4.2917 9.00382 4.25139 9.00915 4.21179L8.56014 4.15153C8.5442 4.27037 8.56 4.39132 8.60591 4.50209C8.65183 4.61286 8.72623 4.70951 8.82157 4.78223L9.09615 4.42202ZM9.64121 4.51037C9.45137 4.49134 9.32269 4.47866 9.22754 4.46144C9.13058 4.44377 9.10294 4.42746 9.09615 4.42202L8.82157 4.78223C8.91672 4.85472 9.03317 4.88644 9.1478 4.90728C9.26424 4.92812 9.41422 4.94353 9.59636 4.96165L9.64121 4.51037ZM10.0943 4.60371C10.029 4.57128 9.95896 4.54955 9.88679 4.53937C9.81883 4.52804 9.73636 4.51989 9.64121 4.51037L9.59591 4.9612C9.6974 4.97162 9.76219 4.97796 9.81203 4.98657C9.83762 4.98966 9.86264 4.99637 9.88634 5.00651L10.0943 4.60371ZM10.4146 4.95758C10.3542 4.80477 10.2404 4.67906 10.0943 4.60371L9.88634 5.00651C9.93505 5.03156 9.97304 5.07341 9.99327 5.12431L10.4146 4.95758ZM10.4622 5.41746C10.4622 5.32186 10.4622 5.23895 10.4577 5.17007C10.4548 5.09739 10.4403 5.02565 10.4146 4.95758L9.99327 5.12431C9.99689 5.13383 10.0023 5.15286 10.0055 5.20043C10.0089 5.27287 10.0101 5.3454 10.0091 5.41792L10.4622 5.41746ZM10.4622 5.99017V5.41746H10.0091V5.99017H10.4622ZM10.4146 6.4496C10.4427 6.37892 10.4532 6.30824 10.4577 6.2371C10.4622 6.16869 10.4622 6.08577 10.4622 5.99017H10.0091C10.0091 6.09166 10.0091 6.15691 10.0055 6.2072C10.0051 6.23303 10.0009 6.25866 9.99327 6.28332L10.4146 6.4496ZM10.0943 6.80392C10.2404 6.72846 10.3542 6.60258 10.4146 6.4496L9.99327 6.28332C9.97304 6.33422 9.93505 6.37607 9.88634 6.40112L10.0943 6.80392ZM9.64121 6.89726C9.73636 6.88774 9.81928 6.87913 9.88679 6.86781C9.95702 6.85648 10.0263 6.83881 10.0939 6.80437L9.88634 6.40112C9.86264 6.41126 9.83762 6.41797 9.81203 6.42106C9.76219 6.42967 9.6974 6.43601 9.59636 6.44643L9.64121 6.89726ZM9.0966 6.98561C9.1034 6.98017 9.13103 6.96341 9.22799 6.94619C9.32314 6.92897 9.45182 6.91584 9.64121 6.89726L9.59636 6.44643C9.41467 6.46456 9.26424 6.47906 9.14734 6.50035C9.03317 6.52074 8.91717 6.55246 8.82157 6.62495L9.0966 6.98561ZM9.00915 7.19585C9.00387 7.1562 9.00918 7.11587 9.02454 7.07894C9.0399 7.04202 9.06476 7.00982 9.0966 6.98561L8.82157 6.62495C8.72616 6.69771 8.65171 6.79444 8.60579 6.90529C8.55987 7.01615 8.54412 7.13719 8.56014 7.25611L9.00915 7.19585ZM9.33221 7.6435C9.24244 7.53753 9.15645 7.42842 9.0744 7.31637C9.01821 7.23572 9.01051 7.204 9.00915 7.19585L8.56059 7.25656C8.57645 7.37527 8.63626 7.47948 8.70241 7.57508C8.77037 7.67204 8.86552 7.78894 8.98151 7.93031L9.33221 7.6435ZM9.58639 8.02953C9.56322 7.9605 9.52911 7.89563 9.48535 7.83742C9.43627 7.77125 9.3852 7.70658 9.33221 7.6435L8.98151 7.93031C9.04585 8.00914 9.08708 8.05944 9.11608 8.10067C9.13201 8.12093 9.14498 8.14336 9.15459 8.16727L9.58639 8.02953ZM9.56283 8.50664C9.62815 8.35569 9.63653 8.18618 9.58639 8.02953L9.15459 8.16727C9.17135 8.21947 9.16862 8.27598 9.14689 8.32631L9.56283 8.50664ZM9.27149 8.86503C9.339 8.79752 9.39745 8.73907 9.44276 8.68742C9.48988 8.6335 9.53247 8.57687 9.56283 8.50664L9.14689 8.32631C9.13484 8.3492 9.11958 8.37025 9.10158 8.38883C9.05286 8.44228 9.00254 8.49426 8.9507 8.5447L9.27149 8.86503ZM8.86643 9.2701L9.27149 8.86503L8.9507 8.5447L8.54609 8.94976L8.86643 9.2701ZM8.50758 9.56143C8.57736 9.53108 8.63445 9.48894 8.68836 9.44182C8.74002 9.39651 8.79846 9.33761 8.86643 9.26964L8.54609 8.94976C8.47405 9.0218 8.42784 9.06757 8.39023 9.10064C8.37151 9.11868 8.3503 9.13394 8.32725 9.14595L8.50758 9.56143ZM8.03048 9.58545C8.18718 9.63544 8.35669 9.62691 8.50758 9.56143L8.32725 9.14595C8.27705 9.16756 8.22073 9.1703 8.16867 9.15365L8.03048 9.58545ZM7.64444 9.33081C7.71875 9.39153 7.78263 9.44408 7.83882 9.48396C7.89681 9.52519 7.95798 9.56234 8.03048 9.58545L8.16867 9.15365C8.14459 9.14408 8.12201 9.13111 8.10161 9.11514C8.04364 9.07184 7.98698 9.02681 7.9317 8.98012L7.64444 9.33081ZM7.19679 9.00821C7.20494 9.00912 7.23666 9.01727 7.31731 9.07346C7.3966 9.12828 7.49719 9.21029 7.64444 9.33081L7.9317 8.98012C7.78988 8.86458 7.67344 8.76898 7.57602 8.70101C7.48088 8.63486 7.37576 8.57506 7.25705 8.5592L7.19679 9.00821ZM6.98655 9.0952C7.01081 9.06345 7.04304 9.03868 7.07996 9.0234C7.11688 9.00812 7.15719 9.00288 7.19679 9.00821L7.25705 8.5592C7.13824 8.54321 7.01732 8.55893 6.90656 8.60477C6.79579 8.6506 6.69912 8.72492 6.62635 8.82018L6.98655 9.0952ZM6.8982 9.64027C6.91723 9.45043 6.92992 9.32175 6.94713 9.2266C6.9648 9.12964 6.98112 9.102 6.98655 9.0952L6.62635 8.82018C6.55385 8.91533 6.52213 9.03222 6.50129 9.1464C6.48045 9.26285 6.46504 9.41282 6.44692 9.59496L6.8982 9.64027ZM6.80486 10.0934C6.83975 10.0254 6.85697 9.95608 6.86875 9.88585C6.88053 9.81788 6.88869 9.73542 6.8982 9.64027L6.44692 9.59496C6.44063 9.66724 6.43262 9.73932 6.422 9.81109C6.41891 9.83668 6.4122 9.8617 6.40207 9.8854L6.80486 10.0934ZM6.451 10.4137C6.6038 10.3532 6.72952 10.2394 6.80486 10.0934L6.40207 9.8854C6.37702 9.93411 6.33517 9.9721 6.28426 9.99232L6.451 10.4137ZM5.99111 10.4613C6.08671 10.4613 6.16963 10.4613 6.2385 10.4567C6.30918 10.4522 6.38032 10.4418 6.451 10.4137L6.28426 9.99232C6.2596 10 6.23397 10.0041 6.20814 10.0046C6.1583 10.0082 6.0926 10.0082 5.99066 10.0082L5.99111 10.4613ZM5.4184 10.4613H5.99111L5.99066 10.0082H5.4184V10.4613ZM4.95852 10.4137C5.02965 10.4418 5.10033 10.4522 5.17147 10.4567C5.23989 10.4613 5.3228 10.4613 5.4184 10.4613V10.0082C5.31691 10.0082 5.25167 10.0082 5.20137 10.0046C5.17555 10.0041 5.14992 10 5.12525 9.99232L4.95852 10.4137ZM4.60465 10.0934C4.68 10.2394 4.80571 10.3532 4.95852 10.4137L5.12525 9.99232C5.07435 9.9721 5.0325 9.93411 5.00745 9.8854L4.60465 10.0934ZM4.51132 9.64027C4.52038 9.73603 4.53004 9.81788 4.54031 9.88585C4.55209 9.95608 4.56976 10.0254 4.60465 10.0934L5.00745 9.8854C4.99732 9.8617 4.9906 9.83668 4.98751 9.81109C4.97691 9.73947 4.96844 9.66754 4.96214 9.59542L4.51132 9.64027ZM4.42296 9.0952C4.4284 9.102 4.44471 9.12964 4.46238 9.2266C4.4796 9.32175 4.49229 9.45088 4.51132 9.64027L4.96214 9.59542C4.94402 9.41373 4.92907 9.2633 4.90822 9.1464C4.88783 9.03222 4.85612 8.91578 4.78317 8.82018L4.42296 9.0952ZM4.21273 9.00821C4.25233 9.00288 4.29264 9.00812 4.32956 9.0234C4.36648 9.03868 4.39871 9.06345 4.42296 9.0952L4.78317 8.82018C4.71045 8.72484 4.6138 8.65089 4.50303 8.60497C4.39226 8.55905 4.27131 8.54326 4.15247 8.5592L4.21273 9.00821ZM3.76507 9.33126C3.91233 9.21029 4.01292 9.12828 4.09221 9.07346C4.17331 9.01727 4.20457 9.00912 4.21273 9.00821L4.15247 8.5592C4.03376 8.57506 3.92909 8.63486 3.83349 8.70147C3.73608 8.76898 3.61963 8.86458 3.47782 8.98057L3.76507 9.33126ZM3.37904 9.58545C3.45154 9.56234 3.5127 9.52564 3.5707 9.48441C3.62688 9.44454 3.69077 9.39198 3.76507 9.33126L3.47782 8.98057C3.42253 9.02711 3.36587 9.07199 3.30791 9.11514C3.2875 9.13111 3.26492 9.14408 3.24085 9.15365L3.37904 9.58545ZM2.90194 9.56234C3.05288 9.62767 3.22239 9.63558 3.37904 9.58545L3.24085 9.15365C3.18879 9.1703 3.13247 9.16756 3.08227 9.14595L2.90194 9.56234ZM2.54309 9.2701C2.61105 9.33806 2.6695 9.39696 2.72115 9.44227C2.77462 9.48894 2.83216 9.53198 2.90194 9.56234L3.08227 9.14595C3.05921 9.13394 3.03801 9.11868 3.01929 9.10064C2.96584 9.05191 2.91386 9.0016 2.86342 8.94976L2.54309 9.2701ZM2.13848 8.86549L2.54309 9.2701L2.86342 8.94976L2.45881 8.54515L2.13848 8.86549ZM1.84669 8.50664C1.87704 8.57641 1.91963 8.6335 1.96676 8.68742C2.01207 8.73907 2.07097 8.79752 2.13848 8.86549L2.45881 8.54515C2.40682 8.49472 2.35636 8.44274 2.30748 8.38929C2.28944 8.37057 2.27419 8.34936 2.26217 8.32631L1.84669 8.50664ZM1.82313 8.02953C1.77299 8.18618 1.78136 8.35569 1.84669 8.50664L2.26217 8.32631C2.24041 8.27616 2.23797 8.21984 2.25447 8.16773L1.82313 8.02953ZM2.07731 7.6435C2.0166 7.71781 1.96404 7.78169 1.92417 7.83788C1.88045 7.89595 1.84634 7.96066 1.82313 8.02953L2.25447 8.16773C2.26419 8.14363 2.27731 8.12104 2.29343 8.10067C2.32243 8.05989 2.36366 8.00914 2.428 7.93076L2.07731 7.6435ZM2.40036 7.19585C2.399 7.204 2.3913 7.23526 2.33512 7.31637C2.27984 7.39566 2.19829 7.49625 2.07731 7.6435L2.428 7.93076C2.54399 7.78894 2.6396 7.6725 2.70711 7.57508C2.77371 7.47993 2.83352 7.37482 2.84938 7.25611L2.40036 7.19585ZM2.31337 6.98561C2.34512 7.00987 2.3699 7.04209 2.38517 7.07902C2.40045 7.11594 2.40569 7.15624 2.40036 7.19585L2.84938 7.25611C2.86531 7.13726 2.84952 7.01631 2.8036 6.90554C2.75769 6.79478 2.68328 6.69812 2.58794 6.6254L2.31337 6.98561ZM1.7683 6.89771C1.95815 6.91629 2.08683 6.92897 2.18197 6.94619C2.27894 6.96386 2.30657 6.98017 2.31337 6.98561L2.58794 6.62495C2.49279 6.55246 2.37635 6.52074 2.26172 6.50035C2.14527 6.47951 1.9953 6.4641 1.81316 6.44598L1.7683 6.89771ZM1.31521 6.80392C1.38317 6.83881 1.4525 6.85603 1.52273 6.86781C1.59069 6.87959 1.6727 6.8882 1.7683 6.89771L1.81361 6.44643C1.74133 6.44014 1.66926 6.43168 1.59749 6.42106C1.5719 6.41797 1.54688 6.41126 1.52318 6.40112L1.31521 6.80392ZM0.994875 6.4496C1.05527 6.60258 1.16908 6.72846 1.31521 6.80392L1.52318 6.40112C1.47447 6.37607 1.43648 6.33422 1.41625 6.28332L0.994875 6.4496ZM0.947754 5.99108C0.947754 6.08668 0.947754 6.16959 0.952285 6.23846C0.955217 6.31099 0.969749 6.38258 0.995328 6.45051L1.4167 6.28423C1.40903 6.25956 1.40491 6.23393 1.40447 6.20811C1.40109 6.13566 1.39988 6.06314 1.40085 5.99062L0.947754 5.99108ZM0.947754 5.41837V5.99108H1.40085V5.41837H0.947754ZM0.995328 4.95848C0.969654 5.0267 0.955121 5.0986 0.952285 5.17143C0.947754 5.23985 0.947754 5.32277 0.947754 5.41837H1.40085C1.40085 5.31688 1.40085 5.25163 1.40447 5.20134C1.40491 5.17551 1.40903 5.14988 1.4167 5.12522L0.995328 4.95848ZM1.31566 4.60462C1.16961 4.67996 1.05581 4.80568 0.995328 4.95848L1.4167 5.12522C1.43693 5.07432 1.47492 5.03246 1.52363 5.00742L1.31566 4.60462ZM1.76876 4.51083C1.673 4.51989 1.59114 4.53001 1.52318 4.54028C1.45101 4.55046 1.38094 4.57218 1.31566 4.60462L1.52363 5.00742C1.53269 5.00288 1.55082 4.99518 1.59794 4.98748C1.64778 4.97887 1.71257 4.97253 1.81361 4.96211L1.76876 4.51083ZM2.31382 4.42293C2.30703 4.42836 2.27939 4.44468 2.18243 4.46235C2.08728 4.47956 1.9586 4.4918 1.76876 4.51083L1.81361 4.96211C1.9953 4.94398 2.14618 4.92903 2.26262 4.90819C2.37726 4.8878 2.4937 4.85608 2.58885 4.78314L2.31382 4.42293ZM2.40082 4.21269C2.40615 4.2523 2.40091 4.2926 2.38563 4.32952C2.37035 4.36645 2.34558 4.39867 2.31382 4.42293L2.58885 4.78314C2.68411 4.71036 2.75843 4.61369 2.80426 4.50292C2.85009 4.39216 2.86582 4.27078 2.84983 4.15198L2.40082 4.21269ZM2.07776 3.76459C2.19874 3.91229 2.28075 4.01288 2.33603 4.09217C2.39221 4.17327 2.39946 4.20454 2.40082 4.21269L2.84983 4.15198C2.83397 4.03327 2.77416 3.92906 2.70756 3.83346C2.64005 3.73604 2.54445 3.6196 2.42846 3.47778L2.07776 3.76459ZM1.82358 3.37855C1.84623 3.45105 1.88339 3.51267 1.92462 3.57066C1.96449 3.62639 2.01705 3.69073 2.07776 3.76459L2.42846 3.47778C2.38191 3.42235 2.33703 3.36554 2.29389 3.30742C2.2778 3.28718 2.26468 3.26475 2.25492 3.24081L1.82358 3.37855ZM1.84714 2.9019C1.78193 3.05271 1.77356 3.22204 1.82358 3.37855L2.25492 3.24081C2.23842 3.1887 2.24132 3.13238 2.26308 3.08223L1.84714 2.9019ZM2.13893 2.54305C2.07097 2.61056 2.01207 2.66901 1.96676 2.72112C1.91747 2.77459 1.87708 2.83563 1.84714 2.9019L2.26308 3.08223C2.27513 3.05934 2.29039 3.03783 2.30839 3.01925C2.35689 2.96559 2.40721 2.91361 2.45927 2.86339L2.13893 2.54305ZM2.54354 2.13799L2.13893 2.54305L2.45927 2.86339L2.86388 2.45832L2.54354 2.13799ZM2.90239 1.84665C2.83612 1.87659 2.77508 1.91698 2.72161 1.96627C2.66995 2.01158 2.61105 2.07003 2.54354 2.13799L2.86388 2.45832C2.93592 2.38674 2.98213 2.34052 3.01974 2.30745C3.05599 2.27573 3.0732 2.26667 3.08272 2.26214L2.90239 1.84665ZM3.37949 1.82264C3.22279 1.77265 3.05328 1.78118 2.90239 1.84665L3.08272 2.26214C3.13286 2.24037 3.18919 2.23793 3.2413 2.25443L3.37949 1.82264ZM3.76553 2.07727C3.69122 2.01656 3.62734 1.964 3.57115 1.92413C3.51311 1.88026 3.4484 1.84599 3.37949 1.82264L3.2413 2.25443C3.26537 2.26401 3.28796 2.27698 3.30836 2.29295C3.34914 2.3224 3.39988 2.36363 3.47872 2.42797L3.76553 2.07727ZM4.21318 2.40033C4.20503 2.39897 4.17376 2.39127 4.09266 2.33508C3.9806 2.25288 3.87149 2.16719 3.76553 2.07727L3.47872 2.42797C3.62009 2.54396 3.73698 2.63956 3.83394 2.70707C3.92909 2.77322 4.03421 2.83303 4.15292 2.84934L4.21318 2.40033ZM4.42342 2.31288C4.39921 2.34472 4.36701 2.36958 4.33008 2.38494C4.29316 2.4003 4.25282 2.40561 4.21318 2.40033L4.15292 2.84934C4.2718 2.86541 4.39281 2.84928 4.50366 2.80344C4.61452 2.7576 4.71126 2.68324 4.78408 2.58791L4.42342 2.31288ZM4.51177 1.76827C4.49274 1.95766 4.48005 2.08679 4.46284 2.18149C4.44516 2.27845 4.42885 2.30609 4.42342 2.31288L4.78408 2.58791C4.85657 2.49276 4.88829 2.37632 4.90868 2.26168C4.92952 2.14524 4.94492 1.99527 4.96305 1.81312L4.51177 1.76827ZM4.60511 1.31518C4.57022 1.38314 4.55255 1.45246 4.54077 1.52269C4.52944 1.59065 4.52128 1.67266 4.51177 1.76827L4.96259 1.81358C4.96889 1.7413 4.97735 1.66922 4.98797 1.59745C4.99106 1.57186 4.99777 1.54684 5.0079 1.52314L4.60511 1.31518ZM4.95942 0.99484C4.80637 1.05534 4.68048 1.16887 4.60511 1.31518L5.0079 1.52314C5.03295 1.47443 5.0748 1.43644 5.12571 1.41621L4.95942 0.99484ZM5.41886 0.947266C5.32326 0.947266 5.24034 0.947266 5.17147 0.951797C5.09894 0.954729 5.02735 0.969261 4.95942 0.99484L5.12571 1.41621C5.15037 1.40854 5.176 1.40442 5.20183 1.40398C5.25167 1.40036 5.31737 1.40036 5.41931 1.40036L5.41886 0.947266ZM5.99156 0.947266H5.41886V1.40036H5.99156V0.947266ZM6.45145 0.99484C6.38324 0.969166 6.31133 0.954632 6.2385 0.951797C6.17008 0.947266 6.08717 0.947266 5.99156 0.947266V1.40036C6.09306 1.40036 6.1583 1.40036 6.2086 1.40398C6.23442 1.40442 6.26005 1.40854 6.28472 1.41621L6.45145 0.99484ZM6.80532 1.31518C6.72986 1.16904 6.60397 1.05523 6.451 0.99484L6.28472 1.41621C6.33562 1.43644 6.37747 1.47443 6.40252 1.52314L6.80532 1.31518ZM7.29103 5.70427C7.29103 6.12485 7.12395 6.52821 6.82655 6.82561C6.52916 7.12301 6.1258 7.29009 5.70521 7.29009V7.74318C6.24596 7.74318 6.76457 7.52837 7.14694 7.146C7.52931 6.76363 7.74412 6.24502 7.74412 5.70427H7.29103ZM5.70521 4.11845C6.1258 4.11845 6.52916 4.28553 6.82655 4.58293C7.12395 4.88032 7.29103 5.28368 7.29103 5.70427H7.74412C7.74412 5.16352 7.52931 4.64491 7.14694 4.26254C6.76457 3.88017 6.24596 3.66536 5.70521 3.66536V4.11845ZM4.11939 5.70427C4.11939 5.28368 4.28647 4.88032 4.58387 4.58293C4.88127 4.28553 5.28463 4.11845 5.70521 4.11845V3.66536C5.16446 3.66536 4.64585 3.88017 4.26348 4.26254C3.88111 4.64491 3.6663 5.16352 3.6663 5.70427H4.11939ZM5.70521 7.29009C5.28463 7.29009 4.88127 7.12301 4.58387 6.82561C4.28647 6.52821 4.11939 6.12485 4.11939 5.70427H3.6663C3.6663 6.24502 3.88111 6.76363 4.26348 7.146C4.64585 7.52837 5.16446 7.74318 5.70521 7.74318V7.29009Z" fill="white"/>
</g>
<defs>
<clipPath id="clip0_4220_7068">
<rect width="10.8742" height="10.8742" fill="white" transform="translate(0.268066 0.268555)"/>
</clipPath>
</defs>
</svg>
