<svg width="12" height="9" viewBox="0 0 12 9" fill="none" xmlns="http://www.w3.org/2000/svg">
<g clip-path="url(#clip0_4294_6481)">
<path d="M10.2629 4.94287L10.2443 4.75799L10.2387 4.75836L10.2324 4.75948L10.2629 4.94287ZM10.2629 4.94287L10.2815 5.12813L10.2878 5.12738L10.2937 5.12627L10.2629 4.94287ZM8.75998 6.98217L8.87791 6.8382L8.87605 6.83709L8.75998 6.98217ZM8.75998 6.98217L8.64206 7.12613L8.64392 7.12762L8.75998 6.98217ZM5.33909 6.98217L5.22116 6.83857L5.21856 6.84081L5.21558 6.84341L5.33909 6.98217ZM5.33909 6.98217L5.45701 7.1265L5.45999 7.1239L5.46259 7.12167L5.33909 6.98217ZM3.83584 3.3537V3.1677H3.82692L3.81762 3.16844L3.83584 3.3537ZM3.83584 3.3537V3.5397H3.84514L3.85444 3.53858L3.83584 3.3537ZM8.02863 0.915992C8.02312 0.848538 8.0153 0.781291 8.0052 0.714369C7.99684 0.655113 7.979 0.597586 7.95237 0.543994L7.62167 0.714741C7.62539 0.722181 7.63171 0.737061 7.63804 0.775749C7.6451 0.816669 7.65031 0.869865 7.65887 0.95282L8.02863 0.915992ZM8.10155 1.36351C8.09708 1.35793 8.08369 1.33523 8.06918 1.25563C8.05179 1.14292 8.03876 1.02964 8.02938 0.915992L7.65887 0.95282C7.67375 1.10199 7.68602 1.22549 7.70314 1.32147C7.71988 1.41521 7.74592 1.51082 7.80581 1.58931L8.10155 1.36351ZM8.27415 1.43493C8.24164 1.4393 8.20855 1.435 8.17823 1.42246C8.14792 1.40991 8.12146 1.38958 8.10155 1.36351L7.80544 1.58894C7.86517 1.66727 7.94459 1.7284 8.0356 1.7661C8.12662 1.8038 8.226 1.81673 8.32363 1.80358L8.27415 1.43493ZM8.64169 1.1697C8.52079 1.26902 8.4382 1.33635 8.3731 1.38136C8.30652 1.42749 8.28085 1.43381 8.27415 1.43493L8.32363 1.80358C8.42109 1.79056 8.50702 1.74146 8.58552 1.68677C8.66549 1.63097 8.7611 1.55285 8.87753 1.45762L8.64169 1.1697ZM8.95863 0.961004C8.89911 0.979976 8.84889 1.01011 8.80127 1.04396C8.75515 1.0767 8.70269 1.11985 8.64169 1.1697L8.87753 1.45762C8.94189 1.4048 8.98355 1.37095 9.01703 1.34714C9.03376 1.3339 9.0523 1.32312 9.07209 1.31515L8.95863 0.961004ZM9.35034 0.980348C9.22641 0.926714 9.08724 0.919842 8.95863 0.961004L9.07209 1.31515C9.11488 1.3016 9.16112 1.30398 9.20229 1.32184L9.35034 0.980348ZM9.64497 1.21991C9.58917 1.16412 9.54118 1.11576 9.49877 1.07856C9.45487 1.03809 9.40475 1.00493 9.35034 0.980348L9.20229 1.32184C9.2101 1.32519 9.22424 1.333 9.254 1.35904C9.28487 1.38583 9.32282 1.42377 9.38196 1.48292L9.64497 1.21991ZM9.97716 1.55211L9.64497 1.21991L9.38196 1.48292L9.71416 1.81511L9.97716 1.55211ZM10.2167 1.84673C10.192 1.79229 10.1587 1.74218 10.1181 1.6983C10.0809 1.6559 10.0326 1.60791 9.97716 1.55211L9.71416 1.81511C9.77331 1.87426 9.81088 1.9122 9.83841 1.94308C9.86444 1.97284 9.87189 1.98697 9.87523 1.99479L10.2167 1.84673ZM10.2361 2.23845C10.2772 2.10984 10.2704 1.97066 10.2167 1.84673L9.87523 1.99479C9.89298 2.036 9.89522 2.08224 9.88156 2.12499L10.2361 2.23845ZM10.0274 2.55539C10.0772 2.49438 10.1204 2.44193 10.1531 2.3958C10.1866 2.34819 10.2171 2.29797 10.2361 2.23845L9.88156 2.12499C9.87369 2.14475 9.86305 2.16329 9.84994 2.18004C9.81451 2.22763 9.77766 2.27415 9.73945 2.31954L10.0274 2.55539ZM9.76215 2.92292C9.76326 2.91623 9.76959 2.89056 9.81571 2.82397C9.86073 2.75887 9.92806 2.67629 10.0274 2.55539L9.73945 2.31954C9.64422 2.43598 9.56573 2.53158 9.5103 2.61156C9.45562 2.68968 9.40652 2.77598 9.3935 2.87345L9.76215 2.92292ZM9.83357 3.09553C9.8075 3.07561 9.78716 3.04916 9.77462 3.01884C9.76207 2.98853 9.75777 2.95544 9.76215 2.92292L9.3935 2.87345C9.38041 2.97102 9.39338 3.07032 9.43108 3.16127C9.46877 3.25221 9.52986 3.33156 9.60814 3.39127L9.83357 3.09553ZM10.2811 3.16807C10.1252 3.15244 10.0196 3.14203 9.94145 3.12789C9.86184 3.11339 9.83915 3.09999 9.83357 3.09553L9.60814 3.39127C9.68626 3.45079 9.78186 3.47683 9.87598 3.49394C9.97158 3.51105 10.0947 3.5237 10.2443 3.53858L10.2811 3.16807ZM10.6531 3.2447C10.5995 3.21807 10.542 3.20023 10.4827 3.19188C10.4269 3.18258 10.3592 3.17588 10.2811 3.16807L10.2439 3.53821C10.3272 3.54676 10.3804 3.55197 10.4213 3.55904C10.4423 3.56158 10.4629 3.56709 10.4823 3.57541L10.6531 3.2447ZM10.9161 3.53523C10.8664 3.40977 10.773 3.30656 10.6531 3.2447L10.4823 3.57541C10.5223 3.59597 10.5535 3.63033 10.5701 3.67213L10.9161 3.53523ZM10.9551 3.91281C10.9551 3.83432 10.9551 3.76624 10.9514 3.7097C10.9491 3.65003 10.9371 3.59112 10.9161 3.53523L10.5701 3.67213C10.5731 3.67994 10.5776 3.69556 10.5802 3.73462C10.5829 3.7941 10.5839 3.85364 10.5831 3.91318L10.9551 3.91281ZM10.9551 4.38301V3.91281H10.5831V4.38301H10.9551ZM10.9161 4.76022C10.9391 4.70219 10.9477 4.64416 10.9514 4.58575C10.9551 4.52958 10.9551 4.46151 10.9551 4.38301H10.5831C10.5831 4.46634 10.5831 4.51991 10.5802 4.5612C10.5798 4.5824 10.5764 4.60345 10.5701 4.6237L10.9161 4.76022ZM10.6531 5.05112C10.7731 4.98917 10.8665 4.88582 10.9161 4.76022L10.5701 4.6237C10.5535 4.66549 10.5223 4.69985 10.4823 4.72042L10.6531 5.05112ZM10.2811 5.12775C10.3592 5.11994 10.4273 5.11287 10.4827 5.10357C10.5404 5.09427 10.5973 5.07977 10.6527 5.0515L10.4823 4.72042C10.4629 4.72874 10.4423 4.73425 10.4213 4.73678C10.3804 4.74385 10.3272 4.74906 10.2443 4.75762L10.2811 5.12775ZM9.83394 5.20029C9.83952 5.19583 9.86221 5.18207 9.94182 5.16793C10.0199 5.15379 10.1256 5.14301 10.2811 5.12775L10.2443 4.75762C10.0951 4.7725 9.97158 4.7844 9.87561 4.80188C9.78186 4.81862 9.68663 4.84466 9.60814 4.90418L9.83394 5.20029ZM9.76215 5.3729C9.75781 5.34035 9.76217 5.30724 9.77478 5.27692C9.78739 5.24661 9.8078 5.22017 9.83394 5.20029L9.60814 4.90418C9.5298 4.96392 9.46868 5.04333 9.43098 5.13435C9.39328 5.22537 9.38034 5.32474 9.3935 5.42238L9.76215 5.3729ZM10.0274 5.74044C9.95368 5.65343 9.88308 5.56385 9.81571 5.47185C9.76959 5.40564 9.76326 5.3796 9.76215 5.3729L9.39387 5.42275C9.40689 5.52021 9.45599 5.60577 9.5103 5.68426C9.5661 5.76387 9.64422 5.85985 9.73945 5.97591L10.0274 5.74044ZM10.2361 6.05738C10.217 6.0007 10.189 5.94744 10.1531 5.89965C10.1128 5.84532 10.0709 5.79223 10.0274 5.74044L9.73945 5.97591C9.79228 6.04064 9.82613 6.08193 9.84994 6.11578C9.86302 6.13242 9.87366 6.15083 9.88156 6.17047L10.2361 6.05738ZM10.2167 6.44909C10.2704 6.32516 10.2772 6.18599 10.2361 6.05738L9.88156 6.17047C9.89532 6.21332 9.89307 6.25971 9.87523 6.30104L10.2167 6.44909ZM9.97753 6.74334C10.033 6.68791 10.0809 6.63993 10.1181 6.59752C10.1568 6.55325 10.1918 6.50675 10.2167 6.44909L9.87523 6.30104C9.86534 6.31983 9.85281 6.33712 9.83803 6.35237C9.79803 6.39625 9.75672 6.43893 9.71416 6.48034L9.97753 6.74334ZM9.64497 7.07591L9.97753 6.74334L9.71416 6.48034L9.38196 6.81291L9.64497 7.07591ZM9.35034 7.3151C9.40763 7.29018 9.4545 7.25558 9.49877 7.2169C9.54118 7.1797 9.58917 7.13134 9.64497 7.07554L9.38196 6.81291C9.32282 6.87205 9.28487 6.90963 9.254 6.93678C9.23863 6.95159 9.22121 6.96412 9.20229 6.97398L9.35034 7.3151ZM8.95863 7.33482C9.08728 7.37586 9.22646 7.36886 9.35034 7.3151L9.20229 6.97398C9.16107 6.99173 9.11483 6.99397 9.07209 6.98031L8.95863 7.33482ZM8.64169 7.12576C8.70269 7.1756 8.75515 7.21876 8.80127 7.25149C8.84889 7.28534 8.89911 7.31585 8.95863 7.33482L9.07209 6.98031C9.05232 6.97244 9.03378 6.9618 9.01703 6.94869C8.96944 6.91313 8.92292 6.87617 8.87753 6.83783L8.64169 7.12576ZM8.27415 6.86089C8.28085 6.86164 8.30689 6.86833 8.3731 6.91446C8.4382 6.95947 8.52079 7.02681 8.64169 7.12576L8.87753 6.83783C8.7611 6.74297 8.66549 6.66448 8.58552 6.60868C8.5074 6.55437 8.42109 6.50526 8.32363 6.49224L8.27415 6.86089ZM8.10155 6.93232C8.12146 6.90625 8.14792 6.88591 8.17823 6.87337C8.20855 6.86082 8.24164 6.85652 8.27415 6.86089L8.32363 6.49224C8.22609 6.47912 8.12681 6.49203 8.03587 6.52966C7.94493 6.56729 7.86556 6.62831 7.80581 6.70652L8.10155 6.93232ZM8.02901 7.37983C8.04463 7.22396 8.05505 7.11832 8.06918 7.0402C8.08369 6.96059 8.09708 6.9379 8.10155 6.93232L7.80581 6.70652C7.74629 6.78464 7.72025 6.88061 7.70314 6.97435C7.68602 7.06996 7.67338 7.19309 7.6585 7.34263L8.02901 7.37983ZM7.95237 7.75183C7.98102 7.69603 7.99515 7.63911 8.00483 7.58145C8.0145 7.52565 8.02119 7.45795 8.02901 7.37983L7.6585 7.34263C7.65333 7.40197 7.64675 7.46115 7.63804 7.52007C7.6355 7.54108 7.62999 7.56163 7.62167 7.58108L7.95237 7.75183ZM7.66184 8.01483C7.7873 7.96517 7.89051 7.87174 7.95237 7.75183L7.62167 7.58108C7.6011 7.62108 7.56674 7.65227 7.52495 7.66887L7.66184 8.01483ZM7.28427 8.05389C7.36276 8.05389 7.43083 8.05389 7.48738 8.05017C7.54541 8.04645 7.60381 8.0379 7.66184 8.01483L7.52495 7.66887C7.5047 7.67517 7.48366 7.67856 7.46245 7.67892C7.42153 7.68189 7.36759 7.68189 7.28389 7.68189L7.28427 8.05389ZM6.81406 8.05389H7.28427L7.28389 7.68189H6.81406V8.05389ZM6.43648 8.01483C6.49489 8.0379 6.55292 8.04645 6.61132 8.05017C6.66749 8.05389 6.73557 8.05389 6.81406 8.05389V7.68189C6.73073 7.68189 6.67716 7.68189 6.63587 7.67892C6.61467 7.67856 6.59363 7.67517 6.57338 7.66887L6.43648 8.01483ZM6.14595 7.75183C6.20781 7.87174 6.31103 7.96517 6.43648 8.01483L6.57338 7.66887C6.53158 7.65227 6.49722 7.62108 6.47666 7.58108L6.14595 7.75183ZM6.06932 7.37983C6.07676 7.45845 6.0847 7.52565 6.09313 7.58145C6.1028 7.63911 6.11731 7.69603 6.14595 7.75183L6.47666 7.58108C6.46834 7.56163 6.46283 7.54108 6.46029 7.52007C6.45158 7.46127 6.44463 7.40222 6.43946 7.343L6.06932 7.37983ZM5.99678 6.93232C6.00124 6.9379 6.01464 6.96059 6.02914 7.0402C6.04328 7.11832 6.0537 7.22434 6.06932 7.37983L6.43946 7.343C6.42458 7.19383 6.4123 7.07033 6.39519 6.97435C6.37845 6.88061 6.35241 6.78501 6.29252 6.70652L5.99678 6.93232ZM5.82417 6.86089C5.85669 6.85652 5.88978 6.86082 5.92009 6.87337C5.95041 6.88591 5.97686 6.90625 5.99678 6.93232L6.29252 6.70652C6.23281 6.62824 6.15346 6.56752 6.06252 6.52982C5.97157 6.49213 5.87227 6.47916 5.7747 6.49224L5.82417 6.86089ZM5.45664 7.12613C5.57754 7.0268 5.66012 6.95947 5.72522 6.91446C5.79181 6.86833 5.81748 6.86164 5.82417 6.86089L5.7747 6.49224C5.67723 6.50526 5.5913 6.55437 5.51281 6.60905C5.43283 6.66448 5.33723 6.74297 5.22079 6.8382L5.45664 7.12613ZM5.1397 7.33482C5.19922 7.31585 5.24944 7.28572 5.29705 7.25186C5.34318 7.21913 5.39563 7.17598 5.45664 7.12613L5.22079 6.8382C5.1754 6.87641 5.12888 6.91326 5.08129 6.94869C5.06454 6.9618 5.046 6.97244 5.02624 6.98031L5.1397 7.33482ZM4.74798 7.31585C4.87191 7.36948 5.01109 7.37598 5.1397 7.33482L5.02624 6.98031C4.9835 6.99397 4.93725 6.99173 4.89604 6.97398L4.74798 7.31585ZM4.45336 7.07591C4.50916 7.13171 4.55715 7.18007 4.59956 7.21727C4.64345 7.25558 4.6907 7.29092 4.74798 7.31585L4.89604 6.97398C4.87711 6.96412 4.8597 6.95159 4.84433 6.93678C4.80045 6.89678 4.75777 6.85547 4.71636 6.81291L4.45336 7.07591ZM4.12117 6.74371L4.45336 7.07591L4.71636 6.81291L4.38417 6.48071L4.12117 6.74371ZM3.8816 6.44909C3.90652 6.50638 3.94149 6.55325 3.98018 6.59752C4.01738 6.63993 4.06574 6.68791 4.12117 6.74371L4.38417 6.48071C4.34148 6.43931 4.30005 6.39663 4.25992 6.35275C4.24511 6.33738 4.23259 6.31996 4.22272 6.30104L3.8816 6.44909ZM3.86226 6.05738C3.82109 6.18599 3.82797 6.32516 3.8816 6.44909L4.22272 6.30104C4.20485 6.25987 4.20285 6.21362 4.2164 6.17084L3.86226 6.05738ZM4.07095 5.74044C4.0211 5.80144 3.97795 5.85389 3.94521 5.90002C3.90932 5.9477 3.88131 6.00083 3.86226 6.05738L4.2164 6.17084C4.22438 6.15105 4.23515 6.13251 4.24839 6.11578C4.2722 6.0823 4.30605 6.04064 4.35887 5.97628L4.07095 5.74044ZM4.33618 5.3729C4.33506 5.3796 4.32874 5.40527 4.28261 5.47185C4.23723 5.53695 4.17027 5.61954 4.07095 5.74044L4.35887 5.97628C4.4541 5.85985 4.5326 5.76424 4.58802 5.68426C4.64271 5.60614 4.69181 5.51984 4.70483 5.42238L4.33618 5.3729ZM4.26476 5.20029C4.29083 5.22021 4.31117 5.24667 4.32371 5.27698C4.33625 5.3073 4.34056 5.34039 4.33618 5.3729L4.70483 5.42238C4.71791 5.3248 4.70495 5.2255 4.66725 5.13456C4.62955 5.04361 4.56847 4.96426 4.49019 4.90456L4.26476 5.20029ZM3.81724 5.12813C3.97311 5.14338 4.07876 5.15379 4.15688 5.16793C4.23649 5.18244 4.25918 5.19583 4.26476 5.20029L4.49019 4.90418C4.41207 4.84466 4.31646 4.81862 4.22235 4.80188C4.12675 4.78477 4.00361 4.77212 3.85407 4.75724L3.81724 5.12813ZM3.44525 5.05112C3.50104 5.07977 3.55796 5.0939 3.61562 5.10357C3.67142 5.11325 3.73875 5.12031 3.81724 5.12813L3.85444 4.75762C3.7951 4.75245 3.73593 4.7455 3.677 4.73678C3.65599 4.73425 3.63545 4.72874 3.61599 4.72042L3.44525 5.05112ZM3.18224 4.76022C3.23183 4.88582 3.32527 4.98917 3.44525 5.05112L3.61599 4.72042C3.576 4.69985 3.54481 4.66549 3.5282 4.6237L3.18224 4.76022ZM3.14355 4.38376C3.14355 4.46225 3.14355 4.53033 3.14727 4.58687C3.14968 4.64642 3.16161 4.70519 3.18261 4.76096L3.52857 4.62444C3.52227 4.60419 3.51889 4.58315 3.51853 4.56195C3.51575 4.50247 3.51476 4.44292 3.51555 4.38339L3.14355 4.38376ZM3.14355 3.91355V4.38376H3.51555V3.91355H3.14355ZM3.18261 3.53597C3.16154 3.59198 3.1496 3.65102 3.14727 3.71081C3.14355 3.76699 3.14355 3.83506 3.14355 3.91355H3.51555C3.51555 3.83023 3.51555 3.77666 3.51853 3.73537C3.51889 3.71416 3.52227 3.69312 3.52857 3.67287L3.18261 3.53597ZM3.44562 3.24544C3.32571 3.30731 3.23227 3.41052 3.18261 3.53597L3.52857 3.67287C3.54518 3.63108 3.57637 3.59672 3.61636 3.57615L3.44562 3.24544ZM3.81762 3.16844C3.739 3.17588 3.67179 3.18419 3.61599 3.19262C3.55674 3.20098 3.49921 3.21881 3.44562 3.24544L3.61636 3.57615C3.6238 3.57243 3.63868 3.56611 3.67737 3.55978C3.71829 3.55271 3.77149 3.54751 3.85444 3.53895L3.81762 3.16844ZM4.26513 3.09627C4.25955 3.10074 4.23686 3.11413 4.15725 3.12864C4.07913 3.14277 3.97348 3.15282 3.81762 3.16844L3.85444 3.53895C4.00361 3.52407 4.12749 3.5118 4.22309 3.49468C4.31721 3.47794 4.41281 3.4519 4.49093 3.39201L4.26513 3.09627ZM4.33655 2.92367C4.34093 2.95618 4.33662 2.98927 4.32408 3.01959C4.31154 3.0499 4.2912 3.07636 4.26513 3.09627L4.49093 3.39201C4.56914 3.33226 4.63016 3.25289 4.66779 3.16195C4.70542 3.07101 4.71833 2.97136 4.7052 2.87382L4.33655 2.92367ZM4.07132 2.55576C4.17064 2.67703 4.23797 2.75962 4.28336 2.82471C4.32948 2.8913 4.33544 2.91697 4.33655 2.92367L4.7052 2.87382C4.69218 2.77636 4.64308 2.6908 4.5884 2.6123C4.53297 2.53232 4.45448 2.43672 4.35924 2.32029L4.07132 2.55576ZM3.86263 2.23882C3.88123 2.29834 3.91173 2.34893 3.94558 2.39654C3.97832 2.4423 4.02147 2.49512 4.07132 2.55576L4.35924 2.32029C4.32103 2.27478 4.28418 2.22813 4.24876 2.18041C4.23555 2.1638 4.22478 2.14539 4.21677 2.12573L3.86263 2.23882ZM3.88197 1.84748C3.82843 1.9713 3.82156 2.11032 3.86263 2.23882L4.21677 2.12573C4.20322 2.08294 4.2056 2.0367 4.22347 1.99553L3.88197 1.84748ZM4.12154 1.55285C4.06574 1.60828 4.01738 1.65627 3.98018 1.69905C3.93971 1.74295 3.90655 1.79306 3.88197 1.84748L4.22347 1.99553C4.23336 1.97674 4.24589 1.95908 4.26066 1.94382C4.30049 1.89977 4.3418 1.85709 4.38454 1.81586L4.12154 1.55285ZM4.45373 1.22029L4.12154 1.55285L4.38454 1.81586L4.71673 1.48329L4.45373 1.22029ZM4.74835 0.981092C4.69394 1.00568 4.64383 1.03883 4.59993 1.0793C4.55752 1.1165 4.50916 1.16449 4.45373 1.22029L4.71673 1.48329C4.77588 1.42451 4.81383 1.38657 4.8447 1.35941C4.87446 1.33337 4.8886 1.32593 4.89641 1.32221L4.74835 0.981092ZM5.14007 0.961376C5.01141 0.920331 4.87224 0.927336 4.74835 0.981092L4.89641 1.32221C4.93758 1.30435 4.98382 1.30234 5.02661 1.31589L5.14007 0.961376ZM5.45701 1.17044C5.396 1.12059 5.34355 1.07744 5.29742 1.0447C5.24977 1.00868 5.19664 0.98055 5.14007 0.961376L5.02661 1.31589C5.04637 1.32375 5.06491 1.3344 5.08166 1.34751C5.11514 1.37169 5.15681 1.40554 5.22154 1.45837L5.45701 1.17044ZM5.82455 1.43567C5.81785 1.43456 5.79218 1.42823 5.72559 1.38211C5.63359 1.31462 5.54401 1.24427 5.45701 1.17044L5.22154 1.45837C5.3376 1.5536 5.43358 1.63209 5.51318 1.68752C5.5913 1.74183 5.67761 1.79093 5.77507 1.80432L5.82455 1.43567ZM5.99715 1.36388C5.97728 1.39002 5.95084 1.41043 5.92052 1.42304C5.89021 1.43565 5.85709 1.44001 5.82455 1.43567L5.77507 1.80432C5.87267 1.81752 5.97202 1.80427 6.06304 1.76664C6.15405 1.729 6.23348 1.66795 6.29326 1.58968L5.99715 1.36388ZM6.06969 0.916736C6.05407 1.07223 6.04365 1.17825 6.02952 1.256C6.01501 1.33561 6.00162 1.3583 5.99715 1.36388L6.29326 1.58968C6.35278 1.51156 6.37882 1.41596 6.39556 1.32184C6.41267 1.22624 6.42532 1.10311 6.4402 0.953564L6.06969 0.916736ZM6.14632 0.544738C6.11768 0.600538 6.10317 0.657454 6.0935 0.715113C6.0842 0.770913 6.0775 0.838245 6.06969 0.916736L6.43983 0.953936C6.445 0.894593 6.45194 0.835419 6.46066 0.776493C6.4632 0.755484 6.46871 0.734943 6.47703 0.715485L6.14632 0.544738ZM6.43723 0.281736C6.31157 0.33141 6.2082 0.424621 6.14632 0.544738L6.47703 0.715485C6.4976 0.675491 6.53196 0.644303 6.57375 0.627694L6.43723 0.281736ZM6.81443 0.242676C6.73594 0.242676 6.66786 0.242676 6.61132 0.246396C6.55177 0.248803 6.493 0.260734 6.43723 0.281736L6.57375 0.627694C6.594 0.621394 6.61504 0.618012 6.63625 0.61765C6.67717 0.614674 6.7311 0.614674 6.8148 0.614674L6.81443 0.242676ZM7.28464 0.242676H6.81443V0.614674H7.28464V0.242676ZM7.66222 0.281736C7.60621 0.260656 7.54717 0.248724 7.48738 0.246396C7.43121 0.242676 7.36313 0.242676 7.28464 0.242676V0.614674C7.36797 0.614674 7.42153 0.614674 7.46282 0.61765C7.48403 0.618012 7.50507 0.621394 7.52532 0.627694L7.66222 0.281736ZM7.95275 0.544738C7.89079 0.424761 7.78744 0.331318 7.66184 0.281736L7.52532 0.627694C7.56711 0.644303 7.60147 0.675491 7.62204 0.715485L7.95275 0.544738ZM8.35153 4.14828C8.35153 4.49359 8.21435 4.82476 7.97018 5.06893C7.72601 5.3131 7.39485 5.45028 7.04954 5.45028V5.82228C7.49351 5.82228 7.91929 5.64591 8.23323 5.33197C8.54716 5.01804 8.72353 4.59225 8.72353 4.14828H8.35153ZM7.04954 2.84629C7.39485 2.84629 7.72601 2.98346 7.97018 3.22764C8.21435 3.47181 8.35153 3.80297 8.35153 4.14828H8.72353C8.72353 3.70431 8.54716 3.27853 8.23323 2.96459C7.91929 2.65066 7.49351 2.47429 7.04954 2.47429V2.84629ZM5.74754 4.14828C5.74754 3.80297 5.88472 3.47181 6.12889 3.22764C6.37306 2.98346 6.70422 2.84629 7.04954 2.84629V2.47429C6.60556 2.47429 6.17978 2.65066 5.86584 2.96459C5.55191 3.27853 5.37554 3.70431 5.37554 4.14828H5.74754ZM7.04954 5.45028C6.70422 5.45028 6.37306 5.3131 6.12889 5.06893C5.88472 4.82476 5.74754 4.49359 5.74754 4.14828H5.37554C5.37554 4.59225 5.55191 5.01804 5.86584 5.33197C6.17978 5.64591 6.60556 5.82228 7.04954 5.82228V5.45028Z" fill="#FFF8F0"/>
</g>
<defs>
<clipPath id="clip0_4294_6481">
<rect width="11" height="9" fill="white" transform="translate(0.543457 0.0078125)"/>
</clipPath>
</defs>
</svg>
