<svg width="22" height="22" viewBox="0 0 22 22" fill="none" xmlns="http://www.w3.org/2000/svg">
<mask id="mask0_4236_8323" style="mask-type:alpha" maskUnits="userSpaceOnUse" x="0" y="0" width="22" height="22">
<rect x="0.96875" y="0.828125" width="20.8414" height="20.8414" fill="#D9D9D9"/>
</mask>
<g mask="url(#mask0_4236_8323)">
<path d="M10.8475 15.9457H7.40205C6.25425 15.9457 5.27586 15.5412 4.46688 14.7322C3.65791 13.9234 3.25342 12.9452 3.25342 11.7975C3.25342 10.6499 3.65791 9.67149 4.46688 8.86236C5.27586 8.05308 6.25425 7.64844 7.40205 7.64844H10.8475V9.01958H7.40205C6.63436 9.01958 5.97956 9.29061 5.43765 9.83267C4.89559 10.3747 4.62456 11.0295 4.62456 11.7971C4.62456 12.5646 4.89559 13.2194 5.43765 13.7615C5.97956 14.3035 6.63436 14.5745 7.40205 14.5745H10.8475V15.9457ZM8.50948 12.4826V11.1115H15.3652V12.4826H8.50948ZM13.0272 15.9457V14.5745H16.4726C17.2403 14.5745 17.8951 14.3035 18.437 13.7615C18.9791 13.2194 19.2501 12.5646 19.2501 11.7971C19.2501 11.0295 18.9791 10.3747 18.437 9.83267C17.8951 9.29061 17.2403 9.01958 16.4726 9.01958H13.0272V7.64844H16.4726C17.6204 7.64844 18.5988 8.05292 19.4078 8.8619C20.2168 9.67072 20.6213 10.649 20.6213 11.7966C20.6213 12.9443 20.2168 13.9226 19.4078 14.7318C18.5988 15.5411 17.6204 15.9457 16.4726 15.9457H13.0272Z" fill="#B0B0B0"/>
</g>
</svg>
