<svg width="5" height="8" viewBox="0 0 5 8" fill="none" xmlns="http://www.w3.org/2000/svg">
<path d="M0.718563 8H4.28144C4.76422 8 5 7.73757 5 7.16351V4.15377C5 3.63711 4.80539 3.37058 4.40494 3.32547V2.29216C4.40494 0.746284 3.48054 0 2.5 0C1.51946 0 0.59506 0.746284 0.59506 2.29216V3.34598C0.228293 3.40748 0 3.66991 0 4.15377V7.16351C0 7.73757 0.235778 8 0.718563 8ZM1.1976 2.20605C1.1976 1.17683 1.80015 0.631471 2.5 0.631471C3.19985 0.631471 3.8024 1.17683 3.8024 2.20605V3.32137L1.1976 3.32547V2.20605Z" fill="#08D63F"/>
</svg>
