<svg width="4" height="6" viewBox="0 0 4 6" fill="none" xmlns="http://www.w3.org/2000/svg">
<path fill-rule="evenodd" clip-rule="evenodd" d="M2.30615 1.16602C2.68023 1.16602 2.98388 1.46967 2.98388 1.84375V2.18242H1.62841V1.84375C1.62841 1.46967 1.93206 1.16602 2.30615 1.16602ZM1.29052 2.18242V1.84375C1.29052 1.28262 1.74502 0.828125 2.30615 0.828125C2.86727 0.828128 3.32177 1.28262 3.32177 1.84375V2.18242H3.49149C3.77205 2.18242 3.99949 2.40986 3.99949 2.69042V4.72244C3.99949 5.003 3.77205 5.23045 3.49149 5.23045H1.1208C0.840234 5.23045 0.612793 5.003 0.612793 4.72244V2.69042C0.612793 2.40986 0.840235 2.18242 1.1208 2.18242H1.29052Z" fill="#202124"/>
</svg>
