<svg width="22" height="22" viewBox="0 0 22 22" fill="none" xmlns="http://www.w3.org/2000/svg">
<g clip-path="url(#clip0_4238_8891)">
<path d="M0.469375 10.8684C0.468859 12.7168 0.955609 14.5216 1.88116 16.1125L0.380859 21.5478L5.98673 20.0893C7.53725 20.9269 9.27448 21.3657 11.0399 21.3658H11.0445C16.8724 21.3658 21.6164 16.6603 21.6189 10.8766C21.62 8.07401 20.521 5.43862 18.5243 3.45589C16.528 1.47333 13.873 0.380918 11.0441 0.379639C5.21553 0.379639 0.471867 5.08491 0.469461 10.8684" fill="url(#paint0_linear_4238_8891)"/>
<path d="M0.0919531 10.8649C0.0913516 12.7799 0.595547 14.6493 1.55409 16.2971L0 21.9273L5.80688 20.4165C7.40687 21.2821 9.20829 21.7385 11.0413 21.7392H11.0461C17.083 21.7392 21.9974 16.8644 22 10.8736C22.001 7.97031 20.8625 5.24018 18.7945 3.18642C16.7263 1.13291 13.9763 0.0011938 11.0461 0C5.00809 0 0.0943594 4.87411 0.0919531 10.8649ZM3.55016 16.0133L3.33334 15.6718C2.42189 14.2337 1.94081 12.572 1.9415 10.8656C1.94339 5.88619 6.02748 1.83504 11.0495 1.83504C13.4815 1.83606 15.7671 2.77678 17.4862 4.48357C19.2052 6.19053 20.1511 8.4596 20.1505 10.8729C20.1483 15.8524 16.0641 19.904 11.0461 19.904H11.0425C9.40852 19.9032 7.80605 19.4678 6.40853 18.645L6.07595 18.4493L2.63003 19.3458L3.55016 16.0133Z" fill="url(#paint1_linear_4238_8891)"/>
<path d="M8.30867 6.32274C8.10363 5.87054 7.88784 5.86142 7.69284 5.85349C7.53317 5.84666 7.35064 5.84718 7.16828 5.84718C6.98575 5.84718 6.68918 5.91531 6.4385 6.1869C6.18756 6.45874 5.48047 7.11567 5.48047 8.45179C5.48047 9.78791 6.46127 11.0793 6.598 11.2606C6.7349 11.4417 8.49146 14.2713 11.2734 15.3599C13.5855 16.2645 14.056 16.0846 14.5578 16.0392C15.0597 15.994 16.1772 15.3825 16.4052 14.7483C16.6334 14.1142 16.6334 13.5707 16.5649 13.4571C16.4965 13.344 16.314 13.276 16.0403 13.1403C15.7666 13.0045 14.4209 12.3474 14.17 12.2568C13.9191 12.1662 13.7367 12.121 13.5541 12.3929C13.3716 12.6644 12.8475 13.276 12.6877 13.4571C12.5281 13.6387 12.3684 13.6613 12.0947 13.5254C11.8209 13.3892 10.9394 13.1027 9.89362 12.1776C9.07996 11.4578 8.53065 10.5688 8.37098 10.2969C8.2113 10.0254 8.35388 9.87821 8.49112 9.74288C8.61409 9.6212 8.76491 9.42576 8.9019 9.26724C9.03837 9.10863 9.08391 8.99548 9.17518 8.81436C9.26653 8.63308 9.22081 8.47447 9.15249 8.33863C9.08391 8.2028 8.55205 6.85969 8.30867 6.32274Z" fill="white"/>
</g>
<defs>
<linearGradient id="paint0_linear_4238_8891" x1="1062.28" y1="2117.2" x2="1062.28" y2="0.379639" gradientUnits="userSpaceOnUse">
<stop stop-color="#1FAF38"/>
<stop offset="1" stop-color="#60D669"/>
</linearGradient>
<linearGradient id="paint1_linear_4238_8891" x1="1100" y1="2192.73" x2="1100" y2="0" gradientUnits="userSpaceOnUse">
<stop stop-color="#F9F9F9"/>
<stop offset="1" stop-color="white"/>
</linearGradient>
<clipPath id="clip0_4238_8891">
<rect width="22" height="22" fill="white"/>
</clipPath>
</defs>
</svg>
