<svg width="16" height="16" viewBox="0 0 16 16" fill="none" xmlns="http://www.w3.org/2000/svg">
<g clip-path="url(#clip0_4294_6154)">
<path d="M8.00027 12.4512C10.4587 12.4512 12.4516 10.4582 12.4516 7.99978C12.4516 5.54134 10.4587 3.54834 8.00027 3.54834C5.54183 3.54834 3.54883 5.54134 3.54883 7.99978C3.54883 10.4582 5.54177 12.4512 8.0002 12.4512" fill="white"/>
<path d="M2.24303 5.81253C1.91094 5.23732 1.52061 4.63363 1.07203 4.00146C0.369757 5.21755 2.38548e-05 6.59709 1.15428e-09 8.00139C-2.38525e-05 9.40569 0.369663 10.7852 1.07189 12.0014C1.77412 13.2175 2.78414 14.2273 4.0004 14.9292C5.21666 15.6312 6.59629 16.0006 8.00059 16.0003C8.73688 14.9676 9.2368 14.223 9.50034 13.7665C10.0065 12.8898 10.6612 11.6345 11.4643 10.0008V9.9999C11.1134 10.6082 10.6086 11.1134 10.0005 11.4648C9.39241 11.8161 8.70256 12.0011 8.0003 12.0012C7.29804 12.0013 6.60813 11.8165 5.99995 11.4654C5.39178 11.1142 4.88677 10.6092 4.53571 10.001C3.44496 7.96671 2.68073 6.57053 2.24303 5.81253Z" fill="#229342"/>
<path d="M8.00046 15.9997C9.05106 15.9999 10.0914 15.7931 11.0621 15.3911C12.0327 14.9891 12.9147 14.3998 13.6575 13.6569C14.4004 12.914 14.9896 12.0321 15.3915 11.0614C15.7935 10.0907 16.0002 9.05035 16 7.99975C15.9997 6.59544 15.6297 5.21595 14.9273 3.99994C13.4118 3.85057 12.2933 3.77588 11.5719 3.77588C10.7539 3.77588 9.56323 3.85057 7.9999 3.99994L7.99902 4.00057C8.7013 4.00022 9.39128 4.1848 9.99958 4.53574C10.6079 4.88668 11.113 5.39162 11.4643 5.99975C11.8155 6.60789 12.0004 7.29779 12.0004 8.00007C12.0004 8.70236 11.8155 9.39225 11.4642 10.0004L8.00046 15.9997Z" fill="#FBC116"/>
<path d="M8.00037 11.1672C9.74937 11.1672 11.1672 9.74943 11.1672 8.00037C11.1672 6.25131 9.74937 4.8335 8.00031 4.8335C6.25137 4.8335 4.8335 6.25137 4.8335 8.00037C4.8335 9.74937 6.25137 11.1672 8.00037 11.1672Z" fill="#1A73E8"/>
<path d="M8.00027 4.00027H14.9276C14.2256 2.78399 13.2158 1.77397 11.9997 1.07176C10.7835 0.369547 9.40396 -9.50021e-05 7.99965 1.83149e-08C6.59534 9.50388e-05 5.21581 0.369924 3.99978 1.0723C2.78374 1.77467 1.77406 2.78484 1.07227 4.00121L4.53595 10.0006L4.53689 10.0011C4.18549 9.39306 4.00037 8.70322 4.00017 8.00095C3.99996 7.29868 4.18467 6.60873 4.53571 6.0005C4.88676 5.39226 5.39177 4.88718 5.99995 4.53605C6.60814 4.18491 7.29806 4.0001 8.00033 4.00021L8.00027 4.00027Z" fill="#E33B2E"/>
</g>
<defs>
<clipPath id="clip0_4294_6154">
<rect width="16" height="16" fill="white"/>
</clipPath>
</defs>
</svg>
