<svg width="21" height="20" viewBox="0 0 21 20" fill="none" xmlns="http://www.w3.org/2000/svg">
<path d="M9.21848 5.4222V4.92624C9.04949 4.90184 8.88051 4.89168 8.70949 4.88965C6.63077 4.88965 4.94092 6.57672 4.94092 8.65203C4.94092 9.87973 5.54153 11.0302 6.54933 11.7335C5.92225 11.0607 5.54967 10.1602 5.54967 9.17035C5.54764 7.13163 7.17844 5.46488 9.21848 5.4222Z" fill="#25F4EE"/>
<path d="M9.30829 10.902C10.2347 10.902 11.0042 10.154 11.0389 9.23525L11.0409 1.05395L12.5272 1.04176C12.4946 0.871016 12.4783 0.69621 12.4783 0.523438H10.4321L10.4281 8.71693C10.3955 9.66413 9.59944 10.404 8.65271 10.3715C8.39414 10.3634 8.14169 10.2963 7.91162 10.1743C8.22516 10.6052 8.73211 10.902 9.30829 10.902Z" fill="#25F4EE"/>
<path d="M15.3287 3.83621V3.36668C14.777 3.36668 14.2375 3.2061 13.7773 2.90527C14.1764 3.36261 14.7159 3.70409 15.3287 3.83621Z" fill="#25F4EE"/>
<path d="M13.7769 2.90501C13.325 2.38872 13.0766 1.72609 13.0766 1.03906H12.5269C12.6714 1.80536 13.1234 2.48019 13.7769 2.90501Z" fill="#FE2C55"/>
<path d="M8.70973 6.93169C7.75894 6.92966 6.9873 7.69799 6.9873 8.64722C6.9873 9.2875 7.3436 9.87696 7.91163 10.1717C7.35581 9.40336 7.52887 8.33217 8.29643 7.77523C8.58961 7.56384 8.94387 7.45001 9.30627 7.45001C9.47932 7.45001 9.65035 7.47643 9.81526 7.52928V5.44381C9.64627 5.41942 9.47729 5.40723 9.30627 5.40723C9.27573 5.40723 9.24722 5.40926 9.21669 5.40926V7.013C9.05381 6.96015 8.88279 6.93169 8.70973 6.93169Z" fill="#FE2C55"/>
<path d="M15.3283 3.82227V5.41177C14.3063 5.41381 13.3086 5.09265 12.48 4.4971V8.65177C12.48 10.7271 10.7881 12.4141 8.71143 12.4141C7.93776 12.4141 7.18445 12.1763 6.55127 11.7312C7.26182 12.4975 8.26148 12.9325 9.30796 12.9325C11.3867 12.9325 13.0765 11.2454 13.0765 9.17009V5.01541C13.9072 5.61097 14.9028 5.93213 15.9248 5.93009V3.88528C15.7253 3.88528 15.5258 3.86292 15.3283 3.82227Z" fill="#FE2C55"/>
<path d="M12.4806 8.65122V4.49655C13.3113 5.09211 14.3069 5.41326 15.329 5.41123V3.82172C14.7263 3.69163 14.1807 3.37048 13.7775 2.90501C13.124 2.48019 12.672 1.80536 12.5275 1.03906H11.029L11.027 9.23459C10.9944 10.1818 10.1983 10.9217 9.24957 10.8891C8.71614 10.8708 8.22344 10.6066 7.91397 10.1737C7.07108 9.73461 6.74533 8.69594 7.1851 7.85647C7.48235 7.28937 8.07074 6.93163 8.71207 6.93366C8.88513 6.93366 9.05615 6.96008 9.22106 7.01293V5.4092C7.18306 5.45595 5.54004 7.12473 5.54004 9.16954C5.54004 10.1208 5.9004 11.0375 6.55191 11.7327C7.1851 12.1778 7.9384 12.4156 8.71207 12.4156C10.7888 12.4136 12.4806 10.7265 12.4806 8.65122Z" fill="black"/>
<path d="M0.520996 15.1719H3.82333L3.51997 16.115H2.66283V19.603H1.59599V16.113L0.520996 16.115V15.1719Z" fill="black"/>
<path d="M9.23242 15.1719H12.6121L12.3088 16.115H11.3763V19.603H10.3074V16.113L9.23242 16.115V15.1719Z" fill="black"/>
<path d="M4.0249 16.5811H5.0836V19.6015H4.03101L4.0249 16.5811Z" fill="black"/>
<path d="M5.50293 15.1582H6.55959V17.2213L7.60812 16.1948H8.87041L7.545 17.4795L9.03125 19.6015H7.86668L6.87517 18.1299L6.56163 18.4348V19.6015H5.50497V15.1582H5.50293Z" fill="black"/>
<path d="M16.7109 15.1582H17.7696V17.2213L18.8182 16.1948H20.0805L18.755 17.4795L20.2393 19.6015H19.0727L18.0811 18.1299L17.7676 18.4348V19.6015H16.7109V15.1582Z" fill="black"/>
<path d="M4.55442 16.235C4.84902 16.235 5.08784 15.9966 5.08784 15.7025C5.08784 15.4084 4.84902 15.1699 4.55442 15.1699C4.25982 15.1699 4.021 15.4084 4.021 15.7025C4.021 15.9966 4.25982 16.235 4.55442 16.235Z" fill="black"/>
<path d="M12.4843 17.7944C12.4843 16.8512 13.2111 16.0667 14.1538 15.9914C14.1069 15.9874 14.0357 15.9854 13.9868 15.9854C12.9851 15.9854 12.1748 16.7943 12.1748 17.7944C12.1748 18.7944 12.9851 19.6034 13.9868 19.6034C14.0336 19.6034 14.1069 19.6014 14.1538 19.5973C13.2111 19.5221 12.4843 18.7375 12.4843 17.7944Z" fill="#25F4EE"/>
<path d="M14.559 15.9854C14.5102 15.9854 14.4389 15.9874 14.3921 15.9915C15.3897 16.0768 16.1288 16.9508 16.0433 17.9468C15.9679 18.8249 15.2716 19.5221 14.3921 19.5953C14.4389 19.5994 14.5122 19.6014 14.559 19.6014C15.5607 19.6014 16.371 18.7924 16.371 17.7924C16.371 16.7923 15.5587 15.9833 14.559 15.9854Z" fill="#FE2C55"/>
<path d="M14.272 15.9854C13.2703 15.9854 12.46 16.7943 12.46 17.7944C12.46 18.7944 13.2703 19.6034 14.272 19.6034C15.2737 19.6034 16.084 18.7944 16.084 17.7944C16.084 16.7943 15.2737 15.9854 14.272 15.9854ZM14.272 18.6725C13.7854 18.6725 13.3904 18.2781 13.3904 17.7944C13.3904 17.3086 13.7854 16.9143 14.2699 16.9143C14.7565 16.9143 15.1515 17.3086 15.1515 17.7924C15.1535 18.2781 14.7586 18.6725 14.272 18.6725Z" fill="black"/>
</svg>
