<svg width="15" height="15" viewBox="0 0 15 15" fill="none" xmlns="http://www.w3.org/2000/svg">
<path d="M11.875 8.4375C11.875 9.3646 11.6001 10.2709 11.085 11.0417C10.5699 11.8126 9.83786 12.4134 8.98133 12.7682C8.1248 13.123 7.1823 13.2158 6.27302 13.0349C5.36373 12.8541 4.5285 12.4076 3.87294 11.7521C3.21738 11.0965 2.77094 10.2613 2.59007 9.35199C2.4092 8.4427 2.50203 7.5002 2.85682 6.64367C3.2116 5.78714 3.81241 5.05506 4.58327 4.53999C5.35412 4.02492 6.2604 3.75 7.1875 3.75H12.5M12.5 3.75L10.625 1.875M12.5 3.75L10.625 5.625" stroke="white" stroke-width="1.25" stroke-linecap="round" stroke-linejoin="round"/>
</svg>
