<svg width="18" height="18" viewBox="0 0 18 18" fill="none" xmlns="http://www.w3.org/2000/svg">
<path d="M8.84752 12.6776L5.80196 14.5122C5.66741 14.5979 5.52675 14.6346 5.37998 14.6223C5.23321 14.6101 5.10478 14.5612 4.9947 14.4756C4.88462 14.3899 4.799 14.283 4.73784 14.1548C4.67669 14.0267 4.66445 13.8828 4.70115 13.7233L5.50841 10.2558L2.81143 7.92575C2.68912 7.81567 2.6128 7.69018 2.58246 7.54928C2.55213 7.40837 2.56118 7.2709 2.60962 7.13684C2.65805 7.00279 2.73144 6.89271 2.82978 6.8066C2.92812 6.72049 3.06266 6.66545 3.23341 6.64148L6.79268 6.32958L8.16869 3.06386C8.22985 2.91708 8.32476 2.807 8.45343 2.73362C8.5821 2.66023 8.71347 2.62354 8.84752 2.62354C8.98157 2.62354 9.11294 2.66023 9.24161 2.73362C9.37028 2.807 9.46519 2.91708 9.52635 3.06386L10.9024 6.32958L14.4616 6.64148C14.6329 6.66594 14.7674 6.72098 14.8653 6.8066C14.9631 6.89222 15.0365 7.0023 15.0854 7.13684C15.1343 7.27138 15.1436 7.40911 15.1133 7.55001C15.083 7.69091 15.0064 7.81616 14.8836 7.92575L12.1866 10.2558L12.9939 13.7233C13.0306 13.8823 13.0184 14.0262 12.9572 14.1548C12.896 14.2835 12.8104 14.3904 12.7003 14.4756C12.5903 14.5607 12.4618 14.6096 12.3151 14.6223C12.1683 14.635 12.0276 14.5984 11.8931 14.5122L8.84752 12.6776Z" fill="#FFCC00"/>
</svg>
