<svg width="18" height="18" viewBox="0 0 18 18" fill="none" xmlns="http://www.w3.org/2000/svg">
<path d="M8.80699 12.6776L5.76143 14.5122C5.62688 14.5979 5.48623 14.6346 5.33945 14.6223C5.19268 14.6101 5.06425 14.5612 4.95417 14.4756C4.84409 14.3899 4.75847 14.283 4.69731 14.1548C4.63616 14.0267 4.62393 13.8828 4.66062 13.7233L5.46788 10.2558L2.7709 7.92575C2.64859 7.81567 2.57227 7.69018 2.54194 7.54928C2.5116 7.40837 2.52065 7.2709 2.56909 7.13684C2.61752 7.00279 2.69091 6.89271 2.78925 6.8066C2.88759 6.72049 3.02213 6.66545 3.19288 6.64148L6.75215 6.32958L8.12816 3.06386C8.18932 2.91708 8.28423 2.807 8.4129 2.73362C8.54158 2.66023 8.67294 2.62354 8.80699 2.62354C8.94105 2.62354 9.07241 2.66023 9.20108 2.73362C9.32975 2.807 9.42467 2.91708 9.48582 3.06386L10.8618 6.32958L14.4211 6.64148C14.5923 6.66594 14.7269 6.72098 14.8247 6.8066C14.9226 6.89222 14.996 7.0023 15.0449 7.13684C15.0938 7.27138 15.1031 7.40911 15.0728 7.55001C15.0424 7.69091 14.9659 7.81616 14.8431 7.92575L12.1461 10.2558L12.9534 13.7233C12.9901 13.8823 12.9778 14.0262 12.9167 14.1548C12.8555 14.2835 12.7699 14.3904 12.6598 14.4756C12.5497 14.5607 12.4213 14.6096 12.2745 14.6223C12.1278 14.635 11.9871 14.5984 11.8526 14.5122L8.80699 12.6776Z" fill="#FFCC00"/>
</svg>
