<svg width="4" height="4" viewBox="0 0 4 4" fill="none" xmlns="http://www.w3.org/2000/svg">
<path d="M1.59137 2.525L3.00387 1.1125C3.0372 1.07917 3.07609 1.0625 3.12054 1.0625C3.16498 1.0625 3.20387 1.07917 3.2372 1.1125C3.27054 1.14583 3.2872 1.18544 3.2872 1.23133C3.2872 1.27722 3.27054 1.31678 3.2372 1.35L1.70804 2.88333C1.6747 2.91667 1.63582 2.93333 1.59137 2.93333C1.54693 2.93333 1.50804 2.91667 1.4747 2.88333L0.758038 2.16667C0.724705 2.13333 0.708705 2.09378 0.710038 2.048C0.711371 2.00222 0.72876 1.96261 0.762204 1.92917C0.795649 1.89572 0.83526 1.87906 0.881038 1.87917C0.926816 1.87928 0.966371 1.89594 0.999705 1.92917L1.59137 2.525Z" fill="white"/>
</svg>
