<svg width="18" height="18" viewBox="0 0 18 18" fill="none" xmlns="http://www.w3.org/2000/svg">
<mask id="mask0_4240_5415" style="mask-type:alpha" maskUnits="userSpaceOnUse" x="0" y="0" width="18" height="18">
<rect x="0.717285" y="0.472656" width="17.2647" height="17.2647" fill="#D9D9D9"/>
</mask>
<g mask="url(#mask0_4240_5415)">
<path d="M4.03762 4.06934L5.11667 6.22743H7.27476L6.19571 4.06934H7.63444L8.71349 6.22743H10.8716L9.79254 4.06934H11.2313L12.3103 6.22743H14.4684L13.3894 4.06934H14.6619C14.9931 4.06934 15.2695 4.18024 15.4913 4.40204C15.7131 4.62385 15.824 4.90032 15.824 5.23147V12.9783C15.824 13.3095 15.7131 13.5859 15.4913 13.8077C15.2695 14.0295 14.9931 14.1404 14.6619 14.1404H4.03762C3.70647 14.1404 3.43 14.0295 3.20819 13.8077C2.98639 13.5859 2.87549 13.3095 2.87549 12.9783V5.23147C2.87549 4.90032 2.98639 4.62385 3.20819 4.40204C3.43 4.18024 3.70647 4.06934 4.03762 4.06934ZM3.59485 6.94679V12.9783C3.59485 13.1074 3.63634 13.2135 3.7193 13.2966C3.80239 13.3796 3.9085 13.4211 4.03762 13.4211H14.6619C14.791 13.4211 14.8971 13.3796 14.9802 13.2966C15.0632 13.2135 15.1047 13.1074 15.1047 12.9783V6.94679H3.59485Z" fill="#1C1B1F"/>
</g>
</svg>
