<svg width="44" height="44" viewBox="0 0 44 44" fill="none" xmlns="http://www.w3.org/2000/svg">
<mask id="mask0_4240_5496" style="mask-type:alpha" maskUnits="userSpaceOnUse" x="0" y="0" width="44" height="44">
<rect x="0.268555" y="0.418945" width="43.1619" height="43.1619" fill="#D9D9D9"/>
</mask>
<g mask="url(#mask0_4240_5496)">
<path d="M8.56939 9.41064L11.267 14.8059H16.6622L13.9646 9.41064H17.5614L20.2591 14.8059H25.6543L22.9567 9.41064H26.5535L29.2511 14.8059H34.6463L31.9487 9.41064H35.1301C35.958 9.41064 36.6492 9.6879 37.2037 10.2424C37.7582 10.7969 38.0355 11.4881 38.0355 12.316V31.6831C38.0355 32.5109 37.7582 33.2021 37.2037 33.7566C36.6492 34.3111 35.958 34.5884 35.1301 34.5884H8.56939C7.74153 34.5884 7.05034 34.3111 6.49583 33.7566C5.94132 33.2021 5.66406 32.5109 5.66406 31.6831V12.316C5.66406 11.4881 5.94132 10.7969 6.49583 10.2424C7.05034 9.6879 7.74153 9.41064 8.56939 9.41064ZM7.46247 16.6043V31.6831C7.46247 32.0059 7.56618 32.2711 7.7736 32.4789C7.98131 32.6863 8.24658 32.79 8.56939 32.79H35.1301C35.4529 32.79 35.7182 32.6863 35.9259 32.4789C36.1333 32.2711 36.237 32.0059 36.237 31.6831V16.6043H7.46247Z" fill="#1C1B1F"/>
</g>
</svg>
