<svg width="33" height="32" viewBox="0 0 33 32" fill="none" xmlns="http://www.w3.org/2000/svg">
<path d="M13.334 20.7786V11.2212C13.3342 11.1016 13.3665 10.9843 13.4277 10.8815C13.4888 10.7788 13.5764 10.6943 13.6814 10.6371C13.7864 10.5798 13.9048 10.5518 14.0243 10.5561C14.1438 10.5603 14.26 10.5966 14.3607 10.6612L21.7953 15.4386C21.8895 15.4989 21.9669 15.5819 22.0206 15.68C22.0742 15.7781 22.1023 15.8881 22.1023 15.9999C22.1023 16.1117 22.0742 16.2217 22.0206 16.3198C21.9669 16.4179 21.8895 16.5009 21.7953 16.5612L14.3607 21.3399C14.26 21.4045 14.1438 21.4408 14.0243 21.445C13.9048 21.4493 13.7864 21.4213 13.6814 21.364C13.5764 21.3068 13.4888 21.2223 13.4277 21.1196C13.3665 21.0168 13.3342 20.8995 13.334 20.7799V20.7786Z" fill="white"/>
<path d="M2 16.0002C2 7.90016 8.56667 1.3335 16.6667 1.3335C24.7667 1.3335 31.3333 7.90016 31.3333 16.0002C31.3333 24.1002 24.7667 30.6668 16.6667 30.6668C8.56667 30.6668 2 24.1002 2 16.0002ZM16.6667 3.3335C13.3073 3.3335 10.0854 4.66802 7.70998 7.04348C5.33452 9.41894 4 12.6408 4 16.0002C4 19.3596 5.33452 22.5814 7.70998 24.9568C10.0854 27.3323 13.3073 28.6668 16.6667 28.6668C20.0261 28.6668 23.2479 27.3323 25.6234 24.9568C27.9988 22.5814 29.3333 19.3596 29.3333 16.0002C29.3333 12.6408 27.9988 9.41894 25.6234 7.04348C23.2479 4.66802 20.0261 3.3335 16.6667 3.3335Z" fill="white"/>
</svg>
