<svg width="16" height="15" viewBox="0 0 16 15" fill="none" xmlns="http://www.w3.org/2000/svg">
<path d="M1.60742 3.70215H14.0773V11.345H1.60742V3.70215Z" fill="#D22F27"/>
<path d="M5.14416 9.23607C6.08834 9.23607 6.85374 8.47066 6.85374 7.52648C6.85374 6.5823 6.08834 5.81689 5.14416 5.81689C4.19998 5.81689 3.43457 6.5823 3.43457 7.52648C3.43457 8.47066 4.19998 9.23607 5.14416 9.23607Z" fill="white"/>
<path d="M4.44738 8.63233L5.15254 6.41992L5.81485 8.61805L4.03809 7.27371L6.25049 7.25058L4.44738 8.63233Z" fill="#D22F27" stroke="#D22F27" stroke-width="0.201128" stroke-linecap="round" stroke-linejoin="round"/>
<path d="M1.60742 10.1382H14.0773V11.345H1.60742V10.1382ZM1.60742 3.70215H14.0773V4.90892H1.60742V3.70215Z" fill="#1E50A0" stroke="white" stroke-width="0.201128" stroke-miterlimit="10"/>
<path d="M1.60742 3.70215H14.0773V11.345H1.60742V3.70215Z" stroke="black" stroke-width="0.402256" stroke-linecap="round" stroke-linejoin="round"/>
</svg>
