<svg width="16" height="15" viewBox="0 0 16 15" fill="none" xmlns="http://www.w3.org/2000/svg">
<path d="M1.60742 3.52148H14.0773V11.1643H1.60742V3.52148Z" fill="#D22F27"/>
<path d="M5.42815 7.29281C5.62254 7.29281 5.78012 7.13523 5.78012 6.94084C5.78012 6.74645 5.62254 6.58887 5.42815 6.58887C5.23376 6.58887 5.07617 6.74645 5.07617 6.94084C5.07617 7.13523 5.23376 7.29281 5.42815 7.29281Z" fill="#F1B31C"/>
<path d="M5.42815 5.28158C5.62254 5.28158 5.78012 5.124 5.78012 4.92961C5.78012 4.73522 5.62254 4.57764 5.42815 4.57764C5.23376 4.57764 5.07617 4.73522 5.07617 4.92961C5.07617 5.124 5.23376 5.28158 5.42815 5.28158Z" fill="#F1B31C"/>
<path d="M6.23283 6.6893C6.42722 6.6893 6.58481 6.53171 6.58481 6.33733C6.58481 6.14294 6.42722 5.98535 6.23283 5.98535C6.03844 5.98535 5.88086 6.14294 5.88086 6.33733C5.88086 6.53171 6.03844 6.6893 6.23283 6.6893Z" fill="#F1B31C"/>
<path d="M6.23283 5.68393C6.42722 5.68393 6.58481 5.52634 6.58481 5.33195C6.58481 5.13756 6.42722 4.97998 6.23283 4.97998C6.03844 4.97998 5.88086 5.13756 5.88086 5.33195C5.88086 5.52634 6.03844 5.68393 6.23283 5.68393Z" fill="#F1B31C"/>
<path d="M3.32197 6.62807L3.81916 5.01904L4.31655 6.62807L3.01465 5.63349H4.62367L3.32197 6.62807Z" fill="#F1B31C" stroke="#F1B31C" stroke-width="0.201128" stroke-linecap="round" stroke-linejoin="round"/>
<path d="M1.60742 3.52148H14.0773V11.1643H1.60742V3.52148Z" stroke="black" stroke-width="0.402256" stroke-linecap="round" stroke-linejoin="round"/>
</svg>
