<svg width="8" height="8" viewBox="0 0 8 8" fill="none" xmlns="http://www.w3.org/2000/svg">
<path d="M3.95761 4.01086L2.23616 2.28982C2.21686 2.27052 2.20156 2.24762 2.19111 2.2224C2.18067 2.19719 2.17529 2.17017 2.17529 2.14287C2.17529 2.11558 2.18067 2.08856 2.19111 2.06335C2.20156 2.03813 2.21686 2.01522 2.23616 1.99593C2.25546 1.97663 2.27837 1.96132 2.30358 1.95088C2.32879 1.94043 2.35582 1.93506 2.38311 1.93506C2.4104 1.93506 2.43742 1.94043 2.46264 1.95088C2.48785 1.96132 2.51076 1.97663 2.53006 1.99593L4.25109 3.71738L5.97212 1.99593C6.0111 1.95695 6.06396 1.93506 6.11907 1.93506C6.17419 1.93506 6.22705 1.95695 6.26602 1.99593C6.30499 2.0349 6.32689 2.08776 6.32689 2.14287C6.32689 2.19799 6.30499 2.25085 6.26602 2.28982L4.54457 4.01086L6.26602 5.73189C6.30499 5.77086 6.32689 5.82372 6.32689 5.87884C6.32689 5.93395 6.30499 5.98681 6.26602 6.02578C6.22705 6.06476 6.17419 6.08665 6.11907 6.08665C6.06396 6.08665 6.0111 6.06476 5.97212 6.02578L4.25109 4.30434L2.53006 6.02578C2.49108 6.06476 2.43822 6.08665 2.38311 6.08665C2.32799 6.08665 2.27513 6.06476 2.23616 6.02578C2.19719 5.98681 2.17529 5.93395 2.17529 5.87884C2.17529 5.82372 2.19719 5.77086 2.23616 5.73189L3.95761 4.01086Z" fill="black"/>
</svg>
