<svg width="28" height="28" viewBox="0 0 28 28" fill="none" xmlns="http://www.w3.org/2000/svg">
<path d="M15.7027 2.2959H12.2979C10.5489 2.29787 8.87218 2.99351 7.63549 4.23021C6.39879 5.46691 5.70314 7.14367 5.70117 8.89262V19.1069C5.70314 20.8559 6.39879 22.5326 7.63549 23.7693C8.87218 25.006 10.5489 25.7017 12.2979 25.7036H15.7027C17.4516 25.7017 19.1284 25.006 20.3651 23.7693C21.6018 22.5326 22.2974 20.8559 22.2994 19.1069V8.89262C22.2974 7.14367 21.6018 5.46691 20.3651 4.23021C19.1284 2.99351 17.4516 2.29787 15.7027 2.2959ZM21.0226 19.1069C21.0209 20.5173 20.4599 21.8695 19.4626 22.8668C18.4652 23.8641 17.1131 24.4252 15.7027 24.4268H12.2979C10.8875 24.4252 9.53531 23.8641 8.538 22.8668C7.54068 21.8695 6.97965 20.5173 6.97796 19.1069V8.89262C6.97965 7.48221 7.54068 6.13004 8.538 5.13272C9.53531 4.13541 10.8875 3.57437 12.2979 3.57268H15.7027C17.1131 3.57437 18.4652 4.13541 19.4626 5.13272C20.4599 6.13004 21.0209 7.48221 21.0226 8.89262V19.1069ZM14.6387 8.73196V19.2654L16.1027 17.8025C16.2237 17.6897 16.3838 17.6283 16.5492 17.6312C16.7146 17.6341 16.8724 17.7011 16.9893 17.8181C17.1063 17.9351 17.1733 18.0929 17.1762 18.2583C17.1791 18.4236 17.1177 18.5837 17.005 18.7047L14.4514 21.2583C14.3317 21.3778 14.1695 21.445 14.0003 21.445C13.8311 21.445 13.6688 21.3778 13.5491 21.2583L10.9956 18.7047C10.8828 18.5837 10.8214 18.4236 10.8243 18.2583C10.8273 18.0929 10.8943 17.9351 11.0112 17.8181C11.1282 17.7011 11.286 17.6341 11.4514 17.6312C11.6168 17.6283 11.7768 17.6897 11.8978 17.8025L13.3619 19.2676V8.73409L11.8978 10.1949C11.7768 10.3077 11.6168 10.3691 11.4514 10.3662C11.286 10.3633 11.1282 10.2963 11.0112 10.1793C10.8943 10.0623 10.8273 9.90454 10.8243 9.73915C10.8214 9.57376 10.8828 9.4137 10.9956 9.29268L13.5491 6.73911C13.6688 6.61956 13.8311 6.55241 14.0003 6.55241C14.1695 6.55241 14.3317 6.61956 14.4514 6.73911L17.005 9.29268C17.0677 9.35113 17.118 9.42161 17.1529 9.49992C17.1878 9.57823 17.2066 9.66276 17.2081 9.74848C17.2096 9.8342 17.1938 9.91934 17.1617 9.99883C17.1296 10.0783 17.0818 10.1505 17.0212 10.2112C16.9606 10.2718 16.8884 10.3196 16.8089 10.3517C16.7294 10.3838 16.6442 10.3995 16.5585 10.398C16.4728 10.3965 16.3883 10.3778 16.31 10.3429C16.2316 10.308 16.1612 10.2577 16.1027 10.1949L14.6387 8.73196Z" fill="white"/>
</svg>
