<svg width="21" height="20" viewBox="0 0 21 20" fill="none" xmlns="http://www.w3.org/2000/svg">
<path d="M18.1132 8.1839C17.8254 7.88319 17.5278 7.57333 17.4156 7.30086C17.3118 7.05128 17.3057 6.63762 17.2996 6.23693C17.2881 5.49202 17.2759 4.6479 16.689 4.06098C16.1021 3.47407 15.2579 3.46185 14.513 3.45041C14.1123 3.4443 13.6987 3.43819 13.4491 3.3344C13.1774 3.2222 12.8668 2.92455 12.5661 2.63681C12.0394 2.1308 11.4411 1.55762 10.6443 1.55762C9.84747 1.55762 9.24986 2.1308 8.72248 2.63681C8.42177 2.92455 8.1119 3.2222 7.83943 3.3344C7.59138 3.43819 7.17619 3.4443 6.7755 3.45041C6.0306 3.46185 5.18647 3.47407 4.59956 4.06098C4.01264 4.6479 4.00424 5.49202 3.98898 6.23693C3.98287 6.63762 3.97677 7.05128 3.87297 7.30086C3.76078 7.57256 3.46312 7.88319 3.17539 8.1839C2.66937 8.71053 2.09619 9.30889 2.09619 10.1057C2.09619 10.9025 2.66937 11.5001 3.17539 12.0275C3.46312 12.3282 3.76078 12.6381 3.87297 12.9105C3.97677 13.1601 3.98287 13.5738 3.98898 13.9745C4.00043 14.7194 4.01264 15.5635 4.59956 16.1504C5.18647 16.7373 6.0306 16.7495 6.7755 16.761C7.17619 16.7671 7.58986 16.7732 7.83943 16.877C8.11114 16.9892 8.42177 17.2868 8.72248 17.5746C9.2491 18.0806 9.84747 18.6538 10.6443 18.6538C11.4411 18.6538 12.0387 18.0806 12.5661 17.5746C12.8668 17.2868 13.1766 16.9892 13.4491 16.877C13.6987 16.7732 14.1123 16.7671 14.513 16.761C15.2579 16.7495 16.1021 16.7373 16.689 16.1504C17.2759 15.5635 17.2881 14.7194 17.2996 13.9745C17.3057 13.5738 17.3118 13.1601 17.4156 12.9105C17.5278 12.6388 17.8254 12.3282 18.1132 12.0275C18.6192 11.5009 19.1923 10.9025 19.1923 10.1057C19.1923 9.30889 18.6192 8.71129 18.1132 8.1839ZM14.1291 8.70595L9.8551 12.98C9.79839 13.0368 9.73105 13.0818 9.65693 13.1125C9.58281 13.1432 9.50335 13.1591 9.42311 13.1591C9.34288 13.1591 9.26342 13.1432 9.1893 13.1125C9.11518 13.0818 9.04784 13.0368 8.99113 12.98L7.1594 11.1483C7.10267 11.0915 7.05767 11.0242 7.02697 10.9501C6.99627 10.8759 6.98047 10.7965 6.98047 10.7163C6.98047 10.636 6.99627 10.5566 7.02697 10.4825C7.05767 10.4084 7.10267 10.341 7.1594 10.2843C7.27397 10.1697 7.42936 10.1054 7.59138 10.1054C7.67161 10.1054 7.75105 10.1212 7.82517 10.1519C7.89929 10.1826 7.96664 10.2276 8.02337 10.2843L9.42311 11.6848L13.2652 7.84198C13.3219 7.78525 13.3892 7.74025 13.4634 7.70955C13.5375 7.67885 13.6169 7.66305 13.6972 7.66305C13.7774 7.66305 13.8568 7.67885 13.9309 7.70955C14.0051 7.74025 14.0724 7.78525 14.1291 7.84198C14.1859 7.89871 14.2309 7.96606 14.2616 8.04018C14.2923 8.1143 14.3081 8.19374 14.3081 8.27396C14.3081 8.35419 14.2923 8.43363 14.2616 8.50775C14.2309 8.58187 14.1859 8.64922 14.1291 8.70595Z" fill="#4BA9FE"/>
</svg>
