<svg width="21" height="20" viewBox="0 0 21 20" fill="none" xmlns="http://www.w3.org/2000/svg">
<path d="M18.1132 8.10675C17.8254 7.80605 17.5278 7.49618 17.4156 7.22371C17.3118 6.97413 17.3057 6.56047 17.2996 6.15978C17.2881 5.41487 17.2759 4.57075 16.689 3.98383C16.1021 3.39692 15.2579 3.38471 14.513 3.37326C14.1123 3.36715 13.6987 3.36105 13.4491 3.25725C13.1774 3.14505 12.8668 2.8474 12.5661 2.55966C12.0394 2.05365 11.4411 1.48047 10.6443 1.48047C9.84747 1.48047 9.24986 2.05365 8.72248 2.55966C8.42177 2.8474 8.1119 3.14505 7.83943 3.25725C7.59138 3.36105 7.17619 3.36715 6.7755 3.37326C6.0306 3.38471 5.18647 3.39692 4.59956 3.98383C4.01264 4.57075 4.00424 5.41487 3.98898 6.15978C3.98287 6.56047 3.97677 6.97413 3.87297 7.22371C3.76078 7.49541 3.46312 7.80605 3.17539 8.10675C2.66937 8.63338 2.09619 9.23174 2.09619 10.0285C2.09619 10.8253 2.66937 11.4229 3.17539 11.9503C3.46312 12.251 3.76078 12.5609 3.87297 12.8334C3.97677 13.083 3.98287 13.4966 3.98898 13.8973C4.00043 14.6422 4.01264 15.4863 4.59956 16.0733C5.18647 16.6602 6.0306 16.6724 6.7755 16.6838C7.17619 16.6899 7.58986 16.696 7.83943 16.7998C8.11114 16.912 8.42177 17.2097 8.72248 17.4974C9.2491 18.0034 9.84747 18.5766 10.6443 18.5766C11.4411 18.5766 12.0387 18.0034 12.5661 17.4974C12.8668 17.2097 13.1766 16.912 13.4491 16.7998C13.6987 16.696 14.1123 16.6899 14.513 16.6838C15.2579 16.6724 16.1021 16.6602 16.689 16.0733C17.2759 15.4863 17.2881 14.6422 17.2996 13.8973C17.3057 13.4966 17.3118 13.083 17.4156 12.8334C17.5278 12.5617 17.8254 12.251 18.1132 11.9503C18.6192 11.4237 19.1923 10.8253 19.1923 10.0285C19.1923 9.23174 18.6192 8.63414 18.1132 8.10675ZM14.1291 8.6288L9.8551 12.9028C9.79839 12.9596 9.73105 13.0046 9.65693 13.0354C9.58281 13.0661 9.50335 13.0819 9.42311 13.0819C9.34288 13.0819 9.26342 13.0661 9.1893 13.0354C9.11518 13.0046 9.04784 12.9596 8.99113 12.9028L7.1594 11.0711C7.10267 11.0144 7.05767 10.947 7.02697 10.8729C6.99627 10.7988 6.98047 10.7193 6.98047 10.6391C6.98047 10.5589 6.99627 10.4795 7.02697 10.4053C7.05767 10.3312 7.10267 10.2639 7.1594 10.2071C7.27397 10.0926 7.42936 10.0282 7.59138 10.0282C7.67161 10.0282 7.75105 10.044 7.82517 10.0747C7.89929 10.1054 7.96664 10.1504 8.02337 10.2071L9.42311 11.6077L13.2652 7.76483C13.3219 7.7081 13.3892 7.6631 13.4634 7.6324C13.5375 7.6017 13.6169 7.5859 13.6972 7.5859C13.7774 7.5859 13.8568 7.6017 13.9309 7.6324C14.0051 7.6631 14.0724 7.7081 14.1291 7.76483C14.1859 7.82156 14.2309 7.88891 14.2616 7.96303C14.2923 8.03715 14.3081 8.11659 14.3081 8.19682C14.3081 8.27704 14.2923 8.35648 14.2616 8.4306C14.2309 8.50472 14.1859 8.57207 14.1291 8.6288Z" fill="#4BA9FE"/>
</svg>
