<svg width="21" height="20" viewBox="0 0 21 20" fill="none" xmlns="http://www.w3.org/2000/svg">
<path d="M18.1132 8.14582C17.8254 7.84511 17.5278 7.53524 17.4156 7.26277C17.3118 7.0132 17.3057 6.59953 17.2996 6.19884C17.2881 5.45394 17.2759 4.60981 16.689 4.0229C16.1021 3.43598 15.2579 3.42377 14.513 3.41232C14.1123 3.40621 13.6987 3.40011 13.4491 3.29631C13.1774 3.18412 12.8668 2.88646 12.5661 2.59873C12.0394 2.09271 11.4411 1.51953 10.6443 1.51953C9.84747 1.51953 9.24986 2.09271 8.72248 2.59873C8.42177 2.88646 8.1119 3.18412 7.83943 3.29631C7.59138 3.40011 7.17619 3.40621 6.7755 3.41232C6.0306 3.42377 5.18647 3.43598 4.59956 4.0229C4.01264 4.60981 4.00424 5.45394 3.98898 6.19884C3.98287 6.59953 3.97677 7.0132 3.87297 7.26277C3.76078 7.53448 3.46312 7.84511 3.17539 8.14582C2.66937 8.67244 2.09619 9.27081 2.09619 10.0676C2.09619 10.8644 2.66937 11.462 3.17539 11.9894C3.46312 12.2901 3.76078 12.6 3.87297 12.8724C3.97677 13.122 3.98287 13.5357 3.98898 13.9364C4.00043 14.6813 4.01264 15.5254 4.59956 16.1123C5.18647 16.6992 6.0306 16.7114 6.7755 16.7229C7.17619 16.729 7.58986 16.7351 7.83943 16.8389C8.11114 16.9511 8.42177 17.2488 8.72248 17.5365C9.2491 18.0425 9.84747 18.6157 10.6443 18.6157C11.4411 18.6157 12.0387 18.0425 12.5661 17.5365C12.8668 17.2488 13.1766 16.9511 13.4491 16.8389C13.6987 16.7351 14.1123 16.729 14.513 16.7229C15.2579 16.7114 16.1021 16.6992 16.689 16.1123C17.2759 15.5254 17.2881 14.6813 17.2996 13.9364C17.3057 13.5357 17.3118 13.122 17.4156 12.8724C17.5278 12.6007 17.8254 12.2901 18.1132 11.9894C18.6192 11.4628 19.1923 10.8644 19.1923 10.0676C19.1923 9.27081 18.6192 8.6732 18.1132 8.14582ZM14.1291 8.66786L9.8551 12.9419C9.79839 12.9987 9.73105 13.0437 9.65693 13.0744C9.58281 13.1052 9.50335 13.121 9.42311 13.121C9.34288 13.121 9.26342 13.1052 9.1893 13.0744C9.11518 13.0437 9.04784 12.9987 8.99113 12.9419L7.1594 11.1102C7.10267 11.0534 7.05767 10.9861 7.02697 10.912C6.99627 10.8379 6.98047 10.7584 6.98047 10.6782C6.98047 10.598 6.99627 10.5185 7.02697 10.4444C7.05767 10.3703 7.10267 10.3029 7.1594 10.2462C7.27397 10.1316 7.42936 10.0673 7.59138 10.0673C7.67161 10.0673 7.75105 10.0831 7.82517 10.1138C7.89929 10.1445 7.96664 10.1895 8.02337 10.2462L9.42311 11.6467L13.2652 7.80389C13.3219 7.74717 13.3892 7.70217 13.4634 7.67146C13.5375 7.64076 13.6169 7.62496 13.6972 7.62496C13.7774 7.62496 13.8568 7.64076 13.9309 7.67146C14.0051 7.70217 14.0724 7.74717 14.1291 7.80389C14.1859 7.86062 14.2309 7.92797 14.2616 8.00209C14.2923 8.07621 14.3081 8.15565 14.3081 8.23588C14.3081 8.3161 14.2923 8.39555 14.2616 8.46967C14.2309 8.54379 14.1859 8.61113 14.1291 8.66786Z" fill="#4BA9FE"/>
</svg>
