<svg width="7" height="7" viewBox="0 0 7 7" fill="none" xmlns="http://www.w3.org/2000/svg">
<path d="M0.888184 3.31586C0.888184 3.49514 1.03819 3.6415 1.21382 3.6415H3.58105V6.00873C3.58105 6.18435 3.7274 6.33436 3.90668 6.33436C4.08596 6.33436 4.23597 6.18435 4.23597 6.00873V3.6415H6.59955C6.77517 3.6415 6.92518 3.49514 6.92518 3.31586C6.92518 3.13658 6.77517 2.98657 6.59955 2.98657H4.23597V0.622995C4.23597 0.447374 4.08596 0.297363 3.90668 0.297363C3.7274 0.297363 3.58105 0.447374 3.58105 0.622995V2.98657H1.21382C1.03819 2.98657 0.888184 3.13658 0.888184 3.31586Z" fill="white" fill-opacity="0.6"/>
</svg>
