<svg width="32" height="32" viewBox="0 0 32 32" fill="none" xmlns="http://www.w3.org/2000/svg">
<mask id="mask0_4220_5369" style="mask-type:alpha" maskUnits="userSpaceOnUse" x="0" y="0" width="32" height="32">
<rect width="32" height="32" fill="#D9D9D9"/>
</mask>
<g mask="url(#mask0_4220_5369)">
<path d="M15.0002 28.6666V17.7229C14.6857 17.5298 14.4404 17.2889 14.2642 17.0003C14.0882 16.7116 14.0002 16.3776 14.0002 15.9983C14.0002 15.454 14.1972 14.9849 14.5912 14.5909C14.9852 14.1969 15.4548 13.9999 16.0002 13.9999C16.5455 13.9999 17.0152 14.1969 17.4092 14.5909C17.8032 14.9849 18.0002 15.4536 18.0002 15.9969C18.0002 16.3756 17.9122 16.713 17.7362 17.0093C17.5599 17.3055 17.3146 17.5434 17.0002 17.7229V28.6666H15.0002ZM7.2745 25.1923C6.05916 24.0298 5.0985 22.6619 4.3925 21.0886C3.6865 19.515 3.3335 17.82 3.3335 16.0036C3.3335 14.2507 3.66594 12.6035 4.33083 11.0619C4.99572 9.52036 5.89805 8.17947 7.03783 7.03925C8.17761 5.89903 9.51794 4.99625 11.0588 4.33092C12.5997 3.66581 14.2461 3.33325 15.9978 3.33325C17.7498 3.33325 19.3966 3.66581 20.9382 4.33092C22.4797 4.99603 23.8206 5.8987 24.9608 7.03892C26.1011 8.17914 27.0038 9.51992 27.6692 11.0613C28.3343 12.6026 28.6668 14.2495 28.6668 16.0019C28.6668 17.8177 28.3138 19.5161 27.6078 21.0973C26.9018 22.6786 25.9412 24.0436 24.7258 25.1923L23.3335 23.7873C24.3557 22.811 25.1668 21.6518 25.7668 20.3096C26.3668 18.9674 26.6668 17.5308 26.6668 15.9999C26.6668 13.0221 25.6335 10.4999 23.5668 8.43325C21.5002 6.36659 18.9779 5.33325 16.0002 5.33325C13.0224 5.33325 10.5002 6.36659 8.4335 8.43325C6.36683 10.4999 5.3335 13.0221 5.3335 15.9999C5.3335 17.5333 5.6335 18.9666 6.2335 20.2999C6.8335 21.6333 7.65572 22.7888 8.70016 23.7666L7.2745 25.1923ZM11.0412 21.4256C10.3147 20.752 9.73739 19.9503 9.30916 19.0203C8.88094 18.09 8.66683 17.0833 8.66683 15.9999C8.66683 13.9628 9.3795 12.2314 10.8048 10.8056C12.2302 9.37958 13.9609 8.66659 15.9972 8.66659C18.0334 8.66659 19.7652 9.38003 21.1925 10.8069C22.6198 12.2338 23.3335 13.9665 23.3335 16.0049C23.3335 17.0854 23.1194 18.0939 22.6912 19.0306C22.2629 19.9675 21.6856 20.7658 20.9592 21.4256L19.5335 19.9999C20.0891 19.4888 20.5279 18.8888 20.8502 18.1999C21.1724 17.511 21.3335 16.7777 21.3335 15.9999C21.3335 14.5333 20.8113 13.2777 19.7668 12.2333C18.7224 11.1888 17.4668 10.6666 16.0002 10.6666C14.5335 10.6666 13.2779 11.1888 12.2335 12.2333C11.1891 13.2777 10.6668 14.5333 10.6668 15.9999C10.6668 16.7999 10.8279 17.5388 11.1502 18.2166C11.4724 18.8944 11.9113 19.4888 12.4668 19.9999L11.0412 21.4256Z" fill="#2A52C6"/>
</g>
</svg>
