<svg width="25" height="25" viewBox="0 0 25 25" fill="none" xmlns="http://www.w3.org/2000/svg">
<path d="M13.5 19.25H6.5C5.77065 19.25 5.07118 18.9603 4.55546 18.4445C4.03973 17.9288 3.75 17.2293 3.75 16.5V8.5C3.75 7.77065 4.03973 7.07118 4.55546 6.55546C5.07118 6.03973 5.77065 5.75 6.5 5.75H13.5C14.2293 5.75 14.9288 6.03973 15.4445 6.55546C15.9603 7.07118 16.25 7.77065 16.25 8.5V16.5C16.25 17.2293 15.9603 17.9288 15.4445 18.4445C14.9288 18.9603 14.2293 19.25 13.5 19.25ZM6.5 7.25C6.16848 7.25 5.85054 7.3817 5.61612 7.61612C5.3817 7.85054 5.25 8.16848 5.25 8.5V16.5C5.25 16.8315 5.3817 17.1495 5.61612 17.3839C5.85054 17.6183 6.16848 17.75 6.5 17.75H13.5C13.8315 17.75 14.1495 17.6183 14.3839 17.3839C14.6183 17.1495 14.75 16.8315 14.75 16.5V8.5C14.75 8.16848 14.6183 7.85054 14.3839 7.61612C14.1495 7.3817 13.8315 7.25 13.5 7.25H6.5Z" fill="white"/>
<path d="M20.5 17.25C20.3627 17.2474 20.2284 17.2096 20.11 17.14L15.11 14.14C15.0002 14.0732 14.9094 13.9792 14.8463 13.8671C14.7833 13.755 14.7501 13.6286 14.75 13.5V11.5C14.7501 11.3714 14.7833 11.245 14.8463 11.133C14.9094 11.0209 15.0002 10.9269 15.11 10.86L20.11 7.86002C20.2248 7.7913 20.3562 7.755 20.49 7.755C20.6238 7.755 20.7552 7.7913 20.87 7.86002C20.985 7.92526 21.0807 8.01973 21.1475 8.13388C21.2142 8.24804 21.2496 8.3778 21.25 8.51003V16.51C21.2496 16.6423 21.2142 16.772 21.1475 16.8862C21.0807 17.0003 20.985 17.0948 20.87 17.16C20.7574 17.2236 20.6293 17.2548 20.5 17.25ZM16.25 13.08L19.75 15.18V9.82002L16.25 11.92V13.08Z" fill="white"/>
</svg>
