<svg width="32" height="32" viewBox="0 0 32 32" fill="none" xmlns="http://www.w3.org/2000/svg">
<mask id="mask0_4220_5379" style="mask-type:alpha" maskUnits="userSpaceOnUse" x="0" y="0" width="32" height="32">
<rect width="32" height="32" fill="#D9D9D9"/>
</mask>
<g mask="url(#mask0_4220_5379)">
<path d="M5.21777 11.1796C5.96822 8.82559 7.33533 6.92936 9.31911 5.49092C11.3029 4.05247 13.5298 3.33325 15.9998 3.33325C17.8989 3.33325 19.6737 3.78203 21.3241 4.67959C22.9746 5.57692 24.3109 6.8137 25.3331 8.38992V3.99992H27.3331V11.1796H20.1538V9.17959H23.3281C22.5212 7.97959 21.4678 7.03847 20.1678 6.35625C18.8678 5.67425 17.4784 5.33325 15.9998 5.33325C14.0887 5.33325 12.3484 5.86236 10.7791 6.92059C9.21 7.97859 8.075 9.39825 7.37411 11.1796H5.21777ZM14.1794 28.6666C13.0272 28.6666 12.0469 28.2623 11.2384 27.4536C10.4298 26.6451 10.0254 25.6648 10.0254 24.5126C10.0254 23.3606 10.4298 22.3803 11.2384 21.5716C12.0469 20.7631 13.0272 20.3589 14.1794 20.3589C14.5777 20.3589 14.9583 20.4158 15.3214 20.5296C15.6848 20.6431 16.022 20.8076 16.3331 21.0229V14.1026H22.3331V16.1026H18.3331V24.5126C18.3331 25.6648 17.9288 26.6451 17.1201 27.4536C16.3117 28.2623 15.3314 28.6666 14.1794 28.6666Z" fill="#FF4907"/>
</g>
</svg>
