<svg width="7" height="6" viewBox="0 0 7 6" fill="none" xmlns="http://www.w3.org/2000/svg">
<path d="M3.0218 4.48207C3.4654 4.48207 3.87961 4.33777 4.21632 4.09726L5.48299 5.36393C5.54178 5.42273 5.61928 5.45212 5.69945 5.45212C5.87315 5.45212 5.99874 5.31851 5.99874 5.14748C5.99874 5.06731 5.97202 4.99248 5.91323 4.93369L4.65458 3.67237C4.91913 3.32497 5.0768 2.89473 5.0768 2.42707C5.0768 1.29669 4.15218 0.37207 3.0218 0.37207C1.88874 0.37207 0.966797 1.29669 0.966797 2.42707C0.966797 3.55746 1.88874 4.48207 3.0218 4.48207ZM3.0218 4.03847C2.13727 4.03847 1.4104 3.30893 1.4104 2.42707C1.4104 1.54521 2.13727 0.815673 3.0218 0.815673C3.90366 0.815673 4.6332 1.54521 4.6332 2.42707C4.6332 3.30893 3.90366 4.03847 3.0218 4.03847Z" fill="#8E8E93"/>
</svg>
