<svg width="18" height="19" viewBox="0 0 18 19" fill="none" xmlns="http://www.w3.org/2000/svg">
<path d="M7.27622 18.0319L6.92818 15.2473C6.68335 15.1654 6.43228 15.0506 6.17496 14.903C5.9178 14.7552 5.68783 14.597 5.48505 14.4283L2.90615 15.5181L0.796875 11.8618L3.0275 10.1759C3.00648 10.04 2.99155 9.90353 2.98271 9.76641C2.97387 9.6293 2.96945 9.49272 2.96945 9.35667C2.96945 9.22671 2.97387 9.09463 2.98271 8.96041C2.99155 8.82619 3.00648 8.6794 3.0275 8.52004L0.796875 6.83422L2.90615 3.19543L5.47614 4.27657C5.69659 4.10198 5.93189 3.94232 6.18205 3.79759C6.43221 3.65285 6.67802 3.53654 6.9195 3.44863L7.27622 0.664062H11.4952L11.8433 3.45731C12.1175 3.55695 12.3656 3.67327 12.5876 3.80627C12.8097 3.93927 13.0339 4.09604 13.2601 4.27657L15.8653 3.19543L17.9746 6.83422L15.7088 8.54632C15.7415 8.69395 15.7594 8.83198 15.7625 8.96041C15.7654 9.08869 15.7668 9.21788 15.7668 9.34798C15.7668 9.47215 15.7638 9.59845 15.7579 9.72688C15.7521 9.85515 15.7311 10.0019 15.6948 10.1672L17.943 11.8618L15.8335 15.5181L13.2601 14.4194C13.0339 14.5999 12.803 14.7596 12.5675 14.8984C12.3319 15.0373 12.0905 15.1507 11.8433 15.2387L11.4952 18.0319H7.27622ZM8.47163 16.6608H10.2683L10.5969 14.2121C11.0634 14.0902 11.4897 13.9171 11.8757 13.6927C12.2619 13.4681 12.6344 13.1795 12.993 12.8268L15.2641 13.7814L16.1642 12.2274L14.1813 10.7333C14.2575 10.4965 14.3093 10.2644 14.3367 10.037C14.3643 9.80968 14.3781 9.58001 14.3781 9.34798C14.3781 9.11001 14.3643 8.88035 14.3367 8.65898C14.3093 8.43747 14.2575 8.21123 14.1813 7.98027L16.1816 6.46858L15.2817 4.91461L12.9841 5.8831C12.6782 5.55616 12.3117 5.2673 11.8846 5.01654C11.4575 4.76577 11.0253 4.58821 10.5882 4.48385L10.2998 2.03521H8.4858L8.18324 4.47516C7.71689 4.58531 7.28628 4.75404 6.89139 4.98134C6.49635 5.2088 6.11951 5.50177 5.76088 5.86025L3.4898 4.91461L2.58988 6.46858L4.56387 7.93982C4.48769 8.15676 4.43437 8.38239 4.4039 8.61671C4.37343 8.85102 4.3582 9.09767 4.3582 9.35667C4.3582 9.59464 4.37343 9.82788 4.4039 10.0564C4.43437 10.2849 4.4848 10.5106 4.55518 10.7333L2.58988 12.2274L3.4898 13.7814L5.75219 12.8216C6.09909 13.1777 6.46999 13.4696 6.86488 13.697C7.25992 13.9243 7.69648 14.0989 8.17455 14.2208L8.47163 16.6608ZM9.39624 12.0903C10.1568 12.0903 10.804 11.8234 11.3378 11.2895C11.8716 10.7557 12.1385 10.1085 12.1385 9.34798C12.1385 8.58745 11.8716 7.94027 11.3378 7.40644C10.804 6.87261 10.1568 6.60569 9.39624 6.60569C8.62627 6.60569 7.97673 6.87261 7.44762 7.40644C6.91851 7.94027 6.65395 8.58745 6.65395 9.34798C6.65395 10.1085 6.91851 10.7557 7.44762 11.2895C7.97673 11.8234 8.62627 12.0903 9.39624 12.0903Z" fill="#B0B0B0"/>
</svg>
