<svg width="18" height="18" viewBox="0 0 18 18" fill="none" xmlns="http://www.w3.org/2000/svg">
<mask id="mask0_4240_5478" style="mask-type:alpha" maskUnits="userSpaceOnUse" x="0" y="0" width="18" height="18">
<rect x="0.12793" y="0.696777" width="17.2647" height="17.2647" fill="#D9D9D9"/>
</mask>
<g mask="url(#mask0_4240_5478)">
<path d="M11.6851 15.7316C11.0468 15.6209 10.501 15.3383 10.0478 14.8837C9.59453 14.4289 9.31715 13.8824 9.21572 13.2442H9.80632C9.90499 13.7146 10.1252 14.1206 10.4669 14.4623C10.8086 14.804 11.2147 15.0242 11.6851 15.1228V15.7316ZM12.6534 15.7496V15.1228C13.2012 15.0094 13.6586 14.7332 14.0257 14.2943C14.3927 13.8553 14.5762 13.3439 14.5762 12.7601C14.5762 12.1763 14.3927 11.6649 14.0257 11.2259C13.6586 10.7869 13.2012 10.5107 12.6534 10.3972V9.77059C13.3783 9.88401 13.9861 10.2204 14.4768 10.7797C14.9674 11.3391 15.2127 11.9992 15.2127 12.7601C15.2127 13.5209 14.9674 14.181 14.4768 14.7403C13.9861 15.2997 13.3783 15.6362 12.6534 15.7496ZM9.21572 12.276C9.31715 11.6378 9.59453 11.0913 10.0478 10.6365C10.501 10.1819 11.0468 9.89924 11.6851 9.78857V10.3972C11.2147 10.4959 10.8086 10.7162 10.4669 11.0579C10.1252 11.3996 9.90499 11.8056 9.80632 12.276H9.21572ZM11.5605 13.9774V11.5427L13.4308 12.7601L11.5605 13.9774ZM7.41857 15.8035L7.15852 13.723C6.92892 13.6538 6.68062 13.5449 6.41362 13.3964C6.14661 13.2479 5.91953 13.0889 5.73238 12.9192L3.81347 13.7354L2.47168 11.3974L4.13035 10.1468C4.10913 10.0169 4.09163 9.88293 4.07784 9.74505C4.06393 9.60717 4.05698 9.47319 4.05698 9.34311C4.05698 9.22225 4.06393 9.09523 4.07784 8.96202C4.09163 8.8287 4.10913 8.67859 4.13035 8.5117L2.47168 7.26109L3.81347 4.95085L5.71853 5.75312C5.93338 5.57424 6.1658 5.41286 6.41577 5.26899C6.66563 5.12511 6.9086 5.01397 7.14467 4.93556L7.41857 2.85498H10.1025L10.3626 4.94941C10.6383 5.04628 10.882 5.15743 11.0936 5.28284C11.3052 5.40824 11.5231 5.56501 11.7473 5.75312L13.7076 4.95085L15.0494 7.26109L13.7186 8.2682C13.5747 8.21928 13.4272 8.17522 13.276 8.13601C13.1247 8.09681 12.9716 8.06384 12.8167 8.0371L14.1157 7.06326L13.4004 5.84034L11.5646 6.60952C11.347 6.37069 11.0609 6.14679 10.7062 5.93782C10.3517 5.72896 10.0163 5.59042 9.69985 5.5222L9.47991 3.57434H8.04531L7.82123 5.50836C7.45879 5.58581 7.12561 5.71056 6.82168 5.8826C6.51786 6.05453 6.21561 6.29084 5.91492 6.59154L4.12064 5.84034L3.40541 7.06326L4.9659 8.22809C4.90595 8.38947 4.86399 8.56469 4.84001 8.75377C4.81603 8.94284 4.80404 9.13929 4.80404 9.34311C4.80404 9.52571 4.81603 9.70693 4.84001 9.88677C4.86399 10.0666 4.90133 10.2418 4.95205 10.4124L3.40541 11.5953L4.12064 12.8182L5.90107 12.0628C6.13258 12.2944 6.37447 12.491 6.62673 12.6529C6.87887 12.8148 7.15204 12.945 7.44626 13.0437C7.47672 13.5703 7.58762 14.0687 7.77897 14.5391C7.97032 15.0094 8.22468 15.4309 8.54204 15.8035H7.41857ZM7.82393 10.8827C7.86829 10.7628 7.91835 10.6497 7.9741 10.5432C8.02985 10.4367 8.09141 10.3323 8.15879 10.2299C8.00845 10.134 7.88807 10.0088 7.79767 9.85422C7.70727 9.69979 7.66207 9.52481 7.66207 9.32926C7.66207 9.02952 7.76698 8.77475 7.9768 8.56493C8.18661 8.35512 8.44138 8.25021 8.74112 8.25021C8.92744 8.25021 9.10086 8.29379 9.2614 8.38096C9.42182 8.46812 9.54998 8.58688 9.6459 8.73722C9.74829 8.66984 9.85434 8.61055 9.96404 8.55936C10.0739 8.50816 10.1841 8.46183 10.2948 8.42034C10.1435 8.14734 9.92903 7.93087 9.65147 7.77094C9.3738 7.61088 9.07035 7.53085 8.74112 7.53085C8.23673 7.53085 7.81086 7.70517 7.46353 8.05383C7.11632 8.40236 6.94271 8.8275 6.94271 9.32926C6.94271 9.66496 7.02136 9.96997 7.17866 10.2443C7.33584 10.5187 7.55093 10.7315 7.82393 10.8827Z" fill="#1C1B1F"/>
</g>
</svg>
