<svg width="11" height="10" viewBox="0 0 11 10" fill="none" xmlns="http://www.w3.org/2000/svg">
<mask id="mask0_4381_10389" style="mask-type:alpha" maskUnits="userSpaceOnUse" x="0" y="0" width="11" height="10">
<rect x="0.672363" width="9.8263" height="9.8263" fill="#D9D9D9"/>
</mask>
<g mask="url(#mask0_4381_10389)">
<path d="M4.46003 9.00743L4.29625 7.69726C4.20754 7.66314 4.12395 7.6222 4.04548 7.57443C3.967 7.52666 3.89024 7.47549 3.81517 7.4209L2.59712 7.93268L1.47119 5.98789L2.52547 5.18951C2.51865 5.14174 2.51524 5.09568 2.51524 5.05132V4.77496C2.51524 4.7306 2.51865 4.68454 2.52547 4.63678L1.47119 3.83839L2.59712 1.8936L3.81517 2.40539C3.89024 2.3508 3.96871 2.29962 4.0506 2.25185C4.13248 2.20408 4.21437 2.16314 4.29625 2.12902L4.46003 0.818848H6.71189L6.87566 2.12902C6.96437 2.16314 7.04796 2.20408 7.12643 2.25185C7.20491 2.29962 7.28168 2.3508 7.35674 2.40539L8.57479 1.8936L9.70072 3.83839L8.64644 4.63678C8.65326 4.68454 8.65668 4.7306 8.65668 4.77496V5.05132C8.65668 5.09568 8.64985 5.14174 8.6362 5.18951L9.69049 5.98789L8.56455 7.93268L7.35674 7.4209C7.28168 7.47549 7.2032 7.52666 7.12132 7.57443C7.03943 7.6222 6.95754 7.66314 6.87566 7.69726L6.71189 9.00743H4.46003ZM5.17653 8.18858H5.98515L6.12845 7.10359C6.33999 7.049 6.53617 6.96882 6.717 6.86305C6.89784 6.75728 7.06331 6.62933 7.21344 6.47921L8.22678 6.89887L8.62597 6.20284L7.7457 5.53752C7.77981 5.44199 7.8037 5.34134 7.81735 5.23557C7.83099 5.1298 7.83782 5.02232 7.83782 4.91314C7.83782 4.80396 7.83099 4.69648 7.81735 4.59072C7.8037 4.48495 7.77981 4.38429 7.7457 4.28876L8.62597 3.62344L8.22678 2.92741L7.21344 3.35731C7.06331 3.20036 6.89784 3.069 6.717 2.96323C6.53617 2.85746 6.33999 2.77728 6.12845 2.72269L5.99539 1.63771H5.18676L5.04346 2.72269C4.83192 2.77728 4.63574 2.85746 4.45491 2.96323C4.27408 3.069 4.1086 3.19695 3.95847 3.34707L2.94514 2.92741L2.54594 3.62344L3.42622 4.27853C3.3921 4.38088 3.36821 4.48324 3.35457 4.5856C3.34092 4.68795 3.33409 4.79714 3.33409 4.91314C3.33409 5.02232 3.34092 5.12809 3.35457 5.23045C3.36821 5.33281 3.3921 5.43516 3.42622 5.53752L2.54594 6.20284L2.94514 6.89887L3.95847 6.46897C4.1086 6.62592 4.27408 6.75728 4.45491 6.86305C4.63574 6.96882 4.83192 7.049 5.04346 7.10359L5.17653 8.18858ZM5.60643 6.34614C6.00221 6.34614 6.33999 6.20625 6.61976 5.92648C6.89954 5.6467 7.03943 5.30892 7.03943 4.91314C7.03943 4.51736 6.89954 4.17958 6.61976 3.8998C6.33999 3.62003 6.00221 3.48014 5.60643 3.48014C5.20382 3.48014 4.86434 3.62003 4.58797 3.8998C4.31161 4.17958 4.17342 4.51736 4.17342 4.91314C4.17342 5.30892 4.31161 5.6467 4.58797 5.92648C4.86434 6.20625 5.20382 6.34614 5.60643 6.34614Z" fill="white"/>
</g>
</svg>
