<svg width="14" height="14" viewBox="0 0 14 14" fill="none" xmlns="http://www.w3.org/2000/svg">
<mask id="mask0_4237_5350" style="mask-type:alpha" maskUnits="userSpaceOnUse" x="0" y="0" width="14" height="14">
<rect x="0.15332" y="0.120605" width="13.4372" height="13.4372" fill="#D9D9D9"/>
</mask>
<g mask="url(#mask0_4237_5350)">
<path d="M9.56265 12.1583C9.14358 12.1583 8.78777 12.0118 8.49523 11.7187C8.20279 11.4256 8.05656 11.0697 8.05656 10.651C8.05656 10.595 8.07593 10.4589 8.11465 10.2428L4.13303 7.89886C3.9981 8.03883 3.83779 8.14847 3.65209 8.22779C3.4664 8.30711 3.26745 8.34676 3.05525 8.34676C2.63805 8.34676 2.28341 8.19961 1.99133 7.90529C1.69926 7.61098 1.55322 7.25569 1.55322 6.83941C1.55322 6.42314 1.69926 6.06785 1.99133 5.77353C2.28341 5.47922 2.63805 5.33206 3.05525 5.33206C3.26745 5.33206 3.4664 5.37172 3.65209 5.45104C3.83779 5.53036 3.9981 5.64 4.13303 5.77997L8.11465 3.44133C8.09244 3.37247 8.07719 3.305 8.06888 3.23893C8.06067 3.17287 8.05656 3.10251 8.05656 3.02786C8.05656 2.60916 8.20321 2.25326 8.49649 1.96016C8.78987 1.66706 9.1461 1.52051 9.56517 1.52051C9.98425 1.52051 10.34 1.6672 10.6325 1.96058C10.925 2.25386 11.0713 2.61004 11.0713 3.02912C11.0713 3.44819 10.9247 3.804 10.6316 4.09654C10.3385 4.38898 9.98261 4.53521 9.56391 4.53521C9.35069 4.53521 9.1524 4.49466 8.96904 4.41357C8.78558 4.33248 8.62639 4.22195 8.49146 4.08198L4.50983 6.42594C4.53204 6.4949 4.5473 6.56236 4.5556 6.62834C4.56382 6.6944 4.56792 6.76476 4.56792 6.83941C4.56792 6.91407 4.56382 6.98442 4.5556 7.05049C4.5473 7.11646 4.53204 7.18393 4.50983 7.25289L8.49146 9.59685C8.62639 9.45688 8.78558 9.34634 8.96904 9.26525C9.1524 9.18417 9.35069 9.14362 9.56391 9.14362C9.98261 9.14362 10.3385 9.29026 10.6316 9.58355C10.9247 9.87693 11.0713 10.2332 11.0713 10.6522C11.0713 11.0713 10.9246 11.4271 10.6312 11.7195C10.3379 12.0121 9.98173 12.1583 9.56265 12.1583ZM9.56391 11.3185C9.75306 11.3185 9.9116 11.2545 10.0395 11.1266C10.1675 10.9987 10.2314 10.8401 10.2314 10.651C10.2314 10.4618 10.1675 10.3033 10.0395 10.1753C9.9116 10.0473 9.75306 9.98331 9.56391 9.98331C9.37477 9.98331 9.21623 10.0473 9.08829 10.1753C8.96027 10.3033 8.89625 10.4618 8.89625 10.651C8.89625 10.8401 8.96027 10.9987 9.08829 11.1266C9.21623 11.2545 9.37477 11.3185 9.56391 11.3185ZM3.05525 7.50694C3.24589 7.50694 3.40569 7.44297 3.53465 7.31504C3.66371 7.1871 3.72824 7.02856 3.72824 6.83941C3.72824 6.65027 3.66371 6.49173 3.53465 6.36379C3.40569 6.23586 3.24589 6.17189 3.05525 6.17189C2.8676 6.17189 2.71032 6.23586 2.58341 6.36379C2.4565 6.49173 2.39305 6.65027 2.39305 6.83941C2.39305 7.02856 2.4565 7.1871 2.58341 7.31504C2.71032 7.44297 2.8676 7.50694 3.05525 7.50694ZM9.56391 3.69552C9.75306 3.69552 9.9116 3.63151 10.0395 3.50348C10.1675 3.37555 10.2314 3.21701 10.2314 3.02786C10.2314 2.83871 10.1675 2.68017 10.0395 2.55224C9.9116 2.4243 9.75306 2.36034 9.56391 2.36034C9.37477 2.36034 9.21623 2.4243 9.08829 2.55224C8.96027 2.68017 8.89625 2.83871 8.89625 3.02786C8.89625 3.21701 8.96027 3.37555 9.08829 3.50348C9.21623 3.63151 9.37477 3.69552 9.56391 3.69552Z" fill="white"/>
</g>
</svg>
