<svg width="29" height="28" viewBox="0 0 29 28" fill="none" xmlns="http://www.w3.org/2000/svg">
<mask id="mask0_4294_4974" style="mask-type:alpha" maskUnits="userSpaceOnUse" x="0" y="0" width="29" height="28">
<rect x="0.937012" y="0.487305" width="27.4573" height="27.4573" fill="#D9D9D9"/>
</mask>
<g mask="url(#mask0_4294_4974)">
<path d="M20.1646 25.0847C19.3083 25.0847 18.5812 24.7852 17.9835 24.1863C17.3859 23.5874 17.0871 22.8602 17.0871 22.0046C17.0871 21.8902 17.1267 21.6122 17.2058 21.1706L9.06985 16.381C8.79414 16.667 8.46655 16.8911 8.08711 17.0531C7.70767 17.2152 7.30115 17.2962 6.86755 17.2962C6.01504 17.2962 5.29038 16.9955 4.69356 16.3942C4.09675 15.7928 3.79834 15.0668 3.79834 14.2162C3.79834 13.3656 4.09675 12.6396 4.69356 12.0382C5.29038 11.4368 6.01504 11.1361 6.86755 11.1361C7.30115 11.1361 7.70767 11.2171 8.08711 11.3792C8.46655 11.5413 8.79414 11.7653 9.06985 12.0513L17.2058 7.27262C17.1604 7.1319 17.1292 6.99404 17.1123 6.85904C17.0955 6.72405 17.0871 6.58028 17.0871 6.42773C17.0871 5.57217 17.3867 4.84494 17.986 4.24602C18.5855 3.64711 19.3134 3.34766 20.1697 3.34766C21.0261 3.34766 21.753 3.6474 22.3506 4.24688C22.9484 4.84618 23.2472 5.57399 23.2472 6.43031C23.2472 7.28663 22.9478 8.01368 22.3489 8.61145C21.75 9.20902 21.0227 9.50781 20.1672 9.50781C19.7315 9.50781 19.3263 9.42496 18.9516 9.25927C18.5767 9.09357 18.2515 8.86771 17.9757 8.5817L9.8398 13.3713C9.88518 13.5122 9.91636 13.65 9.93333 13.7849C9.95011 13.9199 9.9585 14.0636 9.9585 14.2162C9.9585 14.3687 9.95011 14.5125 9.93333 14.6475C9.91636 14.7823 9.88518 14.9201 9.8398 15.061L17.9757 19.8506C18.2515 19.5646 18.5767 19.3388 18.9516 19.1731C19.3263 19.0074 19.7315 18.9245 20.1672 18.9245C21.0227 18.9245 21.75 19.2242 22.3489 19.8235C22.9478 20.4229 23.2472 21.1508 23.2472 22.0072C23.2472 22.8635 22.9475 23.5904 22.348 24.188C21.7487 24.7858 21.0209 25.0847 20.1646 25.0847ZM20.1672 23.3686C20.5537 23.3686 20.8776 23.2379 21.139 22.9765C21.4005 22.7151 21.5312 22.3911 21.5312 22.0046C21.5312 21.6181 21.4005 21.2941 21.139 21.0327C20.8776 20.7711 20.5537 20.6403 20.1672 20.6403C19.7807 20.6403 19.4567 20.7711 19.1953 21.0327C18.9337 21.2941 18.8029 21.6181 18.8029 22.0046C18.8029 22.3911 18.9337 22.7151 19.1953 22.9765C19.4567 23.2379 19.7807 23.3686 20.1672 23.3686ZM6.86755 15.5802C7.2571 15.5802 7.58363 15.4495 7.84715 15.188C8.11085 14.9266 8.2427 14.6027 8.2427 14.2162C8.2427 13.8297 8.11085 13.5057 7.84715 13.2443C7.58363 12.9829 7.2571 12.8522 6.86755 12.8522C6.4841 12.8522 6.16272 12.9829 5.9034 13.2443C5.64408 13.5057 5.51442 13.8297 5.51442 14.2162C5.51442 14.6027 5.64408 14.9266 5.9034 15.188C6.16272 15.4495 6.4841 15.5802 6.86755 15.5802ZM20.1672 7.79202C20.5537 7.79202 20.8776 7.66121 21.139 7.39961C21.4005 7.13819 21.5312 6.81423 21.5312 6.42773C21.5312 6.04123 21.4005 5.71728 21.139 5.45586C20.8776 5.19445 20.5537 5.06374 20.1672 5.06374C19.7807 5.06374 19.4567 5.19445 19.1953 5.45586C18.9337 5.71728 18.8029 6.04123 18.8029 6.42773C18.8029 6.81423 18.9337 7.13819 19.1953 7.39961C19.4567 7.66121 19.7807 7.79202 20.1672 7.79202Z" fill="white"/>
</g>
</svg>
