<svg width="12" height="12" viewBox="0 0 12 12" fill="none" xmlns="http://www.w3.org/2000/svg">
<mask id="mask0_4294_6474" style="mask-type:alpha" maskUnits="userSpaceOnUse" x="0" y="0" width="12" height="12">
<rect x="0.552734" y="0.29834" width="11.0323" height="11.0323" fill="#D9D9D9"/>
</mask>
<g mask="url(#mask0_4294_6474)">
<path d="M8.27661 10.1816C7.93254 10.1816 7.64041 10.0613 7.40023 9.82068C7.16013 9.58004 7.04007 9.28783 7.04007 8.94407C7.04007 8.8981 7.05597 8.7864 7.08777 8.60896L3.81877 6.68452C3.70798 6.79944 3.57636 6.88946 3.4239 6.95458C3.27144 7.0197 3.1081 7.05226 2.93389 7.05226C2.59135 7.05226 2.30018 6.93145 2.06038 6.68981C1.82058 6.44817 1.70068 6.15647 1.70068 5.8147C1.70068 5.47293 1.82058 5.18122 2.06038 4.93958C2.30018 4.69795 2.59135 4.57713 2.93389 4.57713C3.1081 4.57713 3.27144 4.60969 3.4239 4.67481C3.57636 4.73993 3.70798 4.82995 3.81877 4.94487L7.08777 3.02479C7.06953 2.96825 7.05701 2.91286 7.05019 2.85862C7.04345 2.80438 7.04007 2.74661 7.04007 2.68532C7.04007 2.34156 7.16047 2.04936 7.40127 1.80872C7.64214 1.56807 7.93461 1.44775 8.27868 1.44775C8.62275 1.44775 8.91483 1.56819 9.15494 1.80906C9.39512 2.04986 9.51521 2.34229 9.51521 2.68636C9.51521 3.03043 9.39489 3.32255 9.15425 3.56273C8.91361 3.80284 8.62141 3.92289 8.27764 3.92289C8.10258 3.92289 7.93978 3.8896 7.78924 3.82303C7.63861 3.75645 7.50791 3.6657 7.39713 3.55078L4.12813 5.47522C4.14636 5.53184 4.15889 5.58723 4.16571 5.6414C4.17245 5.69564 4.17582 5.75341 4.17582 5.8147C4.17582 5.87599 4.17245 5.93375 4.16571 5.98799C4.15889 6.04216 4.14636 6.09755 4.12813 6.15417L7.39713 8.07861C7.50791 7.96369 7.63861 7.87294 7.78924 7.80637C7.93978 7.73979 8.10258 7.7065 8.27764 7.7065C8.62141 7.7065 8.91361 7.8269 9.15425 8.06769C9.39489 8.30857 9.51521 8.60104 9.51521 8.94511C9.51521 9.28917 9.39478 9.58126 9.1539 9.82137C8.91311 10.0615 8.62068 10.1816 8.27661 10.1816ZM8.27764 9.49212C8.43294 9.49212 8.5631 9.4396 8.66814 9.33457C8.77318 9.22953 8.82569 9.09937 8.82569 8.94407C8.82569 8.78878 8.77318 8.65861 8.66814 8.55357C8.5631 8.44846 8.43294 8.3959 8.27764 8.3959C8.12235 8.3959 7.99218 8.44846 7.88715 8.55357C7.78203 8.65861 7.72948 8.78878 7.72948 8.94407C7.72948 9.09937 7.78203 9.22953 7.88715 9.33457C7.99218 9.4396 8.12235 9.49212 8.27764 9.49212ZM2.93389 6.36275C3.09041 6.36275 3.22161 6.31023 3.32748 6.20519C3.43344 6.10016 3.48642 5.96999 3.48642 5.8147C3.48642 5.6594 3.43344 5.52924 3.32748 5.4242C3.22161 5.31916 3.09041 5.26664 2.93389 5.26664C2.77982 5.26664 2.65069 5.31916 2.54649 5.4242C2.4423 5.52924 2.3902 5.6594 2.3902 5.8147C2.3902 5.96999 2.4423 6.10016 2.54649 6.20519C2.65069 6.31023 2.77982 6.36275 2.93389 6.36275ZM8.27764 3.23349C8.43294 3.23349 8.5631 3.18093 8.66814 3.07582C8.77318 2.97078 8.82569 2.84062 8.82569 2.68532C8.82569 2.53003 8.77318 2.39986 8.66814 2.29483C8.5631 2.18979 8.43294 2.13727 8.27764 2.13727C8.12235 2.13727 7.99218 2.18979 7.88715 2.29483C7.78203 2.39986 7.72948 2.53003 7.72948 2.68532C7.72948 2.84062 7.78203 2.97078 7.88715 3.07582C7.99218 3.18093 8.12235 3.23349 8.27764 3.23349Z" fill="#FFF8F0"/>
</g>
</svg>
