<svg width="15" height="14" viewBox="0 0 15 14" fill="none" xmlns="http://www.w3.org/2000/svg">
<mask id="mask0_4220_7061" style="mask-type:alpha" maskUnits="userSpaceOnUse" x="0" y="0" width="15" height="14">
<rect x="0.777344" y="0.120117" width="13.4372" height="13.4372" fill="#D9D9D9"/>
</mask>
<g mask="url(#mask0_4220_7061)">
<path d="M10.1867 12.1583C9.7676 12.1583 9.4118 12.0118 9.11926 11.7187C8.82681 11.4256 8.68059 11.0697 8.68059 10.651C8.68059 10.595 8.69995 10.4589 8.73868 10.2428L4.75706 7.89886C4.62212 8.03883 4.46181 8.14847 4.27611 8.22779C4.09042 8.30711 3.89147 8.34676 3.67928 8.34676C3.26207 8.34676 2.90743 8.19961 2.61536 7.90529C2.32328 7.61098 2.17725 7.25569 2.17725 6.83941C2.17725 6.42314 2.32328 6.06785 2.61536 5.77353C2.90743 5.47922 3.26207 5.33206 3.67928 5.33206C3.89147 5.33206 4.09042 5.37172 4.27611 5.45104C4.46181 5.53036 4.62212 5.64 4.75706 5.77997L8.73868 3.44133C8.71647 3.37247 8.70121 3.305 8.69291 3.23893C8.68469 3.17287 8.68059 3.10251 8.68059 3.02786C8.68059 2.60916 8.82723 2.25326 9.12052 1.96016C9.4139 1.66706 9.77012 1.52051 10.1892 1.52051C10.6083 1.52051 10.964 1.6672 11.2565 1.96058C11.549 2.25386 11.6953 2.61004 11.6953 3.02912C11.6953 3.44819 11.5487 3.804 11.2556 4.09654C10.9625 4.38898 10.6066 4.53521 10.1879 4.53521C9.97471 4.53521 9.77642 4.49466 9.59306 4.41357C9.4096 4.33248 9.25041 4.22195 9.11548 4.08198L5.13386 6.42594C5.15607 6.4949 5.17132 6.56236 5.17963 6.62834C5.18784 6.6944 5.19195 6.76476 5.19195 6.83941C5.19195 6.91407 5.18784 6.98442 5.17963 7.05049C5.17132 7.11646 5.15607 7.18393 5.13386 7.25289L9.11548 9.59685C9.25041 9.45688 9.4096 9.34634 9.59306 9.26525C9.77642 9.18417 9.97471 9.14362 10.1879 9.14362C10.6066 9.14362 10.9625 9.29026 11.2556 9.58355C11.5487 9.87693 11.6953 10.2332 11.6953 10.6522C11.6953 11.0713 11.5486 11.4271 11.2552 11.7195C10.9619 12.0121 10.6058 12.1583 10.1867 12.1583ZM10.1879 11.3185C10.3771 11.3185 10.5356 11.2545 10.6636 11.1266C10.7915 10.9987 10.8555 10.8401 10.8555 10.651C10.8555 10.4618 10.7915 10.3033 10.6636 10.1753C10.5356 10.0473 10.3771 9.98331 10.1879 9.98331C9.99879 9.98331 9.84025 10.0473 9.71232 10.1753C9.58429 10.3033 9.52027 10.4618 9.52027 10.651C9.52027 10.8401 9.58429 10.9987 9.71232 11.1266C9.84025 11.2545 9.99879 11.3185 10.1879 11.3185ZM3.67928 7.50694C3.86992 7.50694 4.02972 7.44297 4.15868 7.31504C4.28773 7.1871 4.35226 7.02856 4.35226 6.83941C4.35226 6.65027 4.28773 6.49173 4.15868 6.36379C4.02972 6.23586 3.86992 6.17189 3.67928 6.17189C3.49162 6.17189 3.33434 6.23586 3.20743 6.36379C3.08053 6.49173 3.01707 6.65027 3.01707 6.83941C3.01707 7.02856 3.08053 7.1871 3.20743 7.31504C3.33434 7.44297 3.49162 7.50694 3.67928 7.50694ZM10.1879 3.69552C10.3771 3.69552 10.5356 3.63151 10.6636 3.50348C10.7915 3.37555 10.8555 3.21701 10.8555 3.02786C10.8555 2.83871 10.7915 2.68017 10.6636 2.55224C10.5356 2.4243 10.3771 2.36034 10.1879 2.36034C9.99879 2.36034 9.84025 2.4243 9.71232 2.55224C9.58429 2.68017 9.52027 2.83871 9.52027 3.02786C9.52027 3.21701 9.58429 3.37555 9.71232 3.50348C9.84025 3.63151 9.99879 3.69552 10.1879 3.69552Z" fill="white"/>
</g>
</svg>
