<svg width="23" height="23" viewBox="0 0 23 23" fill="none" xmlns="http://www.w3.org/2000/svg">
<mask id="mask0_4238_6128" style="mask-type:alpha" maskUnits="userSpaceOnUse" x="0" y="0" width="23" height="23">
<rect x="0.200684" y="0.692871" width="21.9018" height="21.9018" fill="#D9D9D9"/>
</mask>
<g mask="url(#mask0_4238_6128)">
<path d="M15.5343 20.3132C14.8513 20.3132 14.2713 20.0743 13.7945 19.5966C13.3178 19.1188 13.0795 18.5387 13.0795 17.8563C13.0795 17.765 13.1111 17.5433 13.1742 17.191L6.68441 13.3705C6.46448 13.5987 6.20318 13.7774 5.9005 13.9067C5.59783 14.0359 5.27357 14.1006 4.9277 14.1006C4.24768 14.1006 3.66964 13.8607 3.19358 13.381C2.71752 12.9013 2.47949 12.3222 2.47949 11.6437C2.47949 10.9652 2.71752 10.3861 3.19358 9.90639C3.66964 9.42668 4.24768 9.18682 4.9277 9.18682C5.27357 9.18682 5.59783 9.25146 5.9005 9.38074C6.20318 9.51002 6.46448 9.68874 6.68441 9.91688L13.1742 6.10506C13.138 5.99281 13.1131 5.88285 13.0996 5.77516C13.0862 5.66748 13.0795 5.5528 13.0795 5.43112C13.0795 4.74867 13.3185 4.16857 13.7966 3.69084C14.2747 3.21311 14.8554 2.97424 15.5384 2.97424C16.2215 2.97424 16.8014 3.21334 17.278 3.69153C17.7548 4.16956 17.9933 4.75011 17.9933 5.43318C17.9933 6.11624 17.7544 6.69618 17.2767 7.173C16.7989 7.64966 16.2188 7.888 15.5364 7.888C15.1888 7.888 14.8656 7.82191 14.5668 7.68974C14.2677 7.55757 14.0083 7.37741 13.7883 7.14927L7.29857 10.9698C7.33477 11.0822 7.35964 11.1921 7.37317 11.2997C7.38656 11.4073 7.39325 11.522 7.39325 11.6437C7.39325 11.7654 7.38656 11.8801 7.37317 11.9877C7.35964 12.0953 7.33477 12.2052 7.29857 12.3176L13.7883 16.1381C14.0083 15.91 14.2677 15.7298 14.5668 15.5977C14.8656 15.4655 15.1888 15.3994 15.5364 15.3994C16.2188 15.3994 16.7989 15.6384 17.2767 16.1165C17.7544 16.5946 17.9933 17.1753 17.9933 17.8583C17.9933 18.5414 17.7542 19.1213 17.276 19.5979C16.7979 20.0747 16.2174 20.3132 15.5343 20.3132ZM15.5364 18.9443C15.8447 18.9443 16.1031 18.84 16.3116 18.6315C16.5201 18.423 16.6244 18.1646 16.6244 17.8563C16.6244 17.548 16.5201 17.2896 16.3116 17.081C16.1031 16.8724 15.8447 16.768 15.5364 16.768C15.2281 16.768 14.9697 16.8724 14.7611 17.081C14.5525 17.2896 14.4481 17.548 14.4481 17.8563C14.4481 18.1646 14.5525 18.423 14.7611 18.6315C14.9697 18.84 15.2281 18.9443 15.5364 18.9443ZM4.9277 12.7317C5.23843 12.7317 5.4989 12.6275 5.70909 12.4189C5.91944 12.2104 6.02462 11.952 6.02462 11.6437C6.02462 11.3354 5.91944 11.077 5.70909 10.8685C5.4989 10.6599 5.23843 10.5557 4.9277 10.5557C4.62184 10.5557 4.36548 10.6599 4.15863 10.8685C3.95178 11.077 3.84835 11.3354 3.84835 11.6437C3.84835 11.952 3.95178 12.2104 4.15863 12.4189C4.36548 12.6275 4.62184 12.7317 4.9277 12.7317ZM15.5364 6.51937C15.8447 6.51937 16.1031 6.41503 16.3116 6.20635C16.5201 5.99783 16.6244 5.73942 16.6244 5.43112C16.6244 5.12282 16.5201 4.86441 16.3116 4.65589C16.1031 4.44737 15.8447 4.3431 15.5364 4.3431C15.2281 4.3431 14.9697 4.44737 14.7611 4.65589C14.5525 4.86441 14.4481 5.12282 14.4481 5.43112C14.4481 5.73942 14.5525 5.99783 14.7611 6.20635C14.9697 6.41503 15.2281 6.51937 15.5364 6.51937Z" fill="white"/>
</g>
</svg>
