<svg width="19" height="9" viewBox="0 0 19 9" fill="none" xmlns="http://www.w3.org/2000/svg">
<path d="M1.414 7.68993H7.7437C8.51204 7.68993 8.89256 7.30942 8.89256 6.55571V2.08833C8.89256 1.33462 8.51204 0.954102 7.7437 0.954102H1.414C0.649309 0.954102 0.265137 1.33096 0.265137 2.08833V6.55571C0.265137 7.31308 0.649309 7.68993 1.414 7.68993ZM1.42131 7.10087C1.05543 7.10087 0.854201 6.90695 0.854201 6.52644V2.1176C0.854201 1.73708 1.05543 1.54317 1.42131 1.54317H3.05313V7.10087H1.42131ZM7.73638 1.54317C8.0986 1.54317 8.30349 1.73708 8.30349 2.1176V6.52644C8.30349 6.90695 8.0986 7.10087 7.73638 7.10087H3.62756V1.54317H7.73638ZM2.35065 2.90058C2.46041 2.90058 2.5592 2.80179 2.5592 2.69568C2.5592 2.58592 2.46041 2.49079 2.35065 2.49079H1.56401C1.45424 2.49079 1.35911 2.58592 1.35911 2.69568C1.35911 2.80179 1.45424 2.90058 1.56401 2.90058H2.35065ZM2.35065 3.8482C2.46041 3.8482 2.5592 3.74942 2.5592 3.63965C2.5592 3.52989 2.46041 3.43842 2.35065 3.43842H1.56401C1.45424 3.43842 1.35911 3.52989 1.35911 3.63965C1.35911 3.74942 1.45424 3.8482 1.56401 3.8482H2.35065ZM2.35065 4.79217C2.46041 4.79217 2.5592 4.7007 2.5592 4.59094C2.5592 4.48117 2.46041 4.38604 2.35065 4.38604H1.56401C1.45424 4.38604 1.35911 4.48117 1.35911 4.59094C1.35911 4.7007 1.45424 4.79217 1.56401 4.79217H2.35065Z" fill="white" fill-opacity="0.6"/>
<rect x="12.0723" y="0.401367" width="0.468325" height="8.42985" fill="white" fill-opacity="0.1"/>
<path d="M15.3501 4.14795L16.7551 5.55292L18.16 4.14795" stroke="white" stroke-opacity="0.6" stroke-width="0.585406" stroke-linecap="round" stroke-linejoin="round"/>
</svg>
