<svg width="20" height="20" viewBox="0 0 20 20" fill="none" xmlns="http://www.w3.org/2000/svg">
<path d="M7.45368 4.40399C8.48538 2.55393 9.00083 1.62891 9.77195 1.62891C10.5431 1.62891 11.0585 2.55393 12.0902 4.40399L12.3573 4.88279C12.6505 5.40882 12.797 5.67183 13.025 5.84528C13.253 6.01872 13.538 6.08305 14.108 6.21171L14.6259 6.32896C16.6291 6.78252 17.6298 7.00889 17.8684 7.77514C18.1062 8.54056 17.4238 9.33938 16.0582 10.9362L15.7048 11.349C15.3172 11.8026 15.1226 12.0298 15.0355 12.3099C14.9484 12.5908 14.9777 12.8937 15.0363 13.4987L15.0901 14.05C15.2961 16.181 15.3995 17.2461 14.7757 17.7192C14.152 18.1923 13.2139 17.7607 11.3395 16.8976L10.8533 16.6745C10.3208 16.4285 10.0545 16.3064 9.77195 16.3064C9.4894 16.3064 9.22313 16.4285 8.69058 16.6745L8.20527 16.8976C6.32997 17.7607 5.39191 18.1923 4.76898 17.72C4.14443 17.2461 4.24784 16.181 4.45385 14.05L4.5076 13.4996C4.56623 12.8937 4.59554 12.5908 4.5076 12.3107C4.42128 12.0298 4.22667 11.8026 3.83907 11.3498L3.48567 10.9362C2.12011 9.34019 1.43774 8.54138 1.67551 7.77514C1.91328 7.00889 2.91567 6.78171 4.91881 6.32896L5.4367 6.21171C6.00588 6.08305 6.29007 6.01872 6.51888 5.84528C6.7477 5.67183 6.89346 5.40882 7.1866 4.88279L7.45368 4.40399Z" fill="#FFC362"/>
</svg>
