<svg width="21" height="20" viewBox="0 0 21 20" fill="none" xmlns="http://www.w3.org/2000/svg">
<path d="M8.0821 4.40399C9.1138 2.55393 9.62924 1.62891 10.4004 1.62891C11.1715 1.62891 11.6869 2.55393 12.7186 4.40399L12.9857 4.88279C13.2789 5.40882 13.4254 5.67183 13.6534 5.84528C13.8814 6.01872 14.1664 6.08305 14.7364 6.21171L15.2543 6.32896C17.2575 6.78252 18.2582 7.00889 18.4968 7.77514C18.7346 8.54056 18.0522 9.33938 16.6867 10.9362L16.3333 11.349C15.9457 11.8026 15.751 12.0298 15.6639 12.3099C15.5768 12.5908 15.6061 12.8937 15.6647 13.4987L15.7185 14.05C15.9245 16.181 16.0279 17.2461 15.4042 17.7192C14.7804 18.1923 13.8424 17.7607 11.9679 16.8976L11.4817 16.6745C10.9492 16.4285 10.6829 16.3064 10.4004 16.3064C10.1178 16.3064 9.85154 16.4285 9.319 16.6745L8.83369 16.8976C6.95839 17.7607 6.02033 18.1923 5.3974 17.72C4.77284 17.2461 4.87626 16.181 5.08227 14.05L5.13602 13.4996C5.19464 12.8937 5.22396 12.5908 5.13602 12.3107C5.0497 12.0298 4.85509 11.8026 4.46749 11.3498L4.11409 10.9362C2.74853 9.34019 2.06616 8.54138 2.30393 7.77514C2.5417 7.00889 3.54409 6.78171 5.54723 6.32896L6.06512 6.21171C6.6343 6.08305 6.91849 6.01872 7.1473 5.84528C7.37612 5.67183 7.52187 5.40882 7.81502 4.88279L8.0821 4.40399Z" fill="#FFC362"/>
</svg>
