<svg width="20" height="20" viewBox="0 0 20 20" fill="none" xmlns="http://www.w3.org/2000/svg">
<path d="M7.62507 4.40399C8.65677 2.55393 9.17221 1.62891 9.94334 1.62891C10.7145 1.62891 11.2299 2.55393 12.2616 4.40399L12.5287 4.88279C12.8218 5.40882 12.9684 5.67183 13.1964 5.84528C13.4244 6.01872 13.7094 6.08305 14.2794 6.21171L14.7973 6.32896C16.8004 6.78252 17.8012 7.00889 18.0398 7.77514C18.2776 8.54056 17.5952 9.33938 16.2296 10.9362L15.8762 11.349C15.4886 11.8026 15.294 12.0298 15.2069 12.3099C15.1198 12.5908 15.1491 12.8937 15.2077 13.4987L15.2614 14.05C15.4675 16.181 15.5709 17.2461 14.9471 17.7192C14.3234 18.1923 13.3853 17.7607 11.5108 16.8976L11.0247 16.6745C10.4922 16.4285 10.2259 16.3064 9.94334 16.3064C9.66078 16.3064 9.39451 16.4285 8.86197 16.6745L8.37666 16.8976C6.50136 17.7607 5.5633 18.1923 4.94037 17.72C4.31581 17.2461 4.41923 16.181 4.62524 14.05L4.67898 13.4996C4.73761 12.8937 4.76693 12.5908 4.67898 12.3107C4.59267 12.0298 4.39806 11.8026 4.01046 11.3498L3.65706 10.9362C2.2915 9.34019 1.60913 8.54138 1.8469 7.77514C2.08467 7.00889 3.08706 6.78171 5.0902 6.32896L5.60808 6.21171C6.17727 6.08305 6.46146 6.01872 6.69027 5.84528C6.91908 5.67183 7.06484 5.40882 7.35798 4.88279L7.62507 4.40399Z" fill="#FFC362"/>
</svg>
