<svg width="25" height="25" viewBox="0 0 25 25" fill="none" xmlns="http://www.w3.org/2000/svg">
<path d="M13.25 7C13.25 6.80109 13.171 6.61032 13.0304 6.46967C12.8897 6.32902 12.6989 6.25 12.5 6.25C12.3011 6.25 12.1103 6.32902 11.9697 6.46967C11.829 6.61032 11.75 6.80109 11.75 7V7.75H11.663C10.528 7.75 9.75002 8.756 9.75002 9.807C9.75002 10.297 9.85002 10.737 10.112 11.097C10.374 11.456 10.727 11.637 11.025 11.75L13.444 12.652C13.618 12.719 13.661 12.766 13.676 12.787C13.69 12.807 13.75 12.897 13.75 13.193C13.75 13.584 13.485 13.75 13.337 13.75H11.83C11.589 13.75 11.249 13.503 11.249 13C11.249 12.8011 11.17 12.6103 11.0294 12.4697C10.8887 12.329 10.6979 12.25 10.499 12.25C10.3001 12.25 10.1093 12.329 9.96869 12.4697C9.82804 12.6103 9.74902 12.8011 9.74902 13C9.74902 14.132 10.559 15.202 11.749 15.248V16C11.749 16.1989 11.828 16.3897 11.9687 16.5303C12.1093 16.671 12.3001 16.75 12.499 16.75C12.6979 16.75 12.8887 16.671 13.0294 16.5303C13.17 16.3897 13.249 16.1989 13.249 16V15.25H13.336C14.471 15.25 15.249 14.244 15.249 13.193C15.249 12.703 15.149 12.263 14.887 11.903C14.625 11.544 14.272 11.363 13.974 11.25L11.555 10.348C11.381 10.281 11.338 10.234 11.323 10.213C11.309 10.193 11.249 10.103 11.249 9.807C11.249 9.416 11.514 9.25 11.662 9.25H13.168C13.409 9.25 13.749 9.497 13.749 10C13.749 10.1989 13.828 10.3897 13.9687 10.5303C14.1093 10.671 14.3001 10.75 14.499 10.75C14.6979 10.75 14.8887 10.671 15.0294 10.5303C15.17 10.3897 15.249 10.1989 15.249 10C15.249 8.868 14.439 7.798 13.249 7.752L13.25 7Z" fill="white"/>
<path d="M15.133 2.75H9.867C8.775 2.75 7.909 2.75 7.212 2.807C6.498 2.865 5.895 2.987 5.344 3.267C4.44999 3.72267 3.72324 4.44977 3.268 5.344C2.987 5.894 2.865 6.498 2.807 7.212C2.75 7.909 2.75 8.775 2.75 9.867V13.133C2.75 14.225 2.75 15.091 2.807 15.788C2.865 16.502 2.987 17.105 3.267 17.657C3.72284 18.5506 4.44992 19.277 5.344 19.732C5.894 20.013 6.498 20.135 7.212 20.193C7.909 20.25 8.775 20.25 9.867 20.25H10.021L11.606 21.872C11.7224 21.9911 11.8615 22.0858 12.015 22.1504C12.1685 22.2151 12.3334 22.2484 12.5 22.2484C12.6666 22.2484 12.8315 22.2151 12.985 22.1504C13.1385 22.0858 13.2776 21.9911 13.394 21.872L14.979 20.25H15.133C16.225 20.25 17.091 20.25 17.788 20.193C18.502 20.135 19.105 20.013 19.657 19.733C20.5505 19.2774 21.2768 18.5507 21.732 17.657C22.013 17.105 22.135 16.502 22.193 15.788C22.25 15.091 22.25 14.225 22.25 13.133V9.867C22.25 8.775 22.25 7.909 22.193 7.212C22.135 6.498 22.013 5.895 21.733 5.344C21.2776 4.45014 20.5509 3.72341 19.657 3.268C19.105 2.987 18.502 2.865 17.788 2.807C17.091 2.75 16.225 2.75 15.133 2.75ZM6.025 4.604C6.329 4.449 6.713 4.353 7.334 4.302C7.964 4.251 8.768 4.25 9.9 4.25H15.1C16.233 4.25 17.037 4.25 17.666 4.302C18.286 4.352 18.671 4.449 18.976 4.604C19.5874 4.91556 20.0844 5.41263 20.396 6.024C20.551 6.329 20.647 6.714 20.698 7.334C20.749 7.964 20.75 8.768 20.75 9.9V13.1C20.75 14.233 20.75 15.037 20.698 15.666C20.648 16.286 20.551 16.671 20.396 16.976C20.0844 17.5874 19.5874 18.0844 18.976 18.396C18.671 18.551 18.286 18.647 17.666 18.698C17.036 18.749 16.232 18.75 15.1 18.75H14.348L12.5 20.64L10.652 18.75H9.9C8.768 18.75 7.963 18.75 7.334 18.698C6.714 18.648 6.329 18.551 6.024 18.396C5.41263 18.0844 4.91556 17.5874 4.604 16.976C4.449 16.671 4.353 16.286 4.302 15.666C4.251 15.036 4.25 14.232 4.25 13.1V9.9C4.25 8.768 4.25 7.963 4.302 7.334C4.352 6.714 4.449 6.329 4.604 6.024C4.91556 5.41263 5.41363 4.91556 6.025 4.604Z" fill="white"/>
</svg>
