<svg width="37" height="43" viewBox="0 0 37 43" fill="none" xmlns="http://www.w3.org/2000/svg">
<g clip-path="url(#clip0_4294_5692)">
<path fill-rule="evenodd" clip-rule="evenodd" d="M26.0361 41.7965L25.943 5.74128C25.7019 5.49843 25.2316 5.57177 25.0478 5.62587L23.8232 6.00818C23.6721 5.50716 23.4759 5.02105 23.2372 4.55587C22.3683 2.88476 21.0984 2.00111 19.5611 1.99871H19.5563C19.4537 1.99871 19.3522 2.00832 19.2496 2.01674L19.2376 2.01794C19.1932 1.96279 19.147 1.90906 19.0992 1.85684C18.4308 1.1355 17.5714 0.78324 16.5426 0.813296C14.5589 0.871004 12.5836 2.3161 10.9807 4.88288C9.85275 6.68985 8.99698 8.95848 8.7523 10.715L4.84582 11.9352C3.69643 12.2995 3.66062 12.3356 3.50904 13.4284C3.39565 14.2556 0.386719 37.7221 0.386719 37.7221L25.604 42.1199L26.0361 41.7965ZM17.7743 2.46157C17.4389 2.23915 17.0463 2.13576 16.5808 2.14538C13.5181 2.23435 10.847 7.05894 10.1655 10.2737L13.0992 9.35762L13.6232 9.19412C14.0075 7.15271 14.9719 5.03436 16.2335 3.67102C16.6746 3.1825 17.1953 2.77347 17.7731 2.46157H17.7743ZM15.0733 8.74087L19.2842 7.42562C19.2973 6.31956 19.1779 4.68451 18.6289 3.53036C18.0441 3.77321 17.5523 4.19881 17.199 4.57992C16.2526 5.60543 15.4803 7.16954 15.0745 8.74087H15.0733ZM20.603 7.01446L22.5605 6.40251C22.2478 5.37821 21.5054 3.66141 20.0003 3.37287C20.4682 4.59074 20.5887 6.00097 20.603 7.01446Z" fill="#95BF47"/>
<path d="M31.6858 8.42334C31.5355 8.41132 28.6208 8.36563 28.6208 8.36563C28.6208 8.36563 26.1824 5.97798 25.9413 5.73393C25.8479 5.64715 25.7297 5.59243 25.6035 5.57764V42.1137L36.5305 39.3738C36.5305 39.3738 32.0714 8.96796 32.0427 8.75997C32.0289 8.67164 31.9862 8.5905 31.9213 8.5295C31.8564 8.46849 31.7743 8.43112 31.6858 8.42334Z" fill="#5E8E3E"/>
<path d="M19.5482 14.0966L18.2783 18.8863C18.2783 18.8863 16.8627 18.2359 15.1834 18.3429C12.7223 18.4992 12.696 20.0657 12.7211 20.4588C12.8548 22.5988 18.4418 23.0677 18.7557 28.0847C19.0028 32.0316 16.6801 34.733 13.3334 34.9446C9.31711 35.2007 7.10547 32.8107 7.10547 32.8107L7.95647 29.1583C7.95647 29.1583 10.1824 30.8522 11.9632 30.738C13.1281 30.6647 13.5435 29.7101 13.5017 29.0344C13.3262 26.2416 8.77644 26.4051 8.48879 21.815C8.24769 17.9498 10.7625 14.0365 16.3137 13.683C18.4525 13.546 19.5482 14.0978 19.5482 14.0978" fill="white"/>
</g>
<defs>
<clipPath id="clip0_4294_5692">
<rect width="37" height="42.0784" fill="white" transform="translate(0 0.460938)"/>
</clipPath>
</defs>
</svg>
