<svg width="6" height="7" viewBox="0 0 6 7" fill="none" xmlns="http://www.w3.org/2000/svg">
<path fill-rule="evenodd" clip-rule="evenodd" d="M2.93525 0.378933C2.84836 0.292226 2.71446 0.281438 2.61591 0.346706L2.57587 0.378933L1.56025 1.39456C1.46112 1.49369 1.46124 1.65472 1.56025 1.75393C1.65944 1.85313 1.82043 1.85313 1.91962 1.75393L2.50204 1.17084V4.45481C2.50204 4.59509 2.61566 4.70872 2.75594 4.70872C2.89623 4.70872 3.00985 4.59509 3.00985 4.45481V1.17131L3.59247 1.75393L3.63251 1.78714C3.73107 1.85195 3.86517 1.84062 3.95185 1.75393C4.03843 1.66707 4.04925 1.5331 3.98407 1.4346L3.95185 1.39456L2.93525 0.378933ZM0.131348 5.80802V3.26798C0.131348 2.6601 0.624046 2.1674 1.23193 2.1674H1.82471V2.67521H1.23193C0.90461 2.67521 0.63916 2.94066 0.63916 3.26798V5.80802C0.639171 6.13534 0.904616 6.4008 1.23193 6.4008H4.27979C4.6071 6.4008 4.87255 6.13534 4.87256 5.80802V3.26798C4.87256 2.94066 4.60711 2.67521 4.27979 2.67521H3.68701V2.1674H4.27979C4.88767 2.1674 5.38037 2.6601 5.38037 3.26798V5.80802C5.38036 6.4159 4.88767 6.90861 4.27979 6.90861H1.23193C0.624053 6.90861 0.131358 6.4159 0.131348 5.80802Z" fill="#80858A"/>
</svg>
