<svg width="9" height="10" viewBox="0 0 9 10" fill="none" xmlns="http://www.w3.org/2000/svg">
<path d="M3.77148 4.40186L0.646484 4.40186C0.480484 4.40186 0.321498 4.46765 0.204498 4.58495C0.0874985 4.70215 0.0214842 4.86105 0.0214842 5.02686C0.0214842 5.19266 0.0874985 5.35156 0.204498 5.46876C0.321498 5.58606 0.480484 5.65186 0.646484 5.65186L3.77148 5.65186L3.77148 8.77686C3.77148 8.94266 3.8375 9.10156 3.9545 9.21876C4.0715 9.33606 4.23048 9.40186 4.39648 9.40186C4.56248 9.40186 4.72147 9.33606 4.83847 9.21876C4.95547 9.10156 5.02148 8.94266 5.02148 8.77686L5.02148 5.65186L8.14648 5.65186C8.31248 5.65186 8.47147 5.58606 8.58847 5.46876C8.70547 5.35156 8.77148 5.19266 8.77148 5.02686C8.77148 4.86106 8.70547 4.70215 8.58847 4.58495C8.47147 4.46765 8.31248 4.40186 8.14648 4.40186L5.02148 4.40186L5.02148 1.27686C5.02148 1.11106 4.95547 0.952153 4.83847 0.834953C4.72147 0.717653 4.56248 0.651855 4.39648 0.651855C4.23048 0.651855 4.0715 0.717653 3.9545 0.834953C3.8375 0.952153 3.77148 1.11106 3.77148 1.27686L3.77148 4.40186Z" fill="#8C6BFF"/>
</svg>
