<svg width="3" height="4" viewBox="0 0 3 4" fill="none" xmlns="http://www.w3.org/2000/svg">
<path d="M1.70547 1.92446L2.5213 2.57138C2.54336 2.58897 2.56175 2.61 2.57546 2.63358C2.58929 2.65816 2.59808 2.68434 2.60152 2.71213C2.60485 2.73892 2.60281 2.76733 2.59527 2.79336C2.58784 2.82039 2.5751 2.84501 2.55796 2.86712C2.5407 2.88823 2.51942 2.9068 2.49513 2.91966C2.47095 2.93352 2.44427 2.94162 2.41679 2.94478C2.38919 2.94695 2.36147 2.94511 2.33496 2.9371C2.30845 2.92908 2.28378 2.91581 2.2624 2.89814L1.44637 2.25125L0.798947 3.06668C0.782141 3.08875 0.761133 3.10727 0.737148 3.1211C0.713153 3.13494 0.686565 3.14303 0.659201 3.14719C0.631722 3.15036 0.603891 3.14854 0.577201 3.14054C0.550625 3.13353 0.525685 3.12029 0.50408 3.10365C0.48235 3.08602 0.464351 3.06494 0.450975 3.04031C0.437704 3.01667 0.429266 2.98947 0.426416 2.96262C0.423451 2.93478 0.426073 2.90729 0.433947 2.88021C0.441935 2.85412 0.45507 2.82947 0.472551 2.80732L1.11997 1.99189L0.304029 1.34398C0.282086 1.32739 0.263688 1.30635 0.24998 1.28277C0.236157 1.25819 0.227357 1.23203 0.223915 1.20424C0.220587 1.17744 0.222619 1.14902 0.23017 1.12299C0.237597 1.09596 0.250333 1.07134 0.267487 1.04923C0.284745 1.02812 0.306022 1.00957 0.33031 0.996703C0.354483 0.982846 0.381171 0.974733 0.408649 0.971569C0.436127 0.968404 0.463974 0.971235 0.490485 0.979255C0.516987 0.987275 0.541658 1.00055 0.56304 1.01822L1.37887 1.66513L2.0265 0.849686C2.04329 0.827619 2.0643 0.809082 2.08829 0.795246C2.11229 0.78141 2.13875 0.772324 2.16624 0.769158C2.19372 0.765994 2.22154 0.767829 2.24824 0.775827C2.27482 0.782833 2.29976 0.796065 2.32136 0.812702C2.34308 0.830333 2.36108 0.851412 2.37447 0.876043C2.38773 0.899681 2.39617 0.926896 2.39902 0.953746C2.40198 0.981589 2.39937 1.00906 2.3915 1.03614C2.38351 1.06223 2.37037 1.08689 2.35278 1.10804L1.70547 1.92446Z" fill="#4BA9FE"/>
</svg>
