<svg width="7" height="7" viewBox="0 0 7 7" fill="none" xmlns="http://www.w3.org/2000/svg">
<path d="M2.95993 3.70158L2.13919 5.15252C2.09586 5.22912 2.08448 5.32032 2.10792 5.40481C2.13174 5.49067 2.18761 5.56251 2.26508 5.60633C2.34167 5.64965 2.4329 5.66102 2.51875 5.6372C2.60324 5.61376 2.67555 5.55702 2.71888 5.48043L3.53961 4.02948L4.99057 4.85022C5.06716 4.89355 5.15839 4.90491 5.24424 4.88109C5.32873 4.85766 5.40104 4.80092 5.44437 4.72432C5.48819 4.64686 5.49957 4.55565 5.47613 4.47116C5.45231 4.3853 5.39557 4.31297 5.31897 4.26964L3.86802 3.4489L4.68826 1.99883C4.73208 1.92136 4.74346 1.83015 4.72002 1.74566C4.6962 1.65981 4.63946 1.58748 4.56287 1.54415C4.4854 1.50033 4.39505 1.48946 4.30919 1.51328C4.2247 1.53672 4.15239 1.59346 4.10857 1.67093L3.28833 3.121L1.83738 2.30026C1.75991 2.25644 1.66955 2.24557 1.5837 2.26938C1.49921 2.29282 1.4269 2.34957 1.38308 2.42703C1.33976 2.50363 1.32838 2.59483 1.35182 2.67932C1.37564 2.76517 1.43151 2.83702 1.50897 2.88083L2.95993 3.70158Z" fill="#4BA9FE"/>
</svg>
