<svg width="7" height="7" viewBox="0 0 7 7" fill="none" xmlns="http://www.w3.org/2000/svg">
<path d="M2.95944 3.70158L2.1387 5.15252C2.09537 5.22912 2.084 5.32032 2.10744 5.40481C2.13125 5.49067 2.18712 5.56251 2.26459 5.60633C2.34118 5.64965 2.43241 5.66102 2.51826 5.6372C2.60275 5.61376 2.67506 5.55702 2.71839 5.48043L3.53912 4.02948L4.99008 4.85022C5.06668 4.89355 5.1579 4.90491 5.24376 4.88109C5.32825 4.85766 5.40055 4.80092 5.44388 4.72432C5.4877 4.64686 5.49908 4.55565 5.47564 4.47116C5.45182 4.3853 5.39508 4.31297 5.31849 4.26964L3.86753 3.4489L4.68777 1.99883C4.73159 1.92136 4.74297 1.83015 4.71953 1.74566C4.69572 1.65981 4.63898 1.58748 4.56238 1.54415C4.48491 1.50033 4.39456 1.48946 4.3087 1.51328C4.22421 1.53672 4.1519 1.59346 4.10809 1.67093L3.28784 3.121L1.83689 2.30026C1.75942 2.25644 1.66907 2.24557 1.58321 2.26938C1.49872 2.29282 1.42641 2.34957 1.38259 2.42703C1.33927 2.50363 1.32789 2.59483 1.35133 2.67932C1.37515 2.76517 1.43102 2.83702 1.50848 2.88083L2.95944 3.70158Z" fill="#4BA9FE"/>
</svg>
