<svg width="10" height="9" viewBox="0 0 10 9" fill="none" xmlns="http://www.w3.org/2000/svg">
<path d="M4.73053 3.82007L2.28805 3.28689C2.1585 3.25861 2.02299 3.28297 1.91146 3.35453C1.79981 3.42617 1.7212 3.5392 1.69292 3.66875C1.66464 3.7983 1.68899 3.93381 1.76065 4.04536C1.83219 4.15699 1.94523 4.2356 2.07478 4.26388L4.51726 4.79707L3.98407 7.23955C3.95579 7.3691 3.98015 7.50461 4.05181 7.61616C4.12335 7.72778 4.23639 7.8064 4.36593 7.83468C4.49548 7.86296 4.631 7.8386 4.74264 7.76696C4.85417 7.6954 4.93279 7.58237 4.96107 7.45282L5.49425 5.01034L7.93673 5.54352C8.06628 5.5718 8.20179 5.54744 8.31344 5.47581C8.42497 5.40425 8.50358 5.29121 8.53186 5.16166C8.56014 5.03211 8.53578 4.8966 8.46425 4.78497C8.39259 4.67343 8.27955 4.59481 8.15 4.56653L5.70752 4.03335L6.24071 1.59086C6.26899 1.46132 6.24463 1.3258 6.17309 1.21418C6.10143 1.10263 5.9884 1.02401 5.85885 0.995732C5.7293 0.967452 5.59378 0.991811 5.48226 1.06337C5.37061 1.13501 5.29199 1.24804 5.26371 1.37759L4.73053 3.82007Z" fill="#4BA9FE"/>
</svg>
