<svg width="9" height="10" viewBox="0 0 9 10" fill="none" xmlns="http://www.w3.org/2000/svg">
<path d="M3.77148 4.40234L0.646484 4.40234C0.480484 4.40234 0.321498 4.46814 0.204498 4.58544C0.0874985 4.70264 0.0214842 4.86154 0.0214842 5.02734C0.0214842 5.19314 0.0874985 5.35205 0.204498 5.46925C0.321498 5.58655 0.480484 5.65234 0.646484 5.65234L3.77148 5.65234L3.77148 8.77734C3.77148 8.94314 3.8375 9.10205 3.9545 9.21925C4.0715 9.33655 4.23048 9.40234 4.39648 9.40234C4.56248 9.40234 4.72147 9.33655 4.83847 9.21925C4.95547 9.10205 5.02148 8.94314 5.02148 8.77734L5.02148 5.65234L8.14648 5.65234C8.31248 5.65234 8.47147 5.58655 8.58847 5.46925C8.70547 5.35205 8.77148 5.19314 8.77148 5.02734C8.77148 4.86154 8.70547 4.70264 8.58847 4.58544C8.47147 4.46814 8.31248 4.40234 8.14648 4.40234L5.02148 4.40234L5.02148 1.27734C5.02148 1.11154 4.95547 0.952641 4.83847 0.835441C4.72147 0.718141 4.56248 0.652344 4.39648 0.652344C4.23048 0.652344 4.0715 0.718141 3.9545 0.835441C3.8375 0.952641 3.77148 1.11154 3.77148 1.27734L3.77148 4.40234Z" fill="#8C6BFF"/>
</svg>
