<svg width="79" height="44" viewBox="0 0 79 44" fill="none" xmlns="http://www.w3.org/2000/svg">
<path d="M76.2863 -0.583536C75.9641 -0.741673 75.5746 -0.608609 75.4165 -0.286331L72.8395 4.96549C72.6813 5.28777 72.8144 5.67722 73.1367 5.83536C73.459 5.9935 73.8484 5.86043 74.0066 5.53816L76.2972 0.869867L80.9655 3.16052C81.2878 3.31865 81.6772 3.18559 81.8354 2.86331C81.9935 2.54104 81.8604 2.15158 81.5382 1.99345L76.2863 -0.583536ZM0 40.5L-0.128745 41.1371C0.495224 41.2632 1.12964 41.3872 1.77375 41.5088L1.89435 40.8701L2.01496 40.2314C1.37623 40.1108 0.747244 39.9879 0.128745 39.8629L0 40.5ZM5.73744 41.547L5.63241 42.1885C6.89635 42.3954 8.18892 42.5921 9.50524 42.7763L9.59534 42.1326L9.68543 41.4888C8.37914 41.306 7.09653 41.1109 5.84248 40.9056L5.73744 41.547ZM13.457 42.628L13.3816 43.2736C14.6617 43.423 15.9587 43.5596 17.2687 43.6818L17.3291 43.0347L17.3894 42.3875C16.0896 42.2662 14.8026 42.1306 13.5323 41.9824L13.457 42.628ZM21.2112 43.3503L21.1663 43.9988C22.461 44.0884 23.7642 44.1628 25.0721 44.2204L25.1007 43.571L25.1293 42.9217C23.8326 42.8646 22.5402 42.7908 21.2561 42.7019L21.2112 43.3503ZM28.995 43.691L28.9838 44.3409C30.289 44.3634 31.5953 44.3678 32.899 44.3525L32.8914 43.7025L32.8838 43.0526C31.5931 43.0677 30.2994 43.0634 29.0062 43.0411L28.995 43.691ZM36.7864 43.5961L36.8146 44.2455C38.1262 44.1884 39.4315 44.1096 40.7266 44.0073L40.6755 43.3594L40.6243 42.7114C39.3452 42.8123 38.0552 42.8903 36.7581 42.9467L36.7864 43.5961ZM44.5527 42.9772L44.6296 43.6227C45.9409 43.4665 47.2376 43.2836 48.5154 43.0722L48.4092 42.4309L48.3031 41.7896C47.046 41.9976 45.7688 42.1778 44.4758 42.3318L44.5527 42.9772ZM52.2327 41.6971L52.3724 42.3319C53.6699 42.0463 54.942 41.7272 56.1837 41.3722L56.0051 40.7472L55.8264 40.1223C54.6122 40.4694 53.3662 40.7821 52.093 41.0623L52.2327 41.6971ZM59.7109 39.5427L59.9352 40.1528C61.195 39.6897 62.4145 39.1824 63.5871 38.6284L63.3095 38.0407L63.0318 37.453C61.8967 37.9893 60.7131 38.4818 59.4866 38.9326L59.7109 39.5427ZM66.7374 36.1963L67.0768 36.7507C68.2231 36.0491 69.3085 35.2899 70.3249 34.4696L69.9167 33.9638L69.5085 33.458C68.539 34.2404 67.5 34.9675 66.3981 35.6419L66.7374 36.1963ZM72.7559 31.2995L73.2363 31.7373C74.1354 30.7507 74.9501 29.6948 75.6714 28.5663L75.1238 28.2162L74.5761 27.8661C73.896 28.9301 73.1266 29.9275 72.2754 30.8617L72.7559 31.2995ZM76.9227 24.7652L77.5232 25.0139C78.02 23.8144 78.4252 22.5496 78.7321 21.217L78.0987 21.0711L77.4652 20.9252C77.1742 22.1889 76.7908 23.3849 76.3221 24.5165L76.9227 24.7652ZM78.6831 17.2302L79.3311 17.2817C79.4323 16.0104 79.4543 14.6868 79.3932 13.3095L78.7438 13.3384L78.0945 13.3672C78.1534 14.6938 78.1319 15.9635 78.0352 17.1786L78.6831 17.2302ZM78.3668 9.46468L79.0098 9.36992C78.8256 8.11977 78.5791 6.8299 78.2679 5.49924L77.635 5.64727L77.0021 5.7953C77.3055 7.09281 77.5451 8.3471 77.7237 9.55944L78.3668 9.46468ZM76.6169 1.89876L77.2381 1.70759C77.044 1.07682 76.8364 0.437608 76.6151 -0.210155L76 0L75.3849 0.210155C75.602 0.845675 75.8055 1.47223 75.9956 2.08993L76.6169 1.89876Z" fill="#2A52C6"/>
</svg>
