<svg width="256" height="112" viewBox="0 0 256 112" fill="none" xmlns="http://www.w3.org/2000/svg">
<path d="M256.707 112.707C257.098 112.317 257.098 111.683 256.707 111.293L250.343 104.929C249.953 104.538 249.319 104.538 248.929 104.929C248.538 105.319 248.538 105.953 248.929 106.343L254.586 112L248.929 117.657C248.538 118.047 248.538 118.681 248.929 119.071C249.319 119.462 249.953 119.462 250.343 119.071L256.707 112.707ZM0 0H-1V4.33333H0H1V0H0ZM0 13H-1V21.6667H0H1V13H0ZM0 30.3333H-1V39H0H1V30.3333H0ZM0 47.6667H-1V56.3333H0H1V47.6667H0ZM0 65H-1V73.6667H0H1V65H0ZM0 82.3333H-1V91H0H1V82.3333H0ZM0 99.6667H-1V104H0H1V99.6667H0ZM0 104H-1C-1 105.218 -0.757306 106.383 -0.316682 107.445L0.607044 107.062L1.53077 106.679C1.18909 105.855 1 104.951 1 104H0ZM4.9377 111.393L4.55464 112.317C5.6172 112.757 6.78152 113 8 113V112V111C7.04902 111 6.14472 110.811 5.32075 110.469L4.9377 111.393ZM8 112V113H12.4286V112V111H8V112ZM21.2857 112V113H30.1429V112V111H21.2857V112ZM39 112V113H47.8571V112V111H39V112ZM56.7143 112V113H65.5714V112V111H56.7143V112ZM74.4286 112V113H83.2857V112V111H74.4286V112ZM92.1429 112V113H101V112V111H92.1429V112ZM109.857 112V113H118.714V112V111H109.857V112ZM127.571 112V113H136.429V112V111H127.571V112ZM145.286 112V113H154.143V112V111H145.286V112ZM163 112V113H171.857V112V111H163V112ZM180.714 112V113H189.571V112V111H180.714V112ZM198.429 112V113H207.286V112V111H198.429V112ZM216.143 112V113H225V112V111H216.143V112ZM233.857 112V113H242.714V112V111H233.857V112ZM251.571 112V113H256V112V111H251.571V112Z" fill="#4BA9FE"/>
</svg>
