<svg width="6" height="5" viewBox="0 0 6 5" fill="none" xmlns="http://www.w3.org/2000/svg">
<path d="M2.44626 2.31006L0.779266 2.31006C0.691266 2.31006 0.606281 2.34506 0.544281 2.40706C0.481281 2.47006 0.446258 2.55406 0.446258 2.64306C0.446258 2.73106 0.481281 2.81606 0.544281 2.87906C0.606281 2.94106 0.691266 2.97606 0.779266 2.97606L2.44626 2.97606L2.44626 4.64306C2.44626 4.73106 2.48128 4.81606 2.54428 4.87906C2.60628 4.94106 2.69127 4.97606 2.77927 4.97606C2.86827 4.97606 2.95326 4.94106 3.01526 4.87906C3.07826 4.81606 3.11328 4.73106 3.11328 4.64306L3.11328 2.97606L4.77927 2.97606C4.86827 2.97606 4.95326 2.94106 5.01526 2.87906C5.07826 2.81606 5.11328 2.73106 5.11328 2.64306C5.11328 2.55406 5.07826 2.47006 5.01526 2.40706C4.95326 2.34506 4.86827 2.31006 4.77927 2.31006L3.11328 2.31006L3.11328 0.643059C3.11328 0.554059 3.07826 0.470059 3.01526 0.407059C2.95326 0.345059 2.86827 0.310058 2.77927 0.310058C2.69127 0.310058 2.60628 0.345059 2.54428 0.407059C2.48128 0.470059 2.44626 0.554059 2.44626 0.643059L2.44626 2.31006Z" fill="#8C6BFF"/>
</svg>
