<svg width="7" height="7" viewBox="0 0 7 7" fill="none" xmlns="http://www.w3.org/2000/svg">
<path d="M3.39648 3.19336L1.31348 3.19336C1.20248 3.19336 1.09649 3.23725 1.01849 3.31535C0.940493 3.39345 0.896484 3.49945 0.896484 3.60995C0.896484 3.72045 0.940493 3.82646 1.01849 3.90466C1.09649 3.98276 1.20248 4.02666 1.31348 4.02666L3.39648 4.02666L3.39648 6.10995C3.39648 6.22045 3.44049 6.32646 3.51849 6.40466C3.59649 6.48276 3.70248 6.52666 3.81348 6.52666C3.92348 6.52666 4.02948 6.48276 4.10748 6.40466C4.18548 6.32646 4.22949 6.22045 4.22949 6.10995L4.22949 4.02666L6.31348 4.02666C6.42348 4.02666 6.52948 3.98276 6.60748 3.90466C6.68548 3.82646 6.72949 3.72045 6.72949 3.60995C6.72949 3.49945 6.68548 3.39345 6.60748 3.31535C6.52948 3.23725 6.42348 3.19336 6.31348 3.19336L4.22949 3.19336L4.22949 1.10995C4.22949 0.999455 4.18548 0.893453 4.10748 0.815353C4.02948 0.737253 3.92348 0.693359 3.81348 0.693359C3.70248 0.693359 3.59649 0.737253 3.51849 0.815353C3.44049 0.893453 3.39648 0.999455 3.39648 1.10995L3.39648 3.19336Z" fill="#8C6BFF"/>
</svg>
