<svg width="60" height="47" viewBox="0 0 60 47" fill="none" xmlns="http://www.w3.org/2000/svg">
<path d="M59.8407 0.134053C59.6386 -0.0541155 59.3222 -0.0428162 59.1341 0.159291L56.0677 3.45281C55.8795 3.65492 55.8908 3.9713 56.0929 4.15947C56.295 4.34764 56.6114 4.33634 56.7996 4.13423L59.5252 1.20666L62.4528 3.93233C62.6549 4.1205 62.9713 4.1092 63.1595 3.90709C63.3476 3.70499 63.3363 3.3886 63.1342 3.20044L59.8407 0.134053ZM0 45.5L-0.0880338 45.9922C0.555112 46.1072 1.21763 46.2149 1.89764 46.3141L1.96985 45.8193L2.04206 45.3246C1.37242 45.2269 0.72046 45.1209 0.0880338 45.0078L0 45.5ZM5.92975 46.2784L5.88638 46.7765C7.18263 46.8894 8.52227 46.9707 9.89519 47.0151L9.91134 46.5153L9.92748 46.0156C8.57296 45.9718 7.25147 45.8916 5.97313 45.7803L5.92975 46.2784ZM13.9055 46.5362L13.9165 47.0361C15.2377 47.0071 16.5795 46.9419 17.9336 46.8362L17.8947 46.3377L17.8557 45.8392C16.5209 45.9434 15.1978 46.0077 13.8945 46.0363L13.9055 46.5362ZM21.8619 45.911L21.9302 46.4063C23.2511 46.2241 24.5765 46.0004 25.899 45.731L25.7993 45.2411L25.6995 44.7512C24.3988 45.016 23.0944 45.2363 21.7936 45.4157L21.8619 45.911ZM29.6797 44.3111L29.8133 44.7929C31.1052 44.4345 32.3876 44.0279 33.6534 43.5694L33.4831 43.0993L33.3128 42.6292C32.0723 43.0785 30.8144 43.4774 29.546 43.8293L29.6797 44.3111ZM37.1751 41.5845L37.3847 42.0384C38.6047 41.4752 39.8016 40.8566 40.9683 40.1789L40.7172 39.7465L40.4661 39.3142C39.3276 39.9754 38.1585 40.5797 36.9655 41.1305L37.1751 41.5845ZM44.0618 37.5717L44.3557 37.9763C45.4403 37.1884 46.4888 36.3395 47.4944 35.4259L47.1582 35.0558L46.822 34.6857C45.8442 35.574 44.8241 36.4 43.768 37.1672L44.0618 37.5717ZM49.9535 32.2117L50.3295 32.5413C51.2069 31.5401 52.0386 30.4766 52.8187 29.3476L52.4074 29.0634L51.996 28.7791C51.238 29.8762 50.4299 30.9095 49.5774 31.8822L49.9535 32.2117ZM54.4833 25.6647L54.9239 25.9012C55.5481 24.7387 56.1232 23.5181 56.6447 22.2372L56.1816 22.0487L55.7185 21.8602C55.2102 23.1086 54.6501 24.2971 54.0428 25.4281L54.4833 25.6647ZM57.5017 18.2823L57.9809 18.4249C58.353 17.1739 58.6787 15.8729 58.9547 14.5204L58.4648 14.4205L57.9749 14.3205C57.7046 15.6451 57.3859 16.9175 57.0224 18.1398L57.5017 18.2823ZM59.1053 10.4865L59.6015 10.5478C59.7614 9.25449 59.8795 7.919 59.9536 6.54017L59.4543 6.51333L58.9551 6.48649C58.8821 7.84302 58.766 9.15547 58.609 10.4251L59.1053 10.4865ZM59.544 2.52533L60.044 2.5216C60.039 1.85118 60.0243 1.17141 59.9997 0.482154L59.5 0.5L59.0003 0.517846C59.0246 1.19785 59.0391 1.86822 59.044 2.52906L59.544 2.52533Z" fill="#2A52C6"/>
</svg>
