<svg width="98" height="25" viewBox="0 0 98 25" fill="none" xmlns="http://www.w3.org/2000/svg">
<path d="M97.8478 24.9763C98.1108 25.0603 98.3922 24.9152 98.4763 24.6522L99.8462 20.3658C99.9302 20.1028 99.7851 19.8214 99.5221 19.7373C99.2591 19.6532 98.9777 19.7983 98.8936 20.0614L97.6759 23.8715L93.8658 22.6538C93.6028 22.5698 93.3214 22.7149 93.2373 22.9779C93.1532 23.2409 93.2983 23.5223 93.5614 23.6064L97.8478 24.9763ZM0 2.5L0.060893 2.99628C0.705856 2.91714 1.36814 2.83973 2.04673 2.76434L1.99153 2.2674L1.93632 1.77046C1.25403 1.84625 0.587952 1.92411 -0.060893 2.00372L0 2.5ZM6.01531 1.86299L6.06033 2.36095C7.35564 2.24383 8.69537 2.1348 10.074 2.03555L10.0381 1.53684L10.0022 1.03813C8.61755 1.13782 7.27173 1.24734 5.97028 1.36502L6.01531 1.86299ZM14.0778 1.28126L14.1051 1.78052C15.4235 1.70842 16.7697 1.64576 18.1398 1.59379L18.1208 1.09415L18.1019 0.594508C16.7262 0.646691 15.3744 0.709613 14.0505 0.782008L14.0778 1.28126ZM22.1546 0.97453L22.1653 1.47442C23.4927 1.44605 24.8374 1.42821 26.1962 1.42195L26.1939 0.921958L26.1916 0.421963C24.8271 0.42825 23.4768 0.446162 22.1439 0.474644L22.1546 0.97453ZM30.2353 0.937942L30.229 1.4379C31.5643 1.45475 32.9094 1.48334 34.2613 1.52464L34.2766 1.02487L34.2918 0.525102C32.9338 0.483622 31.5827 0.454899 30.2416 0.437981L30.2353 0.937942ZM38.3156 1.18602L38.2909 1.68541C39.63 1.75161 40.9726 1.83098 42.3158 1.92442L42.3505 1.42562L42.3852 0.926828C41.0351 0.832915 39.6858 0.753152 38.3403 0.686632L38.3156 1.18602ZM46.3789 1.74892L46.3335 2.24685C47.6729 2.36905 49.0098 2.50615 50.3413 2.65905L50.3983 2.16231L50.4554 1.66558C49.1158 1.51176 47.7711 1.37386 46.4243 1.25099L46.3789 1.74892ZM54.4066 2.67372L54.3369 3.16883C55.6735 3.35702 57.0015 3.56236 58.3177 3.78577L58.4014 3.29282L58.485 2.79987C57.1591 2.57481 55.8218 2.36804 54.4763 2.1786L54.4066 2.67372ZM62.3763 4.03094L62.2771 4.52101C63.6041 4.78957 64.9153 5.07823 66.2075 5.38799L66.324 4.90177L66.4406 4.41554C65.1363 4.10287 63.8135 3.81166 62.4754 3.54088L62.3763 4.03094ZM70.2347 5.92174L70.0985 6.40283C71.4037 6.77236 72.6842 7.16595 73.9362 7.58471L74.0948 7.11053L74.2534 6.63635C72.9856 6.21233 71.6902 5.81417 70.371 5.44065L70.2347 5.92174ZM77.8852 8.49156L77.7009 8.95636C78.967 9.45836 80.1962 9.99006 81.384 10.5527L81.5981 10.1009L81.8121 9.64902C80.6034 9.07643 79.3543 8.53618 78.0695 8.02676L77.8852 8.49156ZM85.1842 11.9679L84.9358 12.4018C86.1131 13.0758 87.2371 13.7868 88.3023 14.5364L88.5901 14.1275L88.8778 13.7186C87.7853 12.9498 86.6349 12.2222 85.4327 11.534L85.1842 11.9679ZM91.7642 16.6305L91.4324 17.0045C92.4397 17.8981 93.3725 18.838 94.2244 19.8259L94.6031 19.4994L94.9818 19.1729C94.0989 18.149 93.1344 17.1777 92.0961 16.2564L91.7642 16.6305ZM97.0006 22.744L96.5766 23.0088C96.9263 23.5688 97.2529 24.1421 97.5556 24.7291L98 24.5L98.4444 24.2709C98.1289 23.6591 97.7887 23.0619 97.4247 22.4791L97.0006 22.744Z" fill="#2A52C6"/>
</svg>
