<svg width="6" height="5" viewBox="0 0 6 5" fill="none" xmlns="http://www.w3.org/2000/svg">
<path d="M2.44626 2.31055L0.779266 2.31055C0.691266 2.31055 0.606281 2.34555 0.544281 2.40755C0.481281 2.47055 0.446258 2.55455 0.446258 2.64355C0.446258 2.73155 0.481281 2.81655 0.544281 2.87955C0.606281 2.94155 0.691266 2.97655 0.779266 2.97655L2.44626 2.97655L2.44626 4.64355C2.44626 4.73155 2.48128 4.81655 2.54428 4.87955C2.60628 4.94155 2.69127 4.97655 2.77927 4.97655C2.86827 4.97655 2.95326 4.94155 3.01526 4.87955C3.07826 4.81655 3.11328 4.73155 3.11328 4.64355L3.11328 2.97655L4.77927 2.97655C4.86827 2.97655 4.95326 2.94155 5.01526 2.87955C5.07826 2.81655 5.11328 2.73155 5.11328 2.64355C5.11328 2.55455 5.07826 2.47055 5.01526 2.40755C4.95326 2.34555 4.86827 2.31055 4.77927 2.31055L3.11328 2.31055L3.11328 0.643547C3.11328 0.554547 3.07826 0.470547 3.01526 0.407547C2.95326 0.345547 2.86827 0.310547 2.77927 0.310547C2.69127 0.310547 2.60628 0.345547 2.54428 0.407547C2.48128 0.470547 2.44626 0.554547 2.44626 0.643547L2.44626 2.31055Z" fill="#8C6BFF"/>
</svg>
