<svg width="9" height="8" viewBox="0 0 9 8" fill="none" xmlns="http://www.w3.org/2000/svg">
<path d="M5.09842 4.35993L5.38444 6.84351C5.39961 6.97524 5.36181 7.10763 5.27944 7.21144C5.19699 7.31535 5.07665 7.38226 4.94492 7.39743C4.8132 7.4126 4.6808 7.3748 4.57698 7.29234C4.47308 7.20998 4.40617 7.08965 4.391 6.95792L4.10499 4.47433L1.6214 4.76035C1.48967 4.77552 1.35728 4.73772 1.25346 4.65526C1.14956 4.5729 1.08265 4.45257 1.06748 4.32084C1.05231 4.18911 1.09011 4.05671 1.17256 3.9528C1.25493 3.84899 1.37527 3.78209 1.50699 3.76692L3.99058 3.4809L3.70456 0.997314C3.68939 0.865585 3.72719 0.733191 3.80964 0.629276C3.89201 0.525471 4.01235 0.458564 4.14407 0.443394C4.2758 0.428223 4.4082 0.466025 4.5121 0.548378C4.61592 0.630843 4.68283 0.751178 4.698 0.882907L4.98401 3.36649L7.4676 3.08047C7.59933 3.0653 7.73172 3.10311 7.83563 3.18546C7.93944 3.26792 8.00635 3.38826 8.02152 3.51999C8.03669 3.65172 7.99889 3.78411 7.91652 3.88792C7.83407 3.99183 7.71373 4.05874 7.58201 4.07391L5.09842 4.35993Z" fill="#4BA9FE"/>
</svg>
