<svg width="8" height="8" viewBox="0 0 8 8" fill="none" xmlns="http://www.w3.org/2000/svg">
<path d="M4.81017 3.53707L7.2575 5.47979C7.32374 5.53055 7.37832 5.59372 7.4198 5.66544C7.46139 5.73816 7.48767 5.81768 7.49816 5.90002C7.50865 5.98237 7.50214 6.06566 7.47916 6.14582C7.45717 6.22586 7.41837 6.2998 7.3675 6.36505C7.31564 6.43041 7.25136 6.48414 7.17853 6.52474C7.10658 6.56423 7.02594 6.58958 6.94337 6.59808C6.8608 6.60659 6.7774 6.59911 6.69813 6.57503C6.61897 6.55193 6.54493 6.51213 6.48045 6.45916L4.03223 4.51752L2.09045 6.96472C2.0397 7.03096 1.97665 7.08656 1.90481 7.12704C1.83309 7.16852 1.75356 7.19475 1.67122 7.20524C1.58888 7.21573 1.5046 7.20937 1.42555 7.18727C1.3454 7.16429 1.27059 7.12658 1.20523 7.07472C1.14086 7.02274 1.08627 6.95955 1.04666 6.8866C1.00607 6.81377 0.981785 6.73402 0.972289 6.65157C0.963786 6.569 0.971295 6.48558 0.995269 6.40531C1.01936 6.32604 1.05815 6.25211 1.11112 6.18763L3.05389 3.74031L0.605566 1.7977C0.539324 1.74694 0.484739 1.68377 0.443261 1.61204C0.401782 1.54032 0.375507 1.46077 0.365018 1.37843C0.355522 1.29598 0.361039 1.2128 0.384019 1.13264C0.406007 1.0526 0.444689 0.977666 0.495672 0.913411C0.547535 0.848049 0.611818 0.794379 0.684652 0.75378C0.756606 0.714288 0.837225 0.688878 0.919794 0.680375C1.00225 0.670879 1.08577 0.679367 1.16494 0.702462C1.24421 0.72655 1.31825 0.766356 1.38262 0.818333L3.82995 2.76112L5.77261 0.312768C5.82348 0.247519 5.88653 0.191926 5.95825 0.150448C6.03009 0.109963 6.10949 0.0827126 6.19195 0.0732168C6.27429 0.0627276 6.35858 0.0691466 6.43763 0.0912481C6.51778 0.114229 6.59258 0.151881 6.65795 0.203744C6.7222 0.254727 6.7769 0.318907 6.81651 0.391855C6.85711 0.464688 6.88238 0.544324 6.89089 0.626894C6.89939 0.709463 6.89188 0.792898 6.86779 0.872174C6.84371 0.95145 6.80491 1.02538 6.75194 1.08986L4.81017 3.53707Z" fill="#4BA9FE"/>
</svg>
