<svg width="8" height="7" viewBox="0 0 8 7" fill="none" xmlns="http://www.w3.org/2000/svg">
<path d="M4.08412 2.45571L1.87416 0.24671C1.81616 0.18671 1.74716 0.13971 1.67116 0.10671C1.59416 0.0737105 1.51216 0.056708 1.42915 0.055708C1.34615 0.0547079 1.26415 0.070705 1.18715 0.102705C1.11015 0.133705 1.04113 0.180707 0.982133 0.238707C0.923133 0.297707 0.87711 0.367708 0.845109 0.444708C0.814109 0.520708 0.79815 0.603712 0.79915 0.686712C0.80015 0.769712 0.817114 0.85171 0.850114 0.92771C0.882114 1.00371 0.930129 1.0727 0.990129 1.1307L3.19911 3.34071L0.990129 5.54971C0.930129 5.60771 0.882114 5.67671 0.850114 5.75271C0.817114 5.82871 0.80015 5.91071 0.79915 5.99371C0.79815 6.07671 0.814109 6.15971 0.845109 6.23571C0.877109 6.31271 0.923133 6.38271 0.982133 6.44171C1.04113 6.49971 1.11015 6.54671 1.18715 6.57771C1.26415 6.60971 1.34615 6.62471 1.42915 6.62471C1.51215 6.62371 1.59416 6.60671 1.67116 6.57371C1.74716 6.54071 1.81616 6.49371 1.87416 6.43371L4.08315 4.22371L6.29311 6.43371C6.35111 6.49371 6.42011 6.54071 6.49611 6.57371C6.57211 6.60671 6.65414 6.62371 6.73714 6.62471C6.82014 6.62471 6.90214 6.60971 6.97914 6.57771C7.05614 6.54671 7.12616 6.49971 7.18416 6.44171C7.24316 6.38271 7.28912 6.31271 7.32112 6.23571C7.35212 6.15971 7.36814 6.07671 7.36714 5.99371C7.36714 5.91071 7.34916 5.82871 7.31716 5.75271C7.28416 5.67671 7.23614 5.60771 7.17714 5.54971L4.96712 3.34071L7.17714 1.13071C7.23614 1.07271 7.28416 1.00371 7.31716 0.92771C7.34916 0.85171 7.36714 0.769713 7.36714 0.686713C7.36814 0.603713 7.35212 0.520708 7.32112 0.444708C7.28912 0.367708 7.24316 0.297707 7.18416 0.238707C7.12616 0.180707 7.05614 0.133705 6.97914 0.102705C6.90214 0.0707053 6.82014 0.0547082 6.73714 0.0557082C6.65414 0.0567082 6.57211 0.0737107 6.49611 0.106711C6.42011 0.139711 6.35111 0.18671 6.29311 0.24671L4.08412 2.45571Z" fill="#8C6BFF"/>
</svg>
