<svg width="24" height="24" viewBox="0 0 24 24" fill="none" xmlns="http://www.w3.org/2000/svg">
<mask id="mask0_4220_6997" style="mask-type:alpha" maskUnits="userSpaceOnUse" x="0" y="0" width="24" height="24">
<rect width="24" height="24" fill="#D9D9D9"/>
</mask>
<g mask="url(#mask0_4220_6997)">
<path d="M12 22C10.6167 22 9.31667 21.7375 8.1 21.2125C6.88333 20.6875 5.825 19.975 4.925 19.075C4.025 18.175 3.3125 17.1167 2.7875 15.9C2.2625 14.6833 2 13.3833 2 12C2 10.6167 2.2625 9.31667 2.7875 8.1C3.3125 6.88333 4.025 5.825 4.925 4.925C5.825 4.025 6.88333 3.3125 8.1 2.7875C9.31667 2.2625 10.6167 2 12 2C12.3833 2 12.7583 2.02083 13.125 2.0625C13.4917 2.10417 13.8583 2.16667 14.225 2.25L13.775 4.2C13.4917 4.13333 13.2167 4.08333 12.95 4.05C12.6833 4.01667 12.4083 4 12.125 4C11.6083 4.58333 11.1833 5.21667 10.85 5.9C10.5167 6.58333 10.25 7.28333 10.05 8H14V10H9.65C9.6 10.3333 9.5625 10.6667 9.5375 11C9.5125 11.3333 9.5 11.6667 9.5 12C9.5 12.3333 9.5125 12.6667 9.5375 13C9.5625 13.3333 9.6 13.6667 9.65 14H14.35C14.4 13.6667 14.4375 13.3333 14.4625 13C14.4875 12.6667 14.5 12.3333 14.5 12H16.5C16.5 12.3333 16.4875 12.6667 16.4625 13C16.4375 13.3333 16.4 13.6667 16.35 14H19.75C19.8333 13.6667 19.8958 13.3333 19.9375 13C19.9792 12.6667 20 12.3333 20 12H22C22 13.3833 21.7375 14.6833 21.2125 15.9C20.6875 17.1167 19.975 18.175 19.075 19.075C18.175 19.975 17.1167 20.6875 15.9 21.2125C14.6833 21.7375 13.3833 22 12 22ZM4.25 14H7.65C7.6 13.6667 7.5625 13.3333 7.5375 13C7.5125 12.6667 7.5 12.3333 7.5 12C7.5 11.6667 7.5125 11.3333 7.5375 11C7.5625 10.6667 7.6 10.3333 7.65 10H4.25C4.16667 10.3333 4.10417 10.6667 4.0625 11C4.02083 11.3333 4 11.6667 4 12C4 12.3333 4.02083 12.6667 4.0625 13C4.10417 13.3333 4.16667 13.6667 4.25 14ZM9.35 19.55C9.06667 19.0667 8.81667 18.525 8.6 17.925C8.38333 17.325 8.18333 16.6833 8 16H5.075C5.55833 16.8333 6.16667 17.55 6.9 18.15C7.63333 18.75 8.45 19.2167 9.35 19.55ZM5.1 8H8C8.18333 7.33333 8.38333 6.69583 8.6 6.0875C8.81667 5.47917 9.06667 4.93333 9.35 4.45C8.43333 4.75 7.61667 5.20417 6.9 5.8125C6.18333 6.42083 5.58333 7.15 5.1 8ZM12 19.9C12.4333 19.3167 12.8083 18.7 13.125 18.05C13.4417 17.4 13.7167 16.7167 13.95 16H10.05C10.2833 16.7167 10.5583 17.4 10.875 18.05C11.1917 18.7 11.5667 19.3167 12 19.9ZM14.65 19.55C15.5667 19.2333 16.3875 18.7708 17.1125 18.1625C17.8375 17.5542 18.4417 16.8333 18.925 16H16C15.8167 16.6667 15.6167 17.3042 15.4 17.9125C15.1833 18.5208 14.9333 19.0667 14.65 19.55ZM16.85 10C16.6167 10 16.4167 9.91667 16.25 9.75C16.0833 9.58333 16 9.38333 16 9.15V5.85C16 5.61667 16.0833 5.41667 16.25 5.25C16.4167 5.08333 16.6167 5 16.85 5H17V4C17 3.45 17.1958 2.97917 17.5875 2.5875C17.9792 2.19583 18.45 2 19 2C19.55 2 20.0208 2.19583 20.4125 2.5875C20.8042 2.97917 21 3.45 21 4V5H21.15C21.3833 5 21.5833 5.08333 21.75 5.25C21.9167 5.41667 22 5.61667 22 5.85V9.15C22 9.38333 21.9167 9.58333 21.75 9.75C21.5833 9.91667 21.3833 10 21.15 10H16.85ZM18 5H20V4C20 3.71667 19.9042 3.47917 19.7125 3.2875C19.5208 3.09583 19.2833 3 19 3C18.7167 3 18.4792 3.09583 18.2875 3.2875C18.0958 3.47917 18 3.71667 18 4V5Z" fill="#F59E0B"/>
</g>
</svg>
