<svg width="7" height="5" viewBox="0 0 7 5" fill="none" xmlns="http://www.w3.org/2000/svg">
<path fill-rule="evenodd" clip-rule="evenodd" d="M3.50182 1.64138C4.25227 1.64141 4.97403 1.92977 5.51792 2.44685C5.55888 2.48677 5.62434 2.48627 5.66468 2.44572L6.05618 2.05061C6.0766 2.03004 6.08799 2.00218 6.08782 1.9732C6.08765 1.94422 6.07594 1.9165 6.05528 1.89617C4.62775 0.528099 2.37566 0.528099 0.948132 1.89617C0.927453 1.91648 0.91572 1.94419 0.91553 1.97318C0.915339 2.00216 0.926706 2.03003 0.947116 2.05061L1.33873 2.44572C1.37904 2.48633 1.44456 2.48683 1.48549 2.44685C2.02944 1.92973 2.75129 1.64138 3.50182 1.64138ZM3.50175 2.92683C3.91408 2.9268 4.31169 3.08006 4.61733 3.35682C4.65867 3.3961 4.72379 3.39525 4.76409 3.3549L5.15514 2.95979C5.17573 2.93906 5.18716 2.91095 5.18686 2.88173C5.18656 2.85252 5.17457 2.82464 5.15356 2.80434C4.22282 1.93857 2.78147 1.93857 1.85073 2.80434C1.82971 2.82464 1.81772 2.85253 1.81744 2.88176C1.81716 2.91098 1.82863 2.93909 1.84927 2.95979L2.2402 3.3549C2.2805 3.39525 2.34562 3.3961 2.38696 3.35682C2.6924 3.08024 3.0897 2.927 3.50175 2.92683ZM4.28511 3.79164C4.28571 3.82094 4.2742 3.84919 4.25328 3.86971L3.57684 4.55236C3.55702 4.57242 3.52998 4.58371 3.50177 4.58371C3.47356 4.58371 3.44653 4.57242 3.4267 4.55236L2.75015 3.86971C2.72925 3.84917 2.71775 3.82092 2.71837 3.79162C2.71899 3.76232 2.73167 3.73458 2.75342 3.71494C3.18542 3.34955 3.81812 3.34955 4.25012 3.71494C4.27185 3.73459 4.28452 3.76235 4.28511 3.79164Z" fill="black"/>
</svg>
