<svg width="18" height="18" viewBox="0 0 18 18" fill="none" xmlns="http://www.w3.org/2000/svg">
<mask id="mask0_4240_5458" style="mask-type:alpha" maskUnits="userSpaceOnUse" x="0" y="0" width="18" height="18">
<rect x="0.12793" y="0.373535" width="17.2647" height="17.2647" fill="#D9D9D9"/>
</mask>
<g mask="url(#mask0_4240_5458)">
<path d="M4.4442 14.9273C3.80505 14.9273 3.25791 14.6997 2.80279 14.2446C2.34768 13.7895 2.12012 13.2423 2.12012 12.6032C2.12012 11.964 2.34768 11.4169 2.80279 10.9618C3.25791 10.5067 3.80505 10.2791 4.4442 10.2791C5.08336 10.2791 5.6305 10.5067 6.08561 10.9618C6.54073 11.4169 6.76829 11.964 6.76829 12.6032C6.76829 13.2423 6.54073 13.7895 6.08561 14.2446C5.6305 14.6997 5.08336 14.9273 4.4442 14.9273ZM13.0766 14.9273C12.4374 14.9273 11.8903 14.6997 11.4352 14.2446C10.98 13.7895 10.7525 13.2423 10.7525 12.6032C10.7525 11.964 10.98 11.4169 11.4352 10.9618C11.8903 10.5067 12.4374 10.2791 13.0766 10.2791C13.7157 10.2791 14.2629 10.5067 14.718 10.9618C15.1731 11.4169 15.4007 11.964 15.4007 12.6032C15.4007 13.2423 15.1731 13.7895 14.718 14.2446C14.2629 14.6997 13.7157 14.9273 13.0766 14.9273ZM4.44474 14.2079C4.88619 14.2079 5.26392 14.0507 5.57792 13.7364C5.89192 13.422 6.04893 13.0441 6.04893 12.6026C6.04893 12.1612 5.89175 11.7835 5.57738 11.4695C5.26302 11.1555 4.88511 10.9985 4.44366 10.9985C4.00221 10.9985 3.62449 11.1556 3.31049 11.47C2.99648 11.7844 2.83948 12.1623 2.83948 12.6037C2.83948 13.0452 2.99666 13.4229 3.31103 13.7369C3.62539 14.0509 4.00329 14.2079 4.44474 14.2079ZM13.0771 14.2079C13.5186 14.2079 13.8963 14.0507 14.2103 13.7364C14.5243 13.422 14.6813 13.0441 14.6813 12.6026C14.6813 12.1612 14.5241 11.7835 14.2098 11.4695C13.8954 11.1555 13.5175 10.9985 13.076 10.9985C12.6346 10.9985 12.2569 11.1556 11.9429 11.47C11.6289 11.7844 11.4719 12.1623 11.4719 12.6037C11.4719 13.0452 11.629 13.4229 11.9434 13.7369C12.2578 14.0509 12.6357 14.2079 13.0771 14.2079ZM8.76039 7.73362C8.12123 7.73362 7.5741 7.50606 7.11898 7.05095C6.66386 6.59583 6.4363 6.04869 6.4363 5.40954C6.4363 4.77038 6.66386 4.22324 7.11898 3.76813C7.5741 3.31301 8.12123 3.08545 8.76039 3.08545C9.39955 3.08545 9.94668 3.31301 10.4018 3.76813C10.8569 4.22324 11.0845 4.77038 11.0845 5.40954C11.0845 6.04869 10.8569 6.59583 10.4018 7.05095C9.94668 7.50606 9.39955 7.73362 8.76039 7.73362ZM8.76093 7.01426C9.20238 7.01426 9.5801 6.85708 9.89411 6.54271C10.2081 6.22835 10.3651 5.85045 10.3651 5.409C10.3651 4.96755 10.2079 4.58982 9.89357 4.27582C9.57921 3.96181 9.2013 3.80481 8.75985 3.80481C8.3184 3.80481 7.94067 3.96199 7.62667 4.27636C7.31267 4.59072 7.15567 4.96863 7.15567 5.41008C7.15567 5.85153 7.31285 6.22925 7.62721 6.54325C7.94157 6.85726 8.31948 7.01426 8.76093 7.01426Z" fill="#1C1B1F"/>
</g>
</svg>
